G04*
G04 #@! TF.GenerationSoftware,Altium Limited,Altium Designer,22.0.2 (36)*
G04*
G04 Layer_Color=16711935*
%FSLAX44Y44*%
%MOMM*%
G71*
G04*
G04 #@! TF.SameCoordinates,A2EA2B81-71FB-41A7-B433-9E60F2C241B4*
G04*
G04*
G04 #@! TF.FilePolarity,Positive*
G04*
G01*
G75*
%ADD10C,0.2540*%
D10*
X76000Y2500000D02*
G03*
X101400Y2500000I12700J0D01*
G01*
X101600Y2438400D02*
G03*
X76200Y2438400I-12700J0D01*
G01*
Y2438400D02*
G03*
X76200Y2413000I0J-12700D01*
G01*
X0Y2413000D02*
G03*
X0Y2438400I0J12700D01*
G01*
X1473200D02*
G03*
X1447800Y2438400I-12700J0D01*
G01*
X1447657Y2500000D02*
G03*
X1473057Y2500000I12700J0D01*
G01*
X495300Y2413000D02*
G03*
X495300Y2438400I0J12700D01*
G01*
X571500D02*
G03*
X571500Y2413000I0J-12700D01*
G01*
X965200D02*
G03*
X965200Y2438400I0J12700D01*
G01*
X1041400D02*
G03*
X1041400Y2413000I0J-12700D01*
G01*
X1447800Y2171700D02*
G03*
X1473200Y2171700I12700J0D01*
G01*
X2057400Y0D02*
G03*
X2032000Y0I-12700J0D01*
G01*
X1714500Y1447800D02*
G03*
X1714500Y1473200I0J12700D01*
G01*
X2057400Y76200D02*
G03*
X2057400Y101600I0J12700D01*
G01*
X2133600D02*
G03*
X2133600Y76200I0J-12700D01*
G01*
X2032000Y76200D02*
G03*
X2057400Y76200I12700J0D01*
G01*
X1790700Y101600D02*
G03*
X1790700Y76200I0J-12700D01*
G01*
X101600Y2095500D02*
G03*
X76200Y2095500I-12700J0D01*
G01*
X76200Y2171700D02*
G03*
X101600Y2171700I12700J0D01*
G01*
X1447800Y1587500D02*
G03*
X1473200Y1587500I12700J0D01*
G01*
Y2095500D02*
G03*
X1447800Y2095500I-12700J0D01*
G01*
X1447800Y1003300D02*
G03*
X1473200Y1003300I12700J0D01*
G01*
Y1511300D02*
G03*
X1447800Y1511300I-12700J0D01*
G01*
X1473200Y927100D02*
G03*
X1447800Y927100I-12700J0D01*
G01*
X1041400Y1854200D02*
G03*
X1041400Y1828800I0J-12700D01*
G01*
X965200D02*
G03*
X965200Y1854200I0J12700D01*
G01*
X571500D02*
G03*
X571500Y1828800I0J-12700D01*
G01*
X495300D02*
G03*
X495300Y1854200I0J12700D01*
G01*
X1041400Y1270000D02*
G03*
X1041400Y1244600I0J-12700D01*
G01*
X965200D02*
G03*
X965200Y1270000I0J12700D01*
G01*
X571500D02*
G03*
X571500Y1244600I0J-12700D01*
G01*
X495300D02*
G03*
X495300Y1270000I0J12700D01*
G01*
X101600Y1511300D02*
G03*
X76200Y1511300I-12700J0D01*
G01*
Y1587500D02*
G03*
X101600Y1587500I12700J0D01*
G01*
X76200Y1003300D02*
G03*
X101600Y1003300I12700J0D01*
G01*
X76200Y419100D02*
G03*
X101600Y419100I12700J0D01*
G01*
X495300Y660400D02*
G03*
X495300Y685800I0J12700D01*
G01*
X1790700Y1473200D02*
G03*
X1790700Y1447800I0J-12700D01*
G01*
X2032000Y368300D02*
G03*
X2057400Y368300I12700J0D01*
G01*
X2057400Y774700D02*
G03*
X2032000Y774700I-12700J0D01*
G01*
X2057400Y292100D02*
G03*
X2032000Y292100I-12700J0D01*
G01*
Y850900D02*
G03*
X2057400Y850900I12700J0D01*
G01*
X2057400Y1257300D02*
G03*
X2032000Y1257300I-12700J0D01*
G01*
X2032000Y1333500D02*
G03*
X2057400Y1333500I12700J0D01*
G01*
X1714500Y76200D02*
G03*
X1714500Y101600I0J12700D01*
G01*
X2133600Y1473200D02*
G03*
X2133600Y1447800I0J-12700D01*
G01*
X2057400D02*
G03*
X2057400Y1473200I0J12700D01*
G01*
X76200Y101600D02*
G03*
X76200Y76200I0J-12700D01*
G01*
X0D02*
G03*
X0Y101600I0J12700D01*
G01*
X571500Y685800D02*
G03*
X571500Y660400I0J-12700D01*
G01*
X965200D02*
G03*
X965200Y685800I0J12700D01*
G01*
X1041400D02*
G03*
X1041400Y660400I0J-12700D01*
G01*
X1447800Y76200D02*
G03*
X1473200Y76200I12700J0D01*
G01*
Y0D02*
G03*
X1447800Y0I-12700J0D01*
G01*
X1473200Y342900D02*
G03*
X1447800Y342900I-12700J0D01*
G01*
Y419100D02*
G03*
X1473200Y419100I12700J0D01*
G01*
X1041400Y101600D02*
G03*
X1041400Y76200I0J-12700D01*
G01*
X965200D02*
G03*
X965200Y101600I0J12700D01*
G01*
X571500D02*
G03*
X571500Y76200I0J-12700D01*
G01*
X495300D02*
G03*
X495300Y101600I0J12700D01*
G01*
X101600Y0D02*
G03*
X76200Y0I-12700J0D01*
G01*
Y76200D02*
G03*
X101600Y76200I12700J0D01*
G01*
Y342900D02*
G03*
X76200Y342900I-12700J0D01*
G01*
X101600Y927100D02*
G03*
X76200Y927100I-12700J0D01*
G01*
X1473057Y2500000D02*
X2133600D01*
X101400D02*
X1447657D01*
X0D02*
X76000D01*
X0Y2438400D02*
Y2500000D01*
X2133600D02*
X2133600Y1473200D01*
X-1Y2413000D02*
X0Y101600D01*
X1041400Y2438400D02*
X1447800D01*
X101600Y2413000D02*
X495300D01*
X101600Y2438400D02*
X495300D01*
X571500Y2413000D02*
X965200D01*
X571500Y2438400D02*
X965200D01*
X1041400Y2413000D02*
X1447800D01*
X1473200Y2171700D02*
Y2438400D01*
X1447800Y2171700D02*
Y2413000D01*
X2057400Y0D02*
X2133600D01*
X1473200Y1473200D02*
X1714500D01*
X1473200D02*
Y1511300D01*
X1473200Y1447800D02*
X1714500D01*
X2032000Y101600D02*
Y292100D01*
X1790700Y101600D02*
X2032000Y101600D01*
X1790700Y76200D02*
X2032000Y76200D01*
X101600Y2171700D02*
Y2413000D01*
X76200D02*
X76200Y2171700D01*
X1447800Y1828800D02*
X1447800Y1587500D01*
X1473200D02*
X1473200Y2095500D01*
X1447800Y1854200D02*
Y2095500D01*
X1447800Y1244600D02*
X1447800Y1003300D01*
X1473200D02*
X1473200Y1447800D01*
X1447800Y1270000D02*
Y1511300D01*
Y685800D02*
Y927100D01*
X1041400Y1828800D02*
X1447800D01*
X571500Y1854200D02*
X965200D01*
X571500Y1828800D02*
X965200D01*
X101600Y1854200D02*
X495300D01*
X101600Y1828800D02*
X495300D01*
X1041400Y1854200D02*
X1447800D01*
X1041400Y1244600D02*
X1447800D01*
X571500Y1270000D02*
X965200D01*
X571500Y1244600D02*
X965200D01*
X101600Y1270000D02*
X495300D01*
X101600Y1244600D02*
X495300D01*
X1041400Y1270000D02*
X1447800D01*
X101600Y1854200D02*
Y2095500D01*
X76200D02*
X76200Y1587500D01*
X101600D02*
Y1828800D01*
X101600Y1003300D02*
Y1244600D01*
X76200Y1511300D02*
X76200Y1003300D01*
X101600Y1270000D02*
Y1511300D01*
X1041400Y685800D02*
X1447800D01*
X101600Y660400D02*
X495300D01*
X101600D02*
X101600Y419100D01*
X101600Y685800D02*
X495300D01*
X101600D02*
Y927100D01*
X2057400Y101600D02*
X2057400Y292100D01*
X1790700Y1473200D02*
X2057400Y1473200D01*
X1790700Y1447800D02*
X2032000Y1447800D01*
X2133600Y101600D02*
X2133600Y1447800D01*
X2032000Y774700D02*
X2032000Y368300D01*
X2032000Y1257300D02*
X2032000Y850900D01*
Y1333500D02*
Y1447800D01*
X2057400Y368300D02*
X2057400Y774700D01*
X2057400Y850900D02*
X2057400Y1257300D01*
X2057400Y1333500D02*
Y1447800D01*
X1473200Y101600D02*
X1714500D01*
X1473200Y76200D02*
X1714500Y76200D01*
X76200Y927100D02*
X76200Y419100D01*
X101600Y0D02*
X1447800D01*
X1473200D02*
X2032000D01*
X2133600D02*
Y76200D01*
X0Y0D02*
Y76200D01*
Y0D02*
X76200D01*
X571500Y660400D02*
X965200D01*
X571500Y685800D02*
X965200D01*
X1041400Y660400D02*
X1447800D01*
X1473200Y101600D02*
X1473200Y342900D01*
X1447800Y101600D02*
Y342900D01*
X1473200Y419100D02*
X1473200Y927100D01*
X1447800Y660400D02*
X1447800Y419100D01*
X1041400Y76200D02*
X1447800D01*
X1041400Y101600D02*
X1447800D01*
X571500D02*
X965200D01*
X571500Y76200D02*
X965200D01*
X101600D02*
X495300D01*
X101600Y101600D02*
X495300D01*
X76200D02*
Y342900D01*
X101600Y101600D02*
Y342900D01*
M02*
