G04*
G04 #@! TF.GenerationSoftware,Altium Limited,Altium Designer,22.0.2 (36)*
G04*
G04 Layer_Color=2752767*
%FSLAX44Y44*%
%MOMM*%
G71*
G04*
G04 #@! TF.SameCoordinates,A2EA2B81-71FB-41A7-B433-9E60F2C241B4*
G04*
G04*
G04 #@! TF.FilePolarity,Positive*
G04*
G01*
G75*
%ADD52C,0.0508*%
%ADD53C,0.0677*%
D52*
X36068Y2461768D02*
Y2465832D01*
X40132D01*
Y2461768D01*
X36068D01*
X2093468Y36068D02*
Y40132D01*
X2097532D01*
Y36068D01*
X2093468D01*
Y2461768D02*
Y2465832D01*
X2097532D01*
Y2461768D01*
X2093468D01*
X36068Y36068D02*
Y40132D01*
X40132D01*
Y36068D01*
X36068D01*
X392900Y164688D02*
X390868Y168752D01*
X394932D01*
X392900Y164688D01*
Y236688D02*
X390868Y240752D01*
X394932D01*
X392900Y236688D01*
X1281900Y335588D02*
X1282916Y336604D01*
X1283932D01*
X1282916Y337620D01*
X1283932Y338636D01*
X1282916D01*
X1281900Y339652D01*
X1280884Y338636D01*
X1279868D01*
X1280884Y337620D01*
X1279868Y336604D01*
X1280884D01*
X1281900Y335588D01*
Y370588D02*
X1282916Y371604D01*
X1283932D01*
X1282916Y372620D01*
X1283932Y373636D01*
X1282916D01*
X1281900Y374652D01*
X1280884Y373636D01*
X1279868D01*
X1280884Y372620D01*
X1279868Y371604D01*
X1280884D01*
X1281900Y370588D01*
X1154900Y335588D02*
X1155916Y336604D01*
X1156932D01*
X1155916Y337620D01*
X1156932Y338636D01*
X1155916D01*
X1154900Y339652D01*
X1153884Y338636D01*
X1152868D01*
X1153884Y337620D01*
X1152868Y336604D01*
X1153884D01*
X1154900Y335588D01*
Y370588D02*
X1155916Y371604D01*
X1156932D01*
X1155916Y372620D01*
X1156932Y373636D01*
X1155916D01*
X1154900Y374652D01*
X1153884Y373636D01*
X1152868D01*
X1153884Y372620D01*
X1152868Y371604D01*
X1153884D01*
X1154900Y370588D01*
X1027900Y335588D02*
X1028916Y336604D01*
X1029932D01*
X1028916Y337620D01*
X1029932Y338636D01*
X1028916D01*
X1027900Y339652D01*
X1026884Y338636D01*
X1025868D01*
X1026884Y337620D01*
X1025868Y336604D01*
X1026884D01*
X1027900Y335588D01*
Y370588D02*
X1028916Y371604D01*
X1029932D01*
X1028916Y372620D01*
X1029932Y373636D01*
X1028916D01*
X1027900Y374652D01*
X1026884Y373636D01*
X1025868D01*
X1026884Y372620D01*
X1025868Y371604D01*
X1026884D01*
X1027900Y370588D01*
X900900Y335588D02*
X901916Y336604D01*
X902932D01*
X901916Y337620D01*
X902932Y338636D01*
X901916D01*
X900900Y339652D01*
X899884Y338636D01*
X898868D01*
X899884Y337620D01*
X898868Y336604D01*
X899884D01*
X900900Y335588D01*
Y370588D02*
X901916Y371604D01*
X902932D01*
X901916Y372620D01*
X902932Y373636D01*
X901916D01*
X900900Y374652D01*
X899884Y373636D01*
X898868D01*
X899884Y372620D01*
X898868Y371604D01*
X899884D01*
X900900Y370588D01*
X773900Y335588D02*
X774916Y336604D01*
X775932D01*
X774916Y337620D01*
X775932Y338636D01*
X774916D01*
X773900Y339652D01*
X772884Y338636D01*
X771868D01*
X772884Y337620D01*
X771868Y336604D01*
X772884D01*
X773900Y335588D01*
Y370588D02*
X774916Y371604D01*
X775932D01*
X774916Y372620D01*
X775932Y373636D01*
X774916D01*
X773900Y374652D01*
X772884Y373636D01*
X771868D01*
X772884Y372620D01*
X771868Y371604D01*
X772884D01*
X773900Y370588D01*
X646900Y335588D02*
X647916Y336604D01*
X648932D01*
X647916Y337620D01*
X648932Y338636D01*
X647916D01*
X646900Y339652D01*
X645884Y338636D01*
X644868D01*
X645884Y337620D01*
X644868Y336604D01*
X645884D01*
X646900Y335588D01*
Y370588D02*
X647916Y371604D01*
X648932D01*
X647916Y372620D01*
X648932Y373636D01*
X647916D01*
X646900Y374652D01*
X645884Y373636D01*
X644868D01*
X645884Y372620D01*
X644868Y371604D01*
X645884D01*
X646900Y370588D01*
X519900Y335588D02*
X520916Y336604D01*
X521932D01*
X520916Y337620D01*
X521932Y338636D01*
X520916D01*
X519900Y339652D01*
X518884Y338636D01*
X517868D01*
X518884Y337620D01*
X517868Y336604D01*
X518884D01*
X519900Y335588D01*
Y370588D02*
X520916Y371604D01*
X521932D01*
X520916Y372620D01*
X521932Y373636D01*
X520916D01*
X519900Y374652D01*
X518884Y373636D01*
X517868D01*
X518884Y372620D01*
X517868Y371604D01*
X518884D01*
X519900Y370588D01*
X392900Y335588D02*
X393916Y336604D01*
X394932D01*
X393916Y337620D01*
X394932Y338636D01*
X393916D01*
X392900Y339652D01*
X391884Y338636D01*
X390868D01*
X391884Y337620D01*
X390868Y336604D01*
X391884D01*
X392900Y335588D01*
Y370588D02*
X393916Y371604D01*
X394932D01*
X393916Y372620D01*
X394932Y373636D01*
X393916D01*
X392900Y374652D01*
X391884Y373636D01*
X390868D01*
X391884Y372620D01*
X390868Y371604D01*
X391884D01*
X392900Y370588D01*
X519900Y164688D02*
X517868Y168752D01*
X521932D01*
X519900Y164688D01*
Y236688D02*
X517868Y240752D01*
X521932D01*
X519900Y236688D01*
X773900Y164688D02*
X771868Y168752D01*
X775932D01*
X773900Y164688D01*
Y236688D02*
X771868Y240752D01*
X775932D01*
X773900Y236688D01*
X1027900Y164688D02*
X1025868Y168752D01*
X1029932D01*
X1027900Y164688D01*
Y236688D02*
X1025868Y240752D01*
X1029932D01*
X1027900Y236688D01*
X1281900Y164688D02*
X1279868Y168752D01*
X1283932D01*
X1281900Y164688D01*
Y236688D02*
X1279868Y240752D01*
X1283932D01*
X1281900Y236688D01*
X900900Y164688D02*
X898868Y168752D01*
X902932D01*
X900900Y164688D01*
Y236688D02*
X898868Y240752D01*
X902932D01*
X900900Y236688D01*
X1154900Y164688D02*
X1152868Y168752D01*
X1156932D01*
X1154900Y164688D01*
Y236688D02*
X1152868Y240752D01*
X1156932D01*
X1154900Y236688D01*
X646900Y164688D02*
X644868Y168752D01*
X648932D01*
X646900Y164688D01*
Y236688D02*
X644868Y240752D01*
X648932D01*
X646900Y236688D01*
X407868Y585538D02*
X408884Y587570D01*
X407868Y589602D01*
X409900Y588586D01*
X411932Y589602D01*
X410916Y587570D01*
X411932Y585538D01*
X409900Y586554D01*
X407868Y585538D01*
X373868D02*
X374884Y587570D01*
X373868Y589602D01*
X375900Y588586D01*
X377932Y589602D01*
X376916Y587570D01*
X377932Y585538D01*
X375900Y586554D01*
X373868Y585538D01*
X407868Y450838D02*
X408884Y452870D01*
X407868Y454902D01*
X409900Y453886D01*
X411932Y454902D01*
X410916Y452870D01*
X411932Y450838D01*
X409900Y451854D01*
X407868Y450838D01*
X373868D02*
X374884Y452870D01*
X373868Y454902D01*
X375900Y453886D01*
X377932Y454902D01*
X376916Y452870D01*
X377932Y450838D01*
X375900Y451854D01*
X373868Y450838D01*
X534868Y585538D02*
X535884Y587570D01*
X534868Y589602D01*
X536900Y588586D01*
X538932Y589602D01*
X537916Y587570D01*
X538932Y585538D01*
X536900Y586554D01*
X534868Y585538D01*
X500868D02*
X501884Y587570D01*
X500868Y589602D01*
X502900Y588586D01*
X504932Y589602D01*
X503916Y587570D01*
X504932Y585538D01*
X502900Y586554D01*
X500868Y585538D01*
X534868Y450838D02*
X535884Y452870D01*
X534868Y454902D01*
X536900Y453886D01*
X538932Y454902D01*
X537916Y452870D01*
X538932Y450838D01*
X536900Y451854D01*
X534868Y450838D01*
X500868D02*
X501884Y452870D01*
X500868Y454902D01*
X502900Y453886D01*
X504932Y454902D01*
X503916Y452870D01*
X504932Y450838D01*
X502900Y451854D01*
X500868Y450838D01*
X661868Y585538D02*
X662884Y587570D01*
X661868Y589602D01*
X663900Y588586D01*
X665932Y589602D01*
X664916Y587570D01*
X665932Y585538D01*
X663900Y586554D01*
X661868Y585538D01*
X627868D02*
X628884Y587570D01*
X627868Y589602D01*
X629900Y588586D01*
X631932Y589602D01*
X630916Y587570D01*
X631932Y585538D01*
X629900Y586554D01*
X627868Y585538D01*
X661868Y450838D02*
X662884Y452870D01*
X661868Y454902D01*
X663900Y453886D01*
X665932Y454902D01*
X664916Y452870D01*
X665932Y450838D01*
X663900Y451854D01*
X661868Y450838D01*
X627868D02*
X628884Y452870D01*
X627868Y454902D01*
X629900Y453886D01*
X631932Y454902D01*
X630916Y452870D01*
X631932Y450838D01*
X629900Y451854D01*
X627868Y450838D01*
X788868Y585538D02*
X789884Y587570D01*
X788868Y589602D01*
X790900Y588586D01*
X792932Y589602D01*
X791916Y587570D01*
X792932Y585538D01*
X790900Y586554D01*
X788868Y585538D01*
X754868D02*
X755884Y587570D01*
X754868Y589602D01*
X756900Y588586D01*
X758932Y589602D01*
X757916Y587570D01*
X758932Y585538D01*
X756900Y586554D01*
X754868Y585538D01*
X788868Y450838D02*
X789884Y452870D01*
X788868Y454902D01*
X790900Y453886D01*
X792932Y454902D01*
X791916Y452870D01*
X792932Y450838D01*
X790900Y451854D01*
X788868Y450838D01*
X754868D02*
X755884Y452870D01*
X754868Y454902D01*
X756900Y453886D01*
X758932Y454902D01*
X757916Y452870D01*
X758932Y450838D01*
X756900Y451854D01*
X754868Y450838D01*
X915868Y585538D02*
X916884Y587570D01*
X915868Y589602D01*
X917900Y588586D01*
X919932Y589602D01*
X918916Y587570D01*
X919932Y585538D01*
X917900Y586554D01*
X915868Y585538D01*
X881868D02*
X882884Y587570D01*
X881868Y589602D01*
X883900Y588586D01*
X885932Y589602D01*
X884916Y587570D01*
X885932Y585538D01*
X883900Y586554D01*
X881868Y585538D01*
X915868Y450838D02*
X916884Y452870D01*
X915868Y454902D01*
X917900Y453886D01*
X919932Y454902D01*
X918916Y452870D01*
X919932Y450838D01*
X917900Y451854D01*
X915868Y450838D01*
X881868D02*
X882884Y452870D01*
X881868Y454902D01*
X883900Y453886D01*
X885932Y454902D01*
X884916Y452870D01*
X885932Y450838D01*
X883900Y451854D01*
X881868Y450838D01*
X1042868Y585538D02*
X1043884Y587570D01*
X1042868Y589602D01*
X1044900Y588586D01*
X1046932Y589602D01*
X1045916Y587570D01*
X1046932Y585538D01*
X1044900Y586554D01*
X1042868Y585538D01*
X1008868D02*
X1009884Y587570D01*
X1008868Y589602D01*
X1010900Y588586D01*
X1012932Y589602D01*
X1011916Y587570D01*
X1012932Y585538D01*
X1010900Y586554D01*
X1008868Y585538D01*
X1042868Y450838D02*
X1043884Y452870D01*
X1042868Y454902D01*
X1044900Y453886D01*
X1046932Y454902D01*
X1045916Y452870D01*
X1046932Y450838D01*
X1044900Y451854D01*
X1042868Y450838D01*
X1008868D02*
X1009884Y452870D01*
X1008868Y454902D01*
X1010900Y453886D01*
X1012932Y454902D01*
X1011916Y452870D01*
X1012932Y450838D01*
X1010900Y451854D01*
X1008868Y450838D01*
X1169868Y585538D02*
X1170884Y587570D01*
X1169868Y589602D01*
X1171900Y588586D01*
X1173932Y589602D01*
X1172916Y587570D01*
X1173932Y585538D01*
X1171900Y586554D01*
X1169868Y585538D01*
X1135868D02*
X1136884Y587570D01*
X1135868Y589602D01*
X1137900Y588586D01*
X1139932Y589602D01*
X1138916Y587570D01*
X1139932Y585538D01*
X1137900Y586554D01*
X1135868Y585538D01*
X1169868Y450838D02*
X1170884Y452870D01*
X1169868Y454902D01*
X1171900Y453886D01*
X1173932Y454902D01*
X1172916Y452870D01*
X1173932Y450838D01*
X1171900Y451854D01*
X1169868Y450838D01*
X1135868D02*
X1136884Y452870D01*
X1135868Y454902D01*
X1137900Y453886D01*
X1139932Y454902D01*
X1138916Y452870D01*
X1139932Y450838D01*
X1137900Y451854D01*
X1135868Y450838D01*
X1296868Y585538D02*
X1297884Y587570D01*
X1296868Y589602D01*
X1298900Y588586D01*
X1300932Y589602D01*
X1299916Y587570D01*
X1300932Y585538D01*
X1298900Y586554D01*
X1296868Y585538D01*
X1262868D02*
X1263884Y587570D01*
X1262868Y589602D01*
X1264900Y588586D01*
X1266932Y589602D01*
X1265916Y587570D01*
X1266932Y585538D01*
X1264900Y586554D01*
X1262868Y585538D01*
X1296868Y450838D02*
X1297884Y452870D01*
X1296868Y454902D01*
X1298900Y453886D01*
X1300932Y454902D01*
X1299916Y452870D01*
X1300932Y450838D01*
X1298900Y451854D01*
X1296868Y450838D01*
X1262868D02*
X1263884Y452870D01*
X1262868Y454902D01*
X1264900Y453886D01*
X1266932Y454902D01*
X1265916Y452870D01*
X1266932Y450838D01*
X1264900Y451854D01*
X1262868Y450838D01*
X246868D02*
X247884Y452870D01*
X246868Y454902D01*
X248900Y453886D01*
X250932Y454902D01*
X249916Y452870D01*
X250932Y450838D01*
X248900Y451854D01*
X246868Y450838D01*
X280868D02*
X281884Y452870D01*
X280868Y454902D01*
X282900Y453886D01*
X284932Y454902D01*
X283916Y452870D01*
X284932Y450838D01*
X282900Y451854D01*
X280868Y450838D01*
X246868Y585538D02*
X247884Y587570D01*
X246868Y589602D01*
X248900Y588586D01*
X250932Y589602D01*
X249916Y587570D01*
X250932Y585538D01*
X248900Y586554D01*
X246868Y585538D01*
X280868D02*
X281884Y587570D01*
X280868Y589602D01*
X282900Y588586D01*
X284932Y589602D01*
X283916Y587570D01*
X284932Y585538D01*
X282900Y586554D01*
X280868Y585538D01*
X252184Y282104D02*
Y281088D01*
X254216D01*
Y282104D01*
X255232D01*
Y284136D01*
X254216D01*
Y285152D01*
X252184D01*
Y284136D01*
X251168D01*
Y282104D01*
X252184D01*
Y172104D02*
Y171088D01*
X254216D01*
Y172104D01*
X255232D01*
Y174136D01*
X254216D01*
Y175152D01*
X252184D01*
Y174136D01*
X251168D01*
Y172104D01*
X252184D01*
X149568Y149888D02*
X150584D01*
X151600Y150904D01*
X152616Y149888D01*
X153632D01*
Y150904D01*
X152616Y151920D01*
X153632Y152936D01*
Y153952D01*
X152616D01*
X151600Y152936D01*
X150584Y153952D01*
X149568D01*
Y152936D01*
X150584Y151920D01*
X149568Y150904D01*
Y149888D01*
Y607088D02*
X150584D01*
X151600Y608104D01*
X152616Y607088D01*
X153632D01*
Y608104D01*
X152616Y609120D01*
X153632Y610136D01*
Y611152D01*
X152616D01*
X151600Y610136D01*
X150584Y611152D01*
X149568D01*
Y610136D01*
X150584Y609120D01*
X149568Y608104D01*
Y607088D01*
X1394168D02*
X1395184D01*
X1396200Y608104D01*
X1397216Y607088D01*
X1398232D01*
Y608104D01*
X1397216Y609120D01*
X1398232Y610136D01*
Y611152D01*
X1397216D01*
X1396200Y610136D01*
X1395184Y611152D01*
X1394168D01*
Y610136D01*
X1395184Y609120D01*
X1394168Y608104D01*
Y607088D01*
Y149888D02*
X1395184D01*
X1396200Y150904D01*
X1397216Y149888D01*
X1398232D01*
Y150904D01*
X1397216Y151920D01*
X1398232Y152936D01*
Y153952D01*
X1397216D01*
X1396200Y152936D01*
X1395184Y153952D01*
X1394168D01*
Y152936D01*
X1395184Y151920D01*
X1394168Y150904D01*
Y149888D01*
X1330668Y634520D02*
X1332700Y636552D01*
X1334732Y634520D01*
X1332700Y632488D01*
X1330668Y634520D01*
X1203668D02*
X1205700Y636552D01*
X1207732Y634520D01*
X1205700Y632488D01*
X1203668Y634520D01*
X1076668D02*
X1078700Y636552D01*
X1080732Y634520D01*
X1078700Y632488D01*
X1076668Y634520D01*
X949668D02*
X951700Y636552D01*
X953732Y634520D01*
X951700Y632488D01*
X949668Y634520D01*
X822668D02*
X824700Y636552D01*
X826732Y634520D01*
X824700Y632488D01*
X822668Y634520D01*
X695668D02*
X697700Y636552D01*
X699732Y634520D01*
X697700Y632488D01*
X695668Y634520D01*
X568668D02*
X570700Y636552D01*
X572732Y634520D01*
X570700Y632488D01*
X568668Y634520D01*
X441668D02*
X443700Y636552D01*
X445732Y634520D01*
X443700Y632488D01*
X441668Y634520D01*
X314668D02*
X316700Y636552D01*
X318732Y634520D01*
X316700Y632488D01*
X314668Y634520D01*
X213068D02*
X215100Y636552D01*
X217132Y634520D01*
X215100Y632488D01*
X213068Y634520D01*
X392900Y748888D02*
X390868Y752952D01*
X394932D01*
X392900Y748888D01*
Y820888D02*
X390868Y824952D01*
X394932D01*
X392900Y820888D01*
X1281900Y919788D02*
X1282916Y920804D01*
X1283932D01*
X1282916Y921820D01*
X1283932Y922836D01*
X1282916D01*
X1281900Y923852D01*
X1280884Y922836D01*
X1279868D01*
X1280884Y921820D01*
X1279868Y920804D01*
X1280884D01*
X1281900Y919788D01*
Y954788D02*
X1282916Y955804D01*
X1283932D01*
X1282916Y956820D01*
X1283932Y957836D01*
X1282916D01*
X1281900Y958852D01*
X1280884Y957836D01*
X1279868D01*
X1280884Y956820D01*
X1279868Y955804D01*
X1280884D01*
X1281900Y954788D01*
X1154900Y919788D02*
X1155916Y920804D01*
X1156932D01*
X1155916Y921820D01*
X1156932Y922836D01*
X1155916D01*
X1154900Y923852D01*
X1153884Y922836D01*
X1152868D01*
X1153884Y921820D01*
X1152868Y920804D01*
X1153884D01*
X1154900Y919788D01*
Y954788D02*
X1155916Y955804D01*
X1156932D01*
X1155916Y956820D01*
X1156932Y957836D01*
X1155916D01*
X1154900Y958852D01*
X1153884Y957836D01*
X1152868D01*
X1153884Y956820D01*
X1152868Y955804D01*
X1153884D01*
X1154900Y954788D01*
X1027900Y919788D02*
X1028916Y920804D01*
X1029932D01*
X1028916Y921820D01*
X1029932Y922836D01*
X1028916D01*
X1027900Y923852D01*
X1026884Y922836D01*
X1025868D01*
X1026884Y921820D01*
X1025868Y920804D01*
X1026884D01*
X1027900Y919788D01*
Y954788D02*
X1028916Y955804D01*
X1029932D01*
X1028916Y956820D01*
X1029932Y957836D01*
X1028916D01*
X1027900Y958852D01*
X1026884Y957836D01*
X1025868D01*
X1026884Y956820D01*
X1025868Y955804D01*
X1026884D01*
X1027900Y954788D01*
X900900Y919788D02*
X901916Y920804D01*
X902932D01*
X901916Y921820D01*
X902932Y922836D01*
X901916D01*
X900900Y923852D01*
X899884Y922836D01*
X898868D01*
X899884Y921820D01*
X898868Y920804D01*
X899884D01*
X900900Y919788D01*
Y954788D02*
X901916Y955804D01*
X902932D01*
X901916Y956820D01*
X902932Y957836D01*
X901916D01*
X900900Y958852D01*
X899884Y957836D01*
X898868D01*
X899884Y956820D01*
X898868Y955804D01*
X899884D01*
X900900Y954788D01*
X773900Y919788D02*
X774916Y920804D01*
X775932D01*
X774916Y921820D01*
X775932Y922836D01*
X774916D01*
X773900Y923852D01*
X772884Y922836D01*
X771868D01*
X772884Y921820D01*
X771868Y920804D01*
X772884D01*
X773900Y919788D01*
Y954788D02*
X774916Y955804D01*
X775932D01*
X774916Y956820D01*
X775932Y957836D01*
X774916D01*
X773900Y958852D01*
X772884Y957836D01*
X771868D01*
X772884Y956820D01*
X771868Y955804D01*
X772884D01*
X773900Y954788D01*
X646900Y919788D02*
X647916Y920804D01*
X648932D01*
X647916Y921820D01*
X648932Y922836D01*
X647916D01*
X646900Y923852D01*
X645884Y922836D01*
X644868D01*
X645884Y921820D01*
X644868Y920804D01*
X645884D01*
X646900Y919788D01*
Y954788D02*
X647916Y955804D01*
X648932D01*
X647916Y956820D01*
X648932Y957836D01*
X647916D01*
X646900Y958852D01*
X645884Y957836D01*
X644868D01*
X645884Y956820D01*
X644868Y955804D01*
X645884D01*
X646900Y954788D01*
X519900Y919788D02*
X520916Y920804D01*
X521932D01*
X520916Y921820D01*
X521932Y922836D01*
X520916D01*
X519900Y923852D01*
X518884Y922836D01*
X517868D01*
X518884Y921820D01*
X517868Y920804D01*
X518884D01*
X519900Y919788D01*
Y954788D02*
X520916Y955804D01*
X521932D01*
X520916Y956820D01*
X521932Y957836D01*
X520916D01*
X519900Y958852D01*
X518884Y957836D01*
X517868D01*
X518884Y956820D01*
X517868Y955804D01*
X518884D01*
X519900Y954788D01*
X392900Y919788D02*
X393916Y920804D01*
X394932D01*
X393916Y921820D01*
X394932Y922836D01*
X393916D01*
X392900Y923852D01*
X391884Y922836D01*
X390868D01*
X391884Y921820D01*
X390868Y920804D01*
X391884D01*
X392900Y919788D01*
Y954788D02*
X393916Y955804D01*
X394932D01*
X393916Y956820D01*
X394932Y957836D01*
X393916D01*
X392900Y958852D01*
X391884Y957836D01*
X390868D01*
X391884Y956820D01*
X390868Y955804D01*
X391884D01*
X392900Y954788D01*
X519900Y748888D02*
X517868Y752952D01*
X521932D01*
X519900Y748888D01*
Y820888D02*
X517868Y824952D01*
X521932D01*
X519900Y820888D01*
X773900Y748888D02*
X771868Y752952D01*
X775932D01*
X773900Y748888D01*
Y820888D02*
X771868Y824952D01*
X775932D01*
X773900Y820888D01*
X1027900Y748888D02*
X1025868Y752952D01*
X1029932D01*
X1027900Y748888D01*
Y820888D02*
X1025868Y824952D01*
X1029932D01*
X1027900Y820888D01*
X1281900Y748888D02*
X1279868Y752952D01*
X1283932D01*
X1281900Y748888D01*
Y820888D02*
X1279868Y824952D01*
X1283932D01*
X1281900Y820888D01*
X900900Y748888D02*
X898868Y752952D01*
X902932D01*
X900900Y748888D01*
Y820888D02*
X898868Y824952D01*
X902932D01*
X900900Y820888D01*
X1154900Y748888D02*
X1152868Y752952D01*
X1156932D01*
X1154900Y748888D01*
Y820888D02*
X1152868Y824952D01*
X1156932D01*
X1154900Y820888D01*
X646900Y748888D02*
X644868Y752952D01*
X648932D01*
X646900Y748888D01*
Y820888D02*
X644868Y824952D01*
X648932D01*
X646900Y820888D01*
X407868Y1169738D02*
X408884Y1171770D01*
X407868Y1173802D01*
X409900Y1172786D01*
X411932Y1173802D01*
X410916Y1171770D01*
X411932Y1169738D01*
X409900Y1170754D01*
X407868Y1169738D01*
X373868D02*
X374884Y1171770D01*
X373868Y1173802D01*
X375900Y1172786D01*
X377932Y1173802D01*
X376916Y1171770D01*
X377932Y1169738D01*
X375900Y1170754D01*
X373868Y1169738D01*
X407868Y1035038D02*
X408884Y1037070D01*
X407868Y1039102D01*
X409900Y1038086D01*
X411932Y1039102D01*
X410916Y1037070D01*
X411932Y1035038D01*
X409900Y1036054D01*
X407868Y1035038D01*
X373868D02*
X374884Y1037070D01*
X373868Y1039102D01*
X375900Y1038086D01*
X377932Y1039102D01*
X376916Y1037070D01*
X377932Y1035038D01*
X375900Y1036054D01*
X373868Y1035038D01*
X534868Y1169738D02*
X535884Y1171770D01*
X534868Y1173802D01*
X536900Y1172786D01*
X538932Y1173802D01*
X537916Y1171770D01*
X538932Y1169738D01*
X536900Y1170754D01*
X534868Y1169738D01*
X500868D02*
X501884Y1171770D01*
X500868Y1173802D01*
X502900Y1172786D01*
X504932Y1173802D01*
X503916Y1171770D01*
X504932Y1169738D01*
X502900Y1170754D01*
X500868Y1169738D01*
X534868Y1035038D02*
X535884Y1037070D01*
X534868Y1039102D01*
X536900Y1038086D01*
X538932Y1039102D01*
X537916Y1037070D01*
X538932Y1035038D01*
X536900Y1036054D01*
X534868Y1035038D01*
X500868D02*
X501884Y1037070D01*
X500868Y1039102D01*
X502900Y1038086D01*
X504932Y1039102D01*
X503916Y1037070D01*
X504932Y1035038D01*
X502900Y1036054D01*
X500868Y1035038D01*
X661868Y1169738D02*
X662884Y1171770D01*
X661868Y1173802D01*
X663900Y1172786D01*
X665932Y1173802D01*
X664916Y1171770D01*
X665932Y1169738D01*
X663900Y1170754D01*
X661868Y1169738D01*
X627868D02*
X628884Y1171770D01*
X627868Y1173802D01*
X629900Y1172786D01*
X631932Y1173802D01*
X630916Y1171770D01*
X631932Y1169738D01*
X629900Y1170754D01*
X627868Y1169738D01*
X661868Y1035038D02*
X662884Y1037070D01*
X661868Y1039102D01*
X663900Y1038086D01*
X665932Y1039102D01*
X664916Y1037070D01*
X665932Y1035038D01*
X663900Y1036054D01*
X661868Y1035038D01*
X627868D02*
X628884Y1037070D01*
X627868Y1039102D01*
X629900Y1038086D01*
X631932Y1039102D01*
X630916Y1037070D01*
X631932Y1035038D01*
X629900Y1036054D01*
X627868Y1035038D01*
X788868Y1169738D02*
X789884Y1171770D01*
X788868Y1173802D01*
X790900Y1172786D01*
X792932Y1173802D01*
X791916Y1171770D01*
X792932Y1169738D01*
X790900Y1170754D01*
X788868Y1169738D01*
X754868D02*
X755884Y1171770D01*
X754868Y1173802D01*
X756900Y1172786D01*
X758932Y1173802D01*
X757916Y1171770D01*
X758932Y1169738D01*
X756900Y1170754D01*
X754868Y1169738D01*
X788868Y1035038D02*
X789884Y1037070D01*
X788868Y1039102D01*
X790900Y1038086D01*
X792932Y1039102D01*
X791916Y1037070D01*
X792932Y1035038D01*
X790900Y1036054D01*
X788868Y1035038D01*
X754868D02*
X755884Y1037070D01*
X754868Y1039102D01*
X756900Y1038086D01*
X758932Y1039102D01*
X757916Y1037070D01*
X758932Y1035038D01*
X756900Y1036054D01*
X754868Y1035038D01*
X915868Y1169738D02*
X916884Y1171770D01*
X915868Y1173802D01*
X917900Y1172786D01*
X919932Y1173802D01*
X918916Y1171770D01*
X919932Y1169738D01*
X917900Y1170754D01*
X915868Y1169738D01*
X881868D02*
X882884Y1171770D01*
X881868Y1173802D01*
X883900Y1172786D01*
X885932Y1173802D01*
X884916Y1171770D01*
X885932Y1169738D01*
X883900Y1170754D01*
X881868Y1169738D01*
X915868Y1035038D02*
X916884Y1037070D01*
X915868Y1039102D01*
X917900Y1038086D01*
X919932Y1039102D01*
X918916Y1037070D01*
X919932Y1035038D01*
X917900Y1036054D01*
X915868Y1035038D01*
X881868D02*
X882884Y1037070D01*
X881868Y1039102D01*
X883900Y1038086D01*
X885932Y1039102D01*
X884916Y1037070D01*
X885932Y1035038D01*
X883900Y1036054D01*
X881868Y1035038D01*
X1042868Y1169738D02*
X1043884Y1171770D01*
X1042868Y1173802D01*
X1044900Y1172786D01*
X1046932Y1173802D01*
X1045916Y1171770D01*
X1046932Y1169738D01*
X1044900Y1170754D01*
X1042868Y1169738D01*
X1008868D02*
X1009884Y1171770D01*
X1008868Y1173802D01*
X1010900Y1172786D01*
X1012932Y1173802D01*
X1011916Y1171770D01*
X1012932Y1169738D01*
X1010900Y1170754D01*
X1008868Y1169738D01*
X1042868Y1035038D02*
X1043884Y1037070D01*
X1042868Y1039102D01*
X1044900Y1038086D01*
X1046932Y1039102D01*
X1045916Y1037070D01*
X1046932Y1035038D01*
X1044900Y1036054D01*
X1042868Y1035038D01*
X1008868D02*
X1009884Y1037070D01*
X1008868Y1039102D01*
X1010900Y1038086D01*
X1012932Y1039102D01*
X1011916Y1037070D01*
X1012932Y1035038D01*
X1010900Y1036054D01*
X1008868Y1035038D01*
X1169868Y1169738D02*
X1170884Y1171770D01*
X1169868Y1173802D01*
X1171900Y1172786D01*
X1173932Y1173802D01*
X1172916Y1171770D01*
X1173932Y1169738D01*
X1171900Y1170754D01*
X1169868Y1169738D01*
X1135868D02*
X1136884Y1171770D01*
X1135868Y1173802D01*
X1137900Y1172786D01*
X1139932Y1173802D01*
X1138916Y1171770D01*
X1139932Y1169738D01*
X1137900Y1170754D01*
X1135868Y1169738D01*
X1169868Y1035038D02*
X1170884Y1037070D01*
X1169868Y1039102D01*
X1171900Y1038086D01*
X1173932Y1039102D01*
X1172916Y1037070D01*
X1173932Y1035038D01*
X1171900Y1036054D01*
X1169868Y1035038D01*
X1135868D02*
X1136884Y1037070D01*
X1135868Y1039102D01*
X1137900Y1038086D01*
X1139932Y1039102D01*
X1138916Y1037070D01*
X1139932Y1035038D01*
X1137900Y1036054D01*
X1135868Y1035038D01*
X1296868Y1169738D02*
X1297884Y1171770D01*
X1296868Y1173802D01*
X1298900Y1172786D01*
X1300932Y1173802D01*
X1299916Y1171770D01*
X1300932Y1169738D01*
X1298900Y1170754D01*
X1296868Y1169738D01*
X1262868D02*
X1263884Y1171770D01*
X1262868Y1173802D01*
X1264900Y1172786D01*
X1266932Y1173802D01*
X1265916Y1171770D01*
X1266932Y1169738D01*
X1264900Y1170754D01*
X1262868Y1169738D01*
X1296868Y1035038D02*
X1297884Y1037070D01*
X1296868Y1039102D01*
X1298900Y1038086D01*
X1300932Y1039102D01*
X1299916Y1037070D01*
X1300932Y1035038D01*
X1298900Y1036054D01*
X1296868Y1035038D01*
X1262868D02*
X1263884Y1037070D01*
X1262868Y1039102D01*
X1264900Y1038086D01*
X1266932Y1039102D01*
X1265916Y1037070D01*
X1266932Y1035038D01*
X1264900Y1036054D01*
X1262868Y1035038D01*
X246868D02*
X247884Y1037070D01*
X246868Y1039102D01*
X248900Y1038086D01*
X250932Y1039102D01*
X249916Y1037070D01*
X250932Y1035038D01*
X248900Y1036054D01*
X246868Y1035038D01*
X280868D02*
X281884Y1037070D01*
X280868Y1039102D01*
X282900Y1038086D01*
X284932Y1039102D01*
X283916Y1037070D01*
X284932Y1035038D01*
X282900Y1036054D01*
X280868Y1035038D01*
X246868Y1169738D02*
X247884Y1171770D01*
X246868Y1173802D01*
X248900Y1172786D01*
X250932Y1173802D01*
X249916Y1171770D01*
X250932Y1169738D01*
X248900Y1170754D01*
X246868Y1169738D01*
X280868D02*
X281884Y1171770D01*
X280868Y1173802D01*
X282900Y1172786D01*
X284932Y1173802D01*
X283916Y1171770D01*
X284932Y1169738D01*
X282900Y1170754D01*
X280868Y1169738D01*
X252184Y866304D02*
Y865288D01*
X254216D01*
Y866304D01*
X255232D01*
Y868336D01*
X254216D01*
Y869352D01*
X252184D01*
Y868336D01*
X251168D01*
Y866304D01*
X252184D01*
Y756304D02*
Y755288D01*
X254216D01*
Y756304D01*
X255232D01*
Y758336D01*
X254216D01*
Y759352D01*
X252184D01*
Y758336D01*
X251168D01*
Y756304D01*
X252184D01*
X149568Y734088D02*
X150584D01*
X151600Y735104D01*
X152616Y734088D01*
X153632D01*
Y735104D01*
X152616Y736120D01*
X153632Y737136D01*
Y738152D01*
X152616D01*
X151600Y737136D01*
X150584Y738152D01*
X149568D01*
Y737136D01*
X150584Y736120D01*
X149568Y735104D01*
Y734088D01*
Y1191288D02*
X150584D01*
X151600Y1192304D01*
X152616Y1191288D01*
X153632D01*
Y1192304D01*
X152616Y1193320D01*
X153632Y1194336D01*
Y1195352D01*
X152616D01*
X151600Y1194336D01*
X150584Y1195352D01*
X149568D01*
Y1194336D01*
X150584Y1193320D01*
X149568Y1192304D01*
Y1191288D01*
X1394168D02*
X1395184D01*
X1396200Y1192304D01*
X1397216Y1191288D01*
X1398232D01*
Y1192304D01*
X1397216Y1193320D01*
X1398232Y1194336D01*
Y1195352D01*
X1397216D01*
X1396200Y1194336D01*
X1395184Y1195352D01*
X1394168D01*
Y1194336D01*
X1395184Y1193320D01*
X1394168Y1192304D01*
Y1191288D01*
Y734088D02*
X1395184D01*
X1396200Y735104D01*
X1397216Y734088D01*
X1398232D01*
Y735104D01*
X1397216Y736120D01*
X1398232Y737136D01*
Y738152D01*
X1397216D01*
X1396200Y737136D01*
X1395184Y738152D01*
X1394168D01*
Y737136D01*
X1395184Y736120D01*
X1394168Y735104D01*
Y734088D01*
X1330668Y1218720D02*
X1332700Y1220752D01*
X1334732Y1218720D01*
X1332700Y1216688D01*
X1330668Y1218720D01*
X1203668D02*
X1205700Y1220752D01*
X1207732Y1218720D01*
X1205700Y1216688D01*
X1203668Y1218720D01*
X1076668D02*
X1078700Y1220752D01*
X1080732Y1218720D01*
X1078700Y1216688D01*
X1076668Y1218720D01*
X949668D02*
X951700Y1220752D01*
X953732Y1218720D01*
X951700Y1216688D01*
X949668Y1218720D01*
X822668D02*
X824700Y1220752D01*
X826732Y1218720D01*
X824700Y1216688D01*
X822668Y1218720D01*
X695668D02*
X697700Y1220752D01*
X699732Y1218720D01*
X697700Y1216688D01*
X695668Y1218720D01*
X568668D02*
X570700Y1220752D01*
X572732Y1218720D01*
X570700Y1216688D01*
X568668Y1218720D01*
X441668D02*
X443700Y1220752D01*
X445732Y1218720D01*
X443700Y1216688D01*
X441668Y1218720D01*
X314668D02*
X316700Y1220752D01*
X318732Y1218720D01*
X316700Y1216688D01*
X314668Y1218720D01*
X213068D02*
X215100Y1220752D01*
X217132Y1218720D01*
X215100Y1216688D01*
X213068Y1218720D01*
X392900Y1333088D02*
X390868Y1337152D01*
X394932D01*
X392900Y1333088D01*
Y1405088D02*
X390868Y1409152D01*
X394932D01*
X392900Y1405088D01*
X1281900Y1503988D02*
X1282916Y1505004D01*
X1283932D01*
X1282916Y1506020D01*
X1283932Y1507036D01*
X1282916D01*
X1281900Y1508052D01*
X1280884Y1507036D01*
X1279868D01*
X1280884Y1506020D01*
X1279868Y1505004D01*
X1280884D01*
X1281900Y1503988D01*
Y1538988D02*
X1282916Y1540004D01*
X1283932D01*
X1282916Y1541020D01*
X1283932Y1542036D01*
X1282916D01*
X1281900Y1543052D01*
X1280884Y1542036D01*
X1279868D01*
X1280884Y1541020D01*
X1279868Y1540004D01*
X1280884D01*
X1281900Y1538988D01*
X1154900Y1503988D02*
X1155916Y1505004D01*
X1156932D01*
X1155916Y1506020D01*
X1156932Y1507036D01*
X1155916D01*
X1154900Y1508052D01*
X1153884Y1507036D01*
X1152868D01*
X1153884Y1506020D01*
X1152868Y1505004D01*
X1153884D01*
X1154900Y1503988D01*
Y1538988D02*
X1155916Y1540004D01*
X1156932D01*
X1155916Y1541020D01*
X1156932Y1542036D01*
X1155916D01*
X1154900Y1543052D01*
X1153884Y1542036D01*
X1152868D01*
X1153884Y1541020D01*
X1152868Y1540004D01*
X1153884D01*
X1154900Y1538988D01*
X1027900Y1503988D02*
X1028916Y1505004D01*
X1029932D01*
X1028916Y1506020D01*
X1029932Y1507036D01*
X1028916D01*
X1027900Y1508052D01*
X1026884Y1507036D01*
X1025868D01*
X1026884Y1506020D01*
X1025868Y1505004D01*
X1026884D01*
X1027900Y1503988D01*
Y1538988D02*
X1028916Y1540004D01*
X1029932D01*
X1028916Y1541020D01*
X1029932Y1542036D01*
X1028916D01*
X1027900Y1543052D01*
X1026884Y1542036D01*
X1025868D01*
X1026884Y1541020D01*
X1025868Y1540004D01*
X1026884D01*
X1027900Y1538988D01*
X900900Y1503988D02*
X901916Y1505004D01*
X902932D01*
X901916Y1506020D01*
X902932Y1507036D01*
X901916D01*
X900900Y1508052D01*
X899884Y1507036D01*
X898868D01*
X899884Y1506020D01*
X898868Y1505004D01*
X899884D01*
X900900Y1503988D01*
Y1538988D02*
X901916Y1540004D01*
X902932D01*
X901916Y1541020D01*
X902932Y1542036D01*
X901916D01*
X900900Y1543052D01*
X899884Y1542036D01*
X898868D01*
X899884Y1541020D01*
X898868Y1540004D01*
X899884D01*
X900900Y1538988D01*
X773900Y1503988D02*
X774916Y1505004D01*
X775932D01*
X774916Y1506020D01*
X775932Y1507036D01*
X774916D01*
X773900Y1508052D01*
X772884Y1507036D01*
X771868D01*
X772884Y1506020D01*
X771868Y1505004D01*
X772884D01*
X773900Y1503988D01*
Y1538988D02*
X774916Y1540004D01*
X775932D01*
X774916Y1541020D01*
X775932Y1542036D01*
X774916D01*
X773900Y1543052D01*
X772884Y1542036D01*
X771868D01*
X772884Y1541020D01*
X771868Y1540004D01*
X772884D01*
X773900Y1538988D01*
X646900Y1503988D02*
X647916Y1505004D01*
X648932D01*
X647916Y1506020D01*
X648932Y1507036D01*
X647916D01*
X646900Y1508052D01*
X645884Y1507036D01*
X644868D01*
X645884Y1506020D01*
X644868Y1505004D01*
X645884D01*
X646900Y1503988D01*
Y1538988D02*
X647916Y1540004D01*
X648932D01*
X647916Y1541020D01*
X648932Y1542036D01*
X647916D01*
X646900Y1543052D01*
X645884Y1542036D01*
X644868D01*
X645884Y1541020D01*
X644868Y1540004D01*
X645884D01*
X646900Y1538988D01*
X519900Y1503988D02*
X520916Y1505004D01*
X521932D01*
X520916Y1506020D01*
X521932Y1507036D01*
X520916D01*
X519900Y1508052D01*
X518884Y1507036D01*
X517868D01*
X518884Y1506020D01*
X517868Y1505004D01*
X518884D01*
X519900Y1503988D01*
Y1538988D02*
X520916Y1540004D01*
X521932D01*
X520916Y1541020D01*
X521932Y1542036D01*
X520916D01*
X519900Y1543052D01*
X518884Y1542036D01*
X517868D01*
X518884Y1541020D01*
X517868Y1540004D01*
X518884D01*
X519900Y1538988D01*
X392900Y1503988D02*
X393916Y1505004D01*
X394932D01*
X393916Y1506020D01*
X394932Y1507036D01*
X393916D01*
X392900Y1508052D01*
X391884Y1507036D01*
X390868D01*
X391884Y1506020D01*
X390868Y1505004D01*
X391884D01*
X392900Y1503988D01*
Y1538988D02*
X393916Y1540004D01*
X394932D01*
X393916Y1541020D01*
X394932Y1542036D01*
X393916D01*
X392900Y1543052D01*
X391884Y1542036D01*
X390868D01*
X391884Y1541020D01*
X390868Y1540004D01*
X391884D01*
X392900Y1538988D01*
X519900Y1333088D02*
X517868Y1337152D01*
X521932D01*
X519900Y1333088D01*
Y1405088D02*
X517868Y1409152D01*
X521932D01*
X519900Y1405088D01*
X773900Y1333088D02*
X771868Y1337152D01*
X775932D01*
X773900Y1333088D01*
Y1405088D02*
X771868Y1409152D01*
X775932D01*
X773900Y1405088D01*
X1027900Y1333088D02*
X1025868Y1337152D01*
X1029932D01*
X1027900Y1333088D01*
Y1405088D02*
X1025868Y1409152D01*
X1029932D01*
X1027900Y1405088D01*
X1281900Y1333088D02*
X1279868Y1337152D01*
X1283932D01*
X1281900Y1333088D01*
Y1405088D02*
X1279868Y1409152D01*
X1283932D01*
X1281900Y1405088D01*
X900900Y1333088D02*
X898868Y1337152D01*
X902932D01*
X900900Y1333088D01*
Y1405088D02*
X898868Y1409152D01*
X902932D01*
X900900Y1405088D01*
X1154900Y1333088D02*
X1152868Y1337152D01*
X1156932D01*
X1154900Y1333088D01*
Y1405088D02*
X1152868Y1409152D01*
X1156932D01*
X1154900Y1405088D01*
X646900Y1333088D02*
X644868Y1337152D01*
X648932D01*
X646900Y1333088D01*
Y1405088D02*
X644868Y1409152D01*
X648932D01*
X646900Y1405088D01*
X407868Y1753938D02*
X408884Y1755970D01*
X407868Y1758002D01*
X409900Y1756986D01*
X411932Y1758002D01*
X410916Y1755970D01*
X411932Y1753938D01*
X409900Y1754954D01*
X407868Y1753938D01*
X373868D02*
X374884Y1755970D01*
X373868Y1758002D01*
X375900Y1756986D01*
X377932Y1758002D01*
X376916Y1755970D01*
X377932Y1753938D01*
X375900Y1754954D01*
X373868Y1753938D01*
X407868Y1619238D02*
X408884Y1621270D01*
X407868Y1623302D01*
X409900Y1622286D01*
X411932Y1623302D01*
X410916Y1621270D01*
X411932Y1619238D01*
X409900Y1620254D01*
X407868Y1619238D01*
X373868D02*
X374884Y1621270D01*
X373868Y1623302D01*
X375900Y1622286D01*
X377932Y1623302D01*
X376916Y1621270D01*
X377932Y1619238D01*
X375900Y1620254D01*
X373868Y1619238D01*
X534868Y1753938D02*
X535884Y1755970D01*
X534868Y1758002D01*
X536900Y1756986D01*
X538932Y1758002D01*
X537916Y1755970D01*
X538932Y1753938D01*
X536900Y1754954D01*
X534868Y1753938D01*
X500868D02*
X501884Y1755970D01*
X500868Y1758002D01*
X502900Y1756986D01*
X504932Y1758002D01*
X503916Y1755970D01*
X504932Y1753938D01*
X502900Y1754954D01*
X500868Y1753938D01*
X534868Y1619238D02*
X535884Y1621270D01*
X534868Y1623302D01*
X536900Y1622286D01*
X538932Y1623302D01*
X537916Y1621270D01*
X538932Y1619238D01*
X536900Y1620254D01*
X534868Y1619238D01*
X500868D02*
X501884Y1621270D01*
X500868Y1623302D01*
X502900Y1622286D01*
X504932Y1623302D01*
X503916Y1621270D01*
X504932Y1619238D01*
X502900Y1620254D01*
X500868Y1619238D01*
X661868Y1753938D02*
X662884Y1755970D01*
X661868Y1758002D01*
X663900Y1756986D01*
X665932Y1758002D01*
X664916Y1755970D01*
X665932Y1753938D01*
X663900Y1754954D01*
X661868Y1753938D01*
X627868D02*
X628884Y1755970D01*
X627868Y1758002D01*
X629900Y1756986D01*
X631932Y1758002D01*
X630916Y1755970D01*
X631932Y1753938D01*
X629900Y1754954D01*
X627868Y1753938D01*
X661868Y1619238D02*
X662884Y1621270D01*
X661868Y1623302D01*
X663900Y1622286D01*
X665932Y1623302D01*
X664916Y1621270D01*
X665932Y1619238D01*
X663900Y1620254D01*
X661868Y1619238D01*
X627868D02*
X628884Y1621270D01*
X627868Y1623302D01*
X629900Y1622286D01*
X631932Y1623302D01*
X630916Y1621270D01*
X631932Y1619238D01*
X629900Y1620254D01*
X627868Y1619238D01*
X788868Y1753938D02*
X789884Y1755970D01*
X788868Y1758002D01*
X790900Y1756986D01*
X792932Y1758002D01*
X791916Y1755970D01*
X792932Y1753938D01*
X790900Y1754954D01*
X788868Y1753938D01*
X754868D02*
X755884Y1755970D01*
X754868Y1758002D01*
X756900Y1756986D01*
X758932Y1758002D01*
X757916Y1755970D01*
X758932Y1753938D01*
X756900Y1754954D01*
X754868Y1753938D01*
X788868Y1619238D02*
X789884Y1621270D01*
X788868Y1623302D01*
X790900Y1622286D01*
X792932Y1623302D01*
X791916Y1621270D01*
X792932Y1619238D01*
X790900Y1620254D01*
X788868Y1619238D01*
X754868D02*
X755884Y1621270D01*
X754868Y1623302D01*
X756900Y1622286D01*
X758932Y1623302D01*
X757916Y1621270D01*
X758932Y1619238D01*
X756900Y1620254D01*
X754868Y1619238D01*
X915868Y1753938D02*
X916884Y1755970D01*
X915868Y1758002D01*
X917900Y1756986D01*
X919932Y1758002D01*
X918916Y1755970D01*
X919932Y1753938D01*
X917900Y1754954D01*
X915868Y1753938D01*
X881868D02*
X882884Y1755970D01*
X881868Y1758002D01*
X883900Y1756986D01*
X885932Y1758002D01*
X884916Y1755970D01*
X885932Y1753938D01*
X883900Y1754954D01*
X881868Y1753938D01*
X915868Y1619238D02*
X916884Y1621270D01*
X915868Y1623302D01*
X917900Y1622286D01*
X919932Y1623302D01*
X918916Y1621270D01*
X919932Y1619238D01*
X917900Y1620254D01*
X915868Y1619238D01*
X881868D02*
X882884Y1621270D01*
X881868Y1623302D01*
X883900Y1622286D01*
X885932Y1623302D01*
X884916Y1621270D01*
X885932Y1619238D01*
X883900Y1620254D01*
X881868Y1619238D01*
X1042868Y1753938D02*
X1043884Y1755970D01*
X1042868Y1758002D01*
X1044900Y1756986D01*
X1046932Y1758002D01*
X1045916Y1755970D01*
X1046932Y1753938D01*
X1044900Y1754954D01*
X1042868Y1753938D01*
X1008868D02*
X1009884Y1755970D01*
X1008868Y1758002D01*
X1010900Y1756986D01*
X1012932Y1758002D01*
X1011916Y1755970D01*
X1012932Y1753938D01*
X1010900Y1754954D01*
X1008868Y1753938D01*
X1042868Y1619238D02*
X1043884Y1621270D01*
X1042868Y1623302D01*
X1044900Y1622286D01*
X1046932Y1623302D01*
X1045916Y1621270D01*
X1046932Y1619238D01*
X1044900Y1620254D01*
X1042868Y1619238D01*
X1008868D02*
X1009884Y1621270D01*
X1008868Y1623302D01*
X1010900Y1622286D01*
X1012932Y1623302D01*
X1011916Y1621270D01*
X1012932Y1619238D01*
X1010900Y1620254D01*
X1008868Y1619238D01*
X1169868Y1753938D02*
X1170884Y1755970D01*
X1169868Y1758002D01*
X1171900Y1756986D01*
X1173932Y1758002D01*
X1172916Y1755970D01*
X1173932Y1753938D01*
X1171900Y1754954D01*
X1169868Y1753938D01*
X1135868D02*
X1136884Y1755970D01*
X1135868Y1758002D01*
X1137900Y1756986D01*
X1139932Y1758002D01*
X1138916Y1755970D01*
X1139932Y1753938D01*
X1137900Y1754954D01*
X1135868Y1753938D01*
X1169868Y1619238D02*
X1170884Y1621270D01*
X1169868Y1623302D01*
X1171900Y1622286D01*
X1173932Y1623302D01*
X1172916Y1621270D01*
X1173932Y1619238D01*
X1171900Y1620254D01*
X1169868Y1619238D01*
X1135868D02*
X1136884Y1621270D01*
X1135868Y1623302D01*
X1137900Y1622286D01*
X1139932Y1623302D01*
X1138916Y1621270D01*
X1139932Y1619238D01*
X1137900Y1620254D01*
X1135868Y1619238D01*
X1296868Y1753938D02*
X1297884Y1755970D01*
X1296868Y1758002D01*
X1298900Y1756986D01*
X1300932Y1758002D01*
X1299916Y1755970D01*
X1300932Y1753938D01*
X1298900Y1754954D01*
X1296868Y1753938D01*
X1262868D02*
X1263884Y1755970D01*
X1262868Y1758002D01*
X1264900Y1756986D01*
X1266932Y1758002D01*
X1265916Y1755970D01*
X1266932Y1753938D01*
X1264900Y1754954D01*
X1262868Y1753938D01*
X1296868Y1619238D02*
X1297884Y1621270D01*
X1296868Y1623302D01*
X1298900Y1622286D01*
X1300932Y1623302D01*
X1299916Y1621270D01*
X1300932Y1619238D01*
X1298900Y1620254D01*
X1296868Y1619238D01*
X1262868D02*
X1263884Y1621270D01*
X1262868Y1623302D01*
X1264900Y1622286D01*
X1266932Y1623302D01*
X1265916Y1621270D01*
X1266932Y1619238D01*
X1264900Y1620254D01*
X1262868Y1619238D01*
X246868D02*
X247884Y1621270D01*
X246868Y1623302D01*
X248900Y1622286D01*
X250932Y1623302D01*
X249916Y1621270D01*
X250932Y1619238D01*
X248900Y1620254D01*
X246868Y1619238D01*
X280868D02*
X281884Y1621270D01*
X280868Y1623302D01*
X282900Y1622286D01*
X284932Y1623302D01*
X283916Y1621270D01*
X284932Y1619238D01*
X282900Y1620254D01*
X280868Y1619238D01*
X246868Y1753938D02*
X247884Y1755970D01*
X246868Y1758002D01*
X248900Y1756986D01*
X250932Y1758002D01*
X249916Y1755970D01*
X250932Y1753938D01*
X248900Y1754954D01*
X246868Y1753938D01*
X280868D02*
X281884Y1755970D01*
X280868Y1758002D01*
X282900Y1756986D01*
X284932Y1758002D01*
X283916Y1755970D01*
X284932Y1753938D01*
X282900Y1754954D01*
X280868Y1753938D01*
X252184Y1450504D02*
Y1449488D01*
X254216D01*
Y1450504D01*
X255232D01*
Y1452536D01*
X254216D01*
Y1453552D01*
X252184D01*
Y1452536D01*
X251168D01*
Y1450504D01*
X252184D01*
Y1340504D02*
Y1339488D01*
X254216D01*
Y1340504D01*
X255232D01*
Y1342536D01*
X254216D01*
Y1343552D01*
X252184D01*
Y1342536D01*
X251168D01*
Y1340504D01*
X252184D01*
X149568Y1318288D02*
X150584D01*
X151600Y1319304D01*
X152616Y1318288D01*
X153632D01*
Y1319304D01*
X152616Y1320320D01*
X153632Y1321336D01*
Y1322352D01*
X152616D01*
X151600Y1321336D01*
X150584Y1322352D01*
X149568D01*
Y1321336D01*
X150584Y1320320D01*
X149568Y1319304D01*
Y1318288D01*
Y1775488D02*
X150584D01*
X151600Y1776504D01*
X152616Y1775488D01*
X153632D01*
Y1776504D01*
X152616Y1777520D01*
X153632Y1778536D01*
Y1779552D01*
X152616D01*
X151600Y1778536D01*
X150584Y1779552D01*
X149568D01*
Y1778536D01*
X150584Y1777520D01*
X149568Y1776504D01*
Y1775488D01*
X1394168D02*
X1395184D01*
X1396200Y1776504D01*
X1397216Y1775488D01*
X1398232D01*
Y1776504D01*
X1397216Y1777520D01*
X1398232Y1778536D01*
Y1779552D01*
X1397216D01*
X1396200Y1778536D01*
X1395184Y1779552D01*
X1394168D01*
Y1778536D01*
X1395184Y1777520D01*
X1394168Y1776504D01*
Y1775488D01*
Y1318288D02*
X1395184D01*
X1396200Y1319304D01*
X1397216Y1318288D01*
X1398232D01*
Y1319304D01*
X1397216Y1320320D01*
X1398232Y1321336D01*
Y1322352D01*
X1397216D01*
X1396200Y1321336D01*
X1395184Y1322352D01*
X1394168D01*
Y1321336D01*
X1395184Y1320320D01*
X1394168Y1319304D01*
Y1318288D01*
X1330668Y1802920D02*
X1332700Y1804952D01*
X1334732Y1802920D01*
X1332700Y1800888D01*
X1330668Y1802920D01*
X1203668D02*
X1205700Y1804952D01*
X1207732Y1802920D01*
X1205700Y1800888D01*
X1203668Y1802920D01*
X1076668D02*
X1078700Y1804952D01*
X1080732Y1802920D01*
X1078700Y1800888D01*
X1076668Y1802920D01*
X949668D02*
X951700Y1804952D01*
X953732Y1802920D01*
X951700Y1800888D01*
X949668Y1802920D01*
X822668D02*
X824700Y1804952D01*
X826732Y1802920D01*
X824700Y1800888D01*
X822668Y1802920D01*
X695668D02*
X697700Y1804952D01*
X699732Y1802920D01*
X697700Y1800888D01*
X695668Y1802920D01*
X568668D02*
X570700Y1804952D01*
X572732Y1802920D01*
X570700Y1800888D01*
X568668Y1802920D01*
X441668D02*
X443700Y1804952D01*
X445732Y1802920D01*
X443700Y1800888D01*
X441668Y1802920D01*
X314668D02*
X316700Y1804952D01*
X318732Y1802920D01*
X316700Y1800888D01*
X314668Y1802920D01*
X213068D02*
X215100Y1804952D01*
X217132Y1802920D01*
X215100Y1800888D01*
X213068Y1802920D01*
X392900Y1917288D02*
X390868Y1921352D01*
X394932D01*
X392900Y1917288D01*
Y1989288D02*
X390868Y1993352D01*
X394932D01*
X392900Y1989288D01*
X1281900Y2088188D02*
X1282916Y2089204D01*
X1283932D01*
X1282916Y2090220D01*
X1283932Y2091236D01*
X1282916D01*
X1281900Y2092252D01*
X1280884Y2091236D01*
X1279868D01*
X1280884Y2090220D01*
X1279868Y2089204D01*
X1280884D01*
X1281900Y2088188D01*
Y2123188D02*
X1282916Y2124204D01*
X1283932D01*
X1282916Y2125220D01*
X1283932Y2126236D01*
X1282916D01*
X1281900Y2127252D01*
X1280884Y2126236D01*
X1279868D01*
X1280884Y2125220D01*
X1279868Y2124204D01*
X1280884D01*
X1281900Y2123188D01*
X1154900Y2088188D02*
X1155916Y2089204D01*
X1156932D01*
X1155916Y2090220D01*
X1156932Y2091236D01*
X1155916D01*
X1154900Y2092252D01*
X1153884Y2091236D01*
X1152868D01*
X1153884Y2090220D01*
X1152868Y2089204D01*
X1153884D01*
X1154900Y2088188D01*
Y2123188D02*
X1155916Y2124204D01*
X1156932D01*
X1155916Y2125220D01*
X1156932Y2126236D01*
X1155916D01*
X1154900Y2127252D01*
X1153884Y2126236D01*
X1152868D01*
X1153884Y2125220D01*
X1152868Y2124204D01*
X1153884D01*
X1154900Y2123188D01*
X1027900Y2088188D02*
X1028916Y2089204D01*
X1029932D01*
X1028916Y2090220D01*
X1029932Y2091236D01*
X1028916D01*
X1027900Y2092252D01*
X1026884Y2091236D01*
X1025868D01*
X1026884Y2090220D01*
X1025868Y2089204D01*
X1026884D01*
X1027900Y2088188D01*
Y2123188D02*
X1028916Y2124204D01*
X1029932D01*
X1028916Y2125220D01*
X1029932Y2126236D01*
X1028916D01*
X1027900Y2127252D01*
X1026884Y2126236D01*
X1025868D01*
X1026884Y2125220D01*
X1025868Y2124204D01*
X1026884D01*
X1027900Y2123188D01*
X900900Y2088188D02*
X901916Y2089204D01*
X902932D01*
X901916Y2090220D01*
X902932Y2091236D01*
X901916D01*
X900900Y2092252D01*
X899884Y2091236D01*
X898868D01*
X899884Y2090220D01*
X898868Y2089204D01*
X899884D01*
X900900Y2088188D01*
Y2123188D02*
X901916Y2124204D01*
X902932D01*
X901916Y2125220D01*
X902932Y2126236D01*
X901916D01*
X900900Y2127252D01*
X899884Y2126236D01*
X898868D01*
X899884Y2125220D01*
X898868Y2124204D01*
X899884D01*
X900900Y2123188D01*
X773900Y2088188D02*
X774916Y2089204D01*
X775932D01*
X774916Y2090220D01*
X775932Y2091236D01*
X774916D01*
X773900Y2092252D01*
X772884Y2091236D01*
X771868D01*
X772884Y2090220D01*
X771868Y2089204D01*
X772884D01*
X773900Y2088188D01*
Y2123188D02*
X774916Y2124204D01*
X775932D01*
X774916Y2125220D01*
X775932Y2126236D01*
X774916D01*
X773900Y2127252D01*
X772884Y2126236D01*
X771868D01*
X772884Y2125220D01*
X771868Y2124204D01*
X772884D01*
X773900Y2123188D01*
X646900Y2088188D02*
X647916Y2089204D01*
X648932D01*
X647916Y2090220D01*
X648932Y2091236D01*
X647916D01*
X646900Y2092252D01*
X645884Y2091236D01*
X644868D01*
X645884Y2090220D01*
X644868Y2089204D01*
X645884D01*
X646900Y2088188D01*
Y2123188D02*
X647916Y2124204D01*
X648932D01*
X647916Y2125220D01*
X648932Y2126236D01*
X647916D01*
X646900Y2127252D01*
X645884Y2126236D01*
X644868D01*
X645884Y2125220D01*
X644868Y2124204D01*
X645884D01*
X646900Y2123188D01*
X519900Y2088188D02*
X520916Y2089204D01*
X521932D01*
X520916Y2090220D01*
X521932Y2091236D01*
X520916D01*
X519900Y2092252D01*
X518884Y2091236D01*
X517868D01*
X518884Y2090220D01*
X517868Y2089204D01*
X518884D01*
X519900Y2088188D01*
Y2123188D02*
X520916Y2124204D01*
X521932D01*
X520916Y2125220D01*
X521932Y2126236D01*
X520916D01*
X519900Y2127252D01*
X518884Y2126236D01*
X517868D01*
X518884Y2125220D01*
X517868Y2124204D01*
X518884D01*
X519900Y2123188D01*
X392900Y2088188D02*
X393916Y2089204D01*
X394932D01*
X393916Y2090220D01*
X394932Y2091236D01*
X393916D01*
X392900Y2092252D01*
X391884Y2091236D01*
X390868D01*
X391884Y2090220D01*
X390868Y2089204D01*
X391884D01*
X392900Y2088188D01*
Y2123188D02*
X393916Y2124204D01*
X394932D01*
X393916Y2125220D01*
X394932Y2126236D01*
X393916D01*
X392900Y2127252D01*
X391884Y2126236D01*
X390868D01*
X391884Y2125220D01*
X390868Y2124204D01*
X391884D01*
X392900Y2123188D01*
X519900Y1917288D02*
X517868Y1921352D01*
X521932D01*
X519900Y1917288D01*
Y1989288D02*
X517868Y1993352D01*
X521932D01*
X519900Y1989288D01*
X773900Y1917288D02*
X771868Y1921352D01*
X775932D01*
X773900Y1917288D01*
Y1989288D02*
X771868Y1993352D01*
X775932D01*
X773900Y1989288D01*
X1027900Y1917288D02*
X1025868Y1921352D01*
X1029932D01*
X1027900Y1917288D01*
Y1989288D02*
X1025868Y1993352D01*
X1029932D01*
X1027900Y1989288D01*
X1281900Y1917288D02*
X1279868Y1921352D01*
X1283932D01*
X1281900Y1917288D01*
Y1989288D02*
X1279868Y1993352D01*
X1283932D01*
X1281900Y1989288D01*
X900900Y1917288D02*
X898868Y1921352D01*
X902932D01*
X900900Y1917288D01*
Y1989288D02*
X898868Y1993352D01*
X902932D01*
X900900Y1989288D01*
X1154900Y1917288D02*
X1152868Y1921352D01*
X1156932D01*
X1154900Y1917288D01*
Y1989288D02*
X1152868Y1993352D01*
X1156932D01*
X1154900Y1989288D01*
X646900Y1917288D02*
X644868Y1921352D01*
X648932D01*
X646900Y1917288D01*
Y1989288D02*
X644868Y1993352D01*
X648932D01*
X646900Y1989288D01*
X407868Y2338138D02*
X408884Y2340170D01*
X407868Y2342202D01*
X409900Y2341186D01*
X411932Y2342202D01*
X410916Y2340170D01*
X411932Y2338138D01*
X409900Y2339154D01*
X407868Y2338138D01*
X373868D02*
X374884Y2340170D01*
X373868Y2342202D01*
X375900Y2341186D01*
X377932Y2342202D01*
X376916Y2340170D01*
X377932Y2338138D01*
X375900Y2339154D01*
X373868Y2338138D01*
X407868Y2203438D02*
X408884Y2205470D01*
X407868Y2207502D01*
X409900Y2206486D01*
X411932Y2207502D01*
X410916Y2205470D01*
X411932Y2203438D01*
X409900Y2204454D01*
X407868Y2203438D01*
X373868D02*
X374884Y2205470D01*
X373868Y2207502D01*
X375900Y2206486D01*
X377932Y2207502D01*
X376916Y2205470D01*
X377932Y2203438D01*
X375900Y2204454D01*
X373868Y2203438D01*
X534868Y2338138D02*
X535884Y2340170D01*
X534868Y2342202D01*
X536900Y2341186D01*
X538932Y2342202D01*
X537916Y2340170D01*
X538932Y2338138D01*
X536900Y2339154D01*
X534868Y2338138D01*
X500868D02*
X501884Y2340170D01*
X500868Y2342202D01*
X502900Y2341186D01*
X504932Y2342202D01*
X503916Y2340170D01*
X504932Y2338138D01*
X502900Y2339154D01*
X500868Y2338138D01*
X534868Y2203438D02*
X535884Y2205470D01*
X534868Y2207502D01*
X536900Y2206486D01*
X538932Y2207502D01*
X537916Y2205470D01*
X538932Y2203438D01*
X536900Y2204454D01*
X534868Y2203438D01*
X500868D02*
X501884Y2205470D01*
X500868Y2207502D01*
X502900Y2206486D01*
X504932Y2207502D01*
X503916Y2205470D01*
X504932Y2203438D01*
X502900Y2204454D01*
X500868Y2203438D01*
X661868Y2338138D02*
X662884Y2340170D01*
X661868Y2342202D01*
X663900Y2341186D01*
X665932Y2342202D01*
X664916Y2340170D01*
X665932Y2338138D01*
X663900Y2339154D01*
X661868Y2338138D01*
X627868D02*
X628884Y2340170D01*
X627868Y2342202D01*
X629900Y2341186D01*
X631932Y2342202D01*
X630916Y2340170D01*
X631932Y2338138D01*
X629900Y2339154D01*
X627868Y2338138D01*
X661868Y2203438D02*
X662884Y2205470D01*
X661868Y2207502D01*
X663900Y2206486D01*
X665932Y2207502D01*
X664916Y2205470D01*
X665932Y2203438D01*
X663900Y2204454D01*
X661868Y2203438D01*
X627868D02*
X628884Y2205470D01*
X627868Y2207502D01*
X629900Y2206486D01*
X631932Y2207502D01*
X630916Y2205470D01*
X631932Y2203438D01*
X629900Y2204454D01*
X627868Y2203438D01*
X788868Y2338138D02*
X789884Y2340170D01*
X788868Y2342202D01*
X790900Y2341186D01*
X792932Y2342202D01*
X791916Y2340170D01*
X792932Y2338138D01*
X790900Y2339154D01*
X788868Y2338138D01*
X754868D02*
X755884Y2340170D01*
X754868Y2342202D01*
X756900Y2341186D01*
X758932Y2342202D01*
X757916Y2340170D01*
X758932Y2338138D01*
X756900Y2339154D01*
X754868Y2338138D01*
X788868Y2203438D02*
X789884Y2205470D01*
X788868Y2207502D01*
X790900Y2206486D01*
X792932Y2207502D01*
X791916Y2205470D01*
X792932Y2203438D01*
X790900Y2204454D01*
X788868Y2203438D01*
X754868D02*
X755884Y2205470D01*
X754868Y2207502D01*
X756900Y2206486D01*
X758932Y2207502D01*
X757916Y2205470D01*
X758932Y2203438D01*
X756900Y2204454D01*
X754868Y2203438D01*
X915868Y2338138D02*
X916884Y2340170D01*
X915868Y2342202D01*
X917900Y2341186D01*
X919932Y2342202D01*
X918916Y2340170D01*
X919932Y2338138D01*
X917900Y2339154D01*
X915868Y2338138D01*
X881868D02*
X882884Y2340170D01*
X881868Y2342202D01*
X883900Y2341186D01*
X885932Y2342202D01*
X884916Y2340170D01*
X885932Y2338138D01*
X883900Y2339154D01*
X881868Y2338138D01*
X915868Y2203438D02*
X916884Y2205470D01*
X915868Y2207502D01*
X917900Y2206486D01*
X919932Y2207502D01*
X918916Y2205470D01*
X919932Y2203438D01*
X917900Y2204454D01*
X915868Y2203438D01*
X881868D02*
X882884Y2205470D01*
X881868Y2207502D01*
X883900Y2206486D01*
X885932Y2207502D01*
X884916Y2205470D01*
X885932Y2203438D01*
X883900Y2204454D01*
X881868Y2203438D01*
X1042868Y2338138D02*
X1043884Y2340170D01*
X1042868Y2342202D01*
X1044900Y2341186D01*
X1046932Y2342202D01*
X1045916Y2340170D01*
X1046932Y2338138D01*
X1044900Y2339154D01*
X1042868Y2338138D01*
X1008868D02*
X1009884Y2340170D01*
X1008868Y2342202D01*
X1010900Y2341186D01*
X1012932Y2342202D01*
X1011916Y2340170D01*
X1012932Y2338138D01*
X1010900Y2339154D01*
X1008868Y2338138D01*
X1042868Y2203438D02*
X1043884Y2205470D01*
X1042868Y2207502D01*
X1044900Y2206486D01*
X1046932Y2207502D01*
X1045916Y2205470D01*
X1046932Y2203438D01*
X1044900Y2204454D01*
X1042868Y2203438D01*
X1008868D02*
X1009884Y2205470D01*
X1008868Y2207502D01*
X1010900Y2206486D01*
X1012932Y2207502D01*
X1011916Y2205470D01*
X1012932Y2203438D01*
X1010900Y2204454D01*
X1008868Y2203438D01*
X1169868Y2338138D02*
X1170884Y2340170D01*
X1169868Y2342202D01*
X1171900Y2341186D01*
X1173932Y2342202D01*
X1172916Y2340170D01*
X1173932Y2338138D01*
X1171900Y2339154D01*
X1169868Y2338138D01*
X1135868D02*
X1136884Y2340170D01*
X1135868Y2342202D01*
X1137900Y2341186D01*
X1139932Y2342202D01*
X1138916Y2340170D01*
X1139932Y2338138D01*
X1137900Y2339154D01*
X1135868Y2338138D01*
X1169868Y2203438D02*
X1170884Y2205470D01*
X1169868Y2207502D01*
X1171900Y2206486D01*
X1173932Y2207502D01*
X1172916Y2205470D01*
X1173932Y2203438D01*
X1171900Y2204454D01*
X1169868Y2203438D01*
X1135868D02*
X1136884Y2205470D01*
X1135868Y2207502D01*
X1137900Y2206486D01*
X1139932Y2207502D01*
X1138916Y2205470D01*
X1139932Y2203438D01*
X1137900Y2204454D01*
X1135868Y2203438D01*
X1296868Y2338138D02*
X1297884Y2340170D01*
X1296868Y2342202D01*
X1298900Y2341186D01*
X1300932Y2342202D01*
X1299916Y2340170D01*
X1300932Y2338138D01*
X1298900Y2339154D01*
X1296868Y2338138D01*
X1262868D02*
X1263884Y2340170D01*
X1262868Y2342202D01*
X1264900Y2341186D01*
X1266932Y2342202D01*
X1265916Y2340170D01*
X1266932Y2338138D01*
X1264900Y2339154D01*
X1262868Y2338138D01*
X1296868Y2203438D02*
X1297884Y2205470D01*
X1296868Y2207502D01*
X1298900Y2206486D01*
X1300932Y2207502D01*
X1299916Y2205470D01*
X1300932Y2203438D01*
X1298900Y2204454D01*
X1296868Y2203438D01*
X1262868D02*
X1263884Y2205470D01*
X1262868Y2207502D01*
X1264900Y2206486D01*
X1266932Y2207502D01*
X1265916Y2205470D01*
X1266932Y2203438D01*
X1264900Y2204454D01*
X1262868Y2203438D01*
X246868D02*
X247884Y2205470D01*
X246868Y2207502D01*
X248900Y2206486D01*
X250932Y2207502D01*
X249916Y2205470D01*
X250932Y2203438D01*
X248900Y2204454D01*
X246868Y2203438D01*
X280868D02*
X281884Y2205470D01*
X280868Y2207502D01*
X282900Y2206486D01*
X284932Y2207502D01*
X283916Y2205470D01*
X284932Y2203438D01*
X282900Y2204454D01*
X280868Y2203438D01*
X246868Y2338138D02*
X247884Y2340170D01*
X246868Y2342202D01*
X248900Y2341186D01*
X250932Y2342202D01*
X249916Y2340170D01*
X250932Y2338138D01*
X248900Y2339154D01*
X246868Y2338138D01*
X280868D02*
X281884Y2340170D01*
X280868Y2342202D01*
X282900Y2341186D01*
X284932Y2342202D01*
X283916Y2340170D01*
X284932Y2338138D01*
X282900Y2339154D01*
X280868Y2338138D01*
X252184Y2034704D02*
Y2033688D01*
X254216D01*
Y2034704D01*
X255232D01*
Y2036736D01*
X254216D01*
Y2037752D01*
X252184D01*
Y2036736D01*
X251168D01*
Y2034704D01*
X252184D01*
Y1924704D02*
Y1923688D01*
X254216D01*
Y1924704D01*
X255232D01*
Y1926736D01*
X254216D01*
Y1927752D01*
X252184D01*
Y1926736D01*
X251168D01*
Y1924704D01*
X252184D01*
X149568Y1902488D02*
X150584D01*
X151600Y1903504D01*
X152616Y1902488D01*
X153632D01*
Y1903504D01*
X152616Y1904520D01*
X153632Y1905536D01*
Y1906552D01*
X152616D01*
X151600Y1905536D01*
X150584Y1906552D01*
X149568D01*
Y1905536D01*
X150584Y1904520D01*
X149568Y1903504D01*
Y1902488D01*
Y2359688D02*
X150584D01*
X151600Y2360704D01*
X152616Y2359688D01*
X153632D01*
Y2360704D01*
X152616Y2361720D01*
X153632Y2362736D01*
Y2363752D01*
X152616D01*
X151600Y2362736D01*
X150584Y2363752D01*
X149568D01*
Y2362736D01*
X150584Y2361720D01*
X149568Y2360704D01*
Y2359688D01*
X1394168D02*
X1395184D01*
X1396200Y2360704D01*
X1397216Y2359688D01*
X1398232D01*
Y2360704D01*
X1397216Y2361720D01*
X1398232Y2362736D01*
Y2363752D01*
X1397216D01*
X1396200Y2362736D01*
X1395184Y2363752D01*
X1394168D01*
Y2362736D01*
X1395184Y2361720D01*
X1394168Y2360704D01*
Y2359688D01*
Y1902488D02*
X1395184D01*
X1396200Y1903504D01*
X1397216Y1902488D01*
X1398232D01*
Y1903504D01*
X1397216Y1904520D01*
X1398232Y1905536D01*
Y1906552D01*
X1397216D01*
X1396200Y1905536D01*
X1395184Y1906552D01*
X1394168D01*
Y1905536D01*
X1395184Y1904520D01*
X1394168Y1903504D01*
Y1902488D01*
X1330668Y2387120D02*
X1332700Y2389152D01*
X1334732Y2387120D01*
X1332700Y2385088D01*
X1330668Y2387120D01*
X1203668D02*
X1205700Y2389152D01*
X1207732Y2387120D01*
X1205700Y2385088D01*
X1203668Y2387120D01*
X1076668D02*
X1078700Y2389152D01*
X1080732Y2387120D01*
X1078700Y2385088D01*
X1076668Y2387120D01*
X949668D02*
X951700Y2389152D01*
X953732Y2387120D01*
X951700Y2385088D01*
X949668Y2387120D01*
X822668D02*
X824700Y2389152D01*
X826732Y2387120D01*
X824700Y2385088D01*
X822668Y2387120D01*
X695668D02*
X697700Y2389152D01*
X699732Y2387120D01*
X697700Y2385088D01*
X695668Y2387120D01*
X568668D02*
X570700Y2389152D01*
X572732Y2387120D01*
X570700Y2385088D01*
X568668Y2387120D01*
X441668D02*
X443700Y2389152D01*
X445732Y2387120D01*
X443700Y2385088D01*
X441668Y2387120D01*
X314668D02*
X316700Y2389152D01*
X318732Y2387120D01*
X316700Y2385088D01*
X314668Y2387120D01*
X213068D02*
X215100Y2389152D01*
X217132Y2387120D01*
X215100Y2385088D01*
X213068Y2387120D01*
X1538800Y1153668D02*
X1536768Y1157732D01*
X1540832D01*
X1538800Y1153668D01*
X1610800D02*
X1608768Y1157732D01*
X1612832D01*
X1610800Y1153668D01*
X1709700Y264668D02*
X1710716Y265684D01*
X1711732D01*
X1710716Y266700D01*
X1711732Y267716D01*
X1710716D01*
X1709700Y268732D01*
X1708684Y267716D01*
X1707668D01*
X1708684Y266700D01*
X1707668Y265684D01*
X1708684D01*
X1709700Y264668D01*
X1744700D02*
X1745716Y265684D01*
X1746732D01*
X1745716Y266700D01*
X1746732Y267716D01*
X1745716D01*
X1744700Y268732D01*
X1743684Y267716D01*
X1742668D01*
X1743684Y266700D01*
X1742668Y265684D01*
X1743684D01*
X1744700Y264668D01*
X1709700Y391668D02*
X1710716Y392684D01*
X1711732D01*
X1710716Y393700D01*
X1711732Y394716D01*
X1710716D01*
X1709700Y395732D01*
X1708684Y394716D01*
X1707668D01*
X1708684Y393700D01*
X1707668Y392684D01*
X1708684D01*
X1709700Y391668D01*
X1744700D02*
X1745716Y392684D01*
X1746732D01*
X1745716Y393700D01*
X1746732Y394716D01*
X1745716D01*
X1744700Y395732D01*
X1743684Y394716D01*
X1742668D01*
X1743684Y393700D01*
X1742668Y392684D01*
X1743684D01*
X1744700Y391668D01*
X1709700Y518668D02*
X1710716Y519684D01*
X1711732D01*
X1710716Y520700D01*
X1711732Y521716D01*
X1710716D01*
X1709700Y522732D01*
X1708684Y521716D01*
X1707668D01*
X1708684Y520700D01*
X1707668Y519684D01*
X1708684D01*
X1709700Y518668D01*
X1744700D02*
X1745716Y519684D01*
X1746732D01*
X1745716Y520700D01*
X1746732Y521716D01*
X1745716D01*
X1744700Y522732D01*
X1743684Y521716D01*
X1742668D01*
X1743684Y520700D01*
X1742668Y519684D01*
X1743684D01*
X1744700Y518668D01*
X1709700Y645668D02*
X1710716Y646684D01*
X1711732D01*
X1710716Y647700D01*
X1711732Y648716D01*
X1710716D01*
X1709700Y649732D01*
X1708684Y648716D01*
X1707668D01*
X1708684Y647700D01*
X1707668Y646684D01*
X1708684D01*
X1709700Y645668D01*
X1744700D02*
X1745716Y646684D01*
X1746732D01*
X1745716Y647700D01*
X1746732Y648716D01*
X1745716D01*
X1744700Y649732D01*
X1743684Y648716D01*
X1742668D01*
X1743684Y647700D01*
X1742668Y646684D01*
X1743684D01*
X1744700Y645668D01*
X1709700Y772668D02*
X1710716Y773684D01*
X1711732D01*
X1710716Y774700D01*
X1711732Y775716D01*
X1710716D01*
X1709700Y776732D01*
X1708684Y775716D01*
X1707668D01*
X1708684Y774700D01*
X1707668Y773684D01*
X1708684D01*
X1709700Y772668D01*
X1744700D02*
X1745716Y773684D01*
X1746732D01*
X1745716Y774700D01*
X1746732Y775716D01*
X1745716D01*
X1744700Y776732D01*
X1743684Y775716D01*
X1742668D01*
X1743684Y774700D01*
X1742668Y773684D01*
X1743684D01*
X1744700Y772668D01*
X1709700Y899668D02*
X1710716Y900684D01*
X1711732D01*
X1710716Y901700D01*
X1711732Y902716D01*
X1710716D01*
X1709700Y903732D01*
X1708684Y902716D01*
X1707668D01*
X1708684Y901700D01*
X1707668Y900684D01*
X1708684D01*
X1709700Y899668D01*
X1744700D02*
X1745716Y900684D01*
X1746732D01*
X1745716Y901700D01*
X1746732Y902716D01*
X1745716D01*
X1744700Y903732D01*
X1743684Y902716D01*
X1742668D01*
X1743684Y901700D01*
X1742668Y900684D01*
X1743684D01*
X1744700Y899668D01*
X1709700Y1026668D02*
X1710716Y1027684D01*
X1711732D01*
X1710716Y1028700D01*
X1711732Y1029716D01*
X1710716D01*
X1709700Y1030732D01*
X1708684Y1029716D01*
X1707668D01*
X1708684Y1028700D01*
X1707668Y1027684D01*
X1708684D01*
X1709700Y1026668D01*
X1744700D02*
X1745716Y1027684D01*
X1746732D01*
X1745716Y1028700D01*
X1746732Y1029716D01*
X1745716D01*
X1744700Y1030732D01*
X1743684Y1029716D01*
X1742668D01*
X1743684Y1028700D01*
X1742668Y1027684D01*
X1743684D01*
X1744700Y1026668D01*
X1709700Y1153668D02*
X1710716Y1154684D01*
X1711732D01*
X1710716Y1155700D01*
X1711732Y1156716D01*
X1710716D01*
X1709700Y1157732D01*
X1708684Y1156716D01*
X1707668D01*
X1708684Y1155700D01*
X1707668Y1154684D01*
X1708684D01*
X1709700Y1153668D01*
X1744700D02*
X1745716Y1154684D01*
X1746732D01*
X1745716Y1155700D01*
X1746732Y1156716D01*
X1745716D01*
X1744700Y1157732D01*
X1743684Y1156716D01*
X1742668D01*
X1743684Y1155700D01*
X1742668Y1154684D01*
X1743684D01*
X1744700Y1153668D01*
X1538800Y1026668D02*
X1536768Y1030732D01*
X1540832D01*
X1538800Y1026668D01*
X1610800D02*
X1608768Y1030732D01*
X1612832D01*
X1610800Y1026668D01*
X1538800Y772668D02*
X1536768Y776732D01*
X1540832D01*
X1538800Y772668D01*
X1610800D02*
X1608768Y776732D01*
X1612832D01*
X1610800Y772668D01*
X1538800Y518668D02*
X1536768Y522732D01*
X1540832D01*
X1538800Y518668D01*
X1610800D02*
X1608768Y522732D01*
X1612832D01*
X1610800Y518668D01*
X1538800Y264668D02*
X1536768Y268732D01*
X1540832D01*
X1538800Y264668D01*
X1610800D02*
X1608768Y268732D01*
X1612832D01*
X1610800Y264668D01*
X1538800Y645668D02*
X1536768Y649732D01*
X1540832D01*
X1538800Y645668D01*
X1610800D02*
X1608768Y649732D01*
X1612832D01*
X1610800Y645668D01*
X1538800Y391668D02*
X1536768Y395732D01*
X1540832D01*
X1538800Y391668D01*
X1610800D02*
X1608768Y395732D01*
X1612832D01*
X1610800Y391668D01*
X1538800Y899668D02*
X1536768Y903732D01*
X1540832D01*
X1538800Y899668D01*
X1610800D02*
X1608768Y903732D01*
X1612832D01*
X1610800Y899668D01*
X1957618Y1136668D02*
X1958634Y1138700D01*
X1957618Y1140732D01*
X1959650Y1139716D01*
X1961682Y1140732D01*
X1960666Y1138700D01*
X1961682Y1136668D01*
X1959650Y1137684D01*
X1957618Y1136668D01*
Y1170668D02*
X1958634Y1172700D01*
X1957618Y1174732D01*
X1959650Y1173716D01*
X1961682Y1174732D01*
X1960666Y1172700D01*
X1961682Y1170668D01*
X1959650Y1171684D01*
X1957618Y1170668D01*
X1822918Y1136668D02*
X1823934Y1138700D01*
X1822918Y1140732D01*
X1824950Y1139716D01*
X1826982Y1140732D01*
X1825966Y1138700D01*
X1826982Y1136668D01*
X1824950Y1137684D01*
X1822918Y1136668D01*
Y1170668D02*
X1823934Y1172700D01*
X1822918Y1174732D01*
X1824950Y1173716D01*
X1826982Y1174732D01*
X1825966Y1172700D01*
X1826982Y1170668D01*
X1824950Y1171684D01*
X1822918Y1170668D01*
X1957618Y1009668D02*
X1958634Y1011700D01*
X1957618Y1013732D01*
X1959650Y1012716D01*
X1961682Y1013732D01*
X1960666Y1011700D01*
X1961682Y1009668D01*
X1959650Y1010684D01*
X1957618Y1009668D01*
Y1043668D02*
X1958634Y1045700D01*
X1957618Y1047732D01*
X1959650Y1046716D01*
X1961682Y1047732D01*
X1960666Y1045700D01*
X1961682Y1043668D01*
X1959650Y1044684D01*
X1957618Y1043668D01*
X1822918Y1009668D02*
X1823934Y1011700D01*
X1822918Y1013732D01*
X1824950Y1012716D01*
X1826982Y1013732D01*
X1825966Y1011700D01*
X1826982Y1009668D01*
X1824950Y1010684D01*
X1822918Y1009668D01*
Y1043668D02*
X1823934Y1045700D01*
X1822918Y1047732D01*
X1824950Y1046716D01*
X1826982Y1047732D01*
X1825966Y1045700D01*
X1826982Y1043668D01*
X1824950Y1044684D01*
X1822918Y1043668D01*
X1957618Y882668D02*
X1958634Y884700D01*
X1957618Y886732D01*
X1959650Y885716D01*
X1961682Y886732D01*
X1960666Y884700D01*
X1961682Y882668D01*
X1959650Y883684D01*
X1957618Y882668D01*
Y916668D02*
X1958634Y918700D01*
X1957618Y920732D01*
X1959650Y919716D01*
X1961682Y920732D01*
X1960666Y918700D01*
X1961682Y916668D01*
X1959650Y917684D01*
X1957618Y916668D01*
X1822918Y882668D02*
X1823934Y884700D01*
X1822918Y886732D01*
X1824950Y885716D01*
X1826982Y886732D01*
X1825966Y884700D01*
X1826982Y882668D01*
X1824950Y883684D01*
X1822918Y882668D01*
Y916668D02*
X1823934Y918700D01*
X1822918Y920732D01*
X1824950Y919716D01*
X1826982Y920732D01*
X1825966Y918700D01*
X1826982Y916668D01*
X1824950Y917684D01*
X1822918Y916668D01*
X1957618Y755668D02*
X1958634Y757700D01*
X1957618Y759732D01*
X1959650Y758716D01*
X1961682Y759732D01*
X1960666Y757700D01*
X1961682Y755668D01*
X1959650Y756684D01*
X1957618Y755668D01*
Y789668D02*
X1958634Y791700D01*
X1957618Y793732D01*
X1959650Y792716D01*
X1961682Y793732D01*
X1960666Y791700D01*
X1961682Y789668D01*
X1959650Y790684D01*
X1957618Y789668D01*
X1822918Y755668D02*
X1823934Y757700D01*
X1822918Y759732D01*
X1824950Y758716D01*
X1826982Y759732D01*
X1825966Y757700D01*
X1826982Y755668D01*
X1824950Y756684D01*
X1822918Y755668D01*
Y789668D02*
X1823934Y791700D01*
X1822918Y793732D01*
X1824950Y792716D01*
X1826982Y793732D01*
X1825966Y791700D01*
X1826982Y789668D01*
X1824950Y790684D01*
X1822918Y789668D01*
X1957618Y628668D02*
X1958634Y630700D01*
X1957618Y632732D01*
X1959650Y631716D01*
X1961682Y632732D01*
X1960666Y630700D01*
X1961682Y628668D01*
X1959650Y629684D01*
X1957618Y628668D01*
Y662668D02*
X1958634Y664700D01*
X1957618Y666732D01*
X1959650Y665716D01*
X1961682Y666732D01*
X1960666Y664700D01*
X1961682Y662668D01*
X1959650Y663684D01*
X1957618Y662668D01*
X1822918Y628668D02*
X1823934Y630700D01*
X1822918Y632732D01*
X1824950Y631716D01*
X1826982Y632732D01*
X1825966Y630700D01*
X1826982Y628668D01*
X1824950Y629684D01*
X1822918Y628668D01*
Y662668D02*
X1823934Y664700D01*
X1822918Y666732D01*
X1824950Y665716D01*
X1826982Y666732D01*
X1825966Y664700D01*
X1826982Y662668D01*
X1824950Y663684D01*
X1822918Y662668D01*
X1957618Y501668D02*
X1958634Y503700D01*
X1957618Y505732D01*
X1959650Y504716D01*
X1961682Y505732D01*
X1960666Y503700D01*
X1961682Y501668D01*
X1959650Y502684D01*
X1957618Y501668D01*
Y535668D02*
X1958634Y537700D01*
X1957618Y539732D01*
X1959650Y538716D01*
X1961682Y539732D01*
X1960666Y537700D01*
X1961682Y535668D01*
X1959650Y536684D01*
X1957618Y535668D01*
X1822918Y501668D02*
X1823934Y503700D01*
X1822918Y505732D01*
X1824950Y504716D01*
X1826982Y505732D01*
X1825966Y503700D01*
X1826982Y501668D01*
X1824950Y502684D01*
X1822918Y501668D01*
Y535668D02*
X1823934Y537700D01*
X1822918Y539732D01*
X1824950Y538716D01*
X1826982Y539732D01*
X1825966Y537700D01*
X1826982Y535668D01*
X1824950Y536684D01*
X1822918Y535668D01*
X1957618Y374668D02*
X1958634Y376700D01*
X1957618Y378732D01*
X1959650Y377716D01*
X1961682Y378732D01*
X1960666Y376700D01*
X1961682Y374668D01*
X1959650Y375684D01*
X1957618Y374668D01*
Y408668D02*
X1958634Y410700D01*
X1957618Y412732D01*
X1959650Y411716D01*
X1961682Y412732D01*
X1960666Y410700D01*
X1961682Y408668D01*
X1959650Y409684D01*
X1957618Y408668D01*
X1822918Y374668D02*
X1823934Y376700D01*
X1822918Y378732D01*
X1824950Y377716D01*
X1826982Y378732D01*
X1825966Y376700D01*
X1826982Y374668D01*
X1824950Y375684D01*
X1822918Y374668D01*
Y408668D02*
X1823934Y410700D01*
X1822918Y412732D01*
X1824950Y411716D01*
X1826982Y412732D01*
X1825966Y410700D01*
X1826982Y408668D01*
X1824950Y409684D01*
X1822918Y408668D01*
X1957618Y247668D02*
X1958634Y249700D01*
X1957618Y251732D01*
X1959650Y250716D01*
X1961682Y251732D01*
X1960666Y249700D01*
X1961682Y247668D01*
X1959650Y248684D01*
X1957618Y247668D01*
Y281668D02*
X1958634Y283700D01*
X1957618Y285732D01*
X1959650Y284716D01*
X1961682Y285732D01*
X1960666Y283700D01*
X1961682Y281668D01*
X1959650Y282684D01*
X1957618Y281668D01*
X1822918Y247668D02*
X1823934Y249700D01*
X1822918Y251732D01*
X1824950Y250716D01*
X1826982Y251732D01*
X1825966Y249700D01*
X1826982Y247668D01*
X1824950Y248684D01*
X1822918Y247668D01*
Y281668D02*
X1823934Y283700D01*
X1822918Y285732D01*
X1824950Y284716D01*
X1826982Y285732D01*
X1825966Y283700D01*
X1826982Y281668D01*
X1824950Y282684D01*
X1822918Y281668D01*
Y1297668D02*
X1823934Y1299700D01*
X1822918Y1301732D01*
X1824950Y1300716D01*
X1826982Y1301732D01*
X1825966Y1299700D01*
X1826982Y1297668D01*
X1824950Y1298684D01*
X1822918Y1297668D01*
Y1263668D02*
X1823934Y1265700D01*
X1822918Y1267732D01*
X1824950Y1266716D01*
X1826982Y1267732D01*
X1825966Y1265700D01*
X1826982Y1263668D01*
X1824950Y1264684D01*
X1822918Y1263668D01*
X1957618Y1297668D02*
X1958634Y1299700D01*
X1957618Y1301732D01*
X1959650Y1300716D01*
X1961682Y1301732D01*
X1960666Y1299700D01*
X1961682Y1297668D01*
X1959650Y1298684D01*
X1957618Y1297668D01*
Y1263668D02*
X1958634Y1265700D01*
X1957618Y1267732D01*
X1959650Y1266716D01*
X1961682Y1267732D01*
X1960666Y1265700D01*
X1961682Y1263668D01*
X1959650Y1264684D01*
X1957618Y1263668D01*
X1654184Y1294384D02*
Y1293368D01*
X1656216D01*
Y1294384D01*
X1657232D01*
Y1296416D01*
X1656216D01*
Y1297432D01*
X1654184D01*
Y1296416D01*
X1653168D01*
Y1294384D01*
X1654184D01*
X1544184D02*
Y1293368D01*
X1546216D01*
Y1294384D01*
X1547232D01*
Y1296416D01*
X1546216D01*
Y1297432D01*
X1544184D01*
Y1296416D01*
X1543168D01*
Y1294384D01*
X1544184D01*
X1521968Y1394968D02*
X1522984D01*
X1524000Y1395984D01*
X1525016Y1394968D01*
X1526032D01*
Y1395984D01*
X1525016Y1397000D01*
X1526032Y1398016D01*
Y1399032D01*
X1525016D01*
X1524000Y1398016D01*
X1522984Y1399032D01*
X1521968D01*
Y1398016D01*
X1522984Y1397000D01*
X1521968Y1395984D01*
Y1394968D01*
X1979168D02*
X1980184D01*
X1981200Y1395984D01*
X1982216Y1394968D01*
X1983232D01*
Y1395984D01*
X1982216Y1397000D01*
X1983232Y1398016D01*
Y1399032D01*
X1982216D01*
X1981200Y1398016D01*
X1980184Y1399032D01*
X1979168D01*
Y1398016D01*
X1980184Y1397000D01*
X1979168Y1395984D01*
Y1394968D01*
Y150368D02*
X1980184D01*
X1981200Y151384D01*
X1982216Y150368D01*
X1983232D01*
Y151384D01*
X1982216Y152400D01*
X1983232Y153416D01*
Y154432D01*
X1982216D01*
X1981200Y153416D01*
X1980184Y154432D01*
X1979168D01*
Y153416D01*
X1980184Y152400D01*
X1979168Y151384D01*
Y150368D01*
X1521968D02*
X1522984D01*
X1524000Y151384D01*
X1525016Y150368D01*
X1526032D01*
Y151384D01*
X1525016Y152400D01*
X1526032Y153416D01*
Y154432D01*
X1525016D01*
X1524000Y153416D01*
X1522984Y154432D01*
X1521968D01*
Y153416D01*
X1522984Y152400D01*
X1521968Y151384D01*
Y150368D01*
X2004568Y215900D02*
X2006600Y217932D01*
X2008632Y215900D01*
X2006600Y213868D01*
X2004568Y215900D01*
Y342900D02*
X2006600Y344932D01*
X2008632Y342900D01*
X2006600Y340868D01*
X2004568Y342900D01*
Y469900D02*
X2006600Y471932D01*
X2008632Y469900D01*
X2006600Y467868D01*
X2004568Y469900D01*
Y596900D02*
X2006600Y598932D01*
X2008632Y596900D01*
X2006600Y594868D01*
X2004568Y596900D01*
Y723900D02*
X2006600Y725932D01*
X2008632Y723900D01*
X2006600Y721868D01*
X2004568Y723900D01*
Y850900D02*
X2006600Y852932D01*
X2008632Y850900D01*
X2006600Y848868D01*
X2004568Y850900D01*
Y977900D02*
X2006600Y979932D01*
X2008632Y977900D01*
X2006600Y975868D01*
X2004568Y977900D01*
Y1104900D02*
X2006600Y1106932D01*
X2008632Y1104900D01*
X2006600Y1102868D01*
X2004568Y1104900D01*
Y1231900D02*
X2006600Y1233932D01*
X2008632Y1231900D01*
X2006600Y1229868D01*
X2004568Y1231900D01*
Y1333500D02*
X2006600Y1335532D01*
X2008632Y1333500D01*
X2006600Y1331468D01*
X2004568Y1333500D01*
D53*
X101092Y2484120D02*
G03*
X101092Y2484120I-2032J0D01*
G01*
Y2476500D02*
G03*
X101092Y2476500I-2032J0D01*
G01*
Y2468880D02*
G03*
X101092Y2468880I-2032J0D01*
G01*
Y2461260D02*
G03*
X101092Y2461260I-2032J0D01*
G01*
Y2453640D02*
G03*
X101092Y2453640I-2032J0D01*
G01*
X62992Y2415540D02*
G03*
X62992Y2415540I-2032J0D01*
G01*
X55372D02*
G03*
X55372Y2415540I-2032J0D01*
G01*
X47752D02*
G03*
X47752Y2415540I-2032J0D01*
G01*
X40132D02*
G03*
X40132Y2415540I-2032J0D01*
G01*
X32512D02*
G03*
X32512Y2415540I-2032J0D01*
G01*
X24892D02*
G03*
X24892Y2415540I-2032J0D01*
G01*
X17272D02*
G03*
X17272Y2415540I-2032J0D01*
G01*
X1452372Y2453640D02*
G03*
X1452372Y2453640I-2032J0D01*
G01*
Y2461260D02*
G03*
X1452372Y2461260I-2032J0D01*
G01*
Y2468880D02*
G03*
X1452372Y2468880I-2032J0D01*
G01*
Y2476500D02*
G03*
X1452372Y2476500I-2032J0D01*
G01*
Y2484120D02*
G03*
X1452372Y2484120I-2032J0D01*
G01*
X1028192Y2415540D02*
G03*
X1028192Y2415540I-2032J0D01*
G01*
X1020572D02*
G03*
X1020572Y2415540I-2032J0D01*
G01*
X1012952D02*
G03*
X1012952Y2415540I-2032J0D01*
G01*
X1005332D02*
G03*
X1005332Y2415540I-2032J0D01*
G01*
X997712D02*
G03*
X997712Y2415540I-2032J0D01*
G01*
X990092D02*
G03*
X990092Y2415540I-2032J0D01*
G01*
X982472D02*
G03*
X982472Y2415540I-2032J0D01*
G01*
X512572D02*
G03*
X512572Y2415540I-2032J0D01*
G01*
X520192D02*
G03*
X520192Y2415540I-2032J0D01*
G01*
X527812D02*
G03*
X527812Y2415540I-2032J0D01*
G01*
X535432D02*
G03*
X535432Y2415540I-2032J0D01*
G01*
X543052D02*
G03*
X543052Y2415540I-2032J0D01*
G01*
X550672D02*
G03*
X550672Y2415540I-2032J0D01*
G01*
X558292D02*
G03*
X558292Y2415540I-2032J0D01*
G01*
X2120392Y1450340D02*
G03*
X2120392Y1450340I-2032J0D01*
G01*
X2112772D02*
G03*
X2112772Y1450340I-2032J0D01*
G01*
X2105152D02*
G03*
X2105152Y1450340I-2032J0D01*
G01*
X2097532D02*
G03*
X2097532Y1450340I-2032J0D01*
G01*
X2089912D02*
G03*
X2089912Y1450340I-2032J0D01*
G01*
X2082292D02*
G03*
X2082292Y1450340I-2032J0D01*
G01*
X2074672D02*
G03*
X2074672Y1450340I-2032J0D01*
G01*
X2120392Y99060D02*
G03*
X2120392Y99060I-2032J0D01*
G01*
X2112772D02*
G03*
X2112772Y99060I-2032J0D01*
G01*
X2105152D02*
G03*
X2105152Y99060I-2032J0D01*
G01*
X2097532D02*
G03*
X2097532Y99060I-2032J0D01*
G01*
X2089912D02*
G03*
X2089912Y99060I-2032J0D01*
G01*
X2082292D02*
G03*
X2082292Y99060I-2032J0D01*
G01*
X2074672D02*
G03*
X2074672Y99060I-2032J0D01*
G01*
X1731772Y1450340D02*
G03*
X1731772Y1450340I-2032J0D01*
G01*
X1739392D02*
G03*
X1739392Y1450340I-2032J0D01*
G01*
X1747012D02*
G03*
X1747012Y1450340I-2032J0D01*
G01*
X1754632D02*
G03*
X1754632Y1450340I-2032J0D01*
G01*
X1762252D02*
G03*
X1762252Y1450340I-2032J0D01*
G01*
X1769872D02*
G03*
X1769872Y1450340I-2032J0D01*
G01*
X1777492D02*
G03*
X1777492Y1450340I-2032J0D01*
G01*
X1731772Y1470660D02*
G03*
X1731772Y1470660I-2032J0D01*
G01*
X1739392D02*
G03*
X1739392Y1470660I-2032J0D01*
G01*
X1747012D02*
G03*
X1747012Y1470660I-2032J0D01*
G01*
X1754632D02*
G03*
X1754632Y1470660I-2032J0D01*
G01*
X1762252D02*
G03*
X1762252Y1470660I-2032J0D01*
G01*
X1769872D02*
G03*
X1769872Y1470660I-2032J0D01*
G01*
X1777492D02*
G03*
X1777492Y1470660I-2032J0D01*
G01*
X2036572Y60960D02*
G03*
X2036572Y60960I-2032J0D01*
G01*
Y53340D02*
G03*
X2036572Y53340I-2032J0D01*
G01*
Y45720D02*
G03*
X2036572Y45720I-2032J0D01*
G01*
Y38100D02*
G03*
X2036572Y38100I-2032J0D01*
G01*
Y30480D02*
G03*
X2036572Y30480I-2032J0D01*
G01*
Y22860D02*
G03*
X2036572Y22860I-2032J0D01*
G01*
Y15240D02*
G03*
X2036572Y15240I-2032J0D01*
G01*
X101092Y2110740D02*
G03*
X101092Y2110740I-2032J0D01*
G01*
Y2141220D02*
G03*
X101092Y2141220I-2032J0D01*
G01*
Y2133600D02*
G03*
X101092Y2133600I-2032J0D01*
G01*
Y2125980D02*
G03*
X101092Y2125980I-2032J0D01*
G01*
Y2156460D02*
G03*
X101092Y2156460I-2032J0D01*
G01*
Y2148840D02*
G03*
X101092Y2148840I-2032J0D01*
G01*
Y2118360D02*
G03*
X101092Y2118360I-2032J0D01*
G01*
X1452372Y2156460D02*
G03*
X1452372Y2156460I-2032J0D01*
G01*
Y2148840D02*
G03*
X1452372Y2148840I-2032J0D01*
G01*
Y2141220D02*
G03*
X1452372Y2141220I-2032J0D01*
G01*
Y2133600D02*
G03*
X1452372Y2133600I-2032J0D01*
G01*
Y2125980D02*
G03*
X1452372Y2125980I-2032J0D01*
G01*
Y2118360D02*
G03*
X1452372Y2118360I-2032J0D01*
G01*
Y2110740D02*
G03*
X1452372Y2110740I-2032J0D01*
G01*
Y1572260D02*
G03*
X1452372Y1572260I-2032J0D01*
G01*
Y1564640D02*
G03*
X1452372Y1564640I-2032J0D01*
G01*
Y1557020D02*
G03*
X1452372Y1557020I-2032J0D01*
G01*
Y1549400D02*
G03*
X1452372Y1549400I-2032J0D01*
G01*
Y1541780D02*
G03*
X1452372Y1541780I-2032J0D01*
G01*
Y1534160D02*
G03*
X1452372Y1534160I-2032J0D01*
G01*
Y1526540D02*
G03*
X1452372Y1526540I-2032J0D01*
G01*
X1472692Y942340D02*
G03*
X1472692Y942340I-2032J0D01*
G01*
Y949960D02*
G03*
X1472692Y949960I-2032J0D01*
G01*
Y957580D02*
G03*
X1472692Y957580I-2032J0D01*
G01*
Y965200D02*
G03*
X1472692Y965200I-2032J0D01*
G01*
Y972820D02*
G03*
X1472692Y972820I-2032J0D01*
G01*
Y980440D02*
G03*
X1472692Y980440I-2032J0D01*
G01*
Y988060D02*
G03*
X1472692Y988060I-2032J0D01*
G01*
X1452372Y942340D02*
G03*
X1452372Y942340I-2032J0D01*
G01*
Y949960D02*
G03*
X1452372Y949960I-2032J0D01*
G01*
Y957580D02*
G03*
X1452372Y957580I-2032J0D01*
G01*
Y965200D02*
G03*
X1452372Y965200I-2032J0D01*
G01*
Y972820D02*
G03*
X1452372Y972820I-2032J0D01*
G01*
Y980440D02*
G03*
X1452372Y980440I-2032J0D01*
G01*
Y988060D02*
G03*
X1452372Y988060I-2032J0D01*
G01*
X558292Y1851660D02*
G03*
X558292Y1851660I-2032J0D01*
G01*
X550672D02*
G03*
X550672Y1851660I-2032J0D01*
G01*
X543052D02*
G03*
X543052Y1851660I-2032J0D01*
G01*
X535432D02*
G03*
X535432Y1851660I-2032J0D01*
G01*
X527812D02*
G03*
X527812Y1851660I-2032J0D01*
G01*
X520192D02*
G03*
X520192Y1851660I-2032J0D01*
G01*
X512572D02*
G03*
X512572Y1851660I-2032J0D01*
G01*
X558292Y1831340D02*
G03*
X558292Y1831340I-2032J0D01*
G01*
X550672D02*
G03*
X550672Y1831340I-2032J0D01*
G01*
X543052D02*
G03*
X543052Y1831340I-2032J0D01*
G01*
X535432D02*
G03*
X535432Y1831340I-2032J0D01*
G01*
X527812D02*
G03*
X527812Y1831340I-2032J0D01*
G01*
X520192D02*
G03*
X520192Y1831340I-2032J0D01*
G01*
X512572D02*
G03*
X512572Y1831340I-2032J0D01*
G01*
X982472D02*
G03*
X982472Y1831340I-2032J0D01*
G01*
X990092D02*
G03*
X990092Y1831340I-2032J0D01*
G01*
X997712D02*
G03*
X997712Y1831340I-2032J0D01*
G01*
X1005332D02*
G03*
X1005332Y1831340I-2032J0D01*
G01*
X1012952D02*
G03*
X1012952Y1831340I-2032J0D01*
G01*
X1020572D02*
G03*
X1020572Y1831340I-2032J0D01*
G01*
X1028192D02*
G03*
X1028192Y1831340I-2032J0D01*
G01*
X982472Y1851660D02*
G03*
X982472Y1851660I-2032J0D01*
G01*
X990092D02*
G03*
X990092Y1851660I-2032J0D01*
G01*
X997712D02*
G03*
X997712Y1851660I-2032J0D01*
G01*
X1005332D02*
G03*
X1005332Y1851660I-2032J0D01*
G01*
X1012952D02*
G03*
X1012952Y1851660I-2032J0D01*
G01*
X1020572D02*
G03*
X1020572Y1851660I-2032J0D01*
G01*
X1028192D02*
G03*
X1028192Y1851660I-2032J0D01*
G01*
X558292Y1267460D02*
G03*
X558292Y1267460I-2032J0D01*
G01*
X550672D02*
G03*
X550672Y1267460I-2032J0D01*
G01*
X543052D02*
G03*
X543052Y1267460I-2032J0D01*
G01*
X535432D02*
G03*
X535432Y1267460I-2032J0D01*
G01*
X527812D02*
G03*
X527812Y1267460I-2032J0D01*
G01*
X520192D02*
G03*
X520192Y1267460I-2032J0D01*
G01*
X512572D02*
G03*
X512572Y1267460I-2032J0D01*
G01*
X558292Y1247140D02*
G03*
X558292Y1247140I-2032J0D01*
G01*
X550672D02*
G03*
X550672Y1247140I-2032J0D01*
G01*
X543052D02*
G03*
X543052Y1247140I-2032J0D01*
G01*
X535432D02*
G03*
X535432Y1247140I-2032J0D01*
G01*
X527812D02*
G03*
X527812Y1247140I-2032J0D01*
G01*
X520192D02*
G03*
X520192Y1247140I-2032J0D01*
G01*
X512572D02*
G03*
X512572Y1247140I-2032J0D01*
G01*
X982472D02*
G03*
X982472Y1247140I-2032J0D01*
G01*
X990092D02*
G03*
X990092Y1247140I-2032J0D01*
G01*
X997712D02*
G03*
X997712Y1247140I-2032J0D01*
G01*
X1005332D02*
G03*
X1005332Y1247140I-2032J0D01*
G01*
X1012952D02*
G03*
X1012952Y1247140I-2032J0D01*
G01*
X1020572D02*
G03*
X1020572Y1247140I-2032J0D01*
G01*
X1028192D02*
G03*
X1028192Y1247140I-2032J0D01*
G01*
X982472Y1267460D02*
G03*
X982472Y1267460I-2032J0D01*
G01*
X990092D02*
G03*
X990092Y1267460I-2032J0D01*
G01*
X997712D02*
G03*
X997712Y1267460I-2032J0D01*
G01*
X1005332D02*
G03*
X1005332Y1267460I-2032J0D01*
G01*
X1012952D02*
G03*
X1012952Y1267460I-2032J0D01*
G01*
X1020572D02*
G03*
X1020572Y1267460I-2032J0D01*
G01*
X1028192D02*
G03*
X1028192Y1267460I-2032J0D01*
G01*
X101092Y1534160D02*
G03*
X101092Y1534160I-2032J0D01*
G01*
Y1564640D02*
G03*
X101092Y1564640I-2032J0D01*
G01*
Y1572260D02*
G03*
X101092Y1572260I-2032J0D01*
G01*
Y1541780D02*
G03*
X101092Y1541780I-2032J0D01*
G01*
Y1549400D02*
G03*
X101092Y1549400I-2032J0D01*
G01*
Y1557020D02*
G03*
X101092Y1557020I-2032J0D01*
G01*
Y1526540D02*
G03*
X101092Y1526540I-2032J0D01*
G01*
X101092Y942340D02*
G03*
X101092Y942340I-2032J0D01*
G01*
Y972820D02*
G03*
X101092Y972820I-2032J0D01*
G01*
Y965200D02*
G03*
X101092Y965200I-2032J0D01*
G01*
Y957580D02*
G03*
X101092Y957580I-2032J0D01*
G01*
Y988060D02*
G03*
X101092Y988060I-2032J0D01*
G01*
Y980440D02*
G03*
X101092Y980440I-2032J0D01*
G01*
Y949960D02*
G03*
X101092Y949960I-2032J0D01*
G01*
Y365760D02*
G03*
X101092Y365760I-2032J0D01*
G01*
Y396240D02*
G03*
X101092Y396240I-2032J0D01*
G01*
Y403860D02*
G03*
X101092Y403860I-2032J0D01*
G01*
Y373380D02*
G03*
X101092Y373380I-2032J0D01*
G01*
Y381000D02*
G03*
X101092Y381000I-2032J0D01*
G01*
Y388620D02*
G03*
X101092Y388620I-2032J0D01*
G01*
X2036572Y1272540D02*
G03*
X2036572Y1272540I-2032J0D01*
G01*
Y1280160D02*
G03*
X2036572Y1280160I-2032J0D01*
G01*
Y1287780D02*
G03*
X2036572Y1287780I-2032J0D01*
G01*
Y1295400D02*
G03*
X2036572Y1295400I-2032J0D01*
G01*
Y1303020D02*
G03*
X2036572Y1303020I-2032J0D01*
G01*
Y1310640D02*
G03*
X2036572Y1310640I-2032J0D01*
G01*
Y1318260D02*
G03*
X2036572Y1318260I-2032J0D01*
G01*
Y789940D02*
G03*
X2036572Y789940I-2032J0D01*
G01*
Y797560D02*
G03*
X2036572Y797560I-2032J0D01*
G01*
Y805180D02*
G03*
X2036572Y805180I-2032J0D01*
G01*
Y812800D02*
G03*
X2036572Y812800I-2032J0D01*
G01*
Y820420D02*
G03*
X2036572Y820420I-2032J0D01*
G01*
Y828040D02*
G03*
X2036572Y828040I-2032J0D01*
G01*
Y835660D02*
G03*
X2036572Y835660I-2032J0D01*
G01*
Y307340D02*
G03*
X2036572Y307340I-2032J0D01*
G01*
Y314960D02*
G03*
X2036572Y314960I-2032J0D01*
G01*
Y322580D02*
G03*
X2036572Y322580I-2032J0D01*
G01*
Y330200D02*
G03*
X2036572Y330200I-2032J0D01*
G01*
Y337820D02*
G03*
X2036572Y337820I-2032J0D01*
G01*
Y345440D02*
G03*
X2036572Y345440I-2032J0D01*
G01*
Y353060D02*
G03*
X2036572Y353060I-2032J0D01*
G01*
X1731772Y99060D02*
G03*
X1731772Y99060I-2032J0D01*
G01*
X1739392D02*
G03*
X1739392Y99060I-2032J0D01*
G01*
X1747012D02*
G03*
X1747012Y99060I-2032J0D01*
G01*
X1754632D02*
G03*
X1754632Y99060I-2032J0D01*
G01*
X1762252D02*
G03*
X1762252Y99060I-2032J0D01*
G01*
X1769872D02*
G03*
X1769872Y99060I-2032J0D01*
G01*
X1777492D02*
G03*
X1777492Y99060I-2032J0D01*
G01*
X1452372Y403860D02*
G03*
X1452372Y403860I-2032J0D01*
G01*
Y396240D02*
G03*
X1452372Y396240I-2032J0D01*
G01*
Y388620D02*
G03*
X1452372Y388620I-2032J0D01*
G01*
Y381000D02*
G03*
X1452372Y381000I-2032J0D01*
G01*
Y373380D02*
G03*
X1452372Y373380I-2032J0D01*
G01*
Y365760D02*
G03*
X1452372Y365760I-2032J0D01*
G01*
Y358140D02*
G03*
X1452372Y358140I-2032J0D01*
G01*
X1472692Y403860D02*
G03*
X1472692Y403860I-2032J0D01*
G01*
Y396240D02*
G03*
X1472692Y396240I-2032J0D01*
G01*
Y388620D02*
G03*
X1472692Y388620I-2032J0D01*
G01*
Y381000D02*
G03*
X1472692Y381000I-2032J0D01*
G01*
Y373380D02*
G03*
X1472692Y373380I-2032J0D01*
G01*
Y365760D02*
G03*
X1472692Y365760I-2032J0D01*
G01*
Y358140D02*
G03*
X1472692Y358140I-2032J0D01*
G01*
X1452372Y15240D02*
G03*
X1452372Y15240I-2032J0D01*
G01*
Y22860D02*
G03*
X1452372Y22860I-2032J0D01*
G01*
Y30480D02*
G03*
X1452372Y30480I-2032J0D01*
G01*
Y38100D02*
G03*
X1452372Y38100I-2032J0D01*
G01*
Y45720D02*
G03*
X1452372Y45720I-2032J0D01*
G01*
Y53340D02*
G03*
X1452372Y53340I-2032J0D01*
G01*
Y60960D02*
G03*
X1452372Y60960I-2032J0D01*
G01*
X101092Y15240D02*
G03*
X101092Y15240I-2032J0D01*
G01*
Y22860D02*
G03*
X101092Y22860I-2032J0D01*
G01*
Y30480D02*
G03*
X101092Y30480I-2032J0D01*
G01*
Y38100D02*
G03*
X101092Y38100I-2032J0D01*
G01*
Y45720D02*
G03*
X101092Y45720I-2032J0D01*
G01*
Y53340D02*
G03*
X101092Y53340I-2032J0D01*
G01*
Y60960D02*
G03*
X101092Y60960I-2032J0D01*
G01*
X17272Y99060D02*
G03*
X17272Y99060I-2032J0D01*
G01*
X24892D02*
G03*
X24892Y99060I-2032J0D01*
G01*
X32512D02*
G03*
X32512Y99060I-2032J0D01*
G01*
X40132D02*
G03*
X40132Y99060I-2032J0D01*
G01*
X47752D02*
G03*
X47752Y99060I-2032J0D01*
G01*
X55372D02*
G03*
X55372Y99060I-2032J0D01*
G01*
X62992D02*
G03*
X62992Y99060I-2032J0D01*
G01*
X1028192Y683260D02*
G03*
X1028192Y683260I-2032J0D01*
G01*
X1020572D02*
G03*
X1020572Y683260I-2032J0D01*
G01*
X1012952D02*
G03*
X1012952Y683260I-2032J0D01*
G01*
X1005332D02*
G03*
X1005332Y683260I-2032J0D01*
G01*
X997712D02*
G03*
X997712Y683260I-2032J0D01*
G01*
X990092D02*
G03*
X990092Y683260I-2032J0D01*
G01*
X982472D02*
G03*
X982472Y683260I-2032J0D01*
G01*
X1028192Y662940D02*
G03*
X1028192Y662940I-2032J0D01*
G01*
X1020572D02*
G03*
X1020572Y662940I-2032J0D01*
G01*
X1012952D02*
G03*
X1012952Y662940I-2032J0D01*
G01*
X1005332D02*
G03*
X1005332Y662940I-2032J0D01*
G01*
X997712D02*
G03*
X997712Y662940I-2032J0D01*
G01*
X990092D02*
G03*
X990092Y662940I-2032J0D01*
G01*
X982472D02*
G03*
X982472Y662940I-2032J0D01*
G01*
X512572D02*
G03*
X512572Y662940I-2032J0D01*
G01*
X520192D02*
G03*
X520192Y662940I-2032J0D01*
G01*
X527812D02*
G03*
X527812Y662940I-2032J0D01*
G01*
X535432D02*
G03*
X535432Y662940I-2032J0D01*
G01*
X543052D02*
G03*
X543052Y662940I-2032J0D01*
G01*
X550672D02*
G03*
X550672Y662940I-2032J0D01*
G01*
X558292D02*
G03*
X558292Y662940I-2032J0D01*
G01*
X512572Y683260D02*
G03*
X512572Y683260I-2032J0D01*
G01*
X520192D02*
G03*
X520192Y683260I-2032J0D01*
G01*
X527812D02*
G03*
X527812Y683260I-2032J0D01*
G01*
X535432D02*
G03*
X535432Y683260I-2032J0D01*
G01*
X543052D02*
G03*
X543052Y683260I-2032J0D01*
G01*
X550672D02*
G03*
X550672Y683260I-2032J0D01*
G01*
X558292D02*
G03*
X558292Y683260I-2032J0D01*
G01*
X1028192Y99060D02*
G03*
X1028192Y99060I-2032J0D01*
G01*
X1020572D02*
G03*
X1020572Y99060I-2032J0D01*
G01*
X1012952D02*
G03*
X1012952Y99060I-2032J0D01*
G01*
X1005332D02*
G03*
X1005332Y99060I-2032J0D01*
G01*
X997712D02*
G03*
X997712Y99060I-2032J0D01*
G01*
X990092D02*
G03*
X990092Y99060I-2032J0D01*
G01*
X982472D02*
G03*
X982472Y99060I-2032J0D01*
G01*
X558292D02*
G03*
X558292Y99060I-2032J0D01*
G01*
X550672D02*
G03*
X550672Y99060I-2032J0D01*
G01*
X543052D02*
G03*
X543052Y99060I-2032J0D01*
G01*
X535432D02*
G03*
X535432Y99060I-2032J0D01*
G01*
X527812D02*
G03*
X527812Y99060I-2032J0D01*
G01*
X520192D02*
G03*
X520192Y99060I-2032J0D01*
G01*
X512572D02*
G03*
X512572Y99060I-2032J0D01*
G01*
X101092Y358140D02*
G03*
X101092Y358140I-2032J0D01*
G01*
M02*
