M48
;Layer_Color=9474304
;FILE_FORMAT=4:4
METRIC,LZ
;TYPE=PLATED
T1F00S00C0.5080
T2F00S00C0.7112
T4F00S00C1.6000
T5F00S00C3.0000
T6F00S00C4.0000
T7F00S00C4.4450
T8F00S00C5.7000
%
T01
X0009906Y0001524
Y0002286
Y0003048
Y000381
Y0004572
Y0005334
Y0006096
X0006096Y0009906
X0005334
X0004572
X000381
X0003048
X0002286
X0001524
X0051054
X0051816
X0052578
X005334
X0054102
X0054864
X0055626
X0098044
X0098806
X0099568
X010033
X0101092
X0101854
X0102616
X0145034Y0006096
Y0005334
Y0004572
Y000381
Y0003048
Y0002286
Y0001524
X0172974Y0009906
X0173736
X0174498
X017526
X0176022
X0176784
X0177546
X0207264
X0208026
X0208788
X020955
X0210312
X0211074
X0211836
X0203454Y0006096
Y0005334
Y0004572
Y000381
Y0003048
Y0002286
Y0001524
Y0030734
Y0031496
Y0032258
Y003302
Y0033782
Y0034544
Y0035306
X0147066Y0035814
Y0036576
Y0037338
Y00381
Y0038862
Y0039624
Y0040386
X0145034
Y0039624
Y0038862
Y00381
Y0037338
Y0036576
Y0035814
X0009906
Y0036576
Y0037338
Y00381
Y0038862
Y0039624
Y0040386
X0051054Y0066294
X0051816
X0052578
X005334
Y0068326
X0052578
X0051816
X0051054
X0054102
X0054864
X0055626
Y0066294
X0054864
X0054102
X0098044
X0098806
X0099568
X010033
X0101092
X0101854
X0102616
Y0068326
X0101854
X0101092
X010033
X0099568
X0098806
X0098044
X0203454Y0078994
Y0079756
Y0080518
Y008128
Y0082042
Y0082804
Y0083566
Y0127254
Y0128016
Y0128778
Y012954
Y0130302
Y0131064
Y0131826
X0147066Y0098806
Y0098044
Y0097282
Y009652
Y0095758
Y0094996
Y0094234
X0145034
Y0094996
Y0095758
Y009652
Y0097282
Y0098044
Y0098806
X0102616Y0124714
X0101854
X0101092
X010033
X0099568
X0098806
X0098044
Y0126746
X0098806
X0099568
X010033
X0101092
X0101854
X0102616
X0055626
X0054864
X0054102
Y0124714
X0054864
X0055626
X005334
X0052578
X0051816
X0051054
Y0126746
X0051816
X0052578
X005334
X0009906Y0098806
Y0098044
Y0097282
Y009652
Y0095758
Y0094996
Y0094234
X0009906Y0152654
Y0153416
Y0154178
Y015494
Y0155702
Y0156464
Y0157226
X0145034
Y0156464
Y0155702
Y015494
Y0154178
Y0153416
Y0152654
X0172974Y0147066
Y0145034
X0173736
X0174498
X017526
X0176022
X0176784
X0177546
Y0147066
X0176784
X0176022
X017526
X0174498
X0173736
X0207264Y0145034
X0208026
X0208788
X020955
X0210312
X0211074
X0211836
X0145034Y0211074
Y0211836
Y0212598
X0102616Y0185166
X0101854
X0101092
X010033
X0099568
X0098806
X0098044
Y0183134
X0098806
X0099568
X010033
X0101092
X0101854
X0102616
X0055626
X0054864
X0054102
Y0185166
X0054864
X0055626
X005334
X0052578
X0051816
X0051054
Y0183134
X0051816
X0052578
X005334
X0009906Y0211074
Y0211836
Y0212598
Y021336
Y0214122
Y0214884
Y0215646
Y0245364
Y0246126
Y0246888
Y024765
Y0248412
X0006096Y0241554
X0005334
X0004572
X000381
X0003048
X0002286
X0001524
X0051054
X0051816
X0052578
X005334
X0054102
X0054864
X0055626
X0098044
X0098806
X0099568
X010033
X0101092
X0101854
X0102616
X0145034Y0245364
Y0246126
Y0246888
Y024765
Y0248412
Y0215646
Y0214884
Y0214122
Y021336
T02
X020066Y002159
Y003429
Y004699
X004437Y0063452
X003167
X002151
X005707
X006977
X008247
X009517
X010787
X012057
X013327
X020066Y005969
Y007239
Y008509
Y009779
Y011049
Y012319
X013327Y0121872
X012057
X010787
X009517
X008247
X006977
X005707
X004437
X003167
X002151
X020066Y013335
X013327Y0180292
X012057
X010787
X009517
X008247
X006977
X005707
X004437
X003167
X002151
Y0238712
X003167
X004437
X005707
X006977
X008247
X009517
X010787
X012057
X013327
T04
X0182495Y002497
Y002837
Y003767
Y004107
Y005037
Y005377
X0195965
Y005037
Y004107
Y003767
Y002837
Y002497
X012989Y0045287
X012649
X011719
X011379
X010449
X010109
X009179
X008839
X007909
X007569
X006639
X006299
X005369
X005029
X004099
X003759
X002829
X002489
Y0058757
X002829
X003759
X004099
X005029
X005369
X006299
X006639
X007569
X007909
X008839
X009179
X010109
X010449
X011379
X011719
X012649
X012989
X0182495Y006307
Y006647
Y007577
Y007917
Y008847
Y009187
X0195965
Y008847
Y007917
Y007577
Y006647
Y006307
Y010117
Y010457
Y011387
Y011727
Y012657
Y012997
X0182495
Y012657
Y011727
Y011387
Y010457
Y010117
X012989Y0103707
X012649
X011719
X011379
X010449
X010109
Y0117177
X010449
X011379
X011719
X012649
X012989
X009179
X008839
X007909
X007569
X006639
X006299
Y0103707
X006639
X007569
X007909
X008839
X009179
X005369
X005029
X004099
X003759
X002829
X002489
Y0117177
X002829
X003759
X004099
X005029
X005369
Y0162127
X005029
X004099
X003759
X002829
X002489
X006299
X006639
X007569
X007909
X008839
X009179
X010109
X010449
X011379
X011719
X012649
X012989
Y0175597
X012649
X011719
X011379
X010449
X010109
X009179
X008839
X007909
X007569
X006639
X006299
X005369
X005029
X004099
X003759
X002829
X002489
Y0220547
X002829
X003759
X004099
X005029
X005369
Y0234017
X005029
X004099
X003759
X002829
X002489
X006299
X006639
X007569
X007909
X008839
X009179
Y0220547
X008839
X007909
X007569
X006639
X006299
X010109
X010449
X011379
X011719
X012649
X012989
Y0234017
X012649
X011719
X011379
X010449
X010109
T05
X000381Y000381
X020955
X000381Y024638
X020955
T06
X019812Y001524
X01524
X013962Y0015192
X001516
Y0060912
Y0073612
X013962
Y0060912
Y0119332
Y0132032
X001516
Y0119332
X01524Y01397
X019812
X013962Y0177752
Y0190452
X001516
Y0177752
Y0236172
X013962
T07
X015388Y002667
X016108
Y003937
X015388
Y005207
X016108
X012819Y0023872
Y0016672
X011549
Y0023872
X010279
Y0016672
X009009
Y0023872
X007739
Y0016672
X006469
Y0023872
X005199
Y0016672
X003929
Y0023872
Y0075092
Y0082292
X005199
Y0075092
X006469
Y0082292
X007739
Y0075092
X009009
Y0082292
X010279
Y0075092
X011549
Y0082292
X012819
Y0075092
X015388Y007747
X016108
Y006477
X015388
Y009017
X016108
Y010287
X015388
Y011557
X016108
X005199Y0133512
Y0140712
X003929
Y0133512
X006469
Y0140712
X007739
Y0133512
X009009
Y0140712
X010279
Y0133512
X011549
Y0140712
X012819
Y0133512
Y0191932
Y0199132
X011549
Y0191932
X010279
Y0199132
X009009
Y0191932
X007739
Y0199132
X006469
Y0191932
X005199
Y0199132
X003929
Y0191932
T08
X002532Y0017312
Y0028312
Y0075732
Y0086732
X015452Y012954
X016552
X002532Y0134152
Y0145152
Y0192572
Y0203572
M30
