G04*
G04 #@! TF.GenerationSoftware,Altium Limited,Altium Designer,22.0.2 (36)*
G04*
G04 Layer_Color=255*
%FSLAX44Y44*%
%MOMM*%
G71*
G04*
G04 #@! TF.SameCoordinates,A2EA2B81-71FB-41A7-B433-9E60F2C241B4*
G04*
G04*
G04 #@! TF.FilePolarity,Positive*
G04*
G01*
G75*
%ADD18R,5.4610X5.4610*%
%ADD19C,5.4610*%
%ADD20O,1.5000X3.0000*%
%ADD21C,2.4000*%
%ADD22C,7.0000*%
%ADD23R,7.0000X7.0000*%
%ADD24C,6.0000*%
%ADD26R,5.4610X5.4610*%
%ADD27O,3.0000X1.5000*%
%ADD28R,7.0000X7.0000*%
D18*
X392900Y166720D02*
D03*
X519900D02*
D03*
X773900D02*
D03*
X1027900D02*
D03*
X1281900D02*
D03*
X900900D02*
D03*
X1154900D02*
D03*
X646900D02*
D03*
X392900Y750920D02*
D03*
X519900D02*
D03*
X773900D02*
D03*
X1027900D02*
D03*
X1281900D02*
D03*
X900900D02*
D03*
X1154900D02*
D03*
X646900D02*
D03*
X392900Y1335120D02*
D03*
X519900D02*
D03*
X773900D02*
D03*
X1027900D02*
D03*
X1281900D02*
D03*
X900900D02*
D03*
X1154900D02*
D03*
X646900D02*
D03*
X392900Y1919320D02*
D03*
X519900D02*
D03*
X773900D02*
D03*
X1027900D02*
D03*
X1281900D02*
D03*
X900900D02*
D03*
X1154900D02*
D03*
X646900D02*
D03*
D19*
X392900Y238720D02*
D03*
X519900D02*
D03*
X773900D02*
D03*
X1027900D02*
D03*
X1281900D02*
D03*
X900900D02*
D03*
X1154900D02*
D03*
X646900D02*
D03*
X392900Y822920D02*
D03*
X519900D02*
D03*
X773900D02*
D03*
X1027900D02*
D03*
X1281900D02*
D03*
X900900D02*
D03*
X1154900D02*
D03*
X646900D02*
D03*
X392900Y1407120D02*
D03*
X519900D02*
D03*
X773900D02*
D03*
X1027900D02*
D03*
X1281900D02*
D03*
X900900D02*
D03*
X1154900D02*
D03*
X646900D02*
D03*
X392900Y1991320D02*
D03*
X519900D02*
D03*
X773900D02*
D03*
X1027900D02*
D03*
X1281900D02*
D03*
X900900D02*
D03*
X1154900D02*
D03*
X646900D02*
D03*
X1610800Y1155700D02*
D03*
Y1028700D02*
D03*
Y774700D02*
D03*
Y520700D02*
D03*
Y266700D02*
D03*
Y647700D02*
D03*
Y393700D02*
D03*
Y901700D02*
D03*
D20*
X1281900Y337620D02*
D03*
Y372620D02*
D03*
X1154900Y337620D02*
D03*
Y372620D02*
D03*
X1027900Y337620D02*
D03*
Y372620D02*
D03*
X900900Y337620D02*
D03*
Y372620D02*
D03*
X773900Y337620D02*
D03*
Y372620D02*
D03*
X646900Y337620D02*
D03*
Y372620D02*
D03*
X519900Y337620D02*
D03*
Y372620D02*
D03*
X392900Y337620D02*
D03*
Y372620D02*
D03*
X1281900Y921820D02*
D03*
Y956820D02*
D03*
X1154900Y921820D02*
D03*
Y956820D02*
D03*
X1027900Y921820D02*
D03*
Y956820D02*
D03*
X900900Y921820D02*
D03*
Y956820D02*
D03*
X773900Y921820D02*
D03*
Y956820D02*
D03*
X646900Y921820D02*
D03*
Y956820D02*
D03*
X519900Y921820D02*
D03*
Y956820D02*
D03*
X392900Y921820D02*
D03*
Y956820D02*
D03*
X1281900Y1506020D02*
D03*
Y1541020D02*
D03*
X1154900Y1506020D02*
D03*
Y1541020D02*
D03*
X1027900Y1506020D02*
D03*
Y1541020D02*
D03*
X900900Y1506020D02*
D03*
Y1541020D02*
D03*
X773900Y1506020D02*
D03*
Y1541020D02*
D03*
X646900Y1506020D02*
D03*
Y1541020D02*
D03*
X519900Y1506020D02*
D03*
Y1541020D02*
D03*
X392900Y1506020D02*
D03*
Y1541020D02*
D03*
X1281900Y2090220D02*
D03*
Y2125220D02*
D03*
X1154900Y2090220D02*
D03*
Y2125220D02*
D03*
X1027900Y2090220D02*
D03*
Y2125220D02*
D03*
X900900Y2090220D02*
D03*
Y2125220D02*
D03*
X773900Y2090220D02*
D03*
Y2125220D02*
D03*
X646900Y2090220D02*
D03*
Y2125220D02*
D03*
X519900Y2090220D02*
D03*
Y2125220D02*
D03*
X392900Y2090220D02*
D03*
Y2125220D02*
D03*
D21*
X409900Y587570D02*
D03*
X375900D02*
D03*
X409900Y452870D02*
D03*
X375900D02*
D03*
X536900Y587570D02*
D03*
X502900D02*
D03*
X536900Y452870D02*
D03*
X502900D02*
D03*
X663900Y587570D02*
D03*
X629900D02*
D03*
X663900Y452870D02*
D03*
X629900D02*
D03*
X790900Y587570D02*
D03*
X756900D02*
D03*
X790900Y452870D02*
D03*
X756900D02*
D03*
X917900Y587570D02*
D03*
X883900D02*
D03*
X917900Y452870D02*
D03*
X883900D02*
D03*
X1044900Y587570D02*
D03*
X1010900D02*
D03*
X1044900Y452870D02*
D03*
X1010900D02*
D03*
X1171900Y587570D02*
D03*
X1137900D02*
D03*
X1171900Y452870D02*
D03*
X1137900D02*
D03*
X1298900Y587570D02*
D03*
X1264900D02*
D03*
X1298900Y452870D02*
D03*
X1264900D02*
D03*
X248900D02*
D03*
X282900D02*
D03*
X248900Y587570D02*
D03*
X282900D02*
D03*
X409900Y1171770D02*
D03*
X375900D02*
D03*
X409900Y1037070D02*
D03*
X375900D02*
D03*
X536900Y1171770D02*
D03*
X502900D02*
D03*
X536900Y1037070D02*
D03*
X502900D02*
D03*
X663900Y1171770D02*
D03*
X629900D02*
D03*
X663900Y1037070D02*
D03*
X629900D02*
D03*
X790900Y1171770D02*
D03*
X756900D02*
D03*
X790900Y1037070D02*
D03*
X756900D02*
D03*
X917900Y1171770D02*
D03*
X883900D02*
D03*
X917900Y1037070D02*
D03*
X883900D02*
D03*
X1044900Y1171770D02*
D03*
X1010900D02*
D03*
X1044900Y1037070D02*
D03*
X1010900D02*
D03*
X1171900Y1171770D02*
D03*
X1137900D02*
D03*
X1171900Y1037070D02*
D03*
X1137900D02*
D03*
X1298900Y1171770D02*
D03*
X1264900D02*
D03*
X1298900Y1037070D02*
D03*
X1264900D02*
D03*
X248900D02*
D03*
X282900D02*
D03*
X248900Y1171770D02*
D03*
X282900D02*
D03*
X409900Y1755970D02*
D03*
X375900D02*
D03*
X409900Y1621270D02*
D03*
X375900D02*
D03*
X536900Y1755970D02*
D03*
X502900D02*
D03*
X536900Y1621270D02*
D03*
X502900D02*
D03*
X663900Y1755970D02*
D03*
X629900D02*
D03*
X663900Y1621270D02*
D03*
X629900D02*
D03*
X790900Y1755970D02*
D03*
X756900D02*
D03*
X790900Y1621270D02*
D03*
X756900D02*
D03*
X917900Y1755970D02*
D03*
X883900D02*
D03*
X917900Y1621270D02*
D03*
X883900D02*
D03*
X1044900Y1755970D02*
D03*
X1010900D02*
D03*
X1044900Y1621270D02*
D03*
X1010900D02*
D03*
X1171900Y1755970D02*
D03*
X1137900D02*
D03*
X1171900Y1621270D02*
D03*
X1137900D02*
D03*
X1298900Y1755970D02*
D03*
X1264900D02*
D03*
X1298900Y1621270D02*
D03*
X1264900D02*
D03*
X248900D02*
D03*
X282900D02*
D03*
X248900Y1755970D02*
D03*
X282900D02*
D03*
X409900Y2340170D02*
D03*
X375900D02*
D03*
X409900Y2205470D02*
D03*
X375900D02*
D03*
X536900Y2340170D02*
D03*
X502900D02*
D03*
X536900Y2205470D02*
D03*
X502900D02*
D03*
X663900Y2340170D02*
D03*
X629900D02*
D03*
X663900Y2205470D02*
D03*
X629900D02*
D03*
X790900Y2340170D02*
D03*
X756900D02*
D03*
X790900Y2205470D02*
D03*
X756900D02*
D03*
X917900Y2340170D02*
D03*
X883900D02*
D03*
X917900Y2205470D02*
D03*
X883900D02*
D03*
X1044900Y2340170D02*
D03*
X1010900D02*
D03*
X1044900Y2205470D02*
D03*
X1010900D02*
D03*
X1171900Y2340170D02*
D03*
X1137900D02*
D03*
X1171900Y2205470D02*
D03*
X1137900D02*
D03*
X1298900Y2340170D02*
D03*
X1264900D02*
D03*
X1298900Y2205470D02*
D03*
X1264900D02*
D03*
X248900D02*
D03*
X282900D02*
D03*
X248900Y2340170D02*
D03*
X282900D02*
D03*
X1959650Y1138700D02*
D03*
Y1172700D02*
D03*
X1824950Y1138700D02*
D03*
Y1172700D02*
D03*
X1959650Y1011700D02*
D03*
Y1045700D02*
D03*
X1824950Y1011700D02*
D03*
Y1045700D02*
D03*
X1959650Y884700D02*
D03*
Y918700D02*
D03*
X1824950Y884700D02*
D03*
Y918700D02*
D03*
X1959650Y757700D02*
D03*
Y791700D02*
D03*
X1824950Y757700D02*
D03*
Y791700D02*
D03*
X1959650Y630700D02*
D03*
Y664700D02*
D03*
X1824950Y630700D02*
D03*
Y664700D02*
D03*
X1959650Y503700D02*
D03*
Y537700D02*
D03*
X1824950Y503700D02*
D03*
Y537700D02*
D03*
X1959650Y376700D02*
D03*
Y410700D02*
D03*
X1824950Y376700D02*
D03*
Y410700D02*
D03*
X1959650Y249700D02*
D03*
Y283700D02*
D03*
X1824950Y249700D02*
D03*
Y283700D02*
D03*
Y1299700D02*
D03*
Y1265700D02*
D03*
X1959650Y1299700D02*
D03*
Y1265700D02*
D03*
D22*
X253200Y283120D02*
D03*
Y867320D02*
D03*
Y1451520D02*
D03*
Y2035720D02*
D03*
X1655200Y1295400D02*
D03*
D23*
X253200Y173120D02*
D03*
Y757320D02*
D03*
Y1341520D02*
D03*
Y1925720D02*
D03*
D24*
X151600Y151920D02*
D03*
Y609120D02*
D03*
X1396200D02*
D03*
Y151920D02*
D03*
X151600Y736120D02*
D03*
Y1193320D02*
D03*
X1396200D02*
D03*
Y736120D02*
D03*
X151600Y1320320D02*
D03*
Y1777520D02*
D03*
X1396200D02*
D03*
Y1320320D02*
D03*
X151600Y1904520D02*
D03*
Y2361720D02*
D03*
X1396200D02*
D03*
Y1904520D02*
D03*
X1524000Y1397000D02*
D03*
X1981200D02*
D03*
Y152400D02*
D03*
X1524000D02*
D03*
D26*
X1538800Y1155700D02*
D03*
Y1028700D02*
D03*
Y774700D02*
D03*
Y520700D02*
D03*
Y266700D02*
D03*
Y647700D02*
D03*
Y393700D02*
D03*
Y901700D02*
D03*
D27*
X1709700Y266700D02*
D03*
X1744700D02*
D03*
X1709700Y393700D02*
D03*
X1744700D02*
D03*
X1709700Y520700D02*
D03*
X1744700D02*
D03*
X1709700Y647700D02*
D03*
X1744700D02*
D03*
X1709700Y774700D02*
D03*
X1744700D02*
D03*
X1709700Y901700D02*
D03*
X1744700D02*
D03*
X1709700Y1028700D02*
D03*
X1744700D02*
D03*
X1709700Y1155700D02*
D03*
X1744700D02*
D03*
D28*
X1545200Y1295400D02*
D03*
M02*
