G04*
G04 #@! TF.GenerationSoftware,Altium Limited,Altium Designer,22.0.2 (36)*
G04*
G04 Layer_Color=32768*
%FSLAX44Y44*%
%MOMM*%
G71*
G04*
G04 #@! TF.SameCoordinates,A2EA2B81-71FB-41A7-B433-9E60F2C241B4*
G04*
G04*
G04 #@! TF.FilePolarity,Positive*
G04*
G01*
G75*
%ADD31C,0.1000*%
%ADD32C,0.1270*%
%ADD51C,0.0500*%
D31*
X210100Y558320D02*
X220100D01*
X215100Y553320D02*
Y563320D01*
X311700Y558320D02*
X321700D01*
X316700Y553320D02*
Y563320D01*
X438700Y558320D02*
X448700D01*
X443700Y553320D02*
Y563320D01*
X565700Y558320D02*
X575700D01*
X570700Y553320D02*
Y563320D01*
X692700Y558320D02*
X702700D01*
X697700Y553320D02*
Y563320D01*
X819700Y558320D02*
X829700D01*
X824700Y553320D02*
Y563320D01*
X946700Y558320D02*
X956700D01*
X951700Y553320D02*
Y563320D01*
X1073700Y558320D02*
X1083700D01*
X1078700Y553320D02*
Y563320D01*
X1200700Y558320D02*
X1210700D01*
X1205700Y553320D02*
Y563320D01*
X1327700Y558320D02*
X1337700D01*
X1332700Y553320D02*
Y563320D01*
X565950Y609120D02*
X575450D01*
X570700Y604370D02*
Y613870D01*
X311950Y609120D02*
X321450D01*
X316700Y604370D02*
Y613870D01*
X215100Y604370D02*
Y613870D01*
X210350Y609120D02*
X219850D01*
X692950D02*
X702450D01*
X697700Y604370D02*
Y613870D01*
X951700Y604370D02*
Y613870D01*
X946950Y609120D02*
X956450D01*
X819950D02*
X829450D01*
X824700Y604370D02*
Y613870D01*
X443700Y604370D02*
Y613870D01*
X438950Y609120D02*
X448450D01*
X1327950D02*
X1337450D01*
X1332700Y604370D02*
Y613870D01*
X1205700Y604370D02*
Y613870D01*
X1200950Y609120D02*
X1210450D01*
X1073950D02*
X1083450D01*
X1078700Y604370D02*
Y613870D01*
X210100Y1142520D02*
X220100D01*
X215100Y1137520D02*
Y1147520D01*
X311700Y1142520D02*
X321700D01*
X316700Y1137520D02*
Y1147520D01*
X438700Y1142520D02*
X448700D01*
X443700Y1137520D02*
Y1147520D01*
X565700Y1142520D02*
X575700D01*
X570700Y1137520D02*
Y1147520D01*
X692700Y1142520D02*
X702700D01*
X697700Y1137520D02*
Y1147520D01*
X819700Y1142520D02*
X829700D01*
X824700Y1137520D02*
Y1147520D01*
X946700Y1142520D02*
X956700D01*
X951700Y1137520D02*
Y1147520D01*
X1073700Y1142520D02*
X1083700D01*
X1078700Y1137520D02*
Y1147520D01*
X1200700Y1142520D02*
X1210700D01*
X1205700Y1137520D02*
Y1147520D01*
X1327700Y1142520D02*
X1337700D01*
X1332700Y1137520D02*
Y1147520D01*
X565950Y1193320D02*
X575450D01*
X570700Y1188570D02*
Y1198070D01*
X311950Y1193320D02*
X321450D01*
X316700Y1188570D02*
Y1198070D01*
X215100Y1188570D02*
Y1198070D01*
X210350Y1193320D02*
X219850D01*
X692950D02*
X702450D01*
X697700Y1188570D02*
Y1198070D01*
X951700Y1188570D02*
Y1198070D01*
X946950Y1193320D02*
X956450D01*
X819950D02*
X829450D01*
X824700Y1188570D02*
Y1198070D01*
X443700Y1188570D02*
Y1198070D01*
X438950Y1193320D02*
X448450D01*
X1327950D02*
X1337450D01*
X1332700Y1188570D02*
Y1198070D01*
X1205700Y1188570D02*
Y1198070D01*
X1200950Y1193320D02*
X1210450D01*
X1073950D02*
X1083450D01*
X1078700Y1188570D02*
Y1198070D01*
X210100Y1726720D02*
X220100D01*
X215100Y1721720D02*
Y1731720D01*
X311700Y1726720D02*
X321700D01*
X316700Y1721720D02*
Y1731720D01*
X438700Y1726720D02*
X448700D01*
X443700Y1721720D02*
Y1731720D01*
X565700Y1726720D02*
X575700D01*
X570700Y1721720D02*
Y1731720D01*
X692700Y1726720D02*
X702700D01*
X697700Y1721720D02*
Y1731720D01*
X819700Y1726720D02*
X829700D01*
X824700Y1721720D02*
Y1731720D01*
X946700Y1726720D02*
X956700D01*
X951700Y1721720D02*
Y1731720D01*
X1073700Y1726720D02*
X1083700D01*
X1078700Y1721720D02*
Y1731720D01*
X1200700Y1726720D02*
X1210700D01*
X1205700Y1721720D02*
Y1731720D01*
X1327700Y1726720D02*
X1337700D01*
X1332700Y1721720D02*
Y1731720D01*
X565950Y1777520D02*
X575450D01*
X570700Y1772770D02*
Y1782270D01*
X311950Y1777520D02*
X321450D01*
X316700Y1772770D02*
Y1782270D01*
X215100Y1772770D02*
Y1782270D01*
X210350Y1777520D02*
X219850D01*
X692950D02*
X702450D01*
X697700Y1772770D02*
Y1782270D01*
X951700Y1772770D02*
Y1782270D01*
X946950Y1777520D02*
X956450D01*
X819950D02*
X829450D01*
X824700Y1772770D02*
Y1782270D01*
X443700Y1772770D02*
Y1782270D01*
X438950Y1777520D02*
X448450D01*
X1327950D02*
X1337450D01*
X1332700Y1772770D02*
Y1782270D01*
X1205700Y1772770D02*
Y1782270D01*
X1200950Y1777520D02*
X1210450D01*
X1073950D02*
X1083450D01*
X1078700Y1772770D02*
Y1782270D01*
X210100Y2310920D02*
X220100D01*
X215100Y2305920D02*
Y2315920D01*
X311700Y2310920D02*
X321700D01*
X316700Y2305920D02*
Y2315920D01*
X438700Y2310920D02*
X448700D01*
X443700Y2305920D02*
Y2315920D01*
X565700Y2310920D02*
X575700D01*
X570700Y2305920D02*
Y2315920D01*
X692700Y2310920D02*
X702700D01*
X697700Y2305920D02*
Y2315920D01*
X819700Y2310920D02*
X829700D01*
X824700Y2305920D02*
Y2315920D01*
X946700Y2310920D02*
X956700D01*
X951700Y2305920D02*
Y2315920D01*
X1073700Y2310920D02*
X1083700D01*
X1078700Y2305920D02*
Y2315920D01*
X1200700Y2310920D02*
X1210700D01*
X1205700Y2305920D02*
Y2315920D01*
X1327700Y2310920D02*
X1337700D01*
X1332700Y2305920D02*
Y2315920D01*
X565950Y2361720D02*
X575450D01*
X570700Y2356970D02*
Y2366470D01*
X311950Y2361720D02*
X321450D01*
X316700Y2356970D02*
Y2366470D01*
X215100Y2356970D02*
Y2366470D01*
X210350Y2361720D02*
X219850D01*
X692950D02*
X702450D01*
X697700Y2356970D02*
Y2366470D01*
X951700Y2356970D02*
Y2366470D01*
X946950Y2361720D02*
X956450D01*
X819950D02*
X829450D01*
X824700Y2356970D02*
Y2366470D01*
X443700Y2356970D02*
Y2366470D01*
X438950Y2361720D02*
X448450D01*
X1327950D02*
X1337450D01*
X1332700Y2356970D02*
Y2366470D01*
X1205700Y2356970D02*
Y2366470D01*
X1200950Y2361720D02*
X1210450D01*
X1073950D02*
X1083450D01*
X1078700Y2356970D02*
Y2366470D01*
X1930400Y1338500D02*
Y1328500D01*
X1925400Y1333500D02*
X1935400D01*
X1930400Y1236900D02*
Y1226900D01*
X1925400Y1231900D02*
X1935400D01*
X1930400Y1109900D02*
Y1099900D01*
X1925400Y1104900D02*
X1935400D01*
X1930400Y982900D02*
Y972900D01*
X1925400Y977900D02*
X1935400D01*
X1930400Y855900D02*
Y845900D01*
X1925400Y850900D02*
X1935400D01*
X1930400Y728900D02*
Y718900D01*
X1925400Y723900D02*
X1935400D01*
X1930400Y601900D02*
Y591900D01*
X1925400Y596900D02*
X1935400D01*
X1930400Y474900D02*
Y464900D01*
X1925400Y469900D02*
X1935400D01*
X1930400Y347900D02*
Y337900D01*
X1925400Y342900D02*
X1935400D01*
X1930400Y220900D02*
Y210900D01*
X1925400Y215900D02*
X1935400D01*
X1981200Y982650D02*
Y973150D01*
X1976450Y977900D02*
X1985950D01*
X1981200Y1236650D02*
Y1227150D01*
X1976450Y1231900D02*
X1985950D01*
X1976450Y1333500D02*
X1985950D01*
X1981200Y1338250D02*
Y1328750D01*
Y855650D02*
Y846150D01*
X1976450Y850900D02*
X1985950D01*
X1976450Y596900D02*
X1985950D01*
X1981200Y601650D02*
Y592150D01*
Y728650D02*
Y719150D01*
X1976450Y723900D02*
X1985950D01*
X1976450Y1104900D02*
X1985950D01*
X1981200Y1109650D02*
Y1100150D01*
Y220650D02*
Y211150D01*
X1976450Y215900D02*
X1985950D01*
X1976450Y342900D02*
X1985950D01*
X1981200Y347650D02*
Y338150D01*
Y474650D02*
Y465150D01*
X1976450Y469900D02*
X1985950D01*
D32*
X431000Y416080D02*
Y624360D01*
X354800Y416080D02*
X431000D01*
X354800D02*
Y624360D01*
X431000D01*
X558000Y416080D02*
Y624360D01*
X481800Y416080D02*
X558000D01*
X481800D02*
Y624360D01*
X558000D01*
X685000Y416080D02*
Y624360D01*
X608800Y416080D02*
X685000D01*
X608800D02*
Y624360D01*
X685000D01*
X812000Y416080D02*
Y624360D01*
X735800Y416080D02*
X812000D01*
X735800D02*
Y624360D01*
X812000D01*
X939000Y416080D02*
Y624360D01*
X862800Y416080D02*
X939000D01*
X862800D02*
Y624360D01*
X939000D01*
X1066000Y416080D02*
Y624360D01*
X989800Y416080D02*
X1066000D01*
X989800D02*
Y624360D01*
X1066000D01*
X1193000Y416080D02*
Y624360D01*
X1116800Y416080D02*
X1193000D01*
X1116800D02*
Y624360D01*
X1193000D01*
X1320000Y416080D02*
Y624360D01*
X1243800Y416080D02*
X1320000D01*
X1243800D02*
Y624360D01*
X1320000D01*
X227800Y416080D02*
Y624360D01*
X304000D01*
Y416080D02*
Y624360D01*
X227800Y416080D02*
X304000D01*
X431000Y1000280D02*
Y1208560D01*
X354800Y1000280D02*
X431000D01*
X354800D02*
Y1208560D01*
X431000D01*
X558000Y1000280D02*
Y1208560D01*
X481800Y1000280D02*
X558000D01*
X481800D02*
Y1208560D01*
X558000D01*
X685000Y1000280D02*
Y1208560D01*
X608800Y1000280D02*
X685000D01*
X608800D02*
Y1208560D01*
X685000D01*
X812000Y1000280D02*
Y1208560D01*
X735800Y1000280D02*
X812000D01*
X735800D02*
Y1208560D01*
X812000D01*
X939000Y1000280D02*
Y1208560D01*
X862800Y1000280D02*
X939000D01*
X862800D02*
Y1208560D01*
X939000D01*
X1066000Y1000280D02*
Y1208560D01*
X989800Y1000280D02*
X1066000D01*
X989800D02*
Y1208560D01*
X1066000D01*
X1193000Y1000280D02*
Y1208560D01*
X1116800Y1000280D02*
X1193000D01*
X1116800D02*
Y1208560D01*
X1193000D01*
X1320000Y1000280D02*
Y1208560D01*
X1243800Y1000280D02*
X1320000D01*
X1243800D02*
Y1208560D01*
X1320000D01*
X227800Y1000280D02*
Y1208560D01*
X304000D01*
Y1000280D02*
Y1208560D01*
X227800Y1000280D02*
X304000D01*
X431000Y1584480D02*
Y1792760D01*
X354800Y1584480D02*
X431000D01*
X354800D02*
Y1792760D01*
X431000D01*
X558000Y1584480D02*
Y1792760D01*
X481800Y1584480D02*
X558000D01*
X481800D02*
Y1792760D01*
X558000D01*
X685000Y1584480D02*
Y1792760D01*
X608800Y1584480D02*
X685000D01*
X608800D02*
Y1792760D01*
X685000D01*
X812000Y1584480D02*
Y1792760D01*
X735800Y1584480D02*
X812000D01*
X735800D02*
Y1792760D01*
X812000D01*
X939000Y1584480D02*
Y1792760D01*
X862800Y1584480D02*
X939000D01*
X862800D02*
Y1792760D01*
X939000D01*
X1066000Y1584480D02*
Y1792760D01*
X989800Y1584480D02*
X1066000D01*
X989800D02*
Y1792760D01*
X1066000D01*
X1193000Y1584480D02*
Y1792760D01*
X1116800Y1584480D02*
X1193000D01*
X1116800D02*
Y1792760D01*
X1193000D01*
X1320000Y1584480D02*
Y1792760D01*
X1243800Y1584480D02*
X1320000D01*
X1243800D02*
Y1792760D01*
X1320000D01*
X227800Y1584480D02*
Y1792760D01*
X304000D01*
Y1584480D02*
Y1792760D01*
X227800Y1584480D02*
X304000D01*
X431000Y2168680D02*
Y2376960D01*
X354800Y2168680D02*
X431000D01*
X354800D02*
Y2376960D01*
X431000D01*
X558000Y2168680D02*
Y2376960D01*
X481800Y2168680D02*
X558000D01*
X481800D02*
Y2376960D01*
X558000D01*
X685000Y2168680D02*
Y2376960D01*
X608800Y2168680D02*
X685000D01*
X608800D02*
Y2376960D01*
X685000D01*
X812000Y2168680D02*
Y2376960D01*
X735800Y2168680D02*
X812000D01*
X735800D02*
Y2376960D01*
X812000D01*
X939000Y2168680D02*
Y2376960D01*
X862800Y2168680D02*
X939000D01*
X862800D02*
Y2376960D01*
X939000D01*
X1066000Y2168680D02*
Y2376960D01*
X989800Y2168680D02*
X1066000D01*
X989800D02*
Y2376960D01*
X1066000D01*
X1193000Y2168680D02*
Y2376960D01*
X1116800Y2168680D02*
X1193000D01*
X1116800D02*
Y2376960D01*
X1193000D01*
X1320000Y2168680D02*
Y2376960D01*
X1243800Y2168680D02*
X1320000D01*
X1243800D02*
Y2376960D01*
X1320000D01*
X227800Y2168680D02*
Y2376960D01*
X304000D01*
Y2168680D02*
Y2376960D01*
X227800Y2168680D02*
X304000D01*
X1788160Y1117600D02*
X1996440D01*
X1788160Y1193800D02*
Y1117600D01*
Y1193800D02*
X1996440D01*
Y1117600D01*
X1788160Y990600D02*
X1996440D01*
X1788160Y1066800D02*
Y990600D01*
Y1066800D02*
X1996440D01*
Y990600D01*
X1788160Y863600D02*
X1996440D01*
X1788160Y939800D02*
Y863600D01*
Y939800D02*
X1996440D01*
Y863600D01*
X1788160Y736600D02*
X1996440D01*
X1788160Y812800D02*
Y736600D01*
Y812800D02*
X1996440D01*
Y736600D01*
X1788160Y609600D02*
X1996440D01*
X1788160Y685800D02*
Y609600D01*
Y685800D02*
X1996440D01*
Y609600D01*
X1788160Y482600D02*
X1996440D01*
X1788160Y558800D02*
Y482600D01*
Y558800D02*
X1996440D01*
Y482600D01*
X1788160Y355600D02*
X1996440D01*
X1788160Y431800D02*
Y355600D01*
Y431800D02*
X1996440D01*
Y355600D01*
X1788160Y228600D02*
X1996440D01*
X1788160Y304800D02*
Y228600D01*
Y304800D02*
X1996440D01*
Y228600D01*
X1788160Y1320800D02*
X1996440D01*
Y1244600D01*
X1788160D02*
X1996440D01*
X1788160Y1320800D02*
Y1244600D01*
D51*
X347180Y120170D02*
X438366D01*
X347180D02*
Y285270D01*
X438366D01*
Y120170D02*
Y285270D01*
X474180Y120170D02*
X565366D01*
X474180D02*
Y285270D01*
X565366D01*
Y120170D02*
Y285270D01*
X728180Y120170D02*
X819366D01*
X728180D02*
Y285270D01*
X819366D01*
Y120170D02*
Y285270D01*
X982180Y120170D02*
X1073366D01*
X982180D02*
Y285270D01*
X1073366D01*
Y120170D02*
Y285270D01*
X1236180Y120170D02*
X1327366D01*
X1236180D02*
Y285270D01*
X1327366D01*
Y120170D02*
Y285270D01*
X855180Y120170D02*
X946366D01*
X855180D02*
Y285270D01*
X946366D01*
Y120170D02*
Y285270D01*
X1109180Y120170D02*
X1200366D01*
X1109180D02*
Y285270D01*
X1200366D01*
Y120170D02*
Y285270D01*
X601180Y120170D02*
X692366D01*
X601180D02*
Y285270D01*
X692366D01*
Y120170D02*
Y285270D01*
X204100Y535320D02*
Y581320D01*
X226100Y535320D02*
Y581320D01*
X204100Y535320D02*
X226100D01*
X204100Y581320D02*
X226100D01*
X305700Y535320D02*
Y581320D01*
X327700Y535320D02*
Y581320D01*
X305700Y535320D02*
X327700D01*
X305700Y581320D02*
X327700D01*
X432700Y535320D02*
Y581320D01*
X454700Y535320D02*
Y581320D01*
X432700Y535320D02*
X454700D01*
X432700Y581320D02*
X454700D01*
X559700Y535320D02*
Y581320D01*
X581700Y535320D02*
Y581320D01*
X559700Y535320D02*
X581700D01*
X559700Y581320D02*
X581700D01*
X686700Y535320D02*
Y581320D01*
X708700Y535320D02*
Y581320D01*
X686700Y535320D02*
X708700D01*
X686700Y581320D02*
X708700D01*
X813700Y535320D02*
Y581320D01*
X835700Y535320D02*
Y581320D01*
X813700Y535320D02*
X835700D01*
X813700Y581320D02*
X835700D01*
X940700Y535320D02*
Y581320D01*
X962700Y535320D02*
Y581320D01*
X940700Y535320D02*
X962700D01*
X940700Y581320D02*
X962700D01*
X1067700Y535320D02*
Y581320D01*
X1089700Y535320D02*
Y581320D01*
X1067700Y535320D02*
X1089700D01*
X1067700Y581320D02*
X1089700D01*
X1194700Y535320D02*
Y581320D01*
X1216700Y535320D02*
Y581320D01*
X1194700Y535320D02*
X1216700D01*
X1194700Y581320D02*
X1216700D01*
X1321700Y535320D02*
Y581320D01*
X1343700Y535320D02*
Y581320D01*
X1321700Y535320D02*
X1343700D01*
X1321700Y581320D02*
X1343700D01*
X197200Y118120D02*
X309200D01*
X197200D02*
Y338120D01*
X309200D01*
Y118120D02*
Y338120D01*
X578200Y595150D02*
Y623090D01*
X563200Y595150D02*
Y623090D01*
X578200D01*
X563200Y595150D02*
X578200D01*
X324200D02*
Y623090D01*
X309200Y595150D02*
Y623090D01*
X324200D01*
X309200Y595150D02*
X324200D01*
X207600D02*
X222600D01*
X207600Y623090D02*
X222600D01*
X207600Y595150D02*
Y623090D01*
X222600Y595150D02*
Y623090D01*
X705200Y595150D02*
Y623090D01*
X690200Y595150D02*
Y623090D01*
X705200D01*
X690200Y595150D02*
X705200D01*
X944200D02*
X959200D01*
X944200Y623090D02*
X959200D01*
X944200Y595150D02*
Y623090D01*
X959200Y595150D02*
Y623090D01*
X832200Y595150D02*
Y623090D01*
X817200Y595150D02*
Y623090D01*
X832200D01*
X817200Y595150D02*
X832200D01*
X436200D02*
X451200D01*
X436200Y623090D02*
X451200D01*
X436200Y595150D02*
Y623090D01*
X451200Y595150D02*
Y623090D01*
X1340200Y595150D02*
Y623090D01*
X1325200Y595150D02*
Y623090D01*
X1340200D01*
X1325200Y595150D02*
X1340200D01*
X1198200D02*
X1213200D01*
X1198200Y623090D02*
X1213200D01*
X1198200Y595150D02*
Y623090D01*
X1213200Y595150D02*
Y623090D01*
X1086200Y595150D02*
Y623090D01*
X1071200Y595150D02*
Y623090D01*
X1086200D01*
X1071200Y595150D02*
X1086200D01*
X347180Y704370D02*
X438366D01*
X347180D02*
Y869470D01*
X438366D01*
Y704370D02*
Y869470D01*
X474180Y704370D02*
X565366D01*
X474180D02*
Y869470D01*
X565366D01*
Y704370D02*
Y869470D01*
X728180Y704370D02*
X819366D01*
X728180D02*
Y869470D01*
X819366D01*
Y704370D02*
Y869470D01*
X982180Y704370D02*
X1073366D01*
X982180D02*
Y869470D01*
X1073366D01*
Y704370D02*
Y869470D01*
X1236180Y704370D02*
X1327366D01*
X1236180D02*
Y869470D01*
X1327366D01*
Y704370D02*
Y869470D01*
X855180Y704370D02*
X946366D01*
X855180D02*
Y869470D01*
X946366D01*
Y704370D02*
Y869470D01*
X1109180Y704370D02*
X1200366D01*
X1109180D02*
Y869470D01*
X1200366D01*
Y704370D02*
Y869470D01*
X601180Y704370D02*
X692366D01*
X601180D02*
Y869470D01*
X692366D01*
Y704370D02*
Y869470D01*
X204100Y1119520D02*
Y1165520D01*
X226100Y1119520D02*
Y1165520D01*
X204100Y1119520D02*
X226100D01*
X204100Y1165520D02*
X226100D01*
X305700Y1119520D02*
Y1165520D01*
X327700Y1119520D02*
Y1165520D01*
X305700Y1119520D02*
X327700D01*
X305700Y1165520D02*
X327700D01*
X432700Y1119520D02*
Y1165520D01*
X454700Y1119520D02*
Y1165520D01*
X432700Y1119520D02*
X454700D01*
X432700Y1165520D02*
X454700D01*
X559700Y1119520D02*
Y1165520D01*
X581700Y1119520D02*
Y1165520D01*
X559700Y1119520D02*
X581700D01*
X559700Y1165520D02*
X581700D01*
X686700Y1119520D02*
Y1165520D01*
X708700Y1119520D02*
Y1165520D01*
X686700Y1119520D02*
X708700D01*
X686700Y1165520D02*
X708700D01*
X813700Y1119520D02*
Y1165520D01*
X835700Y1119520D02*
Y1165520D01*
X813700Y1119520D02*
X835700D01*
X813700Y1165520D02*
X835700D01*
X940700Y1119520D02*
Y1165520D01*
X962700Y1119520D02*
Y1165520D01*
X940700Y1119520D02*
X962700D01*
X940700Y1165520D02*
X962700D01*
X1067700Y1119520D02*
Y1165520D01*
X1089700Y1119520D02*
Y1165520D01*
X1067700Y1119520D02*
X1089700D01*
X1067700Y1165520D02*
X1089700D01*
X1194700Y1119520D02*
Y1165520D01*
X1216700Y1119520D02*
Y1165520D01*
X1194700Y1119520D02*
X1216700D01*
X1194700Y1165520D02*
X1216700D01*
X1321700Y1119520D02*
Y1165520D01*
X1343700Y1119520D02*
Y1165520D01*
X1321700Y1119520D02*
X1343700D01*
X1321700Y1165520D02*
X1343700D01*
X197200Y702320D02*
X309200D01*
X197200D02*
Y922320D01*
X309200D01*
Y702320D02*
Y922320D01*
X578200Y1179350D02*
Y1207290D01*
X563200Y1179350D02*
Y1207290D01*
X578200D01*
X563200Y1179350D02*
X578200D01*
X324200D02*
Y1207290D01*
X309200Y1179350D02*
Y1207290D01*
X324200D01*
X309200Y1179350D02*
X324200D01*
X207600D02*
X222600D01*
X207600Y1207290D02*
X222600D01*
X207600Y1179350D02*
Y1207290D01*
X222600Y1179350D02*
Y1207290D01*
X705200Y1179350D02*
Y1207290D01*
X690200Y1179350D02*
Y1207290D01*
X705200D01*
X690200Y1179350D02*
X705200D01*
X944200D02*
X959200D01*
X944200Y1207290D02*
X959200D01*
X944200Y1179350D02*
Y1207290D01*
X959200Y1179350D02*
Y1207290D01*
X832200Y1179350D02*
Y1207290D01*
X817200Y1179350D02*
Y1207290D01*
X832200D01*
X817200Y1179350D02*
X832200D01*
X436200D02*
X451200D01*
X436200Y1207290D02*
X451200D01*
X436200Y1179350D02*
Y1207290D01*
X451200Y1179350D02*
Y1207290D01*
X1340200Y1179350D02*
Y1207290D01*
X1325200Y1179350D02*
Y1207290D01*
X1340200D01*
X1325200Y1179350D02*
X1340200D01*
X1198200D02*
X1213200D01*
X1198200Y1207290D02*
X1213200D01*
X1198200Y1179350D02*
Y1207290D01*
X1213200Y1179350D02*
Y1207290D01*
X1086200Y1179350D02*
Y1207290D01*
X1071200Y1179350D02*
Y1207290D01*
X1086200D01*
X1071200Y1179350D02*
X1086200D01*
X347180Y1288570D02*
X438366D01*
X347180D02*
Y1453670D01*
X438366D01*
Y1288570D02*
Y1453670D01*
X474180Y1288570D02*
X565366D01*
X474180D02*
Y1453670D01*
X565366D01*
Y1288570D02*
Y1453670D01*
X728180Y1288570D02*
X819366D01*
X728180D02*
Y1453670D01*
X819366D01*
Y1288570D02*
Y1453670D01*
X982180Y1288570D02*
X1073366D01*
X982180D02*
Y1453670D01*
X1073366D01*
Y1288570D02*
Y1453670D01*
X1236180Y1288570D02*
X1327366D01*
X1236180D02*
Y1453670D01*
X1327366D01*
Y1288570D02*
Y1453670D01*
X855180Y1288570D02*
X946366D01*
X855180D02*
Y1453670D01*
X946366D01*
Y1288570D02*
Y1453670D01*
X1109180Y1288570D02*
X1200366D01*
X1109180D02*
Y1453670D01*
X1200366D01*
Y1288570D02*
Y1453670D01*
X601180Y1288570D02*
X692366D01*
X601180D02*
Y1453670D01*
X692366D01*
Y1288570D02*
Y1453670D01*
X204100Y1703720D02*
Y1749720D01*
X226100Y1703720D02*
Y1749720D01*
X204100Y1703720D02*
X226100D01*
X204100Y1749720D02*
X226100D01*
X305700Y1703720D02*
Y1749720D01*
X327700Y1703720D02*
Y1749720D01*
X305700Y1703720D02*
X327700D01*
X305700Y1749720D02*
X327700D01*
X432700Y1703720D02*
Y1749720D01*
X454700Y1703720D02*
Y1749720D01*
X432700Y1703720D02*
X454700D01*
X432700Y1749720D02*
X454700D01*
X559700Y1703720D02*
Y1749720D01*
X581700Y1703720D02*
Y1749720D01*
X559700Y1703720D02*
X581700D01*
X559700Y1749720D02*
X581700D01*
X686700Y1703720D02*
Y1749720D01*
X708700Y1703720D02*
Y1749720D01*
X686700Y1703720D02*
X708700D01*
X686700Y1749720D02*
X708700D01*
X813700Y1703720D02*
Y1749720D01*
X835700Y1703720D02*
Y1749720D01*
X813700Y1703720D02*
X835700D01*
X813700Y1749720D02*
X835700D01*
X940700Y1703720D02*
Y1749720D01*
X962700Y1703720D02*
Y1749720D01*
X940700Y1703720D02*
X962700D01*
X940700Y1749720D02*
X962700D01*
X1067700Y1703720D02*
Y1749720D01*
X1089700Y1703720D02*
Y1749720D01*
X1067700Y1703720D02*
X1089700D01*
X1067700Y1749720D02*
X1089700D01*
X1194700Y1703720D02*
Y1749720D01*
X1216700Y1703720D02*
Y1749720D01*
X1194700Y1703720D02*
X1216700D01*
X1194700Y1749720D02*
X1216700D01*
X1321700Y1703720D02*
Y1749720D01*
X1343700Y1703720D02*
Y1749720D01*
X1321700Y1703720D02*
X1343700D01*
X1321700Y1749720D02*
X1343700D01*
X197200Y1286520D02*
X309200D01*
X197200D02*
Y1506520D01*
X309200D01*
Y1286520D02*
Y1506520D01*
X578200Y1763550D02*
Y1791490D01*
X563200Y1763550D02*
Y1791490D01*
X578200D01*
X563200Y1763550D02*
X578200D01*
X324200D02*
Y1791490D01*
X309200Y1763550D02*
Y1791490D01*
X324200D01*
X309200Y1763550D02*
X324200D01*
X207600D02*
X222600D01*
X207600Y1791490D02*
X222600D01*
X207600Y1763550D02*
Y1791490D01*
X222600Y1763550D02*
Y1791490D01*
X705200Y1763550D02*
Y1791490D01*
X690200Y1763550D02*
Y1791490D01*
X705200D01*
X690200Y1763550D02*
X705200D01*
X944200D02*
X959200D01*
X944200Y1791490D02*
X959200D01*
X944200Y1763550D02*
Y1791490D01*
X959200Y1763550D02*
Y1791490D01*
X832200Y1763550D02*
Y1791490D01*
X817200Y1763550D02*
Y1791490D01*
X832200D01*
X817200Y1763550D02*
X832200D01*
X436200D02*
X451200D01*
X436200Y1791490D02*
X451200D01*
X436200Y1763550D02*
Y1791490D01*
X451200Y1763550D02*
Y1791490D01*
X1340200Y1763550D02*
Y1791490D01*
X1325200Y1763550D02*
Y1791490D01*
X1340200D01*
X1325200Y1763550D02*
X1340200D01*
X1198200D02*
X1213200D01*
X1198200Y1791490D02*
X1213200D01*
X1198200Y1763550D02*
Y1791490D01*
X1213200Y1763550D02*
Y1791490D01*
X1086200Y1763550D02*
Y1791490D01*
X1071200Y1763550D02*
Y1791490D01*
X1086200D01*
X1071200Y1763550D02*
X1086200D01*
X347180Y1872770D02*
X438366D01*
X347180D02*
Y2037870D01*
X438366D01*
Y1872770D02*
Y2037870D01*
X474180Y1872770D02*
X565366D01*
X474180D02*
Y2037870D01*
X565366D01*
Y1872770D02*
Y2037870D01*
X728180Y1872770D02*
X819366D01*
X728180D02*
Y2037870D01*
X819366D01*
Y1872770D02*
Y2037870D01*
X982180Y1872770D02*
X1073366D01*
X982180D02*
Y2037870D01*
X1073366D01*
Y1872770D02*
Y2037870D01*
X1236180Y1872770D02*
X1327366D01*
X1236180D02*
Y2037870D01*
X1327366D01*
Y1872770D02*
Y2037870D01*
X855180Y1872770D02*
X946366D01*
X855180D02*
Y2037870D01*
X946366D01*
Y1872770D02*
Y2037870D01*
X1109180Y1872770D02*
X1200366D01*
X1109180D02*
Y2037870D01*
X1200366D01*
Y1872770D02*
Y2037870D01*
X601180Y1872770D02*
X692366D01*
X601180D02*
Y2037870D01*
X692366D01*
Y1872770D02*
Y2037870D01*
X204100Y2287920D02*
Y2333920D01*
X226100Y2287920D02*
Y2333920D01*
X204100Y2287920D02*
X226100D01*
X204100Y2333920D02*
X226100D01*
X305700Y2287920D02*
Y2333920D01*
X327700Y2287920D02*
Y2333920D01*
X305700Y2287920D02*
X327700D01*
X305700Y2333920D02*
X327700D01*
X432700Y2287920D02*
Y2333920D01*
X454700Y2287920D02*
Y2333920D01*
X432700Y2287920D02*
X454700D01*
X432700Y2333920D02*
X454700D01*
X559700Y2287920D02*
Y2333920D01*
X581700Y2287920D02*
Y2333920D01*
X559700Y2287920D02*
X581700D01*
X559700Y2333920D02*
X581700D01*
X686700Y2287920D02*
Y2333920D01*
X708700Y2287920D02*
Y2333920D01*
X686700Y2287920D02*
X708700D01*
X686700Y2333920D02*
X708700D01*
X813700Y2287920D02*
Y2333920D01*
X835700Y2287920D02*
Y2333920D01*
X813700Y2287920D02*
X835700D01*
X813700Y2333920D02*
X835700D01*
X940700Y2287920D02*
Y2333920D01*
X962700Y2287920D02*
Y2333920D01*
X940700Y2287920D02*
X962700D01*
X940700Y2333920D02*
X962700D01*
X1067700Y2287920D02*
Y2333920D01*
X1089700Y2287920D02*
Y2333920D01*
X1067700Y2287920D02*
X1089700D01*
X1067700Y2333920D02*
X1089700D01*
X1194700Y2287920D02*
Y2333920D01*
X1216700Y2287920D02*
Y2333920D01*
X1194700Y2287920D02*
X1216700D01*
X1194700Y2333920D02*
X1216700D01*
X1321700Y2287920D02*
Y2333920D01*
X1343700Y2287920D02*
Y2333920D01*
X1321700Y2287920D02*
X1343700D01*
X1321700Y2333920D02*
X1343700D01*
X197200Y1870720D02*
X309200D01*
X197200D02*
Y2090720D01*
X309200D01*
Y1870720D02*
Y2090720D01*
X578200Y2347750D02*
Y2375690D01*
X563200Y2347750D02*
Y2375690D01*
X578200D01*
X563200Y2347750D02*
X578200D01*
X324200D02*
Y2375690D01*
X309200Y2347750D02*
Y2375690D01*
X324200D01*
X309200Y2347750D02*
X324200D01*
X207600D02*
X222600D01*
X207600Y2375690D02*
X222600D01*
X207600Y2347750D02*
Y2375690D01*
X222600Y2347750D02*
Y2375690D01*
X705200Y2347750D02*
Y2375690D01*
X690200Y2347750D02*
Y2375690D01*
X705200D01*
X690200Y2347750D02*
X705200D01*
X944200D02*
X959200D01*
X944200Y2375690D02*
X959200D01*
X944200Y2347750D02*
Y2375690D01*
X959200Y2347750D02*
Y2375690D01*
X832200Y2347750D02*
Y2375690D01*
X817200Y2347750D02*
Y2375690D01*
X832200D01*
X817200Y2347750D02*
X832200D01*
X436200D02*
X451200D01*
X436200Y2375690D02*
X451200D01*
X436200Y2347750D02*
Y2375690D01*
X451200Y2347750D02*
Y2375690D01*
X1340200Y2347750D02*
Y2375690D01*
X1325200Y2347750D02*
Y2375690D01*
X1340200D01*
X1325200Y2347750D02*
X1340200D01*
X1198200D02*
X1213200D01*
X1198200Y2375690D02*
X1213200D01*
X1198200Y2347750D02*
Y2375690D01*
X1213200Y2347750D02*
Y2375690D01*
X1086200Y2347750D02*
Y2375690D01*
X1071200Y2347750D02*
Y2375690D01*
X1086200D01*
X1071200Y2347750D02*
X1086200D01*
X1492250Y1201420D02*
Y1110234D01*
Y1201420D02*
X1657350D01*
Y1110234D01*
X1492250D02*
X1657350D01*
X1492250Y1074420D02*
Y983234D01*
Y1074420D02*
X1657350D01*
Y983234D01*
X1492250D02*
X1657350D01*
X1492250Y820420D02*
Y729234D01*
Y820420D02*
X1657350D01*
Y729234D01*
X1492250D02*
X1657350D01*
X1492250Y566420D02*
Y475234D01*
Y566420D02*
X1657350D01*
Y475234D01*
X1492250D02*
X1657350D01*
X1492250Y312420D02*
Y221234D01*
Y312420D02*
X1657350D01*
Y221234D01*
X1492250D02*
X1657350D01*
X1492250Y693420D02*
Y602234D01*
Y693420D02*
X1657350D01*
Y602234D01*
X1492250D02*
X1657350D01*
X1492250Y439420D02*
Y348234D01*
Y439420D02*
X1657350D01*
Y348234D01*
X1492250D02*
X1657350D01*
X1492250Y947420D02*
Y856234D01*
Y947420D02*
X1657350D01*
Y856234D01*
X1492250D02*
X1657350D01*
X1907400Y1344500D02*
X1953400D01*
X1907400Y1322500D02*
X1953400D01*
X1907400Y1344500D02*
Y1322500D01*
X1953400Y1344500D02*
Y1322500D01*
X1907400Y1242900D02*
X1953400D01*
X1907400Y1220900D02*
X1953400D01*
X1907400Y1242900D02*
Y1220900D01*
X1953400Y1242900D02*
Y1220900D01*
X1907400Y1115900D02*
X1953400D01*
X1907400Y1093900D02*
X1953400D01*
X1907400Y1115900D02*
Y1093900D01*
X1953400Y1115900D02*
Y1093900D01*
X1907400Y988900D02*
X1953400D01*
X1907400Y966900D02*
X1953400D01*
X1907400Y988900D02*
Y966900D01*
X1953400Y988900D02*
Y966900D01*
X1907400Y861900D02*
X1953400D01*
X1907400Y839900D02*
X1953400D01*
X1907400Y861900D02*
Y839900D01*
X1953400Y861900D02*
Y839900D01*
X1907400Y734900D02*
X1953400D01*
X1907400Y712900D02*
X1953400D01*
X1907400Y734900D02*
Y712900D01*
X1953400Y734900D02*
Y712900D01*
X1907400Y607900D02*
X1953400D01*
X1907400Y585900D02*
X1953400D01*
X1907400Y607900D02*
Y585900D01*
X1953400Y607900D02*
Y585900D01*
X1907400Y480900D02*
X1953400D01*
X1907400Y458900D02*
X1953400D01*
X1907400Y480900D02*
Y458900D01*
X1953400Y480900D02*
Y458900D01*
X1907400Y353900D02*
X1953400D01*
X1907400Y331900D02*
X1953400D01*
X1907400Y353900D02*
Y331900D01*
X1953400Y353900D02*
Y331900D01*
X1907400Y226900D02*
X1953400D01*
X1907400Y204900D02*
X1953400D01*
X1907400Y226900D02*
Y204900D01*
X1953400Y226900D02*
Y204900D01*
X1490200Y1351400D02*
Y1239400D01*
Y1351400D02*
X1710200D01*
Y1239400D01*
X1490200D02*
X1710200D01*
X1967230Y970400D02*
X1995170D01*
X1967230Y985400D02*
X1995170D01*
Y970400D01*
X1967230Y985400D02*
Y970400D01*
Y1224400D02*
X1995170D01*
X1967230Y1239400D02*
X1995170D01*
Y1224400D01*
X1967230Y1239400D02*
Y1224400D01*
Y1341000D02*
Y1326000D01*
X1995170Y1341000D02*
Y1326000D01*
X1967230Y1341000D02*
X1995170D01*
X1967230Y1326000D02*
X1995170D01*
X1967230Y843400D02*
X1995170D01*
X1967230Y858400D02*
X1995170D01*
Y843400D01*
X1967230Y858400D02*
Y843400D01*
Y604400D02*
Y589400D01*
X1995170Y604400D02*
Y589400D01*
X1967230Y604400D02*
X1995170D01*
X1967230Y589400D02*
X1995170D01*
X1967230Y716400D02*
X1995170D01*
X1967230Y731400D02*
X1995170D01*
Y716400D01*
X1967230Y731400D02*
Y716400D01*
Y1112400D02*
Y1097400D01*
X1995170Y1112400D02*
Y1097400D01*
X1967230Y1112400D02*
X1995170D01*
X1967230Y1097400D02*
X1995170D01*
X1967230Y208400D02*
X1995170D01*
X1967230Y223400D02*
X1995170D01*
Y208400D01*
X1967230Y223400D02*
Y208400D01*
Y350400D02*
Y335400D01*
X1995170Y350400D02*
Y335400D01*
X1967230Y350400D02*
X1995170D01*
X1967230Y335400D02*
X1995170D01*
X1967230Y462400D02*
X1995170D01*
X1967230Y477400D02*
X1995170D01*
Y462400D01*
X1967230Y477400D02*
Y462400D01*
M02*
