G04*
G04 #@! TF.GenerationSoftware,Altium Limited,Altium Designer,22.0.2 (36)*
G04*
G04 Layer_Color=8388736*
%FSLAX44Y44*%
%MOMM*%
G71*
G04*
G04 #@! TF.SameCoordinates,A2EA2B81-71FB-41A7-B433-9E60F2C241B4*
G04*
G04*
G04 #@! TF.FilePolarity,Negative*
G04*
G01*
G75*
%ADD10C,0.2540*%
%ADD13C,0.1524*%
%ADD35R,1.7032X1.2532*%
%ADD36R,1.0032X1.0032*%
%ADD37R,1.2532X1.7032*%
%ADD38R,1.0032X1.0032*%
%ADD39C,5.2032*%
%ADD40C,0.7112*%
%ADD41R,5.6642X5.6642*%
%ADD42C,5.6642*%
%ADD43O,1.7032X3.2032*%
%ADD44C,2.6032*%
%ADD45C,7.2032*%
%ADD46R,7.2032X7.2032*%
%ADD47C,6.2032*%
%ADD48R,5.6642X5.6642*%
%ADD49O,3.2032X1.7032*%
%ADD50R,7.2032X7.2032*%
G36*
X168110Y2253770D02*
X159220D01*
Y2255040D01*
X143980D01*
Y2249960D01*
X141440D01*
Y2257580D01*
X159220D01*
Y2258850D01*
X168110Y2253770D01*
D02*
G37*
G36*
X184620Y2246150D02*
X177000Y2242340D01*
Y2244880D01*
X154140D01*
Y2237260D01*
X165570Y2237260D01*
Y2239800D01*
X173190D01*
Y2232180D01*
X165570D01*
Y2234720D01*
X151600Y2234720D01*
Y2244880D01*
X132550Y2244880D01*
X132549Y2244881D01*
X132337Y2244429D01*
X131677Y2243679D01*
X130833Y2243144D01*
X129874Y2242865D01*
X128875Y2242865D01*
X127916Y2243144D01*
X127073Y2243679D01*
X126412Y2244428D01*
X126200Y2244880D01*
X126200Y2247420D01*
X177000D01*
Y2249960D01*
X184620Y2246150D01*
D02*
G37*
G36*
X1788160Y1823720D02*
X1805940D01*
Y1803400D01*
X1846580D01*
X1847324Y1804144D01*
Y1804144D01*
X1847751Y1804571D01*
X1848755Y1805242D01*
X1849871Y1805704D01*
X1851056Y1805940D01*
X1852264D01*
X1853449Y1805704D01*
X1854565Y1805242D01*
X1855569Y1804571D01*
X1855996Y1804144D01*
X1856740Y1803400D01*
X1856740Y1798320D01*
X1762760D01*
Y1793240D01*
X1742440Y1800860D01*
X1762760Y1808480D01*
Y1803400D01*
X1800860D01*
Y1818640D01*
X1788160D01*
Y1813560D01*
X1772920D01*
Y1828800D01*
X1788160D01*
Y1823720D01*
D02*
G37*
G36*
X1823720Y1778000D02*
X1790700D01*
Y1775460D01*
X1770380Y1785620D01*
X1790700D01*
Y1783080D01*
X1818640D01*
Y1793240D01*
X1823720D01*
Y1778000D01*
D02*
G37*
G36*
X168110Y1669570D02*
X159220D01*
Y1670840D01*
X143980D01*
Y1665760D01*
X141440D01*
Y1673380D01*
X159220D01*
Y1674650D01*
X168110Y1669570D01*
D02*
G37*
G36*
X184620Y1661950D02*
X177000Y1658140D01*
Y1660680D01*
X154140D01*
Y1653060D01*
X165570Y1653060D01*
Y1655600D01*
X173190D01*
Y1647980D01*
X165570D01*
Y1650520D01*
X151600Y1650520D01*
Y1660680D01*
X132550Y1660680D01*
X132549Y1660681D01*
X132337Y1660229D01*
X131677Y1659479D01*
X130833Y1658944D01*
X129874Y1658665D01*
X128875Y1658665D01*
X127916Y1658944D01*
X127073Y1659479D01*
X126412Y1660228D01*
X126200Y1660680D01*
X126200Y1663220D01*
X177000D01*
Y1665760D01*
X184620Y1661950D01*
D02*
G37*
G36*
X1877060Y1389380D02*
X1878330D01*
X1873250Y1380490D01*
Y1389380D01*
X1874520D01*
Y1404620D01*
X1869440D01*
Y1407160D01*
X1877060D01*
Y1389380D01*
D02*
G37*
G36*
X1866900Y1422400D02*
Y1371600D01*
X1869440D01*
X1865630Y1363980D01*
X1861820Y1371600D01*
X1864360D01*
Y1394460D01*
X1856740D01*
X1856740Y1383030D01*
X1859280D01*
Y1375410D01*
X1851660D01*
Y1383030D01*
X1854200D01*
X1854200Y1397000D01*
X1864360D01*
X1864360Y1416050D01*
X1864361Y1416051D01*
X1863909Y1416263D01*
X1863159Y1416924D01*
X1862624Y1417767D01*
X1862345Y1418726D01*
X1862345Y1419725D01*
X1862624Y1420684D01*
X1863159Y1421527D01*
X1863908Y1422188D01*
X1864360Y1422400D01*
X1866900Y1422400D01*
D02*
G37*
G36*
X168110Y1085370D02*
X159220D01*
Y1086640D01*
X143980D01*
Y1081560D01*
X141440D01*
Y1089180D01*
X159220D01*
Y1090450D01*
X168110Y1085370D01*
D02*
G37*
G36*
X184620Y1077750D02*
X177000Y1073940D01*
Y1076480D01*
X154140D01*
Y1068860D01*
X165570Y1068860D01*
Y1071400D01*
X173190D01*
Y1063780D01*
X165570D01*
Y1066320D01*
X151600Y1066320D01*
Y1076480D01*
X132550Y1076480D01*
X132549Y1076481D01*
X132337Y1076029D01*
X131677Y1075279D01*
X130833Y1074744D01*
X129874Y1074465D01*
X128875Y1074465D01*
X127916Y1074744D01*
X127073Y1075279D01*
X126412Y1076028D01*
X126200Y1076480D01*
X126200Y1079020D01*
X177000D01*
Y1081560D01*
X184620Y1077750D01*
D02*
G37*
G36*
X168110Y501170D02*
X159220D01*
Y502440D01*
X143980D01*
Y497360D01*
X141440D01*
Y504980D01*
X159220D01*
Y506250D01*
X168110Y501170D01*
D02*
G37*
G36*
X184620Y493550D02*
X177000Y489740D01*
Y492280D01*
X154140D01*
Y484660D01*
X165570Y484660D01*
Y487200D01*
X173190D01*
Y479580D01*
X165570D01*
Y482120D01*
X151600Y482120D01*
Y492280D01*
X132550Y492280D01*
X132549Y492281D01*
X132337Y491829D01*
X131677Y491079D01*
X130833Y490544D01*
X129874Y490265D01*
X128875Y490265D01*
X127916Y490544D01*
X127073Y491079D01*
X126412Y491828D01*
X126200Y492280D01*
X126200Y494820D01*
X177000D01*
Y497360D01*
X184620Y493550D01*
D02*
G37*
D10*
X1769160Y1861820D02*
X1784397D01*
X1769160D02*
Y1871252D01*
X1776415Y1861820D02*
Y1867625D01*
X1774239Y1872994D02*
X1781494D01*
X1783671Y1873719D01*
X1784397Y1875170D01*
Y1877347D01*
X1783671Y1878798D01*
X1781494Y1880975D01*
X1774239D02*
X1784397D01*
X1776415Y1892946D02*
X1774964Y1892221D01*
X1774239Y1890044D01*
Y1887868D01*
X1774964Y1885691D01*
X1776415Y1884965D01*
X1777866Y1885691D01*
X1778592Y1887142D01*
X1779318Y1890770D01*
X1780043Y1892221D01*
X1781494Y1892946D01*
X1782220D01*
X1783671Y1892221D01*
X1784397Y1890044D01*
Y1887868D01*
X1783671Y1885691D01*
X1782220Y1884965D01*
X1778592Y1896139D02*
Y1904846D01*
X1777141D01*
X1775690Y1904120D01*
X1774964Y1903394D01*
X1774239Y1901943D01*
Y1899767D01*
X1774964Y1898316D01*
X1776415Y1896864D01*
X1778592Y1896139D01*
X1780043D01*
X1782220Y1896864D01*
X1783671Y1898316D01*
X1784397Y1899767D01*
Y1901943D01*
X1783671Y1903394D01*
X1782220Y1904846D01*
X1769160Y1920082D02*
X1784397D01*
X1769160D02*
Y1926613D01*
X1769885Y1928789D01*
X1770611Y1929515D01*
X1772062Y1930240D01*
X1773513D01*
X1774964Y1929515D01*
X1775690Y1928789D01*
X1776415Y1926613D01*
Y1920082D02*
Y1926613D01*
X1777141Y1928789D01*
X1777866Y1929515D01*
X1779318Y1930240D01*
X1781494D01*
X1782945Y1929515D01*
X1783671Y1928789D01*
X1784397Y1926613D01*
Y1920082D01*
X1774239Y1937278D02*
X1774964Y1935827D01*
X1776415Y1934376D01*
X1778592Y1933650D01*
X1780043D01*
X1782220Y1934376D01*
X1783671Y1935827D01*
X1784397Y1937278D01*
Y1939455D01*
X1783671Y1940906D01*
X1782220Y1942357D01*
X1780043Y1943083D01*
X1778592D01*
X1776415Y1942357D01*
X1774964Y1940906D01*
X1774239Y1939455D01*
Y1937278D01*
Y1955127D02*
X1784397D01*
X1776415D02*
X1774964Y1953676D01*
X1774239Y1952225D01*
Y1950048D01*
X1774964Y1948597D01*
X1776415Y1947146D01*
X1778592Y1946420D01*
X1780043D01*
X1782220Y1947146D01*
X1783671Y1948597D01*
X1784397Y1950048D01*
Y1952225D01*
X1783671Y1953676D01*
X1782220Y1955127D01*
X1774239Y1959190D02*
X1784397D01*
X1778592D02*
X1776415Y1959916D01*
X1774964Y1961367D01*
X1774239Y1962818D01*
Y1964995D01*
X1769160Y1975080D02*
X1784397D01*
X1776415D02*
X1774964Y1973629D01*
X1774239Y1972177D01*
Y1970001D01*
X1774964Y1968550D01*
X1776415Y1967099D01*
X1778592Y1966373D01*
X1780043D01*
X1782220Y1967099D01*
X1783671Y1968550D01*
X1784397Y1970001D01*
Y1972177D01*
X1783671Y1973629D01*
X1782220Y1975080D01*
X1776415Y1987124D02*
X1774964Y1986398D01*
X1774239Y1984222D01*
Y1982045D01*
X1774964Y1979868D01*
X1776415Y1979143D01*
X1777866Y1979868D01*
X1778592Y1981320D01*
X1779318Y1984947D01*
X1780043Y1986398D01*
X1781494Y1987124D01*
X1782220D01*
X1783671Y1986398D01*
X1784397Y1984222D01*
Y1982045D01*
X1783671Y1979868D01*
X1782220Y1979143D01*
X1777141Y2002288D02*
Y2008818D01*
X1776415Y2010995D01*
X1775690Y2011720D01*
X1774239Y2012446D01*
X1772062D01*
X1770611Y2011720D01*
X1769885Y2010995D01*
X1769160Y2008818D01*
Y2002288D01*
X1784397D01*
X1774239Y2024563D02*
X1784397D01*
X1776415D02*
X1774964Y2023112D01*
X1774239Y2021661D01*
Y2019484D01*
X1774964Y2018033D01*
X1776415Y2016582D01*
X1778592Y2015856D01*
X1780043D01*
X1782220Y2016582D01*
X1783671Y2018033D01*
X1784397Y2019484D01*
Y2021661D01*
X1783671Y2023112D01*
X1782220Y2024563D01*
X1774239Y2028626D02*
X1784397D01*
X1777141D02*
X1774964Y2030803D01*
X1774239Y2032254D01*
Y2034430D01*
X1774964Y2035882D01*
X1777141Y2036607D01*
X1784397D01*
X1778592Y2040598D02*
Y2049304D01*
X1777141D01*
X1775690Y2048579D01*
X1774964Y2047853D01*
X1774239Y2046402D01*
Y2044225D01*
X1774964Y2042774D01*
X1776415Y2041323D01*
X1778592Y2040598D01*
X1780043D01*
X1782220Y2041323D01*
X1783671Y2042774D01*
X1784397Y2044225D01*
Y2046402D01*
X1783671Y2047853D01*
X1782220Y2049304D01*
X1769160Y2052569D02*
X1784397D01*
X1769160Y2067734D02*
X1784397Y2073538D01*
X1769160Y2079343D02*
X1784397Y2073538D01*
X1772787Y2082027D02*
X1772062D01*
X1770611Y2082753D01*
X1769885Y2083478D01*
X1769160Y2084929D01*
Y2087832D01*
X1769885Y2089283D01*
X1770611Y2090008D01*
X1772062Y2090734D01*
X1773513D01*
X1774964Y2090008D01*
X1777141Y2088557D01*
X1784397Y2081302D01*
Y2091459D01*
X1794265Y1861820D02*
X1809502D01*
X1794265D02*
Y1866899D01*
X1794991Y1869076D01*
X1796442Y1870527D01*
X1797893Y1871252D01*
X1800070Y1871978D01*
X1803698D01*
X1805874Y1871252D01*
X1807325Y1870527D01*
X1808777Y1869076D01*
X1809502Y1866899D01*
Y1861820D01*
X1803698Y1875388D02*
Y1884095D01*
X1802247D01*
X1800795Y1883369D01*
X1800070Y1882643D01*
X1799344Y1881192D01*
Y1879016D01*
X1800070Y1877565D01*
X1801521Y1876113D01*
X1803698Y1875388D01*
X1805149D01*
X1807325Y1876113D01*
X1808777Y1877565D01*
X1809502Y1879016D01*
Y1881192D01*
X1808777Y1882643D01*
X1807325Y1884095D01*
X1801521Y1895341D02*
X1800070Y1894615D01*
X1799344Y1892439D01*
Y1890262D01*
X1800070Y1888085D01*
X1801521Y1887360D01*
X1802972Y1888085D01*
X1803698Y1889536D01*
X1804423Y1893164D01*
X1805149Y1894615D01*
X1806600Y1895341D01*
X1807325D01*
X1808777Y1894615D01*
X1809502Y1892439D01*
Y1890262D01*
X1808777Y1888085D01*
X1807325Y1887360D01*
X1794265Y1899984D02*
X1794991Y1900710D01*
X1794265Y1901436D01*
X1793540Y1900710D01*
X1794265Y1899984D01*
X1799344Y1900710D02*
X1809502D01*
X1799344Y1912827D02*
X1810953D01*
X1813130Y1912101D01*
X1813855Y1911376D01*
X1814581Y1909925D01*
Y1907748D01*
X1813855Y1906297D01*
X1801521Y1912827D02*
X1800070Y1911376D01*
X1799344Y1909925D01*
Y1907748D01*
X1800070Y1906297D01*
X1801521Y1904846D01*
X1803698Y1904120D01*
X1805149D01*
X1807325Y1904846D01*
X1808777Y1906297D01*
X1809502Y1907748D01*
Y1909925D01*
X1808777Y1911376D01*
X1807325Y1912827D01*
X1799344Y1916890D02*
X1809502D01*
X1802247D02*
X1800070Y1919067D01*
X1799344Y1920518D01*
Y1922694D01*
X1800070Y1924146D01*
X1802247Y1924871D01*
X1809502D01*
X1803698Y1928862D02*
Y1937568D01*
X1802247D01*
X1800795Y1936843D01*
X1800070Y1936117D01*
X1799344Y1934666D01*
Y1932489D01*
X1800070Y1931038D01*
X1801521Y1929587D01*
X1803698Y1928862D01*
X1805149D01*
X1807325Y1929587D01*
X1808777Y1931038D01*
X1809502Y1932489D01*
Y1934666D01*
X1808777Y1936117D01*
X1807325Y1937568D01*
X1794265Y1949540D02*
X1809502D01*
X1801521D02*
X1800070Y1948089D01*
X1799344Y1946638D01*
Y1944461D01*
X1800070Y1943010D01*
X1801521Y1941559D01*
X1803698Y1940833D01*
X1805149D01*
X1807325Y1941559D01*
X1808777Y1943010D01*
X1809502Y1944461D01*
Y1946638D01*
X1808777Y1948089D01*
X1807325Y1949540D01*
X1794265Y1971379D02*
Y1969928D01*
X1794991Y1968477D01*
X1797168Y1967752D01*
X1809502D01*
X1799344Y1965575D02*
Y1970654D01*
Y1977184D02*
X1800070Y1975733D01*
X1801521Y1974282D01*
X1803698Y1973556D01*
X1805149D01*
X1807325Y1974282D01*
X1808777Y1975733D01*
X1809502Y1977184D01*
Y1979361D01*
X1808777Y1980812D01*
X1807325Y1982263D01*
X1805149Y1982988D01*
X1803698D01*
X1801521Y1982263D01*
X1800070Y1980812D01*
X1799344Y1979361D01*
Y1977184D01*
Y1986326D02*
X1809502D01*
X1803698D02*
X1801521Y1987051D01*
X1800070Y1988503D01*
X1799344Y1989954D01*
Y1992130D01*
X1794265Y2010560D02*
X1809502D01*
X1794265Y2005481D02*
Y2015638D01*
X1799344Y2017452D02*
X1809502D01*
X1803698D02*
X1801521Y2018178D01*
X1800070Y2019629D01*
X1799344Y2021080D01*
Y2023257D01*
X1794265Y2026087D02*
X1794991Y2026812D01*
X1794265Y2027538D01*
X1793540Y2026812D01*
X1794265Y2026087D01*
X1799344Y2026812D02*
X1809502D01*
X1794265Y2032399D02*
X1806600D01*
X1808777Y2033125D01*
X1809502Y2034576D01*
Y2036027D01*
X1799344Y2030222D02*
Y2035301D01*
Y2041831D02*
X1800070Y2040380D01*
X1801521Y2038929D01*
X1803698Y2038203D01*
X1805149D01*
X1807325Y2038929D01*
X1808777Y2040380D01*
X1809502Y2041831D01*
Y2044008D01*
X1808777Y2045459D01*
X1807325Y2046910D01*
X1805149Y2047636D01*
X1803698D01*
X1801521Y2046910D01*
X1800070Y2045459D01*
X1799344Y2044008D01*
Y2041831D01*
Y2050973D02*
X1809502D01*
X1802247D02*
X1800070Y2053150D01*
X1799344Y2054601D01*
Y2056778D01*
X1800070Y2058229D01*
X1802247Y2058954D01*
X1809502D01*
Y2074554D02*
X1794265Y2068749D01*
X1809502Y2062945D01*
X1804423Y2065122D02*
Y2072377D01*
X1794265Y2078109D02*
X1809502D01*
X1800070Y2104157D02*
X1798619Y2103431D01*
X1797893Y2101980D01*
Y2099803D01*
X1798619Y2098352D01*
X1799344Y2097627D01*
X1801521Y2096901D01*
X1803698D01*
X1805149Y2097627D01*
X1805874Y2099078D01*
Y2101254D01*
X1805149Y2102706D01*
X1803698Y2103431D01*
X1797893Y2099803D02*
X1799344Y2098352D01*
X1801521Y2097627D01*
X1803698D01*
X1805149Y2098352D01*
X1805874Y2099078D01*
X1797893Y2104157D02*
X1803698Y2103431D01*
X1805149D01*
X1805874Y2104882D01*
Y2106333D01*
X1804423Y2107784D01*
X1802247Y2108510D01*
X1800795D01*
X1798619Y2107784D01*
X1797168Y2107059D01*
X1795717Y2105608D01*
X1794991Y2104157D01*
X1794265Y2101980D01*
Y2099803D01*
X1794991Y2097627D01*
X1795717Y2096176D01*
X1797168Y2094724D01*
X1798619Y2093999D01*
X1800795Y2093273D01*
X1802972D01*
X1805149Y2093999D01*
X1806600Y2094724D01*
X1808051Y2096176D01*
X1808777Y2097627D01*
X1809502Y2099803D01*
Y2101980D01*
X1808777Y2104157D01*
X1808051Y2105608D01*
X1807325Y2106333D01*
X1797893Y2104882D02*
X1803698Y2104157D01*
X1805149D01*
X1805874Y2104882D01*
X1794265Y2124400D02*
X1805149D01*
X1807325Y2125125D01*
X1808777Y2126577D01*
X1809502Y2128753D01*
Y2130204D01*
X1808777Y2132381D01*
X1807325Y2133832D01*
X1805149Y2134558D01*
X1794265D01*
X1797893Y2149649D02*
X1796442Y2148924D01*
X1794991Y2147473D01*
X1794265Y2146021D01*
Y2143119D01*
X1794991Y2141668D01*
X1796442Y2140217D01*
X1797893Y2139491D01*
X1800070Y2138766D01*
X1803698D01*
X1805874Y2139491D01*
X1807325Y2140217D01*
X1808777Y2141668D01*
X1809502Y2143119D01*
Y2146021D01*
X1808777Y2147473D01*
X1807325Y2148924D01*
X1805874Y2149649D01*
X1796442Y2164088D02*
X1794991Y2162637D01*
X1794265Y2160460D01*
Y2157558D01*
X1794991Y2155381D01*
X1796442Y2153930D01*
X1797893D01*
X1799344Y2154656D01*
X1800070Y2155381D01*
X1800795Y2156832D01*
X1802247Y2161186D01*
X1802972Y2162637D01*
X1803698Y2163362D01*
X1805149Y2164088D01*
X1807325D01*
X1808777Y2162637D01*
X1809502Y2160460D01*
Y2157558D01*
X1808777Y2155381D01*
X1807325Y2153930D01*
X1794265Y2167498D02*
X1809502D01*
X1794265D02*
Y2172577D01*
X1794991Y2174754D01*
X1796442Y2176205D01*
X1797893Y2176930D01*
X1800070Y2177656D01*
X1803698D01*
X1805874Y2176930D01*
X1807325Y2176205D01*
X1808777Y2174754D01*
X1809502Y2172577D01*
Y2167498D01*
X1823724Y1861820D02*
X1838961D01*
X1830980D02*
X1829529Y1863271D01*
X1828803Y1864722D01*
Y1866899D01*
X1829529Y1868350D01*
X1830980Y1869801D01*
X1833157Y1870527D01*
X1834608D01*
X1836784Y1869801D01*
X1838235Y1868350D01*
X1838961Y1866899D01*
Y1864722D01*
X1838235Y1863271D01*
X1836784Y1861820D01*
X1828803Y1874517D02*
X1838961Y1878871D01*
X1828803Y1883224D02*
X1838961Y1878871D01*
X1841863Y1877419D01*
X1843314Y1875968D01*
X1844040Y1874517D01*
Y1873792D01*
X1823724Y1897735D02*
X1838961D01*
X1823724D02*
Y1904265D01*
X1824450Y1906442D01*
X1825175Y1907168D01*
X1826627Y1907893D01*
X1828078D01*
X1829529Y1907168D01*
X1830254Y1906442D01*
X1830980Y1904265D01*
Y1897735D01*
Y1902814D02*
X1838961Y1907893D01*
X1828803Y1912029D02*
X1838961Y1916382D01*
X1828803Y1920735D02*
X1838961Y1916382D01*
X1841863Y1914931D01*
X1843314Y1913480D01*
X1844040Y1912029D01*
Y1911303D01*
X1828803Y1931982D02*
X1838961D01*
X1830980D02*
X1829529Y1930531D01*
X1828803Y1929079D01*
Y1926903D01*
X1829529Y1925452D01*
X1830980Y1924000D01*
X1833157Y1923275D01*
X1834608D01*
X1836784Y1924000D01*
X1838235Y1925452D01*
X1838961Y1926903D01*
Y1929079D01*
X1838235Y1930531D01*
X1836784Y1931982D01*
X1828803Y1936045D02*
X1838961D01*
X1831705D02*
X1829529Y1938221D01*
X1828803Y1939673D01*
Y1941849D01*
X1829529Y1943300D01*
X1831705Y1944026D01*
X1838961D01*
X1823724Y1965067D02*
X1838961D01*
X1823724Y1959988D02*
Y1970146D01*
X1828803Y1971960D02*
X1838961D01*
X1833157D02*
X1830980Y1972685D01*
X1829529Y1974137D01*
X1828803Y1975588D01*
Y1977764D01*
Y1987850D02*
X1838961D01*
X1830980D02*
X1829529Y1986398D01*
X1828803Y1984947D01*
Y1982771D01*
X1829529Y1981320D01*
X1830980Y1979868D01*
X1833157Y1979143D01*
X1834608D01*
X1836784Y1979868D01*
X1838235Y1981320D01*
X1838961Y1982771D01*
Y1984947D01*
X1838235Y1986398D01*
X1836784Y1987850D01*
X1828803Y1991913D02*
X1838961D01*
X1831705D02*
X1829529Y1994089D01*
X1828803Y1995541D01*
Y1997717D01*
X1829529Y1999168D01*
X1831705Y1999894D01*
X1838961D01*
X1838235Y2005336D02*
X1838961Y2004610D01*
X1838235Y2003884D01*
X1837510Y2004610D01*
X1838235Y2005336D01*
X1839687D01*
X1841138Y2004610D01*
X1841863Y2003884D01*
X1823724Y2027901D02*
X1835333D01*
X1837510Y2027175D01*
X1838235Y2026449D01*
X1838961Y2024998D01*
Y2023547D01*
X1838235Y2022096D01*
X1837510Y2021371D01*
X1835333Y2020645D01*
X1833882D01*
X1828803Y2040525D02*
X1838961D01*
X1830980D02*
X1829529Y2039074D01*
X1828803Y2037623D01*
Y2035446D01*
X1829529Y2033995D01*
X1830980Y2032544D01*
X1833157Y2031819D01*
X1834608D01*
X1836784Y2032544D01*
X1838235Y2033995D01*
X1838961Y2035446D01*
Y2037623D01*
X1838235Y2039074D01*
X1836784Y2040525D01*
X1828803Y2044588D02*
X1838961D01*
X1831705D02*
X1829529Y2046765D01*
X1828803Y2048216D01*
Y2050393D01*
X1829529Y2051844D01*
X1831705Y2052569D01*
X1838961D01*
X1828803Y2056560D02*
X1836059D01*
X1838235Y2057286D01*
X1838961Y2058737D01*
Y2060913D01*
X1838235Y2062365D01*
X1836059Y2064541D01*
X1828803D02*
X1838961D01*
X1828803Y2077238D02*
X1838961D01*
X1830980D02*
X1829529Y2075787D01*
X1828803Y2074336D01*
Y2072160D01*
X1829529Y2070708D01*
X1830980Y2069257D01*
X1833157Y2068532D01*
X1834608D01*
X1836784Y2069257D01*
X1838235Y2070708D01*
X1838961Y2072160D01*
Y2074336D01*
X1838235Y2075787D01*
X1836784Y2077238D01*
X1828803Y2081302D02*
X1838961D01*
X1833157D02*
X1830980Y2082027D01*
X1829529Y2083478D01*
X1828803Y2084929D01*
Y2087106D01*
Y2089210D02*
X1838961Y2093564D01*
X1828803Y2097917D02*
X1838961Y2093564D01*
X1841863Y2092112D01*
X1843314Y2090661D01*
X1844040Y2089210D01*
Y2088485D01*
X1827352Y2113154D02*
X1826627D01*
X1825175Y2113879D01*
X1824450Y2114605D01*
X1823724Y2116056D01*
Y2118958D01*
X1824450Y2120409D01*
X1825175Y2121135D01*
X1826627Y2121860D01*
X1828078D01*
X1829529Y2121135D01*
X1831705Y2119684D01*
X1838961Y2112428D01*
Y2122586D01*
X1823724Y2130349D02*
X1824450Y2128173D01*
X1826627Y2126722D01*
X1830254Y2125996D01*
X1832431D01*
X1836059Y2126722D01*
X1838235Y2128173D01*
X1838961Y2130349D01*
Y2131801D01*
X1838235Y2133977D01*
X1836059Y2135428D01*
X1832431Y2136154D01*
X1830254D01*
X1826627Y2135428D01*
X1824450Y2133977D01*
X1823724Y2131801D01*
Y2130349D01*
X1827352Y2140290D02*
X1826627D01*
X1825175Y2141015D01*
X1824450Y2141741D01*
X1823724Y2143192D01*
Y2146094D01*
X1824450Y2147545D01*
X1825175Y2148271D01*
X1826627Y2148996D01*
X1828078D01*
X1829529Y2148271D01*
X1831705Y2146820D01*
X1838961Y2139564D01*
Y2149722D01*
X1826627Y2153132D02*
X1825901Y2154583D01*
X1823724Y2156760D01*
X1838961D01*
D13*
X166912Y467896D02*
X156755D01*
X166912D02*
Y461608D01*
X162076Y467896D02*
Y464026D01*
X163527Y460447D02*
X158689D01*
X157238Y459963D01*
X156755Y458996D01*
Y457545D01*
X157238Y456577D01*
X158689Y455126D01*
X163527D02*
X156755D01*
X162076Y447145D02*
X163043Y447629D01*
X163527Y449080D01*
Y450531D01*
X163043Y451982D01*
X162076Y452466D01*
X161108Y451982D01*
X160624Y451015D01*
X160141Y448596D01*
X159657Y447629D01*
X158689Y447145D01*
X158206D01*
X157238Y447629D01*
X156755Y449080D01*
Y450531D01*
X157238Y451982D01*
X158206Y452466D01*
X160624Y445017D02*
Y439212D01*
X161592D01*
X162559Y439696D01*
X163043Y440180D01*
X163527Y441147D01*
Y442598D01*
X163043Y443566D01*
X162076Y444533D01*
X160624Y445017D01*
X159657D01*
X158206Y444533D01*
X157238Y443566D01*
X156755Y442598D01*
Y441147D01*
X157238Y440180D01*
X158206Y439212D01*
X166912Y429054D02*
X156755D01*
X166912D02*
Y424701D01*
X166429Y423250D01*
X165945Y422766D01*
X164978Y422282D01*
X164010D01*
X163043Y422766D01*
X162559Y423250D01*
X162076Y424701D01*
Y429054D02*
Y424701D01*
X161592Y423250D01*
X161108Y422766D01*
X160141Y422282D01*
X158689D01*
X157722Y422766D01*
X157238Y423250D01*
X156755Y424701D01*
Y429054D01*
X163527Y417591D02*
X163043Y418558D01*
X162076Y419525D01*
X160624Y420009D01*
X159657D01*
X158206Y419525D01*
X157238Y418558D01*
X156755Y417591D01*
Y416139D01*
X157238Y415172D01*
X158206Y414205D01*
X159657Y413721D01*
X160624D01*
X162076Y414205D01*
X163043Y415172D01*
X163527Y416139D01*
Y417591D01*
Y405691D02*
X156755D01*
X162076D02*
X163043Y406659D01*
X163527Y407626D01*
Y409077D01*
X163043Y410045D01*
X162076Y411012D01*
X160624Y411496D01*
X159657D01*
X158206Y411012D01*
X157238Y410045D01*
X156755Y409077D01*
Y407626D01*
X157238Y406659D01*
X158206Y405691D01*
X163527Y402983D02*
X156755D01*
X160624D02*
X162076Y402499D01*
X163043Y401532D01*
X163527Y400564D01*
Y399113D01*
X166912Y392390D02*
X156755D01*
X162076D02*
X163043Y393357D01*
X163527Y394324D01*
Y395775D01*
X163043Y396743D01*
X162076Y397710D01*
X160624Y398194D01*
X159657D01*
X158206Y397710D01*
X157238Y396743D01*
X156755Y395775D01*
Y394324D01*
X157238Y393357D01*
X158206Y392390D01*
X163527Y381700D02*
X156755Y378797D01*
X163527Y375895D02*
X156755Y378797D01*
X164494Y373767D02*
X164978D01*
X165945Y373283D01*
X166429Y372799D01*
X166912Y371832D01*
Y369897D01*
X166429Y368930D01*
X165945Y368446D01*
X164978Y367962D01*
X164010D01*
X163043Y368446D01*
X161592Y369413D01*
X156755Y374251D01*
Y367479D01*
X161108Y357224D02*
Y348517D01*
X166912Y337537D02*
X156755Y330765D01*
X166912D02*
X156755Y337537D01*
X166912Y325106D02*
X156755D01*
X166912Y328492D02*
Y321720D01*
X163527Y314223D02*
X162076Y314706D01*
X161108Y315674D01*
X160624Y317125D01*
Y317609D01*
X161108Y319060D01*
X162076Y320027D01*
X163527Y320511D01*
X164010D01*
X165461Y320027D01*
X166429Y319060D01*
X166912Y317609D01*
Y317125D01*
X166429Y315674D01*
X165461Y314706D01*
X163527Y314223D01*
X161108D01*
X158689Y314706D01*
X157238Y315674D01*
X156755Y317125D01*
Y318092D01*
X157238Y319543D01*
X158206Y320027D01*
X166912Y308563D02*
X166429Y310014D01*
X164978Y310982D01*
X162559Y311466D01*
X161108D01*
X158689Y310982D01*
X157238Y310014D01*
X156755Y308563D01*
Y307596D01*
X157238Y306145D01*
X158689Y305177D01*
X161108Y304694D01*
X162559D01*
X164978Y305177D01*
X166429Y306145D01*
X166912Y307596D01*
Y308563D01*
X161108Y302420D02*
Y293714D01*
X166912Y290715D02*
X156755Y283943D01*
X166912D02*
X156755Y290715D01*
X166912Y278283D02*
X156755D01*
X166912Y281669D02*
Y274897D01*
X165461Y267884D02*
X166429Y268367D01*
X166912Y269818D01*
Y270786D01*
X166429Y272237D01*
X164978Y273204D01*
X162559Y273688D01*
X160141D01*
X158206Y273204D01*
X157238Y272237D01*
X156755Y270786D01*
Y270302D01*
X157238Y268851D01*
X158206Y267884D01*
X159657Y267400D01*
X160141D01*
X161592Y267884D01*
X162559Y268851D01*
X163043Y270302D01*
Y270786D01*
X162559Y272237D01*
X161592Y273204D01*
X160141Y273688D01*
X166912Y262273D02*
X166429Y263724D01*
X164978Y264691D01*
X162559Y265175D01*
X161108D01*
X158689Y264691D01*
X157238Y263724D01*
X156755Y262273D01*
Y261305D01*
X157238Y259854D01*
X158689Y258887D01*
X161108Y258403D01*
X162559D01*
X164978Y258887D01*
X166429Y259854D01*
X166912Y261305D01*
Y262273D01*
X150582Y467896D02*
X143326D01*
X141875Y467412D01*
X140908Y466445D01*
X140424Y464994D01*
Y464026D01*
X140908Y462575D01*
X141875Y461608D01*
X143326Y461124D01*
X150582D01*
X148163Y451063D02*
X149131Y451547D01*
X150098Y452514D01*
X150582Y453482D01*
Y455416D01*
X150098Y456384D01*
X149131Y457351D01*
X148163Y457835D01*
X146712Y458319D01*
X144294D01*
X142843Y457835D01*
X141875Y457351D01*
X140908Y456384D01*
X140424Y455416D01*
Y453482D01*
X140908Y452514D01*
X141875Y451547D01*
X142843Y451063D01*
X149131Y441437D02*
X150098Y442405D01*
X150582Y443856D01*
Y445791D01*
X150098Y447242D01*
X149131Y448209D01*
X148163D01*
X147196Y447725D01*
X146712Y447242D01*
X146229Y446274D01*
X145261Y443372D01*
X144777Y442405D01*
X144294Y441921D01*
X143326Y441437D01*
X141875D01*
X140908Y442405D01*
X140424Y443856D01*
Y445791D01*
X140908Y447242D01*
X141875Y448209D01*
X150582Y439164D02*
X140424D01*
X150582D02*
Y435778D01*
X150098Y434327D01*
X149131Y433359D01*
X148163Y432876D01*
X146712Y432392D01*
X144294D01*
X142843Y432876D01*
X141875Y433359D01*
X140908Y434327D01*
X140424Y435778D01*
Y439164D01*
X150582Y418751D02*
X140424D01*
X150582Y422137D02*
Y415366D01*
X147196Y414156D02*
X140424D01*
X144294D02*
X145745Y413673D01*
X146712Y412705D01*
X147196Y411738D01*
Y410287D01*
X150582Y408400D02*
X150098Y407916D01*
X150582Y407433D01*
X151066Y407916D01*
X150582Y408400D01*
X147196Y407916D02*
X140424D01*
X150582Y404192D02*
X142359D01*
X140908Y403708D01*
X140424Y402741D01*
Y401773D01*
X147196Y405643D02*
Y402257D01*
Y397904D02*
X146712Y398871D01*
X145745Y399839D01*
X144294Y400322D01*
X143326D01*
X141875Y399839D01*
X140908Y398871D01*
X140424Y397904D01*
Y396453D01*
X140908Y395485D01*
X141875Y394518D01*
X143326Y394034D01*
X144294D01*
X145745Y394518D01*
X146712Y395485D01*
X147196Y396453D01*
Y397904D01*
Y391809D02*
X140424D01*
X145261D02*
X146712Y390358D01*
X147196Y389391D01*
Y387939D01*
X146712Y386972D01*
X145261Y386488D01*
X140424D01*
Y376089D02*
X150582Y379958D01*
X140424Y383828D01*
X143810Y382377D02*
Y377540D01*
X150582Y373718D02*
X140424D01*
X166912Y1052096D02*
X156755D01*
X166912D02*
Y1045808D01*
X162076Y1052096D02*
Y1048226D01*
X163527Y1044647D02*
X158689D01*
X157238Y1044163D01*
X156755Y1043196D01*
Y1041745D01*
X157238Y1040777D01*
X158689Y1039326D01*
X163527D02*
X156755D01*
X162076Y1031345D02*
X163043Y1031829D01*
X163527Y1033280D01*
Y1034731D01*
X163043Y1036182D01*
X162076Y1036666D01*
X161108Y1036182D01*
X160624Y1035215D01*
X160141Y1032796D01*
X159657Y1031829D01*
X158689Y1031345D01*
X158206D01*
X157238Y1031829D01*
X156755Y1033280D01*
Y1034731D01*
X157238Y1036182D01*
X158206Y1036666D01*
X160624Y1029217D02*
Y1023412D01*
X161592D01*
X162559Y1023896D01*
X163043Y1024380D01*
X163527Y1025347D01*
Y1026798D01*
X163043Y1027766D01*
X162076Y1028733D01*
X160624Y1029217D01*
X159657D01*
X158206Y1028733D01*
X157238Y1027766D01*
X156755Y1026798D01*
Y1025347D01*
X157238Y1024380D01*
X158206Y1023412D01*
X166912Y1013254D02*
X156755D01*
X166912D02*
Y1008901D01*
X166429Y1007450D01*
X165945Y1006966D01*
X164978Y1006482D01*
X164010D01*
X163043Y1006966D01*
X162559Y1007450D01*
X162076Y1008901D01*
Y1013254D02*
Y1008901D01*
X161592Y1007450D01*
X161108Y1006966D01*
X160141Y1006482D01*
X158689D01*
X157722Y1006966D01*
X157238Y1007450D01*
X156755Y1008901D01*
Y1013254D01*
X163527Y1001791D02*
X163043Y1002758D01*
X162076Y1003725D01*
X160624Y1004209D01*
X159657D01*
X158206Y1003725D01*
X157238Y1002758D01*
X156755Y1001791D01*
Y1000340D01*
X157238Y999372D01*
X158206Y998405D01*
X159657Y997921D01*
X160624D01*
X162076Y998405D01*
X163043Y999372D01*
X163527Y1000340D01*
Y1001791D01*
Y989892D02*
X156755D01*
X162076D02*
X163043Y990859D01*
X163527Y991826D01*
Y993277D01*
X163043Y994245D01*
X162076Y995212D01*
X160624Y995696D01*
X159657D01*
X158206Y995212D01*
X157238Y994245D01*
X156755Y993277D01*
Y991826D01*
X157238Y990859D01*
X158206Y989892D01*
X163527Y987183D02*
X156755D01*
X160624D02*
X162076Y986699D01*
X163043Y985732D01*
X163527Y984764D01*
Y983313D01*
X166912Y976590D02*
X156755D01*
X162076D02*
X163043Y977557D01*
X163527Y978524D01*
Y979976D01*
X163043Y980943D01*
X162076Y981910D01*
X160624Y982394D01*
X159657D01*
X158206Y981910D01*
X157238Y980943D01*
X156755Y979976D01*
Y978524D01*
X157238Y977557D01*
X158206Y976590D01*
X163527Y965900D02*
X156755Y962997D01*
X163527Y960095D02*
X156755Y962997D01*
X164494Y957967D02*
X164978D01*
X165945Y957483D01*
X166429Y957000D01*
X166912Y956032D01*
Y954097D01*
X166429Y953130D01*
X165945Y952646D01*
X164978Y952162D01*
X164010D01*
X163043Y952646D01*
X161592Y953614D01*
X156755Y958451D01*
Y951679D01*
X161108Y941424D02*
Y932717D01*
X166912Y921737D02*
X156755Y914965D01*
X166912D02*
X156755Y921737D01*
X166912Y909306D02*
X156755D01*
X166912Y912692D02*
Y905920D01*
X163527Y898423D02*
X162076Y898906D01*
X161108Y899874D01*
X160624Y901325D01*
Y901809D01*
X161108Y903260D01*
X162076Y904227D01*
X163527Y904711D01*
X164010D01*
X165461Y904227D01*
X166429Y903260D01*
X166912Y901809D01*
Y901325D01*
X166429Y899874D01*
X165461Y898906D01*
X163527Y898423D01*
X161108D01*
X158689Y898906D01*
X157238Y899874D01*
X156755Y901325D01*
Y902292D01*
X157238Y903744D01*
X158206Y904227D01*
X166912Y892763D02*
X166429Y894214D01*
X164978Y895182D01*
X162559Y895666D01*
X161108D01*
X158689Y895182D01*
X157238Y894214D01*
X156755Y892763D01*
Y891796D01*
X157238Y890345D01*
X158689Y889377D01*
X161108Y888894D01*
X162559D01*
X164978Y889377D01*
X166429Y890345D01*
X166912Y891796D01*
Y892763D01*
X161108Y886620D02*
Y877914D01*
X166912Y874915D02*
X156755Y868143D01*
X166912D02*
X156755Y874915D01*
X166912Y862483D02*
X156755D01*
X166912Y865869D02*
Y859097D01*
X165461Y852084D02*
X166429Y852567D01*
X166912Y854018D01*
Y854986D01*
X166429Y856437D01*
X164978Y857404D01*
X162559Y857888D01*
X160141D01*
X158206Y857404D01*
X157238Y856437D01*
X156755Y854986D01*
Y854502D01*
X157238Y853051D01*
X158206Y852084D01*
X159657Y851600D01*
X160141D01*
X161592Y852084D01*
X162559Y853051D01*
X163043Y854502D01*
Y854986D01*
X162559Y856437D01*
X161592Y857404D01*
X160141Y857888D01*
X166912Y846473D02*
X166429Y847924D01*
X164978Y848891D01*
X162559Y849375D01*
X161108D01*
X158689Y848891D01*
X157238Y847924D01*
X156755Y846473D01*
Y845505D01*
X157238Y844054D01*
X158689Y843087D01*
X161108Y842603D01*
X162559D01*
X164978Y843087D01*
X166429Y844054D01*
X166912Y845505D01*
Y846473D01*
X150582Y1052096D02*
X143326D01*
X141875Y1051612D01*
X140908Y1050645D01*
X140424Y1049194D01*
Y1048226D01*
X140908Y1046775D01*
X141875Y1045808D01*
X143326Y1045324D01*
X150582D01*
X148163Y1035263D02*
X149131Y1035747D01*
X150098Y1036714D01*
X150582Y1037682D01*
Y1039616D01*
X150098Y1040584D01*
X149131Y1041551D01*
X148163Y1042035D01*
X146712Y1042519D01*
X144294D01*
X142843Y1042035D01*
X141875Y1041551D01*
X140908Y1040584D01*
X140424Y1039616D01*
Y1037682D01*
X140908Y1036714D01*
X141875Y1035747D01*
X142843Y1035263D01*
X149131Y1025637D02*
X150098Y1026605D01*
X150582Y1028056D01*
Y1029991D01*
X150098Y1031442D01*
X149131Y1032409D01*
X148163D01*
X147196Y1031926D01*
X146712Y1031442D01*
X146229Y1030474D01*
X145261Y1027572D01*
X144777Y1026605D01*
X144294Y1026121D01*
X143326Y1025637D01*
X141875D01*
X140908Y1026605D01*
X140424Y1028056D01*
Y1029991D01*
X140908Y1031442D01*
X141875Y1032409D01*
X150582Y1023364D02*
X140424D01*
X150582D02*
Y1019978D01*
X150098Y1018527D01*
X149131Y1017559D01*
X148163Y1017076D01*
X146712Y1016592D01*
X144294D01*
X142843Y1017076D01*
X141875Y1017559D01*
X140908Y1018527D01*
X140424Y1019978D01*
Y1023364D01*
X150582Y1002952D02*
X140424D01*
X150582Y1006338D02*
Y999566D01*
X147196Y998356D02*
X140424D01*
X144294D02*
X145745Y997873D01*
X146712Y996905D01*
X147196Y995938D01*
Y994487D01*
X150582Y992600D02*
X150098Y992116D01*
X150582Y991633D01*
X151066Y992116D01*
X150582Y992600D01*
X147196Y992116D02*
X140424D01*
X150582Y988392D02*
X142359D01*
X140908Y987908D01*
X140424Y986941D01*
Y985974D01*
X147196Y989843D02*
Y986457D01*
Y982104D02*
X146712Y983071D01*
X145745Y984039D01*
X144294Y984522D01*
X143326D01*
X141875Y984039D01*
X140908Y983071D01*
X140424Y982104D01*
Y980653D01*
X140908Y979685D01*
X141875Y978718D01*
X143326Y978234D01*
X144294D01*
X145745Y978718D01*
X146712Y979685D01*
X147196Y980653D01*
Y982104D01*
Y976009D02*
X140424D01*
X145261D02*
X146712Y974558D01*
X147196Y973591D01*
Y972140D01*
X146712Y971172D01*
X145261Y970688D01*
X140424D01*
Y960289D02*
X150582Y964158D01*
X140424Y968028D01*
X143810Y966577D02*
Y961740D01*
X150582Y957918D02*
X140424D01*
X166912Y1636296D02*
X156755D01*
X166912D02*
Y1630008D01*
X162076Y1636296D02*
Y1632426D01*
X163527Y1628847D02*
X158689D01*
X157238Y1628363D01*
X156755Y1627396D01*
Y1625945D01*
X157238Y1624977D01*
X158689Y1623526D01*
X163527D02*
X156755D01*
X162076Y1615545D02*
X163043Y1616029D01*
X163527Y1617480D01*
Y1618931D01*
X163043Y1620382D01*
X162076Y1620866D01*
X161108Y1620382D01*
X160624Y1619415D01*
X160141Y1616996D01*
X159657Y1616029D01*
X158689Y1615545D01*
X158206D01*
X157238Y1616029D01*
X156755Y1617480D01*
Y1618931D01*
X157238Y1620382D01*
X158206Y1620866D01*
X160624Y1613417D02*
Y1607612D01*
X161592D01*
X162559Y1608096D01*
X163043Y1608580D01*
X163527Y1609547D01*
Y1610998D01*
X163043Y1611966D01*
X162076Y1612933D01*
X160624Y1613417D01*
X159657D01*
X158206Y1612933D01*
X157238Y1611966D01*
X156755Y1610998D01*
Y1609547D01*
X157238Y1608580D01*
X158206Y1607612D01*
X166912Y1597454D02*
X156755D01*
X166912D02*
Y1593101D01*
X166429Y1591650D01*
X165945Y1591166D01*
X164978Y1590683D01*
X164010D01*
X163043Y1591166D01*
X162559Y1591650D01*
X162076Y1593101D01*
Y1597454D02*
Y1593101D01*
X161592Y1591650D01*
X161108Y1591166D01*
X160141Y1590683D01*
X158689D01*
X157722Y1591166D01*
X157238Y1591650D01*
X156755Y1593101D01*
Y1597454D01*
X163527Y1585991D02*
X163043Y1586958D01*
X162076Y1587925D01*
X160624Y1588409D01*
X159657D01*
X158206Y1587925D01*
X157238Y1586958D01*
X156755Y1585991D01*
Y1584539D01*
X157238Y1583572D01*
X158206Y1582605D01*
X159657Y1582121D01*
X160624D01*
X162076Y1582605D01*
X163043Y1583572D01*
X163527Y1584539D01*
Y1585991D01*
Y1574091D02*
X156755D01*
X162076D02*
X163043Y1575059D01*
X163527Y1576026D01*
Y1577477D01*
X163043Y1578445D01*
X162076Y1579412D01*
X160624Y1579896D01*
X159657D01*
X158206Y1579412D01*
X157238Y1578445D01*
X156755Y1577477D01*
Y1576026D01*
X157238Y1575059D01*
X158206Y1574091D01*
X163527Y1571383D02*
X156755D01*
X160624D02*
X162076Y1570899D01*
X163043Y1569932D01*
X163527Y1568964D01*
Y1567513D01*
X166912Y1560790D02*
X156755D01*
X162076D02*
X163043Y1561757D01*
X163527Y1562724D01*
Y1564176D01*
X163043Y1565143D01*
X162076Y1566110D01*
X160624Y1566594D01*
X159657D01*
X158206Y1566110D01*
X157238Y1565143D01*
X156755Y1564176D01*
Y1562724D01*
X157238Y1561757D01*
X158206Y1560790D01*
X163527Y1550100D02*
X156755Y1547197D01*
X163527Y1544295D02*
X156755Y1547197D01*
X164494Y1542167D02*
X164978D01*
X165945Y1541683D01*
X166429Y1541199D01*
X166912Y1540232D01*
Y1538297D01*
X166429Y1537330D01*
X165945Y1536846D01*
X164978Y1536362D01*
X164010D01*
X163043Y1536846D01*
X161592Y1537814D01*
X156755Y1542651D01*
Y1535879D01*
X161108Y1525624D02*
Y1516917D01*
X166912Y1505937D02*
X156755Y1499165D01*
X166912D02*
X156755Y1505937D01*
X166912Y1493506D02*
X156755D01*
X166912Y1496892D02*
Y1490120D01*
X163527Y1482623D02*
X162076Y1483106D01*
X161108Y1484074D01*
X160624Y1485525D01*
Y1486009D01*
X161108Y1487460D01*
X162076Y1488427D01*
X163527Y1488911D01*
X164010D01*
X165461Y1488427D01*
X166429Y1487460D01*
X166912Y1486009D01*
Y1485525D01*
X166429Y1484074D01*
X165461Y1483106D01*
X163527Y1482623D01*
X161108D01*
X158689Y1483106D01*
X157238Y1484074D01*
X156755Y1485525D01*
Y1486492D01*
X157238Y1487944D01*
X158206Y1488427D01*
X166912Y1476963D02*
X166429Y1478414D01*
X164978Y1479382D01*
X162559Y1479866D01*
X161108D01*
X158689Y1479382D01*
X157238Y1478414D01*
X156755Y1476963D01*
Y1475996D01*
X157238Y1474545D01*
X158689Y1473577D01*
X161108Y1473094D01*
X162559D01*
X164978Y1473577D01*
X166429Y1474545D01*
X166912Y1475996D01*
Y1476963D01*
X161108Y1470820D02*
Y1462114D01*
X166912Y1459115D02*
X156755Y1452343D01*
X166912D02*
X156755Y1459115D01*
X166912Y1446683D02*
X156755D01*
X166912Y1450069D02*
Y1443297D01*
X165461Y1436284D02*
X166429Y1436767D01*
X166912Y1438219D01*
Y1439186D01*
X166429Y1440637D01*
X164978Y1441604D01*
X162559Y1442088D01*
X160141D01*
X158206Y1441604D01*
X157238Y1440637D01*
X156755Y1439186D01*
Y1438702D01*
X157238Y1437251D01*
X158206Y1436284D01*
X159657Y1435800D01*
X160141D01*
X161592Y1436284D01*
X162559Y1437251D01*
X163043Y1438702D01*
Y1439186D01*
X162559Y1440637D01*
X161592Y1441604D01*
X160141Y1442088D01*
X166912Y1430673D02*
X166429Y1432124D01*
X164978Y1433091D01*
X162559Y1433575D01*
X161108D01*
X158689Y1433091D01*
X157238Y1432124D01*
X156755Y1430673D01*
Y1429705D01*
X157238Y1428254D01*
X158689Y1427287D01*
X161108Y1426803D01*
X162559D01*
X164978Y1427287D01*
X166429Y1428254D01*
X166912Y1429705D01*
Y1430673D01*
X150582Y1636296D02*
X143326D01*
X141875Y1635812D01*
X140908Y1634845D01*
X140424Y1633394D01*
Y1632426D01*
X140908Y1630975D01*
X141875Y1630008D01*
X143326Y1629524D01*
X150582D01*
X148163Y1619463D02*
X149131Y1619947D01*
X150098Y1620914D01*
X150582Y1621882D01*
Y1623816D01*
X150098Y1624784D01*
X149131Y1625751D01*
X148163Y1626235D01*
X146712Y1626719D01*
X144294D01*
X142843Y1626235D01*
X141875Y1625751D01*
X140908Y1624784D01*
X140424Y1623816D01*
Y1621882D01*
X140908Y1620914D01*
X141875Y1619947D01*
X142843Y1619463D01*
X149131Y1609837D02*
X150098Y1610805D01*
X150582Y1612256D01*
Y1614191D01*
X150098Y1615642D01*
X149131Y1616609D01*
X148163D01*
X147196Y1616125D01*
X146712Y1615642D01*
X146229Y1614674D01*
X145261Y1611772D01*
X144777Y1610805D01*
X144294Y1610321D01*
X143326Y1609837D01*
X141875D01*
X140908Y1610805D01*
X140424Y1612256D01*
Y1614191D01*
X140908Y1615642D01*
X141875Y1616609D01*
X150582Y1607564D02*
X140424D01*
X150582D02*
Y1604178D01*
X150098Y1602727D01*
X149131Y1601759D01*
X148163Y1601276D01*
X146712Y1600792D01*
X144294D01*
X142843Y1601276D01*
X141875Y1601759D01*
X140908Y1602727D01*
X140424Y1604178D01*
Y1607564D01*
X150582Y1587151D02*
X140424D01*
X150582Y1590538D02*
Y1583766D01*
X147196Y1582556D02*
X140424D01*
X144294D02*
X145745Y1582073D01*
X146712Y1581105D01*
X147196Y1580138D01*
Y1578687D01*
X150582Y1576800D02*
X150098Y1576317D01*
X150582Y1575833D01*
X151066Y1576317D01*
X150582Y1576800D01*
X147196Y1576317D02*
X140424D01*
X150582Y1572592D02*
X142359D01*
X140908Y1572108D01*
X140424Y1571141D01*
Y1570173D01*
X147196Y1574043D02*
Y1570657D01*
Y1566304D02*
X146712Y1567271D01*
X145745Y1568239D01*
X144294Y1568722D01*
X143326D01*
X141875Y1568239D01*
X140908Y1567271D01*
X140424Y1566304D01*
Y1564853D01*
X140908Y1563885D01*
X141875Y1562918D01*
X143326Y1562434D01*
X144294D01*
X145745Y1562918D01*
X146712Y1563885D01*
X147196Y1564853D01*
Y1566304D01*
Y1560209D02*
X140424D01*
X145261D02*
X146712Y1558758D01*
X147196Y1557791D01*
Y1556340D01*
X146712Y1555372D01*
X145261Y1554888D01*
X140424D01*
Y1544489D02*
X150582Y1548358D01*
X140424Y1552228D01*
X143810Y1550777D02*
Y1545940D01*
X150582Y1542119D02*
X140424D01*
X166912Y2220496D02*
X156755D01*
X166912D02*
Y2214208D01*
X162076Y2220496D02*
Y2216626D01*
X163527Y2213047D02*
X158689D01*
X157238Y2212563D01*
X156755Y2211596D01*
Y2210145D01*
X157238Y2209177D01*
X158689Y2207726D01*
X163527D02*
X156755D01*
X162076Y2199745D02*
X163043Y2200229D01*
X163527Y2201680D01*
Y2203131D01*
X163043Y2204582D01*
X162076Y2205066D01*
X161108Y2204582D01*
X160624Y2203615D01*
X160141Y2201196D01*
X159657Y2200229D01*
X158689Y2199745D01*
X158206D01*
X157238Y2200229D01*
X156755Y2201680D01*
Y2203131D01*
X157238Y2204582D01*
X158206Y2205066D01*
X160624Y2197617D02*
Y2191812D01*
X161592D01*
X162559Y2192296D01*
X163043Y2192780D01*
X163527Y2193747D01*
Y2195198D01*
X163043Y2196166D01*
X162076Y2197133D01*
X160624Y2197617D01*
X159657D01*
X158206Y2197133D01*
X157238Y2196166D01*
X156755Y2195198D01*
Y2193747D01*
X157238Y2192780D01*
X158206Y2191812D01*
X166912Y2181654D02*
X156755D01*
X166912D02*
Y2177301D01*
X166429Y2175850D01*
X165945Y2175366D01*
X164978Y2174883D01*
X164010D01*
X163043Y2175366D01*
X162559Y2175850D01*
X162076Y2177301D01*
Y2181654D02*
Y2177301D01*
X161592Y2175850D01*
X161108Y2175366D01*
X160141Y2174883D01*
X158689D01*
X157722Y2175366D01*
X157238Y2175850D01*
X156755Y2177301D01*
Y2181654D01*
X163527Y2170191D02*
X163043Y2171158D01*
X162076Y2172125D01*
X160624Y2172609D01*
X159657D01*
X158206Y2172125D01*
X157238Y2171158D01*
X156755Y2170191D01*
Y2168739D01*
X157238Y2167772D01*
X158206Y2166805D01*
X159657Y2166321D01*
X160624D01*
X162076Y2166805D01*
X163043Y2167772D01*
X163527Y2168739D01*
Y2170191D01*
Y2158291D02*
X156755D01*
X162076D02*
X163043Y2159259D01*
X163527Y2160226D01*
Y2161677D01*
X163043Y2162645D01*
X162076Y2163612D01*
X160624Y2164096D01*
X159657D01*
X158206Y2163612D01*
X157238Y2162645D01*
X156755Y2161677D01*
Y2160226D01*
X157238Y2159259D01*
X158206Y2158291D01*
X163527Y2155583D02*
X156755D01*
X160624D02*
X162076Y2155099D01*
X163043Y2154132D01*
X163527Y2153164D01*
Y2151713D01*
X166912Y2144990D02*
X156755D01*
X162076D02*
X163043Y2145957D01*
X163527Y2146924D01*
Y2148376D01*
X163043Y2149343D01*
X162076Y2150310D01*
X160624Y2150794D01*
X159657D01*
X158206Y2150310D01*
X157238Y2149343D01*
X156755Y2148376D01*
Y2146924D01*
X157238Y2145957D01*
X158206Y2144990D01*
X163527Y2134300D02*
X156755Y2131397D01*
X163527Y2128495D02*
X156755Y2131397D01*
X164494Y2126367D02*
X164978D01*
X165945Y2125883D01*
X166429Y2125399D01*
X166912Y2124432D01*
Y2122497D01*
X166429Y2121530D01*
X165945Y2121046D01*
X164978Y2120562D01*
X164010D01*
X163043Y2121046D01*
X161592Y2122014D01*
X156755Y2126851D01*
Y2120079D01*
X161108Y2109824D02*
Y2101117D01*
X166912Y2090137D02*
X156755Y2083365D01*
X166912D02*
X156755Y2090137D01*
X166912Y2077706D02*
X156755D01*
X166912Y2081092D02*
Y2074320D01*
X163527Y2066823D02*
X162076Y2067306D01*
X161108Y2068274D01*
X160624Y2069725D01*
Y2070209D01*
X161108Y2071660D01*
X162076Y2072627D01*
X163527Y2073111D01*
X164010D01*
X165461Y2072627D01*
X166429Y2071660D01*
X166912Y2070209D01*
Y2069725D01*
X166429Y2068274D01*
X165461Y2067306D01*
X163527Y2066823D01*
X161108D01*
X158689Y2067306D01*
X157238Y2068274D01*
X156755Y2069725D01*
Y2070692D01*
X157238Y2072144D01*
X158206Y2072627D01*
X166912Y2061163D02*
X166429Y2062614D01*
X164978Y2063582D01*
X162559Y2064066D01*
X161108D01*
X158689Y2063582D01*
X157238Y2062614D01*
X156755Y2061163D01*
Y2060196D01*
X157238Y2058745D01*
X158689Y2057777D01*
X161108Y2057294D01*
X162559D01*
X164978Y2057777D01*
X166429Y2058745D01*
X166912Y2060196D01*
Y2061163D01*
X161108Y2055020D02*
Y2046314D01*
X166912Y2043315D02*
X156755Y2036543D01*
X166912D02*
X156755Y2043315D01*
X166912Y2030883D02*
X156755D01*
X166912Y2034269D02*
Y2027497D01*
X165461Y2020484D02*
X166429Y2020967D01*
X166912Y2022419D01*
Y2023386D01*
X166429Y2024837D01*
X164978Y2025804D01*
X162559Y2026288D01*
X160141D01*
X158206Y2025804D01*
X157238Y2024837D01*
X156755Y2023386D01*
Y2022902D01*
X157238Y2021451D01*
X158206Y2020484D01*
X159657Y2020000D01*
X160141D01*
X161592Y2020484D01*
X162559Y2021451D01*
X163043Y2022902D01*
Y2023386D01*
X162559Y2024837D01*
X161592Y2025804D01*
X160141Y2026288D01*
X166912Y2014873D02*
X166429Y2016324D01*
X164978Y2017291D01*
X162559Y2017775D01*
X161108D01*
X158689Y2017291D01*
X157238Y2016324D01*
X156755Y2014873D01*
Y2013905D01*
X157238Y2012454D01*
X158689Y2011487D01*
X161108Y2011003D01*
X162559D01*
X164978Y2011487D01*
X166429Y2012454D01*
X166912Y2013905D01*
Y2014873D01*
X150582Y2220496D02*
X143326D01*
X141875Y2220012D01*
X140908Y2219045D01*
X140424Y2217594D01*
Y2216626D01*
X140908Y2215175D01*
X141875Y2214208D01*
X143326Y2213724D01*
X150582D01*
X148163Y2203663D02*
X149131Y2204147D01*
X150098Y2205114D01*
X150582Y2206082D01*
Y2208016D01*
X150098Y2208984D01*
X149131Y2209951D01*
X148163Y2210435D01*
X146712Y2210919D01*
X144294D01*
X142843Y2210435D01*
X141875Y2209951D01*
X140908Y2208984D01*
X140424Y2208016D01*
Y2206082D01*
X140908Y2205114D01*
X141875Y2204147D01*
X142843Y2203663D01*
X149131Y2194037D02*
X150098Y2195005D01*
X150582Y2196456D01*
Y2198391D01*
X150098Y2199842D01*
X149131Y2200809D01*
X148163D01*
X147196Y2200325D01*
X146712Y2199842D01*
X146229Y2198874D01*
X145261Y2195972D01*
X144777Y2195005D01*
X144294Y2194521D01*
X143326Y2194037D01*
X141875D01*
X140908Y2195005D01*
X140424Y2196456D01*
Y2198391D01*
X140908Y2199842D01*
X141875Y2200809D01*
X150582Y2191764D02*
X140424D01*
X150582D02*
Y2188378D01*
X150098Y2186927D01*
X149131Y2185959D01*
X148163Y2185476D01*
X146712Y2184992D01*
X144294D01*
X142843Y2185476D01*
X141875Y2185959D01*
X140908Y2186927D01*
X140424Y2188378D01*
Y2191764D01*
X150582Y2171351D02*
X140424D01*
X150582Y2174738D02*
Y2167966D01*
X147196Y2166756D02*
X140424D01*
X144294D02*
X145745Y2166273D01*
X146712Y2165305D01*
X147196Y2164338D01*
Y2162887D01*
X150582Y2161000D02*
X150098Y2160517D01*
X150582Y2160033D01*
X151066Y2160517D01*
X150582Y2161000D01*
X147196Y2160517D02*
X140424D01*
X150582Y2156792D02*
X142359D01*
X140908Y2156308D01*
X140424Y2155341D01*
Y2154373D01*
X147196Y2158243D02*
Y2154857D01*
Y2150504D02*
X146712Y2151471D01*
X145745Y2152439D01*
X144294Y2152922D01*
X143326D01*
X141875Y2152439D01*
X140908Y2151471D01*
X140424Y2150504D01*
Y2149053D01*
X140908Y2148085D01*
X141875Y2147118D01*
X143326Y2146634D01*
X144294D01*
X145745Y2147118D01*
X146712Y2148085D01*
X147196Y2149053D01*
Y2150504D01*
Y2144409D02*
X140424D01*
X145261D02*
X146712Y2142958D01*
X147196Y2141991D01*
Y2140540D01*
X146712Y2139572D01*
X145261Y2139088D01*
X140424D01*
Y2128689D02*
X150582Y2132558D01*
X140424Y2136428D01*
X143810Y2134977D02*
Y2130140D01*
X150582Y2126319D02*
X140424D01*
X1839976Y1381687D02*
Y1391845D01*
Y1381687D02*
X1833688D01*
X1839976Y1386525D02*
X1836106D01*
X1832527Y1385073D02*
Y1389910D01*
X1832043Y1391362D01*
X1831076Y1391845D01*
X1829625D01*
X1828657Y1391362D01*
X1827206Y1389910D01*
Y1385073D02*
Y1391845D01*
X1819225Y1386525D02*
X1819709Y1385557D01*
X1821160Y1385073D01*
X1822611D01*
X1824062Y1385557D01*
X1824546Y1386525D01*
X1824062Y1387492D01*
X1823095Y1387976D01*
X1820676Y1388459D01*
X1819709Y1388943D01*
X1819225Y1389910D01*
Y1390394D01*
X1819709Y1391362D01*
X1821160Y1391845D01*
X1822611D01*
X1824062Y1391362D01*
X1824546Y1390394D01*
X1817097Y1387976D02*
X1811292D01*
Y1387008D01*
X1811776Y1386041D01*
X1812260Y1385557D01*
X1813227Y1385073D01*
X1814678D01*
X1815646Y1385557D01*
X1816613Y1386525D01*
X1817097Y1387976D01*
Y1388943D01*
X1816613Y1390394D01*
X1815646Y1391362D01*
X1814678Y1391845D01*
X1813227D01*
X1812260Y1391362D01*
X1811292Y1390394D01*
X1801134Y1381687D02*
Y1391845D01*
Y1381687D02*
X1796781D01*
X1795330Y1382171D01*
X1794846Y1382655D01*
X1794362Y1383622D01*
Y1384590D01*
X1794846Y1385557D01*
X1795330Y1386041D01*
X1796781Y1386525D01*
X1801134D02*
X1796781D01*
X1795330Y1387008D01*
X1794846Y1387492D01*
X1794362Y1388459D01*
Y1389910D01*
X1794846Y1390878D01*
X1795330Y1391362D01*
X1796781Y1391845D01*
X1801134D01*
X1789671Y1385073D02*
X1790638Y1385557D01*
X1791605Y1386525D01*
X1792089Y1387976D01*
Y1388943D01*
X1791605Y1390394D01*
X1790638Y1391362D01*
X1789671Y1391845D01*
X1788219D01*
X1787252Y1391362D01*
X1786285Y1390394D01*
X1785801Y1388943D01*
Y1387976D01*
X1786285Y1386525D01*
X1787252Y1385557D01*
X1788219Y1385073D01*
X1789671D01*
X1777771D02*
Y1391845D01*
Y1386525D02*
X1778739Y1385557D01*
X1779706Y1385073D01*
X1781157D01*
X1782125Y1385557D01*
X1783092Y1386525D01*
X1783576Y1387976D01*
Y1388943D01*
X1783092Y1390394D01*
X1782125Y1391362D01*
X1781157Y1391845D01*
X1779706D01*
X1778739Y1391362D01*
X1777771Y1390394D01*
X1775063Y1385073D02*
Y1391845D01*
Y1387976D02*
X1774579Y1386525D01*
X1773612Y1385557D01*
X1772644Y1385073D01*
X1771193D01*
X1764469Y1381687D02*
Y1391845D01*
Y1386525D02*
X1765437Y1385557D01*
X1766404Y1385073D01*
X1767856D01*
X1768823Y1385557D01*
X1769790Y1386525D01*
X1770274Y1387976D01*
Y1388943D01*
X1769790Y1390394D01*
X1768823Y1391362D01*
X1767856Y1391845D01*
X1766404D01*
X1765437Y1391362D01*
X1764469Y1390394D01*
X1753780Y1385073D02*
X1750877Y1391845D01*
X1747975Y1385073D02*
X1750877Y1391845D01*
X1745847Y1384106D02*
Y1383622D01*
X1745363Y1382655D01*
X1744879Y1382171D01*
X1743912Y1381687D01*
X1741977D01*
X1741010Y1382171D01*
X1740526Y1382655D01*
X1740042Y1383622D01*
Y1384590D01*
X1740526Y1385557D01*
X1741494Y1387008D01*
X1746331Y1391845D01*
X1739559D01*
X1729304Y1387492D02*
X1720597D01*
X1709617Y1381687D02*
X1702845Y1391845D01*
Y1381687D02*
X1709617Y1391845D01*
X1697186Y1381687D02*
Y1391845D01*
X1700572Y1381687D02*
X1693800D01*
X1686303Y1385073D02*
X1686786Y1386525D01*
X1687754Y1387492D01*
X1689205Y1387976D01*
X1689689D01*
X1691140Y1387492D01*
X1692107Y1386525D01*
X1692591Y1385073D01*
Y1384590D01*
X1692107Y1383139D01*
X1691140Y1382171D01*
X1689689Y1381687D01*
X1689205D01*
X1687754Y1382171D01*
X1686786Y1383139D01*
X1686303Y1385073D01*
Y1387492D01*
X1686786Y1389910D01*
X1687754Y1391362D01*
X1689205Y1391845D01*
X1690172D01*
X1691624Y1391362D01*
X1692107Y1390394D01*
X1680643Y1381687D02*
X1682095Y1382171D01*
X1683062Y1383622D01*
X1683546Y1386041D01*
Y1387492D01*
X1683062Y1389910D01*
X1682095Y1391362D01*
X1680643Y1391845D01*
X1679676D01*
X1678225Y1391362D01*
X1677257Y1389910D01*
X1676774Y1387492D01*
Y1386041D01*
X1677257Y1383622D01*
X1678225Y1382171D01*
X1679676Y1381687D01*
X1680643D01*
X1674500Y1387492D02*
X1665794D01*
X1662795Y1381687D02*
X1656023Y1391845D01*
Y1381687D02*
X1662795Y1391845D01*
X1650363Y1381687D02*
Y1391845D01*
X1653749Y1381687D02*
X1646977D01*
X1639964Y1383139D02*
X1640447Y1382171D01*
X1641898Y1381687D01*
X1642866D01*
X1644317Y1382171D01*
X1645284Y1383622D01*
X1645768Y1386041D01*
Y1388459D01*
X1645284Y1390394D01*
X1644317Y1391362D01*
X1642866Y1391845D01*
X1642382D01*
X1640931Y1391362D01*
X1639964Y1390394D01*
X1639480Y1388943D01*
Y1388459D01*
X1639964Y1387008D01*
X1640931Y1386041D01*
X1642382Y1385557D01*
X1642866D01*
X1644317Y1386041D01*
X1645284Y1387008D01*
X1645768Y1388459D01*
X1634353Y1381687D02*
X1635804Y1382171D01*
X1636771Y1383622D01*
X1637255Y1386041D01*
Y1387492D01*
X1636771Y1389910D01*
X1635804Y1391362D01*
X1634353Y1391845D01*
X1633385D01*
X1631934Y1391362D01*
X1630967Y1389910D01*
X1630483Y1387492D01*
Y1386041D01*
X1630967Y1383622D01*
X1631934Y1382171D01*
X1633385Y1381687D01*
X1634353D01*
X1839976Y1398018D02*
Y1405274D01*
X1839492Y1406725D01*
X1838525Y1407692D01*
X1837074Y1408176D01*
X1836106D01*
X1834655Y1407692D01*
X1833688Y1406725D01*
X1833204Y1405274D01*
Y1398018D01*
X1823143Y1400437D02*
X1823627Y1399469D01*
X1824594Y1398502D01*
X1825562Y1398018D01*
X1827496D01*
X1828464Y1398502D01*
X1829431Y1399469D01*
X1829915Y1400437D01*
X1830399Y1401888D01*
Y1404306D01*
X1829915Y1405757D01*
X1829431Y1406725D01*
X1828464Y1407692D01*
X1827496Y1408176D01*
X1825562D01*
X1824594Y1407692D01*
X1823627Y1406725D01*
X1823143Y1405757D01*
X1813517Y1399469D02*
X1814485Y1398502D01*
X1815936Y1398018D01*
X1817871D01*
X1819322Y1398502D01*
X1820289Y1399469D01*
Y1400437D01*
X1819805Y1401404D01*
X1819322Y1401888D01*
X1818354Y1402372D01*
X1815452Y1403339D01*
X1814485Y1403823D01*
X1814001Y1404306D01*
X1813517Y1405274D01*
Y1406725D01*
X1814485Y1407692D01*
X1815936Y1408176D01*
X1817871D01*
X1819322Y1407692D01*
X1820289Y1406725D01*
X1811244Y1398018D02*
Y1408176D01*
Y1398018D02*
X1807858D01*
X1806407Y1398502D01*
X1805439Y1399469D01*
X1804956Y1400437D01*
X1804472Y1401888D01*
Y1404306D01*
X1804956Y1405757D01*
X1805439Y1406725D01*
X1806407Y1407692D01*
X1807858Y1408176D01*
X1811244D01*
X1790831Y1398018D02*
Y1408176D01*
X1794217Y1398018D02*
X1787446D01*
X1786236Y1401404D02*
Y1408176D01*
Y1404306D02*
X1785753Y1402855D01*
X1784785Y1401888D01*
X1783818Y1401404D01*
X1782367D01*
X1780480Y1398018D02*
X1779996Y1398502D01*
X1779513Y1398018D01*
X1779996Y1397534D01*
X1780480Y1398018D01*
X1779996Y1401404D02*
Y1408176D01*
X1776272Y1398018D02*
Y1406241D01*
X1775788Y1407692D01*
X1774821Y1408176D01*
X1773853D01*
X1777723Y1401404D02*
X1774337D01*
X1769984D02*
X1770951Y1401888D01*
X1771919Y1402855D01*
X1772402Y1404306D01*
Y1405274D01*
X1771919Y1406725D01*
X1770951Y1407692D01*
X1769984Y1408176D01*
X1768533D01*
X1767565Y1407692D01*
X1766598Y1406725D01*
X1766114Y1405274D01*
Y1404306D01*
X1766598Y1402855D01*
X1767565Y1401888D01*
X1768533Y1401404D01*
X1769984D01*
X1763889D02*
Y1408176D01*
Y1403339D02*
X1762438Y1401888D01*
X1761471Y1401404D01*
X1760020D01*
X1759052Y1401888D01*
X1758568Y1403339D01*
Y1408176D01*
X1748169D02*
X1752038Y1398018D01*
X1755908Y1408176D01*
X1754457Y1404790D02*
X1749620D01*
X1745798Y1398018D02*
Y1408176D01*
D35*
X215100Y543070D02*
D03*
Y573570D02*
D03*
X316700Y543070D02*
D03*
Y573570D02*
D03*
X443700Y543070D02*
D03*
Y573570D02*
D03*
X570700Y543070D02*
D03*
Y573570D02*
D03*
X697700Y543070D02*
D03*
Y573570D02*
D03*
X824700Y543070D02*
D03*
Y573570D02*
D03*
X951700Y543070D02*
D03*
Y573570D02*
D03*
X1078700Y543070D02*
D03*
Y573570D02*
D03*
X1205700Y543070D02*
D03*
Y573570D02*
D03*
X1332700Y543070D02*
D03*
Y573570D02*
D03*
X215100Y1127270D02*
D03*
Y1157770D02*
D03*
X316700Y1127270D02*
D03*
Y1157770D02*
D03*
X443700Y1127270D02*
D03*
Y1157770D02*
D03*
X570700Y1127270D02*
D03*
Y1157770D02*
D03*
X697700Y1127270D02*
D03*
Y1157770D02*
D03*
X824700Y1127270D02*
D03*
Y1157770D02*
D03*
X951700Y1127270D02*
D03*
Y1157770D02*
D03*
X1078700Y1127270D02*
D03*
Y1157770D02*
D03*
X1205700Y1127270D02*
D03*
Y1157770D02*
D03*
X1332700Y1127270D02*
D03*
Y1157770D02*
D03*
X215100Y1711470D02*
D03*
Y1741970D02*
D03*
X316700Y1711470D02*
D03*
Y1741970D02*
D03*
X443700Y1711470D02*
D03*
Y1741970D02*
D03*
X570700Y1711470D02*
D03*
Y1741970D02*
D03*
X697700Y1711470D02*
D03*
Y1741970D02*
D03*
X824700Y1711470D02*
D03*
Y1741970D02*
D03*
X951700Y1711470D02*
D03*
Y1741970D02*
D03*
X1078700Y1711470D02*
D03*
Y1741970D02*
D03*
X1205700Y1711470D02*
D03*
Y1741970D02*
D03*
X1332700Y1711470D02*
D03*
Y1741970D02*
D03*
X215100Y2295670D02*
D03*
Y2326170D02*
D03*
X316700Y2295670D02*
D03*
Y2326170D02*
D03*
X443700Y2295670D02*
D03*
Y2326170D02*
D03*
X570700Y2295670D02*
D03*
Y2326170D02*
D03*
X697700Y2295670D02*
D03*
Y2326170D02*
D03*
X824700Y2295670D02*
D03*
Y2326170D02*
D03*
X951700Y2295670D02*
D03*
Y2326170D02*
D03*
X1078700Y2295670D02*
D03*
Y2326170D02*
D03*
X1205700Y2295670D02*
D03*
Y2326170D02*
D03*
X1332700Y2295670D02*
D03*
Y2326170D02*
D03*
D36*
X570700Y616620D02*
D03*
Y601620D02*
D03*
X316700Y616620D02*
D03*
Y601620D02*
D03*
X215100D02*
D03*
Y616620D02*
D03*
X697700D02*
D03*
Y601620D02*
D03*
X951700D02*
D03*
Y616620D02*
D03*
X824700D02*
D03*
Y601620D02*
D03*
X443700D02*
D03*
Y616620D02*
D03*
X1332700D02*
D03*
Y601620D02*
D03*
X1205700D02*
D03*
Y616620D02*
D03*
X1078700D02*
D03*
Y601620D02*
D03*
X570700Y1200820D02*
D03*
Y1185820D02*
D03*
X316700Y1200820D02*
D03*
Y1185820D02*
D03*
X215100D02*
D03*
Y1200820D02*
D03*
X697700D02*
D03*
Y1185820D02*
D03*
X951700D02*
D03*
Y1200820D02*
D03*
X824700D02*
D03*
Y1185820D02*
D03*
X443700D02*
D03*
Y1200820D02*
D03*
X1332700D02*
D03*
Y1185820D02*
D03*
X1205700D02*
D03*
Y1200820D02*
D03*
X1078700D02*
D03*
Y1185820D02*
D03*
X570700Y1785020D02*
D03*
Y1770020D02*
D03*
X316700Y1785020D02*
D03*
Y1770020D02*
D03*
X215100D02*
D03*
Y1785020D02*
D03*
X697700D02*
D03*
Y1770020D02*
D03*
X951700D02*
D03*
Y1785020D02*
D03*
X824700D02*
D03*
Y1770020D02*
D03*
X443700D02*
D03*
Y1785020D02*
D03*
X1332700D02*
D03*
Y1770020D02*
D03*
X1205700D02*
D03*
Y1785020D02*
D03*
X1078700D02*
D03*
Y1770020D02*
D03*
X570700Y2369220D02*
D03*
Y2354220D02*
D03*
X316700Y2369220D02*
D03*
Y2354220D02*
D03*
X215100D02*
D03*
Y2369220D02*
D03*
X697700D02*
D03*
Y2354220D02*
D03*
X951700D02*
D03*
Y2369220D02*
D03*
X824700D02*
D03*
Y2354220D02*
D03*
X443700D02*
D03*
Y2369220D02*
D03*
X1332700D02*
D03*
Y2354220D02*
D03*
X1205700D02*
D03*
Y2369220D02*
D03*
X1078700D02*
D03*
Y2354220D02*
D03*
D37*
X1915150Y1333500D02*
D03*
X1945650D02*
D03*
X1915150Y1231900D02*
D03*
X1945650D02*
D03*
X1915150Y1104900D02*
D03*
X1945650D02*
D03*
X1915150Y977900D02*
D03*
X1945650D02*
D03*
X1915150Y850900D02*
D03*
X1945650D02*
D03*
X1915150Y723900D02*
D03*
X1945650D02*
D03*
X1915150Y596900D02*
D03*
X1945650D02*
D03*
X1915150Y469900D02*
D03*
X1945650D02*
D03*
X1915150Y342900D02*
D03*
X1945650D02*
D03*
X1915150Y215900D02*
D03*
X1945650D02*
D03*
D38*
X1988700Y977900D02*
D03*
X1973700D02*
D03*
X1988700Y1231900D02*
D03*
X1973700D02*
D03*
Y1333500D02*
D03*
X1988700D02*
D03*
Y850900D02*
D03*
X1973700D02*
D03*
Y596900D02*
D03*
X1988700D02*
D03*
Y723900D02*
D03*
X1973700D02*
D03*
Y1104900D02*
D03*
X1988700D02*
D03*
Y215900D02*
D03*
X1973700D02*
D03*
Y342900D02*
D03*
X1988700D02*
D03*
Y469900D02*
D03*
X1973700D02*
D03*
D39*
X38100Y2463800D02*
D03*
X2095500Y38100D02*
D03*
Y2463800D02*
D03*
X38100Y38100D02*
D03*
D40*
X99060Y2484120D02*
D03*
Y2476500D02*
D03*
Y2468880D02*
D03*
Y2461260D02*
D03*
Y2453640D02*
D03*
X60960Y2415540D02*
D03*
X53340D02*
D03*
X45720D02*
D03*
X38100D02*
D03*
X30480D02*
D03*
X22860D02*
D03*
X15240D02*
D03*
X1450340Y2453640D02*
D03*
Y2461260D02*
D03*
Y2468880D02*
D03*
Y2476500D02*
D03*
Y2484120D02*
D03*
X1026160Y2415540D02*
D03*
X1018540D02*
D03*
X1010920D02*
D03*
X1003300D02*
D03*
X995680D02*
D03*
X988060D02*
D03*
X980440D02*
D03*
X510540D02*
D03*
X518160D02*
D03*
X525780D02*
D03*
X533400D02*
D03*
X541020D02*
D03*
X548640D02*
D03*
X556260D02*
D03*
X2118360Y1450340D02*
D03*
X2110740D02*
D03*
X2103120D02*
D03*
X2095500D02*
D03*
X2087880D02*
D03*
X2080260D02*
D03*
X2072640D02*
D03*
X2118360Y99060D02*
D03*
X2110740D02*
D03*
X2103120D02*
D03*
X2095500D02*
D03*
X2087880D02*
D03*
X2080260D02*
D03*
X2072640D02*
D03*
X1729740Y1450340D02*
D03*
X1737360D02*
D03*
X1744980D02*
D03*
X1752600D02*
D03*
X1760220D02*
D03*
X1767840D02*
D03*
X1775460D02*
D03*
X1729740Y1470660D02*
D03*
X1737360D02*
D03*
X1744980D02*
D03*
X1752600D02*
D03*
X1760220D02*
D03*
X1767840D02*
D03*
X1775460D02*
D03*
X2034540Y60960D02*
D03*
Y53340D02*
D03*
Y45720D02*
D03*
Y38100D02*
D03*
Y30480D02*
D03*
Y22860D02*
D03*
Y15240D02*
D03*
X99060Y2110740D02*
D03*
Y2141220D02*
D03*
Y2133600D02*
D03*
Y2125980D02*
D03*
Y2156460D02*
D03*
Y2148840D02*
D03*
Y2118360D02*
D03*
X1450340Y2156460D02*
D03*
Y2148840D02*
D03*
Y2141220D02*
D03*
Y2133600D02*
D03*
Y2125980D02*
D03*
Y2118360D02*
D03*
Y2110740D02*
D03*
Y1572260D02*
D03*
Y1564640D02*
D03*
Y1557020D02*
D03*
Y1549400D02*
D03*
Y1541780D02*
D03*
Y1534160D02*
D03*
Y1526540D02*
D03*
X1470660Y942340D02*
D03*
Y949960D02*
D03*
Y957580D02*
D03*
Y965200D02*
D03*
Y972820D02*
D03*
Y980440D02*
D03*
Y988060D02*
D03*
X1450340Y942340D02*
D03*
Y949960D02*
D03*
Y957580D02*
D03*
Y965200D02*
D03*
Y972820D02*
D03*
Y980440D02*
D03*
Y988060D02*
D03*
X556260Y1851660D02*
D03*
X548640D02*
D03*
X541020D02*
D03*
X533400D02*
D03*
X525780D02*
D03*
X518160D02*
D03*
X510540D02*
D03*
X556260Y1831340D02*
D03*
X548640D02*
D03*
X541020D02*
D03*
X533400D02*
D03*
X525780D02*
D03*
X518160D02*
D03*
X510540D02*
D03*
X980440D02*
D03*
X988060D02*
D03*
X995680D02*
D03*
X1003300D02*
D03*
X1010920D02*
D03*
X1018540D02*
D03*
X1026160D02*
D03*
X980440Y1851660D02*
D03*
X988060D02*
D03*
X995680D02*
D03*
X1003300D02*
D03*
X1010920D02*
D03*
X1018540D02*
D03*
X1026160D02*
D03*
X556260Y1267460D02*
D03*
X548640D02*
D03*
X541020D02*
D03*
X533400D02*
D03*
X525780D02*
D03*
X518160D02*
D03*
X510540D02*
D03*
X556260Y1247140D02*
D03*
X548640D02*
D03*
X541020D02*
D03*
X533400D02*
D03*
X525780D02*
D03*
X518160D02*
D03*
X510540D02*
D03*
X980440D02*
D03*
X988060D02*
D03*
X995680D02*
D03*
X1003300D02*
D03*
X1010920D02*
D03*
X1018540D02*
D03*
X1026160D02*
D03*
X980440Y1267460D02*
D03*
X988060D02*
D03*
X995680D02*
D03*
X1003300D02*
D03*
X1010920D02*
D03*
X1018540D02*
D03*
X1026160D02*
D03*
X99060Y1534160D02*
D03*
Y1564640D02*
D03*
Y1572260D02*
D03*
Y1541780D02*
D03*
Y1549400D02*
D03*
Y1557020D02*
D03*
Y1526540D02*
D03*
X99060Y942340D02*
D03*
Y972820D02*
D03*
Y965200D02*
D03*
Y957580D02*
D03*
Y988060D02*
D03*
Y980440D02*
D03*
Y949960D02*
D03*
Y365760D02*
D03*
Y396240D02*
D03*
Y403860D02*
D03*
Y373380D02*
D03*
Y381000D02*
D03*
Y388620D02*
D03*
X2034540Y1272540D02*
D03*
Y1280160D02*
D03*
Y1287780D02*
D03*
Y1295400D02*
D03*
Y1303020D02*
D03*
Y1310640D02*
D03*
Y1318260D02*
D03*
Y789940D02*
D03*
Y797560D02*
D03*
Y805180D02*
D03*
Y812800D02*
D03*
Y820420D02*
D03*
Y828040D02*
D03*
Y835660D02*
D03*
Y307340D02*
D03*
Y314960D02*
D03*
Y322580D02*
D03*
Y330200D02*
D03*
Y337820D02*
D03*
Y345440D02*
D03*
Y353060D02*
D03*
X1729740Y99060D02*
D03*
X1737360D02*
D03*
X1744980D02*
D03*
X1752600D02*
D03*
X1760220D02*
D03*
X1767840D02*
D03*
X1775460D02*
D03*
X1450340Y403860D02*
D03*
Y396240D02*
D03*
Y388620D02*
D03*
Y381000D02*
D03*
Y373380D02*
D03*
Y365760D02*
D03*
Y358140D02*
D03*
X1470660Y403860D02*
D03*
Y396240D02*
D03*
Y388620D02*
D03*
Y381000D02*
D03*
Y373380D02*
D03*
Y365760D02*
D03*
Y358140D02*
D03*
X1450340Y15240D02*
D03*
Y22860D02*
D03*
Y30480D02*
D03*
Y38100D02*
D03*
Y45720D02*
D03*
Y53340D02*
D03*
Y60960D02*
D03*
X99060Y15240D02*
D03*
Y22860D02*
D03*
Y30480D02*
D03*
Y38100D02*
D03*
Y45720D02*
D03*
Y53340D02*
D03*
Y60960D02*
D03*
X15240Y99060D02*
D03*
X22860D02*
D03*
X30480D02*
D03*
X38100D02*
D03*
X45720D02*
D03*
X53340D02*
D03*
X60960D02*
D03*
X1026160Y683260D02*
D03*
X1018540D02*
D03*
X1010920D02*
D03*
X1003300D02*
D03*
X995680D02*
D03*
X988060D02*
D03*
X980440D02*
D03*
X1026160Y662940D02*
D03*
X1018540D02*
D03*
X1010920D02*
D03*
X1003300D02*
D03*
X995680D02*
D03*
X988060D02*
D03*
X980440D02*
D03*
X510540D02*
D03*
X518160D02*
D03*
X525780D02*
D03*
X533400D02*
D03*
X541020D02*
D03*
X548640D02*
D03*
X556260D02*
D03*
X510540Y683260D02*
D03*
X518160D02*
D03*
X525780D02*
D03*
X533400D02*
D03*
X541020D02*
D03*
X548640D02*
D03*
X556260D02*
D03*
X1026160Y99060D02*
D03*
X1018540D02*
D03*
X1010920D02*
D03*
X1003300D02*
D03*
X995680D02*
D03*
X988060D02*
D03*
X980440D02*
D03*
X556260D02*
D03*
X548640D02*
D03*
X541020D02*
D03*
X533400D02*
D03*
X525780D02*
D03*
X518160D02*
D03*
X510540D02*
D03*
X99060Y358140D02*
D03*
D41*
X392900Y166720D02*
D03*
X519900D02*
D03*
X773900D02*
D03*
X1027900D02*
D03*
X1281900D02*
D03*
X900900D02*
D03*
X1154900D02*
D03*
X646900D02*
D03*
X392900Y750920D02*
D03*
X519900D02*
D03*
X773900D02*
D03*
X1027900D02*
D03*
X1281900D02*
D03*
X900900D02*
D03*
X1154900D02*
D03*
X646900D02*
D03*
X392900Y1335120D02*
D03*
X519900D02*
D03*
X773900D02*
D03*
X1027900D02*
D03*
X1281900D02*
D03*
X900900D02*
D03*
X1154900D02*
D03*
X646900D02*
D03*
X392900Y1919320D02*
D03*
X519900D02*
D03*
X773900D02*
D03*
X1027900D02*
D03*
X1281900D02*
D03*
X900900D02*
D03*
X1154900D02*
D03*
X646900D02*
D03*
D42*
X392900Y238720D02*
D03*
X519900D02*
D03*
X773900D02*
D03*
X1027900D02*
D03*
X1281900D02*
D03*
X900900D02*
D03*
X1154900D02*
D03*
X646900D02*
D03*
X392900Y822920D02*
D03*
X519900D02*
D03*
X773900D02*
D03*
X1027900D02*
D03*
X1281900D02*
D03*
X900900D02*
D03*
X1154900D02*
D03*
X646900D02*
D03*
X392900Y1407120D02*
D03*
X519900D02*
D03*
X773900D02*
D03*
X1027900D02*
D03*
X1281900D02*
D03*
X900900D02*
D03*
X1154900D02*
D03*
X646900D02*
D03*
X392900Y1991320D02*
D03*
X519900D02*
D03*
X773900D02*
D03*
X1027900D02*
D03*
X1281900D02*
D03*
X900900D02*
D03*
X1154900D02*
D03*
X646900D02*
D03*
X1610800Y1155700D02*
D03*
Y1028700D02*
D03*
Y774700D02*
D03*
Y520700D02*
D03*
Y266700D02*
D03*
Y647700D02*
D03*
Y393700D02*
D03*
Y901700D02*
D03*
D43*
X1281900Y337620D02*
D03*
Y372620D02*
D03*
X1154900Y337620D02*
D03*
Y372620D02*
D03*
X1027900Y337620D02*
D03*
Y372620D02*
D03*
X900900Y337620D02*
D03*
Y372620D02*
D03*
X773900Y337620D02*
D03*
Y372620D02*
D03*
X646900Y337620D02*
D03*
Y372620D02*
D03*
X519900Y337620D02*
D03*
Y372620D02*
D03*
X392900Y337620D02*
D03*
Y372620D02*
D03*
X1281900Y921820D02*
D03*
Y956820D02*
D03*
X1154900Y921820D02*
D03*
Y956820D02*
D03*
X1027900Y921820D02*
D03*
Y956820D02*
D03*
X900900Y921820D02*
D03*
Y956820D02*
D03*
X773900Y921820D02*
D03*
Y956820D02*
D03*
X646900Y921820D02*
D03*
Y956820D02*
D03*
X519900Y921820D02*
D03*
Y956820D02*
D03*
X392900Y921820D02*
D03*
Y956820D02*
D03*
X1281900Y1506020D02*
D03*
Y1541020D02*
D03*
X1154900Y1506020D02*
D03*
Y1541020D02*
D03*
X1027900Y1506020D02*
D03*
Y1541020D02*
D03*
X900900Y1506020D02*
D03*
Y1541020D02*
D03*
X773900Y1506020D02*
D03*
Y1541020D02*
D03*
X646900Y1506020D02*
D03*
Y1541020D02*
D03*
X519900Y1506020D02*
D03*
Y1541020D02*
D03*
X392900Y1506020D02*
D03*
Y1541020D02*
D03*
X1281900Y2090220D02*
D03*
Y2125220D02*
D03*
X1154900Y2090220D02*
D03*
Y2125220D02*
D03*
X1027900Y2090220D02*
D03*
Y2125220D02*
D03*
X900900Y2090220D02*
D03*
Y2125220D02*
D03*
X773900Y2090220D02*
D03*
Y2125220D02*
D03*
X646900Y2090220D02*
D03*
Y2125220D02*
D03*
X519900Y2090220D02*
D03*
Y2125220D02*
D03*
X392900Y2090220D02*
D03*
Y2125220D02*
D03*
D44*
X409900Y587570D02*
D03*
X375900D02*
D03*
X409900Y452870D02*
D03*
X375900D02*
D03*
X536900Y587570D02*
D03*
X502900D02*
D03*
X536900Y452870D02*
D03*
X502900D02*
D03*
X663900Y587570D02*
D03*
X629900D02*
D03*
X663900Y452870D02*
D03*
X629900D02*
D03*
X790900Y587570D02*
D03*
X756900D02*
D03*
X790900Y452870D02*
D03*
X756900D02*
D03*
X917900Y587570D02*
D03*
X883900D02*
D03*
X917900Y452870D02*
D03*
X883900D02*
D03*
X1044900Y587570D02*
D03*
X1010900D02*
D03*
X1044900Y452870D02*
D03*
X1010900D02*
D03*
X1171900Y587570D02*
D03*
X1137900D02*
D03*
X1171900Y452870D02*
D03*
X1137900D02*
D03*
X1298900Y587570D02*
D03*
X1264900D02*
D03*
X1298900Y452870D02*
D03*
X1264900D02*
D03*
X248900D02*
D03*
X282900D02*
D03*
X248900Y587570D02*
D03*
X282900D02*
D03*
X409900Y1171770D02*
D03*
X375900D02*
D03*
X409900Y1037070D02*
D03*
X375900D02*
D03*
X536900Y1171770D02*
D03*
X502900D02*
D03*
X536900Y1037070D02*
D03*
X502900D02*
D03*
X663900Y1171770D02*
D03*
X629900D02*
D03*
X663900Y1037070D02*
D03*
X629900D02*
D03*
X790900Y1171770D02*
D03*
X756900D02*
D03*
X790900Y1037070D02*
D03*
X756900D02*
D03*
X917900Y1171770D02*
D03*
X883900D02*
D03*
X917900Y1037070D02*
D03*
X883900D02*
D03*
X1044900Y1171770D02*
D03*
X1010900D02*
D03*
X1044900Y1037070D02*
D03*
X1010900D02*
D03*
X1171900Y1171770D02*
D03*
X1137900D02*
D03*
X1171900Y1037070D02*
D03*
X1137900D02*
D03*
X1298900Y1171770D02*
D03*
X1264900D02*
D03*
X1298900Y1037070D02*
D03*
X1264900D02*
D03*
X248900D02*
D03*
X282900D02*
D03*
X248900Y1171770D02*
D03*
X282900D02*
D03*
X409900Y1755970D02*
D03*
X375900D02*
D03*
X409900Y1621270D02*
D03*
X375900D02*
D03*
X536900Y1755970D02*
D03*
X502900D02*
D03*
X536900Y1621270D02*
D03*
X502900D02*
D03*
X663900Y1755970D02*
D03*
X629900D02*
D03*
X663900Y1621270D02*
D03*
X629900D02*
D03*
X790900Y1755970D02*
D03*
X756900D02*
D03*
X790900Y1621270D02*
D03*
X756900D02*
D03*
X917900Y1755970D02*
D03*
X883900D02*
D03*
X917900Y1621270D02*
D03*
X883900D02*
D03*
X1044900Y1755970D02*
D03*
X1010900D02*
D03*
X1044900Y1621270D02*
D03*
X1010900D02*
D03*
X1171900Y1755970D02*
D03*
X1137900D02*
D03*
X1171900Y1621270D02*
D03*
X1137900D02*
D03*
X1298900Y1755970D02*
D03*
X1264900D02*
D03*
X1298900Y1621270D02*
D03*
X1264900D02*
D03*
X248900D02*
D03*
X282900D02*
D03*
X248900Y1755970D02*
D03*
X282900D02*
D03*
X409900Y2340170D02*
D03*
X375900D02*
D03*
X409900Y2205470D02*
D03*
X375900D02*
D03*
X536900Y2340170D02*
D03*
X502900D02*
D03*
X536900Y2205470D02*
D03*
X502900D02*
D03*
X663900Y2340170D02*
D03*
X629900D02*
D03*
X663900Y2205470D02*
D03*
X629900D02*
D03*
X790900Y2340170D02*
D03*
X756900D02*
D03*
X790900Y2205470D02*
D03*
X756900D02*
D03*
X917900Y2340170D02*
D03*
X883900D02*
D03*
X917900Y2205470D02*
D03*
X883900D02*
D03*
X1044900Y2340170D02*
D03*
X1010900D02*
D03*
X1044900Y2205470D02*
D03*
X1010900D02*
D03*
X1171900Y2340170D02*
D03*
X1137900D02*
D03*
X1171900Y2205470D02*
D03*
X1137900D02*
D03*
X1298900Y2340170D02*
D03*
X1264900D02*
D03*
X1298900Y2205470D02*
D03*
X1264900D02*
D03*
X248900D02*
D03*
X282900D02*
D03*
X248900Y2340170D02*
D03*
X282900D02*
D03*
X1959650Y1138700D02*
D03*
Y1172700D02*
D03*
X1824950Y1138700D02*
D03*
Y1172700D02*
D03*
X1959650Y1011700D02*
D03*
Y1045700D02*
D03*
X1824950Y1011700D02*
D03*
Y1045700D02*
D03*
X1959650Y884700D02*
D03*
Y918700D02*
D03*
X1824950Y884700D02*
D03*
Y918700D02*
D03*
X1959650Y757700D02*
D03*
Y791700D02*
D03*
X1824950Y757700D02*
D03*
Y791700D02*
D03*
X1959650Y630700D02*
D03*
Y664700D02*
D03*
X1824950Y630700D02*
D03*
Y664700D02*
D03*
X1959650Y503700D02*
D03*
Y537700D02*
D03*
X1824950Y503700D02*
D03*
Y537700D02*
D03*
X1959650Y376700D02*
D03*
Y410700D02*
D03*
X1824950Y376700D02*
D03*
Y410700D02*
D03*
X1959650Y249700D02*
D03*
Y283700D02*
D03*
X1824950Y249700D02*
D03*
Y283700D02*
D03*
Y1299700D02*
D03*
Y1265700D02*
D03*
X1959650Y1299700D02*
D03*
Y1265700D02*
D03*
D45*
X253200Y283120D02*
D03*
Y867320D02*
D03*
Y1451520D02*
D03*
Y2035720D02*
D03*
X1655200Y1295400D02*
D03*
D46*
X253200Y173120D02*
D03*
Y757320D02*
D03*
Y1341520D02*
D03*
Y1925720D02*
D03*
D47*
X151600Y151920D02*
D03*
Y609120D02*
D03*
X1396200D02*
D03*
Y151920D02*
D03*
X151600Y736120D02*
D03*
Y1193320D02*
D03*
X1396200D02*
D03*
Y736120D02*
D03*
X151600Y1320320D02*
D03*
Y1777520D02*
D03*
X1396200D02*
D03*
Y1320320D02*
D03*
X151600Y1904520D02*
D03*
Y2361720D02*
D03*
X1396200D02*
D03*
Y1904520D02*
D03*
X1524000Y1397000D02*
D03*
X1981200D02*
D03*
Y152400D02*
D03*
X1524000D02*
D03*
D48*
X1538800Y1155700D02*
D03*
Y1028700D02*
D03*
Y774700D02*
D03*
Y520700D02*
D03*
Y266700D02*
D03*
Y647700D02*
D03*
Y393700D02*
D03*
Y901700D02*
D03*
D49*
X1709700Y266700D02*
D03*
X1744700D02*
D03*
X1709700Y393700D02*
D03*
X1744700D02*
D03*
X1709700Y520700D02*
D03*
X1744700D02*
D03*
X1709700Y647700D02*
D03*
X1744700D02*
D03*
X1709700Y774700D02*
D03*
X1744700D02*
D03*
X1709700Y901700D02*
D03*
X1744700D02*
D03*
X1709700Y1028700D02*
D03*
X1744700D02*
D03*
X1709700Y1155700D02*
D03*
X1744700D02*
D03*
D50*
X1545200Y1295400D02*
D03*
M02*
