M48
;Layer_Color=9474304
;FILE_FORMAT=4:4
METRIC,LZ
;TYPE=PLATED
T3F00S00C1.0000
%
G90
G05
T03
G00X017522Y002667
M15
G01X017372
M16
G00X017522Y003937
M15
G01X017372
M16
G00X017522Y005207
M15
G01X017372
M16
G00X017172Y005207
M15
G01X017022
M16
G00X017172Y003937
M15
G01X017022
M16
G00X017172Y002667
M15
G01X017022
M16
G00X012819Y0034512
M15
G01Y0033012
M16
G00X012819Y0038012
M15
G01Y0036512
M16
G00X011549Y0038012
M15
G01Y0036512
M16
G00X011549Y0034512
M15
G01Y0033012
M16
G00X010279Y0034512
M15
G01Y0033012
M16
G00X010279Y0038012
M15
G01Y0036512
M16
G00X009009Y0038012
M15
G01Y0036512
M16
G00X009009Y0034512
M15
G01Y0033012
M16
G00X007739Y0034512
M15
G01Y0033012
M16
G00X007739Y0038012
M15
G01Y0036512
M16
G00X006469Y0038012
M15
G01Y0036512
M16
G00X006469Y0034512
M15
G01Y0033012
M16
G00X005199Y0034512
M15
G01Y0033012
M16
G00X005199Y0038012
M15
G01Y0036512
M16
G00X003929Y0038012
M15
G01Y0036512
M16
G00X003929Y0034512
M15
G01Y0033012
M16
G00X003929Y0092932
M15
G01Y0091432
M16
G00X005199Y0092932
M15
G01Y0091432
M16
G00X006469Y0092932
M15
G01Y0091432
M16
G00X007739Y0092932
M15
G01Y0091432
M16
G00X009009Y0092932
M15
G01Y0091432
M16
G00X010279Y0092932
M15
G01Y0091432
M16
G00X011549Y0092932
M15
G01Y0091432
M16
G00X012819Y0092932
M15
G01Y0091432
M16
G00X017172Y009017
M15
G01X017022
M16
G00X017172Y007747
M15
G01X017022
M16
G00X017172Y006477
M15
G01X017022
M16
G00X017522Y006477
M15
G01X017372
M16
G00X017522Y007747
M15
G01X017372
M16
G00X017522Y009017
M15
G01X017372
M16
G00X017522Y010287
M15
G01X017372
M16
G00X017522Y011557
M15
G01X017372
M16
G00X017172Y011557
M15
G01X017022
M16
G00X017172Y010287
M15
G01X017022
M16
G00X012819Y0096432
M15
G01Y0094932
M16
G00X011549Y0096432
M15
G01Y0094932
M16
G00X010279Y0096432
M15
G01Y0094932
M16
G00X009009Y0096432
M15
G01Y0094932
M16
G00X007739Y0096432
M15
G01Y0094932
M16
G00X006469Y0096432
M15
G01Y0094932
M16
G00X005199Y0096432
M15
G01Y0094932
M16
G00X003929Y0096432
M15
G01Y0094932
M16
G00X003929Y0151352
M15
G01Y0149852
M16
G00X003929Y0154852
M15
G01Y0153352
M16
G00X005199Y0154852
M15
G01Y0153352
M16
G00X005199Y0151352
M15
G01Y0149852
M16
G00X006469Y0151352
M15
G01Y0149852
M16
G00X006469Y0154852
M15
G01Y0153352
M16
G00X007739Y0154852
M15
G01Y0153352
M16
G00X007739Y0151352
M15
G01Y0149852
M16
G00X009009Y0151352
M15
G01Y0149852
M16
G00X009009Y0154852
M15
G01Y0153352
M16
G00X010279Y0154852
M15
G01Y0153352
M16
G00X010279Y0151352
M15
G01Y0149852
M16
G00X011549Y0151352
M15
G01Y0149852
M16
G00X011549Y0154852
M15
G01Y0153352
M16
G00X012819Y0154852
M15
G01Y0153352
M16
G00X012819Y0151352
M15
G01Y0149852
M16
G00X012819Y0209772
M15
G01Y0208272
M16
G00X012819Y0213272
M15
G01Y0211772
M16
G00X011549Y0213272
M15
G01Y0211772
M16
G00X011549Y0209772
M15
G01Y0208272
M16
G00X010279Y0209772
M15
G01Y0208272
M16
G00X010279Y0213272
M15
G01Y0211772
M16
G00X009009Y0213272
M15
G01Y0211772
M16
G00X009009Y0209772
M15
G01Y0208272
M16
G00X007739Y0209772
M15
G01Y0208272
M16
G00X007739Y0213272
M15
G01Y0211772
M16
G00X006469Y0213272
M15
G01Y0211772
M16
G00X006469Y0209772
M15
G01Y0208272
M16
G00X005199Y0209772
M15
G01Y0208272
M16
G00X005199Y0213272
M15
G01Y0211772
M16
G00X003929Y0213272
M15
G01Y0211772
M16
G00X003929Y0209772
M15
G01Y0208272
M16
M17
M30
