G04*
G04 #@! TF.GenerationSoftware,Altium Limited,Altium Designer,22.0.2 (36)*
G04*
G04 Layer_Color=65535*
%FSLAX44Y44*%
%MOMM*%
G71*
G04*
G04 #@! TF.SameCoordinates,3D356D52-1F4F-4DC4-934F-51404F246838*
G04*
G04*
G04 #@! TF.FilePolarity,Positive*
G04*
G01*
G75*
%ADD10C,0.2540*%
%ADD13C,0.1524*%
%ADD29C,0.2000*%
%ADD30C,0.1000*%
%ADD31C,0.3000*%
%ADD32C,0.1270*%
%ADD33C,0.1500*%
%ADD34C,0.1530*%
D10*
X1282900Y140180D02*
G03*
X1282900Y140180I-1000J0D01*
G01*
X1155900D02*
G03*
X1155900Y140180I-1000J0D01*
G01*
X1028900D02*
G03*
X1028900Y140180I-1000J0D01*
G01*
X901900D02*
G03*
X901900Y140180I-1000J0D01*
G01*
X774900D02*
G03*
X774900Y140180I-1000J0D01*
G01*
X647900D02*
G03*
X647900Y140180I-1000J0D01*
G01*
X520900D02*
G03*
X520900Y140180I-1000J0D01*
G01*
X393900D02*
G03*
X393900Y140180I-1000J0D01*
G01*
X1282900Y724380D02*
G03*
X1282900Y724380I-1000J0D01*
G01*
X1155900D02*
G03*
X1155900Y724380I-1000J0D01*
G01*
X1028900D02*
G03*
X1028900Y724380I-1000J0D01*
G01*
X901900D02*
G03*
X901900Y724380I-1000J0D01*
G01*
X774900D02*
G03*
X774900Y724380I-1000J0D01*
G01*
X647900D02*
G03*
X647900Y724380I-1000J0D01*
G01*
X520900D02*
G03*
X520900Y724380I-1000J0D01*
G01*
X393900D02*
G03*
X393900Y724380I-1000J0D01*
G01*
X1282900Y1308580D02*
G03*
X1282900Y1308580I-1000J0D01*
G01*
X1155900D02*
G03*
X1155900Y1308580I-1000J0D01*
G01*
X1028900D02*
G03*
X1028900Y1308580I-1000J0D01*
G01*
X901900D02*
G03*
X901900Y1308580I-1000J0D01*
G01*
X774900D02*
G03*
X774900Y1308580I-1000J0D01*
G01*
X647900D02*
G03*
X647900Y1308580I-1000J0D01*
G01*
X520900D02*
G03*
X520900Y1308580I-1000J0D01*
G01*
X393900D02*
G03*
X393900Y1308580I-1000J0D01*
G01*
X1282900Y1892780D02*
G03*
X1282900Y1892780I-1000J0D01*
G01*
X1155900D02*
G03*
X1155900Y1892780I-1000J0D01*
G01*
X1028900D02*
G03*
X1028900Y1892780I-1000J0D01*
G01*
X901900D02*
G03*
X901900Y1892780I-1000J0D01*
G01*
X774900D02*
G03*
X774900Y1892780I-1000J0D01*
G01*
X647900D02*
G03*
X647900Y1892780I-1000J0D01*
G01*
X520900D02*
G03*
X520900Y1892780I-1000J0D01*
G01*
X393900D02*
G03*
X393900Y1892780I-1000J0D01*
G01*
X1512260Y265700D02*
G03*
X1512260Y265700I0J1000D01*
G01*
Y392700D02*
G03*
X1512260Y392700I0J1000D01*
G01*
Y519700D02*
G03*
X1512260Y519700I0J1000D01*
G01*
Y646700D02*
G03*
X1512260Y646700I0J1000D01*
G01*
Y773700D02*
G03*
X1512260Y773700I0J1000D01*
G01*
Y900700D02*
G03*
X1512260Y900700I0J1000D01*
G01*
Y1027700D02*
G03*
X1512260Y1027700I0J1000D01*
G01*
Y1154700D02*
G03*
X1512260Y1154700I0J1000D01*
G01*
D13*
X1228187Y395650D02*
X1227219Y395166D01*
X1226252Y394198D01*
X1225768Y393231D01*
Y391296D01*
X1226252Y390329D01*
X1227219Y389361D01*
X1228187Y388878D01*
X1229638Y388394D01*
X1232056D01*
X1233508Y388878D01*
X1234475Y389361D01*
X1235442Y390329D01*
X1235926Y391296D01*
Y393231D01*
X1235442Y394198D01*
X1234475Y395166D01*
X1233508Y395650D01*
X1225768Y400922D02*
X1226252Y399471D01*
X1227219Y398987D01*
X1228187D01*
X1229154Y399471D01*
X1229638Y400438D01*
X1230122Y402373D01*
X1230605Y403824D01*
X1231573Y404792D01*
X1232540Y405275D01*
X1233991D01*
X1234959Y404792D01*
X1235442Y404308D01*
X1235926Y402857D01*
Y400922D01*
X1235442Y399471D01*
X1234959Y398987D01*
X1233991Y398503D01*
X1232540D01*
X1231573Y398987D01*
X1230605Y399955D01*
X1230122Y401406D01*
X1229638Y403340D01*
X1229154Y404308D01*
X1228187Y404792D01*
X1227219D01*
X1226252Y404308D01*
X1225768Y402857D01*
Y400922D01*
X1101187Y395650D02*
X1100219Y395166D01*
X1099252Y394198D01*
X1098768Y393231D01*
Y391296D01*
X1099252Y390329D01*
X1100219Y389361D01*
X1101187Y388878D01*
X1102638Y388394D01*
X1105056D01*
X1106507Y388878D01*
X1107475Y389361D01*
X1108442Y390329D01*
X1108926Y391296D01*
Y393231D01*
X1108442Y394198D01*
X1107475Y395166D01*
X1106507Y395650D01*
X1098768Y405275D02*
X1108926Y400438D01*
X1098768Y398503D02*
Y405275D01*
X974187Y395650D02*
X973219Y395166D01*
X972252Y394198D01*
X971768Y393231D01*
Y391296D01*
X972252Y390329D01*
X973219Y389361D01*
X974187Y388878D01*
X975638Y388394D01*
X978056D01*
X979508Y388878D01*
X980475Y389361D01*
X981442Y390329D01*
X981926Y391296D01*
Y393231D01*
X981442Y394198D01*
X980475Y395166D01*
X979508Y395650D01*
X973219Y404308D02*
X972252Y403824D01*
X971768Y402373D01*
Y401406D01*
X972252Y399955D01*
X973703Y398987D01*
X976122Y398503D01*
X978540D01*
X980475Y398987D01*
X981442Y399955D01*
X981926Y401406D01*
Y401889D01*
X981442Y403340D01*
X980475Y404308D01*
X979024Y404792D01*
X978540D01*
X977089Y404308D01*
X976122Y403340D01*
X975638Y401889D01*
Y401406D01*
X976122Y399955D01*
X977089Y398987D01*
X978540Y398503D01*
X847187Y395650D02*
X846219Y395166D01*
X845252Y394198D01*
X844768Y393231D01*
Y391296D01*
X845252Y390329D01*
X846219Y389361D01*
X847187Y388878D01*
X848638Y388394D01*
X851056D01*
X852507Y388878D01*
X853475Y389361D01*
X854442Y390329D01*
X854926Y391296D01*
Y393231D01*
X854442Y394198D01*
X853475Y395166D01*
X852507Y395650D01*
X844768Y404308D02*
Y399471D01*
X849121Y398987D01*
X848638Y399471D01*
X848154Y400922D01*
Y402373D01*
X848638Y403824D01*
X849605Y404792D01*
X851056Y405275D01*
X852024D01*
X853475Y404792D01*
X854442Y403824D01*
X854926Y402373D01*
Y400922D01*
X854442Y399471D01*
X853959Y398987D01*
X852991Y398503D01*
X720187Y395650D02*
X719219Y395166D01*
X718252Y394198D01*
X717768Y393231D01*
Y391296D01*
X718252Y390329D01*
X719219Y389361D01*
X720187Y388878D01*
X721638Y388394D01*
X724056D01*
X725508Y388878D01*
X726475Y389361D01*
X727442Y390329D01*
X727926Y391296D01*
Y393231D01*
X727442Y394198D01*
X726475Y395166D01*
X725508Y395650D01*
X717768Y403340D02*
X724540Y398503D01*
Y405759D01*
X717768Y403340D02*
X727926D01*
X593187Y395650D02*
X592219Y395166D01*
X591252Y394198D01*
X590768Y393231D01*
Y391296D01*
X591252Y390329D01*
X592219Y389361D01*
X593187Y388878D01*
X594638Y388394D01*
X597056D01*
X598507Y388878D01*
X599475Y389361D01*
X600442Y390329D01*
X600926Y391296D01*
Y393231D01*
X600442Y394198D01*
X599475Y395166D01*
X598507Y395650D01*
X590768Y399471D02*
Y404792D01*
X594638Y401889D01*
Y403340D01*
X595121Y404308D01*
X595605Y404792D01*
X597056Y405275D01*
X598024D01*
X599475Y404792D01*
X600442Y403824D01*
X600926Y402373D01*
Y400922D01*
X600442Y399471D01*
X599959Y398987D01*
X598991Y398503D01*
X466187Y395650D02*
X465219Y395166D01*
X464252Y394198D01*
X463768Y393231D01*
Y391296D01*
X464252Y390329D01*
X465219Y389361D01*
X466187Y388878D01*
X467638Y388394D01*
X470056D01*
X471507Y388878D01*
X472475Y389361D01*
X473442Y390329D01*
X473926Y391296D01*
Y393231D01*
X473442Y394198D01*
X472475Y395166D01*
X471507Y395650D01*
X466187Y398987D02*
X465703D01*
X464736Y399471D01*
X464252Y399955D01*
X463768Y400922D01*
Y402857D01*
X464252Y403824D01*
X464736Y404308D01*
X465703Y404792D01*
X466670D01*
X467638Y404308D01*
X469089Y403340D01*
X473926Y398503D01*
Y405275D01*
X339187Y395650D02*
X338219Y395166D01*
X337252Y394198D01*
X336768Y393231D01*
Y391296D01*
X337252Y390329D01*
X338219Y389361D01*
X339187Y388878D01*
X340638Y388394D01*
X343056D01*
X344507Y388878D01*
X345475Y389361D01*
X346442Y390329D01*
X346926Y391296D01*
Y393231D01*
X346442Y394198D01*
X345475Y395166D01*
X344507Y395650D01*
X338703Y398503D02*
X338219Y399471D01*
X336768Y400922D01*
X346926D01*
X1228187Y979850D02*
X1227219Y979366D01*
X1226252Y978399D01*
X1225768Y977431D01*
Y975496D01*
X1226252Y974529D01*
X1227219Y973561D01*
X1228187Y973078D01*
X1229638Y972594D01*
X1232056D01*
X1233508Y973078D01*
X1234475Y973561D01*
X1235442Y974529D01*
X1235926Y975496D01*
Y977431D01*
X1235442Y978399D01*
X1234475Y979366D01*
X1233508Y979850D01*
X1225768Y985122D02*
X1226252Y983671D01*
X1227219Y983187D01*
X1228187D01*
X1229154Y983671D01*
X1229638Y984638D01*
X1230122Y986573D01*
X1230605Y988024D01*
X1231573Y988992D01*
X1232540Y989475D01*
X1233991D01*
X1234959Y988992D01*
X1235442Y988508D01*
X1235926Y987057D01*
Y985122D01*
X1235442Y983671D01*
X1234959Y983187D01*
X1233991Y982703D01*
X1232540D01*
X1231573Y983187D01*
X1230605Y984155D01*
X1230122Y985606D01*
X1229638Y987541D01*
X1229154Y988508D01*
X1228187Y988992D01*
X1227219D01*
X1226252Y988508D01*
X1225768Y987057D01*
Y985122D01*
X1101187Y979850D02*
X1100219Y979366D01*
X1099252Y978399D01*
X1098768Y977431D01*
Y975496D01*
X1099252Y974529D01*
X1100219Y973561D01*
X1101187Y973078D01*
X1102638Y972594D01*
X1105056D01*
X1106507Y973078D01*
X1107475Y973561D01*
X1108442Y974529D01*
X1108926Y975496D01*
Y977431D01*
X1108442Y978399D01*
X1107475Y979366D01*
X1106507Y979850D01*
X1098768Y989475D02*
X1108926Y984638D01*
X1098768Y982703D02*
Y989475D01*
X974187Y979850D02*
X973219Y979366D01*
X972252Y978399D01*
X971768Y977431D01*
Y975496D01*
X972252Y974529D01*
X973219Y973561D01*
X974187Y973078D01*
X975638Y972594D01*
X978056D01*
X979508Y973078D01*
X980475Y973561D01*
X981442Y974529D01*
X981926Y975496D01*
Y977431D01*
X981442Y978399D01*
X980475Y979366D01*
X979508Y979850D01*
X973219Y988508D02*
X972252Y988024D01*
X971768Y986573D01*
Y985606D01*
X972252Y984155D01*
X973703Y983187D01*
X976122Y982703D01*
X978540D01*
X980475Y983187D01*
X981442Y984155D01*
X981926Y985606D01*
Y986089D01*
X981442Y987541D01*
X980475Y988508D01*
X979024Y988992D01*
X978540D01*
X977089Y988508D01*
X976122Y987541D01*
X975638Y986089D01*
Y985606D01*
X976122Y984155D01*
X977089Y983187D01*
X978540Y982703D01*
X847187Y979850D02*
X846219Y979366D01*
X845252Y978399D01*
X844768Y977431D01*
Y975496D01*
X845252Y974529D01*
X846219Y973561D01*
X847187Y973078D01*
X848638Y972594D01*
X851056D01*
X852507Y973078D01*
X853475Y973561D01*
X854442Y974529D01*
X854926Y975496D01*
Y977431D01*
X854442Y978399D01*
X853475Y979366D01*
X852507Y979850D01*
X844768Y988508D02*
Y983671D01*
X849121Y983187D01*
X848638Y983671D01*
X848154Y985122D01*
Y986573D01*
X848638Y988024D01*
X849605Y988992D01*
X851056Y989475D01*
X852024D01*
X853475Y988992D01*
X854442Y988024D01*
X854926Y986573D01*
Y985122D01*
X854442Y983671D01*
X853959Y983187D01*
X852991Y982703D01*
X720187Y979850D02*
X719219Y979366D01*
X718252Y978399D01*
X717768Y977431D01*
Y975496D01*
X718252Y974529D01*
X719219Y973561D01*
X720187Y973078D01*
X721638Y972594D01*
X724056D01*
X725508Y973078D01*
X726475Y973561D01*
X727442Y974529D01*
X727926Y975496D01*
Y977431D01*
X727442Y978399D01*
X726475Y979366D01*
X725508Y979850D01*
X717768Y987541D02*
X724540Y982703D01*
Y989959D01*
X717768Y987541D02*
X727926D01*
X593187Y979850D02*
X592219Y979366D01*
X591252Y978399D01*
X590768Y977431D01*
Y975496D01*
X591252Y974529D01*
X592219Y973561D01*
X593187Y973078D01*
X594638Y972594D01*
X597056D01*
X598507Y973078D01*
X599475Y973561D01*
X600442Y974529D01*
X600926Y975496D01*
Y977431D01*
X600442Y978399D01*
X599475Y979366D01*
X598507Y979850D01*
X590768Y983671D02*
Y988992D01*
X594638Y986089D01*
Y987541D01*
X595121Y988508D01*
X595605Y988992D01*
X597056Y989475D01*
X598024D01*
X599475Y988992D01*
X600442Y988024D01*
X600926Y986573D01*
Y985122D01*
X600442Y983671D01*
X599959Y983187D01*
X598991Y982703D01*
X466187Y979850D02*
X465219Y979366D01*
X464252Y978399D01*
X463768Y977431D01*
Y975496D01*
X464252Y974529D01*
X465219Y973561D01*
X466187Y973078D01*
X467638Y972594D01*
X470056D01*
X471507Y973078D01*
X472475Y973561D01*
X473442Y974529D01*
X473926Y975496D01*
Y977431D01*
X473442Y978399D01*
X472475Y979366D01*
X471507Y979850D01*
X466187Y983187D02*
X465703D01*
X464736Y983671D01*
X464252Y984155D01*
X463768Y985122D01*
Y987057D01*
X464252Y988024D01*
X464736Y988508D01*
X465703Y988992D01*
X466670D01*
X467638Y988508D01*
X469089Y987541D01*
X473926Y982703D01*
Y989475D01*
X339187Y979850D02*
X338219Y979366D01*
X337252Y978399D01*
X336768Y977431D01*
Y975496D01*
X337252Y974529D01*
X338219Y973561D01*
X339187Y973078D01*
X340638Y972594D01*
X343056D01*
X344507Y973078D01*
X345475Y973561D01*
X346442Y974529D01*
X346926Y975496D01*
Y977431D01*
X346442Y978399D01*
X345475Y979366D01*
X344507Y979850D01*
X338703Y982703D02*
X338219Y983671D01*
X336768Y985122D01*
X346926D01*
X1228187Y1564050D02*
X1227219Y1563566D01*
X1226252Y1562599D01*
X1225768Y1561631D01*
Y1559696D01*
X1226252Y1558729D01*
X1227219Y1557761D01*
X1228187Y1557278D01*
X1229638Y1556794D01*
X1232056D01*
X1233508Y1557278D01*
X1234475Y1557761D01*
X1235442Y1558729D01*
X1235926Y1559696D01*
Y1561631D01*
X1235442Y1562599D01*
X1234475Y1563566D01*
X1233508Y1564050D01*
X1225768Y1569322D02*
X1226252Y1567871D01*
X1227219Y1567387D01*
X1228187D01*
X1229154Y1567871D01*
X1229638Y1568838D01*
X1230122Y1570773D01*
X1230605Y1572224D01*
X1231573Y1573192D01*
X1232540Y1573675D01*
X1233991D01*
X1234959Y1573192D01*
X1235442Y1572708D01*
X1235926Y1571257D01*
Y1569322D01*
X1235442Y1567871D01*
X1234959Y1567387D01*
X1233991Y1566904D01*
X1232540D01*
X1231573Y1567387D01*
X1230605Y1568355D01*
X1230122Y1569806D01*
X1229638Y1571741D01*
X1229154Y1572708D01*
X1228187Y1573192D01*
X1227219D01*
X1226252Y1572708D01*
X1225768Y1571257D01*
Y1569322D01*
X1101187Y1564050D02*
X1100219Y1563566D01*
X1099252Y1562599D01*
X1098768Y1561631D01*
Y1559696D01*
X1099252Y1558729D01*
X1100219Y1557761D01*
X1101187Y1557278D01*
X1102638Y1556794D01*
X1105056D01*
X1106507Y1557278D01*
X1107475Y1557761D01*
X1108442Y1558729D01*
X1108926Y1559696D01*
Y1561631D01*
X1108442Y1562599D01*
X1107475Y1563566D01*
X1106507Y1564050D01*
X1098768Y1573675D02*
X1108926Y1568838D01*
X1098768Y1566904D02*
Y1573675D01*
X974187Y1564050D02*
X973219Y1563566D01*
X972252Y1562599D01*
X971768Y1561631D01*
Y1559696D01*
X972252Y1558729D01*
X973219Y1557761D01*
X974187Y1557278D01*
X975638Y1556794D01*
X978056D01*
X979508Y1557278D01*
X980475Y1557761D01*
X981442Y1558729D01*
X981926Y1559696D01*
Y1561631D01*
X981442Y1562599D01*
X980475Y1563566D01*
X979508Y1564050D01*
X973219Y1572708D02*
X972252Y1572224D01*
X971768Y1570773D01*
Y1569806D01*
X972252Y1568355D01*
X973703Y1567387D01*
X976122Y1566904D01*
X978540D01*
X980475Y1567387D01*
X981442Y1568355D01*
X981926Y1569806D01*
Y1570289D01*
X981442Y1571741D01*
X980475Y1572708D01*
X979024Y1573192D01*
X978540D01*
X977089Y1572708D01*
X976122Y1571741D01*
X975638Y1570289D01*
Y1569806D01*
X976122Y1568355D01*
X977089Y1567387D01*
X978540Y1566904D01*
X847187Y1564050D02*
X846219Y1563566D01*
X845252Y1562599D01*
X844768Y1561631D01*
Y1559696D01*
X845252Y1558729D01*
X846219Y1557761D01*
X847187Y1557278D01*
X848638Y1556794D01*
X851056D01*
X852507Y1557278D01*
X853475Y1557761D01*
X854442Y1558729D01*
X854926Y1559696D01*
Y1561631D01*
X854442Y1562599D01*
X853475Y1563566D01*
X852507Y1564050D01*
X844768Y1572708D02*
Y1567871D01*
X849121Y1567387D01*
X848638Y1567871D01*
X848154Y1569322D01*
Y1570773D01*
X848638Y1572224D01*
X849605Y1573192D01*
X851056Y1573675D01*
X852024D01*
X853475Y1573192D01*
X854442Y1572224D01*
X854926Y1570773D01*
Y1569322D01*
X854442Y1567871D01*
X853959Y1567387D01*
X852991Y1566904D01*
X720187Y1564050D02*
X719219Y1563566D01*
X718252Y1562599D01*
X717768Y1561631D01*
Y1559696D01*
X718252Y1558729D01*
X719219Y1557761D01*
X720187Y1557278D01*
X721638Y1556794D01*
X724056D01*
X725508Y1557278D01*
X726475Y1557761D01*
X727442Y1558729D01*
X727926Y1559696D01*
Y1561631D01*
X727442Y1562599D01*
X726475Y1563566D01*
X725508Y1564050D01*
X717768Y1571741D02*
X724540Y1566904D01*
Y1574159D01*
X717768Y1571741D02*
X727926D01*
X593187Y1564050D02*
X592219Y1563566D01*
X591252Y1562599D01*
X590768Y1561631D01*
Y1559696D01*
X591252Y1558729D01*
X592219Y1557761D01*
X593187Y1557278D01*
X594638Y1556794D01*
X597056D01*
X598507Y1557278D01*
X599475Y1557761D01*
X600442Y1558729D01*
X600926Y1559696D01*
Y1561631D01*
X600442Y1562599D01*
X599475Y1563566D01*
X598507Y1564050D01*
X590768Y1567871D02*
Y1573192D01*
X594638Y1570289D01*
Y1571741D01*
X595121Y1572708D01*
X595605Y1573192D01*
X597056Y1573675D01*
X598024D01*
X599475Y1573192D01*
X600442Y1572224D01*
X600926Y1570773D01*
Y1569322D01*
X600442Y1567871D01*
X599959Y1567387D01*
X598991Y1566904D01*
X466187Y1564050D02*
X465219Y1563566D01*
X464252Y1562599D01*
X463768Y1561631D01*
Y1559696D01*
X464252Y1558729D01*
X465219Y1557761D01*
X466187Y1557278D01*
X467638Y1556794D01*
X470056D01*
X471507Y1557278D01*
X472475Y1557761D01*
X473442Y1558729D01*
X473926Y1559696D01*
Y1561631D01*
X473442Y1562599D01*
X472475Y1563566D01*
X471507Y1564050D01*
X466187Y1567387D02*
X465703D01*
X464736Y1567871D01*
X464252Y1568355D01*
X463768Y1569322D01*
Y1571257D01*
X464252Y1572224D01*
X464736Y1572708D01*
X465703Y1573192D01*
X466670D01*
X467638Y1572708D01*
X469089Y1571741D01*
X473926Y1566904D01*
Y1573675D01*
X339187Y1564050D02*
X338219Y1563566D01*
X337252Y1562599D01*
X336768Y1561631D01*
Y1559696D01*
X337252Y1558729D01*
X338219Y1557761D01*
X339187Y1557278D01*
X340638Y1556794D01*
X343056D01*
X344507Y1557278D01*
X345475Y1557761D01*
X346442Y1558729D01*
X346926Y1559696D01*
Y1561631D01*
X346442Y1562599D01*
X345475Y1563566D01*
X344507Y1564050D01*
X338703Y1566904D02*
X338219Y1567871D01*
X336768Y1569322D01*
X346926D01*
X1228187Y2148250D02*
X1227219Y2147766D01*
X1226252Y2146799D01*
X1225768Y2145831D01*
Y2143896D01*
X1226252Y2142929D01*
X1227219Y2141961D01*
X1228187Y2141478D01*
X1229638Y2140994D01*
X1232056D01*
X1233508Y2141478D01*
X1234475Y2141961D01*
X1235442Y2142929D01*
X1235926Y2143896D01*
Y2145831D01*
X1235442Y2146799D01*
X1234475Y2147766D01*
X1233508Y2148250D01*
X1225768Y2153522D02*
X1226252Y2152071D01*
X1227219Y2151587D01*
X1228187D01*
X1229154Y2152071D01*
X1229638Y2153038D01*
X1230122Y2154973D01*
X1230605Y2156424D01*
X1231573Y2157392D01*
X1232540Y2157875D01*
X1233991D01*
X1234959Y2157392D01*
X1235442Y2156908D01*
X1235926Y2155457D01*
Y2153522D01*
X1235442Y2152071D01*
X1234959Y2151587D01*
X1233991Y2151104D01*
X1232540D01*
X1231573Y2151587D01*
X1230605Y2152555D01*
X1230122Y2154006D01*
X1229638Y2155941D01*
X1229154Y2156908D01*
X1228187Y2157392D01*
X1227219D01*
X1226252Y2156908D01*
X1225768Y2155457D01*
Y2153522D01*
X1101187Y2148250D02*
X1100219Y2147766D01*
X1099252Y2146799D01*
X1098768Y2145831D01*
Y2143896D01*
X1099252Y2142929D01*
X1100219Y2141961D01*
X1101187Y2141478D01*
X1102638Y2140994D01*
X1105056D01*
X1106507Y2141478D01*
X1107475Y2141961D01*
X1108442Y2142929D01*
X1108926Y2143896D01*
Y2145831D01*
X1108442Y2146799D01*
X1107475Y2147766D01*
X1106507Y2148250D01*
X1098768Y2157875D02*
X1108926Y2153038D01*
X1098768Y2151104D02*
Y2157875D01*
X974187Y2148250D02*
X973219Y2147766D01*
X972252Y2146799D01*
X971768Y2145831D01*
Y2143896D01*
X972252Y2142929D01*
X973219Y2141961D01*
X974187Y2141478D01*
X975638Y2140994D01*
X978056D01*
X979508Y2141478D01*
X980475Y2141961D01*
X981442Y2142929D01*
X981926Y2143896D01*
Y2145831D01*
X981442Y2146799D01*
X980475Y2147766D01*
X979508Y2148250D01*
X973219Y2156908D02*
X972252Y2156424D01*
X971768Y2154973D01*
Y2154006D01*
X972252Y2152555D01*
X973703Y2151587D01*
X976122Y2151104D01*
X978540D01*
X980475Y2151587D01*
X981442Y2152555D01*
X981926Y2154006D01*
Y2154489D01*
X981442Y2155941D01*
X980475Y2156908D01*
X979024Y2157392D01*
X978540D01*
X977089Y2156908D01*
X976122Y2155941D01*
X975638Y2154489D01*
Y2154006D01*
X976122Y2152555D01*
X977089Y2151587D01*
X978540Y2151104D01*
X847187Y2148250D02*
X846219Y2147766D01*
X845252Y2146799D01*
X844768Y2145831D01*
Y2143896D01*
X845252Y2142929D01*
X846219Y2141961D01*
X847187Y2141478D01*
X848638Y2140994D01*
X851056D01*
X852507Y2141478D01*
X853475Y2141961D01*
X854442Y2142929D01*
X854926Y2143896D01*
Y2145831D01*
X854442Y2146799D01*
X853475Y2147766D01*
X852507Y2148250D01*
X844768Y2156908D02*
Y2152071D01*
X849121Y2151587D01*
X848638Y2152071D01*
X848154Y2153522D01*
Y2154973D01*
X848638Y2156424D01*
X849605Y2157392D01*
X851056Y2157875D01*
X852024D01*
X853475Y2157392D01*
X854442Y2156424D01*
X854926Y2154973D01*
Y2153522D01*
X854442Y2152071D01*
X853959Y2151587D01*
X852991Y2151104D01*
X720187Y2148250D02*
X719219Y2147766D01*
X718252Y2146799D01*
X717768Y2145831D01*
Y2143896D01*
X718252Y2142929D01*
X719219Y2141961D01*
X720187Y2141478D01*
X721638Y2140994D01*
X724056D01*
X725508Y2141478D01*
X726475Y2141961D01*
X727442Y2142929D01*
X727926Y2143896D01*
Y2145831D01*
X727442Y2146799D01*
X726475Y2147766D01*
X725508Y2148250D01*
X717768Y2155941D02*
X724540Y2151104D01*
Y2158359D01*
X717768Y2155941D02*
X727926D01*
X593187Y2148250D02*
X592219Y2147766D01*
X591252Y2146799D01*
X590768Y2145831D01*
Y2143896D01*
X591252Y2142929D01*
X592219Y2141961D01*
X593187Y2141478D01*
X594638Y2140994D01*
X597056D01*
X598507Y2141478D01*
X599475Y2141961D01*
X600442Y2142929D01*
X600926Y2143896D01*
Y2145831D01*
X600442Y2146799D01*
X599475Y2147766D01*
X598507Y2148250D01*
X590768Y2152071D02*
Y2157392D01*
X594638Y2154489D01*
Y2155941D01*
X595121Y2156908D01*
X595605Y2157392D01*
X597056Y2157875D01*
X598024D01*
X599475Y2157392D01*
X600442Y2156424D01*
X600926Y2154973D01*
Y2153522D01*
X600442Y2152071D01*
X599959Y2151587D01*
X598991Y2151104D01*
X466187Y2148250D02*
X465219Y2147766D01*
X464252Y2146799D01*
X463768Y2145831D01*
Y2143896D01*
X464252Y2142929D01*
X465219Y2141961D01*
X466187Y2141478D01*
X467638Y2140994D01*
X470056D01*
X471507Y2141478D01*
X472475Y2141961D01*
X473442Y2142929D01*
X473926Y2143896D01*
Y2145831D01*
X473442Y2146799D01*
X472475Y2147766D01*
X471507Y2148250D01*
X466187Y2151587D02*
X465703D01*
X464736Y2152071D01*
X464252Y2152555D01*
X463768Y2153522D01*
Y2155457D01*
X464252Y2156424D01*
X464736Y2156908D01*
X465703Y2157392D01*
X466670D01*
X467638Y2156908D01*
X469089Y2155941D01*
X473926Y2151104D01*
Y2157875D01*
X339187Y2148250D02*
X338219Y2147766D01*
X337252Y2146799D01*
X336768Y2145831D01*
Y2143896D01*
X337252Y2142929D01*
X338219Y2141961D01*
X339187Y2141478D01*
X340638Y2140994D01*
X343056D01*
X344507Y2141478D01*
X345475Y2141961D01*
X346442Y2142929D01*
X346926Y2143896D01*
Y2145831D01*
X346442Y2146799D01*
X345475Y2147766D01*
X344507Y2148250D01*
X338703Y2151104D02*
X338219Y2152071D01*
X336768Y2153522D01*
X346926D01*
X1767730Y320413D02*
X1767246Y321381D01*
X1766279Y322348D01*
X1765311Y322832D01*
X1763376D01*
X1762409Y322348D01*
X1761441Y321381D01*
X1760958Y320413D01*
X1760474Y318962D01*
Y316544D01*
X1760958Y315093D01*
X1761441Y314125D01*
X1762409Y313158D01*
X1763376Y312674D01*
X1765311D01*
X1766279Y313158D01*
X1767246Y314125D01*
X1767730Y315093D01*
X1773002Y322832D02*
X1771551Y322348D01*
X1771067Y321381D01*
Y320413D01*
X1771551Y319446D01*
X1772518Y318962D01*
X1774453Y318479D01*
X1775904Y317995D01*
X1776872Y317027D01*
X1777355Y316060D01*
Y314609D01*
X1776872Y313641D01*
X1776388Y313158D01*
X1774937Y312674D01*
X1773002D01*
X1771551Y313158D01*
X1771067Y313641D01*
X1770583Y314609D01*
Y316060D01*
X1771067Y317027D01*
X1772035Y317995D01*
X1773486Y318479D01*
X1775421Y318962D01*
X1776388Y319446D01*
X1776872Y320413D01*
Y321381D01*
X1776388Y322348D01*
X1774937Y322832D01*
X1773002D01*
X1767730Y447413D02*
X1767246Y448381D01*
X1766279Y449348D01*
X1765311Y449832D01*
X1763376D01*
X1762409Y449348D01*
X1761441Y448381D01*
X1760958Y447413D01*
X1760474Y445962D01*
Y443544D01*
X1760958Y442093D01*
X1761441Y441125D01*
X1762409Y440158D01*
X1763376Y439674D01*
X1765311D01*
X1766279Y440158D01*
X1767246Y441125D01*
X1767730Y442093D01*
X1777355Y449832D02*
X1772518Y439674D01*
X1770583Y449832D02*
X1777355D01*
X1767730Y574413D02*
X1767246Y575381D01*
X1766279Y576348D01*
X1765311Y576832D01*
X1763376D01*
X1762409Y576348D01*
X1761441Y575381D01*
X1760958Y574413D01*
X1760474Y572962D01*
Y570544D01*
X1760958Y569092D01*
X1761441Y568125D01*
X1762409Y567158D01*
X1763376Y566674D01*
X1765311D01*
X1766279Y567158D01*
X1767246Y568125D01*
X1767730Y569092D01*
X1776388Y575381D02*
X1775904Y576348D01*
X1774453Y576832D01*
X1773486D01*
X1772035Y576348D01*
X1771067Y574897D01*
X1770583Y572478D01*
Y570060D01*
X1771067Y568125D01*
X1772035Y567158D01*
X1773486Y566674D01*
X1773969D01*
X1775421Y567158D01*
X1776388Y568125D01*
X1776872Y569576D01*
Y570060D01*
X1776388Y571511D01*
X1775421Y572478D01*
X1773969Y572962D01*
X1773486D01*
X1772035Y572478D01*
X1771067Y571511D01*
X1770583Y570060D01*
X1767730Y701413D02*
X1767246Y702381D01*
X1766279Y703348D01*
X1765311Y703832D01*
X1763376D01*
X1762409Y703348D01*
X1761441Y702381D01*
X1760958Y701413D01*
X1760474Y699962D01*
Y697544D01*
X1760958Y696093D01*
X1761441Y695125D01*
X1762409Y694158D01*
X1763376Y693674D01*
X1765311D01*
X1766279Y694158D01*
X1767246Y695125D01*
X1767730Y696093D01*
X1776388Y703832D02*
X1771551D01*
X1771067Y699479D01*
X1771551Y699962D01*
X1773002Y700446D01*
X1774453D01*
X1775904Y699962D01*
X1776872Y698995D01*
X1777355Y697544D01*
Y696576D01*
X1776872Y695125D01*
X1775904Y694158D01*
X1774453Y693674D01*
X1773002D01*
X1771551Y694158D01*
X1771067Y694641D01*
X1770583Y695609D01*
X1767730Y828413D02*
X1767246Y829381D01*
X1766279Y830348D01*
X1765311Y830832D01*
X1763376D01*
X1762409Y830348D01*
X1761441Y829381D01*
X1760958Y828413D01*
X1760474Y826962D01*
Y824544D01*
X1760958Y823092D01*
X1761441Y822125D01*
X1762409Y821158D01*
X1763376Y820674D01*
X1765311D01*
X1766279Y821158D01*
X1767246Y822125D01*
X1767730Y823092D01*
X1775421Y830832D02*
X1770583Y824060D01*
X1777839D01*
X1775421Y830832D02*
Y820674D01*
X1767730Y955413D02*
X1767246Y956381D01*
X1766279Y957348D01*
X1765311Y957832D01*
X1763376D01*
X1762409Y957348D01*
X1761441Y956381D01*
X1760958Y955413D01*
X1760474Y953962D01*
Y951544D01*
X1760958Y950092D01*
X1761441Y949125D01*
X1762409Y948158D01*
X1763376Y947674D01*
X1765311D01*
X1766279Y948158D01*
X1767246Y949125D01*
X1767730Y950092D01*
X1771551Y957832D02*
X1776872D01*
X1773969Y953962D01*
X1775421D01*
X1776388Y953478D01*
X1776872Y952995D01*
X1777355Y951544D01*
Y950576D01*
X1776872Y949125D01*
X1775904Y948158D01*
X1774453Y947674D01*
X1773002D01*
X1771551Y948158D01*
X1771067Y948641D01*
X1770583Y949609D01*
X1767730Y1082413D02*
X1767246Y1083381D01*
X1766279Y1084348D01*
X1765311Y1084832D01*
X1763376D01*
X1762409Y1084348D01*
X1761441Y1083381D01*
X1760958Y1082413D01*
X1760474Y1080962D01*
Y1078544D01*
X1760958Y1077093D01*
X1761441Y1076125D01*
X1762409Y1075158D01*
X1763376Y1074674D01*
X1765311D01*
X1766279Y1075158D01*
X1767246Y1076125D01*
X1767730Y1077093D01*
X1771067Y1082413D02*
Y1082897D01*
X1771551Y1083864D01*
X1772035Y1084348D01*
X1773002Y1084832D01*
X1774937D01*
X1775904Y1084348D01*
X1776388Y1083864D01*
X1776872Y1082897D01*
Y1081930D01*
X1776388Y1080962D01*
X1775421Y1079511D01*
X1770583Y1074674D01*
X1777355D01*
X1767730Y1209413D02*
X1767246Y1210381D01*
X1766279Y1211348D01*
X1765311Y1211832D01*
X1763376D01*
X1762409Y1211348D01*
X1761441Y1210381D01*
X1760958Y1209413D01*
X1760474Y1207962D01*
Y1205544D01*
X1760958Y1204092D01*
X1761441Y1203125D01*
X1762409Y1202158D01*
X1763376Y1201674D01*
X1765311D01*
X1766279Y1202158D01*
X1767246Y1203125D01*
X1767730Y1204092D01*
X1770583Y1209897D02*
X1771551Y1210381D01*
X1773002Y1211832D01*
Y1201674D01*
D29*
X1331900Y355120D02*
G03*
X1331900Y355120I-50000J0D01*
G01*
X1204900D02*
G03*
X1204900Y355120I-50000J0D01*
G01*
X1077900D02*
G03*
X1077900Y355120I-50000J0D01*
G01*
X950900D02*
G03*
X950900Y355120I-50000J0D01*
G01*
X823900D02*
G03*
X823900Y355120I-50000J0D01*
G01*
X696900D02*
G03*
X696900Y355120I-50000J0D01*
G01*
X569900D02*
G03*
X569900Y355120I-50000J0D01*
G01*
X442900D02*
G03*
X442900Y355120I-50000J0D01*
G01*
X1276820Y295120D02*
X1286980D01*
X1281900Y290040D02*
Y300200D01*
X1149820Y295120D02*
X1159980D01*
X1154900Y290040D02*
Y300200D01*
X1022820Y295120D02*
X1032980D01*
X1027900Y290040D02*
Y300200D01*
X895820Y295120D02*
X905980D01*
X900900Y290040D02*
Y300200D01*
X768820Y295120D02*
X778980D01*
X773900Y290040D02*
Y300200D01*
X641820Y295120D02*
X651980D01*
X646900Y290040D02*
Y300200D01*
X514820Y295120D02*
X524980D01*
X519900Y290040D02*
Y300200D01*
X387820Y295120D02*
X397980D01*
X392900Y290040D02*
Y300200D01*
X1331900Y939320D02*
G03*
X1331900Y939320I-50000J0D01*
G01*
X1204900D02*
G03*
X1204900Y939320I-50000J0D01*
G01*
X1077900D02*
G03*
X1077900Y939320I-50000J0D01*
G01*
X950900D02*
G03*
X950900Y939320I-50000J0D01*
G01*
X823900D02*
G03*
X823900Y939320I-50000J0D01*
G01*
X696900D02*
G03*
X696900Y939320I-50000J0D01*
G01*
X569900D02*
G03*
X569900Y939320I-50000J0D01*
G01*
X442900D02*
G03*
X442900Y939320I-50000J0D01*
G01*
X1276820Y879320D02*
X1286980D01*
X1281900Y874240D02*
Y884400D01*
X1149820Y879320D02*
X1159980D01*
X1154900Y874240D02*
Y884400D01*
X1022820Y879320D02*
X1032980D01*
X1027900Y874240D02*
Y884400D01*
X895820Y879320D02*
X905980D01*
X900900Y874240D02*
Y884400D01*
X768820Y879320D02*
X778980D01*
X773900Y874240D02*
Y884400D01*
X641820Y879320D02*
X651980D01*
X646900Y874240D02*
Y884400D01*
X514820Y879320D02*
X524980D01*
X519900Y874240D02*
Y884400D01*
X387820Y879320D02*
X397980D01*
X392900Y874240D02*
Y884400D01*
X1331900Y1523520D02*
G03*
X1331900Y1523520I-50000J0D01*
G01*
X1204900D02*
G03*
X1204900Y1523520I-50000J0D01*
G01*
X1077900D02*
G03*
X1077900Y1523520I-50000J0D01*
G01*
X950900D02*
G03*
X950900Y1523520I-50000J0D01*
G01*
X823900D02*
G03*
X823900Y1523520I-50000J0D01*
G01*
X696900D02*
G03*
X696900Y1523520I-50000J0D01*
G01*
X569900D02*
G03*
X569900Y1523520I-50000J0D01*
G01*
X442900D02*
G03*
X442900Y1523520I-50000J0D01*
G01*
X1276820Y1463520D02*
X1286980D01*
X1281900Y1458440D02*
Y1468600D01*
X1149820Y1463520D02*
X1159980D01*
X1154900Y1458440D02*
Y1468600D01*
X1022820Y1463520D02*
X1032980D01*
X1027900Y1458440D02*
Y1468600D01*
X895820Y1463520D02*
X905980D01*
X900900Y1458440D02*
Y1468600D01*
X768820Y1463520D02*
X778980D01*
X773900Y1458440D02*
Y1468600D01*
X641820Y1463520D02*
X651980D01*
X646900Y1458440D02*
Y1468600D01*
X514820Y1463520D02*
X524980D01*
X519900Y1458440D02*
Y1468600D01*
X387820Y1463520D02*
X397980D01*
X392900Y1458440D02*
Y1468600D01*
X1331900Y2107720D02*
G03*
X1331900Y2107720I-50000J0D01*
G01*
X1204900D02*
G03*
X1204900Y2107720I-50000J0D01*
G01*
X1077900D02*
G03*
X1077900Y2107720I-50000J0D01*
G01*
X950900D02*
G03*
X950900Y2107720I-50000J0D01*
G01*
X823900D02*
G03*
X823900Y2107720I-50000J0D01*
G01*
X696900D02*
G03*
X696900Y2107720I-50000J0D01*
G01*
X569900D02*
G03*
X569900Y2107720I-50000J0D01*
G01*
X442900D02*
G03*
X442900Y2107720I-50000J0D01*
G01*
X1276820Y2047720D02*
X1286980D01*
X1281900Y2042640D02*
Y2052800D01*
X1149820Y2047720D02*
X1159980D01*
X1154900Y2042640D02*
Y2052800D01*
X1022820Y2047720D02*
X1032980D01*
X1027900Y2042640D02*
Y2052800D01*
X895820Y2047720D02*
X905980D01*
X900900Y2042640D02*
Y2052800D01*
X768820Y2047720D02*
X778980D01*
X773900Y2042640D02*
Y2052800D01*
X641820Y2047720D02*
X651980D01*
X646900Y2042640D02*
Y2052800D01*
X514820Y2047720D02*
X524980D01*
X519900Y2042640D02*
Y2052800D01*
X387820Y2047720D02*
X397980D01*
X392900Y2042640D02*
Y2052800D01*
X1727200Y216700D02*
G03*
X1727200Y216700I0J50000D01*
G01*
Y343700D02*
G03*
X1727200Y343700I0J50000D01*
G01*
Y470700D02*
G03*
X1727200Y470700I0J50000D01*
G01*
Y597700D02*
G03*
X1727200Y597700I0J50000D01*
G01*
Y724700D02*
G03*
X1727200Y724700I0J50000D01*
G01*
Y851700D02*
G03*
X1727200Y851700I0J50000D01*
G01*
Y978700D02*
G03*
X1727200Y978700I0J50000D01*
G01*
Y1105700D02*
G03*
X1727200Y1105700I0J50000D01*
G01*
X1667200Y271780D02*
Y261620D01*
X1662120Y266700D02*
X1672280D01*
X1667200Y398780D02*
Y388620D01*
X1662120Y393700D02*
X1672280D01*
X1667200Y525780D02*
Y515620D01*
X1662120Y520700D02*
X1672280D01*
X1667200Y652780D02*
Y642620D01*
X1662120Y647700D02*
X1672280D01*
X1667200Y779780D02*
Y769620D01*
X1662120Y774700D02*
X1672280D01*
X1667200Y906780D02*
Y896620D01*
X1662120Y901700D02*
X1672280D01*
X1667200Y1033780D02*
Y1023620D01*
X1662120Y1028700D02*
X1672280D01*
X1667200Y1160780D02*
Y1150620D01*
X1662120Y1155700D02*
X1672280D01*
D30*
X226100Y577820D02*
G03*
X226100Y577820I-500J0D01*
G01*
X327700D02*
G03*
X327700Y577820I-500J0D01*
G01*
X454700D02*
G03*
X454700Y577820I-500J0D01*
G01*
X581700D02*
G03*
X581700Y577820I-500J0D01*
G01*
X708700D02*
G03*
X708700Y577820I-500J0D01*
G01*
X835700D02*
G03*
X835700Y577820I-500J0D01*
G01*
X962700D02*
G03*
X962700Y577820I-500J0D01*
G01*
X1089700D02*
G03*
X1089700Y577820I-500J0D01*
G01*
X1216700D02*
G03*
X1216700Y577820I-500J0D01*
G01*
X1343700D02*
G03*
X1343700Y577820I-500J0D01*
G01*
X570700Y610870D02*
X573200Y607370D01*
X570700D02*
X573200D01*
X570700Y610870D02*
X572950D01*
X568450D02*
X570700D01*
X568200Y607370D02*
X570700D01*
X568200D02*
X570700Y610870D01*
X316700D02*
X319200Y607370D01*
X316700D02*
X319200D01*
X316700Y610870D02*
X318950D01*
X314450D02*
X316700D01*
X314200Y607370D02*
X316700D01*
X314200D02*
X316700Y610870D01*
X215100D02*
X217600Y607370D01*
X215100D02*
X217600D01*
X215100Y610870D02*
X217350D01*
X212850D02*
X215100D01*
X212600Y607370D02*
X215100D01*
X212600D02*
X215100Y610870D01*
X697700D02*
X700200Y607370D01*
X697700D02*
X700200D01*
X697700Y610870D02*
X699950D01*
X695450D02*
X697700D01*
X695200Y607370D02*
X697700D01*
X695200D02*
X697700Y610870D01*
X949200Y607370D02*
X951700Y610870D01*
X949200Y607370D02*
X951700D01*
X949450Y610870D02*
X951700D01*
X953950D01*
X951700Y607370D02*
X954200D01*
X951700Y610870D02*
X954200Y607370D01*
X824700Y610870D02*
X827200Y607370D01*
X824700D02*
X827200D01*
X824700Y610870D02*
X826950D01*
X822450D02*
X824700D01*
X822200Y607370D02*
X824700D01*
X822200D02*
X824700Y610870D01*
X441200Y607370D02*
X443700Y610870D01*
X441200Y607370D02*
X443700D01*
X441450Y610870D02*
X443700D01*
X445950D01*
X443700Y607370D02*
X446200D01*
X443700Y610870D02*
X446200Y607370D01*
X1332700Y610870D02*
X1335200Y607370D01*
X1332700D02*
X1335200D01*
X1332700Y610870D02*
X1334950D01*
X1330450D02*
X1332700D01*
X1330200Y607370D02*
X1332700D01*
X1330200D02*
X1332700Y610870D01*
X1203200Y607370D02*
X1205700Y610870D01*
X1203200Y607370D02*
X1205700D01*
X1203450Y610870D02*
X1205700D01*
X1207950D01*
X1205700Y607370D02*
X1208200D01*
X1205700Y610870D02*
X1208200Y607370D01*
X1078700Y610870D02*
X1081200Y607370D01*
X1078700D02*
X1081200D01*
X1078700Y610870D02*
X1080950D01*
X1076450D02*
X1078700D01*
X1076200Y607370D02*
X1078700D01*
X1076200D02*
X1078700Y610870D01*
X226100Y1162020D02*
G03*
X226100Y1162020I-500J0D01*
G01*
X327700D02*
G03*
X327700Y1162020I-500J0D01*
G01*
X454700D02*
G03*
X454700Y1162020I-500J0D01*
G01*
X581700D02*
G03*
X581700Y1162020I-500J0D01*
G01*
X708700D02*
G03*
X708700Y1162020I-500J0D01*
G01*
X835700D02*
G03*
X835700Y1162020I-500J0D01*
G01*
X962700D02*
G03*
X962700Y1162020I-500J0D01*
G01*
X1089700D02*
G03*
X1089700Y1162020I-500J0D01*
G01*
X1216700D02*
G03*
X1216700Y1162020I-500J0D01*
G01*
X1343700D02*
G03*
X1343700Y1162020I-500J0D01*
G01*
X570700Y1195070D02*
X573200Y1191570D01*
X570700D02*
X573200D01*
X570700Y1195070D02*
X572950D01*
X568450D02*
X570700D01*
X568200Y1191570D02*
X570700D01*
X568200D02*
X570700Y1195070D01*
X316700D02*
X319200Y1191570D01*
X316700D02*
X319200D01*
X316700Y1195070D02*
X318950D01*
X314450D02*
X316700D01*
X314200Y1191570D02*
X316700D01*
X314200D02*
X316700Y1195070D01*
X215100D02*
X217600Y1191570D01*
X215100D02*
X217600D01*
X215100Y1195070D02*
X217350D01*
X212850D02*
X215100D01*
X212600Y1191570D02*
X215100D01*
X212600D02*
X215100Y1195070D01*
X697700D02*
X700200Y1191570D01*
X697700D02*
X700200D01*
X697700Y1195070D02*
X699950D01*
X695450D02*
X697700D01*
X695200Y1191570D02*
X697700D01*
X695200D02*
X697700Y1195070D01*
X949200Y1191570D02*
X951700Y1195070D01*
X949200Y1191570D02*
X951700D01*
X949450Y1195070D02*
X951700D01*
X953950D01*
X951700Y1191570D02*
X954200D01*
X951700Y1195070D02*
X954200Y1191570D01*
X824700Y1195070D02*
X827200Y1191570D01*
X824700D02*
X827200D01*
X824700Y1195070D02*
X826950D01*
X822450D02*
X824700D01*
X822200Y1191570D02*
X824700D01*
X822200D02*
X824700Y1195070D01*
X441200Y1191570D02*
X443700Y1195070D01*
X441200Y1191570D02*
X443700D01*
X441450Y1195070D02*
X443700D01*
X445950D01*
X443700Y1191570D02*
X446200D01*
X443700Y1195070D02*
X446200Y1191570D01*
X1332700Y1195070D02*
X1335200Y1191570D01*
X1332700D02*
X1335200D01*
X1332700Y1195070D02*
X1334950D01*
X1330450D02*
X1332700D01*
X1330200Y1191570D02*
X1332700D01*
X1330200D02*
X1332700Y1195070D01*
X1203200Y1191570D02*
X1205700Y1195070D01*
X1203200Y1191570D02*
X1205700D01*
X1203450Y1195070D02*
X1205700D01*
X1207950D01*
X1205700Y1191570D02*
X1208200D01*
X1205700Y1195070D02*
X1208200Y1191570D01*
X1078700Y1195070D02*
X1081200Y1191570D01*
X1078700D02*
X1081200D01*
X1078700Y1195070D02*
X1080950D01*
X1076450D02*
X1078700D01*
X1076200Y1191570D02*
X1078700D01*
X1076200D02*
X1078700Y1195070D01*
X226100Y1746220D02*
G03*
X226100Y1746220I-500J0D01*
G01*
X327700D02*
G03*
X327700Y1746220I-500J0D01*
G01*
X454700D02*
G03*
X454700Y1746220I-500J0D01*
G01*
X581700D02*
G03*
X581700Y1746220I-500J0D01*
G01*
X708700D02*
G03*
X708700Y1746220I-500J0D01*
G01*
X835700D02*
G03*
X835700Y1746220I-500J0D01*
G01*
X962700D02*
G03*
X962700Y1746220I-500J0D01*
G01*
X1089700D02*
G03*
X1089700Y1746220I-500J0D01*
G01*
X1216700D02*
G03*
X1216700Y1746220I-500J0D01*
G01*
X1343700D02*
G03*
X1343700Y1746220I-500J0D01*
G01*
X570700Y1779270D02*
X573200Y1775770D01*
X570700D02*
X573200D01*
X570700Y1779270D02*
X572950D01*
X568450D02*
X570700D01*
X568200Y1775770D02*
X570700D01*
X568200D02*
X570700Y1779270D01*
X316700D02*
X319200Y1775770D01*
X316700D02*
X319200D01*
X316700Y1779270D02*
X318950D01*
X314450D02*
X316700D01*
X314200Y1775770D02*
X316700D01*
X314200D02*
X316700Y1779270D01*
X215100D02*
X217600Y1775770D01*
X215100D02*
X217600D01*
X215100Y1779270D02*
X217350D01*
X212850D02*
X215100D01*
X212600Y1775770D02*
X215100D01*
X212600D02*
X215100Y1779270D01*
X697700D02*
X700200Y1775770D01*
X697700D02*
X700200D01*
X697700Y1779270D02*
X699950D01*
X695450D02*
X697700D01*
X695200Y1775770D02*
X697700D01*
X695200D02*
X697700Y1779270D01*
X949200Y1775770D02*
X951700Y1779270D01*
X949200Y1775770D02*
X951700D01*
X949450Y1779270D02*
X951700D01*
X953950D01*
X951700Y1775770D02*
X954200D01*
X951700Y1779270D02*
X954200Y1775770D01*
X824700Y1779270D02*
X827200Y1775770D01*
X824700D02*
X827200D01*
X824700Y1779270D02*
X826950D01*
X822450D02*
X824700D01*
X822200Y1775770D02*
X824700D01*
X822200D02*
X824700Y1779270D01*
X441200Y1775770D02*
X443700Y1779270D01*
X441200Y1775770D02*
X443700D01*
X441450Y1779270D02*
X443700D01*
X445950D01*
X443700Y1775770D02*
X446200D01*
X443700Y1779270D02*
X446200Y1775770D01*
X1332700Y1779270D02*
X1335200Y1775770D01*
X1332700D02*
X1335200D01*
X1332700Y1779270D02*
X1334950D01*
X1330450D02*
X1332700D01*
X1330200Y1775770D02*
X1332700D01*
X1330200D02*
X1332700Y1779270D01*
X1203200Y1775770D02*
X1205700Y1779270D01*
X1203200Y1775770D02*
X1205700D01*
X1203450Y1779270D02*
X1205700D01*
X1207950D01*
X1205700Y1775770D02*
X1208200D01*
X1205700Y1779270D02*
X1208200Y1775770D01*
X1078700Y1779270D02*
X1081200Y1775770D01*
X1078700D02*
X1081200D01*
X1078700Y1779270D02*
X1080950D01*
X1076450D02*
X1078700D01*
X1076200Y1775770D02*
X1078700D01*
X1076200D02*
X1078700Y1779270D01*
X226100Y2330420D02*
G03*
X226100Y2330420I-500J0D01*
G01*
X327700D02*
G03*
X327700Y2330420I-500J0D01*
G01*
X454700D02*
G03*
X454700Y2330420I-500J0D01*
G01*
X581700D02*
G03*
X581700Y2330420I-500J0D01*
G01*
X708700D02*
G03*
X708700Y2330420I-500J0D01*
G01*
X835700D02*
G03*
X835700Y2330420I-500J0D01*
G01*
X962700D02*
G03*
X962700Y2330420I-500J0D01*
G01*
X1089700D02*
G03*
X1089700Y2330420I-500J0D01*
G01*
X1216700D02*
G03*
X1216700Y2330420I-500J0D01*
G01*
X1343700D02*
G03*
X1343700Y2330420I-500J0D01*
G01*
X570700Y2363470D02*
X573200Y2359970D01*
X570700D02*
X573200D01*
X570700Y2363470D02*
X572950D01*
X568450D02*
X570700D01*
X568200Y2359970D02*
X570700D01*
X568200D02*
X570700Y2363470D01*
X316700D02*
X319200Y2359970D01*
X316700D02*
X319200D01*
X316700Y2363470D02*
X318950D01*
X314450D02*
X316700D01*
X314200Y2359970D02*
X316700D01*
X314200D02*
X316700Y2363470D01*
X215100D02*
X217600Y2359970D01*
X215100D02*
X217600D01*
X215100Y2363470D02*
X217350D01*
X212850D02*
X215100D01*
X212600Y2359970D02*
X215100D01*
X212600D02*
X215100Y2363470D01*
X697700D02*
X700200Y2359970D01*
X697700D02*
X700200D01*
X697700Y2363470D02*
X699950D01*
X695450D02*
X697700D01*
X695200Y2359970D02*
X697700D01*
X695200D02*
X697700Y2363470D01*
X949200Y2359970D02*
X951700Y2363470D01*
X949200Y2359970D02*
X951700D01*
X949450Y2363470D02*
X951700D01*
X953950D01*
X951700Y2359970D02*
X954200D01*
X951700Y2363470D02*
X954200Y2359970D01*
X824700Y2363470D02*
X827200Y2359970D01*
X824700D02*
X827200D01*
X824700Y2363470D02*
X826950D01*
X822450D02*
X824700D01*
X822200Y2359970D02*
X824700D01*
X822200D02*
X824700Y2363470D01*
X441200Y2359970D02*
X443700Y2363470D01*
X441200Y2359970D02*
X443700D01*
X441450Y2363470D02*
X443700D01*
X445950D01*
X443700Y2359970D02*
X446200D01*
X443700Y2363470D02*
X446200Y2359970D01*
X1332700Y2363470D02*
X1335200Y2359970D01*
X1332700D02*
X1335200D01*
X1332700Y2363470D02*
X1334950D01*
X1330450D02*
X1332700D01*
X1330200Y2359970D02*
X1332700D01*
X1330200D02*
X1332700Y2363470D01*
X1203200Y2359970D02*
X1205700Y2363470D01*
X1203200Y2359970D02*
X1205700D01*
X1203450Y2363470D02*
X1205700D01*
X1207950D01*
X1205700Y2359970D02*
X1208200D01*
X1205700Y2363470D02*
X1208200Y2359970D01*
X1078700Y2363470D02*
X1081200Y2359970D01*
X1078700D02*
X1081200D01*
X1078700Y2363470D02*
X1080950D01*
X1076450D02*
X1078700D01*
X1076200Y2359970D02*
X1078700D01*
X1076200D02*
X1078700Y2363470D01*
X1949900Y1322500D02*
G03*
X1949900Y1322500I0J500D01*
G01*
Y1220900D02*
G03*
X1949900Y1220900I0J500D01*
G01*
Y1093900D02*
G03*
X1949900Y1093900I0J500D01*
G01*
Y966900D02*
G03*
X1949900Y966900I0J500D01*
G01*
Y839900D02*
G03*
X1949900Y839900I0J500D01*
G01*
Y712900D02*
G03*
X1949900Y712900I0J500D01*
G01*
Y585900D02*
G03*
X1949900Y585900I0J500D01*
G01*
Y458900D02*
G03*
X1949900Y458900I0J500D01*
G01*
Y331900D02*
G03*
X1949900Y331900I0J500D01*
G01*
Y204900D02*
G03*
X1949900Y204900I0J500D01*
G01*
X1982950Y977900D02*
X1979450Y975400D01*
Y977900D02*
Y975400D01*
X1982950Y977900D02*
Y975650D01*
Y980150D02*
Y977900D01*
X1979450Y980400D02*
Y977900D01*
Y980400D02*
X1982950Y977900D01*
Y1231900D02*
X1979450Y1229400D01*
Y1231900D02*
Y1229400D01*
X1982950Y1231900D02*
Y1229650D01*
Y1234150D02*
Y1231900D01*
X1979450Y1234400D02*
Y1231900D01*
Y1234400D02*
X1982950Y1231900D01*
Y1333500D02*
X1979450Y1331000D01*
Y1333500D02*
Y1331000D01*
X1982950Y1333500D02*
Y1331250D01*
Y1335750D02*
Y1333500D01*
X1979450Y1336000D02*
Y1333500D01*
Y1336000D02*
X1982950Y1333500D01*
Y850900D02*
X1979450Y848400D01*
Y850900D02*
Y848400D01*
X1982950Y850900D02*
Y848650D01*
Y853150D02*
Y850900D01*
X1979450Y853400D02*
Y850900D01*
Y853400D02*
X1982950Y850900D01*
X1979450Y599400D02*
X1982950Y596900D01*
X1979450Y599400D02*
Y596900D01*
X1982950Y599150D02*
Y596900D01*
Y594650D01*
X1979450Y596900D02*
Y594400D01*
X1982950Y596900D02*
X1979450Y594400D01*
X1982950Y723900D02*
X1979450Y721400D01*
Y723900D02*
Y721400D01*
X1982950Y723900D02*
Y721650D01*
Y726150D02*
Y723900D01*
X1979450Y726400D02*
Y723900D01*
Y726400D02*
X1982950Y723900D01*
X1979450Y1107400D02*
X1982950Y1104900D01*
X1979450Y1107400D02*
Y1104900D01*
X1982950Y1107150D02*
Y1104900D01*
Y1102650D01*
X1979450Y1104900D02*
Y1102400D01*
X1982950Y1104900D02*
X1979450Y1102400D01*
X1982950Y215900D02*
X1979450Y213400D01*
Y215900D02*
Y213400D01*
X1982950Y215900D02*
Y213650D01*
Y218150D02*
Y215900D01*
X1979450Y218400D02*
Y215900D01*
Y218400D02*
X1982950Y215900D01*
X1979450Y345400D02*
X1982950Y342900D01*
X1979450Y345400D02*
Y342900D01*
X1982950Y345150D02*
Y342900D01*
Y340650D01*
X1979450Y342900D02*
Y340400D01*
X1982950Y342900D02*
X1979450Y340400D01*
X1982950Y469900D02*
X1979450Y467400D01*
Y469900D02*
Y467400D01*
X1982950Y469900D02*
Y467650D01*
Y472150D02*
Y469900D01*
X1979450Y472400D02*
Y469900D01*
Y472400D02*
X1982950Y469900D01*
D31*
X254700Y115120D02*
G03*
X254700Y115120I-1500J0D01*
G01*
Y699320D02*
G03*
X254700Y699320I-1500J0D01*
G01*
Y1283520D02*
G03*
X254700Y1283520I-1500J0D01*
G01*
Y1867720D02*
G03*
X254700Y1867720I-1500J0D01*
G01*
X1487200Y1293900D02*
G03*
X1487200Y1293900I0J1500D01*
G01*
D32*
X1292900Y149180D02*
X1308900Y165180D01*
Y252180D01*
X1254900D02*
X1308900D01*
X1254900Y165180D02*
X1272900Y147180D01*
X1254900Y165180D02*
Y252180D01*
X1272900Y147180D02*
X1290900D01*
X1292900Y149180D01*
X1165900D02*
X1181900Y165180D01*
Y252180D01*
X1127900D02*
X1181900D01*
X1127900Y165180D02*
X1145900Y147180D01*
X1127900Y165180D02*
Y252180D01*
X1145900Y147180D02*
X1163900D01*
X1165900Y149180D01*
X1038900D02*
X1054900Y165180D01*
Y252180D01*
X1000900D02*
X1054900D01*
X1000900Y165180D02*
X1018900Y147180D01*
X1000900Y165180D02*
Y252180D01*
X1018900Y147180D02*
X1036900D01*
X1038900Y149180D01*
X911900D02*
X927900Y165180D01*
Y252180D01*
X873900D02*
X927900D01*
X873900Y165180D02*
X891900Y147180D01*
X873900Y165180D02*
Y252180D01*
X891900Y147180D02*
X909900D01*
X911900Y149180D01*
X784900D02*
X800900Y165180D01*
Y252180D01*
X746900D02*
X800900D01*
X746900Y165180D02*
X764900Y147180D01*
X746900Y165180D02*
Y252180D01*
X764900Y147180D02*
X782900D01*
X784900Y149180D01*
X657900D02*
X673900Y165180D01*
Y252180D01*
X619900D02*
X673900D01*
X619900Y165180D02*
X637900Y147180D01*
X619900Y165180D02*
Y252180D01*
X637900Y147180D02*
X655900D01*
X657900Y149180D01*
X530900D02*
X546900Y165180D01*
Y252180D01*
X492900D02*
X546900D01*
X492900Y165180D02*
X510900Y147180D01*
X492900Y165180D02*
Y252180D01*
X510900Y147180D02*
X528900D01*
X530900Y149180D01*
X403900D02*
X419900Y165180D01*
Y252180D01*
X365900D02*
X419900D01*
X365900Y165180D02*
X383900Y147180D01*
X365900Y165180D02*
Y252180D01*
X383900Y147180D02*
X401900D01*
X403900Y149180D01*
X357340Y621820D02*
X428460D01*
X357340Y418620D02*
Y621820D01*
Y418620D02*
X428460D01*
Y621820D01*
X484340D02*
X555460D01*
X484340Y418620D02*
Y621820D01*
Y418620D02*
X555460D01*
Y621820D01*
X611340D02*
X682460D01*
X611340Y418620D02*
Y621820D01*
Y418620D02*
X682460D01*
Y621820D01*
X738340D02*
X809460D01*
X738340Y418620D02*
Y621820D01*
Y418620D02*
X809460D01*
Y621820D01*
X865340D02*
X936460D01*
X865340Y418620D02*
Y621820D01*
Y418620D02*
X936460D01*
Y621820D01*
X992340D02*
X1063460D01*
X992340Y418620D02*
Y621820D01*
Y418620D02*
X1063460D01*
Y621820D01*
X1119340D02*
X1190460D01*
X1119340Y418620D02*
Y621820D01*
Y418620D02*
X1190460D01*
Y621820D01*
X1246340D02*
X1317460D01*
X1246340Y418620D02*
Y621820D01*
Y418620D02*
X1317460D01*
Y621820D01*
X230340Y418620D02*
X301460D01*
Y621820D01*
X230340D02*
X301460D01*
X230340Y418620D02*
Y621820D01*
X199200Y156120D02*
X230200Y120120D01*
X276200D01*
X199200Y156120D02*
Y336120D01*
X276200Y120120D02*
X307200Y156120D01*
Y336120D01*
X199200D02*
X307200D01*
X1292900Y733380D02*
X1308900Y749380D01*
Y836380D01*
X1254900D02*
X1308900D01*
X1254900Y749380D02*
X1272900Y731380D01*
X1254900Y749380D02*
Y836380D01*
X1272900Y731380D02*
X1290900D01*
X1292900Y733380D01*
X1165900D02*
X1181900Y749380D01*
Y836380D01*
X1127900D02*
X1181900D01*
X1127900Y749380D02*
X1145900Y731380D01*
X1127900Y749380D02*
Y836380D01*
X1145900Y731380D02*
X1163900D01*
X1165900Y733380D01*
X1038900D02*
X1054900Y749380D01*
Y836380D01*
X1000900D02*
X1054900D01*
X1000900Y749380D02*
X1018900Y731380D01*
X1000900Y749380D02*
Y836380D01*
X1018900Y731380D02*
X1036900D01*
X1038900Y733380D01*
X911900D02*
X927900Y749380D01*
Y836380D01*
X873900D02*
X927900D01*
X873900Y749380D02*
X891900Y731380D01*
X873900Y749380D02*
Y836380D01*
X891900Y731380D02*
X909900D01*
X911900Y733380D01*
X784900D02*
X800900Y749380D01*
Y836380D01*
X746900D02*
X800900D01*
X746900Y749380D02*
X764900Y731380D01*
X746900Y749380D02*
Y836380D01*
X764900Y731380D02*
X782900D01*
X784900Y733380D01*
X657900D02*
X673900Y749380D01*
Y836380D01*
X619900D02*
X673900D01*
X619900Y749380D02*
X637900Y731380D01*
X619900Y749380D02*
Y836380D01*
X637900Y731380D02*
X655900D01*
X657900Y733380D01*
X530900D02*
X546900Y749380D01*
Y836380D01*
X492900D02*
X546900D01*
X492900Y749380D02*
X510900Y731380D01*
X492900Y749380D02*
Y836380D01*
X510900Y731380D02*
X528900D01*
X530900Y733380D01*
X403900D02*
X419900Y749380D01*
Y836380D01*
X365900D02*
X419900D01*
X365900Y749380D02*
X383900Y731380D01*
X365900Y749380D02*
Y836380D01*
X383900Y731380D02*
X401900D01*
X403900Y733380D01*
X357340Y1206020D02*
X428460D01*
X357340Y1002820D02*
Y1206020D01*
Y1002820D02*
X428460D01*
Y1206020D01*
X484340D02*
X555460D01*
X484340Y1002820D02*
Y1206020D01*
Y1002820D02*
X555460D01*
Y1206020D01*
X611340D02*
X682460D01*
X611340Y1002820D02*
Y1206020D01*
Y1002820D02*
X682460D01*
Y1206020D01*
X738340D02*
X809460D01*
X738340Y1002820D02*
Y1206020D01*
Y1002820D02*
X809460D01*
Y1206020D01*
X865340D02*
X936460D01*
X865340Y1002820D02*
Y1206020D01*
Y1002820D02*
X936460D01*
Y1206020D01*
X992340D02*
X1063460D01*
X992340Y1002820D02*
Y1206020D01*
Y1002820D02*
X1063460D01*
Y1206020D01*
X1119340D02*
X1190460D01*
X1119340Y1002820D02*
Y1206020D01*
Y1002820D02*
X1190460D01*
Y1206020D01*
X1246340D02*
X1317460D01*
X1246340Y1002820D02*
Y1206020D01*
Y1002820D02*
X1317460D01*
Y1206020D01*
X230340Y1002820D02*
X301460D01*
Y1206020D01*
X230340D02*
X301460D01*
X230340Y1002820D02*
Y1206020D01*
X199200Y740320D02*
X230200Y704320D01*
X276200D01*
X199200Y740320D02*
Y920320D01*
X276200Y704320D02*
X307200Y740320D01*
Y920320D01*
X199200D02*
X307200D01*
X1292900Y1317580D02*
X1308900Y1333580D01*
Y1420580D01*
X1254900D02*
X1308900D01*
X1254900Y1333580D02*
X1272900Y1315580D01*
X1254900Y1333580D02*
Y1420580D01*
X1272900Y1315580D02*
X1290900D01*
X1292900Y1317580D01*
X1165900D02*
X1181900Y1333580D01*
Y1420580D01*
X1127900D02*
X1181900D01*
X1127900Y1333580D02*
X1145900Y1315580D01*
X1127900Y1333580D02*
Y1420580D01*
X1145900Y1315580D02*
X1163900D01*
X1165900Y1317580D01*
X1038900D02*
X1054900Y1333580D01*
Y1420580D01*
X1000900D02*
X1054900D01*
X1000900Y1333580D02*
X1018900Y1315580D01*
X1000900Y1333580D02*
Y1420580D01*
X1018900Y1315580D02*
X1036900D01*
X1038900Y1317580D01*
X911900D02*
X927900Y1333580D01*
Y1420580D01*
X873900D02*
X927900D01*
X873900Y1333580D02*
X891900Y1315580D01*
X873900Y1333580D02*
Y1420580D01*
X891900Y1315580D02*
X909900D01*
X911900Y1317580D01*
X784900D02*
X800900Y1333580D01*
Y1420580D01*
X746900D02*
X800900D01*
X746900Y1333580D02*
X764900Y1315580D01*
X746900Y1333580D02*
Y1420580D01*
X764900Y1315580D02*
X782900D01*
X784900Y1317580D01*
X657900D02*
X673900Y1333580D01*
Y1420580D01*
X619900D02*
X673900D01*
X619900Y1333580D02*
X637900Y1315580D01*
X619900Y1333580D02*
Y1420580D01*
X637900Y1315580D02*
X655900D01*
X657900Y1317580D01*
X530900D02*
X546900Y1333580D01*
Y1420580D01*
X492900D02*
X546900D01*
X492900Y1333580D02*
X510900Y1315580D01*
X492900Y1333580D02*
Y1420580D01*
X510900Y1315580D02*
X528900D01*
X530900Y1317580D01*
X403900D02*
X419900Y1333580D01*
Y1420580D01*
X365900D02*
X419900D01*
X365900Y1333580D02*
X383900Y1315580D01*
X365900Y1333580D02*
Y1420580D01*
X383900Y1315580D02*
X401900D01*
X403900Y1317580D01*
X357340Y1790220D02*
X428460D01*
X357340Y1587020D02*
Y1790220D01*
Y1587020D02*
X428460D01*
Y1790220D01*
X484340D02*
X555460D01*
X484340Y1587020D02*
Y1790220D01*
Y1587020D02*
X555460D01*
Y1790220D01*
X611340D02*
X682460D01*
X611340Y1587020D02*
Y1790220D01*
Y1587020D02*
X682460D01*
Y1790220D01*
X738340D02*
X809460D01*
X738340Y1587020D02*
Y1790220D01*
Y1587020D02*
X809460D01*
Y1790220D01*
X865340D02*
X936460D01*
X865340Y1587020D02*
Y1790220D01*
Y1587020D02*
X936460D01*
Y1790220D01*
X992340D02*
X1063460D01*
X992340Y1587020D02*
Y1790220D01*
Y1587020D02*
X1063460D01*
Y1790220D01*
X1119340D02*
X1190460D01*
X1119340Y1587020D02*
Y1790220D01*
Y1587020D02*
X1190460D01*
Y1790220D01*
X1246340D02*
X1317460D01*
X1246340Y1587020D02*
Y1790220D01*
Y1587020D02*
X1317460D01*
Y1790220D01*
X230340Y1587020D02*
X301460D01*
Y1790220D01*
X230340D02*
X301460D01*
X230340Y1587020D02*
Y1790220D01*
X199200Y1324520D02*
X230200Y1288520D01*
X276200D01*
X199200Y1324520D02*
Y1504520D01*
X276200Y1288520D02*
X307200Y1324520D01*
Y1504520D01*
X199200D02*
X307200D01*
X1292900Y1901780D02*
X1308900Y1917780D01*
Y2004780D01*
X1254900D02*
X1308900D01*
X1254900Y1917780D02*
X1272900Y1899780D01*
X1254900Y1917780D02*
Y2004780D01*
X1272900Y1899780D02*
X1290900D01*
X1292900Y1901780D01*
X1165900D02*
X1181900Y1917780D01*
Y2004780D01*
X1127900D02*
X1181900D01*
X1127900Y1917780D02*
X1145900Y1899780D01*
X1127900Y1917780D02*
Y2004780D01*
X1145900Y1899780D02*
X1163900D01*
X1165900Y1901780D01*
X1038900D02*
X1054900Y1917780D01*
Y2004780D01*
X1000900D02*
X1054900D01*
X1000900Y1917780D02*
X1018900Y1899780D01*
X1000900Y1917780D02*
Y2004780D01*
X1018900Y1899780D02*
X1036900D01*
X1038900Y1901780D01*
X911900D02*
X927900Y1917780D01*
Y2004780D01*
X873900D02*
X927900D01*
X873900Y1917780D02*
X891900Y1899780D01*
X873900Y1917780D02*
Y2004780D01*
X891900Y1899780D02*
X909900D01*
X911900Y1901780D01*
X784900D02*
X800900Y1917780D01*
Y2004780D01*
X746900D02*
X800900D01*
X746900Y1917780D02*
X764900Y1899780D01*
X746900Y1917780D02*
Y2004780D01*
X764900Y1899780D02*
X782900D01*
X784900Y1901780D01*
X657900D02*
X673900Y1917780D01*
Y2004780D01*
X619900D02*
X673900D01*
X619900Y1917780D02*
X637900Y1899780D01*
X619900Y1917780D02*
Y2004780D01*
X637900Y1899780D02*
X655900D01*
X657900Y1901780D01*
X530900D02*
X546900Y1917780D01*
Y2004780D01*
X492900D02*
X546900D01*
X492900Y1917780D02*
X510900Y1899780D01*
X492900Y1917780D02*
Y2004780D01*
X510900Y1899780D02*
X528900D01*
X530900Y1901780D01*
X403900D02*
X419900Y1917780D01*
Y2004780D01*
X365900D02*
X419900D01*
X365900Y1917780D02*
X383900Y1899780D01*
X365900Y1917780D02*
Y2004780D01*
X383900Y1899780D02*
X401900D01*
X403900Y1901780D01*
X357340Y2374420D02*
X428460D01*
X357340Y2171220D02*
Y2374420D01*
Y2171220D02*
X428460D01*
Y2374420D01*
X484340D02*
X555460D01*
X484340Y2171220D02*
Y2374420D01*
Y2171220D02*
X555460D01*
Y2374420D01*
X611340D02*
X682460D01*
X611340Y2171220D02*
Y2374420D01*
Y2171220D02*
X682460D01*
Y2374420D01*
X738340D02*
X809460D01*
X738340Y2171220D02*
Y2374420D01*
Y2171220D02*
X809460D01*
Y2374420D01*
X865340D02*
X936460D01*
X865340Y2171220D02*
Y2374420D01*
Y2171220D02*
X936460D01*
Y2374420D01*
X992340D02*
X1063460D01*
X992340Y2171220D02*
Y2374420D01*
Y2171220D02*
X1063460D01*
Y2374420D01*
X1119340D02*
X1190460D01*
X1119340Y2171220D02*
Y2374420D01*
Y2171220D02*
X1190460D01*
Y2374420D01*
X1246340D02*
X1317460D01*
X1246340Y2171220D02*
Y2374420D01*
Y2171220D02*
X1317460D01*
Y2374420D01*
X230340Y2171220D02*
X301460D01*
Y2374420D01*
X230340D02*
X301460D01*
X230340Y2171220D02*
Y2374420D01*
X199200Y1908720D02*
X230200Y1872720D01*
X276200D01*
X199200Y1908720D02*
Y2088720D01*
X276200Y1872720D02*
X307200Y1908720D01*
Y2088720D01*
X199200D02*
X307200D01*
X1521260Y255700D02*
X1537260Y239700D01*
X1624260D01*
Y293700D02*
Y239700D01*
X1537260Y293700D02*
X1519260Y275700D01*
X1537260Y293700D02*
X1624260D01*
X1519260Y275700D02*
Y257700D01*
X1521260Y255700D01*
Y382700D02*
X1537260Y366700D01*
X1624260D01*
Y420700D02*
Y366700D01*
X1537260Y420700D02*
X1519260Y402700D01*
X1537260Y420700D02*
X1624260D01*
X1519260Y402700D02*
Y384700D01*
X1521260Y382700D01*
Y509700D02*
X1537260Y493700D01*
X1624260D01*
Y547700D02*
Y493700D01*
X1537260Y547700D02*
X1519260Y529700D01*
X1537260Y547700D02*
X1624260D01*
X1519260Y529700D02*
Y511700D01*
X1521260Y509700D01*
Y636700D02*
X1537260Y620700D01*
X1624260D01*
Y674700D02*
Y620700D01*
X1537260Y674700D02*
X1519260Y656700D01*
X1537260Y674700D02*
X1624260D01*
X1519260Y656700D02*
Y638700D01*
X1521260Y636700D01*
Y763700D02*
X1537260Y747700D01*
X1624260D01*
Y801700D02*
Y747700D01*
X1537260Y801700D02*
X1519260Y783700D01*
X1537260Y801700D02*
X1624260D01*
X1519260Y783700D02*
Y765700D01*
X1521260Y763700D01*
Y890700D02*
X1537260Y874700D01*
X1624260D01*
Y928700D02*
Y874700D01*
X1537260Y928700D02*
X1519260Y910700D01*
X1537260Y928700D02*
X1624260D01*
X1519260Y910700D02*
Y892700D01*
X1521260Y890700D01*
Y1017700D02*
X1537260Y1001700D01*
X1624260D01*
Y1055700D02*
Y1001700D01*
X1537260Y1055700D02*
X1519260Y1037700D01*
X1537260Y1055700D02*
X1624260D01*
X1519260Y1037700D02*
Y1019700D01*
X1521260Y1017700D01*
Y1144700D02*
X1537260Y1128700D01*
X1624260D01*
Y1182700D02*
Y1128700D01*
X1537260Y1182700D02*
X1519260Y1164700D01*
X1537260Y1182700D02*
X1624260D01*
X1519260Y1164700D02*
Y1146700D01*
X1521260Y1144700D01*
X1993900Y1191260D02*
Y1120140D01*
X1790700Y1191260D02*
X1993900D01*
X1790700D02*
Y1120140D01*
X1993900D01*
Y1064260D02*
Y993140D01*
X1790700Y1064260D02*
X1993900D01*
X1790700D02*
Y993140D01*
X1993900D01*
Y937260D02*
Y866140D01*
X1790700Y937260D02*
X1993900D01*
X1790700D02*
Y866140D01*
X1993900D01*
Y810260D02*
Y739140D01*
X1790700Y810260D02*
X1993900D01*
X1790700D02*
Y739140D01*
X1993900D01*
Y683260D02*
Y612140D01*
X1790700Y683260D02*
X1993900D01*
X1790700D02*
Y612140D01*
X1993900D01*
Y556260D02*
Y485140D01*
X1790700Y556260D02*
X1993900D01*
X1790700D02*
Y485140D01*
X1993900D01*
Y429260D02*
Y358140D01*
X1790700Y429260D02*
X1993900D01*
X1790700D02*
Y358140D01*
X1993900D01*
Y302260D02*
Y231140D01*
X1790700Y302260D02*
X1993900D01*
X1790700D02*
Y231140D01*
X1993900D01*
X1790700Y1318260D02*
Y1247140D01*
X1993900D01*
Y1318260D02*
Y1247140D01*
X1790700Y1318260D02*
X1993900D01*
X1528200Y1349400D02*
X1492200Y1318400D01*
Y1272400D01*
X1528200Y1349400D02*
X1708200D01*
X1492200Y1272400D02*
X1528200Y1241400D01*
X1708200D01*
Y1349400D02*
Y1241400D01*
D33*
X563700Y609120D02*
X567200D01*
X574200D02*
X577700D01*
X575780Y593880D02*
X577700D01*
Y624120D01*
X573240Y623090D02*
X577700D01*
X563700D02*
X568160D01*
X563700Y593880D02*
Y624120D01*
Y593880D02*
X565620D01*
X577700Y623090D02*
Y624360D01*
X573240D02*
X577700D01*
X573240Y623090D02*
Y624360D01*
X563700Y623090D02*
Y624360D01*
X568160D01*
Y623090D02*
Y624360D01*
X309700Y609120D02*
X313200D01*
X320200D02*
X323700D01*
X321780Y593880D02*
X323700D01*
Y624120D01*
X319240Y623090D02*
X323700D01*
X309700D02*
X314160D01*
X309700Y593880D02*
Y624120D01*
Y593880D02*
X311620D01*
X323700Y623090D02*
Y624360D01*
X319240D02*
X323700D01*
X319240Y623090D02*
Y624360D01*
X309700Y623090D02*
Y624360D01*
X314160D01*
Y623090D02*
Y624360D01*
X208100Y609120D02*
X211600D01*
X218600D02*
X222100D01*
X212560Y623090D02*
Y624360D01*
X208100D02*
X212560D01*
X208100Y623090D02*
Y624360D01*
X217640Y623090D02*
Y624360D01*
X222100D01*
Y623090D02*
Y624360D01*
X208100Y593880D02*
X210020D01*
X208100D02*
Y624120D01*
Y623090D02*
X212560D01*
X217640D02*
X222100D01*
Y593880D02*
Y624120D01*
X220180Y593880D02*
X222100D01*
X690700Y609120D02*
X694200D01*
X701200D02*
X704700D01*
X702780Y593880D02*
X704700D01*
Y624120D01*
X700240Y623090D02*
X704700D01*
X690700D02*
X695160D01*
X690700Y593880D02*
Y624120D01*
Y593880D02*
X692620D01*
X704700Y623090D02*
Y624360D01*
X700240D02*
X704700D01*
X700240Y623090D02*
Y624360D01*
X690700Y623090D02*
Y624360D01*
X695160D01*
Y623090D02*
Y624360D01*
X949160Y623090D02*
Y624360D01*
X944700D02*
X949160D01*
X944700Y623090D02*
Y624360D01*
X954240Y623090D02*
Y624360D01*
X958700D01*
Y623090D02*
Y624360D01*
X944700Y593880D02*
X946620D01*
X944700D02*
Y624120D01*
Y623090D02*
X949160D01*
X954240D02*
X958700D01*
Y593880D02*
Y624120D01*
X956780Y593880D02*
X958700D01*
X955200Y609120D02*
X958700D01*
X944700D02*
X948200D01*
X817700D02*
X821200D01*
X828200D02*
X831700D01*
X829780Y593880D02*
X831700D01*
Y624120D01*
X827240Y623090D02*
X831700D01*
X817700D02*
X822160D01*
X817700Y593880D02*
Y624120D01*
Y593880D02*
X819620D01*
X831700Y623090D02*
Y624360D01*
X827240D02*
X831700D01*
X827240Y623090D02*
Y624360D01*
X817700Y623090D02*
Y624360D01*
X822160D01*
Y623090D02*
Y624360D01*
X441160Y623090D02*
Y624360D01*
X436700D02*
X441160D01*
X436700Y623090D02*
Y624360D01*
X446240Y623090D02*
Y624360D01*
X450700D01*
Y623090D02*
Y624360D01*
X436700Y593880D02*
X438620D01*
X436700D02*
Y624120D01*
Y623090D02*
X441160D01*
X446240D02*
X450700D01*
Y593880D02*
Y624120D01*
X448780Y593880D02*
X450700D01*
X447200Y609120D02*
X450700D01*
X436700D02*
X440200D01*
X1325700D02*
X1329200D01*
X1336200D02*
X1339700D01*
X1337780Y593880D02*
X1339700D01*
Y624120D01*
X1335240Y623090D02*
X1339700D01*
X1325700D02*
X1330160D01*
X1325700Y593880D02*
Y624120D01*
Y593880D02*
X1327620D01*
X1339700Y623090D02*
Y624360D01*
X1335240D02*
X1339700D01*
X1335240Y623090D02*
Y624360D01*
X1325700Y623090D02*
Y624360D01*
X1330160D01*
Y623090D02*
Y624360D01*
X1203160Y623090D02*
Y624360D01*
X1198700D02*
X1203160D01*
X1198700Y623090D02*
Y624360D01*
X1208240Y623090D02*
Y624360D01*
X1212700D01*
Y623090D02*
Y624360D01*
X1198700Y593880D02*
X1200620D01*
X1198700D02*
Y624120D01*
Y623090D02*
X1203160D01*
X1208240D02*
X1212700D01*
Y593880D02*
Y624120D01*
X1210780Y593880D02*
X1212700D01*
X1209200Y609120D02*
X1212700D01*
X1198700D02*
X1202200D01*
X1071700D02*
X1075200D01*
X1082200D02*
X1085700D01*
X1083780Y593880D02*
X1085700D01*
Y624120D01*
X1081240Y623090D02*
X1085700D01*
X1071700D02*
X1076160D01*
X1071700Y593880D02*
Y624120D01*
Y593880D02*
X1073620D01*
X1085700Y623090D02*
Y624360D01*
X1081240D02*
X1085700D01*
X1081240Y623090D02*
Y624360D01*
X1071700Y623090D02*
Y624360D01*
X1076160D01*
Y623090D02*
Y624360D01*
X563700Y1193320D02*
X567200D01*
X574200D02*
X577700D01*
X575780Y1178080D02*
X577700D01*
Y1208320D01*
X573240Y1207290D02*
X577700D01*
X563700D02*
X568160D01*
X563700Y1178080D02*
Y1208320D01*
Y1178080D02*
X565620D01*
X577700Y1207290D02*
Y1208560D01*
X573240D02*
X577700D01*
X573240Y1207290D02*
Y1208560D01*
X563700Y1207290D02*
Y1208560D01*
X568160D01*
Y1207290D02*
Y1208560D01*
X309700Y1193320D02*
X313200D01*
X320200D02*
X323700D01*
X321780Y1178080D02*
X323700D01*
Y1208320D01*
X319240Y1207290D02*
X323700D01*
X309700D02*
X314160D01*
X309700Y1178080D02*
Y1208320D01*
Y1178080D02*
X311620D01*
X323700Y1207290D02*
Y1208560D01*
X319240D02*
X323700D01*
X319240Y1207290D02*
Y1208560D01*
X309700Y1207290D02*
Y1208560D01*
X314160D01*
Y1207290D02*
Y1208560D01*
X208100Y1193320D02*
X211600D01*
X218600D02*
X222100D01*
X212560Y1207290D02*
Y1208560D01*
X208100D02*
X212560D01*
X208100Y1207290D02*
Y1208560D01*
X217640Y1207290D02*
Y1208560D01*
X222100D01*
Y1207290D02*
Y1208560D01*
X208100Y1178080D02*
X210020D01*
X208100D02*
Y1208320D01*
Y1207290D02*
X212560D01*
X217640D02*
X222100D01*
Y1178080D02*
Y1208320D01*
X220180Y1178080D02*
X222100D01*
X690700Y1193320D02*
X694200D01*
X701200D02*
X704700D01*
X702780Y1178080D02*
X704700D01*
Y1208320D01*
X700240Y1207290D02*
X704700D01*
X690700D02*
X695160D01*
X690700Y1178080D02*
Y1208320D01*
Y1178080D02*
X692620D01*
X704700Y1207290D02*
Y1208560D01*
X700240D02*
X704700D01*
X700240Y1207290D02*
Y1208560D01*
X690700Y1207290D02*
Y1208560D01*
X695160D01*
Y1207290D02*
Y1208560D01*
X949160Y1207290D02*
Y1208560D01*
X944700D02*
X949160D01*
X944700Y1207290D02*
Y1208560D01*
X954240Y1207290D02*
Y1208560D01*
X958700D01*
Y1207290D02*
Y1208560D01*
X944700Y1178080D02*
X946620D01*
X944700D02*
Y1208320D01*
Y1207290D02*
X949160D01*
X954240D02*
X958700D01*
Y1178080D02*
Y1208320D01*
X956780Y1178080D02*
X958700D01*
X955200Y1193320D02*
X958700D01*
X944700D02*
X948200D01*
X817700D02*
X821200D01*
X828200D02*
X831700D01*
X829780Y1178080D02*
X831700D01*
Y1208320D01*
X827240Y1207290D02*
X831700D01*
X817700D02*
X822160D01*
X817700Y1178080D02*
Y1208320D01*
Y1178080D02*
X819620D01*
X831700Y1207290D02*
Y1208560D01*
X827240D02*
X831700D01*
X827240Y1207290D02*
Y1208560D01*
X817700Y1207290D02*
Y1208560D01*
X822160D01*
Y1207290D02*
Y1208560D01*
X441160Y1207290D02*
Y1208560D01*
X436700D02*
X441160D01*
X436700Y1207290D02*
Y1208560D01*
X446240Y1207290D02*
Y1208560D01*
X450700D01*
Y1207290D02*
Y1208560D01*
X436700Y1178080D02*
X438620D01*
X436700D02*
Y1208320D01*
Y1207290D02*
X441160D01*
X446240D02*
X450700D01*
Y1178080D02*
Y1208320D01*
X448780Y1178080D02*
X450700D01*
X447200Y1193320D02*
X450700D01*
X436700D02*
X440200D01*
X1325700D02*
X1329200D01*
X1336200D02*
X1339700D01*
X1337780Y1178080D02*
X1339700D01*
Y1208320D01*
X1335240Y1207290D02*
X1339700D01*
X1325700D02*
X1330160D01*
X1325700Y1178080D02*
Y1208320D01*
Y1178080D02*
X1327620D01*
X1339700Y1207290D02*
Y1208560D01*
X1335240D02*
X1339700D01*
X1335240Y1207290D02*
Y1208560D01*
X1325700Y1207290D02*
Y1208560D01*
X1330160D01*
Y1207290D02*
Y1208560D01*
X1203160Y1207290D02*
Y1208560D01*
X1198700D02*
X1203160D01*
X1198700Y1207290D02*
Y1208560D01*
X1208240Y1207290D02*
Y1208560D01*
X1212700D01*
Y1207290D02*
Y1208560D01*
X1198700Y1178080D02*
X1200620D01*
X1198700D02*
Y1208320D01*
Y1207290D02*
X1203160D01*
X1208240D02*
X1212700D01*
Y1178080D02*
Y1208320D01*
X1210780Y1178080D02*
X1212700D01*
X1209200Y1193320D02*
X1212700D01*
X1198700D02*
X1202200D01*
X1071700D02*
X1075200D01*
X1082200D02*
X1085700D01*
X1083780Y1178080D02*
X1085700D01*
Y1208320D01*
X1081240Y1207290D02*
X1085700D01*
X1071700D02*
X1076160D01*
X1071700Y1178080D02*
Y1208320D01*
Y1178080D02*
X1073620D01*
X1085700Y1207290D02*
Y1208560D01*
X1081240D02*
X1085700D01*
X1081240Y1207290D02*
Y1208560D01*
X1071700Y1207290D02*
Y1208560D01*
X1076160D01*
Y1207290D02*
Y1208560D01*
X563700Y1777520D02*
X567200D01*
X574200D02*
X577700D01*
X575780Y1762280D02*
X577700D01*
Y1792520D01*
X573240Y1791490D02*
X577700D01*
X563700D02*
X568160D01*
X563700Y1762280D02*
Y1792520D01*
Y1762280D02*
X565620D01*
X577700Y1791490D02*
Y1792760D01*
X573240D02*
X577700D01*
X573240Y1791490D02*
Y1792760D01*
X563700Y1791490D02*
Y1792760D01*
X568160D01*
Y1791490D02*
Y1792760D01*
X309700Y1777520D02*
X313200D01*
X320200D02*
X323700D01*
X321780Y1762280D02*
X323700D01*
Y1792520D01*
X319240Y1791490D02*
X323700D01*
X309700D02*
X314160D01*
X309700Y1762280D02*
Y1792520D01*
Y1762280D02*
X311620D01*
X323700Y1791490D02*
Y1792760D01*
X319240D02*
X323700D01*
X319240Y1791490D02*
Y1792760D01*
X309700Y1791490D02*
Y1792760D01*
X314160D01*
Y1791490D02*
Y1792760D01*
X208100Y1777520D02*
X211600D01*
X218600D02*
X222100D01*
X212560Y1791490D02*
Y1792760D01*
X208100D02*
X212560D01*
X208100Y1791490D02*
Y1792760D01*
X217640Y1791490D02*
Y1792760D01*
X222100D01*
Y1791490D02*
Y1792760D01*
X208100Y1762280D02*
X210020D01*
X208100D02*
Y1792520D01*
Y1791490D02*
X212560D01*
X217640D02*
X222100D01*
Y1762280D02*
Y1792520D01*
X220180Y1762280D02*
X222100D01*
X690700Y1777520D02*
X694200D01*
X701200D02*
X704700D01*
X702780Y1762280D02*
X704700D01*
Y1792520D01*
X700240Y1791490D02*
X704700D01*
X690700D02*
X695160D01*
X690700Y1762280D02*
Y1792520D01*
Y1762280D02*
X692620D01*
X704700Y1791490D02*
Y1792760D01*
X700240D02*
X704700D01*
X700240Y1791490D02*
Y1792760D01*
X690700Y1791490D02*
Y1792760D01*
X695160D01*
Y1791490D02*
Y1792760D01*
X949160Y1791490D02*
Y1792760D01*
X944700D02*
X949160D01*
X944700Y1791490D02*
Y1792760D01*
X954240Y1791490D02*
Y1792760D01*
X958700D01*
Y1791490D02*
Y1792760D01*
X944700Y1762280D02*
X946620D01*
X944700D02*
Y1792520D01*
Y1791490D02*
X949160D01*
X954240D02*
X958700D01*
Y1762280D02*
Y1792520D01*
X956780Y1762280D02*
X958700D01*
X955200Y1777520D02*
X958700D01*
X944700D02*
X948200D01*
X817700D02*
X821200D01*
X828200D02*
X831700D01*
X829780Y1762280D02*
X831700D01*
Y1792520D01*
X827240Y1791490D02*
X831700D01*
X817700D02*
X822160D01*
X817700Y1762280D02*
Y1792520D01*
Y1762280D02*
X819620D01*
X831700Y1791490D02*
Y1792760D01*
X827240D02*
X831700D01*
X827240Y1791490D02*
Y1792760D01*
X817700Y1791490D02*
Y1792760D01*
X822160D01*
Y1791490D02*
Y1792760D01*
X441160Y1791490D02*
Y1792760D01*
X436700D02*
X441160D01*
X436700Y1791490D02*
Y1792760D01*
X446240Y1791490D02*
Y1792760D01*
X450700D01*
Y1791490D02*
Y1792760D01*
X436700Y1762280D02*
X438620D01*
X436700D02*
Y1792520D01*
Y1791490D02*
X441160D01*
X446240D02*
X450700D01*
Y1762280D02*
Y1792520D01*
X448780Y1762280D02*
X450700D01*
X447200Y1777520D02*
X450700D01*
X436700D02*
X440200D01*
X1325700D02*
X1329200D01*
X1336200D02*
X1339700D01*
X1337780Y1762280D02*
X1339700D01*
Y1792520D01*
X1335240Y1791490D02*
X1339700D01*
X1325700D02*
X1330160D01*
X1325700Y1762280D02*
Y1792520D01*
Y1762280D02*
X1327620D01*
X1339700Y1791490D02*
Y1792760D01*
X1335240D02*
X1339700D01*
X1335240Y1791490D02*
Y1792760D01*
X1325700Y1791490D02*
Y1792760D01*
X1330160D01*
Y1791490D02*
Y1792760D01*
X1203160Y1791490D02*
Y1792760D01*
X1198700D02*
X1203160D01*
X1198700Y1791490D02*
Y1792760D01*
X1208240Y1791490D02*
Y1792760D01*
X1212700D01*
Y1791490D02*
Y1792760D01*
X1198700Y1762280D02*
X1200620D01*
X1198700D02*
Y1792520D01*
Y1791490D02*
X1203160D01*
X1208240D02*
X1212700D01*
Y1762280D02*
Y1792520D01*
X1210780Y1762280D02*
X1212700D01*
X1209200Y1777520D02*
X1212700D01*
X1198700D02*
X1202200D01*
X1071700D02*
X1075200D01*
X1082200D02*
X1085700D01*
X1083780Y1762280D02*
X1085700D01*
Y1792520D01*
X1081240Y1791490D02*
X1085700D01*
X1071700D02*
X1076160D01*
X1071700Y1762280D02*
Y1792520D01*
Y1762280D02*
X1073620D01*
X1085700Y1791490D02*
Y1792760D01*
X1081240D02*
X1085700D01*
X1081240Y1791490D02*
Y1792760D01*
X1071700Y1791490D02*
Y1792760D01*
X1076160D01*
Y1791490D02*
Y1792760D01*
X563700Y2361720D02*
X567200D01*
X574200D02*
X577700D01*
X575780Y2346480D02*
X577700D01*
Y2376720D01*
X573240Y2375690D02*
X577700D01*
X563700D02*
X568160D01*
X563700Y2346480D02*
Y2376720D01*
Y2346480D02*
X565620D01*
X577700Y2375690D02*
Y2376960D01*
X573240D02*
X577700D01*
X573240Y2375690D02*
Y2376960D01*
X563700Y2375690D02*
Y2376960D01*
X568160D01*
Y2375690D02*
Y2376960D01*
X309700Y2361720D02*
X313200D01*
X320200D02*
X323700D01*
X321780Y2346480D02*
X323700D01*
Y2376720D01*
X319240Y2375690D02*
X323700D01*
X309700D02*
X314160D01*
X309700Y2346480D02*
Y2376720D01*
Y2346480D02*
X311620D01*
X323700Y2375690D02*
Y2376960D01*
X319240D02*
X323700D01*
X319240Y2375690D02*
Y2376960D01*
X309700Y2375690D02*
Y2376960D01*
X314160D01*
Y2375690D02*
Y2376960D01*
X208100Y2361720D02*
X211600D01*
X218600D02*
X222100D01*
X212560Y2375690D02*
Y2376960D01*
X208100D02*
X212560D01*
X208100Y2375690D02*
Y2376960D01*
X217640Y2375690D02*
Y2376960D01*
X222100D01*
Y2375690D02*
Y2376960D01*
X208100Y2346480D02*
X210020D01*
X208100D02*
Y2376720D01*
Y2375690D02*
X212560D01*
X217640D02*
X222100D01*
Y2346480D02*
Y2376720D01*
X220180Y2346480D02*
X222100D01*
X690700Y2361720D02*
X694200D01*
X701200D02*
X704700D01*
X702780Y2346480D02*
X704700D01*
Y2376720D01*
X700240Y2375690D02*
X704700D01*
X690700D02*
X695160D01*
X690700Y2346480D02*
Y2376720D01*
Y2346480D02*
X692620D01*
X704700Y2375690D02*
Y2376960D01*
X700240D02*
X704700D01*
X700240Y2375690D02*
Y2376960D01*
X690700Y2375690D02*
Y2376960D01*
X695160D01*
Y2375690D02*
Y2376960D01*
X949160Y2375690D02*
Y2376960D01*
X944700D02*
X949160D01*
X944700Y2375690D02*
Y2376960D01*
X954240Y2375690D02*
Y2376960D01*
X958700D01*
Y2375690D02*
Y2376960D01*
X944700Y2346480D02*
X946620D01*
X944700D02*
Y2376720D01*
Y2375690D02*
X949160D01*
X954240D02*
X958700D01*
Y2346480D02*
Y2376720D01*
X956780Y2346480D02*
X958700D01*
X955200Y2361720D02*
X958700D01*
X944700D02*
X948200D01*
X817700D02*
X821200D01*
X828200D02*
X831700D01*
X829780Y2346480D02*
X831700D01*
Y2376720D01*
X827240Y2375690D02*
X831700D01*
X817700D02*
X822160D01*
X817700Y2346480D02*
Y2376720D01*
Y2346480D02*
X819620D01*
X831700Y2375690D02*
Y2376960D01*
X827240D02*
X831700D01*
X827240Y2375690D02*
Y2376960D01*
X817700Y2375690D02*
Y2376960D01*
X822160D01*
Y2375690D02*
Y2376960D01*
X441160Y2375690D02*
Y2376960D01*
X436700D02*
X441160D01*
X436700Y2375690D02*
Y2376960D01*
X446240Y2375690D02*
Y2376960D01*
X450700D01*
Y2375690D02*
Y2376960D01*
X436700Y2346480D02*
X438620D01*
X436700D02*
Y2376720D01*
Y2375690D02*
X441160D01*
X446240D02*
X450700D01*
Y2346480D02*
Y2376720D01*
X448780Y2346480D02*
X450700D01*
X447200Y2361720D02*
X450700D01*
X436700D02*
X440200D01*
X1325700D02*
X1329200D01*
X1336200D02*
X1339700D01*
X1337780Y2346480D02*
X1339700D01*
Y2376720D01*
X1335240Y2375690D02*
X1339700D01*
X1325700D02*
X1330160D01*
X1325700Y2346480D02*
Y2376720D01*
Y2346480D02*
X1327620D01*
X1339700Y2375690D02*
Y2376960D01*
X1335240D02*
X1339700D01*
X1335240Y2375690D02*
Y2376960D01*
X1325700Y2375690D02*
Y2376960D01*
X1330160D01*
Y2375690D02*
Y2376960D01*
X1203160Y2375690D02*
Y2376960D01*
X1198700D02*
X1203160D01*
X1198700Y2375690D02*
Y2376960D01*
X1208240Y2375690D02*
Y2376960D01*
X1212700D01*
Y2375690D02*
Y2376960D01*
X1198700Y2346480D02*
X1200620D01*
X1198700D02*
Y2376720D01*
Y2375690D02*
X1203160D01*
X1208240D02*
X1212700D01*
Y2346480D02*
Y2376720D01*
X1210780Y2346480D02*
X1212700D01*
X1209200Y2361720D02*
X1212700D01*
X1198700D02*
X1202200D01*
X1071700D02*
X1075200D01*
X1082200D02*
X1085700D01*
X1083780Y2346480D02*
X1085700D01*
Y2376720D01*
X1081240Y2375690D02*
X1085700D01*
X1071700D02*
X1076160D01*
X1071700Y2346480D02*
Y2376720D01*
Y2346480D02*
X1073620D01*
X1085700Y2375690D02*
Y2376960D01*
X1081240D02*
X1085700D01*
X1081240Y2375690D02*
Y2376960D01*
X1071700Y2375690D02*
Y2376960D01*
X1076160D01*
Y2375690D02*
Y2376960D01*
X1981200Y984900D02*
Y981400D01*
Y974400D02*
Y970900D01*
X1965960Y972820D02*
Y970900D01*
X1996200D01*
X1995170Y975360D02*
Y970900D01*
Y984900D02*
Y980440D01*
X1965960Y984900D02*
X1996200D01*
X1965960D02*
Y982980D01*
X1995170Y970900D02*
X1996440D01*
Y975360D02*
Y970900D01*
X1995170Y975360D02*
X1996440D01*
X1995170Y984900D02*
X1996440D01*
Y980440D01*
X1995170D02*
X1996440D01*
X1981200Y1238900D02*
Y1235400D01*
Y1228400D02*
Y1224900D01*
X1965960Y1226820D02*
Y1224900D01*
X1996200D01*
X1995170Y1229360D02*
Y1224900D01*
Y1238900D02*
Y1234440D01*
X1965960Y1238900D02*
X1996200D01*
X1965960D02*
Y1236980D01*
X1995170Y1224900D02*
X1996440D01*
Y1229360D02*
Y1224900D01*
X1995170Y1229360D02*
X1996440D01*
X1995170Y1238900D02*
X1996440D01*
Y1234440D01*
X1995170D02*
X1996440D01*
X1981200Y1340500D02*
Y1337000D01*
Y1330000D02*
Y1326500D01*
X1995170Y1336040D02*
X1996440D01*
Y1340500D02*
Y1336040D01*
X1995170Y1340500D02*
X1996440D01*
X1995170Y1330960D02*
X1996440D01*
Y1326500D01*
X1995170D02*
X1996440D01*
X1965960Y1340500D02*
Y1338580D01*
Y1340500D02*
X1996200D01*
X1995170D02*
Y1336040D01*
Y1330960D02*
Y1326500D01*
X1965960D02*
X1996200D01*
X1965960Y1328420D02*
Y1326500D01*
X1981200Y857900D02*
Y854400D01*
Y847400D02*
Y843900D01*
X1965960Y845820D02*
Y843900D01*
X1996200D01*
X1995170Y848360D02*
Y843900D01*
Y857900D02*
Y853440D01*
X1965960Y857900D02*
X1996200D01*
X1965960D02*
Y855980D01*
X1995170Y843900D02*
X1996440D01*
Y848360D02*
Y843900D01*
X1995170Y848360D02*
X1996440D01*
X1995170Y857900D02*
X1996440D01*
Y853440D01*
X1995170D02*
X1996440D01*
X1995170Y599440D02*
X1996440D01*
Y603900D02*
Y599440D01*
X1995170Y603900D02*
X1996440D01*
X1995170Y594360D02*
X1996440D01*
Y589900D01*
X1995170D02*
X1996440D01*
X1965960Y603900D02*
Y601980D01*
Y603900D02*
X1996200D01*
X1995170D02*
Y599440D01*
Y594360D02*
Y589900D01*
X1965960D02*
X1996200D01*
X1965960Y591820D02*
Y589900D01*
X1981200Y593400D02*
Y589900D01*
Y603900D02*
Y600400D01*
Y730900D02*
Y727400D01*
Y720400D02*
Y716900D01*
X1965960Y718820D02*
Y716900D01*
X1996200D01*
X1995170Y721360D02*
Y716900D01*
Y730900D02*
Y726440D01*
X1965960Y730900D02*
X1996200D01*
X1965960D02*
Y728980D01*
X1995170Y716900D02*
X1996440D01*
Y721360D02*
Y716900D01*
X1995170Y721360D02*
X1996440D01*
X1995170Y730900D02*
X1996440D01*
Y726440D01*
X1995170D02*
X1996440D01*
X1995170Y1107440D02*
X1996440D01*
Y1111900D02*
Y1107440D01*
X1995170Y1111900D02*
X1996440D01*
X1995170Y1102360D02*
X1996440D01*
Y1097900D01*
X1995170D02*
X1996440D01*
X1965960Y1111900D02*
Y1109980D01*
Y1111900D02*
X1996200D01*
X1995170D02*
Y1107440D01*
Y1102360D02*
Y1097900D01*
X1965960D02*
X1996200D01*
X1965960Y1099820D02*
Y1097900D01*
X1981200Y1101400D02*
Y1097900D01*
Y1111900D02*
Y1108400D01*
Y222900D02*
Y219400D01*
Y212400D02*
Y208900D01*
X1965960Y210820D02*
Y208900D01*
X1996200D01*
X1995170Y213360D02*
Y208900D01*
Y222900D02*
Y218440D01*
X1965960Y222900D02*
X1996200D01*
X1965960D02*
Y220980D01*
X1995170Y208900D02*
X1996440D01*
Y213360D02*
Y208900D01*
X1995170Y213360D02*
X1996440D01*
X1995170Y222900D02*
X1996440D01*
Y218440D01*
X1995170D02*
X1996440D01*
X1995170Y345440D02*
X1996440D01*
Y349900D02*
Y345440D01*
X1995170Y349900D02*
X1996440D01*
X1995170Y340360D02*
X1996440D01*
Y335900D01*
X1995170D02*
X1996440D01*
X1965960Y349900D02*
Y347980D01*
Y349900D02*
X1996200D01*
X1995170D02*
Y345440D01*
Y340360D02*
Y335900D01*
X1965960D02*
X1996200D01*
X1965960Y337820D02*
Y335900D01*
X1981200Y339400D02*
Y335900D01*
Y349900D02*
Y346400D01*
Y476900D02*
Y473400D01*
Y466400D02*
Y462900D01*
X1965960Y464820D02*
Y462900D01*
X1996200D01*
X1995170Y467360D02*
Y462900D01*
Y476900D02*
Y472440D01*
X1965960Y476900D02*
X1996200D01*
X1965960D02*
Y474980D01*
X1995170Y462900D02*
X1996440D01*
Y467360D02*
Y462900D01*
X1995170Y467360D02*
X1996440D01*
X1995170Y476900D02*
X1996440D01*
Y472440D01*
X1995170D02*
X1996440D01*
D34*
X1346930Y539530D02*
X1354071D01*
X1355500Y540006D01*
X1356452Y540958D01*
X1356928Y542387D01*
Y543339D01*
X1356452Y544767D01*
X1355500Y545719D01*
X1354071Y546195D01*
X1346930D01*
X1348834Y548957D02*
X1348358Y549909D01*
X1346930Y551337D01*
X1356928D01*
X1346930Y559145D02*
X1347406Y557717D01*
X1348834Y556764D01*
X1351215Y556288D01*
X1352643D01*
X1355023Y556764D01*
X1356452Y557717D01*
X1356928Y559145D01*
Y560097D01*
X1356452Y561525D01*
X1355023Y562477D01*
X1352643Y562954D01*
X1351215D01*
X1348834Y562477D01*
X1347406Y561525D01*
X1346930Y560097D01*
Y559145D01*
X1219930Y539530D02*
X1227071D01*
X1228500Y540006D01*
X1229452Y540958D01*
X1229928Y542387D01*
Y543339D01*
X1229452Y544767D01*
X1228500Y545719D01*
X1227071Y546195D01*
X1219930D01*
X1223263Y555146D02*
X1224691Y554670D01*
X1225643Y553717D01*
X1226119Y552289D01*
Y551813D01*
X1225643Y550385D01*
X1224691Y549433D01*
X1223263Y548957D01*
X1222786D01*
X1221358Y549433D01*
X1220406Y550385D01*
X1219930Y551813D01*
Y552289D01*
X1220406Y553717D01*
X1221358Y554670D01*
X1223263Y555146D01*
X1225643D01*
X1228024Y554670D01*
X1229452Y553717D01*
X1229928Y552289D01*
Y551337D01*
X1229452Y549909D01*
X1228500Y549433D01*
X1092930Y539530D02*
X1100071D01*
X1101500Y540006D01*
X1102452Y540958D01*
X1102928Y542387D01*
Y543339D01*
X1102452Y544767D01*
X1101500Y545719D01*
X1100071Y546195D01*
X1092930D01*
Y551337D02*
X1093406Y549909D01*
X1094358Y549433D01*
X1095311D01*
X1096263Y549909D01*
X1096739Y550861D01*
X1097215Y552765D01*
X1097691Y554193D01*
X1098643Y555146D01*
X1099595Y555622D01*
X1101023D01*
X1101976Y555146D01*
X1102452Y554670D01*
X1102928Y553241D01*
Y551337D01*
X1102452Y549909D01*
X1101976Y549433D01*
X1101023Y548957D01*
X1099595D01*
X1098643Y549433D01*
X1097691Y550385D01*
X1097215Y551813D01*
X1096739Y553717D01*
X1096263Y554670D01*
X1095311Y555146D01*
X1094358D01*
X1093406Y554670D01*
X1092930Y553241D01*
Y551337D01*
X965930Y539530D02*
X973071D01*
X974500Y540006D01*
X975452Y540958D01*
X975928Y542387D01*
Y543339D01*
X975452Y544767D01*
X974500Y545719D01*
X973071Y546195D01*
X965930D01*
Y555622D02*
X975928Y550861D01*
X965930Y548957D02*
Y555622D01*
X838930Y539530D02*
X846071D01*
X847500Y540006D01*
X848452Y540958D01*
X848928Y542387D01*
Y543339D01*
X848452Y544767D01*
X847500Y545719D01*
X846071Y546195D01*
X838930D01*
X840358Y554670D02*
X839406Y554193D01*
X838930Y552765D01*
Y551813D01*
X839406Y550385D01*
X840834Y549433D01*
X843215Y548957D01*
X845595D01*
X847500Y549433D01*
X848452Y550385D01*
X848928Y551813D01*
Y552289D01*
X848452Y553717D01*
X847500Y554670D01*
X846071Y555146D01*
X845595D01*
X844167Y554670D01*
X843215Y553717D01*
X842739Y552289D01*
Y551813D01*
X843215Y550385D01*
X844167Y549433D01*
X845595Y548957D01*
X711930Y539530D02*
X719071D01*
X720500Y540006D01*
X721452Y540958D01*
X721928Y542387D01*
Y543339D01*
X721452Y544767D01*
X720500Y545719D01*
X719071Y546195D01*
X711930D01*
Y554670D02*
Y549909D01*
X716215Y549433D01*
X715739Y549909D01*
X715263Y551337D01*
Y552765D01*
X715739Y554193D01*
X716691Y555146D01*
X718119Y555622D01*
X719071D01*
X720500Y555146D01*
X721452Y554193D01*
X721928Y552765D01*
Y551337D01*
X721452Y549909D01*
X720976Y549433D01*
X720023Y548957D01*
X584930Y539530D02*
X592071D01*
X593500Y540006D01*
X594452Y540958D01*
X594928Y542387D01*
Y543339D01*
X594452Y544767D01*
X593500Y545719D01*
X592071Y546195D01*
X584930D01*
Y553717D02*
X591595Y548957D01*
Y556098D01*
X584930Y553717D02*
X594928D01*
X457930Y539530D02*
X465071D01*
X466500Y540006D01*
X467452Y540958D01*
X467928Y542387D01*
Y543339D01*
X467452Y544767D01*
X466500Y545719D01*
X465071Y546195D01*
X457930D01*
Y549909D02*
Y555146D01*
X461739Y552289D01*
Y553717D01*
X462215Y554670D01*
X462691Y555146D01*
X464119Y555622D01*
X465071D01*
X466500Y555146D01*
X467452Y554193D01*
X467928Y552765D01*
Y551337D01*
X467452Y549909D01*
X466976Y549433D01*
X466023Y548957D01*
X330930Y539530D02*
X338071D01*
X339500Y540006D01*
X340452Y540958D01*
X340928Y542387D01*
Y543339D01*
X340452Y544767D01*
X339500Y545719D01*
X338071Y546195D01*
X330930D01*
X333311Y549433D02*
X332834D01*
X331882Y549909D01*
X331406Y550385D01*
X330930Y551337D01*
Y553241D01*
X331406Y554193D01*
X331882Y554670D01*
X332834Y555146D01*
X333787D01*
X334739Y554670D01*
X336167Y553717D01*
X340928Y548957D01*
Y555622D01*
X190872Y539530D02*
X198013D01*
X199442Y540006D01*
X200394Y540958D01*
X200870Y542387D01*
Y543339D01*
X200394Y544767D01*
X199442Y545719D01*
X198013Y546195D01*
X190872D01*
X192777Y548957D02*
X192300Y549909D01*
X190872Y551337D01*
X200870D01*
X328390Y595410D02*
X338388D01*
X328390D02*
Y598743D01*
X328866Y600171D01*
X329818Y601123D01*
X330770Y601599D01*
X332199Y602075D01*
X334579D01*
X336007Y601599D01*
X336960Y601123D01*
X337912Y600171D01*
X338388Y598743D01*
Y595410D01*
X330770Y604789D02*
X330294D01*
X329342Y605265D01*
X328866Y605741D01*
X328390Y606693D01*
Y608598D01*
X328866Y609550D01*
X329342Y610026D01*
X330294Y610502D01*
X331246D01*
X332199Y610026D01*
X333627Y609074D01*
X338388Y604313D01*
Y610978D01*
X193412Y595410D02*
X203410D01*
X193412D02*
Y598743D01*
X193888Y600171D01*
X194840Y601123D01*
X195793Y601599D01*
X197221Y602075D01*
X199601D01*
X201030Y601599D01*
X201982Y601123D01*
X202934Y600171D01*
X203410Y598743D01*
Y595410D01*
X195317Y604313D02*
X194840Y605265D01*
X193412Y606693D01*
X203410D01*
X231870Y635888D02*
X238535Y625890D01*
Y635888D02*
X231870Y625890D01*
X240773Y635888D02*
Y625890D01*
Y635888D02*
X246962D01*
X240773Y631127D02*
X244582D01*
X248105Y633983D02*
X249057Y634460D01*
X250485Y635888D01*
Y625890D01*
X688908Y247229D02*
X681290D01*
X679862Y247705D01*
X679386Y248181D01*
X678910Y249133D01*
Y250086D01*
X679386Y251038D01*
X679862Y251514D01*
X681290Y251990D01*
X682243D01*
X688908Y239897D02*
X682243Y244658D01*
Y237517D01*
X688908Y239897D02*
X678910D01*
X582390Y595410D02*
X592388D01*
X582390D02*
Y598743D01*
X582866Y600171D01*
X583818Y601123D01*
X584771Y601599D01*
X586199Y602075D01*
X588579D01*
X590007Y601599D01*
X590960Y601123D01*
X591912Y600171D01*
X592388Y598743D01*
Y595410D01*
X582390Y609074D02*
X589055Y604313D01*
Y611454D01*
X582390Y609074D02*
X592388D01*
X1196908Y247229D02*
X1189290D01*
X1187862Y247705D01*
X1187386Y248181D01*
X1186910Y249133D01*
Y250086D01*
X1187386Y251038D01*
X1187862Y251514D01*
X1189290Y251990D01*
X1190243D01*
X1196908Y242278D02*
X1196432Y243706D01*
X1195480Y244182D01*
X1194527D01*
X1193575Y243706D01*
X1193099Y242754D01*
X1192623Y240850D01*
X1192147Y239421D01*
X1191195Y238469D01*
X1190243Y237993D01*
X1188814D01*
X1187862Y238469D01*
X1187386Y238945D01*
X1186910Y240373D01*
Y242278D01*
X1187386Y243706D01*
X1187862Y244182D01*
X1188814Y244658D01*
X1190243D01*
X1191195Y244182D01*
X1192147Y243230D01*
X1192623Y241802D01*
X1193099Y239897D01*
X1193575Y238945D01*
X1194527Y238469D01*
X1195480D01*
X1196432Y238945D01*
X1196908Y240373D01*
Y242278D01*
X942908Y247229D02*
X935290D01*
X933862Y247705D01*
X933386Y248181D01*
X932910Y249133D01*
Y250086D01*
X933386Y251038D01*
X933862Y251514D01*
X935290Y251990D01*
X936243D01*
X941480Y238945D02*
X942432Y239421D01*
X942908Y240850D01*
Y241802D01*
X942432Y243230D01*
X941003Y244182D01*
X938623Y244658D01*
X936243D01*
X934338Y244182D01*
X933386Y243230D01*
X932910Y241802D01*
Y241326D01*
X933386Y239897D01*
X934338Y238945D01*
X935767Y238469D01*
X936243D01*
X937671Y238945D01*
X938623Y239897D01*
X939099Y241326D01*
Y241802D01*
X938623Y243230D01*
X937671Y244182D01*
X936243Y244658D01*
X323148Y331049D02*
X315530D01*
X314102Y331525D01*
X313626Y332001D01*
X313150Y332953D01*
Y333906D01*
X313626Y334858D01*
X314102Y335334D01*
X315530Y335810D01*
X316483D01*
X321244Y328478D02*
X321720Y327526D01*
X323148Y326098D01*
X313150D01*
X434908Y247229D02*
X427290D01*
X425862Y247705D01*
X425386Y248181D01*
X424910Y249133D01*
Y250086D01*
X425386Y251038D01*
X425862Y251514D01*
X427290Y251990D01*
X428243D01*
X432527Y244182D02*
X433004D01*
X433956Y243706D01*
X434432Y243230D01*
X434908Y242278D01*
Y240373D01*
X434432Y239421D01*
X433956Y238945D01*
X433004Y238469D01*
X432051D01*
X431099Y238945D01*
X429671Y239897D01*
X424910Y244658D01*
Y237993D01*
X1247870Y635888D02*
X1254535Y625890D01*
Y635888D02*
X1247870Y625890D01*
X1256773Y635888D02*
Y625890D01*
Y635888D02*
X1262962D01*
X1256773Y631127D02*
X1260582D01*
X1270294Y632555D02*
X1269818Y631127D01*
X1268866Y630175D01*
X1267437Y629699D01*
X1266961D01*
X1265533Y630175D01*
X1264581Y631127D01*
X1264105Y632555D01*
Y633031D01*
X1264581Y634460D01*
X1265533Y635412D01*
X1266961Y635888D01*
X1267437D01*
X1268866Y635412D01*
X1269818Y634460D01*
X1270294Y632555D01*
Y630175D01*
X1269818Y627794D01*
X1268866Y626366D01*
X1267437Y625890D01*
X1266485D01*
X1265057Y626366D01*
X1264581Y627318D01*
X1120870Y635888D02*
X1127535Y625890D01*
Y635888D02*
X1120870Y625890D01*
X1129773Y635888D02*
Y625890D01*
Y635888D02*
X1135962D01*
X1129773Y631127D02*
X1133582D01*
X1139485Y635888D02*
X1138057Y635412D01*
X1137581Y634460D01*
Y633507D01*
X1138057Y632555D01*
X1139009Y632079D01*
X1140913Y631603D01*
X1142342Y631127D01*
X1143294Y630175D01*
X1143770Y629223D01*
Y627794D01*
X1143294Y626842D01*
X1142818Y626366D01*
X1141389Y625890D01*
X1139485D01*
X1138057Y626366D01*
X1137581Y626842D01*
X1137105Y627794D01*
Y629223D01*
X1137581Y630175D01*
X1138533Y631127D01*
X1139961Y631603D01*
X1141865Y632079D01*
X1142818Y632555D01*
X1143294Y633507D01*
Y634460D01*
X1142818Y635412D01*
X1141389Y635888D01*
X1139485D01*
X993870D02*
X1000535Y625890D01*
Y635888D02*
X993870Y625890D01*
X1002773Y635888D02*
Y625890D01*
Y635888D02*
X1008962D01*
X1002773Y631127D02*
X1006582D01*
X1016770Y635888D02*
X1012009Y625890D01*
X1010105Y635888D02*
X1016770D01*
X866870D02*
X873535Y625890D01*
Y635888D02*
X866870Y625890D01*
X875773Y635888D02*
Y625890D01*
Y635888D02*
X881962D01*
X875773Y631127D02*
X879582D01*
X888818Y634460D02*
X888342Y635412D01*
X886913Y635888D01*
X885961D01*
X884533Y635412D01*
X883581Y633983D01*
X883105Y631603D01*
Y629223D01*
X883581Y627318D01*
X884533Y626366D01*
X885961Y625890D01*
X886437D01*
X887866Y626366D01*
X888818Y627318D01*
X889294Y628746D01*
Y629223D01*
X888818Y630651D01*
X887866Y631603D01*
X886437Y632079D01*
X885961D01*
X884533Y631603D01*
X883581Y630651D01*
X883105Y629223D01*
X739870Y635888D02*
X746535Y625890D01*
Y635888D02*
X739870Y625890D01*
X748773Y635888D02*
Y625890D01*
Y635888D02*
X754962D01*
X748773Y631127D02*
X752582D01*
X761818Y635888D02*
X757057D01*
X756581Y631603D01*
X757057Y632079D01*
X758485Y632555D01*
X759913D01*
X761342Y632079D01*
X762294Y631127D01*
X762770Y629699D01*
Y628746D01*
X762294Y627318D01*
X761342Y626366D01*
X759913Y625890D01*
X758485D01*
X757057Y626366D01*
X756581Y626842D01*
X756105Y627794D01*
X612870Y635888D02*
X619535Y625890D01*
Y635888D02*
X612870Y625890D01*
X621773Y635888D02*
Y625890D01*
Y635888D02*
X627962D01*
X621773Y631127D02*
X625582D01*
X633866Y635888D02*
X629105Y629223D01*
X636246D01*
X633866Y635888D02*
Y625890D01*
X485870Y635888D02*
X492535Y625890D01*
Y635888D02*
X485870Y625890D01*
X494773Y635888D02*
Y625890D01*
Y635888D02*
X500962D01*
X494773Y631127D02*
X498582D01*
X503057Y635888D02*
X508294D01*
X505437Y632079D01*
X506866D01*
X507818Y631603D01*
X508294Y631127D01*
X508770Y629699D01*
Y628746D01*
X508294Y627318D01*
X507342Y626366D01*
X505913Y625890D01*
X504485D01*
X503057Y626366D01*
X502581Y626842D01*
X502105Y627794D01*
X358870Y635888D02*
X365535Y625890D01*
Y635888D02*
X358870Y625890D01*
X367773Y635888D02*
Y625890D01*
Y635888D02*
X373962D01*
X367773Y631127D02*
X371582D01*
X375581Y633507D02*
Y633983D01*
X376057Y634936D01*
X376533Y635412D01*
X377485Y635888D01*
X379389D01*
X380342Y635412D01*
X380818Y634936D01*
X381294Y633983D01*
Y633031D01*
X380818Y632079D01*
X379865Y630651D01*
X375105Y625890D01*
X381770D01*
X1323908Y247229D02*
X1316290D01*
X1314862Y247705D01*
X1314386Y248181D01*
X1313910Y249133D01*
Y250086D01*
X1314386Y251038D01*
X1314862Y251514D01*
X1316290Y251990D01*
X1317243D01*
X1320575Y238469D02*
X1319147Y238945D01*
X1318195Y239897D01*
X1317719Y241326D01*
Y241802D01*
X1318195Y243230D01*
X1319147Y244182D01*
X1320575Y244658D01*
X1321051D01*
X1322480Y244182D01*
X1323432Y243230D01*
X1323908Y241802D01*
Y241326D01*
X1323432Y239897D01*
X1322480Y238945D01*
X1320575Y238469D01*
X1318195D01*
X1315814Y238945D01*
X1314386Y239897D01*
X1313910Y241326D01*
Y242278D01*
X1314386Y243706D01*
X1315338Y244182D01*
X1069908Y247229D02*
X1062290D01*
X1060862Y247705D01*
X1060386Y248181D01*
X1059910Y249133D01*
Y250086D01*
X1060386Y251038D01*
X1060862Y251514D01*
X1062290Y251990D01*
X1063243D01*
X1069908Y237993D02*
X1059910Y242754D01*
X1069908Y244658D02*
Y237993D01*
X815908Y247229D02*
X808290D01*
X806862Y247705D01*
X806386Y248181D01*
X805910Y249133D01*
Y250086D01*
X806386Y251038D01*
X806862Y251514D01*
X808290Y251990D01*
X809243D01*
X815908Y238945D02*
Y243706D01*
X811623Y244182D01*
X812099Y243706D01*
X812575Y242278D01*
Y240850D01*
X812099Y239421D01*
X811147Y238469D01*
X809719Y237993D01*
X808766D01*
X807338Y238469D01*
X806386Y239421D01*
X805910Y240850D01*
Y242278D01*
X806386Y243706D01*
X806862Y244182D01*
X807814Y244658D01*
X561908Y247229D02*
X554290D01*
X552862Y247705D01*
X552386Y248181D01*
X551910Y249133D01*
Y250086D01*
X552386Y251038D01*
X552862Y251514D01*
X554290Y251990D01*
X555243D01*
X561908Y243706D02*
Y238469D01*
X558099Y241326D01*
Y239897D01*
X557623Y238945D01*
X557147Y238469D01*
X555719Y237993D01*
X554767D01*
X553338Y238469D01*
X552386Y239421D01*
X551910Y240850D01*
Y242278D01*
X552386Y243706D01*
X552862Y244182D01*
X553814Y244658D01*
X1344390Y595410D02*
X1354388D01*
X1344390D02*
Y598743D01*
X1344866Y600171D01*
X1345818Y601123D01*
X1346770Y601599D01*
X1348199Y602075D01*
X1350579D01*
X1352007Y601599D01*
X1352960Y601123D01*
X1353912Y600171D01*
X1354388Y598743D01*
Y595410D01*
X1346294Y604313D02*
X1345818Y605265D01*
X1344390Y606693D01*
X1354388D01*
X1344390Y614501D02*
X1344866Y613073D01*
X1346294Y612121D01*
X1348675Y611645D01*
X1350103D01*
X1352484Y612121D01*
X1353912Y613073D01*
X1354388Y614501D01*
Y615453D01*
X1353912Y616882D01*
X1352484Y617834D01*
X1350103Y618310D01*
X1348675D01*
X1346294Y617834D01*
X1344866Y616882D01*
X1344390Y615453D01*
Y614501D01*
X1217390Y595410D02*
X1227388D01*
X1217390D02*
Y598743D01*
X1217866Y600171D01*
X1218818Y601123D01*
X1219771Y601599D01*
X1221199Y602075D01*
X1223579D01*
X1225007Y601599D01*
X1225960Y601123D01*
X1226912Y600171D01*
X1227388Y598743D01*
Y595410D01*
X1220723Y610502D02*
X1222151Y610026D01*
X1223103Y609074D01*
X1223579Y607645D01*
Y607169D01*
X1223103Y605741D01*
X1222151Y604789D01*
X1220723Y604313D01*
X1220247D01*
X1218818Y604789D01*
X1217866Y605741D01*
X1217390Y607169D01*
Y607645D01*
X1217866Y609074D01*
X1218818Y610026D01*
X1220723Y610502D01*
X1223103D01*
X1225483Y610026D01*
X1226912Y609074D01*
X1227388Y607645D01*
Y606693D01*
X1226912Y605265D01*
X1225960Y604789D01*
X1090390Y595410D02*
X1100388D01*
X1090390D02*
Y598743D01*
X1090866Y600171D01*
X1091818Y601123D01*
X1092770Y601599D01*
X1094199Y602075D01*
X1096579D01*
X1098007Y601599D01*
X1098960Y601123D01*
X1099912Y600171D01*
X1100388Y598743D01*
Y595410D01*
X1090390Y606693D02*
X1090866Y605265D01*
X1091818Y604789D01*
X1092770D01*
X1093723Y605265D01*
X1094199Y606217D01*
X1094675Y608122D01*
X1095151Y609550D01*
X1096103Y610502D01*
X1097055Y610978D01*
X1098484D01*
X1099436Y610502D01*
X1099912Y610026D01*
X1100388Y608598D01*
Y606693D01*
X1099912Y605265D01*
X1099436Y604789D01*
X1098484Y604313D01*
X1097055D01*
X1096103Y604789D01*
X1095151Y605741D01*
X1094675Y607169D01*
X1094199Y609074D01*
X1093723Y610026D01*
X1092770Y610502D01*
X1091818D01*
X1090866Y610026D01*
X1090390Y608598D01*
Y606693D01*
X963390Y595410D02*
X973388D01*
X963390D02*
Y598743D01*
X963866Y600171D01*
X964818Y601123D01*
X965770Y601599D01*
X967199Y602075D01*
X969579D01*
X971007Y601599D01*
X971960Y601123D01*
X972912Y600171D01*
X973388Y598743D01*
Y595410D01*
X963390Y610978D02*
X973388Y606217D01*
X963390Y604313D02*
Y610978D01*
X836390Y595410D02*
X846388D01*
X836390D02*
Y598743D01*
X836866Y600171D01*
X837818Y601123D01*
X838771Y601599D01*
X840199Y602075D01*
X842579D01*
X844007Y601599D01*
X844960Y601123D01*
X845912Y600171D01*
X846388Y598743D01*
Y595410D01*
X837818Y610026D02*
X836866Y609550D01*
X836390Y608122D01*
Y607169D01*
X836866Y605741D01*
X838294Y604789D01*
X840675Y604313D01*
X843055D01*
X844960Y604789D01*
X845912Y605741D01*
X846388Y607169D01*
Y607645D01*
X845912Y609074D01*
X844960Y610026D01*
X843531Y610502D01*
X843055D01*
X841627Y610026D01*
X840675Y609074D01*
X840199Y607645D01*
Y607169D01*
X840675Y605741D01*
X841627Y604789D01*
X843055Y604313D01*
X709390Y595410D02*
X719388D01*
X709390D02*
Y598743D01*
X709866Y600171D01*
X710818Y601123D01*
X711770Y601599D01*
X713199Y602075D01*
X715579D01*
X717007Y601599D01*
X717960Y601123D01*
X718912Y600171D01*
X719388Y598743D01*
Y595410D01*
X709390Y610026D02*
Y605265D01*
X713675Y604789D01*
X713199Y605265D01*
X712723Y606693D01*
Y608122D01*
X713199Y609550D01*
X714151Y610502D01*
X715579Y610978D01*
X716531D01*
X717960Y610502D01*
X718912Y609550D01*
X719388Y608122D01*
Y606693D01*
X718912Y605265D01*
X718436Y604789D01*
X717484Y604313D01*
X455390Y595410D02*
X465388D01*
X455390D02*
Y598743D01*
X455866Y600171D01*
X456818Y601123D01*
X457771Y601599D01*
X459199Y602075D01*
X461579D01*
X463007Y601599D01*
X463960Y601123D01*
X464912Y600171D01*
X465388Y598743D01*
Y595410D01*
X455390Y605265D02*
Y610502D01*
X459199Y607645D01*
Y609074D01*
X459675Y610026D01*
X460151Y610502D01*
X461579Y610978D01*
X462531D01*
X463960Y610502D01*
X464912Y609550D01*
X465388Y608122D01*
Y606693D01*
X464912Y605265D01*
X464436Y604789D01*
X463484Y604313D01*
X1346930Y1123730D02*
X1354071D01*
X1355500Y1124206D01*
X1356452Y1125158D01*
X1356928Y1126587D01*
Y1127539D01*
X1356452Y1128967D01*
X1355500Y1129919D01*
X1354071Y1130395D01*
X1346930D01*
X1348834Y1133157D02*
X1348358Y1134109D01*
X1346930Y1135537D01*
X1356928D01*
X1346930Y1143345D02*
X1347406Y1141917D01*
X1348834Y1140964D01*
X1351215Y1140488D01*
X1352643D01*
X1355023Y1140964D01*
X1356452Y1141917D01*
X1356928Y1143345D01*
Y1144297D01*
X1356452Y1145725D01*
X1355023Y1146677D01*
X1352643Y1147154D01*
X1351215D01*
X1348834Y1146677D01*
X1347406Y1145725D01*
X1346930Y1144297D01*
Y1143345D01*
X1219930Y1123730D02*
X1227071D01*
X1228500Y1124206D01*
X1229452Y1125158D01*
X1229928Y1126587D01*
Y1127539D01*
X1229452Y1128967D01*
X1228500Y1129919D01*
X1227071Y1130395D01*
X1219930D01*
X1223263Y1139346D02*
X1224691Y1138870D01*
X1225643Y1137917D01*
X1226119Y1136489D01*
Y1136013D01*
X1225643Y1134585D01*
X1224691Y1133633D01*
X1223263Y1133157D01*
X1222786D01*
X1221358Y1133633D01*
X1220406Y1134585D01*
X1219930Y1136013D01*
Y1136489D01*
X1220406Y1137917D01*
X1221358Y1138870D01*
X1223263Y1139346D01*
X1225643D01*
X1228024Y1138870D01*
X1229452Y1137917D01*
X1229928Y1136489D01*
Y1135537D01*
X1229452Y1134109D01*
X1228500Y1133633D01*
X1092930Y1123730D02*
X1100071D01*
X1101500Y1124206D01*
X1102452Y1125158D01*
X1102928Y1126587D01*
Y1127539D01*
X1102452Y1128967D01*
X1101500Y1129919D01*
X1100071Y1130395D01*
X1092930D01*
Y1135537D02*
X1093406Y1134109D01*
X1094358Y1133633D01*
X1095311D01*
X1096263Y1134109D01*
X1096739Y1135061D01*
X1097215Y1136965D01*
X1097691Y1138393D01*
X1098643Y1139346D01*
X1099595Y1139822D01*
X1101023D01*
X1101976Y1139346D01*
X1102452Y1138870D01*
X1102928Y1137441D01*
Y1135537D01*
X1102452Y1134109D01*
X1101976Y1133633D01*
X1101023Y1133157D01*
X1099595D01*
X1098643Y1133633D01*
X1097691Y1134585D01*
X1097215Y1136013D01*
X1096739Y1137917D01*
X1096263Y1138870D01*
X1095311Y1139346D01*
X1094358D01*
X1093406Y1138870D01*
X1092930Y1137441D01*
Y1135537D01*
X965930Y1123730D02*
X973071D01*
X974500Y1124206D01*
X975452Y1125158D01*
X975928Y1126587D01*
Y1127539D01*
X975452Y1128967D01*
X974500Y1129919D01*
X973071Y1130395D01*
X965930D01*
Y1139822D02*
X975928Y1135061D01*
X965930Y1133157D02*
Y1139822D01*
X838930Y1123730D02*
X846071D01*
X847500Y1124206D01*
X848452Y1125158D01*
X848928Y1126587D01*
Y1127539D01*
X848452Y1128967D01*
X847500Y1129919D01*
X846071Y1130395D01*
X838930D01*
X840358Y1138870D02*
X839406Y1138393D01*
X838930Y1136965D01*
Y1136013D01*
X839406Y1134585D01*
X840834Y1133633D01*
X843215Y1133157D01*
X845595D01*
X847500Y1133633D01*
X848452Y1134585D01*
X848928Y1136013D01*
Y1136489D01*
X848452Y1137917D01*
X847500Y1138870D01*
X846071Y1139346D01*
X845595D01*
X844167Y1138870D01*
X843215Y1137917D01*
X842739Y1136489D01*
Y1136013D01*
X843215Y1134585D01*
X844167Y1133633D01*
X845595Y1133157D01*
X711930Y1123730D02*
X719071D01*
X720500Y1124206D01*
X721452Y1125158D01*
X721928Y1126587D01*
Y1127539D01*
X721452Y1128967D01*
X720500Y1129919D01*
X719071Y1130395D01*
X711930D01*
Y1138870D02*
Y1134109D01*
X716215Y1133633D01*
X715739Y1134109D01*
X715263Y1135537D01*
Y1136965D01*
X715739Y1138393D01*
X716691Y1139346D01*
X718119Y1139822D01*
X719071D01*
X720500Y1139346D01*
X721452Y1138393D01*
X721928Y1136965D01*
Y1135537D01*
X721452Y1134109D01*
X720976Y1133633D01*
X720023Y1133157D01*
X584930Y1123730D02*
X592071D01*
X593500Y1124206D01*
X594452Y1125158D01*
X594928Y1126587D01*
Y1127539D01*
X594452Y1128967D01*
X593500Y1129919D01*
X592071Y1130395D01*
X584930D01*
Y1137917D02*
X591595Y1133157D01*
Y1140298D01*
X584930Y1137917D02*
X594928D01*
X457930Y1123730D02*
X465071D01*
X466500Y1124206D01*
X467452Y1125158D01*
X467928Y1126587D01*
Y1127539D01*
X467452Y1128967D01*
X466500Y1129919D01*
X465071Y1130395D01*
X457930D01*
Y1134109D02*
Y1139346D01*
X461739Y1136489D01*
Y1137917D01*
X462215Y1138870D01*
X462691Y1139346D01*
X464119Y1139822D01*
X465071D01*
X466500Y1139346D01*
X467452Y1138393D01*
X467928Y1136965D01*
Y1135537D01*
X467452Y1134109D01*
X466976Y1133633D01*
X466023Y1133157D01*
X330930Y1123730D02*
X338071D01*
X339500Y1124206D01*
X340452Y1125158D01*
X340928Y1126587D01*
Y1127539D01*
X340452Y1128967D01*
X339500Y1129919D01*
X338071Y1130395D01*
X330930D01*
X333311Y1133633D02*
X332834D01*
X331882Y1134109D01*
X331406Y1134585D01*
X330930Y1135537D01*
Y1137441D01*
X331406Y1138393D01*
X331882Y1138870D01*
X332834Y1139346D01*
X333787D01*
X334739Y1138870D01*
X336167Y1137917D01*
X340928Y1133157D01*
Y1139822D01*
X190872Y1123730D02*
X198013D01*
X199442Y1124206D01*
X200394Y1125158D01*
X200870Y1126587D01*
Y1127539D01*
X200394Y1128967D01*
X199442Y1129919D01*
X198013Y1130395D01*
X190872D01*
X192777Y1133157D02*
X192300Y1134109D01*
X190872Y1135537D01*
X200870D01*
X328390Y1179610D02*
X338388D01*
X328390D02*
Y1182943D01*
X328866Y1184371D01*
X329818Y1185323D01*
X330770Y1185799D01*
X332199Y1186275D01*
X334579D01*
X336007Y1185799D01*
X336960Y1185323D01*
X337912Y1184371D01*
X338388Y1182943D01*
Y1179610D01*
X330770Y1188989D02*
X330294D01*
X329342Y1189465D01*
X328866Y1189941D01*
X328390Y1190893D01*
Y1192798D01*
X328866Y1193750D01*
X329342Y1194226D01*
X330294Y1194702D01*
X331246D01*
X332199Y1194226D01*
X333627Y1193274D01*
X338388Y1188513D01*
Y1195178D01*
X193412Y1179610D02*
X203410D01*
X193412D02*
Y1182943D01*
X193888Y1184371D01*
X194840Y1185323D01*
X195793Y1185799D01*
X197221Y1186275D01*
X199601D01*
X201030Y1185799D01*
X201982Y1185323D01*
X202934Y1184371D01*
X203410Y1182943D01*
Y1179610D01*
X195317Y1188513D02*
X194840Y1189465D01*
X193412Y1190893D01*
X203410D01*
X231870Y1220088D02*
X238535Y1210090D01*
Y1220088D02*
X231870Y1210090D01*
X240773Y1220088D02*
Y1210090D01*
Y1220088D02*
X246962D01*
X240773Y1215327D02*
X244582D01*
X248105Y1218184D02*
X249057Y1218660D01*
X250485Y1220088D01*
Y1210090D01*
X688908Y831429D02*
X681290D01*
X679862Y831905D01*
X679386Y832381D01*
X678910Y833334D01*
Y834286D01*
X679386Y835238D01*
X679862Y835714D01*
X681290Y836190D01*
X682243D01*
X688908Y824097D02*
X682243Y828858D01*
Y821717D01*
X688908Y824097D02*
X678910D01*
X582390Y1179610D02*
X592388D01*
X582390D02*
Y1182943D01*
X582866Y1184371D01*
X583818Y1185323D01*
X584771Y1185799D01*
X586199Y1186275D01*
X588579D01*
X590007Y1185799D01*
X590960Y1185323D01*
X591912Y1184371D01*
X592388Y1182943D01*
Y1179610D01*
X582390Y1193274D02*
X589055Y1188513D01*
Y1195654D01*
X582390Y1193274D02*
X592388D01*
X1196908Y831429D02*
X1189290D01*
X1187862Y831905D01*
X1187386Y832381D01*
X1186910Y833334D01*
Y834286D01*
X1187386Y835238D01*
X1187862Y835714D01*
X1189290Y836190D01*
X1190243D01*
X1196908Y826478D02*
X1196432Y827906D01*
X1195480Y828382D01*
X1194527D01*
X1193575Y827906D01*
X1193099Y826954D01*
X1192623Y825050D01*
X1192147Y823621D01*
X1191195Y822669D01*
X1190243Y822193D01*
X1188814D01*
X1187862Y822669D01*
X1187386Y823145D01*
X1186910Y824574D01*
Y826478D01*
X1187386Y827906D01*
X1187862Y828382D01*
X1188814Y828858D01*
X1190243D01*
X1191195Y828382D01*
X1192147Y827430D01*
X1192623Y826002D01*
X1193099Y824097D01*
X1193575Y823145D01*
X1194527Y822669D01*
X1195480D01*
X1196432Y823145D01*
X1196908Y824574D01*
Y826478D01*
X942908Y831429D02*
X935290D01*
X933862Y831905D01*
X933386Y832381D01*
X932910Y833334D01*
Y834286D01*
X933386Y835238D01*
X933862Y835714D01*
X935290Y836190D01*
X936243D01*
X941480Y823145D02*
X942432Y823621D01*
X942908Y825050D01*
Y826002D01*
X942432Y827430D01*
X941003Y828382D01*
X938623Y828858D01*
X936243D01*
X934338Y828382D01*
X933386Y827430D01*
X932910Y826002D01*
Y825526D01*
X933386Y824097D01*
X934338Y823145D01*
X935767Y822669D01*
X936243D01*
X937671Y823145D01*
X938623Y824097D01*
X939099Y825526D01*
Y826002D01*
X938623Y827430D01*
X937671Y828382D01*
X936243Y828858D01*
X323148Y915249D02*
X315530D01*
X314102Y915725D01*
X313626Y916201D01*
X313150Y917153D01*
Y918106D01*
X313626Y919058D01*
X314102Y919534D01*
X315530Y920010D01*
X316483D01*
X321244Y912678D02*
X321720Y911726D01*
X323148Y910298D01*
X313150D01*
X434908Y831429D02*
X427290D01*
X425862Y831905D01*
X425386Y832381D01*
X424910Y833334D01*
Y834286D01*
X425386Y835238D01*
X425862Y835714D01*
X427290Y836190D01*
X428243D01*
X432527Y828382D02*
X433004D01*
X433956Y827906D01*
X434432Y827430D01*
X434908Y826478D01*
Y824574D01*
X434432Y823621D01*
X433956Y823145D01*
X433004Y822669D01*
X432051D01*
X431099Y823145D01*
X429671Y824097D01*
X424910Y828858D01*
Y822193D01*
X1247870Y1220088D02*
X1254535Y1210090D01*
Y1220088D02*
X1247870Y1210090D01*
X1256773Y1220088D02*
Y1210090D01*
Y1220088D02*
X1262962D01*
X1256773Y1215327D02*
X1260582D01*
X1270294Y1216755D02*
X1269818Y1215327D01*
X1268866Y1214375D01*
X1267437Y1213899D01*
X1266961D01*
X1265533Y1214375D01*
X1264581Y1215327D01*
X1264105Y1216755D01*
Y1217231D01*
X1264581Y1218660D01*
X1265533Y1219612D01*
X1266961Y1220088D01*
X1267437D01*
X1268866Y1219612D01*
X1269818Y1218660D01*
X1270294Y1216755D01*
Y1214375D01*
X1269818Y1211994D01*
X1268866Y1210566D01*
X1267437Y1210090D01*
X1266485D01*
X1265057Y1210566D01*
X1264581Y1211518D01*
X1120870Y1220088D02*
X1127535Y1210090D01*
Y1220088D02*
X1120870Y1210090D01*
X1129773Y1220088D02*
Y1210090D01*
Y1220088D02*
X1135962D01*
X1129773Y1215327D02*
X1133582D01*
X1139485Y1220088D02*
X1138057Y1219612D01*
X1137581Y1218660D01*
Y1217707D01*
X1138057Y1216755D01*
X1139009Y1216279D01*
X1140913Y1215803D01*
X1142342Y1215327D01*
X1143294Y1214375D01*
X1143770Y1213423D01*
Y1211994D01*
X1143294Y1211042D01*
X1142818Y1210566D01*
X1141389Y1210090D01*
X1139485D01*
X1138057Y1210566D01*
X1137581Y1211042D01*
X1137105Y1211994D01*
Y1213423D01*
X1137581Y1214375D01*
X1138533Y1215327D01*
X1139961Y1215803D01*
X1141865Y1216279D01*
X1142818Y1216755D01*
X1143294Y1217707D01*
Y1218660D01*
X1142818Y1219612D01*
X1141389Y1220088D01*
X1139485D01*
X993870D02*
X1000535Y1210090D01*
Y1220088D02*
X993870Y1210090D01*
X1002773Y1220088D02*
Y1210090D01*
Y1220088D02*
X1008962D01*
X1002773Y1215327D02*
X1006582D01*
X1016770Y1220088D02*
X1012009Y1210090D01*
X1010105Y1220088D02*
X1016770D01*
X866870D02*
X873535Y1210090D01*
Y1220088D02*
X866870Y1210090D01*
X875773Y1220088D02*
Y1210090D01*
Y1220088D02*
X881962D01*
X875773Y1215327D02*
X879582D01*
X888818Y1218660D02*
X888342Y1219612D01*
X886913Y1220088D01*
X885961D01*
X884533Y1219612D01*
X883581Y1218184D01*
X883105Y1215803D01*
Y1213423D01*
X883581Y1211518D01*
X884533Y1210566D01*
X885961Y1210090D01*
X886437D01*
X887866Y1210566D01*
X888818Y1211518D01*
X889294Y1212946D01*
Y1213423D01*
X888818Y1214851D01*
X887866Y1215803D01*
X886437Y1216279D01*
X885961D01*
X884533Y1215803D01*
X883581Y1214851D01*
X883105Y1213423D01*
X739870Y1220088D02*
X746535Y1210090D01*
Y1220088D02*
X739870Y1210090D01*
X748773Y1220088D02*
Y1210090D01*
Y1220088D02*
X754962D01*
X748773Y1215327D02*
X752582D01*
X761818Y1220088D02*
X757057D01*
X756581Y1215803D01*
X757057Y1216279D01*
X758485Y1216755D01*
X759913D01*
X761342Y1216279D01*
X762294Y1215327D01*
X762770Y1213899D01*
Y1212946D01*
X762294Y1211518D01*
X761342Y1210566D01*
X759913Y1210090D01*
X758485D01*
X757057Y1210566D01*
X756581Y1211042D01*
X756105Y1211994D01*
X612870Y1220088D02*
X619535Y1210090D01*
Y1220088D02*
X612870Y1210090D01*
X621773Y1220088D02*
Y1210090D01*
Y1220088D02*
X627962D01*
X621773Y1215327D02*
X625582D01*
X633866Y1220088D02*
X629105Y1213423D01*
X636246D01*
X633866Y1220088D02*
Y1210090D01*
X485870Y1220088D02*
X492535Y1210090D01*
Y1220088D02*
X485870Y1210090D01*
X494773Y1220088D02*
Y1210090D01*
Y1220088D02*
X500962D01*
X494773Y1215327D02*
X498582D01*
X503057Y1220088D02*
X508294D01*
X505437Y1216279D01*
X506866D01*
X507818Y1215803D01*
X508294Y1215327D01*
X508770Y1213899D01*
Y1212946D01*
X508294Y1211518D01*
X507342Y1210566D01*
X505913Y1210090D01*
X504485D01*
X503057Y1210566D01*
X502581Y1211042D01*
X502105Y1211994D01*
X358870Y1220088D02*
X365535Y1210090D01*
Y1220088D02*
X358870Y1210090D01*
X367773Y1220088D02*
Y1210090D01*
Y1220088D02*
X373962D01*
X367773Y1215327D02*
X371582D01*
X375581Y1217707D02*
Y1218184D01*
X376057Y1219136D01*
X376533Y1219612D01*
X377485Y1220088D01*
X379389D01*
X380342Y1219612D01*
X380818Y1219136D01*
X381294Y1218184D01*
Y1217231D01*
X380818Y1216279D01*
X379865Y1214851D01*
X375105Y1210090D01*
X381770D01*
X1323908Y831429D02*
X1316290D01*
X1314862Y831905D01*
X1314386Y832381D01*
X1313910Y833334D01*
Y834286D01*
X1314386Y835238D01*
X1314862Y835714D01*
X1316290Y836190D01*
X1317243D01*
X1320575Y822669D02*
X1319147Y823145D01*
X1318195Y824097D01*
X1317719Y825526D01*
Y826002D01*
X1318195Y827430D01*
X1319147Y828382D01*
X1320575Y828858D01*
X1321051D01*
X1322480Y828382D01*
X1323432Y827430D01*
X1323908Y826002D01*
Y825526D01*
X1323432Y824097D01*
X1322480Y823145D01*
X1320575Y822669D01*
X1318195D01*
X1315814Y823145D01*
X1314386Y824097D01*
X1313910Y825526D01*
Y826478D01*
X1314386Y827906D01*
X1315338Y828382D01*
X1069908Y831429D02*
X1062290D01*
X1060862Y831905D01*
X1060386Y832381D01*
X1059910Y833334D01*
Y834286D01*
X1060386Y835238D01*
X1060862Y835714D01*
X1062290Y836190D01*
X1063243D01*
X1069908Y822193D02*
X1059910Y826954D01*
X1069908Y828858D02*
Y822193D01*
X815908Y831429D02*
X808290D01*
X806862Y831905D01*
X806386Y832381D01*
X805910Y833334D01*
Y834286D01*
X806386Y835238D01*
X806862Y835714D01*
X808290Y836190D01*
X809243D01*
X815908Y823145D02*
Y827906D01*
X811623Y828382D01*
X812099Y827906D01*
X812575Y826478D01*
Y825050D01*
X812099Y823621D01*
X811147Y822669D01*
X809719Y822193D01*
X808766D01*
X807338Y822669D01*
X806386Y823621D01*
X805910Y825050D01*
Y826478D01*
X806386Y827906D01*
X806862Y828382D01*
X807814Y828858D01*
X561908Y831429D02*
X554290D01*
X552862Y831905D01*
X552386Y832381D01*
X551910Y833334D01*
Y834286D01*
X552386Y835238D01*
X552862Y835714D01*
X554290Y836190D01*
X555243D01*
X561908Y827906D02*
Y822669D01*
X558099Y825526D01*
Y824097D01*
X557623Y823145D01*
X557147Y822669D01*
X555719Y822193D01*
X554767D01*
X553338Y822669D01*
X552386Y823621D01*
X551910Y825050D01*
Y826478D01*
X552386Y827906D01*
X552862Y828382D01*
X553814Y828858D01*
X1344390Y1179610D02*
X1354388D01*
X1344390D02*
Y1182943D01*
X1344866Y1184371D01*
X1345818Y1185323D01*
X1346770Y1185799D01*
X1348199Y1186275D01*
X1350579D01*
X1352007Y1185799D01*
X1352960Y1185323D01*
X1353912Y1184371D01*
X1354388Y1182943D01*
Y1179610D01*
X1346294Y1188513D02*
X1345818Y1189465D01*
X1344390Y1190893D01*
X1354388D01*
X1344390Y1198701D02*
X1344866Y1197273D01*
X1346294Y1196321D01*
X1348675Y1195845D01*
X1350103D01*
X1352484Y1196321D01*
X1353912Y1197273D01*
X1354388Y1198701D01*
Y1199653D01*
X1353912Y1201082D01*
X1352484Y1202034D01*
X1350103Y1202510D01*
X1348675D01*
X1346294Y1202034D01*
X1344866Y1201082D01*
X1344390Y1199653D01*
Y1198701D01*
X1217390Y1179610D02*
X1227388D01*
X1217390D02*
Y1182943D01*
X1217866Y1184371D01*
X1218818Y1185323D01*
X1219771Y1185799D01*
X1221199Y1186275D01*
X1223579D01*
X1225007Y1185799D01*
X1225960Y1185323D01*
X1226912Y1184371D01*
X1227388Y1182943D01*
Y1179610D01*
X1220723Y1194702D02*
X1222151Y1194226D01*
X1223103Y1193274D01*
X1223579Y1191845D01*
Y1191369D01*
X1223103Y1189941D01*
X1222151Y1188989D01*
X1220723Y1188513D01*
X1220247D01*
X1218818Y1188989D01*
X1217866Y1189941D01*
X1217390Y1191369D01*
Y1191845D01*
X1217866Y1193274D01*
X1218818Y1194226D01*
X1220723Y1194702D01*
X1223103D01*
X1225483Y1194226D01*
X1226912Y1193274D01*
X1227388Y1191845D01*
Y1190893D01*
X1226912Y1189465D01*
X1225960Y1188989D01*
X1090390Y1179610D02*
X1100388D01*
X1090390D02*
Y1182943D01*
X1090866Y1184371D01*
X1091818Y1185323D01*
X1092770Y1185799D01*
X1094199Y1186275D01*
X1096579D01*
X1098007Y1185799D01*
X1098960Y1185323D01*
X1099912Y1184371D01*
X1100388Y1182943D01*
Y1179610D01*
X1090390Y1190893D02*
X1090866Y1189465D01*
X1091818Y1188989D01*
X1092770D01*
X1093723Y1189465D01*
X1094199Y1190417D01*
X1094675Y1192322D01*
X1095151Y1193750D01*
X1096103Y1194702D01*
X1097055Y1195178D01*
X1098484D01*
X1099436Y1194702D01*
X1099912Y1194226D01*
X1100388Y1192798D01*
Y1190893D01*
X1099912Y1189465D01*
X1099436Y1188989D01*
X1098484Y1188513D01*
X1097055D01*
X1096103Y1188989D01*
X1095151Y1189941D01*
X1094675Y1191369D01*
X1094199Y1193274D01*
X1093723Y1194226D01*
X1092770Y1194702D01*
X1091818D01*
X1090866Y1194226D01*
X1090390Y1192798D01*
Y1190893D01*
X963390Y1179610D02*
X973388D01*
X963390D02*
Y1182943D01*
X963866Y1184371D01*
X964818Y1185323D01*
X965770Y1185799D01*
X967199Y1186275D01*
X969579D01*
X971007Y1185799D01*
X971960Y1185323D01*
X972912Y1184371D01*
X973388Y1182943D01*
Y1179610D01*
X963390Y1195178D02*
X973388Y1190417D01*
X963390Y1188513D02*
Y1195178D01*
X836390Y1179610D02*
X846388D01*
X836390D02*
Y1182943D01*
X836866Y1184371D01*
X837818Y1185323D01*
X838771Y1185799D01*
X840199Y1186275D01*
X842579D01*
X844007Y1185799D01*
X844960Y1185323D01*
X845912Y1184371D01*
X846388Y1182943D01*
Y1179610D01*
X837818Y1194226D02*
X836866Y1193750D01*
X836390Y1192322D01*
Y1191369D01*
X836866Y1189941D01*
X838294Y1188989D01*
X840675Y1188513D01*
X843055D01*
X844960Y1188989D01*
X845912Y1189941D01*
X846388Y1191369D01*
Y1191845D01*
X845912Y1193274D01*
X844960Y1194226D01*
X843531Y1194702D01*
X843055D01*
X841627Y1194226D01*
X840675Y1193274D01*
X840199Y1191845D01*
Y1191369D01*
X840675Y1189941D01*
X841627Y1188989D01*
X843055Y1188513D01*
X709390Y1179610D02*
X719388D01*
X709390D02*
Y1182943D01*
X709866Y1184371D01*
X710818Y1185323D01*
X711770Y1185799D01*
X713199Y1186275D01*
X715579D01*
X717007Y1185799D01*
X717960Y1185323D01*
X718912Y1184371D01*
X719388Y1182943D01*
Y1179610D01*
X709390Y1194226D02*
Y1189465D01*
X713675Y1188989D01*
X713199Y1189465D01*
X712723Y1190893D01*
Y1192322D01*
X713199Y1193750D01*
X714151Y1194702D01*
X715579Y1195178D01*
X716531D01*
X717960Y1194702D01*
X718912Y1193750D01*
X719388Y1192322D01*
Y1190893D01*
X718912Y1189465D01*
X718436Y1188989D01*
X717484Y1188513D01*
X455390Y1179610D02*
X465388D01*
X455390D02*
Y1182943D01*
X455866Y1184371D01*
X456818Y1185323D01*
X457771Y1185799D01*
X459199Y1186275D01*
X461579D01*
X463007Y1185799D01*
X463960Y1185323D01*
X464912Y1184371D01*
X465388Y1182943D01*
Y1179610D01*
X455390Y1189465D02*
Y1194702D01*
X459199Y1191845D01*
Y1193274D01*
X459675Y1194226D01*
X460151Y1194702D01*
X461579Y1195178D01*
X462531D01*
X463960Y1194702D01*
X464912Y1193750D01*
X465388Y1192322D01*
Y1190893D01*
X464912Y1189465D01*
X464436Y1188989D01*
X463484Y1188513D01*
X1346930Y1707930D02*
X1354071D01*
X1355500Y1708406D01*
X1356452Y1709358D01*
X1356928Y1710786D01*
Y1711739D01*
X1356452Y1713167D01*
X1355500Y1714119D01*
X1354071Y1714595D01*
X1346930D01*
X1348834Y1717357D02*
X1348358Y1718309D01*
X1346930Y1719737D01*
X1356928D01*
X1346930Y1727545D02*
X1347406Y1726117D01*
X1348834Y1725164D01*
X1351215Y1724688D01*
X1352643D01*
X1355023Y1725164D01*
X1356452Y1726117D01*
X1356928Y1727545D01*
Y1728497D01*
X1356452Y1729925D01*
X1355023Y1730878D01*
X1352643Y1731354D01*
X1351215D01*
X1348834Y1730878D01*
X1347406Y1729925D01*
X1346930Y1728497D01*
Y1727545D01*
X1219930Y1707930D02*
X1227071D01*
X1228500Y1708406D01*
X1229452Y1709358D01*
X1229928Y1710786D01*
Y1711739D01*
X1229452Y1713167D01*
X1228500Y1714119D01*
X1227071Y1714595D01*
X1219930D01*
X1223263Y1723546D02*
X1224691Y1723070D01*
X1225643Y1722117D01*
X1226119Y1720689D01*
Y1720213D01*
X1225643Y1718785D01*
X1224691Y1717833D01*
X1223263Y1717357D01*
X1222786D01*
X1221358Y1717833D01*
X1220406Y1718785D01*
X1219930Y1720213D01*
Y1720689D01*
X1220406Y1722117D01*
X1221358Y1723070D01*
X1223263Y1723546D01*
X1225643D01*
X1228024Y1723070D01*
X1229452Y1722117D01*
X1229928Y1720689D01*
Y1719737D01*
X1229452Y1718309D01*
X1228500Y1717833D01*
X1092930Y1707930D02*
X1100071D01*
X1101500Y1708406D01*
X1102452Y1709358D01*
X1102928Y1710786D01*
Y1711739D01*
X1102452Y1713167D01*
X1101500Y1714119D01*
X1100071Y1714595D01*
X1092930D01*
Y1719737D02*
X1093406Y1718309D01*
X1094358Y1717833D01*
X1095311D01*
X1096263Y1718309D01*
X1096739Y1719261D01*
X1097215Y1721165D01*
X1097691Y1722594D01*
X1098643Y1723546D01*
X1099595Y1724022D01*
X1101023D01*
X1101976Y1723546D01*
X1102452Y1723070D01*
X1102928Y1721641D01*
Y1719737D01*
X1102452Y1718309D01*
X1101976Y1717833D01*
X1101023Y1717357D01*
X1099595D01*
X1098643Y1717833D01*
X1097691Y1718785D01*
X1097215Y1720213D01*
X1096739Y1722117D01*
X1096263Y1723070D01*
X1095311Y1723546D01*
X1094358D01*
X1093406Y1723070D01*
X1092930Y1721641D01*
Y1719737D01*
X965930Y1707930D02*
X973071D01*
X974500Y1708406D01*
X975452Y1709358D01*
X975928Y1710786D01*
Y1711739D01*
X975452Y1713167D01*
X974500Y1714119D01*
X973071Y1714595D01*
X965930D01*
Y1724022D02*
X975928Y1719261D01*
X965930Y1717357D02*
Y1724022D01*
X838930Y1707930D02*
X846071D01*
X847500Y1708406D01*
X848452Y1709358D01*
X848928Y1710786D01*
Y1711739D01*
X848452Y1713167D01*
X847500Y1714119D01*
X846071Y1714595D01*
X838930D01*
X840358Y1723070D02*
X839406Y1722594D01*
X838930Y1721165D01*
Y1720213D01*
X839406Y1718785D01*
X840834Y1717833D01*
X843215Y1717357D01*
X845595D01*
X847500Y1717833D01*
X848452Y1718785D01*
X848928Y1720213D01*
Y1720689D01*
X848452Y1722117D01*
X847500Y1723070D01*
X846071Y1723546D01*
X845595D01*
X844167Y1723070D01*
X843215Y1722117D01*
X842739Y1720689D01*
Y1720213D01*
X843215Y1718785D01*
X844167Y1717833D01*
X845595Y1717357D01*
X711930Y1707930D02*
X719071D01*
X720500Y1708406D01*
X721452Y1709358D01*
X721928Y1710786D01*
Y1711739D01*
X721452Y1713167D01*
X720500Y1714119D01*
X719071Y1714595D01*
X711930D01*
Y1723070D02*
Y1718309D01*
X716215Y1717833D01*
X715739Y1718309D01*
X715263Y1719737D01*
Y1721165D01*
X715739Y1722594D01*
X716691Y1723546D01*
X718119Y1724022D01*
X719071D01*
X720500Y1723546D01*
X721452Y1722594D01*
X721928Y1721165D01*
Y1719737D01*
X721452Y1718309D01*
X720976Y1717833D01*
X720023Y1717357D01*
X584930Y1707930D02*
X592071D01*
X593500Y1708406D01*
X594452Y1709358D01*
X594928Y1710786D01*
Y1711739D01*
X594452Y1713167D01*
X593500Y1714119D01*
X592071Y1714595D01*
X584930D01*
Y1722117D02*
X591595Y1717357D01*
Y1724498D01*
X584930Y1722117D02*
X594928D01*
X457930Y1707930D02*
X465071D01*
X466500Y1708406D01*
X467452Y1709358D01*
X467928Y1710786D01*
Y1711739D01*
X467452Y1713167D01*
X466500Y1714119D01*
X465071Y1714595D01*
X457930D01*
Y1718309D02*
Y1723546D01*
X461739Y1720689D01*
Y1722117D01*
X462215Y1723070D01*
X462691Y1723546D01*
X464119Y1724022D01*
X465071D01*
X466500Y1723546D01*
X467452Y1722594D01*
X467928Y1721165D01*
Y1719737D01*
X467452Y1718309D01*
X466976Y1717833D01*
X466023Y1717357D01*
X330930Y1707930D02*
X338071D01*
X339500Y1708406D01*
X340452Y1709358D01*
X340928Y1710786D01*
Y1711739D01*
X340452Y1713167D01*
X339500Y1714119D01*
X338071Y1714595D01*
X330930D01*
X333311Y1717833D02*
X332834D01*
X331882Y1718309D01*
X331406Y1718785D01*
X330930Y1719737D01*
Y1721641D01*
X331406Y1722594D01*
X331882Y1723070D01*
X332834Y1723546D01*
X333787D01*
X334739Y1723070D01*
X336167Y1722117D01*
X340928Y1717357D01*
Y1724022D01*
X190872Y1707930D02*
X198013D01*
X199442Y1708406D01*
X200394Y1709358D01*
X200870Y1710786D01*
Y1711739D01*
X200394Y1713167D01*
X199442Y1714119D01*
X198013Y1714595D01*
X190872D01*
X192777Y1717357D02*
X192300Y1718309D01*
X190872Y1719737D01*
X200870D01*
X328390Y1763810D02*
X338388D01*
X328390D02*
Y1767143D01*
X328866Y1768571D01*
X329818Y1769523D01*
X330770Y1769999D01*
X332199Y1770475D01*
X334579D01*
X336007Y1769999D01*
X336960Y1769523D01*
X337912Y1768571D01*
X338388Y1767143D01*
Y1763810D01*
X330770Y1773189D02*
X330294D01*
X329342Y1773665D01*
X328866Y1774141D01*
X328390Y1775093D01*
Y1776998D01*
X328866Y1777950D01*
X329342Y1778426D01*
X330294Y1778902D01*
X331246D01*
X332199Y1778426D01*
X333627Y1777474D01*
X338388Y1772713D01*
Y1779378D01*
X193412Y1763810D02*
X203410D01*
X193412D02*
Y1767143D01*
X193888Y1768571D01*
X194840Y1769523D01*
X195793Y1769999D01*
X197221Y1770475D01*
X199601D01*
X201030Y1769999D01*
X201982Y1769523D01*
X202934Y1768571D01*
X203410Y1767143D01*
Y1763810D01*
X195317Y1772713D02*
X194840Y1773665D01*
X193412Y1775093D01*
X203410D01*
X231870Y1804288D02*
X238535Y1794290D01*
Y1804288D02*
X231870Y1794290D01*
X240773Y1804288D02*
Y1794290D01*
Y1804288D02*
X246962D01*
X240773Y1799527D02*
X244582D01*
X248105Y1802384D02*
X249057Y1802860D01*
X250485Y1804288D01*
Y1794290D01*
X688908Y1415629D02*
X681290D01*
X679862Y1416105D01*
X679386Y1416581D01*
X678910Y1417534D01*
Y1418486D01*
X679386Y1419438D01*
X679862Y1419914D01*
X681290Y1420390D01*
X682243D01*
X688908Y1408297D02*
X682243Y1413058D01*
Y1405917D01*
X688908Y1408297D02*
X678910D01*
X582390Y1763810D02*
X592388D01*
X582390D02*
Y1767143D01*
X582866Y1768571D01*
X583818Y1769523D01*
X584771Y1769999D01*
X586199Y1770475D01*
X588579D01*
X590007Y1769999D01*
X590960Y1769523D01*
X591912Y1768571D01*
X592388Y1767143D01*
Y1763810D01*
X582390Y1777474D02*
X589055Y1772713D01*
Y1779854D01*
X582390Y1777474D02*
X592388D01*
X1196908Y1415629D02*
X1189290D01*
X1187862Y1416105D01*
X1187386Y1416581D01*
X1186910Y1417534D01*
Y1418486D01*
X1187386Y1419438D01*
X1187862Y1419914D01*
X1189290Y1420390D01*
X1190243D01*
X1196908Y1410678D02*
X1196432Y1412106D01*
X1195480Y1412582D01*
X1194527D01*
X1193575Y1412106D01*
X1193099Y1411154D01*
X1192623Y1409250D01*
X1192147Y1407821D01*
X1191195Y1406869D01*
X1190243Y1406393D01*
X1188814D01*
X1187862Y1406869D01*
X1187386Y1407345D01*
X1186910Y1408773D01*
Y1410678D01*
X1187386Y1412106D01*
X1187862Y1412582D01*
X1188814Y1413058D01*
X1190243D01*
X1191195Y1412582D01*
X1192147Y1411630D01*
X1192623Y1410202D01*
X1193099Y1408297D01*
X1193575Y1407345D01*
X1194527Y1406869D01*
X1195480D01*
X1196432Y1407345D01*
X1196908Y1408773D01*
Y1410678D01*
X942908Y1415629D02*
X935290D01*
X933862Y1416105D01*
X933386Y1416581D01*
X932910Y1417534D01*
Y1418486D01*
X933386Y1419438D01*
X933862Y1419914D01*
X935290Y1420390D01*
X936243D01*
X941480Y1407345D02*
X942432Y1407821D01*
X942908Y1409250D01*
Y1410202D01*
X942432Y1411630D01*
X941003Y1412582D01*
X938623Y1413058D01*
X936243D01*
X934338Y1412582D01*
X933386Y1411630D01*
X932910Y1410202D01*
Y1409726D01*
X933386Y1408297D01*
X934338Y1407345D01*
X935767Y1406869D01*
X936243D01*
X937671Y1407345D01*
X938623Y1408297D01*
X939099Y1409726D01*
Y1410202D01*
X938623Y1411630D01*
X937671Y1412582D01*
X936243Y1413058D01*
X323148Y1499449D02*
X315530D01*
X314102Y1499925D01*
X313626Y1500401D01*
X313150Y1501353D01*
Y1502306D01*
X313626Y1503258D01*
X314102Y1503734D01*
X315530Y1504210D01*
X316483D01*
X321244Y1496878D02*
X321720Y1495926D01*
X323148Y1494498D01*
X313150D01*
X434908Y1415629D02*
X427290D01*
X425862Y1416105D01*
X425386Y1416581D01*
X424910Y1417534D01*
Y1418486D01*
X425386Y1419438D01*
X425862Y1419914D01*
X427290Y1420390D01*
X428243D01*
X432527Y1412582D02*
X433004D01*
X433956Y1412106D01*
X434432Y1411630D01*
X434908Y1410678D01*
Y1408773D01*
X434432Y1407821D01*
X433956Y1407345D01*
X433004Y1406869D01*
X432051D01*
X431099Y1407345D01*
X429671Y1408297D01*
X424910Y1413058D01*
Y1406393D01*
X1247870Y1804288D02*
X1254535Y1794290D01*
Y1804288D02*
X1247870Y1794290D01*
X1256773Y1804288D02*
Y1794290D01*
Y1804288D02*
X1262962D01*
X1256773Y1799527D02*
X1260582D01*
X1270294Y1800955D02*
X1269818Y1799527D01*
X1268866Y1798575D01*
X1267437Y1798099D01*
X1266961D01*
X1265533Y1798575D01*
X1264581Y1799527D01*
X1264105Y1800955D01*
Y1801431D01*
X1264581Y1802860D01*
X1265533Y1803812D01*
X1266961Y1804288D01*
X1267437D01*
X1268866Y1803812D01*
X1269818Y1802860D01*
X1270294Y1800955D01*
Y1798575D01*
X1269818Y1796194D01*
X1268866Y1794766D01*
X1267437Y1794290D01*
X1266485D01*
X1265057Y1794766D01*
X1264581Y1795718D01*
X1120870Y1804288D02*
X1127535Y1794290D01*
Y1804288D02*
X1120870Y1794290D01*
X1129773Y1804288D02*
Y1794290D01*
Y1804288D02*
X1135962D01*
X1129773Y1799527D02*
X1133582D01*
X1139485Y1804288D02*
X1138057Y1803812D01*
X1137581Y1802860D01*
Y1801907D01*
X1138057Y1800955D01*
X1139009Y1800479D01*
X1140913Y1800003D01*
X1142342Y1799527D01*
X1143294Y1798575D01*
X1143770Y1797623D01*
Y1796194D01*
X1143294Y1795242D01*
X1142818Y1794766D01*
X1141389Y1794290D01*
X1139485D01*
X1138057Y1794766D01*
X1137581Y1795242D01*
X1137105Y1796194D01*
Y1797623D01*
X1137581Y1798575D01*
X1138533Y1799527D01*
X1139961Y1800003D01*
X1141865Y1800479D01*
X1142818Y1800955D01*
X1143294Y1801907D01*
Y1802860D01*
X1142818Y1803812D01*
X1141389Y1804288D01*
X1139485D01*
X993870D02*
X1000535Y1794290D01*
Y1804288D02*
X993870Y1794290D01*
X1002773Y1804288D02*
Y1794290D01*
Y1804288D02*
X1008962D01*
X1002773Y1799527D02*
X1006582D01*
X1016770Y1804288D02*
X1012009Y1794290D01*
X1010105Y1804288D02*
X1016770D01*
X866870D02*
X873535Y1794290D01*
Y1804288D02*
X866870Y1794290D01*
X875773Y1804288D02*
Y1794290D01*
Y1804288D02*
X881962D01*
X875773Y1799527D02*
X879582D01*
X888818Y1802860D02*
X888342Y1803812D01*
X886913Y1804288D01*
X885961D01*
X884533Y1803812D01*
X883581Y1802384D01*
X883105Y1800003D01*
Y1797623D01*
X883581Y1795718D01*
X884533Y1794766D01*
X885961Y1794290D01*
X886437D01*
X887866Y1794766D01*
X888818Y1795718D01*
X889294Y1797146D01*
Y1797623D01*
X888818Y1799051D01*
X887866Y1800003D01*
X886437Y1800479D01*
X885961D01*
X884533Y1800003D01*
X883581Y1799051D01*
X883105Y1797623D01*
X739870Y1804288D02*
X746535Y1794290D01*
Y1804288D02*
X739870Y1794290D01*
X748773Y1804288D02*
Y1794290D01*
Y1804288D02*
X754962D01*
X748773Y1799527D02*
X752582D01*
X761818Y1804288D02*
X757057D01*
X756581Y1800003D01*
X757057Y1800479D01*
X758485Y1800955D01*
X759913D01*
X761342Y1800479D01*
X762294Y1799527D01*
X762770Y1798099D01*
Y1797146D01*
X762294Y1795718D01*
X761342Y1794766D01*
X759913Y1794290D01*
X758485D01*
X757057Y1794766D01*
X756581Y1795242D01*
X756105Y1796194D01*
X612870Y1804288D02*
X619535Y1794290D01*
Y1804288D02*
X612870Y1794290D01*
X621773Y1804288D02*
Y1794290D01*
Y1804288D02*
X627962D01*
X621773Y1799527D02*
X625582D01*
X633866Y1804288D02*
X629105Y1797623D01*
X636246D01*
X633866Y1804288D02*
Y1794290D01*
X485870Y1804288D02*
X492535Y1794290D01*
Y1804288D02*
X485870Y1794290D01*
X494773Y1804288D02*
Y1794290D01*
Y1804288D02*
X500962D01*
X494773Y1799527D02*
X498582D01*
X503057Y1804288D02*
X508294D01*
X505437Y1800479D01*
X506866D01*
X507818Y1800003D01*
X508294Y1799527D01*
X508770Y1798099D01*
Y1797146D01*
X508294Y1795718D01*
X507342Y1794766D01*
X505913Y1794290D01*
X504485D01*
X503057Y1794766D01*
X502581Y1795242D01*
X502105Y1796194D01*
X358870Y1804288D02*
X365535Y1794290D01*
Y1804288D02*
X358870Y1794290D01*
X367773Y1804288D02*
Y1794290D01*
Y1804288D02*
X373962D01*
X367773Y1799527D02*
X371582D01*
X375581Y1801907D02*
Y1802384D01*
X376057Y1803336D01*
X376533Y1803812D01*
X377485Y1804288D01*
X379389D01*
X380342Y1803812D01*
X380818Y1803336D01*
X381294Y1802384D01*
Y1801431D01*
X380818Y1800479D01*
X379865Y1799051D01*
X375105Y1794290D01*
X381770D01*
X1323908Y1415629D02*
X1316290D01*
X1314862Y1416105D01*
X1314386Y1416581D01*
X1313910Y1417534D01*
Y1418486D01*
X1314386Y1419438D01*
X1314862Y1419914D01*
X1316290Y1420390D01*
X1317243D01*
X1320575Y1406869D02*
X1319147Y1407345D01*
X1318195Y1408297D01*
X1317719Y1409726D01*
Y1410202D01*
X1318195Y1411630D01*
X1319147Y1412582D01*
X1320575Y1413058D01*
X1321051D01*
X1322480Y1412582D01*
X1323432Y1411630D01*
X1323908Y1410202D01*
Y1409726D01*
X1323432Y1408297D01*
X1322480Y1407345D01*
X1320575Y1406869D01*
X1318195D01*
X1315814Y1407345D01*
X1314386Y1408297D01*
X1313910Y1409726D01*
Y1410678D01*
X1314386Y1412106D01*
X1315338Y1412582D01*
X1069908Y1415629D02*
X1062290D01*
X1060862Y1416105D01*
X1060386Y1416581D01*
X1059910Y1417534D01*
Y1418486D01*
X1060386Y1419438D01*
X1060862Y1419914D01*
X1062290Y1420390D01*
X1063243D01*
X1069908Y1406393D02*
X1059910Y1411154D01*
X1069908Y1413058D02*
Y1406393D01*
X815908Y1415629D02*
X808290D01*
X806862Y1416105D01*
X806386Y1416581D01*
X805910Y1417534D01*
Y1418486D01*
X806386Y1419438D01*
X806862Y1419914D01*
X808290Y1420390D01*
X809243D01*
X815908Y1407345D02*
Y1412106D01*
X811623Y1412582D01*
X812099Y1412106D01*
X812575Y1410678D01*
Y1409250D01*
X812099Y1407821D01*
X811147Y1406869D01*
X809719Y1406393D01*
X808766D01*
X807338Y1406869D01*
X806386Y1407821D01*
X805910Y1409250D01*
Y1410678D01*
X806386Y1412106D01*
X806862Y1412582D01*
X807814Y1413058D01*
X561908Y1415629D02*
X554290D01*
X552862Y1416105D01*
X552386Y1416581D01*
X551910Y1417534D01*
Y1418486D01*
X552386Y1419438D01*
X552862Y1419914D01*
X554290Y1420390D01*
X555243D01*
X561908Y1412106D02*
Y1406869D01*
X558099Y1409726D01*
Y1408297D01*
X557623Y1407345D01*
X557147Y1406869D01*
X555719Y1406393D01*
X554767D01*
X553338Y1406869D01*
X552386Y1407821D01*
X551910Y1409250D01*
Y1410678D01*
X552386Y1412106D01*
X552862Y1412582D01*
X553814Y1413058D01*
X1344390Y1763810D02*
X1354388D01*
X1344390D02*
Y1767143D01*
X1344866Y1768571D01*
X1345818Y1769523D01*
X1346770Y1769999D01*
X1348199Y1770475D01*
X1350579D01*
X1352007Y1769999D01*
X1352960Y1769523D01*
X1353912Y1768571D01*
X1354388Y1767143D01*
Y1763810D01*
X1346294Y1772713D02*
X1345818Y1773665D01*
X1344390Y1775093D01*
X1354388D01*
X1344390Y1782901D02*
X1344866Y1781473D01*
X1346294Y1780521D01*
X1348675Y1780045D01*
X1350103D01*
X1352484Y1780521D01*
X1353912Y1781473D01*
X1354388Y1782901D01*
Y1783853D01*
X1353912Y1785282D01*
X1352484Y1786234D01*
X1350103Y1786710D01*
X1348675D01*
X1346294Y1786234D01*
X1344866Y1785282D01*
X1344390Y1783853D01*
Y1782901D01*
X1217390Y1763810D02*
X1227388D01*
X1217390D02*
Y1767143D01*
X1217866Y1768571D01*
X1218818Y1769523D01*
X1219771Y1769999D01*
X1221199Y1770475D01*
X1223579D01*
X1225007Y1769999D01*
X1225960Y1769523D01*
X1226912Y1768571D01*
X1227388Y1767143D01*
Y1763810D01*
X1220723Y1778902D02*
X1222151Y1778426D01*
X1223103Y1777474D01*
X1223579Y1776046D01*
Y1775569D01*
X1223103Y1774141D01*
X1222151Y1773189D01*
X1220723Y1772713D01*
X1220247D01*
X1218818Y1773189D01*
X1217866Y1774141D01*
X1217390Y1775569D01*
Y1776046D01*
X1217866Y1777474D01*
X1218818Y1778426D01*
X1220723Y1778902D01*
X1223103D01*
X1225483Y1778426D01*
X1226912Y1777474D01*
X1227388Y1776046D01*
Y1775093D01*
X1226912Y1773665D01*
X1225960Y1773189D01*
X1090390Y1763810D02*
X1100388D01*
X1090390D02*
Y1767143D01*
X1090866Y1768571D01*
X1091818Y1769523D01*
X1092770Y1769999D01*
X1094199Y1770475D01*
X1096579D01*
X1098007Y1769999D01*
X1098960Y1769523D01*
X1099912Y1768571D01*
X1100388Y1767143D01*
Y1763810D01*
X1090390Y1775093D02*
X1090866Y1773665D01*
X1091818Y1773189D01*
X1092770D01*
X1093723Y1773665D01*
X1094199Y1774617D01*
X1094675Y1776522D01*
X1095151Y1777950D01*
X1096103Y1778902D01*
X1097055Y1779378D01*
X1098484D01*
X1099436Y1778902D01*
X1099912Y1778426D01*
X1100388Y1776998D01*
Y1775093D01*
X1099912Y1773665D01*
X1099436Y1773189D01*
X1098484Y1772713D01*
X1097055D01*
X1096103Y1773189D01*
X1095151Y1774141D01*
X1094675Y1775569D01*
X1094199Y1777474D01*
X1093723Y1778426D01*
X1092770Y1778902D01*
X1091818D01*
X1090866Y1778426D01*
X1090390Y1776998D01*
Y1775093D01*
X963390Y1763810D02*
X973388D01*
X963390D02*
Y1767143D01*
X963866Y1768571D01*
X964818Y1769523D01*
X965770Y1769999D01*
X967199Y1770475D01*
X969579D01*
X971007Y1769999D01*
X971960Y1769523D01*
X972912Y1768571D01*
X973388Y1767143D01*
Y1763810D01*
X963390Y1779378D02*
X973388Y1774617D01*
X963390Y1772713D02*
Y1779378D01*
X836390Y1763810D02*
X846388D01*
X836390D02*
Y1767143D01*
X836866Y1768571D01*
X837818Y1769523D01*
X838771Y1769999D01*
X840199Y1770475D01*
X842579D01*
X844007Y1769999D01*
X844960Y1769523D01*
X845912Y1768571D01*
X846388Y1767143D01*
Y1763810D01*
X837818Y1778426D02*
X836866Y1777950D01*
X836390Y1776522D01*
Y1775569D01*
X836866Y1774141D01*
X838294Y1773189D01*
X840675Y1772713D01*
X843055D01*
X844960Y1773189D01*
X845912Y1774141D01*
X846388Y1775569D01*
Y1776046D01*
X845912Y1777474D01*
X844960Y1778426D01*
X843531Y1778902D01*
X843055D01*
X841627Y1778426D01*
X840675Y1777474D01*
X840199Y1776046D01*
Y1775569D01*
X840675Y1774141D01*
X841627Y1773189D01*
X843055Y1772713D01*
X709390Y1763810D02*
X719388D01*
X709390D02*
Y1767143D01*
X709866Y1768571D01*
X710818Y1769523D01*
X711770Y1769999D01*
X713199Y1770475D01*
X715579D01*
X717007Y1769999D01*
X717960Y1769523D01*
X718912Y1768571D01*
X719388Y1767143D01*
Y1763810D01*
X709390Y1778426D02*
Y1773665D01*
X713675Y1773189D01*
X713199Y1773665D01*
X712723Y1775093D01*
Y1776522D01*
X713199Y1777950D01*
X714151Y1778902D01*
X715579Y1779378D01*
X716531D01*
X717960Y1778902D01*
X718912Y1777950D01*
X719388Y1776522D01*
Y1775093D01*
X718912Y1773665D01*
X718436Y1773189D01*
X717484Y1772713D01*
X455390Y1763810D02*
X465388D01*
X455390D02*
Y1767143D01*
X455866Y1768571D01*
X456818Y1769523D01*
X457771Y1769999D01*
X459199Y1770475D01*
X461579D01*
X463007Y1769999D01*
X463960Y1769523D01*
X464912Y1768571D01*
X465388Y1767143D01*
Y1763810D01*
X455390Y1773665D02*
Y1778902D01*
X459199Y1776046D01*
Y1777474D01*
X459675Y1778426D01*
X460151Y1778902D01*
X461579Y1779378D01*
X462531D01*
X463960Y1778902D01*
X464912Y1777950D01*
X465388Y1776522D01*
Y1775093D01*
X464912Y1773665D01*
X464436Y1773189D01*
X463484Y1772713D01*
X1346930Y2292130D02*
X1354071D01*
X1355500Y2292606D01*
X1356452Y2293558D01*
X1356928Y2294987D01*
Y2295939D01*
X1356452Y2297367D01*
X1355500Y2298319D01*
X1354071Y2298795D01*
X1346930D01*
X1348834Y2301557D02*
X1348358Y2302509D01*
X1346930Y2303937D01*
X1356928D01*
X1346930Y2311745D02*
X1347406Y2310317D01*
X1348834Y2309364D01*
X1351215Y2308888D01*
X1352643D01*
X1355023Y2309364D01*
X1356452Y2310317D01*
X1356928Y2311745D01*
Y2312697D01*
X1356452Y2314125D01*
X1355023Y2315078D01*
X1352643Y2315554D01*
X1351215D01*
X1348834Y2315078D01*
X1347406Y2314125D01*
X1346930Y2312697D01*
Y2311745D01*
X1219930Y2292130D02*
X1227071D01*
X1228500Y2292606D01*
X1229452Y2293558D01*
X1229928Y2294987D01*
Y2295939D01*
X1229452Y2297367D01*
X1228500Y2298319D01*
X1227071Y2298795D01*
X1219930D01*
X1223263Y2307746D02*
X1224691Y2307270D01*
X1225643Y2306317D01*
X1226119Y2304889D01*
Y2304413D01*
X1225643Y2302985D01*
X1224691Y2302033D01*
X1223263Y2301557D01*
X1222786D01*
X1221358Y2302033D01*
X1220406Y2302985D01*
X1219930Y2304413D01*
Y2304889D01*
X1220406Y2306317D01*
X1221358Y2307270D01*
X1223263Y2307746D01*
X1225643D01*
X1228024Y2307270D01*
X1229452Y2306317D01*
X1229928Y2304889D01*
Y2303937D01*
X1229452Y2302509D01*
X1228500Y2302033D01*
X1092930Y2292130D02*
X1100071D01*
X1101500Y2292606D01*
X1102452Y2293558D01*
X1102928Y2294987D01*
Y2295939D01*
X1102452Y2297367D01*
X1101500Y2298319D01*
X1100071Y2298795D01*
X1092930D01*
Y2303937D02*
X1093406Y2302509D01*
X1094358Y2302033D01*
X1095311D01*
X1096263Y2302509D01*
X1096739Y2303461D01*
X1097215Y2305365D01*
X1097691Y2306794D01*
X1098643Y2307746D01*
X1099595Y2308222D01*
X1101023D01*
X1101976Y2307746D01*
X1102452Y2307270D01*
X1102928Y2305841D01*
Y2303937D01*
X1102452Y2302509D01*
X1101976Y2302033D01*
X1101023Y2301557D01*
X1099595D01*
X1098643Y2302033D01*
X1097691Y2302985D01*
X1097215Y2304413D01*
X1096739Y2306317D01*
X1096263Y2307270D01*
X1095311Y2307746D01*
X1094358D01*
X1093406Y2307270D01*
X1092930Y2305841D01*
Y2303937D01*
X965930Y2292130D02*
X973071D01*
X974500Y2292606D01*
X975452Y2293558D01*
X975928Y2294987D01*
Y2295939D01*
X975452Y2297367D01*
X974500Y2298319D01*
X973071Y2298795D01*
X965930D01*
Y2308222D02*
X975928Y2303461D01*
X965930Y2301557D02*
Y2308222D01*
X838930Y2292130D02*
X846071D01*
X847500Y2292606D01*
X848452Y2293558D01*
X848928Y2294987D01*
Y2295939D01*
X848452Y2297367D01*
X847500Y2298319D01*
X846071Y2298795D01*
X838930D01*
X840358Y2307270D02*
X839406Y2306794D01*
X838930Y2305365D01*
Y2304413D01*
X839406Y2302985D01*
X840834Y2302033D01*
X843215Y2301557D01*
X845595D01*
X847500Y2302033D01*
X848452Y2302985D01*
X848928Y2304413D01*
Y2304889D01*
X848452Y2306317D01*
X847500Y2307270D01*
X846071Y2307746D01*
X845595D01*
X844167Y2307270D01*
X843215Y2306317D01*
X842739Y2304889D01*
Y2304413D01*
X843215Y2302985D01*
X844167Y2302033D01*
X845595Y2301557D01*
X711930Y2292130D02*
X719071D01*
X720500Y2292606D01*
X721452Y2293558D01*
X721928Y2294987D01*
Y2295939D01*
X721452Y2297367D01*
X720500Y2298319D01*
X719071Y2298795D01*
X711930D01*
Y2307270D02*
Y2302509D01*
X716215Y2302033D01*
X715739Y2302509D01*
X715263Y2303937D01*
Y2305365D01*
X715739Y2306794D01*
X716691Y2307746D01*
X718119Y2308222D01*
X719071D01*
X720500Y2307746D01*
X721452Y2306794D01*
X721928Y2305365D01*
Y2303937D01*
X721452Y2302509D01*
X720976Y2302033D01*
X720023Y2301557D01*
X584930Y2292130D02*
X592071D01*
X593500Y2292606D01*
X594452Y2293558D01*
X594928Y2294987D01*
Y2295939D01*
X594452Y2297367D01*
X593500Y2298319D01*
X592071Y2298795D01*
X584930D01*
Y2306317D02*
X591595Y2301557D01*
Y2308698D01*
X584930Y2306317D02*
X594928D01*
X457930Y2292130D02*
X465071D01*
X466500Y2292606D01*
X467452Y2293558D01*
X467928Y2294987D01*
Y2295939D01*
X467452Y2297367D01*
X466500Y2298319D01*
X465071Y2298795D01*
X457930D01*
Y2302509D02*
Y2307746D01*
X461739Y2304889D01*
Y2306317D01*
X462215Y2307270D01*
X462691Y2307746D01*
X464119Y2308222D01*
X465071D01*
X466500Y2307746D01*
X467452Y2306794D01*
X467928Y2305365D01*
Y2303937D01*
X467452Y2302509D01*
X466976Y2302033D01*
X466023Y2301557D01*
X330930Y2292130D02*
X338071D01*
X339500Y2292606D01*
X340452Y2293558D01*
X340928Y2294987D01*
Y2295939D01*
X340452Y2297367D01*
X339500Y2298319D01*
X338071Y2298795D01*
X330930D01*
X333311Y2302033D02*
X332834D01*
X331882Y2302509D01*
X331406Y2302985D01*
X330930Y2303937D01*
Y2305841D01*
X331406Y2306794D01*
X331882Y2307270D01*
X332834Y2307746D01*
X333787D01*
X334739Y2307270D01*
X336167Y2306317D01*
X340928Y2301557D01*
Y2308222D01*
X190872Y2292130D02*
X198013D01*
X199442Y2292606D01*
X200394Y2293558D01*
X200870Y2294987D01*
Y2295939D01*
X200394Y2297367D01*
X199442Y2298319D01*
X198013Y2298795D01*
X190872D01*
X192777Y2301557D02*
X192300Y2302509D01*
X190872Y2303937D01*
X200870D01*
X328390Y2348010D02*
X338388D01*
X328390D02*
Y2351343D01*
X328866Y2352771D01*
X329818Y2353723D01*
X330770Y2354199D01*
X332199Y2354675D01*
X334579D01*
X336007Y2354199D01*
X336960Y2353723D01*
X337912Y2352771D01*
X338388Y2351343D01*
Y2348010D01*
X330770Y2357389D02*
X330294D01*
X329342Y2357865D01*
X328866Y2358341D01*
X328390Y2359293D01*
Y2361198D01*
X328866Y2362150D01*
X329342Y2362626D01*
X330294Y2363102D01*
X331246D01*
X332199Y2362626D01*
X333627Y2361674D01*
X338388Y2356913D01*
Y2363578D01*
X193412Y2348010D02*
X203410D01*
X193412D02*
Y2351343D01*
X193888Y2352771D01*
X194840Y2353723D01*
X195793Y2354199D01*
X197221Y2354675D01*
X199601D01*
X201030Y2354199D01*
X201982Y2353723D01*
X202934Y2352771D01*
X203410Y2351343D01*
Y2348010D01*
X195317Y2356913D02*
X194840Y2357865D01*
X193412Y2359293D01*
X203410D01*
X231870Y2388488D02*
X238535Y2378490D01*
Y2388488D02*
X231870Y2378490D01*
X240773Y2388488D02*
Y2378490D01*
Y2388488D02*
X246962D01*
X240773Y2383727D02*
X244582D01*
X248105Y2386584D02*
X249057Y2387060D01*
X250485Y2388488D01*
Y2378490D01*
X688908Y1999829D02*
X681290D01*
X679862Y2000305D01*
X679386Y2000781D01*
X678910Y2001734D01*
Y2002686D01*
X679386Y2003638D01*
X679862Y2004114D01*
X681290Y2004590D01*
X682243D01*
X688908Y1992497D02*
X682243Y1997258D01*
Y1990117D01*
X688908Y1992497D02*
X678910D01*
X582390Y2348010D02*
X592388D01*
X582390D02*
Y2351343D01*
X582866Y2352771D01*
X583818Y2353723D01*
X584771Y2354199D01*
X586199Y2354675D01*
X588579D01*
X590007Y2354199D01*
X590960Y2353723D01*
X591912Y2352771D01*
X592388Y2351343D01*
Y2348010D01*
X582390Y2361674D02*
X589055Y2356913D01*
Y2364054D01*
X582390Y2361674D02*
X592388D01*
X1196908Y1999829D02*
X1189290D01*
X1187862Y2000305D01*
X1187386Y2000781D01*
X1186910Y2001734D01*
Y2002686D01*
X1187386Y2003638D01*
X1187862Y2004114D01*
X1189290Y2004590D01*
X1190243D01*
X1196908Y1994878D02*
X1196432Y1996306D01*
X1195480Y1996782D01*
X1194527D01*
X1193575Y1996306D01*
X1193099Y1995354D01*
X1192623Y1993450D01*
X1192147Y1992021D01*
X1191195Y1991069D01*
X1190243Y1990593D01*
X1188814D01*
X1187862Y1991069D01*
X1187386Y1991545D01*
X1186910Y1992973D01*
Y1994878D01*
X1187386Y1996306D01*
X1187862Y1996782D01*
X1188814Y1997258D01*
X1190243D01*
X1191195Y1996782D01*
X1192147Y1995830D01*
X1192623Y1994402D01*
X1193099Y1992497D01*
X1193575Y1991545D01*
X1194527Y1991069D01*
X1195480D01*
X1196432Y1991545D01*
X1196908Y1992973D01*
Y1994878D01*
X942908Y1999829D02*
X935290D01*
X933862Y2000305D01*
X933386Y2000781D01*
X932910Y2001734D01*
Y2002686D01*
X933386Y2003638D01*
X933862Y2004114D01*
X935290Y2004590D01*
X936243D01*
X941480Y1991545D02*
X942432Y1992021D01*
X942908Y1993450D01*
Y1994402D01*
X942432Y1995830D01*
X941003Y1996782D01*
X938623Y1997258D01*
X936243D01*
X934338Y1996782D01*
X933386Y1995830D01*
X932910Y1994402D01*
Y1993926D01*
X933386Y1992497D01*
X934338Y1991545D01*
X935767Y1991069D01*
X936243D01*
X937671Y1991545D01*
X938623Y1992497D01*
X939099Y1993926D01*
Y1994402D01*
X938623Y1995830D01*
X937671Y1996782D01*
X936243Y1997258D01*
X323148Y2083649D02*
X315530D01*
X314102Y2084125D01*
X313626Y2084601D01*
X313150Y2085553D01*
Y2086506D01*
X313626Y2087458D01*
X314102Y2087934D01*
X315530Y2088410D01*
X316483D01*
X321244Y2081078D02*
X321720Y2080126D01*
X323148Y2078698D01*
X313150D01*
X434908Y1999829D02*
X427290D01*
X425862Y2000305D01*
X425386Y2000781D01*
X424910Y2001734D01*
Y2002686D01*
X425386Y2003638D01*
X425862Y2004114D01*
X427290Y2004590D01*
X428243D01*
X432527Y1996782D02*
X433004D01*
X433956Y1996306D01*
X434432Y1995830D01*
X434908Y1994878D01*
Y1992973D01*
X434432Y1992021D01*
X433956Y1991545D01*
X433004Y1991069D01*
X432051D01*
X431099Y1991545D01*
X429671Y1992497D01*
X424910Y1997258D01*
Y1990593D01*
X1247870Y2388488D02*
X1254535Y2378490D01*
Y2388488D02*
X1247870Y2378490D01*
X1256773Y2388488D02*
Y2378490D01*
Y2388488D02*
X1262962D01*
X1256773Y2383727D02*
X1260582D01*
X1270294Y2385155D02*
X1269818Y2383727D01*
X1268866Y2382775D01*
X1267437Y2382299D01*
X1266961D01*
X1265533Y2382775D01*
X1264581Y2383727D01*
X1264105Y2385155D01*
Y2385631D01*
X1264581Y2387060D01*
X1265533Y2388012D01*
X1266961Y2388488D01*
X1267437D01*
X1268866Y2388012D01*
X1269818Y2387060D01*
X1270294Y2385155D01*
Y2382775D01*
X1269818Y2380394D01*
X1268866Y2378966D01*
X1267437Y2378490D01*
X1266485D01*
X1265057Y2378966D01*
X1264581Y2379918D01*
X1120870Y2388488D02*
X1127535Y2378490D01*
Y2388488D02*
X1120870Y2378490D01*
X1129773Y2388488D02*
Y2378490D01*
Y2388488D02*
X1135962D01*
X1129773Y2383727D02*
X1133582D01*
X1139485Y2388488D02*
X1138057Y2388012D01*
X1137581Y2387060D01*
Y2386107D01*
X1138057Y2385155D01*
X1139009Y2384679D01*
X1140913Y2384203D01*
X1142342Y2383727D01*
X1143294Y2382775D01*
X1143770Y2381823D01*
Y2380394D01*
X1143294Y2379442D01*
X1142818Y2378966D01*
X1141389Y2378490D01*
X1139485D01*
X1138057Y2378966D01*
X1137581Y2379442D01*
X1137105Y2380394D01*
Y2381823D01*
X1137581Y2382775D01*
X1138533Y2383727D01*
X1139961Y2384203D01*
X1141865Y2384679D01*
X1142818Y2385155D01*
X1143294Y2386107D01*
Y2387060D01*
X1142818Y2388012D01*
X1141389Y2388488D01*
X1139485D01*
X993870D02*
X1000535Y2378490D01*
Y2388488D02*
X993870Y2378490D01*
X1002773Y2388488D02*
Y2378490D01*
Y2388488D02*
X1008962D01*
X1002773Y2383727D02*
X1006582D01*
X1016770Y2388488D02*
X1012009Y2378490D01*
X1010105Y2388488D02*
X1016770D01*
X866870D02*
X873535Y2378490D01*
Y2388488D02*
X866870Y2378490D01*
X875773Y2388488D02*
Y2378490D01*
Y2388488D02*
X881962D01*
X875773Y2383727D02*
X879582D01*
X888818Y2387060D02*
X888342Y2388012D01*
X886913Y2388488D01*
X885961D01*
X884533Y2388012D01*
X883581Y2386584D01*
X883105Y2384203D01*
Y2381823D01*
X883581Y2379918D01*
X884533Y2378966D01*
X885961Y2378490D01*
X886437D01*
X887866Y2378966D01*
X888818Y2379918D01*
X889294Y2381346D01*
Y2381823D01*
X888818Y2383251D01*
X887866Y2384203D01*
X886437Y2384679D01*
X885961D01*
X884533Y2384203D01*
X883581Y2383251D01*
X883105Y2381823D01*
X739870Y2388488D02*
X746535Y2378490D01*
Y2388488D02*
X739870Y2378490D01*
X748773Y2388488D02*
Y2378490D01*
Y2388488D02*
X754962D01*
X748773Y2383727D02*
X752582D01*
X761818Y2388488D02*
X757057D01*
X756581Y2384203D01*
X757057Y2384679D01*
X758485Y2385155D01*
X759913D01*
X761342Y2384679D01*
X762294Y2383727D01*
X762770Y2382299D01*
Y2381346D01*
X762294Y2379918D01*
X761342Y2378966D01*
X759913Y2378490D01*
X758485D01*
X757057Y2378966D01*
X756581Y2379442D01*
X756105Y2380394D01*
X612870Y2388488D02*
X619535Y2378490D01*
Y2388488D02*
X612870Y2378490D01*
X621773Y2388488D02*
Y2378490D01*
Y2388488D02*
X627962D01*
X621773Y2383727D02*
X625582D01*
X633866Y2388488D02*
X629105Y2381823D01*
X636246D01*
X633866Y2388488D02*
Y2378490D01*
X485870Y2388488D02*
X492535Y2378490D01*
Y2388488D02*
X485870Y2378490D01*
X494773Y2388488D02*
Y2378490D01*
Y2388488D02*
X500962D01*
X494773Y2383727D02*
X498582D01*
X503057Y2388488D02*
X508294D01*
X505437Y2384679D01*
X506866D01*
X507818Y2384203D01*
X508294Y2383727D01*
X508770Y2382299D01*
Y2381346D01*
X508294Y2379918D01*
X507342Y2378966D01*
X505913Y2378490D01*
X504485D01*
X503057Y2378966D01*
X502581Y2379442D01*
X502105Y2380394D01*
X358870Y2388488D02*
X365535Y2378490D01*
Y2388488D02*
X358870Y2378490D01*
X367773Y2388488D02*
Y2378490D01*
Y2388488D02*
X373962D01*
X367773Y2383727D02*
X371582D01*
X375581Y2386107D02*
Y2386584D01*
X376057Y2387536D01*
X376533Y2388012D01*
X377485Y2388488D01*
X379389D01*
X380342Y2388012D01*
X380818Y2387536D01*
X381294Y2386584D01*
Y2385631D01*
X380818Y2384679D01*
X379865Y2383251D01*
X375105Y2378490D01*
X381770D01*
X1323908Y1999829D02*
X1316290D01*
X1314862Y2000305D01*
X1314386Y2000781D01*
X1313910Y2001734D01*
Y2002686D01*
X1314386Y2003638D01*
X1314862Y2004114D01*
X1316290Y2004590D01*
X1317243D01*
X1320575Y1991069D02*
X1319147Y1991545D01*
X1318195Y1992497D01*
X1317719Y1993926D01*
Y1994402D01*
X1318195Y1995830D01*
X1319147Y1996782D01*
X1320575Y1997258D01*
X1321051D01*
X1322480Y1996782D01*
X1323432Y1995830D01*
X1323908Y1994402D01*
Y1993926D01*
X1323432Y1992497D01*
X1322480Y1991545D01*
X1320575Y1991069D01*
X1318195D01*
X1315814Y1991545D01*
X1314386Y1992497D01*
X1313910Y1993926D01*
Y1994878D01*
X1314386Y1996306D01*
X1315338Y1996782D01*
X1069908Y1999829D02*
X1062290D01*
X1060862Y2000305D01*
X1060386Y2000781D01*
X1059910Y2001734D01*
Y2002686D01*
X1060386Y2003638D01*
X1060862Y2004114D01*
X1062290Y2004590D01*
X1063243D01*
X1069908Y1990593D02*
X1059910Y1995354D01*
X1069908Y1997258D02*
Y1990593D01*
X815908Y1999829D02*
X808290D01*
X806862Y2000305D01*
X806386Y2000781D01*
X805910Y2001734D01*
Y2002686D01*
X806386Y2003638D01*
X806862Y2004114D01*
X808290Y2004590D01*
X809243D01*
X815908Y1991545D02*
Y1996306D01*
X811623Y1996782D01*
X812099Y1996306D01*
X812575Y1994878D01*
Y1993450D01*
X812099Y1992021D01*
X811147Y1991069D01*
X809719Y1990593D01*
X808766D01*
X807338Y1991069D01*
X806386Y1992021D01*
X805910Y1993450D01*
Y1994878D01*
X806386Y1996306D01*
X806862Y1996782D01*
X807814Y1997258D01*
X561908Y1999829D02*
X554290D01*
X552862Y2000305D01*
X552386Y2000781D01*
X551910Y2001734D01*
Y2002686D01*
X552386Y2003638D01*
X552862Y2004114D01*
X554290Y2004590D01*
X555243D01*
X561908Y1996306D02*
Y1991069D01*
X558099Y1993926D01*
Y1992497D01*
X557623Y1991545D01*
X557147Y1991069D01*
X555719Y1990593D01*
X554767D01*
X553338Y1991069D01*
X552386Y1992021D01*
X551910Y1993450D01*
Y1994878D01*
X552386Y1996306D01*
X552862Y1996782D01*
X553814Y1997258D01*
X1344390Y2348010D02*
X1354388D01*
X1344390D02*
Y2351343D01*
X1344866Y2352771D01*
X1345818Y2353723D01*
X1346770Y2354199D01*
X1348199Y2354675D01*
X1350579D01*
X1352007Y2354199D01*
X1352960Y2353723D01*
X1353912Y2352771D01*
X1354388Y2351343D01*
Y2348010D01*
X1346294Y2356913D02*
X1345818Y2357865D01*
X1344390Y2359293D01*
X1354388D01*
X1344390Y2367101D02*
X1344866Y2365673D01*
X1346294Y2364721D01*
X1348675Y2364245D01*
X1350103D01*
X1352484Y2364721D01*
X1353912Y2365673D01*
X1354388Y2367101D01*
Y2368053D01*
X1353912Y2369482D01*
X1352484Y2370434D01*
X1350103Y2370910D01*
X1348675D01*
X1346294Y2370434D01*
X1344866Y2369482D01*
X1344390Y2368053D01*
Y2367101D01*
X1217390Y2348010D02*
X1227388D01*
X1217390D02*
Y2351343D01*
X1217866Y2352771D01*
X1218818Y2353723D01*
X1219771Y2354199D01*
X1221199Y2354675D01*
X1223579D01*
X1225007Y2354199D01*
X1225960Y2353723D01*
X1226912Y2352771D01*
X1227388Y2351343D01*
Y2348010D01*
X1220723Y2363102D02*
X1222151Y2362626D01*
X1223103Y2361674D01*
X1223579Y2360246D01*
Y2359769D01*
X1223103Y2358341D01*
X1222151Y2357389D01*
X1220723Y2356913D01*
X1220247D01*
X1218818Y2357389D01*
X1217866Y2358341D01*
X1217390Y2359769D01*
Y2360246D01*
X1217866Y2361674D01*
X1218818Y2362626D01*
X1220723Y2363102D01*
X1223103D01*
X1225483Y2362626D01*
X1226912Y2361674D01*
X1227388Y2360246D01*
Y2359293D01*
X1226912Y2357865D01*
X1225960Y2357389D01*
X1090390Y2348010D02*
X1100388D01*
X1090390D02*
Y2351343D01*
X1090866Y2352771D01*
X1091818Y2353723D01*
X1092770Y2354199D01*
X1094199Y2354675D01*
X1096579D01*
X1098007Y2354199D01*
X1098960Y2353723D01*
X1099912Y2352771D01*
X1100388Y2351343D01*
Y2348010D01*
X1090390Y2359293D02*
X1090866Y2357865D01*
X1091818Y2357389D01*
X1092770D01*
X1093723Y2357865D01*
X1094199Y2358817D01*
X1094675Y2360722D01*
X1095151Y2362150D01*
X1096103Y2363102D01*
X1097055Y2363578D01*
X1098484D01*
X1099436Y2363102D01*
X1099912Y2362626D01*
X1100388Y2361198D01*
Y2359293D01*
X1099912Y2357865D01*
X1099436Y2357389D01*
X1098484Y2356913D01*
X1097055D01*
X1096103Y2357389D01*
X1095151Y2358341D01*
X1094675Y2359769D01*
X1094199Y2361674D01*
X1093723Y2362626D01*
X1092770Y2363102D01*
X1091818D01*
X1090866Y2362626D01*
X1090390Y2361198D01*
Y2359293D01*
X963390Y2348010D02*
X973388D01*
X963390D02*
Y2351343D01*
X963866Y2352771D01*
X964818Y2353723D01*
X965770Y2354199D01*
X967199Y2354675D01*
X969579D01*
X971007Y2354199D01*
X971960Y2353723D01*
X972912Y2352771D01*
X973388Y2351343D01*
Y2348010D01*
X963390Y2363578D02*
X973388Y2358817D01*
X963390Y2356913D02*
Y2363578D01*
X836390Y2348010D02*
X846388D01*
X836390D02*
Y2351343D01*
X836866Y2352771D01*
X837818Y2353723D01*
X838771Y2354199D01*
X840199Y2354675D01*
X842579D01*
X844007Y2354199D01*
X844960Y2353723D01*
X845912Y2352771D01*
X846388Y2351343D01*
Y2348010D01*
X837818Y2362626D02*
X836866Y2362150D01*
X836390Y2360722D01*
Y2359769D01*
X836866Y2358341D01*
X838294Y2357389D01*
X840675Y2356913D01*
X843055D01*
X844960Y2357389D01*
X845912Y2358341D01*
X846388Y2359769D01*
Y2360246D01*
X845912Y2361674D01*
X844960Y2362626D01*
X843531Y2363102D01*
X843055D01*
X841627Y2362626D01*
X840675Y2361674D01*
X840199Y2360246D01*
Y2359769D01*
X840675Y2358341D01*
X841627Y2357389D01*
X843055Y2356913D01*
X709390Y2348010D02*
X719388D01*
X709390D02*
Y2351343D01*
X709866Y2352771D01*
X710818Y2353723D01*
X711770Y2354199D01*
X713199Y2354675D01*
X715579D01*
X717007Y2354199D01*
X717960Y2353723D01*
X718912Y2352771D01*
X719388Y2351343D01*
Y2348010D01*
X709390Y2362626D02*
Y2357865D01*
X713675Y2357389D01*
X713199Y2357865D01*
X712723Y2359293D01*
Y2360722D01*
X713199Y2362150D01*
X714151Y2363102D01*
X715579Y2363578D01*
X716531D01*
X717960Y2363102D01*
X718912Y2362150D01*
X719388Y2360722D01*
Y2359293D01*
X718912Y2357865D01*
X718436Y2357389D01*
X717484Y2356913D01*
X455390Y2348010D02*
X465388D01*
X455390D02*
Y2351343D01*
X455866Y2352771D01*
X456818Y2353723D01*
X457771Y2354199D01*
X459199Y2354675D01*
X461579D01*
X463007Y2354199D01*
X463960Y2353723D01*
X464912Y2352771D01*
X465388Y2351343D01*
Y2348010D01*
X455390Y2357865D02*
Y2363102D01*
X459199Y2360246D01*
Y2361674D01*
X459675Y2362626D01*
X460151Y2363102D01*
X461579Y2363578D01*
X462531D01*
X463960Y2363102D01*
X464912Y2362150D01*
X465388Y2360722D01*
Y2359293D01*
X464912Y2357865D01*
X464436Y2357389D01*
X463484Y2356913D01*
X1911610Y201670D02*
Y194529D01*
X1912086Y193100D01*
X1913038Y192148D01*
X1914467Y191672D01*
X1915419D01*
X1916847Y192148D01*
X1917799Y193100D01*
X1918275Y194529D01*
Y201670D01*
X1921037Y199766D02*
X1921989Y200242D01*
X1923417Y201670D01*
Y191672D01*
X1931225Y201670D02*
X1929797Y201194D01*
X1928844Y199766D01*
X1928368Y197385D01*
Y195957D01*
X1928844Y193577D01*
X1929797Y192148D01*
X1931225Y191672D01*
X1932177D01*
X1933605Y192148D01*
X1934557Y193577D01*
X1935034Y195957D01*
Y197385D01*
X1934557Y199766D01*
X1933605Y201194D01*
X1932177Y201670D01*
X1931225D01*
X1911610Y328670D02*
Y321529D01*
X1912086Y320100D01*
X1913038Y319148D01*
X1914467Y318672D01*
X1915419D01*
X1916847Y319148D01*
X1917799Y320100D01*
X1918275Y321529D01*
Y328670D01*
X1927226Y325337D02*
X1926750Y323909D01*
X1925797Y322957D01*
X1924369Y322481D01*
X1923893D01*
X1922465Y322957D01*
X1921513Y323909D01*
X1921037Y325337D01*
Y325813D01*
X1921513Y327242D01*
X1922465Y328194D01*
X1923893Y328670D01*
X1924369D01*
X1925797Y328194D01*
X1926750Y327242D01*
X1927226Y325337D01*
Y322957D01*
X1926750Y320577D01*
X1925797Y319148D01*
X1924369Y318672D01*
X1923417D01*
X1921989Y319148D01*
X1921513Y320100D01*
X1911610Y455670D02*
Y448529D01*
X1912086Y447100D01*
X1913038Y446148D01*
X1914467Y445672D01*
X1915419D01*
X1916847Y446148D01*
X1917799Y447100D01*
X1918275Y448529D01*
Y455670D01*
X1923417D02*
X1921989Y455194D01*
X1921513Y454242D01*
Y453289D01*
X1921989Y452337D01*
X1922941Y451861D01*
X1924845Y451385D01*
X1926273Y450909D01*
X1927226Y449957D01*
X1927702Y449005D01*
Y447576D01*
X1927226Y446624D01*
X1926750Y446148D01*
X1925321Y445672D01*
X1923417D01*
X1921989Y446148D01*
X1921513Y446624D01*
X1921037Y447576D01*
Y449005D01*
X1921513Y449957D01*
X1922465Y450909D01*
X1923893Y451385D01*
X1925797Y451861D01*
X1926750Y452337D01*
X1927226Y453289D01*
Y454242D01*
X1926750Y455194D01*
X1925321Y455670D01*
X1923417D01*
X1911610Y582670D02*
Y575529D01*
X1912086Y574100D01*
X1913038Y573148D01*
X1914467Y572672D01*
X1915419D01*
X1916847Y573148D01*
X1917799Y574100D01*
X1918275Y575529D01*
Y582670D01*
X1927702D02*
X1922941Y572672D01*
X1921037Y582670D02*
X1927702D01*
X1911610Y709670D02*
Y702529D01*
X1912086Y701100D01*
X1913038Y700148D01*
X1914467Y699672D01*
X1915419D01*
X1916847Y700148D01*
X1917799Y701100D01*
X1918275Y702529D01*
Y709670D01*
X1926750Y708242D02*
X1926273Y709194D01*
X1924845Y709670D01*
X1923893D01*
X1922465Y709194D01*
X1921513Y707766D01*
X1921037Y705385D01*
Y703005D01*
X1921513Y701100D01*
X1922465Y700148D01*
X1923893Y699672D01*
X1924369D01*
X1925797Y700148D01*
X1926750Y701100D01*
X1927226Y702529D01*
Y703005D01*
X1926750Y704433D01*
X1925797Y705385D01*
X1924369Y705861D01*
X1923893D01*
X1922465Y705385D01*
X1921513Y704433D01*
X1921037Y703005D01*
X1911610Y836670D02*
Y829529D01*
X1912086Y828100D01*
X1913038Y827148D01*
X1914467Y826672D01*
X1915419D01*
X1916847Y827148D01*
X1917799Y828100D01*
X1918275Y829529D01*
Y836670D01*
X1926750D02*
X1921989D01*
X1921513Y832385D01*
X1921989Y832861D01*
X1923417Y833337D01*
X1924845D01*
X1926273Y832861D01*
X1927226Y831909D01*
X1927702Y830481D01*
Y829529D01*
X1927226Y828100D01*
X1926273Y827148D01*
X1924845Y826672D01*
X1923417D01*
X1921989Y827148D01*
X1921513Y827624D01*
X1921037Y828577D01*
X1911610Y963670D02*
Y956529D01*
X1912086Y955100D01*
X1913038Y954148D01*
X1914467Y953672D01*
X1915419D01*
X1916847Y954148D01*
X1917799Y955100D01*
X1918275Y956529D01*
Y963670D01*
X1925797D02*
X1921037Y957005D01*
X1928178D01*
X1925797Y963670D02*
Y953672D01*
X1911610Y1090670D02*
Y1083529D01*
X1912086Y1082100D01*
X1913038Y1081148D01*
X1914467Y1080672D01*
X1915419D01*
X1916847Y1081148D01*
X1917799Y1082100D01*
X1918275Y1083529D01*
Y1090670D01*
X1921989D02*
X1927226D01*
X1924369Y1086861D01*
X1925797D01*
X1926750Y1086385D01*
X1927226Y1085909D01*
X1927702Y1084481D01*
Y1083529D01*
X1927226Y1082100D01*
X1926273Y1081148D01*
X1924845Y1080672D01*
X1923417D01*
X1921989Y1081148D01*
X1921513Y1081624D01*
X1921037Y1082577D01*
X1911610Y1217670D02*
Y1210529D01*
X1912086Y1209100D01*
X1913038Y1208148D01*
X1914467Y1207672D01*
X1915419D01*
X1916847Y1208148D01*
X1917799Y1209100D01*
X1918275Y1210529D01*
Y1217670D01*
X1921513Y1215290D02*
Y1215766D01*
X1921989Y1216718D01*
X1922465Y1217194D01*
X1923417Y1217670D01*
X1925321D01*
X1926273Y1217194D01*
X1926750Y1216718D01*
X1927226Y1215766D01*
Y1214814D01*
X1926750Y1213861D01*
X1925797Y1212433D01*
X1921037Y1207672D01*
X1927702D01*
X1911610Y1357728D02*
Y1350587D01*
X1912086Y1349158D01*
X1913038Y1348206D01*
X1914467Y1347730D01*
X1915419D01*
X1916847Y1348206D01*
X1917799Y1349158D01*
X1918275Y1350587D01*
Y1357728D01*
X1921037Y1355824D02*
X1921989Y1356300D01*
X1923417Y1357728D01*
Y1347730D01*
X1967490Y1220210D02*
Y1210212D01*
Y1220210D02*
X1970823D01*
X1972251Y1219734D01*
X1973203Y1218782D01*
X1973679Y1217830D01*
X1974155Y1216401D01*
Y1214021D01*
X1973679Y1212593D01*
X1973203Y1211640D01*
X1972251Y1210688D01*
X1970823Y1210212D01*
X1967490D01*
X1976869Y1217830D02*
Y1218306D01*
X1977345Y1219258D01*
X1977821Y1219734D01*
X1978773Y1220210D01*
X1980678D01*
X1981630Y1219734D01*
X1982106Y1219258D01*
X1982582Y1218306D01*
Y1217354D01*
X1982106Y1216401D01*
X1981154Y1214973D01*
X1976393Y1210212D01*
X1983058D01*
X1967490Y1355188D02*
Y1345190D01*
Y1355188D02*
X1970823D01*
X1972251Y1354712D01*
X1973203Y1353760D01*
X1973679Y1352807D01*
X1974155Y1351379D01*
Y1348999D01*
X1973679Y1347570D01*
X1973203Y1346618D01*
X1972251Y1345666D01*
X1970823Y1345190D01*
X1967490D01*
X1976393Y1353284D02*
X1977345Y1353760D01*
X1978773Y1355188D01*
Y1345190D01*
X2007968Y1316730D02*
X1997970Y1310065D01*
X2007968D02*
X1997970Y1316730D01*
X2007968Y1307827D02*
X1997970D01*
X2007968D02*
Y1301638D01*
X2003207Y1307827D02*
Y1304018D01*
X2006064Y1300495D02*
X2006540Y1299543D01*
X2007968Y1298115D01*
X1997970D01*
X1619309Y859692D02*
Y867310D01*
X1619785Y868738D01*
X1620261Y869214D01*
X1621214Y869690D01*
X1622166D01*
X1623118Y869214D01*
X1623594Y868738D01*
X1624070Y867310D01*
Y866357D01*
X1611977Y859692D02*
X1616738Y866357D01*
X1609597D01*
X1611977Y859692D02*
Y869690D01*
X1967490Y966210D02*
Y956212D01*
Y966210D02*
X1970823D01*
X1972251Y965734D01*
X1973203Y964782D01*
X1973679Y963829D01*
X1974155Y962401D01*
Y960021D01*
X1973679Y958593D01*
X1973203Y957640D01*
X1972251Y956688D01*
X1970823Y956212D01*
X1967490D01*
X1981154Y966210D02*
X1976393Y959545D01*
X1983534D01*
X1981154Y966210D02*
Y956212D01*
X1619309Y351692D02*
Y359310D01*
X1619785Y360738D01*
X1620261Y361214D01*
X1621214Y361690D01*
X1622166D01*
X1623118Y361214D01*
X1623594Y360738D01*
X1624070Y359310D01*
Y358357D01*
X1614358Y351692D02*
X1615786Y352168D01*
X1616262Y353120D01*
Y354073D01*
X1615786Y355025D01*
X1614834Y355501D01*
X1612930Y355977D01*
X1611501Y356453D01*
X1610549Y357405D01*
X1610073Y358357D01*
Y359786D01*
X1610549Y360738D01*
X1611025Y361214D01*
X1612453Y361690D01*
X1614358D01*
X1615786Y361214D01*
X1616262Y360738D01*
X1616738Y359786D01*
Y358357D01*
X1616262Y357405D01*
X1615310Y356453D01*
X1613882Y355977D01*
X1611977Y355501D01*
X1611025Y355025D01*
X1610549Y354073D01*
Y353120D01*
X1611025Y352168D01*
X1612453Y351692D01*
X1614358D01*
X1619309Y605692D02*
Y613310D01*
X1619785Y614738D01*
X1620261Y615214D01*
X1621214Y615690D01*
X1622166D01*
X1623118Y615214D01*
X1623594Y614738D01*
X1624070Y613310D01*
Y612357D01*
X1611025Y607120D02*
X1611501Y606168D01*
X1612930Y605692D01*
X1613882D01*
X1615310Y606168D01*
X1616262Y607597D01*
X1616738Y609977D01*
Y612357D01*
X1616262Y614262D01*
X1615310Y615214D01*
X1613882Y615690D01*
X1613406D01*
X1611977Y615214D01*
X1611025Y614262D01*
X1610549Y612834D01*
Y612357D01*
X1611025Y610929D01*
X1611977Y609977D01*
X1613406Y609501D01*
X1613882D01*
X1615310Y609977D01*
X1616262Y610929D01*
X1616738Y612357D01*
X1703129Y1225452D02*
Y1233070D01*
X1703605Y1234498D01*
X1704081Y1234974D01*
X1705034Y1235450D01*
X1705986D01*
X1706938Y1234974D01*
X1707414Y1234498D01*
X1707890Y1233070D01*
Y1232117D01*
X1700558Y1227356D02*
X1699606Y1226880D01*
X1698178Y1225452D01*
Y1235450D01*
X1619309Y1113692D02*
Y1121310D01*
X1619785Y1122738D01*
X1620261Y1123214D01*
X1621214Y1123690D01*
X1622166D01*
X1623118Y1123214D01*
X1623594Y1122738D01*
X1624070Y1121310D01*
Y1120357D01*
X1616262Y1116073D02*
Y1115596D01*
X1615786Y1114644D01*
X1615310Y1114168D01*
X1614358Y1113692D01*
X1612453D01*
X1611501Y1114168D01*
X1611025Y1114644D01*
X1610549Y1115596D01*
Y1116549D01*
X1611025Y1117501D01*
X1611977Y1118929D01*
X1616738Y1123690D01*
X1610073D01*
X2007968Y300730D02*
X1997970Y294065D01*
X2007968D02*
X1997970Y300730D01*
X2007968Y291827D02*
X1997970D01*
X2007968D02*
Y285638D01*
X2003207Y291827D02*
Y288018D01*
X2004635Y278306D02*
X2003207Y278782D01*
X2002255Y279734D01*
X2001779Y281163D01*
Y281639D01*
X2002255Y283067D01*
X2003207Y284019D01*
X2004635Y284495D01*
X2005111D01*
X2006540Y284019D01*
X2007492Y283067D01*
X2007968Y281639D01*
Y281163D01*
X2007492Y279734D01*
X2006540Y278782D01*
X2004635Y278306D01*
X2002255D01*
X1999874Y278782D01*
X1998446Y279734D01*
X1997970Y281163D01*
Y282115D01*
X1998446Y283543D01*
X1999398Y284019D01*
X2007968Y427730D02*
X1997970Y421065D01*
X2007968D02*
X1997970Y427730D01*
X2007968Y418827D02*
X1997970D01*
X2007968D02*
Y412638D01*
X2003207Y418827D02*
Y415018D01*
X2007968Y409115D02*
X2007492Y410543D01*
X2006540Y411019D01*
X2005587D01*
X2004635Y410543D01*
X2004159Y409591D01*
X2003683Y407687D01*
X2003207Y406258D01*
X2002255Y405306D01*
X2001303Y404830D01*
X1999874D01*
X1998922Y405306D01*
X1998446Y405782D01*
X1997970Y407211D01*
Y409115D01*
X1998446Y410543D01*
X1998922Y411019D01*
X1999874Y411495D01*
X2001303D01*
X2002255Y411019D01*
X2003207Y410067D01*
X2003683Y408639D01*
X2004159Y406735D01*
X2004635Y405782D01*
X2005587Y405306D01*
X2006540D01*
X2007492Y405782D01*
X2007968Y407211D01*
Y409115D01*
Y554730D02*
X1997970Y548065D01*
X2007968D02*
X1997970Y554730D01*
X2007968Y545827D02*
X1997970D01*
X2007968D02*
Y539638D01*
X2003207Y545827D02*
Y542018D01*
X2007968Y531830D02*
X1997970Y536591D01*
X2007968Y538495D02*
Y531830D01*
Y681730D02*
X1997970Y675065D01*
X2007968D02*
X1997970Y681730D01*
X2007968Y672827D02*
X1997970D01*
X2007968D02*
Y666638D01*
X2003207Y672827D02*
Y669018D01*
X2006540Y659782D02*
X2007492Y660258D01*
X2007968Y661687D01*
Y662639D01*
X2007492Y664067D01*
X2006064Y665019D01*
X2003683Y665495D01*
X2001303D01*
X1999398Y665019D01*
X1998446Y664067D01*
X1997970Y662639D01*
Y662163D01*
X1998446Y660734D01*
X1999398Y659782D01*
X2000827Y659306D01*
X2001303D01*
X2002731Y659782D01*
X2003683Y660734D01*
X2004159Y662163D01*
Y662639D01*
X2003683Y664067D01*
X2002731Y665019D01*
X2001303Y665495D01*
X2007968Y808730D02*
X1997970Y802065D01*
X2007968D02*
X1997970Y808730D01*
X2007968Y799827D02*
X1997970D01*
X2007968D02*
Y793638D01*
X2003207Y799827D02*
Y796018D01*
X2007968Y786782D02*
Y791543D01*
X2003683Y792019D01*
X2004159Y791543D01*
X2004635Y790115D01*
Y788687D01*
X2004159Y787258D01*
X2003207Y786306D01*
X2001779Y785830D01*
X2000827D01*
X1999398Y786306D01*
X1998446Y787258D01*
X1997970Y788687D01*
Y790115D01*
X1998446Y791543D01*
X1998922Y792019D01*
X1999874Y792495D01*
X2007968Y935730D02*
X1997970Y929065D01*
X2007968D02*
X1997970Y935730D01*
X2007968Y926827D02*
X1997970D01*
X2007968D02*
Y920638D01*
X2003207Y926827D02*
Y923018D01*
X2007968Y914734D02*
X2001303Y919495D01*
Y912354D01*
X2007968Y914734D02*
X1997970D01*
X2007968Y1062730D02*
X1997970Y1056065D01*
X2007968D02*
X1997970Y1062730D01*
X2007968Y1053827D02*
X1997970D01*
X2007968D02*
Y1047638D01*
X2003207Y1053827D02*
Y1050018D01*
X2007968Y1045543D02*
Y1040306D01*
X2004159Y1043163D01*
Y1041734D01*
X2003683Y1040782D01*
X2003207Y1040306D01*
X2001779Y1039830D01*
X2000827D01*
X1999398Y1040306D01*
X1998446Y1041258D01*
X1997970Y1042687D01*
Y1044115D01*
X1998446Y1045543D01*
X1998922Y1046019D01*
X1999874Y1046495D01*
X2007968Y1189730D02*
X1997970Y1183065D01*
X2007968D02*
X1997970Y1189730D01*
X2007968Y1180827D02*
X1997970D01*
X2007968D02*
Y1174638D01*
X2003207Y1180827D02*
Y1177018D01*
X2005587Y1173019D02*
X2006064D01*
X2007016Y1172543D01*
X2007492Y1172067D01*
X2007968Y1171115D01*
Y1169211D01*
X2007492Y1168258D01*
X2007016Y1167782D01*
X2006064Y1167306D01*
X2005111D01*
X2004159Y1167782D01*
X2002731Y1168735D01*
X1997970Y1173495D01*
Y1166830D01*
X1619309Y224692D02*
Y232310D01*
X1619785Y233738D01*
X1620261Y234214D01*
X1621214Y234690D01*
X1622166D01*
X1623118Y234214D01*
X1623594Y233738D01*
X1624070Y232310D01*
Y231357D01*
X1610549Y228025D02*
X1611025Y229453D01*
X1611977Y230405D01*
X1613406Y230881D01*
X1613882D01*
X1615310Y230405D01*
X1616262Y229453D01*
X1616738Y228025D01*
Y227549D01*
X1616262Y226120D01*
X1615310Y225168D01*
X1613882Y224692D01*
X1613406D01*
X1611977Y225168D01*
X1611025Y226120D01*
X1610549Y228025D01*
Y230405D01*
X1611025Y232786D01*
X1611977Y234214D01*
X1613406Y234690D01*
X1614358D01*
X1615786Y234214D01*
X1616262Y233262D01*
X1619309Y478692D02*
Y486310D01*
X1619785Y487738D01*
X1620261Y488214D01*
X1621214Y488690D01*
X1622166D01*
X1623118Y488214D01*
X1623594Y487738D01*
X1624070Y486310D01*
Y485357D01*
X1610073Y478692D02*
X1614834Y488690D01*
X1616738Y478692D02*
X1610073D01*
X1619309Y732692D02*
Y740310D01*
X1619785Y741738D01*
X1620261Y742214D01*
X1621214Y742690D01*
X1622166D01*
X1623118Y742214D01*
X1623594Y741738D01*
X1624070Y740310D01*
Y739357D01*
X1611025Y732692D02*
X1615786D01*
X1616262Y736977D01*
X1615786Y736501D01*
X1614358Y736025D01*
X1612930D01*
X1611501Y736501D01*
X1610549Y737453D01*
X1610073Y738881D01*
Y739834D01*
X1610549Y741262D01*
X1611501Y742214D01*
X1612930Y742690D01*
X1614358D01*
X1615786Y742214D01*
X1616262Y741738D01*
X1616738Y740786D01*
X1619309Y986692D02*
Y994310D01*
X1619785Y995738D01*
X1620261Y996214D01*
X1621214Y996690D01*
X1622166D01*
X1623118Y996214D01*
X1623594Y995738D01*
X1624070Y994310D01*
Y993357D01*
X1615786Y986692D02*
X1610549D01*
X1613406Y990501D01*
X1611977D01*
X1611025Y990977D01*
X1610549Y991453D01*
X1610073Y992881D01*
Y993833D01*
X1610549Y995262D01*
X1611501Y996214D01*
X1612930Y996690D01*
X1614358D01*
X1615786Y996214D01*
X1616262Y995738D01*
X1616738Y994786D01*
X1967490Y204210D02*
Y194212D01*
Y204210D02*
X1970823D01*
X1972251Y203734D01*
X1973203Y202782D01*
X1973679Y201829D01*
X1974155Y200401D01*
Y198021D01*
X1973679Y196593D01*
X1973203Y195640D01*
X1972251Y194688D01*
X1970823Y194212D01*
X1967490D01*
X1976393Y202306D02*
X1977345Y202782D01*
X1978773Y204210D01*
Y194212D01*
X1986581Y204210D02*
X1985153Y203734D01*
X1984201Y202306D01*
X1983725Y199925D01*
Y198497D01*
X1984201Y196117D01*
X1985153Y194688D01*
X1986581Y194212D01*
X1987533D01*
X1988962Y194688D01*
X1989914Y196117D01*
X1990390Y198497D01*
Y199925D01*
X1989914Y202306D01*
X1988962Y203734D01*
X1987533Y204210D01*
X1986581D01*
X1967490Y331210D02*
Y321212D01*
Y331210D02*
X1970823D01*
X1972251Y330734D01*
X1973203Y329782D01*
X1973679Y328829D01*
X1974155Y327401D01*
Y325021D01*
X1973679Y323593D01*
X1973203Y322640D01*
X1972251Y321688D01*
X1970823Y321212D01*
X1967490D01*
X1982582Y327877D02*
X1982106Y326449D01*
X1981154Y325497D01*
X1979725Y325021D01*
X1979249D01*
X1977821Y325497D01*
X1976869Y326449D01*
X1976393Y327877D01*
Y328354D01*
X1976869Y329782D01*
X1977821Y330734D01*
X1979249Y331210D01*
X1979725D01*
X1981154Y330734D01*
X1982106Y329782D01*
X1982582Y327877D01*
Y325497D01*
X1982106Y323116D01*
X1981154Y321688D01*
X1979725Y321212D01*
X1978773D01*
X1977345Y321688D01*
X1976869Y322640D01*
X1967490Y458210D02*
Y448212D01*
Y458210D02*
X1970823D01*
X1972251Y457734D01*
X1973203Y456782D01*
X1973679Y455830D01*
X1974155Y454401D01*
Y452021D01*
X1973679Y450593D01*
X1973203Y449640D01*
X1972251Y448688D01*
X1970823Y448212D01*
X1967490D01*
X1978773Y458210D02*
X1977345Y457734D01*
X1976869Y456782D01*
Y455830D01*
X1977345Y454877D01*
X1978297Y454401D01*
X1980202Y453925D01*
X1981630Y453449D01*
X1982582Y452497D01*
X1983058Y451545D01*
Y450117D01*
X1982582Y449164D01*
X1982106Y448688D01*
X1980678Y448212D01*
X1978773D01*
X1977345Y448688D01*
X1976869Y449164D01*
X1976393Y450117D01*
Y451545D01*
X1976869Y452497D01*
X1977821Y453449D01*
X1979249Y453925D01*
X1981154Y454401D01*
X1982106Y454877D01*
X1982582Y455830D01*
Y456782D01*
X1982106Y457734D01*
X1980678Y458210D01*
X1978773D01*
X1967490Y585210D02*
Y575212D01*
Y585210D02*
X1970823D01*
X1972251Y584734D01*
X1973203Y583782D01*
X1973679Y582830D01*
X1974155Y581401D01*
Y579021D01*
X1973679Y577593D01*
X1973203Y576640D01*
X1972251Y575688D01*
X1970823Y575212D01*
X1967490D01*
X1983058Y585210D02*
X1978297Y575212D01*
X1976393Y585210D02*
X1983058D01*
X1967490Y712210D02*
Y702212D01*
Y712210D02*
X1970823D01*
X1972251Y711734D01*
X1973203Y710782D01*
X1973679Y709829D01*
X1974155Y708401D01*
Y706021D01*
X1973679Y704593D01*
X1973203Y703640D01*
X1972251Y702688D01*
X1970823Y702212D01*
X1967490D01*
X1982106Y710782D02*
X1981630Y711734D01*
X1980202Y712210D01*
X1979249D01*
X1977821Y711734D01*
X1976869Y710306D01*
X1976393Y707925D01*
Y705545D01*
X1976869Y703640D01*
X1977821Y702688D01*
X1979249Y702212D01*
X1979725D01*
X1981154Y702688D01*
X1982106Y703640D01*
X1982582Y705069D01*
Y705545D01*
X1982106Y706973D01*
X1981154Y707925D01*
X1979725Y708401D01*
X1979249D01*
X1977821Y707925D01*
X1976869Y706973D01*
X1976393Y705545D01*
X1967490Y839210D02*
Y829212D01*
Y839210D02*
X1970823D01*
X1972251Y838734D01*
X1973203Y837782D01*
X1973679Y836830D01*
X1974155Y835401D01*
Y833021D01*
X1973679Y831593D01*
X1973203Y830640D01*
X1972251Y829688D01*
X1970823Y829212D01*
X1967490D01*
X1982106Y839210D02*
X1977345D01*
X1976869Y834925D01*
X1977345Y835401D01*
X1978773Y835877D01*
X1980202D01*
X1981630Y835401D01*
X1982582Y834449D01*
X1983058Y833021D01*
Y832069D01*
X1982582Y830640D01*
X1981630Y829688D01*
X1980202Y829212D01*
X1978773D01*
X1977345Y829688D01*
X1976869Y830164D01*
X1976393Y831116D01*
X1967490Y1093210D02*
Y1083212D01*
Y1093210D02*
X1970823D01*
X1972251Y1092734D01*
X1973203Y1091782D01*
X1973679Y1090829D01*
X1974155Y1089401D01*
Y1087021D01*
X1973679Y1085593D01*
X1973203Y1084640D01*
X1972251Y1083688D01*
X1970823Y1083212D01*
X1967490D01*
X1977345Y1093210D02*
X1982582D01*
X1979725Y1089401D01*
X1981154D01*
X1982106Y1088925D01*
X1982582Y1088449D01*
X1983058Y1087021D01*
Y1086069D01*
X1982582Y1084640D01*
X1981630Y1083688D01*
X1980202Y1083212D01*
X1978773D01*
X1977345Y1083688D01*
X1976869Y1084164D01*
X1976393Y1085117D01*
M02*
