G04*
G04 #@! TF.GenerationSoftware,Altium Limited,Altium Designer,22.0.2 (36)*
G04*
G04 Layer_Color=16711935*
%FSLAX44Y44*%
%MOMM*%
G71*
G04*
G04 #@! TF.SameCoordinates,3D356D52-1F4F-4DC4-934F-51404F246838*
G04*
G04*
G04 #@! TF.FilePolarity,Negative*
G04*
G01*
G75*
%ADD39C,5.2032*%
%ADD40C,0.7112*%
%ADD41R,3.2032X3.2032*%
%ADD42C,3.2032*%
%ADD43O,1.7032X3.2032*%
%ADD44C,2.6032*%
%ADD45C,7.2032*%
%ADD46R,7.2032X7.2032*%
%ADD47C,6.2032*%
%ADD48R,3.2032X3.2032*%
%ADD49O,3.2032X1.7032*%
%ADD50R,7.2032X7.2032*%
D39*
X38100Y2463800D02*
D03*
X2095500Y38100D02*
D03*
Y2463800D02*
D03*
X38100Y38100D02*
D03*
D40*
X99060Y2484120D02*
D03*
Y2476500D02*
D03*
Y2468880D02*
D03*
Y2461260D02*
D03*
Y2453640D02*
D03*
X60960Y2415540D02*
D03*
X53340D02*
D03*
X45720D02*
D03*
X38100D02*
D03*
X30480D02*
D03*
X22860D02*
D03*
X15240D02*
D03*
X1450340Y2453640D02*
D03*
Y2461260D02*
D03*
Y2468880D02*
D03*
Y2476500D02*
D03*
Y2484120D02*
D03*
X1026160Y2415540D02*
D03*
X1018540D02*
D03*
X1010920D02*
D03*
X1003300D02*
D03*
X995680D02*
D03*
X988060D02*
D03*
X980440D02*
D03*
X510540D02*
D03*
X518160D02*
D03*
X525780D02*
D03*
X533400D02*
D03*
X541020D02*
D03*
X548640D02*
D03*
X556260D02*
D03*
X2118360Y1450340D02*
D03*
X2110740D02*
D03*
X2103120D02*
D03*
X2095500D02*
D03*
X2087880D02*
D03*
X2080260D02*
D03*
X2072640D02*
D03*
X2118360Y99060D02*
D03*
X2110740D02*
D03*
X2103120D02*
D03*
X2095500D02*
D03*
X2087880D02*
D03*
X2080260D02*
D03*
X2072640D02*
D03*
X1729740Y1450340D02*
D03*
X1737360D02*
D03*
X1744980D02*
D03*
X1752600D02*
D03*
X1760220D02*
D03*
X1767840D02*
D03*
X1775460D02*
D03*
X1729740Y1470660D02*
D03*
X1737360D02*
D03*
X1744980D02*
D03*
X1752600D02*
D03*
X1760220D02*
D03*
X1767840D02*
D03*
X1775460D02*
D03*
X2034540Y60960D02*
D03*
Y53340D02*
D03*
Y45720D02*
D03*
Y38100D02*
D03*
Y30480D02*
D03*
Y22860D02*
D03*
Y15240D02*
D03*
X99060Y2110740D02*
D03*
Y2141220D02*
D03*
Y2133600D02*
D03*
Y2125980D02*
D03*
Y2156460D02*
D03*
Y2148840D02*
D03*
Y2118360D02*
D03*
X1450340Y2156460D02*
D03*
Y2148840D02*
D03*
Y2141220D02*
D03*
Y2133600D02*
D03*
Y2125980D02*
D03*
Y2118360D02*
D03*
Y2110740D02*
D03*
Y1572260D02*
D03*
Y1564640D02*
D03*
Y1557020D02*
D03*
Y1549400D02*
D03*
Y1541780D02*
D03*
Y1534160D02*
D03*
Y1526540D02*
D03*
X1470660Y942340D02*
D03*
Y949960D02*
D03*
Y957580D02*
D03*
Y965200D02*
D03*
Y972820D02*
D03*
Y980440D02*
D03*
Y988060D02*
D03*
X1450340Y942340D02*
D03*
Y949960D02*
D03*
Y957580D02*
D03*
Y965200D02*
D03*
Y972820D02*
D03*
Y980440D02*
D03*
Y988060D02*
D03*
X556260Y1851660D02*
D03*
X548640D02*
D03*
X541020D02*
D03*
X533400D02*
D03*
X525780D02*
D03*
X518160D02*
D03*
X510540D02*
D03*
X556260Y1831340D02*
D03*
X548640D02*
D03*
X541020D02*
D03*
X533400D02*
D03*
X525780D02*
D03*
X518160D02*
D03*
X510540D02*
D03*
X980440D02*
D03*
X988060D02*
D03*
X995680D02*
D03*
X1003300D02*
D03*
X1010920D02*
D03*
X1018540D02*
D03*
X1026160D02*
D03*
X980440Y1851660D02*
D03*
X988060D02*
D03*
X995680D02*
D03*
X1003300D02*
D03*
X1010920D02*
D03*
X1018540D02*
D03*
X1026160D02*
D03*
X556260Y1267460D02*
D03*
X548640D02*
D03*
X541020D02*
D03*
X533400D02*
D03*
X525780D02*
D03*
X518160D02*
D03*
X510540D02*
D03*
X556260Y1247140D02*
D03*
X548640D02*
D03*
X541020D02*
D03*
X533400D02*
D03*
X525780D02*
D03*
X518160D02*
D03*
X510540D02*
D03*
X980440D02*
D03*
X988060D02*
D03*
X995680D02*
D03*
X1003300D02*
D03*
X1010920D02*
D03*
X1018540D02*
D03*
X1026160D02*
D03*
X980440Y1267460D02*
D03*
X988060D02*
D03*
X995680D02*
D03*
X1003300D02*
D03*
X1010920D02*
D03*
X1018540D02*
D03*
X1026160D02*
D03*
X99060Y1534160D02*
D03*
Y1564640D02*
D03*
Y1572260D02*
D03*
Y1541780D02*
D03*
Y1549400D02*
D03*
Y1557020D02*
D03*
Y1526540D02*
D03*
X99060Y942340D02*
D03*
Y972820D02*
D03*
Y965200D02*
D03*
Y957580D02*
D03*
Y988060D02*
D03*
Y980440D02*
D03*
Y949960D02*
D03*
Y365760D02*
D03*
Y396240D02*
D03*
Y403860D02*
D03*
Y373380D02*
D03*
Y381000D02*
D03*
Y388620D02*
D03*
X2034540Y1272540D02*
D03*
Y1280160D02*
D03*
Y1287780D02*
D03*
Y1295400D02*
D03*
Y1303020D02*
D03*
Y1310640D02*
D03*
Y1318260D02*
D03*
Y789940D02*
D03*
Y797560D02*
D03*
Y805180D02*
D03*
Y812800D02*
D03*
Y820420D02*
D03*
Y828040D02*
D03*
Y835660D02*
D03*
Y307340D02*
D03*
Y314960D02*
D03*
Y322580D02*
D03*
Y330200D02*
D03*
Y337820D02*
D03*
Y345440D02*
D03*
Y353060D02*
D03*
X1729740Y99060D02*
D03*
X1737360D02*
D03*
X1744980D02*
D03*
X1752600D02*
D03*
X1760220D02*
D03*
X1767840D02*
D03*
X1775460D02*
D03*
X1450340Y403860D02*
D03*
Y396240D02*
D03*
Y388620D02*
D03*
Y381000D02*
D03*
Y373380D02*
D03*
Y365760D02*
D03*
Y358140D02*
D03*
X1470660Y403860D02*
D03*
Y396240D02*
D03*
Y388620D02*
D03*
Y381000D02*
D03*
Y373380D02*
D03*
Y365760D02*
D03*
Y358140D02*
D03*
X1450340Y15240D02*
D03*
Y22860D02*
D03*
Y30480D02*
D03*
Y38100D02*
D03*
Y45720D02*
D03*
Y53340D02*
D03*
Y60960D02*
D03*
X99060Y15240D02*
D03*
Y22860D02*
D03*
Y30480D02*
D03*
Y38100D02*
D03*
Y45720D02*
D03*
Y53340D02*
D03*
Y60960D02*
D03*
X15240Y99060D02*
D03*
X22860D02*
D03*
X30480D02*
D03*
X38100D02*
D03*
X45720D02*
D03*
X53340D02*
D03*
X60960D02*
D03*
X1026160Y683260D02*
D03*
X1018540D02*
D03*
X1010920D02*
D03*
X1003300D02*
D03*
X995680D02*
D03*
X988060D02*
D03*
X980440D02*
D03*
X1026160Y662940D02*
D03*
X1018540D02*
D03*
X1010920D02*
D03*
X1003300D02*
D03*
X995680D02*
D03*
X988060D02*
D03*
X980440D02*
D03*
X510540D02*
D03*
X518160D02*
D03*
X525780D02*
D03*
X533400D02*
D03*
X541020D02*
D03*
X548640D02*
D03*
X556260D02*
D03*
X510540Y683260D02*
D03*
X518160D02*
D03*
X525780D02*
D03*
X533400D02*
D03*
X541020D02*
D03*
X548640D02*
D03*
X556260D02*
D03*
X1026160Y99060D02*
D03*
X1018540D02*
D03*
X1010920D02*
D03*
X1003300D02*
D03*
X995680D02*
D03*
X988060D02*
D03*
X980440D02*
D03*
X556260D02*
D03*
X548640D02*
D03*
X541020D02*
D03*
X533400D02*
D03*
X525780D02*
D03*
X518160D02*
D03*
X510540D02*
D03*
X99060Y358140D02*
D03*
D41*
X1281900Y175180D02*
D03*
X1154900D02*
D03*
X1027900D02*
D03*
X900900D02*
D03*
X773900D02*
D03*
X646900D02*
D03*
X519900D02*
D03*
X392900D02*
D03*
X1281900Y759380D02*
D03*
X1154900D02*
D03*
X1027900D02*
D03*
X900900D02*
D03*
X773900D02*
D03*
X646900D02*
D03*
X519900D02*
D03*
X392900D02*
D03*
X1281900Y1343580D02*
D03*
X1154900D02*
D03*
X1027900D02*
D03*
X900900D02*
D03*
X773900D02*
D03*
X646900D02*
D03*
X519900D02*
D03*
X392900D02*
D03*
X1281900Y1927780D02*
D03*
X1154900D02*
D03*
X1027900D02*
D03*
X900900D02*
D03*
X773900D02*
D03*
X646900D02*
D03*
X519900D02*
D03*
X392900D02*
D03*
D42*
X1281900Y225180D02*
D03*
X1154900D02*
D03*
X1027900D02*
D03*
X900900D02*
D03*
X773900D02*
D03*
X646900D02*
D03*
X519900D02*
D03*
X392900D02*
D03*
X1281900Y809380D02*
D03*
X1154900D02*
D03*
X1027900D02*
D03*
X900900D02*
D03*
X773900D02*
D03*
X646900D02*
D03*
X519900D02*
D03*
X392900D02*
D03*
X1281900Y1393580D02*
D03*
X1154900D02*
D03*
X1027900D02*
D03*
X900900D02*
D03*
X773900D02*
D03*
X646900D02*
D03*
X519900D02*
D03*
X392900D02*
D03*
X1281900Y1977780D02*
D03*
X1154900D02*
D03*
X1027900D02*
D03*
X900900D02*
D03*
X773900D02*
D03*
X646900D02*
D03*
X519900D02*
D03*
X392900D02*
D03*
X1597260Y266700D02*
D03*
Y393700D02*
D03*
Y520700D02*
D03*
Y647700D02*
D03*
Y774700D02*
D03*
Y901700D02*
D03*
Y1028700D02*
D03*
Y1155700D02*
D03*
D43*
X1281900Y337620D02*
D03*
Y372620D02*
D03*
X1154900Y337620D02*
D03*
Y372620D02*
D03*
X1027900Y337620D02*
D03*
Y372620D02*
D03*
X900900Y337620D02*
D03*
Y372620D02*
D03*
X773900Y337620D02*
D03*
Y372620D02*
D03*
X646900Y337620D02*
D03*
Y372620D02*
D03*
X519900Y337620D02*
D03*
Y372620D02*
D03*
X392900Y337620D02*
D03*
Y372620D02*
D03*
X1281900Y921820D02*
D03*
Y956820D02*
D03*
X1154900Y921820D02*
D03*
Y956820D02*
D03*
X1027900Y921820D02*
D03*
Y956820D02*
D03*
X900900Y921820D02*
D03*
Y956820D02*
D03*
X773900Y921820D02*
D03*
Y956820D02*
D03*
X646900Y921820D02*
D03*
Y956820D02*
D03*
X519900Y921820D02*
D03*
Y956820D02*
D03*
X392900Y921820D02*
D03*
Y956820D02*
D03*
X1281900Y1506020D02*
D03*
Y1541020D02*
D03*
X1154900Y1506020D02*
D03*
Y1541020D02*
D03*
X1027900Y1506020D02*
D03*
Y1541020D02*
D03*
X900900Y1506020D02*
D03*
Y1541020D02*
D03*
X773900Y1506020D02*
D03*
Y1541020D02*
D03*
X646900Y1506020D02*
D03*
Y1541020D02*
D03*
X519900Y1506020D02*
D03*
Y1541020D02*
D03*
X392900Y1506020D02*
D03*
Y1541020D02*
D03*
X1281900Y2090220D02*
D03*
Y2125220D02*
D03*
X1154900Y2090220D02*
D03*
Y2125220D02*
D03*
X1027900Y2090220D02*
D03*
Y2125220D02*
D03*
X900900Y2090220D02*
D03*
Y2125220D02*
D03*
X773900Y2090220D02*
D03*
Y2125220D02*
D03*
X646900Y2090220D02*
D03*
Y2125220D02*
D03*
X519900Y2090220D02*
D03*
Y2125220D02*
D03*
X392900Y2090220D02*
D03*
Y2125220D02*
D03*
D44*
X409900Y587570D02*
D03*
X375900D02*
D03*
X409900Y452870D02*
D03*
X375900D02*
D03*
X536900Y587570D02*
D03*
X502900D02*
D03*
X536900Y452870D02*
D03*
X502900D02*
D03*
X663900Y587570D02*
D03*
X629900D02*
D03*
X663900Y452870D02*
D03*
X629900D02*
D03*
X790900Y587570D02*
D03*
X756900D02*
D03*
X790900Y452870D02*
D03*
X756900D02*
D03*
X917900Y587570D02*
D03*
X883900D02*
D03*
X917900Y452870D02*
D03*
X883900D02*
D03*
X1044900Y587570D02*
D03*
X1010900D02*
D03*
X1044900Y452870D02*
D03*
X1010900D02*
D03*
X1171900Y587570D02*
D03*
X1137900D02*
D03*
X1171900Y452870D02*
D03*
X1137900D02*
D03*
X1298900Y587570D02*
D03*
X1264900D02*
D03*
X1298900Y452870D02*
D03*
X1264900D02*
D03*
X248900D02*
D03*
X282900D02*
D03*
X248900Y587570D02*
D03*
X282900D02*
D03*
X409900Y1171770D02*
D03*
X375900D02*
D03*
X409900Y1037070D02*
D03*
X375900D02*
D03*
X536900Y1171770D02*
D03*
X502900D02*
D03*
X536900Y1037070D02*
D03*
X502900D02*
D03*
X663900Y1171770D02*
D03*
X629900D02*
D03*
X663900Y1037070D02*
D03*
X629900D02*
D03*
X790900Y1171770D02*
D03*
X756900D02*
D03*
X790900Y1037070D02*
D03*
X756900D02*
D03*
X917900Y1171770D02*
D03*
X883900D02*
D03*
X917900Y1037070D02*
D03*
X883900D02*
D03*
X1044900Y1171770D02*
D03*
X1010900D02*
D03*
X1044900Y1037070D02*
D03*
X1010900D02*
D03*
X1171900Y1171770D02*
D03*
X1137900D02*
D03*
X1171900Y1037070D02*
D03*
X1137900D02*
D03*
X1298900Y1171770D02*
D03*
X1264900D02*
D03*
X1298900Y1037070D02*
D03*
X1264900D02*
D03*
X248900D02*
D03*
X282900D02*
D03*
X248900Y1171770D02*
D03*
X282900D02*
D03*
X409900Y1755970D02*
D03*
X375900D02*
D03*
X409900Y1621270D02*
D03*
X375900D02*
D03*
X536900Y1755970D02*
D03*
X502900D02*
D03*
X536900Y1621270D02*
D03*
X502900D02*
D03*
X663900Y1755970D02*
D03*
X629900D02*
D03*
X663900Y1621270D02*
D03*
X629900D02*
D03*
X790900Y1755970D02*
D03*
X756900D02*
D03*
X790900Y1621270D02*
D03*
X756900D02*
D03*
X917900Y1755970D02*
D03*
X883900D02*
D03*
X917900Y1621270D02*
D03*
X883900D02*
D03*
X1044900Y1755970D02*
D03*
X1010900D02*
D03*
X1044900Y1621270D02*
D03*
X1010900D02*
D03*
X1171900Y1755970D02*
D03*
X1137900D02*
D03*
X1171900Y1621270D02*
D03*
X1137900D02*
D03*
X1298900Y1755970D02*
D03*
X1264900D02*
D03*
X1298900Y1621270D02*
D03*
X1264900D02*
D03*
X248900D02*
D03*
X282900D02*
D03*
X248900Y1755970D02*
D03*
X282900D02*
D03*
X409900Y2340170D02*
D03*
X375900D02*
D03*
X409900Y2205470D02*
D03*
X375900D02*
D03*
X536900Y2340170D02*
D03*
X502900D02*
D03*
X536900Y2205470D02*
D03*
X502900D02*
D03*
X663900Y2340170D02*
D03*
X629900D02*
D03*
X663900Y2205470D02*
D03*
X629900D02*
D03*
X790900Y2340170D02*
D03*
X756900D02*
D03*
X790900Y2205470D02*
D03*
X756900D02*
D03*
X917900Y2340170D02*
D03*
X883900D02*
D03*
X917900Y2205470D02*
D03*
X883900D02*
D03*
X1044900Y2340170D02*
D03*
X1010900D02*
D03*
X1044900Y2205470D02*
D03*
X1010900D02*
D03*
X1171900Y2340170D02*
D03*
X1137900D02*
D03*
X1171900Y2205470D02*
D03*
X1137900D02*
D03*
X1298900Y2340170D02*
D03*
X1264900D02*
D03*
X1298900Y2205470D02*
D03*
X1264900D02*
D03*
X248900D02*
D03*
X282900D02*
D03*
X248900Y2340170D02*
D03*
X282900D02*
D03*
X1959650Y1138700D02*
D03*
Y1172700D02*
D03*
X1824950Y1138700D02*
D03*
Y1172700D02*
D03*
X1959650Y1011700D02*
D03*
Y1045700D02*
D03*
X1824950Y1011700D02*
D03*
Y1045700D02*
D03*
X1959650Y884700D02*
D03*
Y918700D02*
D03*
X1824950Y884700D02*
D03*
Y918700D02*
D03*
X1959650Y757700D02*
D03*
Y791700D02*
D03*
X1824950Y757700D02*
D03*
Y791700D02*
D03*
X1959650Y630700D02*
D03*
Y664700D02*
D03*
X1824950Y630700D02*
D03*
Y664700D02*
D03*
X1959650Y503700D02*
D03*
Y537700D02*
D03*
X1824950Y503700D02*
D03*
Y537700D02*
D03*
X1959650Y376700D02*
D03*
Y410700D02*
D03*
X1824950Y376700D02*
D03*
Y410700D02*
D03*
X1959650Y249700D02*
D03*
Y283700D02*
D03*
X1824950Y249700D02*
D03*
Y283700D02*
D03*
Y1299700D02*
D03*
Y1265700D02*
D03*
X1959650Y1299700D02*
D03*
Y1265700D02*
D03*
D45*
X253200Y283120D02*
D03*
Y867320D02*
D03*
Y1451520D02*
D03*
Y2035720D02*
D03*
X1655200Y1295400D02*
D03*
D46*
X253200Y173120D02*
D03*
Y757320D02*
D03*
Y1341520D02*
D03*
Y1925720D02*
D03*
D47*
X151600Y151920D02*
D03*
Y609120D02*
D03*
X1396200D02*
D03*
Y151920D02*
D03*
X151600Y736120D02*
D03*
Y1193320D02*
D03*
X1396200D02*
D03*
Y736120D02*
D03*
X151600Y1320320D02*
D03*
Y1777520D02*
D03*
X1396200D02*
D03*
Y1320320D02*
D03*
X151600Y1904520D02*
D03*
Y2361720D02*
D03*
X1396200D02*
D03*
Y1904520D02*
D03*
X1524000Y1397000D02*
D03*
X1981200D02*
D03*
Y152400D02*
D03*
X1524000D02*
D03*
D48*
X1547260Y266700D02*
D03*
Y393700D02*
D03*
Y520700D02*
D03*
Y647700D02*
D03*
Y774700D02*
D03*
Y901700D02*
D03*
Y1028700D02*
D03*
Y1155700D02*
D03*
D49*
X1709700Y266700D02*
D03*
X1744700D02*
D03*
X1709700Y393700D02*
D03*
X1744700D02*
D03*
X1709700Y520700D02*
D03*
X1744700D02*
D03*
X1709700Y647700D02*
D03*
X1744700D02*
D03*
X1709700Y774700D02*
D03*
X1744700D02*
D03*
X1709700Y901700D02*
D03*
X1744700D02*
D03*
X1709700Y1028700D02*
D03*
X1744700D02*
D03*
X1709700Y1155700D02*
D03*
X1744700D02*
D03*
D50*
X1545200Y1295400D02*
D03*
M02*
