G04*
G04 #@! TF.GenerationSoftware,Altium Limited,Altium Designer,22.0.2 (36)*
G04*
G04 Layer_Color=8388736*
%FSLAX44Y44*%
%MOMM*%
G71*
G04*
G04 #@! TF.SameCoordinates,3D356D52-1F4F-4DC4-934F-51404F246838*
G04*
G04*
G04 #@! TF.FilePolarity,Negative*
G04*
G01*
G75*
%ADD10C,0.2540*%
%ADD13C,0.1524*%
%ADD35R,1.7032X1.2532*%
%ADD36R,1.0032X1.0032*%
%ADD37R,1.2532X1.7032*%
%ADD38R,1.0032X1.0032*%
%ADD39C,5.2032*%
%ADD40C,0.7112*%
%ADD41R,3.2032X3.2032*%
%ADD42C,3.2032*%
%ADD43O,1.7032X3.2032*%
%ADD44C,2.6032*%
%ADD45C,7.2032*%
%ADD46R,7.2032X7.2032*%
%ADD47C,6.2032*%
%ADD48R,3.2032X3.2032*%
%ADD49O,3.2032X1.7032*%
%ADD50R,7.2032X7.2032*%
G36*
X168110Y2256310D02*
X159220D01*
Y2257580D01*
X143980D01*
Y2252500D01*
X141440D01*
Y2260120D01*
X159220D01*
Y2261390D01*
X168110Y2256310D01*
D02*
G37*
G36*
X184620Y2248690D02*
X177000Y2244880D01*
Y2247420D01*
X154140D01*
Y2239800D01*
X165570Y2239800D01*
Y2242340D01*
X173190D01*
Y2234720D01*
X165570D01*
Y2237260D01*
X151600Y2237260D01*
Y2247420D01*
X132550Y2247420D01*
X132549Y2247421D01*
X132337Y2246969D01*
X131677Y2246219D01*
X130833Y2245684D01*
X129874Y2245405D01*
X128875Y2245405D01*
X127916Y2245684D01*
X127073Y2246219D01*
X126412Y2246968D01*
X126200Y2247420D01*
X126200Y2249960D01*
X177000D01*
Y2252500D01*
X184620Y2248690D01*
D02*
G37*
G36*
X1788160Y1823720D02*
X1805940D01*
Y1803400D01*
X1846580D01*
X1847324Y1804144D01*
Y1804144D01*
X1847751Y1804571D01*
X1848755Y1805242D01*
X1849871Y1805704D01*
X1851056Y1805940D01*
X1852264D01*
X1853449Y1805704D01*
X1854565Y1805242D01*
X1855569Y1804571D01*
X1855996Y1804144D01*
X1856740Y1803400D01*
X1856740Y1798320D01*
X1762760D01*
Y1793240D01*
X1742440Y1800860D01*
X1762760Y1808480D01*
Y1803400D01*
X1800860D01*
Y1818640D01*
X1788160D01*
Y1813560D01*
X1772920D01*
Y1828800D01*
X1788160D01*
Y1823720D01*
D02*
G37*
G36*
X1823720Y1778000D02*
X1790700D01*
Y1775460D01*
X1770380Y1785620D01*
X1790700D01*
Y1783080D01*
X1818640D01*
Y1793240D01*
X1823720D01*
Y1778000D01*
D02*
G37*
G36*
X168110Y1672110D02*
X159220D01*
Y1673380D01*
X143980D01*
Y1668300D01*
X141440D01*
Y1675920D01*
X159220D01*
Y1677190D01*
X168110Y1672110D01*
D02*
G37*
G36*
X184620Y1664490D02*
X177000Y1660680D01*
Y1663220D01*
X154140D01*
Y1655600D01*
X165570Y1655600D01*
Y1658140D01*
X173190D01*
Y1650520D01*
X165570D01*
Y1653060D01*
X151600Y1653060D01*
Y1663220D01*
X132550Y1663220D01*
X132549Y1663221D01*
X132337Y1662769D01*
X131677Y1662019D01*
X130833Y1661484D01*
X129874Y1661205D01*
X128875Y1661205D01*
X127916Y1661484D01*
X127073Y1662019D01*
X126412Y1662768D01*
X126200Y1663220D01*
X126200Y1665760D01*
X177000D01*
Y1668300D01*
X184620Y1664490D01*
D02*
G37*
G36*
X1879600Y1389380D02*
X1880870D01*
X1875790Y1380490D01*
Y1389380D01*
X1877060D01*
Y1404620D01*
X1871980D01*
Y1407160D01*
X1879600D01*
Y1389380D01*
D02*
G37*
G36*
X1869440Y1422400D02*
Y1371600D01*
X1871980D01*
X1868170Y1363980D01*
X1864360Y1371600D01*
X1866900D01*
Y1394460D01*
X1859280D01*
X1859280Y1383030D01*
X1861820D01*
Y1375410D01*
X1854200D01*
Y1383030D01*
X1856740D01*
X1856740Y1397000D01*
X1866900D01*
X1866900Y1416050D01*
X1866901Y1416051D01*
X1866449Y1416263D01*
X1865699Y1416924D01*
X1865164Y1417767D01*
X1864885Y1418726D01*
X1864885Y1419725D01*
X1865164Y1420684D01*
X1865699Y1421527D01*
X1866448Y1422188D01*
X1866900Y1422400D01*
X1869440Y1422400D01*
D02*
G37*
G36*
X168110Y1087910D02*
X159220D01*
Y1089180D01*
X143980D01*
Y1084100D01*
X141440D01*
Y1091720D01*
X159220D01*
Y1092990D01*
X168110Y1087910D01*
D02*
G37*
G36*
X184620Y1080290D02*
X177000Y1076480D01*
Y1079020D01*
X154140D01*
Y1071400D01*
X165570Y1071400D01*
Y1073940D01*
X173190D01*
Y1066320D01*
X165570D01*
Y1068860D01*
X151600Y1068860D01*
Y1079020D01*
X132550Y1079020D01*
X132549Y1079021D01*
X132337Y1078569D01*
X131677Y1077819D01*
X130833Y1077284D01*
X129874Y1077005D01*
X128875Y1077005D01*
X127916Y1077284D01*
X127073Y1077819D01*
X126412Y1078568D01*
X126200Y1079020D01*
X126200Y1081560D01*
X177000D01*
Y1084100D01*
X184620Y1080290D01*
D02*
G37*
G36*
X168110Y503710D02*
X159220D01*
Y504980D01*
X143980D01*
Y499900D01*
X141440D01*
Y507520D01*
X159220D01*
Y508790D01*
X168110Y503710D01*
D02*
G37*
G36*
X184620Y496090D02*
X177000Y492280D01*
Y494820D01*
X154140D01*
Y487200D01*
X165570Y487200D01*
Y489740D01*
X173190D01*
Y482120D01*
X165570D01*
Y484660D01*
X151600Y484660D01*
Y494820D01*
X132550Y494820D01*
X132549Y494821D01*
X132337Y494369D01*
X131677Y493619D01*
X130833Y493084D01*
X129874Y492805D01*
X128875Y492805D01*
X127916Y493084D01*
X127073Y493619D01*
X126412Y494368D01*
X126200Y494820D01*
X126200Y497360D01*
X177000D01*
Y499900D01*
X184620Y496090D01*
D02*
G37*
D10*
X1739701Y1861820D02*
X1754937D01*
X1739701D02*
Y1871252D01*
X1746956Y1861820D02*
Y1867625D01*
X1744780Y1872994D02*
X1752035D01*
X1754212Y1873719D01*
X1754937Y1875170D01*
Y1877347D01*
X1754212Y1878798D01*
X1752035Y1880975D01*
X1744780D02*
X1754937D01*
X1746956Y1892946D02*
X1745505Y1892221D01*
X1744780Y1890044D01*
Y1887868D01*
X1745505Y1885691D01*
X1746956Y1884965D01*
X1748407Y1885691D01*
X1749133Y1887142D01*
X1749859Y1890770D01*
X1750584Y1892221D01*
X1752035Y1892946D01*
X1752761D01*
X1754212Y1892221D01*
X1754937Y1890044D01*
Y1887868D01*
X1754212Y1885691D01*
X1752761Y1884965D01*
X1749133Y1896139D02*
Y1904846D01*
X1747682D01*
X1746231Y1904120D01*
X1745505Y1903394D01*
X1744780Y1901943D01*
Y1899767D01*
X1745505Y1898316D01*
X1746956Y1896864D01*
X1749133Y1896139D01*
X1750584D01*
X1752761Y1896864D01*
X1754212Y1898316D01*
X1754937Y1899767D01*
Y1901943D01*
X1754212Y1903394D01*
X1752761Y1904846D01*
X1739701Y1920082D02*
X1754937D01*
X1739701D02*
Y1926613D01*
X1740426Y1928789D01*
X1741152Y1929515D01*
X1742603Y1930240D01*
X1744054D01*
X1745505Y1929515D01*
X1746231Y1928789D01*
X1746956Y1926613D01*
Y1920082D02*
Y1926613D01*
X1747682Y1928789D01*
X1748407Y1929515D01*
X1749859Y1930240D01*
X1752035D01*
X1753486Y1929515D01*
X1754212Y1928789D01*
X1754937Y1926613D01*
Y1920082D01*
X1744780Y1937278D02*
X1745505Y1935827D01*
X1746956Y1934376D01*
X1749133Y1933650D01*
X1750584D01*
X1752761Y1934376D01*
X1754212Y1935827D01*
X1754937Y1937278D01*
Y1939455D01*
X1754212Y1940906D01*
X1752761Y1942357D01*
X1750584Y1943083D01*
X1749133D01*
X1746956Y1942357D01*
X1745505Y1940906D01*
X1744780Y1939455D01*
Y1937278D01*
Y1955127D02*
X1754937D01*
X1746956D02*
X1745505Y1953676D01*
X1744780Y1952225D01*
Y1950048D01*
X1745505Y1948597D01*
X1746956Y1947146D01*
X1749133Y1946420D01*
X1750584D01*
X1752761Y1947146D01*
X1754212Y1948597D01*
X1754937Y1950048D01*
Y1952225D01*
X1754212Y1953676D01*
X1752761Y1955127D01*
X1744780Y1959190D02*
X1754937D01*
X1749133D02*
X1746956Y1959916D01*
X1745505Y1961367D01*
X1744780Y1962818D01*
Y1964995D01*
X1739701Y1975080D02*
X1754937D01*
X1746956D02*
X1745505Y1973629D01*
X1744780Y1972177D01*
Y1970001D01*
X1745505Y1968550D01*
X1746956Y1967099D01*
X1749133Y1966373D01*
X1750584D01*
X1752761Y1967099D01*
X1754212Y1968550D01*
X1754937Y1970001D01*
Y1972177D01*
X1754212Y1973629D01*
X1752761Y1975080D01*
X1746956Y1987124D02*
X1745505Y1986398D01*
X1744780Y1984222D01*
Y1982045D01*
X1745505Y1979868D01*
X1746956Y1979143D01*
X1748407Y1979868D01*
X1749133Y1981320D01*
X1749859Y1984947D01*
X1750584Y1986398D01*
X1752035Y1987124D01*
X1752761D01*
X1754212Y1986398D01*
X1754937Y1984222D01*
Y1982045D01*
X1754212Y1979868D01*
X1752761Y1979143D01*
X1747682Y2002288D02*
Y2008818D01*
X1746956Y2010995D01*
X1746231Y2011720D01*
X1744780Y2012446D01*
X1742603D01*
X1741152Y2011720D01*
X1740426Y2010995D01*
X1739701Y2008818D01*
Y2002288D01*
X1754937D01*
X1744780Y2024563D02*
X1754937D01*
X1746956D02*
X1745505Y2023112D01*
X1744780Y2021661D01*
Y2019484D01*
X1745505Y2018033D01*
X1746956Y2016582D01*
X1749133Y2015856D01*
X1750584D01*
X1752761Y2016582D01*
X1754212Y2018033D01*
X1754937Y2019484D01*
Y2021661D01*
X1754212Y2023112D01*
X1752761Y2024563D01*
X1744780Y2028626D02*
X1754937D01*
X1747682D02*
X1745505Y2030803D01*
X1744780Y2032254D01*
Y2034430D01*
X1745505Y2035882D01*
X1747682Y2036607D01*
X1754937D01*
X1749133Y2040598D02*
Y2049304D01*
X1747682D01*
X1746231Y2048579D01*
X1745505Y2047853D01*
X1744780Y2046402D01*
Y2044225D01*
X1745505Y2042774D01*
X1746956Y2041323D01*
X1749133Y2040598D01*
X1750584D01*
X1752761Y2041323D01*
X1754212Y2042774D01*
X1754937Y2044225D01*
Y2046402D01*
X1754212Y2047853D01*
X1752761Y2049304D01*
X1739701Y2052569D02*
X1754937D01*
X1739701Y2067734D02*
X1754937Y2073538D01*
X1739701Y2079343D02*
X1754937Y2073538D01*
X1743329Y2082027D02*
X1742603D01*
X1741152Y2082753D01*
X1740426Y2083478D01*
X1739701Y2084929D01*
Y2087832D01*
X1740426Y2089283D01*
X1741152Y2090008D01*
X1742603Y2090734D01*
X1744054D01*
X1745505Y2090008D01*
X1747682Y2088557D01*
X1754937Y2081302D01*
Y2091459D01*
X1753486Y2095595D02*
X1754212Y2094870D01*
X1754937Y2095595D01*
X1754212Y2096321D01*
X1753486Y2095595D01*
X1742603Y2099658D02*
X1741877Y2101109D01*
X1739701Y2103286D01*
X1754937D01*
X1764806Y1861820D02*
X1780043D01*
X1764806D02*
Y1866899D01*
X1765532Y1869076D01*
X1766983Y1870527D01*
X1768434Y1871252D01*
X1770611Y1871978D01*
X1774239D01*
X1776415Y1871252D01*
X1777867Y1870527D01*
X1779318Y1869076D01*
X1780043Y1866899D01*
Y1861820D01*
X1774239Y1875388D02*
Y1884095D01*
X1772788D01*
X1771336Y1883369D01*
X1770611Y1882643D01*
X1769885Y1881192D01*
Y1879016D01*
X1770611Y1877565D01*
X1772062Y1876113D01*
X1774239Y1875388D01*
X1775690D01*
X1777867Y1876113D01*
X1779318Y1877565D01*
X1780043Y1879016D01*
Y1881192D01*
X1779318Y1882643D01*
X1777867Y1884095D01*
X1772062Y1895341D02*
X1770611Y1894615D01*
X1769885Y1892439D01*
Y1890262D01*
X1770611Y1888085D01*
X1772062Y1887360D01*
X1773513Y1888085D01*
X1774239Y1889536D01*
X1774964Y1893164D01*
X1775690Y1894615D01*
X1777141Y1895341D01*
X1777867D01*
X1779318Y1894615D01*
X1780043Y1892439D01*
Y1890262D01*
X1779318Y1888085D01*
X1777867Y1887360D01*
X1764806Y1899984D02*
X1765532Y1900710D01*
X1764806Y1901436D01*
X1764081Y1900710D01*
X1764806Y1899984D01*
X1769885Y1900710D02*
X1780043D01*
X1769885Y1912827D02*
X1781494D01*
X1783671Y1912101D01*
X1784397Y1911376D01*
X1785122Y1909925D01*
Y1907748D01*
X1784397Y1906297D01*
X1772062Y1912827D02*
X1770611Y1911376D01*
X1769885Y1909925D01*
Y1907748D01*
X1770611Y1906297D01*
X1772062Y1904846D01*
X1774239Y1904120D01*
X1775690D01*
X1777867Y1904846D01*
X1779318Y1906297D01*
X1780043Y1907748D01*
Y1909925D01*
X1779318Y1911376D01*
X1777867Y1912827D01*
X1769885Y1916890D02*
X1780043D01*
X1772788D02*
X1770611Y1919067D01*
X1769885Y1920518D01*
Y1922694D01*
X1770611Y1924146D01*
X1772788Y1924871D01*
X1780043D01*
X1774239Y1928862D02*
Y1937568D01*
X1772788D01*
X1771336Y1936843D01*
X1770611Y1936117D01*
X1769885Y1934666D01*
Y1932489D01*
X1770611Y1931038D01*
X1772062Y1929587D01*
X1774239Y1928862D01*
X1775690D01*
X1777867Y1929587D01*
X1779318Y1931038D01*
X1780043Y1932489D01*
Y1934666D01*
X1779318Y1936117D01*
X1777867Y1937568D01*
X1764806Y1949540D02*
X1780043D01*
X1772062D02*
X1770611Y1948089D01*
X1769885Y1946638D01*
Y1944461D01*
X1770611Y1943010D01*
X1772062Y1941559D01*
X1774239Y1940833D01*
X1775690D01*
X1777867Y1941559D01*
X1779318Y1943010D01*
X1780043Y1944461D01*
Y1946638D01*
X1779318Y1948089D01*
X1777867Y1949540D01*
X1764806Y1971379D02*
Y1969928D01*
X1765532Y1968477D01*
X1767709Y1967752D01*
X1780043D01*
X1769885Y1965575D02*
Y1970654D01*
Y1977184D02*
X1770611Y1975733D01*
X1772062Y1974282D01*
X1774239Y1973556D01*
X1775690D01*
X1777867Y1974282D01*
X1779318Y1975733D01*
X1780043Y1977184D01*
Y1979361D01*
X1779318Y1980812D01*
X1777867Y1982263D01*
X1775690Y1982988D01*
X1774239D01*
X1772062Y1982263D01*
X1770611Y1980812D01*
X1769885Y1979361D01*
Y1977184D01*
Y1986326D02*
X1780043D01*
X1774239D02*
X1772062Y1987051D01*
X1770611Y1988503D01*
X1769885Y1989954D01*
Y1992130D01*
X1764806Y2010560D02*
X1780043D01*
X1764806Y2005481D02*
Y2015638D01*
X1769885Y2017452D02*
X1780043D01*
X1774239D02*
X1772062Y2018178D01*
X1770611Y2019629D01*
X1769885Y2021080D01*
Y2023257D01*
X1764806Y2026087D02*
X1765532Y2026812D01*
X1764806Y2027538D01*
X1764081Y2026812D01*
X1764806Y2026087D01*
X1769885Y2026812D02*
X1780043D01*
X1764806Y2032399D02*
X1777141D01*
X1779318Y2033125D01*
X1780043Y2034576D01*
Y2036027D01*
X1769885Y2030222D02*
Y2035301D01*
Y2041831D02*
X1770611Y2040380D01*
X1772062Y2038929D01*
X1774239Y2038203D01*
X1775690D01*
X1777867Y2038929D01*
X1779318Y2040380D01*
X1780043Y2041831D01*
Y2044008D01*
X1779318Y2045459D01*
X1777867Y2046910D01*
X1775690Y2047636D01*
X1774239D01*
X1772062Y2046910D01*
X1770611Y2045459D01*
X1769885Y2044008D01*
Y2041831D01*
Y2050973D02*
X1780043D01*
X1772788D02*
X1770611Y2053150D01*
X1769885Y2054601D01*
Y2056778D01*
X1770611Y2058229D01*
X1772788Y2058954D01*
X1780043D01*
Y2074554D02*
X1764806Y2068749D01*
X1780043Y2062945D01*
X1774964Y2065122D02*
Y2072377D01*
X1764806Y2078109D02*
X1780043D01*
X1770611Y2104157D02*
X1769160Y2103431D01*
X1768434Y2101980D01*
Y2099803D01*
X1769160Y2098352D01*
X1769885Y2097627D01*
X1772062Y2096901D01*
X1774239D01*
X1775690Y2097627D01*
X1776415Y2099078D01*
Y2101254D01*
X1775690Y2102706D01*
X1774239Y2103431D01*
X1768434Y2099803D02*
X1769885Y2098352D01*
X1772062Y2097627D01*
X1774239D01*
X1775690Y2098352D01*
X1776415Y2099078D01*
X1768434Y2104157D02*
X1774239Y2103431D01*
X1775690D01*
X1776415Y2104882D01*
Y2106333D01*
X1774964Y2107784D01*
X1772788Y2108510D01*
X1771336D01*
X1769160Y2107784D01*
X1767709Y2107059D01*
X1766257Y2105608D01*
X1765532Y2104157D01*
X1764806Y2101980D01*
Y2099803D01*
X1765532Y2097627D01*
X1766257Y2096176D01*
X1767709Y2094724D01*
X1769160Y2093999D01*
X1771336Y2093273D01*
X1773513D01*
X1775690Y2093999D01*
X1777141Y2094724D01*
X1778592Y2096176D01*
X1779318Y2097627D01*
X1780043Y2099803D01*
Y2101980D01*
X1779318Y2104157D01*
X1778592Y2105608D01*
X1777867Y2106333D01*
X1768434Y2104882D02*
X1774239Y2104157D01*
X1775690D01*
X1776415Y2104882D01*
X1764806Y2124400D02*
X1775690D01*
X1777867Y2125125D01*
X1779318Y2126577D01*
X1780043Y2128753D01*
Y2130204D01*
X1779318Y2132381D01*
X1777867Y2133832D01*
X1775690Y2134558D01*
X1764806D01*
X1768434Y2149649D02*
X1766983Y2148924D01*
X1765532Y2147473D01*
X1764806Y2146021D01*
Y2143119D01*
X1765532Y2141668D01*
X1766983Y2140217D01*
X1768434Y2139491D01*
X1770611Y2138766D01*
X1774239D01*
X1776415Y2139491D01*
X1777867Y2140217D01*
X1779318Y2141668D01*
X1780043Y2143119D01*
Y2146021D01*
X1779318Y2147473D01*
X1777867Y2148924D01*
X1776415Y2149649D01*
X1766983Y2164088D02*
X1765532Y2162637D01*
X1764806Y2160460D01*
Y2157558D01*
X1765532Y2155381D01*
X1766983Y2153930D01*
X1768434D01*
X1769885Y2154656D01*
X1770611Y2155381D01*
X1771336Y2156832D01*
X1772788Y2161186D01*
X1773513Y2162637D01*
X1774239Y2163362D01*
X1775690Y2164088D01*
X1777867D01*
X1779318Y2162637D01*
X1780043Y2160460D01*
Y2157558D01*
X1779318Y2155381D01*
X1777867Y2153930D01*
X1764806Y2167498D02*
X1780043D01*
X1764806D02*
Y2172577D01*
X1765532Y2174754D01*
X1766983Y2176205D01*
X1768434Y2176930D01*
X1770611Y2177656D01*
X1774239D01*
X1776415Y2176930D01*
X1777867Y2176205D01*
X1779318Y2174754D01*
X1780043Y2172577D01*
Y2167498D01*
X1794265Y1861820D02*
X1809502D01*
X1801521D02*
X1800070Y1863271D01*
X1799344Y1864722D01*
Y1866899D01*
X1800070Y1868350D01*
X1801521Y1869801D01*
X1803698Y1870527D01*
X1805149D01*
X1807325Y1869801D01*
X1808777Y1868350D01*
X1809502Y1866899D01*
Y1864722D01*
X1808777Y1863271D01*
X1807325Y1861820D01*
X1799344Y1874517D02*
X1809502Y1878871D01*
X1799344Y1883224D02*
X1809502Y1878871D01*
X1812404Y1877419D01*
X1813855Y1875968D01*
X1814581Y1874517D01*
Y1873792D01*
X1794265Y1897735D02*
X1809502D01*
X1794265D02*
Y1904265D01*
X1794991Y1906442D01*
X1795717Y1907168D01*
X1797168Y1907893D01*
X1798619D01*
X1800070Y1907168D01*
X1800795Y1906442D01*
X1801521Y1904265D01*
Y1897735D01*
Y1902814D02*
X1809502Y1907893D01*
X1799344Y1912029D02*
X1809502Y1916382D01*
X1799344Y1920735D02*
X1809502Y1916382D01*
X1812404Y1914931D01*
X1813855Y1913480D01*
X1814581Y1912029D01*
Y1911303D01*
X1799344Y1931982D02*
X1809502D01*
X1801521D02*
X1800070Y1930531D01*
X1799344Y1929079D01*
Y1926903D01*
X1800070Y1925452D01*
X1801521Y1924000D01*
X1803698Y1923275D01*
X1805149D01*
X1807325Y1924000D01*
X1808777Y1925452D01*
X1809502Y1926903D01*
Y1929079D01*
X1808777Y1930531D01*
X1807325Y1931982D01*
X1799344Y1936045D02*
X1809502D01*
X1802247D02*
X1800070Y1938221D01*
X1799344Y1939673D01*
Y1941849D01*
X1800070Y1943300D01*
X1802247Y1944026D01*
X1809502D01*
X1794265Y1965067D02*
X1809502D01*
X1794265Y1959988D02*
Y1970146D01*
X1799344Y1971960D02*
X1809502D01*
X1803698D02*
X1801521Y1972685D01*
X1800070Y1974137D01*
X1799344Y1975588D01*
Y1977764D01*
Y1987850D02*
X1809502D01*
X1801521D02*
X1800070Y1986398D01*
X1799344Y1984947D01*
Y1982771D01*
X1800070Y1981320D01*
X1801521Y1979868D01*
X1803698Y1979143D01*
X1805149D01*
X1807325Y1979868D01*
X1808777Y1981320D01*
X1809502Y1982771D01*
Y1984947D01*
X1808777Y1986398D01*
X1807325Y1987850D01*
X1799344Y1991913D02*
X1809502D01*
X1802247D02*
X1800070Y1994089D01*
X1799344Y1995541D01*
Y1997717D01*
X1800070Y1999168D01*
X1802247Y1999894D01*
X1809502D01*
X1823724Y1861820D02*
X1838961D01*
X1823724D02*
Y1871252D01*
X1830980Y1861820D02*
Y1867625D01*
X1833157Y1872994D02*
Y1881700D01*
X1831705D01*
X1830254Y1880975D01*
X1829529Y1880249D01*
X1828803Y1878798D01*
Y1876621D01*
X1829529Y1875170D01*
X1830980Y1873719D01*
X1833157Y1872994D01*
X1834608D01*
X1836784Y1873719D01*
X1838235Y1875170D01*
X1838961Y1876621D01*
Y1878798D01*
X1838235Y1880249D01*
X1836784Y1881700D01*
X1823724Y1884965D02*
X1838961D01*
X1830980D02*
X1829529Y1886416D01*
X1828803Y1887868D01*
Y1890044D01*
X1829529Y1891495D01*
X1830980Y1892946D01*
X1833157Y1893672D01*
X1834608D01*
X1836784Y1892946D01*
X1838235Y1891495D01*
X1838961Y1890044D01*
Y1887868D01*
X1838235Y1886416D01*
X1836784Y1884965D01*
X1828803Y1896937D02*
X1836059D01*
X1838235Y1897663D01*
X1838961Y1899114D01*
Y1901290D01*
X1838235Y1902742D01*
X1836059Y1904918D01*
X1828803D02*
X1838961D01*
X1828803Y1917616D02*
X1838961D01*
X1830980D02*
X1829529Y1916164D01*
X1828803Y1914713D01*
Y1912537D01*
X1829529Y1911086D01*
X1830980Y1909634D01*
X1833157Y1908909D01*
X1834608D01*
X1836784Y1909634D01*
X1838235Y1911086D01*
X1838961Y1912537D01*
Y1914713D01*
X1838235Y1916164D01*
X1836784Y1917616D01*
X1828803Y1921679D02*
X1838961D01*
X1833157D02*
X1830980Y1922404D01*
X1829529Y1923855D01*
X1828803Y1925306D01*
Y1927483D01*
Y1929587D02*
X1838961Y1933941D01*
X1828803Y1938294D02*
X1838961Y1933941D01*
X1841863Y1932489D01*
X1843314Y1931038D01*
X1844040Y1929587D01*
Y1928862D01*
X1826627Y1952805D02*
X1825901Y1954256D01*
X1823724Y1956433D01*
X1838961D01*
X1823724Y1965430D02*
Y1973411D01*
X1829529Y1969058D01*
Y1971234D01*
X1830254Y1972686D01*
X1830980Y1973411D01*
X1833157Y1974137D01*
X1834608D01*
X1836784Y1973411D01*
X1838235Y1971960D01*
X1838961Y1969783D01*
Y1967607D01*
X1838235Y1965430D01*
X1837510Y1964704D01*
X1836059Y1963979D01*
X1838235Y1978998D02*
X1838961Y1978272D01*
X1838235Y1977547D01*
X1837510Y1978272D01*
X1838235Y1978998D01*
X1839687D01*
X1841138Y1978272D01*
X1841863Y1977547D01*
X1827352Y1995033D02*
X1826627D01*
X1825175Y1995758D01*
X1824450Y1996484D01*
X1823724Y1997935D01*
Y2000837D01*
X1824450Y2002288D01*
X1825175Y2003014D01*
X1826627Y2003739D01*
X1828078D01*
X1829529Y2003014D01*
X1831705Y2001563D01*
X1838961Y1994307D01*
Y2004465D01*
X1823724Y2012228D02*
X1824450Y2010052D01*
X1826627Y2008601D01*
X1830254Y2007875D01*
X1832431D01*
X1836059Y2008601D01*
X1838235Y2010052D01*
X1838961Y2012228D01*
Y2013680D01*
X1838235Y2015856D01*
X1836059Y2017307D01*
X1832431Y2018033D01*
X1830254D01*
X1826627Y2017307D01*
X1824450Y2015856D01*
X1823724Y2013680D01*
Y2012228D01*
X1827352Y2022168D02*
X1826627D01*
X1825175Y2022894D01*
X1824450Y2023620D01*
X1823724Y2025071D01*
Y2027973D01*
X1824450Y2029424D01*
X1825175Y2030150D01*
X1826627Y2030875D01*
X1828078D01*
X1829529Y2030150D01*
X1831705Y2028699D01*
X1838961Y2021443D01*
Y2031601D01*
X1826627Y2035011D02*
X1825901Y2036462D01*
X1823724Y2038639D01*
X1838961D01*
D13*
X166912Y470436D02*
X156755D01*
X166912D02*
Y464148D01*
X162076Y470436D02*
Y466566D01*
X163527Y462987D02*
X158689D01*
X157238Y462503D01*
X156755Y461536D01*
Y460085D01*
X157238Y459117D01*
X158689Y457666D01*
X163527D02*
X156755D01*
X162076Y449685D02*
X163043Y450169D01*
X163527Y451620D01*
Y453071D01*
X163043Y454522D01*
X162076Y455006D01*
X161108Y454522D01*
X160624Y453555D01*
X160141Y451136D01*
X159657Y450169D01*
X158689Y449685D01*
X158206D01*
X157238Y450169D01*
X156755Y451620D01*
Y453071D01*
X157238Y454522D01*
X158206Y455006D01*
X160624Y447557D02*
Y441752D01*
X161592D01*
X162559Y442236D01*
X163043Y442720D01*
X163527Y443687D01*
Y445138D01*
X163043Y446106D01*
X162076Y447073D01*
X160624Y447557D01*
X159657D01*
X158206Y447073D01*
X157238Y446106D01*
X156755Y445138D01*
Y443687D01*
X157238Y442720D01*
X158206Y441752D01*
X166912Y431594D02*
X156755D01*
X166912D02*
Y427241D01*
X166429Y425790D01*
X165945Y425306D01*
X164978Y424823D01*
X164010D01*
X163043Y425306D01*
X162559Y425790D01*
X162076Y427241D01*
Y431594D02*
Y427241D01*
X161592Y425790D01*
X161108Y425306D01*
X160141Y424823D01*
X158689D01*
X157722Y425306D01*
X157238Y425790D01*
X156755Y427241D01*
Y431594D01*
X163527Y420131D02*
X163043Y421098D01*
X162076Y422065D01*
X160624Y422549D01*
X159657D01*
X158206Y422065D01*
X157238Y421098D01*
X156755Y420131D01*
Y418680D01*
X157238Y417712D01*
X158206Y416745D01*
X159657Y416261D01*
X160624D01*
X162076Y416745D01*
X163043Y417712D01*
X163527Y418680D01*
Y420131D01*
Y408232D02*
X156755D01*
X162076D02*
X163043Y409199D01*
X163527Y410166D01*
Y411617D01*
X163043Y412585D01*
X162076Y413552D01*
X160624Y414036D01*
X159657D01*
X158206Y413552D01*
X157238Y412585D01*
X156755Y411617D01*
Y410166D01*
X157238Y409199D01*
X158206Y408232D01*
X163527Y405523D02*
X156755D01*
X160624D02*
X162076Y405039D01*
X163043Y404072D01*
X163527Y403104D01*
Y401653D01*
X166912Y394930D02*
X156755D01*
X162076D02*
X163043Y395897D01*
X163527Y396864D01*
Y398316D01*
X163043Y399283D01*
X162076Y400250D01*
X160624Y400734D01*
X159657D01*
X158206Y400250D01*
X157238Y399283D01*
X156755Y398316D01*
Y396864D01*
X157238Y395897D01*
X158206Y394930D01*
X163527Y384240D02*
X156755Y381337D01*
X163527Y378435D02*
X156755Y381337D01*
X164494Y376307D02*
X164978D01*
X165945Y375823D01*
X166429Y375340D01*
X166912Y374372D01*
Y372437D01*
X166429Y371470D01*
X165945Y370986D01*
X164978Y370502D01*
X164010D01*
X163043Y370986D01*
X161592Y371954D01*
X156755Y376791D01*
Y370019D01*
X157722Y367262D02*
X157238Y367745D01*
X156755Y367262D01*
X157238Y366778D01*
X157722Y367262D01*
X164978Y364553D02*
X165461Y363585D01*
X166912Y362134D01*
X156755D01*
X161108Y349123D02*
Y340416D01*
X166912Y329436D02*
X156755Y322664D01*
X166912D02*
X156755Y329436D01*
X166912Y317005D02*
X156755D01*
X166912Y320391D02*
Y313619D01*
X163527Y306121D02*
X162076Y306605D01*
X161108Y307572D01*
X160624Y309023D01*
Y309507D01*
X161108Y310958D01*
X162076Y311926D01*
X163527Y312409D01*
X164010D01*
X165461Y311926D01*
X166429Y310958D01*
X166912Y309507D01*
Y309023D01*
X166429Y307572D01*
X165461Y306605D01*
X163527Y306121D01*
X161108D01*
X158689Y306605D01*
X157238Y307572D01*
X156755Y309023D01*
Y309991D01*
X157238Y311442D01*
X158206Y311926D01*
X166912Y300462D02*
X166429Y301913D01*
X164978Y302880D01*
X162559Y303364D01*
X161108D01*
X158689Y302880D01*
X157238Y301913D01*
X156755Y300462D01*
Y299494D01*
X157238Y298043D01*
X158689Y297076D01*
X161108Y296592D01*
X162559D01*
X164978Y297076D01*
X166429Y298043D01*
X166912Y299494D01*
Y300462D01*
X161108Y294319D02*
Y285612D01*
X166912Y282613D02*
X156755Y275841D01*
X166912D02*
X156755Y282613D01*
X166912Y270182D02*
X156755D01*
X166912Y273568D02*
Y266796D01*
Y264619D02*
Y259298D01*
X163043Y262201D01*
Y260750D01*
X162559Y259782D01*
X162076Y259298D01*
X160624Y258815D01*
X159657D01*
X158206Y259298D01*
X157238Y260266D01*
X156755Y261717D01*
Y263168D01*
X157238Y264619D01*
X157722Y265103D01*
X158689Y265587D01*
X166912Y253639D02*
X166429Y255090D01*
X164978Y256058D01*
X162559Y256541D01*
X161108D01*
X158689Y256058D01*
X157238Y255090D01*
X156755Y253639D01*
Y252672D01*
X157238Y251221D01*
X158689Y250253D01*
X161108Y249769D01*
X162559D01*
X164978Y250253D01*
X166429Y251221D01*
X166912Y252672D01*
Y253639D01*
X150582Y470436D02*
X143326D01*
X141875Y469952D01*
X140908Y468985D01*
X140424Y467534D01*
Y466566D01*
X140908Y465115D01*
X141875Y464148D01*
X143326Y463664D01*
X150582D01*
X148163Y453603D02*
X149131Y454087D01*
X150098Y455054D01*
X150582Y456022D01*
Y457956D01*
X150098Y458924D01*
X149131Y459891D01*
X148163Y460375D01*
X146712Y460859D01*
X144294D01*
X142843Y460375D01*
X141875Y459891D01*
X140908Y458924D01*
X140424Y457956D01*
Y456022D01*
X140908Y455054D01*
X141875Y454087D01*
X142843Y453603D01*
X149131Y443977D02*
X150098Y444945D01*
X150582Y446396D01*
Y448331D01*
X150098Y449782D01*
X149131Y450749D01*
X148163D01*
X147196Y450266D01*
X146712Y449782D01*
X146229Y448814D01*
X145261Y445912D01*
X144777Y444945D01*
X144294Y444461D01*
X143326Y443977D01*
X141875D01*
X140908Y444945D01*
X140424Y446396D01*
Y448331D01*
X140908Y449782D01*
X141875Y450749D01*
X150582Y441704D02*
X140424D01*
X150582D02*
Y438318D01*
X150098Y436867D01*
X149131Y435899D01*
X148163Y435416D01*
X146712Y434932D01*
X144294D01*
X142843Y435416D01*
X141875Y435899D01*
X140908Y436867D01*
X140424Y438318D01*
Y441704D01*
X150582Y421292D02*
X140424D01*
X150582Y424678D02*
Y417906D01*
X147196Y416696D02*
X140424D01*
X144294D02*
X145745Y416213D01*
X146712Y415245D01*
X147196Y414278D01*
Y412827D01*
X150582Y410940D02*
X150098Y410457D01*
X150582Y409973D01*
X151066Y410457D01*
X150582Y410940D01*
X147196Y410457D02*
X140424D01*
X150582Y406732D02*
X142359D01*
X140908Y406248D01*
X140424Y405281D01*
Y404314D01*
X147196Y408183D02*
Y404797D01*
Y400444D02*
X146712Y401411D01*
X145745Y402379D01*
X144294Y402862D01*
X143326D01*
X141875Y402379D01*
X140908Y401411D01*
X140424Y400444D01*
Y398993D01*
X140908Y398025D01*
X141875Y397058D01*
X143326Y396574D01*
X144294D01*
X145745Y397058D01*
X146712Y398025D01*
X147196Y398993D01*
Y400444D01*
Y394349D02*
X140424D01*
X145261D02*
X146712Y392898D01*
X147196Y391931D01*
Y390480D01*
X146712Y389512D01*
X145261Y389028D01*
X140424D01*
Y378629D02*
X150582Y382498D01*
X140424Y386368D01*
X143810Y384917D02*
Y380080D01*
X150582Y376259D02*
X140424D01*
X166912Y1054636D02*
X156755D01*
X166912D02*
Y1048348D01*
X162076Y1054636D02*
Y1050766D01*
X163527Y1047187D02*
X158689D01*
X157238Y1046703D01*
X156755Y1045736D01*
Y1044285D01*
X157238Y1043317D01*
X158689Y1041866D01*
X163527D02*
X156755D01*
X162076Y1033885D02*
X163043Y1034369D01*
X163527Y1035820D01*
Y1037271D01*
X163043Y1038722D01*
X162076Y1039206D01*
X161108Y1038722D01*
X160624Y1037755D01*
X160141Y1035336D01*
X159657Y1034369D01*
X158689Y1033885D01*
X158206D01*
X157238Y1034369D01*
X156755Y1035820D01*
Y1037271D01*
X157238Y1038722D01*
X158206Y1039206D01*
X160624Y1031757D02*
Y1025952D01*
X161592D01*
X162559Y1026436D01*
X163043Y1026920D01*
X163527Y1027887D01*
Y1029338D01*
X163043Y1030306D01*
X162076Y1031273D01*
X160624Y1031757D01*
X159657D01*
X158206Y1031273D01*
X157238Y1030306D01*
X156755Y1029338D01*
Y1027887D01*
X157238Y1026920D01*
X158206Y1025952D01*
X166912Y1015794D02*
X156755D01*
X166912D02*
Y1011441D01*
X166429Y1009990D01*
X165945Y1009506D01*
X164978Y1009023D01*
X164010D01*
X163043Y1009506D01*
X162559Y1009990D01*
X162076Y1011441D01*
Y1015794D02*
Y1011441D01*
X161592Y1009990D01*
X161108Y1009506D01*
X160141Y1009023D01*
X158689D01*
X157722Y1009506D01*
X157238Y1009990D01*
X156755Y1011441D01*
Y1015794D01*
X163527Y1004331D02*
X163043Y1005298D01*
X162076Y1006265D01*
X160624Y1006749D01*
X159657D01*
X158206Y1006265D01*
X157238Y1005298D01*
X156755Y1004331D01*
Y1002879D01*
X157238Y1001912D01*
X158206Y1000945D01*
X159657Y1000461D01*
X160624D01*
X162076Y1000945D01*
X163043Y1001912D01*
X163527Y1002879D01*
Y1004331D01*
Y992431D02*
X156755D01*
X162076D02*
X163043Y993399D01*
X163527Y994366D01*
Y995817D01*
X163043Y996785D01*
X162076Y997752D01*
X160624Y998236D01*
X159657D01*
X158206Y997752D01*
X157238Y996785D01*
X156755Y995817D01*
Y994366D01*
X157238Y993399D01*
X158206Y992431D01*
X163527Y989723D02*
X156755D01*
X160624D02*
X162076Y989239D01*
X163043Y988272D01*
X163527Y987304D01*
Y985853D01*
X166912Y979130D02*
X156755D01*
X162076D02*
X163043Y980097D01*
X163527Y981064D01*
Y982515D01*
X163043Y983483D01*
X162076Y984450D01*
X160624Y984934D01*
X159657D01*
X158206Y984450D01*
X157238Y983483D01*
X156755Y982515D01*
Y981064D01*
X157238Y980097D01*
X158206Y979130D01*
X163527Y968440D02*
X156755Y965537D01*
X163527Y962635D02*
X156755Y965537D01*
X164494Y960507D02*
X164978D01*
X165945Y960023D01*
X166429Y959539D01*
X166912Y958572D01*
Y956637D01*
X166429Y955670D01*
X165945Y955186D01*
X164978Y954702D01*
X164010D01*
X163043Y955186D01*
X161592Y956153D01*
X156755Y960991D01*
Y954219D01*
X157722Y951462D02*
X157238Y951945D01*
X156755Y951462D01*
X157238Y950978D01*
X157722Y951462D01*
X164978Y948753D02*
X165461Y947785D01*
X166912Y946334D01*
X156755D01*
X161108Y933323D02*
Y924616D01*
X166912Y913636D02*
X156755Y906864D01*
X166912D02*
X156755Y913636D01*
X166912Y901205D02*
X156755D01*
X166912Y904591D02*
Y897819D01*
X163527Y890321D02*
X162076Y890805D01*
X161108Y891772D01*
X160624Y893223D01*
Y893707D01*
X161108Y895158D01*
X162076Y896126D01*
X163527Y896609D01*
X164010D01*
X165461Y896126D01*
X166429Y895158D01*
X166912Y893707D01*
Y893223D01*
X166429Y891772D01*
X165461Y890805D01*
X163527Y890321D01*
X161108D01*
X158689Y890805D01*
X157238Y891772D01*
X156755Y893223D01*
Y894191D01*
X157238Y895642D01*
X158206Y896126D01*
X166912Y884662D02*
X166429Y886113D01*
X164978Y887080D01*
X162559Y887564D01*
X161108D01*
X158689Y887080D01*
X157238Y886113D01*
X156755Y884662D01*
Y883694D01*
X157238Y882243D01*
X158689Y881276D01*
X161108Y880792D01*
X162559D01*
X164978Y881276D01*
X166429Y882243D01*
X166912Y883694D01*
Y884662D01*
X161108Y878519D02*
Y869812D01*
X166912Y866813D02*
X156755Y860041D01*
X166912D02*
X156755Y866813D01*
X166912Y854382D02*
X156755D01*
X166912Y857768D02*
Y850996D01*
Y848819D02*
Y843499D01*
X163043Y846401D01*
Y844950D01*
X162559Y843982D01*
X162076Y843499D01*
X160624Y843015D01*
X159657D01*
X158206Y843499D01*
X157238Y844466D01*
X156755Y845917D01*
Y847368D01*
X157238Y848819D01*
X157722Y849303D01*
X158689Y849787D01*
X166912Y837839D02*
X166429Y839290D01*
X164978Y840258D01*
X162559Y840741D01*
X161108D01*
X158689Y840258D01*
X157238Y839290D01*
X156755Y837839D01*
Y836872D01*
X157238Y835421D01*
X158689Y834453D01*
X161108Y833969D01*
X162559D01*
X164978Y834453D01*
X166429Y835421D01*
X166912Y836872D01*
Y837839D01*
X150582Y1054636D02*
X143326D01*
X141875Y1054152D01*
X140908Y1053185D01*
X140424Y1051734D01*
Y1050766D01*
X140908Y1049315D01*
X141875Y1048348D01*
X143326Y1047864D01*
X150582D01*
X148163Y1037803D02*
X149131Y1038287D01*
X150098Y1039254D01*
X150582Y1040222D01*
Y1042156D01*
X150098Y1043124D01*
X149131Y1044091D01*
X148163Y1044575D01*
X146712Y1045059D01*
X144294D01*
X142843Y1044575D01*
X141875Y1044091D01*
X140908Y1043124D01*
X140424Y1042156D01*
Y1040222D01*
X140908Y1039254D01*
X141875Y1038287D01*
X142843Y1037803D01*
X149131Y1028177D02*
X150098Y1029145D01*
X150582Y1030596D01*
Y1032531D01*
X150098Y1033982D01*
X149131Y1034949D01*
X148163D01*
X147196Y1034465D01*
X146712Y1033982D01*
X146229Y1033014D01*
X145261Y1030112D01*
X144777Y1029145D01*
X144294Y1028661D01*
X143326Y1028177D01*
X141875D01*
X140908Y1029145D01*
X140424Y1030596D01*
Y1032531D01*
X140908Y1033982D01*
X141875Y1034949D01*
X150582Y1025904D02*
X140424D01*
X150582D02*
Y1022518D01*
X150098Y1021067D01*
X149131Y1020099D01*
X148163Y1019616D01*
X146712Y1019132D01*
X144294D01*
X142843Y1019616D01*
X141875Y1020099D01*
X140908Y1021067D01*
X140424Y1022518D01*
Y1025904D01*
X150582Y1005491D02*
X140424D01*
X150582Y1008877D02*
Y1002106D01*
X147196Y1000896D02*
X140424D01*
X144294D02*
X145745Y1000413D01*
X146712Y999445D01*
X147196Y998478D01*
Y997027D01*
X150582Y995140D02*
X150098Y994657D01*
X150582Y994173D01*
X151066Y994657D01*
X150582Y995140D01*
X147196Y994657D02*
X140424D01*
X150582Y990932D02*
X142359D01*
X140908Y990448D01*
X140424Y989481D01*
Y988513D01*
X147196Y992383D02*
Y988997D01*
Y984644D02*
X146712Y985611D01*
X145745Y986579D01*
X144294Y987062D01*
X143326D01*
X141875Y986579D01*
X140908Y985611D01*
X140424Y984644D01*
Y983193D01*
X140908Y982225D01*
X141875Y981258D01*
X143326Y980774D01*
X144294D01*
X145745Y981258D01*
X146712Y982225D01*
X147196Y983193D01*
Y984644D01*
Y978549D02*
X140424D01*
X145261D02*
X146712Y977098D01*
X147196Y976131D01*
Y974679D01*
X146712Y973712D01*
X145261Y973228D01*
X140424D01*
Y962829D02*
X150582Y966698D01*
X140424Y970568D01*
X143810Y969117D02*
Y964280D01*
X150582Y960459D02*
X140424D01*
X166912Y1638836D02*
X156755D01*
X166912D02*
Y1632548D01*
X162076Y1638836D02*
Y1634966D01*
X163527Y1631387D02*
X158689D01*
X157238Y1630903D01*
X156755Y1629936D01*
Y1628485D01*
X157238Y1627517D01*
X158689Y1626066D01*
X163527D02*
X156755D01*
X162076Y1618085D02*
X163043Y1618569D01*
X163527Y1620020D01*
Y1621471D01*
X163043Y1622922D01*
X162076Y1623406D01*
X161108Y1622922D01*
X160624Y1621955D01*
X160141Y1619536D01*
X159657Y1618569D01*
X158689Y1618085D01*
X158206D01*
X157238Y1618569D01*
X156755Y1620020D01*
Y1621471D01*
X157238Y1622922D01*
X158206Y1623406D01*
X160624Y1615957D02*
Y1610152D01*
X161592D01*
X162559Y1610636D01*
X163043Y1611120D01*
X163527Y1612087D01*
Y1613538D01*
X163043Y1614506D01*
X162076Y1615473D01*
X160624Y1615957D01*
X159657D01*
X158206Y1615473D01*
X157238Y1614506D01*
X156755Y1613538D01*
Y1612087D01*
X157238Y1611120D01*
X158206Y1610152D01*
X166912Y1599994D02*
X156755D01*
X166912D02*
Y1595641D01*
X166429Y1594190D01*
X165945Y1593706D01*
X164978Y1593223D01*
X164010D01*
X163043Y1593706D01*
X162559Y1594190D01*
X162076Y1595641D01*
Y1599994D02*
Y1595641D01*
X161592Y1594190D01*
X161108Y1593706D01*
X160141Y1593223D01*
X158689D01*
X157722Y1593706D01*
X157238Y1594190D01*
X156755Y1595641D01*
Y1599994D01*
X163527Y1588531D02*
X163043Y1589498D01*
X162076Y1590465D01*
X160624Y1590949D01*
X159657D01*
X158206Y1590465D01*
X157238Y1589498D01*
X156755Y1588531D01*
Y1587079D01*
X157238Y1586112D01*
X158206Y1585145D01*
X159657Y1584661D01*
X160624D01*
X162076Y1585145D01*
X163043Y1586112D01*
X163527Y1587079D01*
Y1588531D01*
Y1576631D02*
X156755D01*
X162076D02*
X163043Y1577599D01*
X163527Y1578566D01*
Y1580017D01*
X163043Y1580985D01*
X162076Y1581952D01*
X160624Y1582436D01*
X159657D01*
X158206Y1581952D01*
X157238Y1580985D01*
X156755Y1580017D01*
Y1578566D01*
X157238Y1577599D01*
X158206Y1576631D01*
X163527Y1573923D02*
X156755D01*
X160624D02*
X162076Y1573439D01*
X163043Y1572472D01*
X163527Y1571504D01*
Y1570053D01*
X166912Y1563330D02*
X156755D01*
X162076D02*
X163043Y1564297D01*
X163527Y1565264D01*
Y1566716D01*
X163043Y1567683D01*
X162076Y1568650D01*
X160624Y1569134D01*
X159657D01*
X158206Y1568650D01*
X157238Y1567683D01*
X156755Y1566716D01*
Y1565264D01*
X157238Y1564297D01*
X158206Y1563330D01*
X163527Y1552640D02*
X156755Y1549737D01*
X163527Y1546835D02*
X156755Y1549737D01*
X164494Y1544707D02*
X164978D01*
X165945Y1544223D01*
X166429Y1543739D01*
X166912Y1542772D01*
Y1540837D01*
X166429Y1539870D01*
X165945Y1539386D01*
X164978Y1538902D01*
X164010D01*
X163043Y1539386D01*
X161592Y1540354D01*
X156755Y1545191D01*
Y1538419D01*
X157722Y1535662D02*
X157238Y1536145D01*
X156755Y1535662D01*
X157238Y1535178D01*
X157722Y1535662D01*
X164978Y1532953D02*
X165461Y1531985D01*
X166912Y1530534D01*
X156755D01*
X161108Y1517523D02*
Y1508816D01*
X166912Y1497836D02*
X156755Y1491064D01*
X166912D02*
X156755Y1497836D01*
X166912Y1485405D02*
X156755D01*
X166912Y1488790D02*
Y1482019D01*
X163527Y1474521D02*
X162076Y1475005D01*
X161108Y1475972D01*
X160624Y1477423D01*
Y1477907D01*
X161108Y1479358D01*
X162076Y1480326D01*
X163527Y1480809D01*
X164010D01*
X165461Y1480326D01*
X166429Y1479358D01*
X166912Y1477907D01*
Y1477423D01*
X166429Y1475972D01*
X165461Y1475005D01*
X163527Y1474521D01*
X161108D01*
X158689Y1475005D01*
X157238Y1475972D01*
X156755Y1477423D01*
Y1478391D01*
X157238Y1479842D01*
X158206Y1480326D01*
X166912Y1468862D02*
X166429Y1470313D01*
X164978Y1471280D01*
X162559Y1471764D01*
X161108D01*
X158689Y1471280D01*
X157238Y1470313D01*
X156755Y1468862D01*
Y1467894D01*
X157238Y1466443D01*
X158689Y1465476D01*
X161108Y1464992D01*
X162559D01*
X164978Y1465476D01*
X166429Y1466443D01*
X166912Y1467894D01*
Y1468862D01*
X161108Y1462719D02*
Y1454012D01*
X166912Y1451013D02*
X156755Y1444241D01*
X166912D02*
X156755Y1451013D01*
X166912Y1438582D02*
X156755D01*
X166912Y1441968D02*
Y1435196D01*
Y1433019D02*
Y1427699D01*
X163043Y1430601D01*
Y1429150D01*
X162559Y1428182D01*
X162076Y1427699D01*
X160624Y1427215D01*
X159657D01*
X158206Y1427699D01*
X157238Y1428666D01*
X156755Y1430117D01*
Y1431568D01*
X157238Y1433019D01*
X157722Y1433503D01*
X158689Y1433987D01*
X166912Y1422039D02*
X166429Y1423490D01*
X164978Y1424458D01*
X162559Y1424941D01*
X161108D01*
X158689Y1424458D01*
X157238Y1423490D01*
X156755Y1422039D01*
Y1421072D01*
X157238Y1419621D01*
X158689Y1418653D01*
X161108Y1418170D01*
X162559D01*
X164978Y1418653D01*
X166429Y1419621D01*
X166912Y1421072D01*
Y1422039D01*
X150582Y1638836D02*
X143326D01*
X141875Y1638352D01*
X140908Y1637385D01*
X140424Y1635934D01*
Y1634966D01*
X140908Y1633515D01*
X141875Y1632548D01*
X143326Y1632064D01*
X150582D01*
X148163Y1622003D02*
X149131Y1622487D01*
X150098Y1623454D01*
X150582Y1624422D01*
Y1626356D01*
X150098Y1627324D01*
X149131Y1628291D01*
X148163Y1628775D01*
X146712Y1629259D01*
X144294D01*
X142843Y1628775D01*
X141875Y1628291D01*
X140908Y1627324D01*
X140424Y1626356D01*
Y1624422D01*
X140908Y1623454D01*
X141875Y1622487D01*
X142843Y1622003D01*
X149131Y1612377D02*
X150098Y1613345D01*
X150582Y1614796D01*
Y1616731D01*
X150098Y1618182D01*
X149131Y1619149D01*
X148163D01*
X147196Y1618665D01*
X146712Y1618182D01*
X146229Y1617214D01*
X145261Y1614312D01*
X144777Y1613345D01*
X144294Y1612861D01*
X143326Y1612377D01*
X141875D01*
X140908Y1613345D01*
X140424Y1614796D01*
Y1616731D01*
X140908Y1618182D01*
X141875Y1619149D01*
X150582Y1610104D02*
X140424D01*
X150582D02*
Y1606718D01*
X150098Y1605267D01*
X149131Y1604299D01*
X148163Y1603816D01*
X146712Y1603332D01*
X144294D01*
X142843Y1603816D01*
X141875Y1604299D01*
X140908Y1605267D01*
X140424Y1606718D01*
Y1610104D01*
X150582Y1589691D02*
X140424D01*
X150582Y1593078D02*
Y1586306D01*
X147196Y1585096D02*
X140424D01*
X144294D02*
X145745Y1584613D01*
X146712Y1583645D01*
X147196Y1582678D01*
Y1581227D01*
X150582Y1579340D02*
X150098Y1578857D01*
X150582Y1578373D01*
X151066Y1578857D01*
X150582Y1579340D01*
X147196Y1578857D02*
X140424D01*
X150582Y1575132D02*
X142359D01*
X140908Y1574648D01*
X140424Y1573681D01*
Y1572713D01*
X147196Y1576583D02*
Y1573197D01*
Y1568844D02*
X146712Y1569811D01*
X145745Y1570779D01*
X144294Y1571262D01*
X143326D01*
X141875Y1570779D01*
X140908Y1569811D01*
X140424Y1568844D01*
Y1567393D01*
X140908Y1566425D01*
X141875Y1565458D01*
X143326Y1564974D01*
X144294D01*
X145745Y1565458D01*
X146712Y1566425D01*
X147196Y1567393D01*
Y1568844D01*
Y1562749D02*
X140424D01*
X145261D02*
X146712Y1561298D01*
X147196Y1560331D01*
Y1558880D01*
X146712Y1557912D01*
X145261Y1557428D01*
X140424D01*
Y1547029D02*
X150582Y1550898D01*
X140424Y1554768D01*
X143810Y1553317D02*
Y1548480D01*
X150582Y1544659D02*
X140424D01*
X166912Y2223036D02*
X156755D01*
X166912D02*
Y2216748D01*
X162076Y2223036D02*
Y2219166D01*
X163527Y2215587D02*
X158689D01*
X157238Y2215103D01*
X156755Y2214136D01*
Y2212685D01*
X157238Y2211717D01*
X158689Y2210266D01*
X163527D02*
X156755D01*
X162076Y2202285D02*
X163043Y2202769D01*
X163527Y2204220D01*
Y2205671D01*
X163043Y2207122D01*
X162076Y2207606D01*
X161108Y2207122D01*
X160624Y2206155D01*
X160141Y2203736D01*
X159657Y2202769D01*
X158689Y2202285D01*
X158206D01*
X157238Y2202769D01*
X156755Y2204220D01*
Y2205671D01*
X157238Y2207122D01*
X158206Y2207606D01*
X160624Y2200157D02*
Y2194352D01*
X161592D01*
X162559Y2194836D01*
X163043Y2195320D01*
X163527Y2196287D01*
Y2197738D01*
X163043Y2198706D01*
X162076Y2199673D01*
X160624Y2200157D01*
X159657D01*
X158206Y2199673D01*
X157238Y2198706D01*
X156755Y2197738D01*
Y2196287D01*
X157238Y2195320D01*
X158206Y2194352D01*
X166912Y2184194D02*
X156755D01*
X166912D02*
Y2179841D01*
X166429Y2178390D01*
X165945Y2177906D01*
X164978Y2177422D01*
X164010D01*
X163043Y2177906D01*
X162559Y2178390D01*
X162076Y2179841D01*
Y2184194D02*
Y2179841D01*
X161592Y2178390D01*
X161108Y2177906D01*
X160141Y2177422D01*
X158689D01*
X157722Y2177906D01*
X157238Y2178390D01*
X156755Y2179841D01*
Y2184194D01*
X163527Y2172731D02*
X163043Y2173698D01*
X162076Y2174665D01*
X160624Y2175149D01*
X159657D01*
X158206Y2174665D01*
X157238Y2173698D01*
X156755Y2172731D01*
Y2171279D01*
X157238Y2170312D01*
X158206Y2169345D01*
X159657Y2168861D01*
X160624D01*
X162076Y2169345D01*
X163043Y2170312D01*
X163527Y2171279D01*
Y2172731D01*
Y2160831D02*
X156755D01*
X162076D02*
X163043Y2161799D01*
X163527Y2162766D01*
Y2164217D01*
X163043Y2165185D01*
X162076Y2166152D01*
X160624Y2166636D01*
X159657D01*
X158206Y2166152D01*
X157238Y2165185D01*
X156755Y2164217D01*
Y2162766D01*
X157238Y2161799D01*
X158206Y2160831D01*
X163527Y2158123D02*
X156755D01*
X160624D02*
X162076Y2157639D01*
X163043Y2156672D01*
X163527Y2155704D01*
Y2154253D01*
X166912Y2147530D02*
X156755D01*
X162076D02*
X163043Y2148497D01*
X163527Y2149464D01*
Y2150916D01*
X163043Y2151883D01*
X162076Y2152850D01*
X160624Y2153334D01*
X159657D01*
X158206Y2152850D01*
X157238Y2151883D01*
X156755Y2150916D01*
Y2149464D01*
X157238Y2148497D01*
X158206Y2147530D01*
X163527Y2136840D02*
X156755Y2133937D01*
X163527Y2131035D02*
X156755Y2133937D01*
X164494Y2128907D02*
X164978D01*
X165945Y2128423D01*
X166429Y2127939D01*
X166912Y2126972D01*
Y2125037D01*
X166429Y2124070D01*
X165945Y2123586D01*
X164978Y2123102D01*
X164010D01*
X163043Y2123586D01*
X161592Y2124554D01*
X156755Y2129391D01*
Y2122619D01*
X157722Y2119862D02*
X157238Y2120345D01*
X156755Y2119862D01*
X157238Y2119378D01*
X157722Y2119862D01*
X164978Y2117153D02*
X165461Y2116185D01*
X166912Y2114734D01*
X156755D01*
X161108Y2101723D02*
Y2093016D01*
X166912Y2082036D02*
X156755Y2075264D01*
X166912D02*
X156755Y2082036D01*
X166912Y2069604D02*
X156755D01*
X166912Y2072991D02*
Y2066219D01*
X163527Y2058721D02*
X162076Y2059205D01*
X161108Y2060172D01*
X160624Y2061623D01*
Y2062107D01*
X161108Y2063558D01*
X162076Y2064526D01*
X163527Y2065009D01*
X164010D01*
X165461Y2064526D01*
X166429Y2063558D01*
X166912Y2062107D01*
Y2061623D01*
X166429Y2060172D01*
X165461Y2059205D01*
X163527Y2058721D01*
X161108D01*
X158689Y2059205D01*
X157238Y2060172D01*
X156755Y2061623D01*
Y2062591D01*
X157238Y2064042D01*
X158206Y2064526D01*
X166912Y2053062D02*
X166429Y2054513D01*
X164978Y2055480D01*
X162559Y2055964D01*
X161108D01*
X158689Y2055480D01*
X157238Y2054513D01*
X156755Y2053062D01*
Y2052094D01*
X157238Y2050643D01*
X158689Y2049676D01*
X161108Y2049192D01*
X162559D01*
X164978Y2049676D01*
X166429Y2050643D01*
X166912Y2052094D01*
Y2053062D01*
X161108Y2046919D02*
Y2038212D01*
X166912Y2035213D02*
X156755Y2028441D01*
X166912D02*
X156755Y2035213D01*
X166912Y2022782D02*
X156755D01*
X166912Y2026168D02*
Y2019396D01*
Y2017219D02*
Y2011898D01*
X163043Y2014801D01*
Y2013350D01*
X162559Y2012382D01*
X162076Y2011898D01*
X160624Y2011415D01*
X159657D01*
X158206Y2011898D01*
X157238Y2012866D01*
X156755Y2014317D01*
Y2015768D01*
X157238Y2017219D01*
X157722Y2017703D01*
X158689Y2018187D01*
X166912Y2006239D02*
X166429Y2007690D01*
X164978Y2008658D01*
X162559Y2009141D01*
X161108D01*
X158689Y2008658D01*
X157238Y2007690D01*
X156755Y2006239D01*
Y2005272D01*
X157238Y2003821D01*
X158689Y2002853D01*
X161108Y2002370D01*
X162559D01*
X164978Y2002853D01*
X166429Y2003821D01*
X166912Y2005272D01*
Y2006239D01*
X150582Y2223036D02*
X143326D01*
X141875Y2222552D01*
X140908Y2221585D01*
X140424Y2220134D01*
Y2219166D01*
X140908Y2217715D01*
X141875Y2216748D01*
X143326Y2216264D01*
X150582D01*
X148163Y2206203D02*
X149131Y2206687D01*
X150098Y2207654D01*
X150582Y2208622D01*
Y2210556D01*
X150098Y2211524D01*
X149131Y2212491D01*
X148163Y2212975D01*
X146712Y2213459D01*
X144294D01*
X142843Y2212975D01*
X141875Y2212491D01*
X140908Y2211524D01*
X140424Y2210556D01*
Y2208622D01*
X140908Y2207654D01*
X141875Y2206687D01*
X142843Y2206203D01*
X149131Y2196577D02*
X150098Y2197545D01*
X150582Y2198996D01*
Y2200931D01*
X150098Y2202382D01*
X149131Y2203349D01*
X148163D01*
X147196Y2202865D01*
X146712Y2202382D01*
X146229Y2201414D01*
X145261Y2198512D01*
X144777Y2197545D01*
X144294Y2197061D01*
X143326Y2196577D01*
X141875D01*
X140908Y2197545D01*
X140424Y2198996D01*
Y2200931D01*
X140908Y2202382D01*
X141875Y2203349D01*
X150582Y2194304D02*
X140424D01*
X150582D02*
Y2190918D01*
X150098Y2189467D01*
X149131Y2188499D01*
X148163Y2188016D01*
X146712Y2187532D01*
X144294D01*
X142843Y2188016D01*
X141875Y2188499D01*
X140908Y2189467D01*
X140424Y2190918D01*
Y2194304D01*
X150582Y2173891D02*
X140424D01*
X150582Y2177278D02*
Y2170506D01*
X147196Y2169296D02*
X140424D01*
X144294D02*
X145745Y2168813D01*
X146712Y2167845D01*
X147196Y2166878D01*
Y2165427D01*
X150582Y2163540D02*
X150098Y2163056D01*
X150582Y2162573D01*
X151066Y2163056D01*
X150582Y2163540D01*
X147196Y2163056D02*
X140424D01*
X150582Y2159332D02*
X142359D01*
X140908Y2158848D01*
X140424Y2157881D01*
Y2156913D01*
X147196Y2160783D02*
Y2157397D01*
Y2153044D02*
X146712Y2154011D01*
X145745Y2154979D01*
X144294Y2155462D01*
X143326D01*
X141875Y2154979D01*
X140908Y2154011D01*
X140424Y2153044D01*
Y2151593D01*
X140908Y2150625D01*
X141875Y2149658D01*
X143326Y2149174D01*
X144294D01*
X145745Y2149658D01*
X146712Y2150625D01*
X147196Y2151593D01*
Y2153044D01*
Y2146949D02*
X140424D01*
X145261D02*
X146712Y2145498D01*
X147196Y2144531D01*
Y2143080D01*
X146712Y2142112D01*
X145261Y2141628D01*
X140424D01*
Y2131229D02*
X150582Y2135098D01*
X140424Y2138968D01*
X143810Y2137517D02*
Y2132680D01*
X150582Y2128858D02*
X140424D01*
X1842516Y1381687D02*
Y1391845D01*
Y1381687D02*
X1836228D01*
X1842516Y1386525D02*
X1838646D01*
X1835067Y1385073D02*
Y1389910D01*
X1834583Y1391362D01*
X1833616Y1391845D01*
X1832165D01*
X1831197Y1391362D01*
X1829746Y1389910D01*
Y1385073D02*
Y1391845D01*
X1821765Y1386525D02*
X1822249Y1385557D01*
X1823700Y1385073D01*
X1825151D01*
X1826602Y1385557D01*
X1827086Y1386525D01*
X1826602Y1387492D01*
X1825635Y1387976D01*
X1823216Y1388459D01*
X1822249Y1388943D01*
X1821765Y1389910D01*
Y1390394D01*
X1822249Y1391362D01*
X1823700Y1391845D01*
X1825151D01*
X1826602Y1391362D01*
X1827086Y1390394D01*
X1819637Y1387976D02*
X1813832D01*
Y1387008D01*
X1814316Y1386041D01*
X1814800Y1385557D01*
X1815767Y1385073D01*
X1817218D01*
X1818186Y1385557D01*
X1819153Y1386525D01*
X1819637Y1387976D01*
Y1388943D01*
X1819153Y1390394D01*
X1818186Y1391362D01*
X1817218Y1391845D01*
X1815767D01*
X1814800Y1391362D01*
X1813832Y1390394D01*
X1803674Y1381687D02*
Y1391845D01*
Y1381687D02*
X1799321D01*
X1797870Y1382171D01*
X1797386Y1382655D01*
X1796902Y1383622D01*
Y1384590D01*
X1797386Y1385557D01*
X1797870Y1386041D01*
X1799321Y1386525D01*
X1803674D02*
X1799321D01*
X1797870Y1387008D01*
X1797386Y1387492D01*
X1796902Y1388459D01*
Y1389910D01*
X1797386Y1390878D01*
X1797870Y1391362D01*
X1799321Y1391845D01*
X1803674D01*
X1792211Y1385073D02*
X1793178Y1385557D01*
X1794145Y1386525D01*
X1794629Y1387976D01*
Y1388943D01*
X1794145Y1390394D01*
X1793178Y1391362D01*
X1792211Y1391845D01*
X1790759D01*
X1789792Y1391362D01*
X1788825Y1390394D01*
X1788341Y1388943D01*
Y1387976D01*
X1788825Y1386525D01*
X1789792Y1385557D01*
X1790759Y1385073D01*
X1792211D01*
X1780311D02*
Y1391845D01*
Y1386525D02*
X1781279Y1385557D01*
X1782246Y1385073D01*
X1783697D01*
X1784665Y1385557D01*
X1785632Y1386525D01*
X1786116Y1387976D01*
Y1388943D01*
X1785632Y1390394D01*
X1784665Y1391362D01*
X1783697Y1391845D01*
X1782246D01*
X1781279Y1391362D01*
X1780311Y1390394D01*
X1777603Y1385073D02*
Y1391845D01*
Y1387976D02*
X1777119Y1386525D01*
X1776152Y1385557D01*
X1775184Y1385073D01*
X1773733D01*
X1767009Y1381687D02*
Y1391845D01*
Y1386525D02*
X1767977Y1385557D01*
X1768944Y1385073D01*
X1770396D01*
X1771363Y1385557D01*
X1772330Y1386525D01*
X1772814Y1387976D01*
Y1388943D01*
X1772330Y1390394D01*
X1771363Y1391362D01*
X1770396Y1391845D01*
X1768944D01*
X1767977Y1391362D01*
X1767009Y1390394D01*
X1756320Y1385073D02*
X1753417Y1391845D01*
X1750515Y1385073D02*
X1753417Y1391845D01*
X1748387Y1384106D02*
Y1383622D01*
X1747903Y1382655D01*
X1747419Y1382171D01*
X1746452Y1381687D01*
X1744517D01*
X1743550Y1382171D01*
X1743066Y1382655D01*
X1742582Y1383622D01*
Y1384590D01*
X1743066Y1385557D01*
X1744034Y1387008D01*
X1748871Y1391845D01*
X1742099D01*
X1739342Y1390878D02*
X1739825Y1391362D01*
X1739342Y1391845D01*
X1738858Y1391362D01*
X1739342Y1390878D01*
X1736633Y1383622D02*
X1735665Y1383139D01*
X1734214Y1381687D01*
Y1391845D01*
X1721203Y1387492D02*
X1712496D01*
X1701516Y1381687D02*
X1694744Y1391845D01*
Y1381687D02*
X1701516Y1391845D01*
X1689084Y1381687D02*
Y1391845D01*
X1692471Y1381687D02*
X1685699D01*
X1678201Y1385073D02*
X1678685Y1386525D01*
X1679652Y1387492D01*
X1681103Y1387976D01*
X1681587D01*
X1683038Y1387492D01*
X1684006Y1386525D01*
X1684489Y1385073D01*
Y1384590D01*
X1684006Y1383139D01*
X1683038Y1382171D01*
X1681587Y1381687D01*
X1681103D01*
X1679652Y1382171D01*
X1678685Y1383139D01*
X1678201Y1385073D01*
Y1387492D01*
X1678685Y1389910D01*
X1679652Y1391362D01*
X1681103Y1391845D01*
X1682071D01*
X1683522Y1391362D01*
X1684006Y1390394D01*
X1672542Y1381687D02*
X1673993Y1382171D01*
X1674960Y1383622D01*
X1675444Y1386041D01*
Y1387492D01*
X1674960Y1389910D01*
X1673993Y1391362D01*
X1672542Y1391845D01*
X1671574D01*
X1670123Y1391362D01*
X1669156Y1389910D01*
X1668672Y1387492D01*
Y1386041D01*
X1669156Y1383622D01*
X1670123Y1382171D01*
X1671574Y1381687D01*
X1672542D01*
X1666399Y1387492D02*
X1657692D01*
X1654693Y1381687D02*
X1647921Y1391845D01*
Y1381687D02*
X1654693Y1391845D01*
X1642262Y1381687D02*
Y1391845D01*
X1645648Y1381687D02*
X1638876D01*
X1636699D02*
X1631378D01*
X1634281Y1385557D01*
X1632830D01*
X1631862Y1386041D01*
X1631378Y1386525D01*
X1630895Y1387976D01*
Y1388943D01*
X1631378Y1390394D01*
X1632346Y1391362D01*
X1633797Y1391845D01*
X1635248D01*
X1636699Y1391362D01*
X1637183Y1390878D01*
X1637667Y1389910D01*
X1625719Y1381687D02*
X1627170Y1382171D01*
X1628138Y1383622D01*
X1628621Y1386041D01*
Y1387492D01*
X1628138Y1389910D01*
X1627170Y1391362D01*
X1625719Y1391845D01*
X1624752D01*
X1623301Y1391362D01*
X1622333Y1389910D01*
X1621849Y1387492D01*
Y1386041D01*
X1622333Y1383622D01*
X1623301Y1382171D01*
X1624752Y1381687D01*
X1625719D01*
X1842516Y1398018D02*
Y1405274D01*
X1842032Y1406725D01*
X1841065Y1407692D01*
X1839614Y1408176D01*
X1838646D01*
X1837195Y1407692D01*
X1836228Y1406725D01*
X1835744Y1405274D01*
Y1398018D01*
X1825683Y1400437D02*
X1826167Y1399469D01*
X1827134Y1398502D01*
X1828102Y1398018D01*
X1830036D01*
X1831004Y1398502D01*
X1831971Y1399469D01*
X1832455Y1400437D01*
X1832939Y1401888D01*
Y1404306D01*
X1832455Y1405757D01*
X1831971Y1406725D01*
X1831004Y1407692D01*
X1830036Y1408176D01*
X1828102D01*
X1827134Y1407692D01*
X1826167Y1406725D01*
X1825683Y1405757D01*
X1816057Y1399469D02*
X1817025Y1398502D01*
X1818476Y1398018D01*
X1820411D01*
X1821862Y1398502D01*
X1822829Y1399469D01*
Y1400437D01*
X1822345Y1401404D01*
X1821862Y1401888D01*
X1820894Y1402372D01*
X1817992Y1403339D01*
X1817025Y1403823D01*
X1816541Y1404306D01*
X1816057Y1405274D01*
Y1406725D01*
X1817025Y1407692D01*
X1818476Y1408176D01*
X1820411D01*
X1821862Y1407692D01*
X1822829Y1406725D01*
X1813784Y1398018D02*
Y1408176D01*
Y1398018D02*
X1810398D01*
X1808947Y1398502D01*
X1807979Y1399469D01*
X1807496Y1400437D01*
X1807012Y1401888D01*
Y1404306D01*
X1807496Y1405757D01*
X1807979Y1406725D01*
X1808947Y1407692D01*
X1810398Y1408176D01*
X1813784D01*
X1793371Y1398018D02*
Y1408176D01*
X1796757Y1398018D02*
X1789986D01*
X1788776Y1401404D02*
Y1408176D01*
Y1404306D02*
X1788293Y1402855D01*
X1787325Y1401888D01*
X1786358Y1401404D01*
X1784907D01*
X1783020Y1398018D02*
X1782536Y1398502D01*
X1782053Y1398018D01*
X1782536Y1397534D01*
X1783020Y1398018D01*
X1782536Y1401404D02*
Y1408176D01*
X1778812Y1398018D02*
Y1406241D01*
X1778328Y1407692D01*
X1777361Y1408176D01*
X1776393D01*
X1780263Y1401404D02*
X1776877D01*
X1772524D02*
X1773491Y1401888D01*
X1774459Y1402855D01*
X1774942Y1404306D01*
Y1405274D01*
X1774459Y1406725D01*
X1773491Y1407692D01*
X1772524Y1408176D01*
X1771073D01*
X1770105Y1407692D01*
X1769138Y1406725D01*
X1768654Y1405274D01*
Y1404306D01*
X1769138Y1402855D01*
X1770105Y1401888D01*
X1771073Y1401404D01*
X1772524D01*
X1766429D02*
Y1408176D01*
Y1403339D02*
X1764978Y1401888D01*
X1764011Y1401404D01*
X1762560D01*
X1761592Y1401888D01*
X1761108Y1403339D01*
Y1408176D01*
X1750709D02*
X1754578Y1398018D01*
X1758448Y1408176D01*
X1756997Y1404790D02*
X1752160D01*
X1748338Y1398018D02*
Y1408176D01*
D35*
X215100Y543070D02*
D03*
Y573570D02*
D03*
X316700Y543070D02*
D03*
Y573570D02*
D03*
X443700Y543070D02*
D03*
Y573570D02*
D03*
X570700Y543070D02*
D03*
Y573570D02*
D03*
X697700Y543070D02*
D03*
Y573570D02*
D03*
X824700Y543070D02*
D03*
Y573570D02*
D03*
X951700Y543070D02*
D03*
Y573570D02*
D03*
X1078700Y543070D02*
D03*
Y573570D02*
D03*
X1205700Y543070D02*
D03*
Y573570D02*
D03*
X1332700Y543070D02*
D03*
Y573570D02*
D03*
X215100Y1127270D02*
D03*
Y1157770D02*
D03*
X316700Y1127270D02*
D03*
Y1157770D02*
D03*
X443700Y1127270D02*
D03*
Y1157770D02*
D03*
X570700Y1127270D02*
D03*
Y1157770D02*
D03*
X697700Y1127270D02*
D03*
Y1157770D02*
D03*
X824700Y1127270D02*
D03*
Y1157770D02*
D03*
X951700Y1127270D02*
D03*
Y1157770D02*
D03*
X1078700Y1127270D02*
D03*
Y1157770D02*
D03*
X1205700Y1127270D02*
D03*
Y1157770D02*
D03*
X1332700Y1127270D02*
D03*
Y1157770D02*
D03*
X215100Y1711470D02*
D03*
Y1741970D02*
D03*
X316700Y1711470D02*
D03*
Y1741970D02*
D03*
X443700Y1711470D02*
D03*
Y1741970D02*
D03*
X570700Y1711470D02*
D03*
Y1741970D02*
D03*
X697700Y1711470D02*
D03*
Y1741970D02*
D03*
X824700Y1711470D02*
D03*
Y1741970D02*
D03*
X951700Y1711470D02*
D03*
Y1741970D02*
D03*
X1078700Y1711470D02*
D03*
Y1741970D02*
D03*
X1205700Y1711470D02*
D03*
Y1741970D02*
D03*
X1332700Y1711470D02*
D03*
Y1741970D02*
D03*
X215100Y2295670D02*
D03*
Y2326170D02*
D03*
X316700Y2295670D02*
D03*
Y2326170D02*
D03*
X443700Y2295670D02*
D03*
Y2326170D02*
D03*
X570700Y2295670D02*
D03*
Y2326170D02*
D03*
X697700Y2295670D02*
D03*
Y2326170D02*
D03*
X824700Y2295670D02*
D03*
Y2326170D02*
D03*
X951700Y2295670D02*
D03*
Y2326170D02*
D03*
X1078700Y2295670D02*
D03*
Y2326170D02*
D03*
X1205700Y2295670D02*
D03*
Y2326170D02*
D03*
X1332700Y2295670D02*
D03*
Y2326170D02*
D03*
D36*
X570700Y616620D02*
D03*
Y601620D02*
D03*
X316700Y616620D02*
D03*
Y601620D02*
D03*
X215100D02*
D03*
Y616620D02*
D03*
X697700D02*
D03*
Y601620D02*
D03*
X951700D02*
D03*
Y616620D02*
D03*
X824700D02*
D03*
Y601620D02*
D03*
X443700D02*
D03*
Y616620D02*
D03*
X1332700D02*
D03*
Y601620D02*
D03*
X1205700D02*
D03*
Y616620D02*
D03*
X1078700D02*
D03*
Y601620D02*
D03*
X570700Y1200820D02*
D03*
Y1185820D02*
D03*
X316700Y1200820D02*
D03*
Y1185820D02*
D03*
X215100D02*
D03*
Y1200820D02*
D03*
X697700D02*
D03*
Y1185820D02*
D03*
X951700D02*
D03*
Y1200820D02*
D03*
X824700D02*
D03*
Y1185820D02*
D03*
X443700D02*
D03*
Y1200820D02*
D03*
X1332700D02*
D03*
Y1185820D02*
D03*
X1205700D02*
D03*
Y1200820D02*
D03*
X1078700D02*
D03*
Y1185820D02*
D03*
X570700Y1785020D02*
D03*
Y1770020D02*
D03*
X316700Y1785020D02*
D03*
Y1770020D02*
D03*
X215100D02*
D03*
Y1785020D02*
D03*
X697700D02*
D03*
Y1770020D02*
D03*
X951700D02*
D03*
Y1785020D02*
D03*
X824700D02*
D03*
Y1770020D02*
D03*
X443700D02*
D03*
Y1785020D02*
D03*
X1332700D02*
D03*
Y1770020D02*
D03*
X1205700D02*
D03*
Y1785020D02*
D03*
X1078700D02*
D03*
Y1770020D02*
D03*
X570700Y2369220D02*
D03*
Y2354220D02*
D03*
X316700Y2369220D02*
D03*
Y2354220D02*
D03*
X215100D02*
D03*
Y2369220D02*
D03*
X697700D02*
D03*
Y2354220D02*
D03*
X951700D02*
D03*
Y2369220D02*
D03*
X824700D02*
D03*
Y2354220D02*
D03*
X443700D02*
D03*
Y2369220D02*
D03*
X1332700D02*
D03*
Y2354220D02*
D03*
X1205700D02*
D03*
Y2369220D02*
D03*
X1078700D02*
D03*
Y2354220D02*
D03*
D37*
X1915150Y1333500D02*
D03*
X1945650D02*
D03*
X1915150Y1231900D02*
D03*
X1945650D02*
D03*
X1915150Y1104900D02*
D03*
X1945650D02*
D03*
X1915150Y977900D02*
D03*
X1945650D02*
D03*
X1915150Y850900D02*
D03*
X1945650D02*
D03*
X1915150Y723900D02*
D03*
X1945650D02*
D03*
X1915150Y596900D02*
D03*
X1945650D02*
D03*
X1915150Y469900D02*
D03*
X1945650D02*
D03*
X1915150Y342900D02*
D03*
X1945650D02*
D03*
X1915150Y215900D02*
D03*
X1945650D02*
D03*
D38*
X1988700Y977900D02*
D03*
X1973700D02*
D03*
X1988700Y1231900D02*
D03*
X1973700D02*
D03*
Y1333500D02*
D03*
X1988700D02*
D03*
Y850900D02*
D03*
X1973700D02*
D03*
Y596900D02*
D03*
X1988700D02*
D03*
Y723900D02*
D03*
X1973700D02*
D03*
Y1104900D02*
D03*
X1988700D02*
D03*
Y215900D02*
D03*
X1973700D02*
D03*
Y342900D02*
D03*
X1988700D02*
D03*
Y469900D02*
D03*
X1973700D02*
D03*
D39*
X38100Y2463800D02*
D03*
X2095500Y38100D02*
D03*
Y2463800D02*
D03*
X38100Y38100D02*
D03*
D40*
X99060Y2484120D02*
D03*
Y2476500D02*
D03*
Y2468880D02*
D03*
Y2461260D02*
D03*
Y2453640D02*
D03*
X60960Y2415540D02*
D03*
X53340D02*
D03*
X45720D02*
D03*
X38100D02*
D03*
X30480D02*
D03*
X22860D02*
D03*
X15240D02*
D03*
X1450340Y2453640D02*
D03*
Y2461260D02*
D03*
Y2468880D02*
D03*
Y2476500D02*
D03*
Y2484120D02*
D03*
X1026160Y2415540D02*
D03*
X1018540D02*
D03*
X1010920D02*
D03*
X1003300D02*
D03*
X995680D02*
D03*
X988060D02*
D03*
X980440D02*
D03*
X510540D02*
D03*
X518160D02*
D03*
X525780D02*
D03*
X533400D02*
D03*
X541020D02*
D03*
X548640D02*
D03*
X556260D02*
D03*
X2118360Y1450340D02*
D03*
X2110740D02*
D03*
X2103120D02*
D03*
X2095500D02*
D03*
X2087880D02*
D03*
X2080260D02*
D03*
X2072640D02*
D03*
X2118360Y99060D02*
D03*
X2110740D02*
D03*
X2103120D02*
D03*
X2095500D02*
D03*
X2087880D02*
D03*
X2080260D02*
D03*
X2072640D02*
D03*
X1729740Y1450340D02*
D03*
X1737360D02*
D03*
X1744980D02*
D03*
X1752600D02*
D03*
X1760220D02*
D03*
X1767840D02*
D03*
X1775460D02*
D03*
X1729740Y1470660D02*
D03*
X1737360D02*
D03*
X1744980D02*
D03*
X1752600D02*
D03*
X1760220D02*
D03*
X1767840D02*
D03*
X1775460D02*
D03*
X2034540Y60960D02*
D03*
Y53340D02*
D03*
Y45720D02*
D03*
Y38100D02*
D03*
Y30480D02*
D03*
Y22860D02*
D03*
Y15240D02*
D03*
X99060Y2110740D02*
D03*
Y2141220D02*
D03*
Y2133600D02*
D03*
Y2125980D02*
D03*
Y2156460D02*
D03*
Y2148840D02*
D03*
Y2118360D02*
D03*
X1450340Y2156460D02*
D03*
Y2148840D02*
D03*
Y2141220D02*
D03*
Y2133600D02*
D03*
Y2125980D02*
D03*
Y2118360D02*
D03*
Y2110740D02*
D03*
Y1572260D02*
D03*
Y1564640D02*
D03*
Y1557020D02*
D03*
Y1549400D02*
D03*
Y1541780D02*
D03*
Y1534160D02*
D03*
Y1526540D02*
D03*
X1470660Y942340D02*
D03*
Y949960D02*
D03*
Y957580D02*
D03*
Y965200D02*
D03*
Y972820D02*
D03*
Y980440D02*
D03*
Y988060D02*
D03*
X1450340Y942340D02*
D03*
Y949960D02*
D03*
Y957580D02*
D03*
Y965200D02*
D03*
Y972820D02*
D03*
Y980440D02*
D03*
Y988060D02*
D03*
X556260Y1851660D02*
D03*
X548640D02*
D03*
X541020D02*
D03*
X533400D02*
D03*
X525780D02*
D03*
X518160D02*
D03*
X510540D02*
D03*
X556260Y1831340D02*
D03*
X548640D02*
D03*
X541020D02*
D03*
X533400D02*
D03*
X525780D02*
D03*
X518160D02*
D03*
X510540D02*
D03*
X980440D02*
D03*
X988060D02*
D03*
X995680D02*
D03*
X1003300D02*
D03*
X1010920D02*
D03*
X1018540D02*
D03*
X1026160D02*
D03*
X980440Y1851660D02*
D03*
X988060D02*
D03*
X995680D02*
D03*
X1003300D02*
D03*
X1010920D02*
D03*
X1018540D02*
D03*
X1026160D02*
D03*
X556260Y1267460D02*
D03*
X548640D02*
D03*
X541020D02*
D03*
X533400D02*
D03*
X525780D02*
D03*
X518160D02*
D03*
X510540D02*
D03*
X556260Y1247140D02*
D03*
X548640D02*
D03*
X541020D02*
D03*
X533400D02*
D03*
X525780D02*
D03*
X518160D02*
D03*
X510540D02*
D03*
X980440D02*
D03*
X988060D02*
D03*
X995680D02*
D03*
X1003300D02*
D03*
X1010920D02*
D03*
X1018540D02*
D03*
X1026160D02*
D03*
X980440Y1267460D02*
D03*
X988060D02*
D03*
X995680D02*
D03*
X1003300D02*
D03*
X1010920D02*
D03*
X1018540D02*
D03*
X1026160D02*
D03*
X99060Y1534160D02*
D03*
Y1564640D02*
D03*
Y1572260D02*
D03*
Y1541780D02*
D03*
Y1549400D02*
D03*
Y1557020D02*
D03*
Y1526540D02*
D03*
X99060Y942340D02*
D03*
Y972820D02*
D03*
Y965200D02*
D03*
Y957580D02*
D03*
Y988060D02*
D03*
Y980440D02*
D03*
Y949960D02*
D03*
Y365760D02*
D03*
Y396240D02*
D03*
Y403860D02*
D03*
Y373380D02*
D03*
Y381000D02*
D03*
Y388620D02*
D03*
X2034540Y1272540D02*
D03*
Y1280160D02*
D03*
Y1287780D02*
D03*
Y1295400D02*
D03*
Y1303020D02*
D03*
Y1310640D02*
D03*
Y1318260D02*
D03*
Y789940D02*
D03*
Y797560D02*
D03*
Y805180D02*
D03*
Y812800D02*
D03*
Y820420D02*
D03*
Y828040D02*
D03*
Y835660D02*
D03*
Y307340D02*
D03*
Y314960D02*
D03*
Y322580D02*
D03*
Y330200D02*
D03*
Y337820D02*
D03*
Y345440D02*
D03*
Y353060D02*
D03*
X1729740Y99060D02*
D03*
X1737360D02*
D03*
X1744980D02*
D03*
X1752600D02*
D03*
X1760220D02*
D03*
X1767840D02*
D03*
X1775460D02*
D03*
X1450340Y403860D02*
D03*
Y396240D02*
D03*
Y388620D02*
D03*
Y381000D02*
D03*
Y373380D02*
D03*
Y365760D02*
D03*
Y358140D02*
D03*
X1470660Y403860D02*
D03*
Y396240D02*
D03*
Y388620D02*
D03*
Y381000D02*
D03*
Y373380D02*
D03*
Y365760D02*
D03*
Y358140D02*
D03*
X1450340Y15240D02*
D03*
Y22860D02*
D03*
Y30480D02*
D03*
Y38100D02*
D03*
Y45720D02*
D03*
Y53340D02*
D03*
Y60960D02*
D03*
X99060Y15240D02*
D03*
Y22860D02*
D03*
Y30480D02*
D03*
Y38100D02*
D03*
Y45720D02*
D03*
Y53340D02*
D03*
Y60960D02*
D03*
X15240Y99060D02*
D03*
X22860D02*
D03*
X30480D02*
D03*
X38100D02*
D03*
X45720D02*
D03*
X53340D02*
D03*
X60960D02*
D03*
X1026160Y683260D02*
D03*
X1018540D02*
D03*
X1010920D02*
D03*
X1003300D02*
D03*
X995680D02*
D03*
X988060D02*
D03*
X980440D02*
D03*
X1026160Y662940D02*
D03*
X1018540D02*
D03*
X1010920D02*
D03*
X1003300D02*
D03*
X995680D02*
D03*
X988060D02*
D03*
X980440D02*
D03*
X510540D02*
D03*
X518160D02*
D03*
X525780D02*
D03*
X533400D02*
D03*
X541020D02*
D03*
X548640D02*
D03*
X556260D02*
D03*
X510540Y683260D02*
D03*
X518160D02*
D03*
X525780D02*
D03*
X533400D02*
D03*
X541020D02*
D03*
X548640D02*
D03*
X556260D02*
D03*
X1026160Y99060D02*
D03*
X1018540D02*
D03*
X1010920D02*
D03*
X1003300D02*
D03*
X995680D02*
D03*
X988060D02*
D03*
X980440D02*
D03*
X556260D02*
D03*
X548640D02*
D03*
X541020D02*
D03*
X533400D02*
D03*
X525780D02*
D03*
X518160D02*
D03*
X510540D02*
D03*
X99060Y358140D02*
D03*
D41*
X1281900Y175180D02*
D03*
X1154900D02*
D03*
X1027900D02*
D03*
X900900D02*
D03*
X773900D02*
D03*
X646900D02*
D03*
X519900D02*
D03*
X392900D02*
D03*
X1281900Y759380D02*
D03*
X1154900D02*
D03*
X1027900D02*
D03*
X900900D02*
D03*
X773900D02*
D03*
X646900D02*
D03*
X519900D02*
D03*
X392900D02*
D03*
X1281900Y1343580D02*
D03*
X1154900D02*
D03*
X1027900D02*
D03*
X900900D02*
D03*
X773900D02*
D03*
X646900D02*
D03*
X519900D02*
D03*
X392900D02*
D03*
X1281900Y1927780D02*
D03*
X1154900D02*
D03*
X1027900D02*
D03*
X900900D02*
D03*
X773900D02*
D03*
X646900D02*
D03*
X519900D02*
D03*
X392900D02*
D03*
D42*
X1281900Y225180D02*
D03*
X1154900D02*
D03*
X1027900D02*
D03*
X900900D02*
D03*
X773900D02*
D03*
X646900D02*
D03*
X519900D02*
D03*
X392900D02*
D03*
X1281900Y809380D02*
D03*
X1154900D02*
D03*
X1027900D02*
D03*
X900900D02*
D03*
X773900D02*
D03*
X646900D02*
D03*
X519900D02*
D03*
X392900D02*
D03*
X1281900Y1393580D02*
D03*
X1154900D02*
D03*
X1027900D02*
D03*
X900900D02*
D03*
X773900D02*
D03*
X646900D02*
D03*
X519900D02*
D03*
X392900D02*
D03*
X1281900Y1977780D02*
D03*
X1154900D02*
D03*
X1027900D02*
D03*
X900900D02*
D03*
X773900D02*
D03*
X646900D02*
D03*
X519900D02*
D03*
X392900D02*
D03*
X1597260Y266700D02*
D03*
Y393700D02*
D03*
Y520700D02*
D03*
Y647700D02*
D03*
Y774700D02*
D03*
Y901700D02*
D03*
Y1028700D02*
D03*
Y1155700D02*
D03*
D43*
X1281900Y337620D02*
D03*
Y372620D02*
D03*
X1154900Y337620D02*
D03*
Y372620D02*
D03*
X1027900Y337620D02*
D03*
Y372620D02*
D03*
X900900Y337620D02*
D03*
Y372620D02*
D03*
X773900Y337620D02*
D03*
Y372620D02*
D03*
X646900Y337620D02*
D03*
Y372620D02*
D03*
X519900Y337620D02*
D03*
Y372620D02*
D03*
X392900Y337620D02*
D03*
Y372620D02*
D03*
X1281900Y921820D02*
D03*
Y956820D02*
D03*
X1154900Y921820D02*
D03*
Y956820D02*
D03*
X1027900Y921820D02*
D03*
Y956820D02*
D03*
X900900Y921820D02*
D03*
Y956820D02*
D03*
X773900Y921820D02*
D03*
Y956820D02*
D03*
X646900Y921820D02*
D03*
Y956820D02*
D03*
X519900Y921820D02*
D03*
Y956820D02*
D03*
X392900Y921820D02*
D03*
Y956820D02*
D03*
X1281900Y1506020D02*
D03*
Y1541020D02*
D03*
X1154900Y1506020D02*
D03*
Y1541020D02*
D03*
X1027900Y1506020D02*
D03*
Y1541020D02*
D03*
X900900Y1506020D02*
D03*
Y1541020D02*
D03*
X773900Y1506020D02*
D03*
Y1541020D02*
D03*
X646900Y1506020D02*
D03*
Y1541020D02*
D03*
X519900Y1506020D02*
D03*
Y1541020D02*
D03*
X392900Y1506020D02*
D03*
Y1541020D02*
D03*
X1281900Y2090220D02*
D03*
Y2125220D02*
D03*
X1154900Y2090220D02*
D03*
Y2125220D02*
D03*
X1027900Y2090220D02*
D03*
Y2125220D02*
D03*
X900900Y2090220D02*
D03*
Y2125220D02*
D03*
X773900Y2090220D02*
D03*
Y2125220D02*
D03*
X646900Y2090220D02*
D03*
Y2125220D02*
D03*
X519900Y2090220D02*
D03*
Y2125220D02*
D03*
X392900Y2090220D02*
D03*
Y2125220D02*
D03*
D44*
X409900Y587570D02*
D03*
X375900D02*
D03*
X409900Y452870D02*
D03*
X375900D02*
D03*
X536900Y587570D02*
D03*
X502900D02*
D03*
X536900Y452870D02*
D03*
X502900D02*
D03*
X663900Y587570D02*
D03*
X629900D02*
D03*
X663900Y452870D02*
D03*
X629900D02*
D03*
X790900Y587570D02*
D03*
X756900D02*
D03*
X790900Y452870D02*
D03*
X756900D02*
D03*
X917900Y587570D02*
D03*
X883900D02*
D03*
X917900Y452870D02*
D03*
X883900D02*
D03*
X1044900Y587570D02*
D03*
X1010900D02*
D03*
X1044900Y452870D02*
D03*
X1010900D02*
D03*
X1171900Y587570D02*
D03*
X1137900D02*
D03*
X1171900Y452870D02*
D03*
X1137900D02*
D03*
X1298900Y587570D02*
D03*
X1264900D02*
D03*
X1298900Y452870D02*
D03*
X1264900D02*
D03*
X248900D02*
D03*
X282900D02*
D03*
X248900Y587570D02*
D03*
X282900D02*
D03*
X409900Y1171770D02*
D03*
X375900D02*
D03*
X409900Y1037070D02*
D03*
X375900D02*
D03*
X536900Y1171770D02*
D03*
X502900D02*
D03*
X536900Y1037070D02*
D03*
X502900D02*
D03*
X663900Y1171770D02*
D03*
X629900D02*
D03*
X663900Y1037070D02*
D03*
X629900D02*
D03*
X790900Y1171770D02*
D03*
X756900D02*
D03*
X790900Y1037070D02*
D03*
X756900D02*
D03*
X917900Y1171770D02*
D03*
X883900D02*
D03*
X917900Y1037070D02*
D03*
X883900D02*
D03*
X1044900Y1171770D02*
D03*
X1010900D02*
D03*
X1044900Y1037070D02*
D03*
X1010900D02*
D03*
X1171900Y1171770D02*
D03*
X1137900D02*
D03*
X1171900Y1037070D02*
D03*
X1137900D02*
D03*
X1298900Y1171770D02*
D03*
X1264900D02*
D03*
X1298900Y1037070D02*
D03*
X1264900D02*
D03*
X248900D02*
D03*
X282900D02*
D03*
X248900Y1171770D02*
D03*
X282900D02*
D03*
X409900Y1755970D02*
D03*
X375900D02*
D03*
X409900Y1621270D02*
D03*
X375900D02*
D03*
X536900Y1755970D02*
D03*
X502900D02*
D03*
X536900Y1621270D02*
D03*
X502900D02*
D03*
X663900Y1755970D02*
D03*
X629900D02*
D03*
X663900Y1621270D02*
D03*
X629900D02*
D03*
X790900Y1755970D02*
D03*
X756900D02*
D03*
X790900Y1621270D02*
D03*
X756900D02*
D03*
X917900Y1755970D02*
D03*
X883900D02*
D03*
X917900Y1621270D02*
D03*
X883900D02*
D03*
X1044900Y1755970D02*
D03*
X1010900D02*
D03*
X1044900Y1621270D02*
D03*
X1010900D02*
D03*
X1171900Y1755970D02*
D03*
X1137900D02*
D03*
X1171900Y1621270D02*
D03*
X1137900D02*
D03*
X1298900Y1755970D02*
D03*
X1264900D02*
D03*
X1298900Y1621270D02*
D03*
X1264900D02*
D03*
X248900D02*
D03*
X282900D02*
D03*
X248900Y1755970D02*
D03*
X282900D02*
D03*
X409900Y2340170D02*
D03*
X375900D02*
D03*
X409900Y2205470D02*
D03*
X375900D02*
D03*
X536900Y2340170D02*
D03*
X502900D02*
D03*
X536900Y2205470D02*
D03*
X502900D02*
D03*
X663900Y2340170D02*
D03*
X629900D02*
D03*
X663900Y2205470D02*
D03*
X629900D02*
D03*
X790900Y2340170D02*
D03*
X756900D02*
D03*
X790900Y2205470D02*
D03*
X756900D02*
D03*
X917900Y2340170D02*
D03*
X883900D02*
D03*
X917900Y2205470D02*
D03*
X883900D02*
D03*
X1044900Y2340170D02*
D03*
X1010900D02*
D03*
X1044900Y2205470D02*
D03*
X1010900D02*
D03*
X1171900Y2340170D02*
D03*
X1137900D02*
D03*
X1171900Y2205470D02*
D03*
X1137900D02*
D03*
X1298900Y2340170D02*
D03*
X1264900D02*
D03*
X1298900Y2205470D02*
D03*
X1264900D02*
D03*
X248900D02*
D03*
X282900D02*
D03*
X248900Y2340170D02*
D03*
X282900D02*
D03*
X1959650Y1138700D02*
D03*
Y1172700D02*
D03*
X1824950Y1138700D02*
D03*
Y1172700D02*
D03*
X1959650Y1011700D02*
D03*
Y1045700D02*
D03*
X1824950Y1011700D02*
D03*
Y1045700D02*
D03*
X1959650Y884700D02*
D03*
Y918700D02*
D03*
X1824950Y884700D02*
D03*
Y918700D02*
D03*
X1959650Y757700D02*
D03*
Y791700D02*
D03*
X1824950Y757700D02*
D03*
Y791700D02*
D03*
X1959650Y630700D02*
D03*
Y664700D02*
D03*
X1824950Y630700D02*
D03*
Y664700D02*
D03*
X1959650Y503700D02*
D03*
Y537700D02*
D03*
X1824950Y503700D02*
D03*
Y537700D02*
D03*
X1959650Y376700D02*
D03*
Y410700D02*
D03*
X1824950Y376700D02*
D03*
Y410700D02*
D03*
X1959650Y249700D02*
D03*
Y283700D02*
D03*
X1824950Y249700D02*
D03*
Y283700D02*
D03*
Y1299700D02*
D03*
Y1265700D02*
D03*
X1959650Y1299700D02*
D03*
Y1265700D02*
D03*
D45*
X253200Y283120D02*
D03*
Y867320D02*
D03*
Y1451520D02*
D03*
Y2035720D02*
D03*
X1655200Y1295400D02*
D03*
D46*
X253200Y173120D02*
D03*
Y757320D02*
D03*
Y1341520D02*
D03*
Y1925720D02*
D03*
D47*
X151600Y151920D02*
D03*
Y609120D02*
D03*
X1396200D02*
D03*
Y151920D02*
D03*
X151600Y736120D02*
D03*
Y1193320D02*
D03*
X1396200D02*
D03*
Y736120D02*
D03*
X151600Y1320320D02*
D03*
Y1777520D02*
D03*
X1396200D02*
D03*
Y1320320D02*
D03*
X151600Y1904520D02*
D03*
Y2361720D02*
D03*
X1396200D02*
D03*
Y1904520D02*
D03*
X1524000Y1397000D02*
D03*
X1981200D02*
D03*
Y152400D02*
D03*
X1524000D02*
D03*
D48*
X1547260Y266700D02*
D03*
Y393700D02*
D03*
Y520700D02*
D03*
Y647700D02*
D03*
Y774700D02*
D03*
Y901700D02*
D03*
Y1028700D02*
D03*
Y1155700D02*
D03*
D49*
X1709700Y266700D02*
D03*
X1744700D02*
D03*
X1709700Y393700D02*
D03*
X1744700D02*
D03*
X1709700Y520700D02*
D03*
X1744700D02*
D03*
X1709700Y647700D02*
D03*
X1744700D02*
D03*
X1709700Y774700D02*
D03*
X1744700D02*
D03*
X1709700Y901700D02*
D03*
X1744700D02*
D03*
X1709700Y1028700D02*
D03*
X1744700D02*
D03*
X1709700Y1155700D02*
D03*
X1744700D02*
D03*
D50*
X1545200Y1295400D02*
D03*
M02*
