G04*
G04 #@! TF.GenerationSoftware,Altium Limited,Altium Designer,21.8.1 (53)*
G04*
G04 Layer_Color=255*
%FSLAX44Y44*%
%MOMM*%
G71*
G04*
G04 #@! TF.SameCoordinates,F20226F6-1504-4F19-8167-BFA24F29C99C*
G04*
G04*
G04 #@! TF.FilePolarity,Positive*
G04*
G01*
G75*
%ADD28C,2.4000*%
%ADD29R,3.1750X3.1750*%
%ADD30C,3.1750*%
%ADD31C,5.4610*%
%ADD32R,5.4610X5.4610*%
%ADD33C,6.0000*%
D28*
X1071100Y384850D02*
D03*
X1037100D02*
D03*
X1071100Y250150D02*
D03*
X1037100D02*
D03*
X436100Y384850D02*
D03*
X402100D02*
D03*
X436100Y250150D02*
D03*
X402100D02*
D03*
X182100Y384850D02*
D03*
X148100D02*
D03*
X182100Y250150D02*
D03*
X148100D02*
D03*
X783100D02*
D03*
X817100D02*
D03*
X783100Y384850D02*
D03*
X817100D02*
D03*
X656100Y250150D02*
D03*
X690100D02*
D03*
X656100Y384850D02*
D03*
X690100D02*
D03*
X1164100Y250150D02*
D03*
X1198100D02*
D03*
X1164100Y384850D02*
D03*
X1198100D02*
D03*
X910100Y250150D02*
D03*
X944100D02*
D03*
X910100Y384850D02*
D03*
X944100D02*
D03*
X275100Y250150D02*
D03*
X309100D02*
D03*
X275100Y384850D02*
D03*
X309100D02*
D03*
X529100Y250150D02*
D03*
X563100D02*
D03*
X529100Y384850D02*
D03*
X563100D02*
D03*
D29*
X546100Y89300D02*
D03*
X927100D02*
D03*
X1181100D02*
D03*
X1054100D02*
D03*
X673100D02*
D03*
X800100D02*
D03*
X419100D02*
D03*
X292100D02*
D03*
D30*
X546100Y139300D02*
D03*
X927100D02*
D03*
X1181100D02*
D03*
X1054100D02*
D03*
X673100D02*
D03*
X800100D02*
D03*
X419100D02*
D03*
X292100D02*
D03*
D31*
X165100Y150300D02*
D03*
D32*
Y78300D02*
D03*
D33*
X50800Y50800D02*
D03*
Y406400D02*
D03*
X1295400D02*
D03*
Y50800D02*
D03*
M02*
