G04*
G04 #@! TF.GenerationSoftware,Altium Limited,Altium Designer,21.8.1 (53)*
G04*
G04 Layer_Physical_Order=2*
G04 Layer_Color=16711680*
%FSLAX44Y44*%
%MOMM*%
G71*
G04*
G04 #@! TF.SameCoordinates,F20226F6-1504-4F19-8167-BFA24F29C99C*
G04*
G04*
G04 #@! TF.FilePolarity,Positive*
G04*
G01*
G75*
%ADD28C,2.4000*%
%ADD29R,3.1750X3.1750*%
%ADD30C,3.1750*%
%ADD31C,5.4610*%
%ADD32R,5.4610X5.4610*%
%ADD33C,6.0000*%
%ADD34C,1.2700*%
G36*
X1339850Y6350D02*
X6350D01*
Y450850D01*
X1339850D01*
Y6350D01*
D02*
G37*
%LPC*%
G36*
X1258570Y443203D02*
Y435610D01*
X1266163D01*
X1265584Y437771D01*
X1264414Y439799D01*
X1262759Y441454D01*
X1260731Y442624D01*
X1258570Y443203D01*
D02*
G37*
G36*
X1256030D02*
X1253869Y442624D01*
X1251841Y441454D01*
X1250186Y439799D01*
X1249016Y437771D01*
X1248437Y435610D01*
X1256030D01*
Y443203D01*
D02*
G37*
G36*
X1131570D02*
Y435610D01*
X1139163D01*
X1138584Y437771D01*
X1137414Y439799D01*
X1135759Y441454D01*
X1133731Y442624D01*
X1131570Y443203D01*
D02*
G37*
G36*
X1129030D02*
X1126869Y442624D01*
X1124841Y441454D01*
X1123186Y439799D01*
X1122016Y437771D01*
X1121437Y435610D01*
X1129030D01*
Y443203D01*
D02*
G37*
G36*
X1004570D02*
Y435610D01*
X1012163D01*
X1011584Y437771D01*
X1010414Y439799D01*
X1008759Y441454D01*
X1006731Y442624D01*
X1004570Y443203D01*
D02*
G37*
G36*
X1002030D02*
X999869Y442624D01*
X997841Y441454D01*
X996186Y439799D01*
X995016Y437771D01*
X994437Y435610D01*
X1002030D01*
Y443203D01*
D02*
G37*
G36*
X877570D02*
Y435610D01*
X885163D01*
X884584Y437771D01*
X883414Y439799D01*
X881759Y441454D01*
X879731Y442624D01*
X877570Y443203D01*
D02*
G37*
G36*
X875030D02*
X872869Y442624D01*
X870841Y441454D01*
X869186Y439799D01*
X868016Y437771D01*
X867437Y435610D01*
X875030D01*
Y443203D01*
D02*
G37*
G36*
X750570D02*
Y435610D01*
X758163D01*
X757584Y437771D01*
X756414Y439799D01*
X754759Y441454D01*
X752731Y442624D01*
X750570Y443203D01*
D02*
G37*
G36*
X748030D02*
X745869Y442624D01*
X743841Y441454D01*
X742186Y439799D01*
X741016Y437771D01*
X740437Y435610D01*
X748030D01*
Y443203D01*
D02*
G37*
G36*
X623570D02*
Y435610D01*
X631163D01*
X630584Y437771D01*
X629414Y439799D01*
X627759Y441454D01*
X625731Y442624D01*
X623570Y443203D01*
D02*
G37*
G36*
X621030D02*
X618869Y442624D01*
X616841Y441454D01*
X615186Y439799D01*
X614016Y437771D01*
X613437Y435610D01*
X621030D01*
Y443203D01*
D02*
G37*
G36*
X496570D02*
Y435610D01*
X504163D01*
X503584Y437771D01*
X502414Y439799D01*
X500759Y441454D01*
X498731Y442624D01*
X496570Y443203D01*
D02*
G37*
G36*
X494030D02*
X491869Y442624D01*
X489841Y441454D01*
X488186Y439799D01*
X487016Y437771D01*
X486437Y435610D01*
X494030D01*
Y443203D01*
D02*
G37*
G36*
X369570D02*
Y435610D01*
X377163D01*
X376584Y437771D01*
X375414Y439799D01*
X373759Y441454D01*
X371731Y442624D01*
X369570Y443203D01*
D02*
G37*
G36*
X367030D02*
X364869Y442624D01*
X362841Y441454D01*
X361186Y439799D01*
X360016Y437771D01*
X359437Y435610D01*
X367030D01*
Y443203D01*
D02*
G37*
G36*
X242570D02*
Y435610D01*
X250163D01*
X249584Y437771D01*
X248414Y439799D01*
X246759Y441454D01*
X244731Y442624D01*
X242570Y443203D01*
D02*
G37*
G36*
X240030D02*
X237869Y442624D01*
X235841Y441454D01*
X234186Y439799D01*
X233016Y437771D01*
X232437Y435610D01*
X240030D01*
Y443203D01*
D02*
G37*
G36*
X1266163Y433070D02*
X1258570D01*
Y425477D01*
X1260731Y426056D01*
X1262759Y427226D01*
X1264414Y428881D01*
X1265584Y430909D01*
X1266163Y433070D01*
D02*
G37*
G36*
X1256030D02*
X1248437D01*
X1249016Y430909D01*
X1250186Y428881D01*
X1251841Y427226D01*
X1253869Y426056D01*
X1256030Y425477D01*
Y433070D01*
D02*
G37*
G36*
X1139163D02*
X1131570D01*
Y425477D01*
X1133731Y426056D01*
X1135759Y427226D01*
X1137414Y428881D01*
X1138584Y430909D01*
X1139163Y433070D01*
D02*
G37*
G36*
X1129030D02*
X1121437D01*
X1122016Y430909D01*
X1123186Y428881D01*
X1124841Y427226D01*
X1126869Y426056D01*
X1129030Y425477D01*
Y433070D01*
D02*
G37*
G36*
X1012163D02*
X1004570D01*
Y425477D01*
X1006731Y426056D01*
X1008759Y427226D01*
X1010414Y428881D01*
X1011584Y430909D01*
X1012163Y433070D01*
D02*
G37*
G36*
X1002030D02*
X994437D01*
X995016Y430909D01*
X996186Y428881D01*
X997841Y427226D01*
X999869Y426056D01*
X1002030Y425477D01*
Y433070D01*
D02*
G37*
G36*
X885163D02*
X877570D01*
Y425477D01*
X879731Y426056D01*
X881759Y427226D01*
X883414Y428881D01*
X884584Y430909D01*
X885163Y433070D01*
D02*
G37*
G36*
X875030D02*
X867437D01*
X868016Y430909D01*
X869186Y428881D01*
X870841Y427226D01*
X872869Y426056D01*
X875030Y425477D01*
Y433070D01*
D02*
G37*
G36*
X758163D02*
X750570D01*
Y425477D01*
X752731Y426056D01*
X754759Y427226D01*
X756414Y428881D01*
X757584Y430909D01*
X758163Y433070D01*
D02*
G37*
G36*
X748030D02*
X740437D01*
X741016Y430909D01*
X742186Y428881D01*
X743841Y427226D01*
X745869Y426056D01*
X748030Y425477D01*
Y433070D01*
D02*
G37*
G36*
X631163D02*
X623570D01*
Y425477D01*
X625731Y426056D01*
X627759Y427226D01*
X629414Y428881D01*
X630584Y430909D01*
X631163Y433070D01*
D02*
G37*
G36*
X621030D02*
X613437D01*
X614016Y430909D01*
X615186Y428881D01*
X616841Y427226D01*
X618869Y426056D01*
X621030Y425477D01*
Y433070D01*
D02*
G37*
G36*
X504163D02*
X496570D01*
Y425477D01*
X498731Y426056D01*
X500759Y427226D01*
X502414Y428881D01*
X503584Y430909D01*
X504163Y433070D01*
D02*
G37*
G36*
X494030D02*
X486437D01*
X487016Y430909D01*
X488186Y428881D01*
X489841Y427226D01*
X491869Y426056D01*
X494030Y425477D01*
Y433070D01*
D02*
G37*
G36*
X377163D02*
X369570D01*
Y425477D01*
X371731Y426056D01*
X373759Y427226D01*
X375414Y428881D01*
X376584Y430909D01*
X377163Y433070D01*
D02*
G37*
G36*
X367030D02*
X359437D01*
X360016Y430909D01*
X361186Y428881D01*
X362841Y427226D01*
X364869Y426056D01*
X367030Y425477D01*
Y433070D01*
D02*
G37*
G36*
X250163D02*
X242570D01*
Y425477D01*
X244731Y426056D01*
X246759Y427226D01*
X248414Y428881D01*
X249584Y430909D01*
X250163Y433070D01*
D02*
G37*
G36*
X240030D02*
X232437D01*
X233016Y430909D01*
X234186Y428881D01*
X235841Y427226D01*
X237869Y426056D01*
X240030Y425477D01*
Y433070D01*
D02*
G37*
G36*
X97790Y422883D02*
Y415290D01*
X105383D01*
X104804Y417451D01*
X103634Y419479D01*
X101979Y421134D01*
X99951Y422304D01*
X97790Y422883D01*
D02*
G37*
G36*
X95250D02*
X93089Y422304D01*
X91061Y421134D01*
X89406Y419479D01*
X88236Y417451D01*
X87657Y415290D01*
X95250D01*
Y422883D01*
D02*
G37*
G36*
X1297961Y438940D02*
X1296670D01*
Y407670D01*
X1327940D01*
Y408961D01*
X1327139Y414020D01*
X1325556Y418891D01*
X1323231Y423455D01*
X1320220Y427598D01*
X1316598Y431220D01*
X1312455Y434231D01*
X1307891Y436556D01*
X1303020Y438139D01*
X1297961Y438940D01*
D02*
G37*
G36*
X1294130D02*
X1292839D01*
X1287780Y438139D01*
X1282909Y436556D01*
X1278345Y434231D01*
X1274202Y431220D01*
X1270580Y427598D01*
X1267569Y423455D01*
X1265244Y418891D01*
X1263661Y414020D01*
X1262860Y408961D01*
Y407670D01*
X1294130D01*
Y438940D01*
D02*
G37*
G36*
X53361D02*
X52070D01*
Y407670D01*
X83340D01*
Y408961D01*
X82539Y414020D01*
X80956Y418891D01*
X78631Y423455D01*
X75620Y427598D01*
X71998Y431220D01*
X67855Y434231D01*
X63291Y436556D01*
X58420Y438139D01*
X53361Y438940D01*
D02*
G37*
G36*
X49530D02*
X48239D01*
X43180Y438139D01*
X38309Y436556D01*
X33745Y434231D01*
X29602Y431220D01*
X25980Y427598D01*
X22969Y423455D01*
X20644Y418891D01*
X19061Y414020D01*
X18260Y408961D01*
Y407670D01*
X49530D01*
Y438940D01*
D02*
G37*
G36*
X105383Y412750D02*
X97790D01*
Y405157D01*
X99951Y405736D01*
X101979Y406906D01*
X103634Y408561D01*
X104804Y410589D01*
X105383Y412750D01*
D02*
G37*
G36*
X95250D02*
X87657D01*
X88236Y410589D01*
X89406Y408561D01*
X91061Y406906D01*
X93089Y405736D01*
X95250Y405157D01*
Y412750D01*
D02*
G37*
G36*
X1327940Y405130D02*
X1296670D01*
Y373860D01*
X1297961D01*
X1303020Y374661D01*
X1307891Y376244D01*
X1312455Y378569D01*
X1316598Y381580D01*
X1320220Y385202D01*
X1323231Y389345D01*
X1325556Y393909D01*
X1327139Y398780D01*
X1327940Y403839D01*
Y405130D01*
D02*
G37*
G36*
X1294130D02*
X1262860D01*
Y403839D01*
X1263661Y398780D01*
X1265244Y393909D01*
X1267569Y389345D01*
X1270580Y385202D01*
X1274202Y381580D01*
X1278345Y378569D01*
X1282909Y376244D01*
X1287780Y374661D01*
X1292839Y373860D01*
X1294130D01*
Y405130D01*
D02*
G37*
G36*
X83340D02*
X52070D01*
Y373860D01*
X53361D01*
X58420Y374661D01*
X63291Y376244D01*
X67855Y378569D01*
X71998Y381580D01*
X75620Y385202D01*
X78631Y389345D01*
X80956Y393909D01*
X82539Y398780D01*
X83340Y403839D01*
Y405130D01*
D02*
G37*
G36*
X49530D02*
X18260D01*
Y403839D01*
X19061Y398780D01*
X20644Y393909D01*
X22969Y389345D01*
X25980Y385202D01*
X29602Y381580D01*
X33745Y378569D01*
X38309Y376244D01*
X43180Y374661D01*
X48239Y373860D01*
X49530D01*
Y405130D01*
D02*
G37*
G36*
X1200014Y399390D02*
X1196186D01*
X1192488Y398399D01*
X1189172Y396485D01*
X1186465Y393778D01*
X1184551Y390462D01*
X1183560Y386764D01*
Y382936D01*
X1184551Y379238D01*
X1186465Y375922D01*
X1189172Y373215D01*
X1192488Y371301D01*
X1196186Y370310D01*
X1200014D01*
X1203712Y371301D01*
X1207028Y373215D01*
X1209735Y375922D01*
X1211649Y379238D01*
X1212640Y382936D01*
Y386764D01*
X1211649Y390462D01*
X1209735Y393778D01*
X1207028Y396485D01*
X1203712Y398399D01*
X1200014Y399390D01*
D02*
G37*
G36*
X1166014D02*
X1162186D01*
X1158488Y398399D01*
X1155172Y396485D01*
X1152465Y393778D01*
X1150551Y390462D01*
X1149560Y386764D01*
Y382936D01*
X1150551Y379238D01*
X1152465Y375922D01*
X1155172Y373215D01*
X1158488Y371301D01*
X1162186Y370310D01*
X1166014D01*
X1169712Y371301D01*
X1173028Y373215D01*
X1175735Y375922D01*
X1177649Y379238D01*
X1178640Y382936D01*
Y386764D01*
X1177649Y390462D01*
X1175735Y393778D01*
X1173028Y396485D01*
X1169712Y398399D01*
X1166014Y399390D01*
D02*
G37*
G36*
X1073014D02*
X1069186D01*
X1065488Y398399D01*
X1062172Y396485D01*
X1059465Y393778D01*
X1057551Y390462D01*
X1056560Y386764D01*
Y382936D01*
X1057551Y379238D01*
X1059465Y375922D01*
X1062172Y373215D01*
X1065488Y371301D01*
X1069186Y370310D01*
X1073014D01*
X1076712Y371301D01*
X1080028Y373215D01*
X1082735Y375922D01*
X1084649Y379238D01*
X1085640Y382936D01*
Y386764D01*
X1084649Y390462D01*
X1082735Y393778D01*
X1080028Y396485D01*
X1076712Y398399D01*
X1073014Y399390D01*
D02*
G37*
G36*
X1039014D02*
X1035186D01*
X1031488Y398399D01*
X1028172Y396485D01*
X1025465Y393778D01*
X1023551Y390462D01*
X1022560Y386764D01*
Y382936D01*
X1023551Y379238D01*
X1025465Y375922D01*
X1028172Y373215D01*
X1031488Y371301D01*
X1035186Y370310D01*
X1039014D01*
X1042712Y371301D01*
X1046028Y373215D01*
X1048735Y375922D01*
X1050649Y379238D01*
X1051640Y382936D01*
Y386764D01*
X1050649Y390462D01*
X1048735Y393778D01*
X1046028Y396485D01*
X1042712Y398399D01*
X1039014Y399390D01*
D02*
G37*
G36*
X946014D02*
X942186D01*
X938488Y398399D01*
X935172Y396485D01*
X932465Y393778D01*
X930551Y390462D01*
X929560Y386764D01*
Y382936D01*
X930551Y379238D01*
X932465Y375922D01*
X935172Y373215D01*
X938488Y371301D01*
X942186Y370310D01*
X946014D01*
X949712Y371301D01*
X953028Y373215D01*
X955735Y375922D01*
X957649Y379238D01*
X958640Y382936D01*
Y386764D01*
X957649Y390462D01*
X955735Y393778D01*
X953028Y396485D01*
X949712Y398399D01*
X946014Y399390D01*
D02*
G37*
G36*
X912014D02*
X908186D01*
X904488Y398399D01*
X901172Y396485D01*
X898465Y393778D01*
X896551Y390462D01*
X895560Y386764D01*
Y382936D01*
X896551Y379238D01*
X898465Y375922D01*
X901172Y373215D01*
X904488Y371301D01*
X908186Y370310D01*
X912014D01*
X915712Y371301D01*
X919028Y373215D01*
X921735Y375922D01*
X923649Y379238D01*
X924640Y382936D01*
Y386764D01*
X923649Y390462D01*
X921735Y393778D01*
X919028Y396485D01*
X915712Y398399D01*
X912014Y399390D01*
D02*
G37*
G36*
X819014D02*
X815186D01*
X811488Y398399D01*
X808172Y396485D01*
X805465Y393778D01*
X803551Y390462D01*
X802560Y386764D01*
Y382936D01*
X803551Y379238D01*
X805465Y375922D01*
X808172Y373215D01*
X811488Y371301D01*
X815186Y370310D01*
X819014D01*
X822712Y371301D01*
X826028Y373215D01*
X828735Y375922D01*
X830649Y379238D01*
X831640Y382936D01*
Y386764D01*
X830649Y390462D01*
X828735Y393778D01*
X826028Y396485D01*
X822712Y398399D01*
X819014Y399390D01*
D02*
G37*
G36*
X785014D02*
X781186D01*
X777488Y398399D01*
X774172Y396485D01*
X771465Y393778D01*
X769551Y390462D01*
X768560Y386764D01*
Y382936D01*
X769551Y379238D01*
X771465Y375922D01*
X774172Y373215D01*
X777488Y371301D01*
X781186Y370310D01*
X785014D01*
X788712Y371301D01*
X792028Y373215D01*
X794735Y375922D01*
X796649Y379238D01*
X797640Y382936D01*
Y386764D01*
X796649Y390462D01*
X794735Y393778D01*
X792028Y396485D01*
X788712Y398399D01*
X785014Y399390D01*
D02*
G37*
G36*
X692014D02*
X688186D01*
X684488Y398399D01*
X681172Y396485D01*
X678465Y393778D01*
X676551Y390462D01*
X675560Y386764D01*
Y382936D01*
X676551Y379238D01*
X678465Y375922D01*
X681172Y373215D01*
X684488Y371301D01*
X688186Y370310D01*
X692014D01*
X695712Y371301D01*
X699028Y373215D01*
X701735Y375922D01*
X703649Y379238D01*
X704640Y382936D01*
Y386764D01*
X703649Y390462D01*
X701735Y393778D01*
X699028Y396485D01*
X695712Y398399D01*
X692014Y399390D01*
D02*
G37*
G36*
X658014D02*
X654186D01*
X650488Y398399D01*
X647172Y396485D01*
X644465Y393778D01*
X642551Y390462D01*
X641560Y386764D01*
Y382936D01*
X642551Y379238D01*
X644465Y375922D01*
X647172Y373215D01*
X650488Y371301D01*
X654186Y370310D01*
X658014D01*
X661712Y371301D01*
X665028Y373215D01*
X667735Y375922D01*
X669649Y379238D01*
X670640Y382936D01*
Y386764D01*
X669649Y390462D01*
X667735Y393778D01*
X665028Y396485D01*
X661712Y398399D01*
X658014Y399390D01*
D02*
G37*
G36*
X565014D02*
X561186D01*
X557488Y398399D01*
X554172Y396485D01*
X551465Y393778D01*
X549551Y390462D01*
X548560Y386764D01*
Y382936D01*
X549551Y379238D01*
X551465Y375922D01*
X554172Y373215D01*
X557488Y371301D01*
X561186Y370310D01*
X565014D01*
X568712Y371301D01*
X572028Y373215D01*
X574735Y375922D01*
X576649Y379238D01*
X577640Y382936D01*
Y386764D01*
X576649Y390462D01*
X574735Y393778D01*
X572028Y396485D01*
X568712Y398399D01*
X565014Y399390D01*
D02*
G37*
G36*
X531014D02*
X527186D01*
X523488Y398399D01*
X520172Y396485D01*
X517465Y393778D01*
X515551Y390462D01*
X514560Y386764D01*
Y382936D01*
X515551Y379238D01*
X517465Y375922D01*
X520172Y373215D01*
X523488Y371301D01*
X527186Y370310D01*
X531014D01*
X534712Y371301D01*
X538028Y373215D01*
X540735Y375922D01*
X542649Y379238D01*
X543640Y382936D01*
Y386764D01*
X542649Y390462D01*
X540735Y393778D01*
X538028Y396485D01*
X534712Y398399D01*
X531014Y399390D01*
D02*
G37*
G36*
X438014D02*
X434186D01*
X430488Y398399D01*
X427172Y396485D01*
X424465Y393778D01*
X422551Y390462D01*
X421560Y386764D01*
Y382936D01*
X422551Y379238D01*
X424465Y375922D01*
X427172Y373215D01*
X430488Y371301D01*
X434186Y370310D01*
X438014D01*
X441712Y371301D01*
X445028Y373215D01*
X447735Y375922D01*
X449649Y379238D01*
X450640Y382936D01*
Y386764D01*
X449649Y390462D01*
X447735Y393778D01*
X445028Y396485D01*
X441712Y398399D01*
X438014Y399390D01*
D02*
G37*
G36*
X404014D02*
X400186D01*
X396488Y398399D01*
X393172Y396485D01*
X390465Y393778D01*
X388551Y390462D01*
X387560Y386764D01*
Y382936D01*
X388551Y379238D01*
X390465Y375922D01*
X393172Y373215D01*
X396488Y371301D01*
X400186Y370310D01*
X404014D01*
X407712Y371301D01*
X411028Y373215D01*
X413735Y375922D01*
X415649Y379238D01*
X416640Y382936D01*
Y386764D01*
X415649Y390462D01*
X413735Y393778D01*
X411028Y396485D01*
X407712Y398399D01*
X404014Y399390D01*
D02*
G37*
G36*
X311014D02*
X307186D01*
X303488Y398399D01*
X300172Y396485D01*
X297465Y393778D01*
X295551Y390462D01*
X294560Y386764D01*
Y382936D01*
X295551Y379238D01*
X297465Y375922D01*
X300172Y373215D01*
X303488Y371301D01*
X307186Y370310D01*
X311014D01*
X314712Y371301D01*
X318028Y373215D01*
X320735Y375922D01*
X322649Y379238D01*
X323640Y382936D01*
Y386764D01*
X322649Y390462D01*
X320735Y393778D01*
X318028Y396485D01*
X314712Y398399D01*
X311014Y399390D01*
D02*
G37*
G36*
X277014D02*
X273186D01*
X269488Y398399D01*
X266172Y396485D01*
X263465Y393778D01*
X261551Y390462D01*
X260560Y386764D01*
Y382936D01*
X261551Y379238D01*
X263465Y375922D01*
X266172Y373215D01*
X269488Y371301D01*
X273186Y370310D01*
X277014D01*
X280712Y371301D01*
X284028Y373215D01*
X286735Y375922D01*
X288649Y379238D01*
X289640Y382936D01*
Y386764D01*
X288649Y390462D01*
X286735Y393778D01*
X284028Y396485D01*
X280712Y398399D01*
X277014Y399390D01*
D02*
G37*
G36*
X184014D02*
X180186D01*
X176488Y398399D01*
X173172Y396485D01*
X170465Y393778D01*
X168551Y390462D01*
X167560Y386764D01*
Y382936D01*
X168551Y379238D01*
X170465Y375922D01*
X173172Y373215D01*
X176488Y371301D01*
X180186Y370310D01*
X184014D01*
X187712Y371301D01*
X191028Y373215D01*
X193735Y375922D01*
X195649Y379238D01*
X196640Y382936D01*
Y386764D01*
X195649Y390462D01*
X193735Y393778D01*
X191028Y396485D01*
X187712Y398399D01*
X184014Y399390D01*
D02*
G37*
G36*
X150014D02*
X146186D01*
X142488Y398399D01*
X139172Y396485D01*
X136465Y393778D01*
X134551Y390462D01*
X133560Y386764D01*
Y382936D01*
X134551Y379238D01*
X136465Y375922D01*
X139172Y373215D01*
X142488Y371301D01*
X146186Y370310D01*
X150014D01*
X153712Y371301D01*
X157028Y373215D01*
X159735Y375922D01*
X161649Y379238D01*
X162640Y382936D01*
Y386764D01*
X161649Y390462D01*
X159735Y393778D01*
X157028Y396485D01*
X153712Y398399D01*
X150014Y399390D01*
D02*
G37*
G36*
X1200014Y264690D02*
X1196186D01*
X1192488Y263699D01*
X1189172Y261785D01*
X1186465Y259078D01*
X1184551Y255762D01*
X1183560Y252064D01*
Y248236D01*
X1184551Y244538D01*
X1186465Y241222D01*
X1189172Y238515D01*
X1192488Y236601D01*
X1196186Y235610D01*
X1200014D01*
X1203712Y236601D01*
X1207028Y238515D01*
X1209735Y241222D01*
X1211649Y244538D01*
X1212640Y248236D01*
Y252064D01*
X1211649Y255762D01*
X1209735Y259078D01*
X1207028Y261785D01*
X1203712Y263699D01*
X1200014Y264690D01*
D02*
G37*
G36*
X1166014D02*
X1162186D01*
X1158488Y263699D01*
X1155172Y261785D01*
X1152465Y259078D01*
X1150551Y255762D01*
X1149560Y252064D01*
Y248236D01*
X1150551Y244538D01*
X1152465Y241222D01*
X1155172Y238515D01*
X1158488Y236601D01*
X1162186Y235610D01*
X1166014D01*
X1169712Y236601D01*
X1173028Y238515D01*
X1175735Y241222D01*
X1177649Y244538D01*
X1178640Y248236D01*
Y252064D01*
X1177649Y255762D01*
X1175735Y259078D01*
X1173028Y261785D01*
X1169712Y263699D01*
X1166014Y264690D01*
D02*
G37*
G36*
X1073014D02*
X1069186D01*
X1065488Y263699D01*
X1062172Y261785D01*
X1059465Y259078D01*
X1057551Y255762D01*
X1056560Y252064D01*
Y248236D01*
X1057551Y244538D01*
X1059465Y241222D01*
X1062172Y238515D01*
X1065488Y236601D01*
X1069186Y235610D01*
X1073014D01*
X1076712Y236601D01*
X1080028Y238515D01*
X1082735Y241222D01*
X1084649Y244538D01*
X1085640Y248236D01*
Y252064D01*
X1084649Y255762D01*
X1082735Y259078D01*
X1080028Y261785D01*
X1076712Y263699D01*
X1073014Y264690D01*
D02*
G37*
G36*
X1039014D02*
X1035186D01*
X1031488Y263699D01*
X1028172Y261785D01*
X1025465Y259078D01*
X1023551Y255762D01*
X1022560Y252064D01*
Y248236D01*
X1023551Y244538D01*
X1025465Y241222D01*
X1028172Y238515D01*
X1031488Y236601D01*
X1035186Y235610D01*
X1039014D01*
X1042712Y236601D01*
X1046028Y238515D01*
X1048735Y241222D01*
X1050649Y244538D01*
X1051640Y248236D01*
Y252064D01*
X1050649Y255762D01*
X1048735Y259078D01*
X1046028Y261785D01*
X1042712Y263699D01*
X1039014Y264690D01*
D02*
G37*
G36*
X946014D02*
X942186D01*
X938488Y263699D01*
X935172Y261785D01*
X932465Y259078D01*
X930551Y255762D01*
X929560Y252064D01*
Y248236D01*
X930551Y244538D01*
X932465Y241222D01*
X935172Y238515D01*
X938488Y236601D01*
X942186Y235610D01*
X946014D01*
X949712Y236601D01*
X953028Y238515D01*
X955735Y241222D01*
X957649Y244538D01*
X958640Y248236D01*
Y252064D01*
X957649Y255762D01*
X955735Y259078D01*
X953028Y261785D01*
X949712Y263699D01*
X946014Y264690D01*
D02*
G37*
G36*
X912014D02*
X908186D01*
X904488Y263699D01*
X901172Y261785D01*
X898465Y259078D01*
X896551Y255762D01*
X895560Y252064D01*
Y248236D01*
X896551Y244538D01*
X898465Y241222D01*
X901172Y238515D01*
X904488Y236601D01*
X908186Y235610D01*
X912014D01*
X915712Y236601D01*
X919028Y238515D01*
X921735Y241222D01*
X923649Y244538D01*
X924640Y248236D01*
Y252064D01*
X923649Y255762D01*
X921735Y259078D01*
X919028Y261785D01*
X915712Y263699D01*
X912014Y264690D01*
D02*
G37*
G36*
X819014D02*
X815186D01*
X811488Y263699D01*
X808172Y261785D01*
X805465Y259078D01*
X803551Y255762D01*
X802560Y252064D01*
Y248236D01*
X803551Y244538D01*
X805465Y241222D01*
X808172Y238515D01*
X811488Y236601D01*
X815186Y235610D01*
X819014D01*
X822712Y236601D01*
X826028Y238515D01*
X828735Y241222D01*
X830649Y244538D01*
X831640Y248236D01*
Y252064D01*
X830649Y255762D01*
X828735Y259078D01*
X826028Y261785D01*
X822712Y263699D01*
X819014Y264690D01*
D02*
G37*
G36*
X785014D02*
X781186D01*
X777488Y263699D01*
X774172Y261785D01*
X771465Y259078D01*
X769551Y255762D01*
X768560Y252064D01*
Y248236D01*
X769551Y244538D01*
X771465Y241222D01*
X774172Y238515D01*
X777488Y236601D01*
X781186Y235610D01*
X785014D01*
X788712Y236601D01*
X792028Y238515D01*
X794735Y241222D01*
X796649Y244538D01*
X797640Y248236D01*
Y252064D01*
X796649Y255762D01*
X794735Y259078D01*
X792028Y261785D01*
X788712Y263699D01*
X785014Y264690D01*
D02*
G37*
G36*
X692014D02*
X688186D01*
X684488Y263699D01*
X681172Y261785D01*
X678465Y259078D01*
X676551Y255762D01*
X675560Y252064D01*
Y248236D01*
X676551Y244538D01*
X678465Y241222D01*
X681172Y238515D01*
X684488Y236601D01*
X688186Y235610D01*
X692014D01*
X695712Y236601D01*
X699028Y238515D01*
X701735Y241222D01*
X703649Y244538D01*
X704640Y248236D01*
Y252064D01*
X703649Y255762D01*
X701735Y259078D01*
X699028Y261785D01*
X695712Y263699D01*
X692014Y264690D01*
D02*
G37*
G36*
X658014D02*
X654186D01*
X650488Y263699D01*
X647172Y261785D01*
X644465Y259078D01*
X642551Y255762D01*
X641560Y252064D01*
Y248236D01*
X642551Y244538D01*
X644465Y241222D01*
X647172Y238515D01*
X650488Y236601D01*
X654186Y235610D01*
X658014D01*
X661712Y236601D01*
X665028Y238515D01*
X667735Y241222D01*
X669649Y244538D01*
X670640Y248236D01*
Y252064D01*
X669649Y255762D01*
X667735Y259078D01*
X665028Y261785D01*
X661712Y263699D01*
X658014Y264690D01*
D02*
G37*
G36*
X565014D02*
X561186D01*
X557488Y263699D01*
X554172Y261785D01*
X551465Y259078D01*
X549551Y255762D01*
X548560Y252064D01*
Y248236D01*
X549551Y244538D01*
X551465Y241222D01*
X554172Y238515D01*
X557488Y236601D01*
X561186Y235610D01*
X565014D01*
X568712Y236601D01*
X572028Y238515D01*
X574735Y241222D01*
X576649Y244538D01*
X577640Y248236D01*
Y252064D01*
X576649Y255762D01*
X574735Y259078D01*
X572028Y261785D01*
X568712Y263699D01*
X565014Y264690D01*
D02*
G37*
G36*
X531014D02*
X527186D01*
X523488Y263699D01*
X520172Y261785D01*
X517465Y259078D01*
X515551Y255762D01*
X514560Y252064D01*
Y248236D01*
X515551Y244538D01*
X517465Y241222D01*
X520172Y238515D01*
X523488Y236601D01*
X527186Y235610D01*
X531014D01*
X534712Y236601D01*
X538028Y238515D01*
X540735Y241222D01*
X542649Y244538D01*
X543640Y248236D01*
Y252064D01*
X542649Y255762D01*
X540735Y259078D01*
X538028Y261785D01*
X534712Y263699D01*
X531014Y264690D01*
D02*
G37*
G36*
X438014D02*
X434186D01*
X430488Y263699D01*
X427172Y261785D01*
X424465Y259078D01*
X422551Y255762D01*
X421560Y252064D01*
Y248236D01*
X422551Y244538D01*
X424465Y241222D01*
X427172Y238515D01*
X430488Y236601D01*
X434186Y235610D01*
X438014D01*
X441712Y236601D01*
X445028Y238515D01*
X447735Y241222D01*
X449649Y244538D01*
X450640Y248236D01*
Y252064D01*
X449649Y255762D01*
X447735Y259078D01*
X445028Y261785D01*
X441712Y263699D01*
X438014Y264690D01*
D02*
G37*
G36*
X404014D02*
X400186D01*
X396488Y263699D01*
X393172Y261785D01*
X390465Y259078D01*
X388551Y255762D01*
X387560Y252064D01*
Y248236D01*
X388551Y244538D01*
X390465Y241222D01*
X393172Y238515D01*
X396488Y236601D01*
X400186Y235610D01*
X404014D01*
X407712Y236601D01*
X411028Y238515D01*
X413735Y241222D01*
X415649Y244538D01*
X416640Y248236D01*
Y252064D01*
X415649Y255762D01*
X413735Y259078D01*
X411028Y261785D01*
X407712Y263699D01*
X404014Y264690D01*
D02*
G37*
G36*
X311014D02*
X307186D01*
X303488Y263699D01*
X300172Y261785D01*
X297465Y259078D01*
X295551Y255762D01*
X294560Y252064D01*
Y248236D01*
X295551Y244538D01*
X297465Y241222D01*
X300172Y238515D01*
X303488Y236601D01*
X307186Y235610D01*
X311014D01*
X314712Y236601D01*
X318028Y238515D01*
X320735Y241222D01*
X322649Y244538D01*
X323640Y248236D01*
Y252064D01*
X322649Y255762D01*
X320735Y259078D01*
X318028Y261785D01*
X314712Y263699D01*
X311014Y264690D01*
D02*
G37*
G36*
X277014D02*
X273186D01*
X269488Y263699D01*
X266172Y261785D01*
X263465Y259078D01*
X261551Y255762D01*
X260560Y252064D01*
Y248236D01*
X261551Y244538D01*
X263465Y241222D01*
X266172Y238515D01*
X269488Y236601D01*
X273186Y235610D01*
X277014D01*
X280712Y236601D01*
X284028Y238515D01*
X286735Y241222D01*
X288649Y244538D01*
X289640Y248236D01*
Y252064D01*
X288649Y255762D01*
X286735Y259078D01*
X284028Y261785D01*
X280712Y263699D01*
X277014Y264690D01*
D02*
G37*
G36*
X184014D02*
X180186D01*
X176488Y263699D01*
X173172Y261785D01*
X170465Y259078D01*
X168551Y255762D01*
X167560Y252064D01*
Y248236D01*
X168551Y244538D01*
X170465Y241222D01*
X173172Y238515D01*
X176488Y236601D01*
X180186Y235610D01*
X184014D01*
X187712Y236601D01*
X191028Y238515D01*
X193735Y241222D01*
X195649Y244538D01*
X196640Y248236D01*
Y252064D01*
X195649Y255762D01*
X193735Y259078D01*
X191028Y261785D01*
X187712Y263699D01*
X184014Y264690D01*
D02*
G37*
G36*
X150014D02*
X146186D01*
X142488Y263699D01*
X139172Y261785D01*
X136465Y259078D01*
X134551Y255762D01*
X133560Y252064D01*
Y248236D01*
X134551Y244538D01*
X136465Y241222D01*
X139172Y238515D01*
X142488Y236601D01*
X146186Y235610D01*
X150014D01*
X153712Y236601D01*
X157028Y238515D01*
X159735Y241222D01*
X161649Y244538D01*
X162640Y248236D01*
Y252064D01*
X161649Y255762D01*
X159735Y259078D01*
X157028Y261785D01*
X153712Y263699D01*
X150014Y264690D01*
D02*
G37*
G36*
X1182914Y157715D02*
X1179286D01*
X1175729Y157007D01*
X1172377Y155619D01*
X1169361Y153604D01*
X1166796Y151039D01*
X1164781Y148023D01*
X1163393Y144671D01*
X1162685Y141114D01*
Y137486D01*
X1163393Y133928D01*
X1164781Y130577D01*
X1166796Y127561D01*
X1169361Y124996D01*
X1172377Y122981D01*
X1175729Y121593D01*
X1179286Y120885D01*
X1182914D01*
X1186471Y121593D01*
X1189823Y122981D01*
X1192839Y124996D01*
X1195404Y127561D01*
X1197419Y130577D01*
X1198807Y133928D01*
X1199515Y137486D01*
Y141114D01*
X1198807Y144671D01*
X1197419Y148023D01*
X1195404Y151039D01*
X1192839Y153604D01*
X1189823Y155619D01*
X1186471Y157007D01*
X1182914Y157715D01*
D02*
G37*
G36*
X1055914D02*
X1052286D01*
X1048728Y157007D01*
X1045377Y155619D01*
X1042361Y153604D01*
X1039796Y151039D01*
X1037781Y148023D01*
X1036393Y144671D01*
X1035685Y141114D01*
Y137486D01*
X1036393Y133928D01*
X1037781Y130577D01*
X1039796Y127561D01*
X1042361Y124996D01*
X1045377Y122981D01*
X1048728Y121593D01*
X1052286Y120885D01*
X1055914D01*
X1059472Y121593D01*
X1062823Y122981D01*
X1065839Y124996D01*
X1068404Y127561D01*
X1070419Y130577D01*
X1071807Y133928D01*
X1072515Y137486D01*
Y141114D01*
X1071807Y144671D01*
X1070419Y148023D01*
X1068404Y151039D01*
X1065839Y153604D01*
X1062823Y155619D01*
X1059472Y157007D01*
X1055914Y157715D01*
D02*
G37*
G36*
X928914D02*
X925286D01*
X921729Y157007D01*
X918377Y155619D01*
X915361Y153604D01*
X912796Y151039D01*
X910781Y148023D01*
X909393Y144671D01*
X908685Y141114D01*
Y137486D01*
X909393Y133928D01*
X910781Y130577D01*
X912796Y127561D01*
X915361Y124996D01*
X918377Y122981D01*
X921729Y121593D01*
X925286Y120885D01*
X928914D01*
X932471Y121593D01*
X935823Y122981D01*
X938839Y124996D01*
X941404Y127561D01*
X943419Y130577D01*
X944807Y133928D01*
X945515Y137486D01*
Y141114D01*
X944807Y144671D01*
X943419Y148023D01*
X941404Y151039D01*
X938839Y153604D01*
X935823Y155619D01*
X932471Y157007D01*
X928914Y157715D01*
D02*
G37*
G36*
X801914D02*
X798286D01*
X794728Y157007D01*
X791377Y155619D01*
X788361Y153604D01*
X785796Y151039D01*
X783781Y148023D01*
X782393Y144671D01*
X781685Y141114D01*
Y137486D01*
X782393Y133928D01*
X783781Y130577D01*
X785796Y127561D01*
X788361Y124996D01*
X791377Y122981D01*
X794728Y121593D01*
X798286Y120885D01*
X801914D01*
X805471Y121593D01*
X808823Y122981D01*
X811839Y124996D01*
X814404Y127561D01*
X816419Y130577D01*
X817807Y133928D01*
X818515Y137486D01*
Y141114D01*
X817807Y144671D01*
X816419Y148023D01*
X814404Y151039D01*
X811839Y153604D01*
X808823Y155619D01*
X805471Y157007D01*
X801914Y157715D01*
D02*
G37*
G36*
X674914D02*
X671286D01*
X667729Y157007D01*
X664377Y155619D01*
X661361Y153604D01*
X658796Y151039D01*
X656781Y148023D01*
X655393Y144671D01*
X654685Y141114D01*
Y137486D01*
X655393Y133928D01*
X656781Y130577D01*
X658796Y127561D01*
X661361Y124996D01*
X664377Y122981D01*
X667729Y121593D01*
X671286Y120885D01*
X674914D01*
X678472Y121593D01*
X681823Y122981D01*
X684839Y124996D01*
X687404Y127561D01*
X689419Y130577D01*
X690807Y133928D01*
X691515Y137486D01*
Y141114D01*
X690807Y144671D01*
X689419Y148023D01*
X687404Y151039D01*
X684839Y153604D01*
X681823Y155619D01*
X678472Y157007D01*
X674914Y157715D01*
D02*
G37*
G36*
X547914D02*
X544286D01*
X540728Y157007D01*
X537377Y155619D01*
X534361Y153604D01*
X531796Y151039D01*
X529781Y148023D01*
X528393Y144671D01*
X527685Y141114D01*
Y137486D01*
X528393Y133928D01*
X529781Y130577D01*
X531796Y127561D01*
X534361Y124996D01*
X537377Y122981D01*
X540728Y121593D01*
X544286Y120885D01*
X547914D01*
X551471Y121593D01*
X554823Y122981D01*
X557839Y124996D01*
X560404Y127561D01*
X562419Y130577D01*
X563807Y133928D01*
X564515Y137486D01*
Y141114D01*
X563807Y144671D01*
X562419Y148023D01*
X560404Y151039D01*
X557839Y153604D01*
X554823Y155619D01*
X551471Y157007D01*
X547914Y157715D01*
D02*
G37*
G36*
X420914D02*
X417286D01*
X413728Y157007D01*
X410377Y155619D01*
X407361Y153604D01*
X404796Y151039D01*
X402781Y148023D01*
X401393Y144671D01*
X400685Y141114D01*
Y137486D01*
X401393Y133928D01*
X402781Y130577D01*
X404796Y127561D01*
X407361Y124996D01*
X410377Y122981D01*
X413728Y121593D01*
X417286Y120885D01*
X420914D01*
X424472Y121593D01*
X427823Y122981D01*
X430839Y124996D01*
X433404Y127561D01*
X435419Y130577D01*
X436807Y133928D01*
X437515Y137486D01*
Y141114D01*
X436807Y144671D01*
X435419Y148023D01*
X433404Y151039D01*
X430839Y153604D01*
X427823Y155619D01*
X424472Y157007D01*
X420914Y157715D01*
D02*
G37*
G36*
X293914D02*
X290286D01*
X286728Y157007D01*
X283377Y155619D01*
X280361Y153604D01*
X277796Y151039D01*
X275781Y148023D01*
X274393Y144671D01*
X273685Y141114D01*
Y137486D01*
X274393Y133928D01*
X275781Y130577D01*
X277796Y127561D01*
X280361Y124996D01*
X283377Y122981D01*
X286728Y121593D01*
X290286Y120885D01*
X293914D01*
X297472Y121593D01*
X300823Y122981D01*
X303839Y124996D01*
X306404Y127561D01*
X308419Y130577D01*
X309807Y133928D01*
X310515Y137486D01*
Y141114D01*
X309807Y144671D01*
X308419Y148023D01*
X306404Y151039D01*
X303839Y153604D01*
X300823Y155619D01*
X297472Y157007D01*
X293914Y157715D01*
D02*
G37*
G36*
X167449Y180145D02*
X162751D01*
X158111Y179410D01*
X153644Y177958D01*
X149458Y175826D01*
X145657Y173064D01*
X142336Y169743D01*
X139574Y165942D01*
X137442Y161756D01*
X135990Y157289D01*
X135255Y152649D01*
Y147951D01*
X135990Y143311D01*
X137442Y138843D01*
X139574Y134658D01*
X142336Y130857D01*
X145657Y127535D01*
X149458Y124774D01*
X153644Y122642D01*
X158111Y121190D01*
X162751Y120455D01*
X167449D01*
X172089Y121190D01*
X176556Y122642D01*
X180742Y124774D01*
X184543Y127535D01*
X187864Y130857D01*
X190626Y134658D01*
X192758Y138843D01*
X194210Y143311D01*
X194945Y147951D01*
Y152649D01*
X194210Y157289D01*
X192758Y161756D01*
X190626Y165942D01*
X187864Y169743D01*
X184543Y173064D01*
X180742Y175826D01*
X176556Y177958D01*
X172089Y179410D01*
X167449Y180145D01*
D02*
G37*
G36*
X1199515Y107715D02*
X1182370D01*
Y90570D01*
X1199515D01*
Y107715D01*
D02*
G37*
G36*
X1072515D02*
X1055370D01*
Y90570D01*
X1072515D01*
Y107715D01*
D02*
G37*
G36*
X945515D02*
X928370D01*
Y90570D01*
X945515D01*
Y107715D01*
D02*
G37*
G36*
X818515D02*
X801370D01*
Y90570D01*
X818515D01*
Y107715D01*
D02*
G37*
G36*
X691515D02*
X674370D01*
Y90570D01*
X691515D01*
Y107715D01*
D02*
G37*
G36*
X564515D02*
X547370D01*
Y90570D01*
X564515D01*
Y107715D01*
D02*
G37*
G36*
X437515D02*
X420370D01*
Y90570D01*
X437515D01*
Y107715D01*
D02*
G37*
G36*
X310515D02*
X293370D01*
Y90570D01*
X310515D01*
Y107715D01*
D02*
G37*
G36*
X1179830D02*
X1162685D01*
Y90570D01*
X1179830D01*
Y107715D01*
D02*
G37*
G36*
X1052830D02*
X1035685D01*
Y90570D01*
X1052830D01*
Y107715D01*
D02*
G37*
G36*
X925830D02*
X908685D01*
Y90570D01*
X925830D01*
Y107715D01*
D02*
G37*
G36*
X798830D02*
X781685D01*
Y90570D01*
X798830D01*
Y107715D01*
D02*
G37*
G36*
X671830D02*
X654685D01*
Y90570D01*
X671830D01*
Y107715D01*
D02*
G37*
G36*
X544830D02*
X527685D01*
Y90570D01*
X544830D01*
Y107715D01*
D02*
G37*
G36*
X417830D02*
X400685D01*
Y90570D01*
X417830D01*
Y107715D01*
D02*
G37*
G36*
X290830D02*
X273685D01*
Y90570D01*
X290830D01*
Y107715D01*
D02*
G37*
G36*
X194945Y108145D02*
X166370D01*
Y79570D01*
X194945D01*
Y108145D01*
D02*
G37*
G36*
X163830D02*
X135255D01*
Y79570D01*
X163830D01*
Y108145D01*
D02*
G37*
G36*
X1199515Y88030D02*
X1182370D01*
Y70885D01*
X1199515D01*
Y88030D01*
D02*
G37*
G36*
X1179830D02*
X1162685D01*
Y70885D01*
X1179830D01*
Y88030D01*
D02*
G37*
G36*
X1072515D02*
X1055370D01*
Y70885D01*
X1072515D01*
Y88030D01*
D02*
G37*
G36*
X1052830D02*
X1035685D01*
Y70885D01*
X1052830D01*
Y88030D01*
D02*
G37*
G36*
X945515D02*
X928370D01*
Y70885D01*
X945515D01*
Y88030D01*
D02*
G37*
G36*
X925830D02*
X908685D01*
Y70885D01*
X925830D01*
Y88030D01*
D02*
G37*
G36*
X818515D02*
X801370D01*
Y70885D01*
X818515D01*
Y88030D01*
D02*
G37*
G36*
X798830D02*
X781685D01*
Y70885D01*
X798830D01*
Y88030D01*
D02*
G37*
G36*
X691515D02*
X674370D01*
Y70885D01*
X691515D01*
Y88030D01*
D02*
G37*
G36*
X671830D02*
X654685D01*
Y70885D01*
X671830D01*
Y88030D01*
D02*
G37*
G36*
X564515D02*
X547370D01*
Y70885D01*
X564515D01*
Y88030D01*
D02*
G37*
G36*
X544830D02*
X527685D01*
Y70885D01*
X544830D01*
Y88030D01*
D02*
G37*
G36*
X437515D02*
X420370D01*
Y70885D01*
X437515D01*
Y88030D01*
D02*
G37*
G36*
X417830D02*
X400685D01*
Y70885D01*
X417830D01*
Y88030D01*
D02*
G37*
G36*
X310515D02*
X293370D01*
Y70885D01*
X310515D01*
Y88030D01*
D02*
G37*
G36*
X290830D02*
X273685D01*
Y70885D01*
X290830D01*
Y88030D01*
D02*
G37*
G36*
X1297961Y83340D02*
X1296670D01*
Y52070D01*
X1327940D01*
Y53361D01*
X1327139Y58420D01*
X1325556Y63291D01*
X1323231Y67855D01*
X1320220Y71998D01*
X1316598Y75620D01*
X1312455Y78631D01*
X1307891Y80956D01*
X1303020Y82539D01*
X1297961Y83340D01*
D02*
G37*
G36*
X1294130D02*
X1292839D01*
X1287780Y82539D01*
X1282909Y80956D01*
X1278345Y78631D01*
X1274202Y75620D01*
X1270580Y71998D01*
X1267569Y67855D01*
X1265244Y63291D01*
X1263661Y58420D01*
X1262860Y53361D01*
Y52070D01*
X1294130D01*
Y83340D01*
D02*
G37*
G36*
X53361D02*
X52070D01*
Y52070D01*
X83340D01*
Y53361D01*
X82539Y58420D01*
X80956Y63291D01*
X78631Y67855D01*
X75620Y71998D01*
X71998Y75620D01*
X67855Y78631D01*
X63291Y80956D01*
X58420Y82539D01*
X53361Y83340D01*
D02*
G37*
G36*
X49530D02*
X48239D01*
X43180Y82539D01*
X38309Y80956D01*
X33745Y78631D01*
X29602Y75620D01*
X25980Y71998D01*
X22969Y67855D01*
X20644Y63291D01*
X19061Y58420D01*
X18260Y53361D01*
Y52070D01*
X49530D01*
Y83340D01*
D02*
G37*
G36*
X194945Y77030D02*
X166370D01*
Y48455D01*
X194945D01*
Y77030D01*
D02*
G37*
G36*
X163830D02*
X135255D01*
Y48455D01*
X163830D01*
Y77030D01*
D02*
G37*
G36*
X1327940Y49530D02*
X1296670D01*
Y18260D01*
X1297961D01*
X1303020Y19061D01*
X1307891Y20644D01*
X1312455Y22969D01*
X1316598Y25980D01*
X1320220Y29602D01*
X1323231Y33745D01*
X1325556Y38309D01*
X1327139Y43180D01*
X1327940Y48239D01*
Y49530D01*
D02*
G37*
G36*
X1294130D02*
X1262860D01*
Y48239D01*
X1263661Y43180D01*
X1265244Y38309D01*
X1267569Y33745D01*
X1270580Y29602D01*
X1274202Y25980D01*
X1278345Y22969D01*
X1282909Y20644D01*
X1287780Y19061D01*
X1292839Y18260D01*
X1294130D01*
Y49530D01*
D02*
G37*
G36*
X83340D02*
X52070D01*
Y18260D01*
X53361D01*
X58420Y19061D01*
X63291Y20644D01*
X67855Y22969D01*
X71998Y25980D01*
X75620Y29602D01*
X78631Y33745D01*
X80956Y38309D01*
X82539Y43180D01*
X83340Y48239D01*
Y49530D01*
D02*
G37*
G36*
X49530D02*
X18260D01*
Y48239D01*
X19061Y43180D01*
X20644Y38309D01*
X22969Y33745D01*
X25980Y29602D01*
X29602Y25980D01*
X33745Y22969D01*
X38309Y20644D01*
X43180Y19061D01*
X48239Y18260D01*
X49530D01*
Y49530D01*
D02*
G37*
%LPD*%
D28*
X1071100Y384850D02*
D03*
X1037100D02*
D03*
X1071100Y250150D02*
D03*
X1037100D02*
D03*
X436100Y384850D02*
D03*
X402100D02*
D03*
X436100Y250150D02*
D03*
X402100D02*
D03*
X182100Y384850D02*
D03*
X148100D02*
D03*
X182100Y250150D02*
D03*
X148100D02*
D03*
X783100D02*
D03*
X817100D02*
D03*
X783100Y384850D02*
D03*
X817100D02*
D03*
X656100Y250150D02*
D03*
X690100D02*
D03*
X656100Y384850D02*
D03*
X690100D02*
D03*
X1164100Y250150D02*
D03*
X1198100D02*
D03*
X1164100Y384850D02*
D03*
X1198100D02*
D03*
X910100Y250150D02*
D03*
X944100D02*
D03*
X910100Y384850D02*
D03*
X944100D02*
D03*
X275100Y250150D02*
D03*
X309100D02*
D03*
X275100Y384850D02*
D03*
X309100D02*
D03*
X529100Y250150D02*
D03*
X563100D02*
D03*
X529100Y384850D02*
D03*
X563100D02*
D03*
D29*
X546100Y89300D02*
D03*
X927100D02*
D03*
X1181100D02*
D03*
X1054100D02*
D03*
X673100D02*
D03*
X800100D02*
D03*
X419100D02*
D03*
X292100D02*
D03*
D30*
X546100Y139300D02*
D03*
X927100D02*
D03*
X1181100D02*
D03*
X1054100D02*
D03*
X673100D02*
D03*
X800100D02*
D03*
X419100D02*
D03*
X292100D02*
D03*
D31*
X165100Y150300D02*
D03*
D32*
Y78300D02*
D03*
D33*
X50800Y50800D02*
D03*
Y406400D02*
D03*
X1295400D02*
D03*
Y50800D02*
D03*
D34*
X1257300Y434340D02*
D03*
X1130300D02*
D03*
X1003300D02*
D03*
X876300D02*
D03*
X749300D02*
D03*
X622300D02*
D03*
X495300D02*
D03*
X368300D02*
D03*
X241300D02*
D03*
X96520Y414020D02*
D03*
M02*
