G04*
G04 #@! TF.GenerationSoftware,Altium Limited,Altium Designer,21.8.1 (53)*
G04*
G04 Layer_Color=16711935*
%FSLAX44Y44*%
%MOMM*%
G71*
G04*
G04 #@! TF.SameCoordinates,F20226F6-1504-4F19-8167-BFA24F29C99C*
G04*
G04*
G04 #@! TF.FilePolarity,Positive*
G04*
G01*
G75*
%ADD12C,0.1270*%
%ADD14C,0.1000*%
D12*
X555100Y61300D02*
X573100Y79300D01*
X537100Y61300D02*
X555100D01*
X519100Y79300D02*
X537100Y61300D01*
X519100Y166300D02*
X573100D01*
Y79300D02*
Y166300D01*
X519100Y79300D02*
Y166300D01*
X121920Y194310D02*
X208280D01*
X121920Y63308D02*
Y194310D01*
Y63308D02*
X147777Y34036D01*
X182423D02*
X208280Y63308D01*
Y194310D01*
X147777Y34036D02*
X182423D01*
X936100Y61300D02*
X954100Y79300D01*
X918100Y61300D02*
X936100D01*
X900100Y79300D02*
X918100Y61300D01*
X900100Y166300D02*
X954100D01*
Y79300D02*
Y166300D01*
X900100Y79300D02*
Y166300D01*
X1190100Y61300D02*
X1208100Y79300D01*
X1172100Y61300D02*
X1190100D01*
X1154100Y79300D02*
X1172100Y61300D01*
X1154100Y166300D02*
X1208100D01*
Y79300D02*
Y166300D01*
X1154100Y79300D02*
Y166300D01*
X1027100Y79300D02*
Y166300D01*
X1081100Y79300D02*
Y166300D01*
X1027100D02*
X1081100D01*
X1027100Y79300D02*
X1045100Y61300D01*
X1063100D01*
X1081100Y79300D01*
X682100Y61300D02*
X700100Y79300D01*
X664100Y61300D02*
X682100D01*
X646100Y79300D02*
X664100Y61300D01*
X646100Y166300D02*
X700100D01*
Y79300D02*
Y166300D01*
X646100Y79300D02*
Y166300D01*
X773100Y79300D02*
Y166300D01*
X827100Y79300D02*
Y166300D01*
X773100D02*
X827100D01*
X773100Y79300D02*
X791100Y61300D01*
X809100D01*
X827100Y79300D01*
X428100Y61300D02*
X446100Y79300D01*
X410100Y61300D02*
X428100D01*
X392100Y79300D02*
X410100Y61300D01*
X392100Y166300D02*
X446100D01*
Y79300D02*
Y166300D01*
X392100Y79300D02*
Y166300D01*
X265100Y79300D02*
Y166300D01*
X319100Y79300D02*
Y166300D01*
X265100D02*
X319100D01*
X265100Y79300D02*
X283100Y61300D01*
X301100D01*
X319100Y79300D01*
D14*
X469600Y321050D02*
X495600D01*
X469600Y288550D02*
X495600D01*
Y321050D01*
X469600Y288550D02*
Y321050D01*
X342600Y288550D02*
Y321050D01*
X368600Y288550D02*
Y321050D01*
X342600Y288550D02*
X368600D01*
X342600Y321050D02*
X368600D01*
X88600D02*
X114600D01*
X88600Y288550D02*
X114600D01*
Y321050D01*
X88600Y288550D02*
Y321050D01*
X215600D02*
X241600D01*
X215600Y288550D02*
X241600D01*
Y321050D01*
X215600Y288550D02*
Y321050D01*
X596600Y288550D02*
Y321050D01*
X622600Y288550D02*
Y321050D01*
X596600Y288550D02*
X622600D01*
X596600Y321050D02*
X622600D01*
X723600Y288550D02*
Y321050D01*
X749600Y288550D02*
Y321050D01*
X723600Y288550D02*
X749600D01*
X723600Y321050D02*
X749600D01*
X850600Y288550D02*
Y321050D01*
X876600Y288550D02*
Y321050D01*
X850600Y288550D02*
X876600D01*
X850600Y321050D02*
X876600D01*
X977600Y288550D02*
Y321050D01*
X1003600Y288550D02*
Y321050D01*
X977600Y288550D02*
X1003600D01*
X977600Y321050D02*
X1003600D01*
X1104600Y288550D02*
Y321050D01*
X1130600Y288550D02*
Y321050D01*
X1104600Y288550D02*
X1130600D01*
X1104600Y321050D02*
X1130600D01*
X1231600Y288550D02*
Y321050D01*
X1257600Y288550D02*
Y321050D01*
X1231600Y288550D02*
X1257600D01*
X1231600Y321050D02*
X1257600D01*
X215600Y339350D02*
Y371850D01*
X241600Y339350D02*
Y371850D01*
X215600Y339350D02*
X241600D01*
X215600Y371850D02*
X241600D01*
X469600Y339350D02*
Y371850D01*
X495600Y339350D02*
Y371850D01*
X469600Y339350D02*
X495600D01*
X469600Y371850D02*
X495600D01*
X596600Y339350D02*
Y371850D01*
X622600Y339350D02*
Y371850D01*
X596600Y339350D02*
X622600D01*
X596600Y371850D02*
X622600D01*
X723600Y339350D02*
Y371850D01*
X749600Y339350D02*
Y371850D01*
X723600Y339350D02*
X749600D01*
X723600Y371850D02*
X749600D01*
X977600Y339350D02*
Y371850D01*
X1003600Y339350D02*
Y371850D01*
X977600Y339350D02*
X1003600D01*
X977600Y371850D02*
X1003600D01*
X1231600Y339350D02*
Y371850D01*
X1257600Y339350D02*
Y371850D01*
X1231600Y339350D02*
X1257600D01*
X1231600Y371850D02*
X1257600D01*
X1104600Y339350D02*
Y371850D01*
X1130600Y339350D02*
Y371850D01*
X1104600Y339350D02*
X1130600D01*
X1104600Y371850D02*
X1130600D01*
X850600Y339350D02*
Y371850D01*
X876600Y339350D02*
Y371850D01*
X850600Y339350D02*
X876600D01*
X850600Y371850D02*
X876600D01*
X342600Y339350D02*
Y371850D01*
X368600Y339350D02*
Y371850D01*
X342600Y339350D02*
X368600D01*
X342600Y371850D02*
X368600D01*
X88600D02*
X114600D01*
X88600Y339350D02*
X114600D01*
Y371850D01*
X88600Y339350D02*
Y371850D01*
X474650Y397650D02*
Y415150D01*
X465150Y397650D02*
Y415150D01*
X474650D01*
X465150Y397650D02*
X474650D01*
X220650D02*
Y415150D01*
X211150Y397650D02*
Y415150D01*
X220650D01*
X211150Y397650D02*
X220650D01*
X109550D02*
X119050D01*
X109550Y415150D02*
X119050D01*
X109550Y397650D02*
Y415150D01*
X119050Y397650D02*
Y415150D01*
X601650Y397650D02*
Y415150D01*
X592150Y397650D02*
Y415150D01*
X601650D01*
X592150Y397650D02*
X601650D01*
X846150D02*
X855650D01*
X846150Y415150D02*
X855650D01*
X846150Y397650D02*
Y415150D01*
X855650Y397650D02*
Y415150D01*
X728650Y397650D02*
Y415150D01*
X719150Y397650D02*
Y415150D01*
X728650D01*
X719150Y397650D02*
X728650D01*
X338150D02*
X347650D01*
X338150Y415150D02*
X347650D01*
X338150Y397650D02*
Y415150D01*
X347650Y397650D02*
Y415150D01*
X1236650Y397650D02*
Y415150D01*
X1227150Y397650D02*
Y415150D01*
X1236650D01*
X1227150Y397650D02*
X1236650D01*
X1100150D02*
X1109650D01*
X1100150Y415150D02*
X1109650D01*
X1100150Y397650D02*
Y415150D01*
X1109650Y397650D02*
Y415150D01*
X982650Y397650D02*
Y415150D01*
X973150Y397650D02*
Y415150D01*
X982650D01*
X973150Y397650D02*
X982650D01*
M02*
