G04*
G04 #@! TF.GenerationSoftware,Altium Limited,Altium Designer,21.8.1 (53)*
G04*
G04 Layer_Physical_Order=1*
G04 Layer_Color=255*
%FSLAX44Y44*%
%MOMM*%
G71*
G04*
G04 #@! TF.SameCoordinates,F20226F6-1504-4F19-8167-BFA24F29C99C*
G04*
G04*
G04 #@! TF.FilePolarity,Positive*
G04*
G01*
G75*
%ADD10C,0.2540*%
%ADD16C,0.2032*%
%ADD17R,2.5000X1.1500*%
%ADD18R,0.8000X0.8000*%
%ADD28C,2.4000*%
%ADD29R,3.1750X3.1750*%
%ADD30C,3.1750*%
%ADD31C,5.4610*%
%ADD32R,5.4610X5.4610*%
%ADD33C,6.0000*%
%ADD34C,1.2700*%
G36*
X1339850Y450331D02*
Y6350D01*
X6350D01*
Y452547D01*
X7249Y453444D01*
X1339850Y450331D01*
D02*
G37*
%LPC*%
G36*
X1258470Y443230D02*
X1256130D01*
X1253869Y442624D01*
X1251841Y441454D01*
X1250186Y439799D01*
X1249016Y437771D01*
X1248410Y435510D01*
Y433170D01*
X1248880Y431414D01*
X1245177Y427710D01*
X1241826D01*
X1240339Y427415D01*
X1239079Y426573D01*
X1232946Y420440D01*
X1225360D01*
Y407360D01*
X1238440D01*
Y414946D01*
X1243435Y419941D01*
X1246786D01*
X1248272Y420237D01*
X1249533Y421079D01*
X1254374Y425920D01*
X1256130Y425450D01*
X1258470D01*
X1260731Y426056D01*
X1262759Y427226D01*
X1264414Y428881D01*
X1265584Y430909D01*
X1266190Y433170D01*
Y435510D01*
X1265584Y437771D01*
X1264414Y439799D01*
X1262759Y441454D01*
X1260731Y442624D01*
X1258470Y443230D01*
D02*
G37*
G36*
X1131470D02*
X1129130D01*
X1126869Y442624D01*
X1124841Y441454D01*
X1123186Y439799D01*
X1122016Y437771D01*
X1121410Y435510D01*
Y433170D01*
X1121880Y431414D01*
X1118177Y427710D01*
X1114826D01*
X1113339Y427415D01*
X1112079Y426573D01*
X1105946Y420440D01*
X1098360D01*
Y407360D01*
X1111440D01*
Y414946D01*
X1116435Y419941D01*
X1119786D01*
X1121272Y420237D01*
X1122533Y421079D01*
X1127374Y425920D01*
X1129130Y425450D01*
X1131470D01*
X1133731Y426056D01*
X1135759Y427226D01*
X1137414Y428881D01*
X1138584Y430909D01*
X1139190Y433170D01*
Y435510D01*
X1138584Y437771D01*
X1137414Y439799D01*
X1135759Y441454D01*
X1133731Y442624D01*
X1131470Y443230D01*
D02*
G37*
G36*
X1004470D02*
X1002130D01*
X999869Y442624D01*
X997841Y441454D01*
X996186Y439799D01*
X995016Y437771D01*
X994410Y435510D01*
Y433170D01*
X994880Y431414D01*
X991177Y427710D01*
X987826D01*
X986339Y427415D01*
X985079Y426573D01*
X978946Y420440D01*
X971360D01*
Y407360D01*
X984440D01*
Y414946D01*
X989435Y419941D01*
X992786D01*
X994272Y420237D01*
X995533Y421079D01*
X1000374Y425920D01*
X1002130Y425450D01*
X1004470D01*
X1006731Y426056D01*
X1008759Y427226D01*
X1010414Y428881D01*
X1011584Y430909D01*
X1012190Y433170D01*
Y435510D01*
X1011584Y437771D01*
X1010414Y439799D01*
X1008759Y441454D01*
X1006731Y442624D01*
X1004470Y443230D01*
D02*
G37*
G36*
X877470D02*
X875130D01*
X872869Y442624D01*
X870841Y441454D01*
X869186Y439799D01*
X868016Y437771D01*
X867410Y435510D01*
Y433170D01*
X867880Y431414D01*
X864177Y427710D01*
X860826D01*
X859339Y427415D01*
X858079Y426573D01*
X851946Y420440D01*
X844360D01*
Y407360D01*
X857440D01*
Y414946D01*
X862435Y419941D01*
X865786D01*
X867272Y420237D01*
X868533Y421079D01*
X873374Y425920D01*
X875130Y425450D01*
X877470D01*
X879731Y426056D01*
X881759Y427226D01*
X883414Y428881D01*
X884584Y430909D01*
X885190Y433170D01*
Y435510D01*
X884584Y437771D01*
X883414Y439799D01*
X881759Y441454D01*
X879731Y442624D01*
X877470Y443230D01*
D02*
G37*
G36*
X750470D02*
X748130D01*
X745869Y442624D01*
X743841Y441454D01*
X742186Y439799D01*
X741016Y437771D01*
X740410Y435510D01*
Y433170D01*
X740880Y431414D01*
X737177Y427710D01*
X733826D01*
X732339Y427415D01*
X731079Y426573D01*
X724946Y420440D01*
X717360D01*
Y407360D01*
X730440D01*
Y414946D01*
X735435Y419941D01*
X738786D01*
X740272Y420237D01*
X741533Y421079D01*
X746374Y425920D01*
X748130Y425450D01*
X750470D01*
X752731Y426056D01*
X754759Y427226D01*
X756414Y428881D01*
X757584Y430909D01*
X758190Y433170D01*
Y435510D01*
X757584Y437771D01*
X756414Y439799D01*
X754759Y441454D01*
X752731Y442624D01*
X750470Y443230D01*
D02*
G37*
G36*
X623470D02*
X621130D01*
X618869Y442624D01*
X616841Y441454D01*
X615186Y439799D01*
X614016Y437771D01*
X613410Y435510D01*
Y433170D01*
X613880Y431414D01*
X610177Y427710D01*
X606826D01*
X605339Y427415D01*
X604079Y426573D01*
X597946Y420440D01*
X590360D01*
Y407360D01*
X603440D01*
Y414946D01*
X608435Y419941D01*
X611786D01*
X613272Y420237D01*
X614533Y421079D01*
X619374Y425920D01*
X621130Y425450D01*
X623470D01*
X625731Y426056D01*
X627759Y427226D01*
X629414Y428881D01*
X630584Y430909D01*
X631190Y433170D01*
Y435510D01*
X630584Y437771D01*
X629414Y439799D01*
X627759Y441454D01*
X625731Y442624D01*
X623470Y443230D01*
D02*
G37*
G36*
X496470D02*
X494130D01*
X491869Y442624D01*
X489841Y441454D01*
X488186Y439799D01*
X487016Y437771D01*
X486410Y435510D01*
Y433170D01*
X486880Y431414D01*
X483177Y427710D01*
X479826D01*
X478339Y427415D01*
X477079Y426573D01*
X470946Y420440D01*
X463360D01*
Y407360D01*
X476440D01*
Y414946D01*
X481435Y419941D01*
X484786D01*
X486272Y420237D01*
X487533Y421079D01*
X492374Y425920D01*
X494130Y425450D01*
X496470D01*
X498731Y426056D01*
X500759Y427226D01*
X502414Y428881D01*
X503584Y430909D01*
X504190Y433170D01*
Y435510D01*
X503584Y437771D01*
X502414Y439799D01*
X500759Y441454D01*
X498731Y442624D01*
X496470Y443230D01*
D02*
G37*
G36*
X369470D02*
X367130D01*
X364869Y442624D01*
X362841Y441454D01*
X361186Y439799D01*
X360016Y437771D01*
X359410Y435510D01*
Y433170D01*
X359880Y431414D01*
X356177Y427710D01*
X352826D01*
X351339Y427415D01*
X350079Y426573D01*
X343946Y420440D01*
X336360D01*
Y407360D01*
X349440D01*
Y414946D01*
X354435Y419941D01*
X357786D01*
X359272Y420237D01*
X360533Y421079D01*
X365374Y425920D01*
X367130Y425450D01*
X369470D01*
X371731Y426056D01*
X373759Y427226D01*
X375414Y428881D01*
X376584Y430909D01*
X377190Y433170D01*
Y435510D01*
X376584Y437771D01*
X375414Y439799D01*
X373759Y441454D01*
X371731Y442624D01*
X369470Y443230D01*
D02*
G37*
G36*
X242470D02*
X240130D01*
X237869Y442624D01*
X235841Y441454D01*
X234186Y439799D01*
X233016Y437771D01*
X232410Y435510D01*
Y433170D01*
X232880Y431414D01*
X229177Y427710D01*
X225826D01*
X224339Y427415D01*
X223079Y426573D01*
X216946Y420440D01*
X209360D01*
Y407360D01*
X222440D01*
Y414946D01*
X227435Y419941D01*
X230786D01*
X232272Y420237D01*
X233533Y421079D01*
X238374Y425920D01*
X240130Y425450D01*
X242470D01*
X244731Y426056D01*
X246759Y427226D01*
X248414Y428881D01*
X249584Y430909D01*
X250190Y433170D01*
Y435510D01*
X249584Y437771D01*
X248414Y439799D01*
X246759Y441454D01*
X244731Y442624D01*
X242470Y443230D01*
D02*
G37*
G36*
X97690Y422910D02*
X95350D01*
X93089Y422304D01*
X91061Y421134D01*
X89406Y419479D01*
X88236Y417451D01*
X87630Y415190D01*
Y412850D01*
X88236Y410589D01*
X89406Y408561D01*
X91061Y406906D01*
X93089Y405736D01*
X95350Y405130D01*
X97690D01*
X99951Y405736D01*
X101979Y406906D01*
X103634Y408561D01*
X104543Y410135D01*
X107760D01*
Y407360D01*
X120840D01*
Y420440D01*
X107760D01*
Y417905D01*
X104543D01*
X103634Y419479D01*
X101979Y421134D01*
X99951Y422304D01*
X97690Y422910D01*
D02*
G37*
G36*
X1200014Y399390D02*
X1199370D01*
Y386120D01*
X1212640D01*
Y386764D01*
X1211649Y390462D01*
X1209735Y393778D01*
X1207028Y396485D01*
X1203712Y398399D01*
X1200014Y399390D01*
D02*
G37*
G36*
X1073014D02*
X1072370D01*
Y386120D01*
X1085640D01*
Y386764D01*
X1084649Y390462D01*
X1082735Y393778D01*
X1080028Y396485D01*
X1076712Y398399D01*
X1073014Y399390D01*
D02*
G37*
G36*
X946014D02*
X945370D01*
Y386120D01*
X958640D01*
Y386764D01*
X957649Y390462D01*
X955735Y393778D01*
X953028Y396485D01*
X949712Y398399D01*
X946014Y399390D01*
D02*
G37*
G36*
X819014D02*
X818370D01*
Y386120D01*
X831640D01*
Y386764D01*
X830649Y390462D01*
X828735Y393778D01*
X826028Y396485D01*
X822712Y398399D01*
X819014Y399390D01*
D02*
G37*
G36*
X692014D02*
X691370D01*
Y386120D01*
X704640D01*
Y386764D01*
X703649Y390462D01*
X701735Y393778D01*
X699028Y396485D01*
X695712Y398399D01*
X692014Y399390D01*
D02*
G37*
G36*
X565014D02*
X564370D01*
Y386120D01*
X577640D01*
Y386764D01*
X576649Y390462D01*
X574735Y393778D01*
X572028Y396485D01*
X568712Y398399D01*
X565014Y399390D01*
D02*
G37*
G36*
X438014D02*
X437370D01*
Y386120D01*
X450640D01*
Y386764D01*
X449649Y390462D01*
X447735Y393778D01*
X445028Y396485D01*
X441712Y398399D01*
X438014Y399390D01*
D02*
G37*
G36*
X311014D02*
X310370D01*
Y386120D01*
X323640D01*
Y386764D01*
X322649Y390462D01*
X320735Y393778D01*
X318028Y396485D01*
X314712Y398399D01*
X311014Y399390D01*
D02*
G37*
G36*
X561830D02*
X561186D01*
X557488Y398399D01*
X554172Y396485D01*
X551465Y393778D01*
X549551Y390462D01*
X548560Y386764D01*
Y386120D01*
X561830D01*
Y399390D01*
D02*
G37*
G36*
X434830D02*
X434186D01*
X430488Y398399D01*
X427172Y396485D01*
X424465Y393778D01*
X422551Y390462D01*
X421560Y386764D01*
Y386120D01*
X434830D01*
Y399390D01*
D02*
G37*
G36*
X307830D02*
X307186D01*
X303488Y398399D01*
X300172Y396485D01*
X297465Y393778D01*
X295551Y390462D01*
X294560Y386764D01*
Y386120D01*
X307830D01*
Y399390D01*
D02*
G37*
G36*
X1196830D02*
X1196186D01*
X1192488Y398399D01*
X1189172Y396485D01*
X1186465Y393778D01*
X1184551Y390462D01*
X1183560Y386764D01*
Y386120D01*
X1196830D01*
Y399390D01*
D02*
G37*
G36*
X1069830D02*
X1069186D01*
X1065488Y398399D01*
X1062172Y396485D01*
X1059465Y393778D01*
X1057551Y390462D01*
X1056560Y386764D01*
Y386120D01*
X1069830D01*
Y399390D01*
D02*
G37*
G36*
X942830D02*
X942186D01*
X938488Y398399D01*
X935172Y396485D01*
X932465Y393778D01*
X930551Y390462D01*
X929560Y386764D01*
Y386120D01*
X942830D01*
Y399390D01*
D02*
G37*
G36*
X815830D02*
X815186D01*
X811488Y398399D01*
X808172Y396485D01*
X805465Y393778D01*
X803551Y390462D01*
X802560Y386764D01*
Y386120D01*
X815830D01*
Y399390D01*
D02*
G37*
G36*
X688830D02*
X688186D01*
X684488Y398399D01*
X681172Y396485D01*
X678465Y393778D01*
X676551Y390462D01*
X675560Y386764D01*
Y386120D01*
X688830D01*
Y399390D01*
D02*
G37*
G36*
X184014D02*
X183370D01*
Y386120D01*
X196640D01*
Y386764D01*
X195649Y390462D01*
X193735Y393778D01*
X191028Y396485D01*
X187712Y398399D01*
X184014Y399390D01*
D02*
G37*
G36*
X150014D02*
X149370D01*
Y386120D01*
X162640D01*
Y386764D01*
X161649Y390462D01*
X159735Y393778D01*
X157028Y396485D01*
X153712Y398399D01*
X150014Y399390D01*
D02*
G37*
G36*
X180830D02*
X180186D01*
X176488Y398399D01*
X173172Y396485D01*
X170465Y393778D01*
X168551Y390462D01*
X167560Y386764D01*
Y386120D01*
X180830D01*
Y399390D01*
D02*
G37*
G36*
X146830D02*
X146186D01*
X142488Y398399D01*
X139172Y396485D01*
X136465Y393778D01*
X134551Y390462D01*
X133560Y386764D01*
Y386120D01*
X146830D01*
Y399390D01*
D02*
G37*
G36*
X1166014D02*
X1165370D01*
Y386120D01*
X1178640D01*
Y386764D01*
X1177649Y390462D01*
X1175735Y393778D01*
X1173028Y396485D01*
X1169712Y398399D01*
X1166014Y399390D01*
D02*
G37*
G36*
X1039014D02*
X1038370D01*
Y386120D01*
X1051640D01*
Y386764D01*
X1050649Y390462D01*
X1048735Y393778D01*
X1046028Y396485D01*
X1042712Y398399D01*
X1039014Y399390D01*
D02*
G37*
G36*
X912014D02*
X911370D01*
Y386120D01*
X924640D01*
Y386764D01*
X923649Y390462D01*
X921735Y393778D01*
X919028Y396485D01*
X915712Y398399D01*
X912014Y399390D01*
D02*
G37*
G36*
X785014D02*
X784370D01*
Y386120D01*
X797640D01*
Y386764D01*
X796649Y390462D01*
X794735Y393778D01*
X792028Y396485D01*
X788712Y398399D01*
X785014Y399390D01*
D02*
G37*
G36*
X658014D02*
X657370D01*
Y386120D01*
X670640D01*
Y386764D01*
X669649Y390462D01*
X667735Y393778D01*
X665028Y396485D01*
X661712Y398399D01*
X658014Y399390D01*
D02*
G37*
G36*
X531014D02*
X530370D01*
Y386120D01*
X543640D01*
Y386764D01*
X542649Y390462D01*
X540735Y393778D01*
X538028Y396485D01*
X534712Y398399D01*
X531014Y399390D01*
D02*
G37*
G36*
X404014D02*
X403370D01*
Y386120D01*
X416640D01*
Y386764D01*
X415649Y390462D01*
X413735Y393778D01*
X411028Y396485D01*
X407712Y398399D01*
X404014Y399390D01*
D02*
G37*
G36*
X277014D02*
X276370D01*
Y386120D01*
X289640D01*
Y386764D01*
X288649Y390462D01*
X286735Y393778D01*
X284028Y396485D01*
X280712Y398399D01*
X277014Y399390D01*
D02*
G37*
G36*
X527830D02*
X527186D01*
X523488Y398399D01*
X520172Y396485D01*
X517465Y393778D01*
X515551Y390462D01*
X514560Y386764D01*
Y386120D01*
X527830D01*
Y399390D01*
D02*
G37*
G36*
X400830D02*
X400186D01*
X396488Y398399D01*
X393172Y396485D01*
X390465Y393778D01*
X388551Y390462D01*
X387560Y386764D01*
Y386120D01*
X400830D01*
Y399390D01*
D02*
G37*
G36*
X273830D02*
X273186D01*
X269488Y398399D01*
X266172Y396485D01*
X263465Y393778D01*
X261551Y390462D01*
X260560Y386764D01*
Y386120D01*
X273830D01*
Y399390D01*
D02*
G37*
G36*
X1162830D02*
X1162186D01*
X1158488Y398399D01*
X1155172Y396485D01*
X1152465Y393778D01*
X1150551Y390462D01*
X1149560Y386764D01*
Y386120D01*
X1162830D01*
Y399390D01*
D02*
G37*
G36*
X1035830D02*
X1035186D01*
X1031488Y398399D01*
X1028172Y396485D01*
X1025465Y393778D01*
X1023551Y390462D01*
X1022560Y386764D01*
Y386120D01*
X1035830D01*
Y399390D01*
D02*
G37*
G36*
X908830D02*
X908186D01*
X904488Y398399D01*
X901172Y396485D01*
X898465Y393778D01*
X896551Y390462D01*
X895560Y386764D01*
Y386120D01*
X908830D01*
Y399390D01*
D02*
G37*
G36*
X781830D02*
X781186D01*
X777488Y398399D01*
X774172Y396485D01*
X771465Y393778D01*
X769551Y390462D01*
X768560Y386764D01*
Y386120D01*
X781830D01*
Y399390D01*
D02*
G37*
G36*
X654830D02*
X654186D01*
X650488Y398399D01*
X647172Y396485D01*
X644465Y393778D01*
X642551Y390462D01*
X641560Y386764D01*
Y386120D01*
X654830D01*
Y399390D01*
D02*
G37*
G36*
X1297961Y438940D02*
X1292839D01*
X1287780Y438139D01*
X1282909Y436556D01*
X1278345Y434231D01*
X1274202Y431220D01*
X1270580Y427598D01*
X1267569Y423455D01*
X1265244Y418891D01*
X1263661Y414020D01*
X1262860Y408961D01*
Y403839D01*
X1263661Y398780D01*
X1265244Y393909D01*
X1267569Y389345D01*
X1270580Y385202D01*
X1274202Y381580D01*
X1278345Y378569D01*
X1282909Y376244D01*
X1287780Y374661D01*
X1292839Y373860D01*
X1297961D01*
X1303020Y374661D01*
X1307891Y376244D01*
X1312455Y378569D01*
X1316598Y381580D01*
X1320220Y385202D01*
X1323231Y389345D01*
X1325556Y393909D01*
X1327139Y398780D01*
X1327940Y403839D01*
Y408961D01*
X1327139Y414020D01*
X1325556Y418891D01*
X1323231Y423455D01*
X1320220Y427598D01*
X1316598Y431220D01*
X1312455Y434231D01*
X1307891Y436556D01*
X1303020Y438139D01*
X1297961Y438940D01*
D02*
G37*
G36*
X53361D02*
X48239D01*
X43180Y438139D01*
X38309Y436556D01*
X33745Y434231D01*
X29602Y431220D01*
X25980Y427598D01*
X22969Y423455D01*
X20644Y418891D01*
X19061Y414020D01*
X18260Y408961D01*
Y403839D01*
X19061Y398780D01*
X20644Y393909D01*
X22969Y389345D01*
X25980Y385202D01*
X29602Y381580D01*
X33745Y378569D01*
X38309Y376244D01*
X43180Y374661D01*
X48239Y373860D01*
X53361D01*
X58420Y374661D01*
X63291Y376244D01*
X67855Y378569D01*
X71998Y381580D01*
X75620Y385202D01*
X78631Y389345D01*
X80956Y393909D01*
X82539Y398780D01*
X83340Y403839D01*
Y408961D01*
X82539Y414020D01*
X80956Y418891D01*
X78631Y423455D01*
X75620Y427598D01*
X71998Y431220D01*
X67855Y434231D01*
X63291Y436556D01*
X58420Y438139D01*
X53361Y438940D01*
D02*
G37*
G36*
X1212640Y383580D02*
X1199370D01*
Y370310D01*
X1200014D01*
X1203712Y371301D01*
X1207028Y373215D01*
X1209735Y375922D01*
X1211649Y379238D01*
X1212640Y382936D01*
Y383580D01*
D02*
G37*
G36*
X1196830D02*
X1183560D01*
Y382936D01*
X1184551Y379238D01*
X1186465Y375922D01*
X1189172Y373215D01*
X1192488Y371301D01*
X1196186Y370310D01*
X1196830D01*
Y383580D01*
D02*
G37*
G36*
X1178640Y383580D02*
X1165370D01*
Y370310D01*
X1166014D01*
X1169712Y371301D01*
X1173028Y373215D01*
X1175735Y375922D01*
X1177649Y379238D01*
X1178640Y382936D01*
Y383580D01*
D02*
G37*
G36*
X1162830D02*
X1149560D01*
Y382936D01*
X1150551Y379238D01*
X1152465Y375922D01*
X1155172Y373215D01*
X1158488Y371301D01*
X1162186Y370310D01*
X1162830D01*
Y383580D01*
D02*
G37*
G36*
X1085640Y383580D02*
X1072370D01*
Y370310D01*
X1073014D01*
X1076712Y371301D01*
X1080028Y373215D01*
X1082735Y375922D01*
X1084649Y379238D01*
X1085640Y382936D01*
Y383580D01*
D02*
G37*
G36*
X1069830D02*
X1056560D01*
Y382936D01*
X1057551Y379238D01*
X1059465Y375922D01*
X1062172Y373215D01*
X1065488Y371301D01*
X1069186Y370310D01*
X1069830D01*
Y383580D01*
D02*
G37*
G36*
X1051640Y383580D02*
X1038370D01*
Y370310D01*
X1039014D01*
X1042712Y371301D01*
X1046028Y373215D01*
X1048735Y375922D01*
X1050649Y379238D01*
X1051640Y382936D01*
Y383580D01*
D02*
G37*
G36*
X1035830D02*
X1022560D01*
Y382936D01*
X1023551Y379238D01*
X1025465Y375922D01*
X1028172Y373215D01*
X1031488Y371301D01*
X1035186Y370310D01*
X1035830D01*
Y383580D01*
D02*
G37*
G36*
X958640Y383580D02*
X945370D01*
Y370310D01*
X946014D01*
X949712Y371301D01*
X953028Y373215D01*
X955735Y375922D01*
X957649Y379238D01*
X958640Y382936D01*
Y383580D01*
D02*
G37*
G36*
X942830D02*
X929560D01*
Y382936D01*
X930551Y379238D01*
X932465Y375922D01*
X935172Y373215D01*
X938488Y371301D01*
X942186Y370310D01*
X942830D01*
Y383580D01*
D02*
G37*
G36*
X924640Y383580D02*
X911370D01*
Y370310D01*
X912014D01*
X915712Y371301D01*
X919028Y373215D01*
X921735Y375922D01*
X923649Y379238D01*
X924640Y382936D01*
Y383580D01*
D02*
G37*
G36*
X908830D02*
X895560D01*
Y382936D01*
X896551Y379238D01*
X898465Y375922D01*
X901172Y373215D01*
X904488Y371301D01*
X908186Y370310D01*
X908830D01*
Y383580D01*
D02*
G37*
G36*
X831640Y383580D02*
X818370D01*
Y370310D01*
X819014D01*
X822712Y371301D01*
X826028Y373215D01*
X828735Y375922D01*
X830649Y379238D01*
X831640Y382936D01*
Y383580D01*
D02*
G37*
G36*
X815830D02*
X802560D01*
Y382936D01*
X803551Y379238D01*
X805465Y375922D01*
X808172Y373215D01*
X811488Y371301D01*
X815186Y370310D01*
X815830D01*
Y383580D01*
D02*
G37*
G36*
X797640Y383580D02*
X784370D01*
Y370310D01*
X785014D01*
X788712Y371301D01*
X792028Y373215D01*
X794735Y375922D01*
X796649Y379238D01*
X797640Y382936D01*
Y383580D01*
D02*
G37*
G36*
X781830D02*
X768560D01*
Y382936D01*
X769551Y379238D01*
X771465Y375922D01*
X774172Y373215D01*
X777488Y371301D01*
X781186Y370310D01*
X781830D01*
Y383580D01*
D02*
G37*
G36*
X704640Y383580D02*
X691370D01*
Y370310D01*
X692014D01*
X695712Y371301D01*
X699028Y373215D01*
X701735Y375922D01*
X703649Y379238D01*
X704640Y382936D01*
Y383580D01*
D02*
G37*
G36*
X688830D02*
X675560D01*
Y382936D01*
X676551Y379238D01*
X678465Y375922D01*
X681172Y373215D01*
X684488Y371301D01*
X688186Y370310D01*
X688830D01*
Y383580D01*
D02*
G37*
G36*
X670640Y383580D02*
X657370D01*
Y370310D01*
X658014D01*
X661712Y371301D01*
X665028Y373215D01*
X667735Y375922D01*
X669649Y379238D01*
X670640Y382936D01*
Y383580D01*
D02*
G37*
G36*
X654830D02*
X641560D01*
Y382936D01*
X642551Y379238D01*
X644465Y375922D01*
X647172Y373215D01*
X650488Y371301D01*
X654186Y370310D01*
X654830D01*
Y383580D01*
D02*
G37*
G36*
X577640Y383580D02*
X564370D01*
Y370310D01*
X565014D01*
X568712Y371301D01*
X572028Y373215D01*
X574735Y375922D01*
X576649Y379238D01*
X577640Y382936D01*
Y383580D01*
D02*
G37*
G36*
X561830D02*
X548560D01*
Y382936D01*
X549551Y379238D01*
X551465Y375922D01*
X554172Y373215D01*
X557488Y371301D01*
X561186Y370310D01*
X561830D01*
Y383580D01*
D02*
G37*
G36*
X543640Y383580D02*
X530370D01*
Y370310D01*
X531014D01*
X534712Y371301D01*
X538028Y373215D01*
X540735Y375922D01*
X542649Y379238D01*
X543640Y382936D01*
Y383580D01*
D02*
G37*
G36*
X527830D02*
X514560D01*
Y382936D01*
X515551Y379238D01*
X517465Y375922D01*
X520172Y373215D01*
X523488Y371301D01*
X527186Y370310D01*
X527830D01*
Y383580D01*
D02*
G37*
G36*
X450640Y383580D02*
X437370D01*
Y370310D01*
X438014D01*
X441712Y371301D01*
X445028Y373215D01*
X447735Y375922D01*
X449649Y379238D01*
X450640Y382936D01*
Y383580D01*
D02*
G37*
G36*
X434830D02*
X421560D01*
Y382936D01*
X422551Y379238D01*
X424465Y375922D01*
X427172Y373215D01*
X430488Y371301D01*
X434186Y370310D01*
X434830D01*
Y383580D01*
D02*
G37*
G36*
X416640Y383580D02*
X403370D01*
Y370310D01*
X404014D01*
X407712Y371301D01*
X411028Y373215D01*
X413735Y375922D01*
X415649Y379238D01*
X416640Y382936D01*
Y383580D01*
D02*
G37*
G36*
X400830D02*
X387560D01*
Y382936D01*
X388551Y379238D01*
X390465Y375922D01*
X393172Y373215D01*
X396488Y371301D01*
X400186Y370310D01*
X400830D01*
Y383580D01*
D02*
G37*
G36*
X323640Y383580D02*
X310370D01*
Y370310D01*
X311014D01*
X314712Y371301D01*
X318028Y373215D01*
X320735Y375922D01*
X322649Y379238D01*
X323640Y382936D01*
Y383580D01*
D02*
G37*
G36*
X307830D02*
X294560D01*
Y382936D01*
X295551Y379238D01*
X297465Y375922D01*
X300172Y373215D01*
X303488Y371301D01*
X307186Y370310D01*
X307830D01*
Y383580D01*
D02*
G37*
G36*
X289640Y383580D02*
X276370D01*
Y370310D01*
X277014D01*
X280712Y371301D01*
X284028Y373215D01*
X286735Y375922D01*
X288649Y379238D01*
X289640Y382936D01*
Y383580D01*
D02*
G37*
G36*
X273830D02*
X260560D01*
Y382936D01*
X261551Y379238D01*
X263465Y375922D01*
X266172Y373215D01*
X269488Y371301D01*
X273186Y370310D01*
X273830D01*
Y383580D01*
D02*
G37*
G36*
X196640Y383580D02*
X183370D01*
Y370310D01*
X184014D01*
X187712Y371301D01*
X191028Y373215D01*
X193735Y375922D01*
X195649Y379238D01*
X196640Y382936D01*
Y383580D01*
D02*
G37*
G36*
X180830D02*
X167560D01*
Y382936D01*
X168551Y379238D01*
X170465Y375922D01*
X173172Y373215D01*
X176488Y371301D01*
X180186Y370310D01*
X180830D01*
Y383580D01*
D02*
G37*
G36*
X162640D02*
X149370D01*
Y370310D01*
X150014D01*
X153712Y371301D01*
X157028Y373215D01*
X159735Y375922D01*
X161649Y379238D01*
X162640Y382936D01*
Y383580D01*
D02*
G37*
G36*
X146830D02*
X133560D01*
Y382936D01*
X134551Y379238D01*
X136465Y375922D01*
X139172Y373215D01*
X142488Y371301D01*
X146186Y370310D01*
X146830D01*
Y383580D01*
D02*
G37*
G36*
X1238440Y405440D02*
X1225360D01*
Y392360D01*
X1232946D01*
X1240715Y384591D01*
Y379640D01*
X1229560D01*
Y363060D01*
X1259640D01*
Y379640D01*
X1248485D01*
Y386200D01*
X1248189Y387687D01*
X1247347Y388947D01*
X1238440Y397854D01*
Y405440D01*
D02*
G37*
G36*
X1111440D02*
X1098360D01*
Y392360D01*
X1105946D01*
X1113715Y384591D01*
Y379640D01*
X1102560D01*
Y363060D01*
X1132640D01*
Y379640D01*
X1121485D01*
Y386200D01*
X1121189Y387687D01*
X1120347Y388947D01*
X1111440Y397854D01*
Y405440D01*
D02*
G37*
G36*
X984440D02*
X971360D01*
Y392360D01*
X978946D01*
X986715Y384591D01*
Y379640D01*
X975560D01*
Y363060D01*
X1005640D01*
Y379640D01*
X994485D01*
Y386200D01*
X994189Y387687D01*
X993347Y388947D01*
X984440Y397854D01*
Y405440D01*
D02*
G37*
G36*
X857440D02*
X844360D01*
Y392360D01*
X851946D01*
X859715Y384591D01*
Y379640D01*
X848560D01*
Y363060D01*
X878640D01*
Y379640D01*
X867485D01*
Y386200D01*
X867189Y387687D01*
X866347Y388947D01*
X857440Y397854D01*
Y405440D01*
D02*
G37*
G36*
X730440D02*
X717360D01*
Y392360D01*
X724946D01*
X732715Y384591D01*
Y379640D01*
X721560D01*
Y363060D01*
X751640D01*
Y379640D01*
X740485D01*
Y386200D01*
X740189Y387687D01*
X739347Y388947D01*
X730440Y397854D01*
Y405440D01*
D02*
G37*
G36*
X603440D02*
X590360D01*
Y392360D01*
X597946D01*
X605715Y384591D01*
Y379640D01*
X594560D01*
Y363060D01*
X624640D01*
Y379640D01*
X613485D01*
Y386200D01*
X613189Y387687D01*
X612347Y388947D01*
X603440Y397854D01*
Y405440D01*
D02*
G37*
G36*
X476440D02*
X463360D01*
Y392360D01*
X470946D01*
X478715Y384591D01*
Y379640D01*
X467560D01*
Y363060D01*
X497640D01*
Y379640D01*
X486485D01*
Y386200D01*
X486189Y387687D01*
X485347Y388947D01*
X476440Y397854D01*
Y405440D01*
D02*
G37*
G36*
X349440D02*
X336360D01*
Y392360D01*
X343946D01*
X351715Y384591D01*
Y379640D01*
X340560D01*
Y363060D01*
X370640D01*
Y379640D01*
X359485D01*
Y386200D01*
X359189Y387687D01*
X358347Y388947D01*
X349440Y397854D01*
Y405440D01*
D02*
G37*
G36*
X222440D02*
X209360D01*
Y392360D01*
X216946D01*
X224715Y384591D01*
Y379640D01*
X213560D01*
Y363060D01*
X243640D01*
Y379640D01*
X232485D01*
Y386200D01*
X232189Y387687D01*
X231347Y388947D01*
X222440Y397854D01*
Y405440D01*
D02*
G37*
G36*
X120840D02*
X107760D01*
Y397854D01*
X98853Y388947D01*
X98011Y387687D01*
X97715Y386200D01*
Y379640D01*
X86560D01*
Y363060D01*
X116640D01*
Y379640D01*
X105485D01*
Y384591D01*
X113254Y392360D01*
X120840D01*
Y405440D01*
D02*
G37*
G36*
X1259640Y348140D02*
X1229560D01*
Y331560D01*
X1240715D01*
Y328840D01*
X1229560D01*
Y312260D01*
X1259640D01*
Y328840D01*
X1248485D01*
Y331560D01*
X1259640D01*
Y348140D01*
D02*
G37*
G36*
X1132640D02*
X1102560D01*
Y331560D01*
X1113715D01*
Y328840D01*
X1102560D01*
Y312260D01*
X1132640D01*
Y328840D01*
X1121485D01*
Y331560D01*
X1132640D01*
Y348140D01*
D02*
G37*
G36*
X1005640D02*
X975560D01*
Y331560D01*
X986715D01*
Y328840D01*
X975560D01*
Y312260D01*
X1005640D01*
Y328840D01*
X994485D01*
Y331560D01*
X1005640D01*
Y348140D01*
D02*
G37*
G36*
X878640D02*
X848560D01*
Y331560D01*
X859715D01*
Y328840D01*
X848560D01*
Y312260D01*
X878640D01*
Y328840D01*
X867485D01*
Y331560D01*
X878640D01*
Y348140D01*
D02*
G37*
G36*
X751640D02*
X721560D01*
Y331560D01*
X732715D01*
Y328840D01*
X721560D01*
Y312260D01*
X751640D01*
Y328840D01*
X740485D01*
Y331560D01*
X751640D01*
Y348140D01*
D02*
G37*
G36*
X624640D02*
X594560D01*
Y331560D01*
X605715D01*
Y328840D01*
X594560D01*
Y312260D01*
X624640D01*
Y328840D01*
X613485D01*
Y331560D01*
X624640D01*
Y348140D01*
D02*
G37*
G36*
X497640D02*
X467560D01*
Y331560D01*
X478715D01*
Y328840D01*
X467560D01*
Y312260D01*
X497640D01*
Y328840D01*
X486485D01*
Y331560D01*
X497640D01*
Y348140D01*
D02*
G37*
G36*
X370640D02*
X340560D01*
Y331560D01*
X351715D01*
Y328840D01*
X340560D01*
Y312260D01*
X370640D01*
Y328840D01*
X359485D01*
Y331560D01*
X370640D01*
Y348140D01*
D02*
G37*
G36*
X243640D02*
X213560D01*
Y331560D01*
X224715D01*
Y328840D01*
X213560D01*
Y312260D01*
X243640D01*
Y328840D01*
X232485D01*
Y331560D01*
X243640D01*
Y348140D01*
D02*
G37*
G36*
X62992Y366826D02*
X40640D01*
X39649Y366629D01*
X38809Y366067D01*
X38247Y365227D01*
X38050Y364236D01*
Y358140D01*
X38091Y357936D01*
X37159Y356666D01*
X26416D01*
X25425Y356469D01*
X24585Y355907D01*
X24023Y355067D01*
X23826Y354076D01*
Y350012D01*
X24023Y349021D01*
X24585Y348181D01*
X25425Y347619D01*
X26416Y347422D01*
X32512D01*
X33503Y347619D01*
X34343Y348181D01*
X34905Y349021D01*
X34991Y349454D01*
X48210D01*
Y341884D01*
X48407Y340893D01*
X48969Y340053D01*
X49809Y339491D01*
X50800Y339294D01*
X66609D01*
X66695Y338861D01*
X67257Y338021D01*
X68097Y337459D01*
X69088Y337262D01*
X75184D01*
X76175Y337459D01*
X77015Y338021D01*
X77577Y338861D01*
X77774Y339852D01*
Y345948D01*
X77577Y346939D01*
X77015Y347779D01*
X76409Y348184D01*
X76574Y349339D01*
X76620Y349454D01*
X78801D01*
X78887Y349021D01*
X79449Y348181D01*
X80289Y347619D01*
X81280Y347422D01*
X83312D01*
X84303Y347619D01*
X84910Y348025D01*
X85143Y348181D01*
X85143Y348181D01*
X85373Y348215D01*
X86552Y347204D01*
X86560Y347147D01*
X86560Y346918D01*
X86560Y346917D01*
X86560Y346905D01*
Y331560D01*
X97715D01*
Y328840D01*
X86560D01*
Y312260D01*
X116640D01*
Y328840D01*
X105485D01*
Y331560D01*
X116640D01*
Y348140D01*
X87823D01*
X87402Y348140D01*
X86536Y349366D01*
X86658Y349868D01*
X87175Y350213D01*
X87737Y351053D01*
X87934Y352044D01*
Y354076D01*
X87737Y355067D01*
X87175Y355907D01*
X86335Y356469D01*
X85809Y356573D01*
X85705Y357099D01*
X85143Y357939D01*
X84303Y358501D01*
X83312Y358698D01*
X81280D01*
X80289Y358501D01*
X79449Y357939D01*
X78887Y357099D01*
X78801Y356666D01*
X68492D01*
X68446Y356781D01*
X68281Y357936D01*
X68887Y358341D01*
X69449Y359181D01*
X69646Y360172D01*
Y362204D01*
X69449Y363195D01*
X68887Y364035D01*
X68047Y364597D01*
X67056Y364794D01*
X65471D01*
X65385Y365227D01*
X64823Y366067D01*
X63983Y366629D01*
X62992Y366826D01*
D02*
G37*
G36*
X243640Y297340D02*
X229870D01*
Y290320D01*
X243640D01*
Y297340D01*
D02*
G37*
G36*
X227330D02*
X213560D01*
Y290320D01*
X227330D01*
Y297340D01*
D02*
G37*
G36*
X243640Y287780D02*
X229870D01*
Y280760D01*
X243640D01*
Y287780D01*
D02*
G37*
G36*
X227330D02*
X213560D01*
Y280760D01*
X227330D01*
Y287780D01*
D02*
G37*
G36*
X1259640Y297340D02*
X1229560D01*
Y286254D01*
X1216838Y273532D01*
X1215258Y273611D01*
X1214418Y274173D01*
X1213427Y274370D01*
X1137920D01*
X1136929Y274173D01*
X1136089Y273611D01*
X1135527Y272771D01*
X1135330Y271780D01*
Y114300D01*
X1135527Y113309D01*
X1136089Y112469D01*
X1136929Y111907D01*
X1137920Y111710D01*
X1224280D01*
X1225271Y111907D01*
X1226111Y112469D01*
X1226673Y113309D01*
X1226870Y114300D01*
Y268327D01*
X1226673Y269318D01*
X1226111Y270158D01*
X1226032Y271738D01*
X1235054Y280760D01*
X1259640D01*
Y297340D01*
D02*
G37*
G36*
X1132640D02*
X1102560D01*
Y286254D01*
X1089838Y273532D01*
X1088258Y273611D01*
X1087418Y274173D01*
X1086427Y274370D01*
X1010920D01*
X1009929Y274173D01*
X1009089Y273611D01*
X1008527Y272771D01*
X1008330Y271780D01*
Y114300D01*
X1008527Y113309D01*
X1009089Y112469D01*
X1009929Y111907D01*
X1010920Y111710D01*
X1097280D01*
X1098271Y111907D01*
X1099111Y112469D01*
X1099673Y113309D01*
X1099870Y114300D01*
Y268327D01*
X1099673Y269318D01*
X1099111Y270158D01*
X1099032Y271738D01*
X1108054Y280760D01*
X1132640D01*
Y297340D01*
D02*
G37*
G36*
X1005640D02*
X975560D01*
Y286254D01*
X962838Y273532D01*
X961258Y273611D01*
X960418Y274173D01*
X959427Y274370D01*
X883920D01*
X882929Y274173D01*
X882089Y273611D01*
X881527Y272771D01*
X881330Y271780D01*
Y114300D01*
X881527Y113309D01*
X882089Y112469D01*
X882929Y111907D01*
X883920Y111710D01*
X970280D01*
X971271Y111907D01*
X972111Y112469D01*
X972673Y113309D01*
X972870Y114300D01*
Y268327D01*
X972673Y269318D01*
X972111Y270158D01*
X972032Y271738D01*
X981054Y280760D01*
X1005640D01*
Y297340D01*
D02*
G37*
G36*
X878640D02*
X848560D01*
Y286254D01*
X835838Y273532D01*
X834258Y273611D01*
X833418Y274173D01*
X832427Y274370D01*
X756920D01*
X755929Y274173D01*
X755089Y273611D01*
X754527Y272771D01*
X754330Y271780D01*
Y114300D01*
X754527Y113309D01*
X755089Y112469D01*
X755929Y111907D01*
X756920Y111710D01*
X843280D01*
X844271Y111907D01*
X845111Y112469D01*
X845673Y113309D01*
X845870Y114300D01*
Y268327D01*
X845673Y269318D01*
X845111Y270158D01*
X845032Y271738D01*
X854054Y280760D01*
X878640D01*
Y297340D01*
D02*
G37*
G36*
X751640D02*
X721560D01*
Y286254D01*
X708838Y273532D01*
X707258Y273611D01*
X706418Y274173D01*
X705427Y274370D01*
X629920D01*
X628929Y274173D01*
X628089Y273611D01*
X627527Y272771D01*
X627330Y271780D01*
Y114300D01*
X627527Y113309D01*
X628089Y112469D01*
X628929Y111907D01*
X629920Y111710D01*
X716280D01*
X717271Y111907D01*
X718111Y112469D01*
X718673Y113309D01*
X718870Y114300D01*
Y268327D01*
X718673Y269318D01*
X718111Y270158D01*
X718032Y271738D01*
X727054Y280760D01*
X751640D01*
Y297340D01*
D02*
G37*
G36*
X624640D02*
X594560D01*
Y286254D01*
X581838Y273532D01*
X580258Y273611D01*
X579418Y274173D01*
X578427Y274370D01*
X502920D01*
X501929Y274173D01*
X501089Y273611D01*
X500527Y272771D01*
X500330Y271780D01*
Y114300D01*
X500527Y113309D01*
X501089Y112469D01*
X501929Y111907D01*
X502920Y111710D01*
X589280D01*
X590271Y111907D01*
X591111Y112469D01*
X591673Y113309D01*
X591870Y114300D01*
Y268327D01*
X591673Y269318D01*
X591111Y270158D01*
X591032Y271738D01*
X600054Y280760D01*
X624640D01*
Y297340D01*
D02*
G37*
G36*
X497640D02*
X467560D01*
Y286254D01*
X454838Y273532D01*
X453258Y273611D01*
X452418Y274173D01*
X451427Y274370D01*
X375920D01*
X374929Y274173D01*
X374089Y273611D01*
X373527Y272771D01*
X373330Y271780D01*
Y114300D01*
X373527Y113309D01*
X374089Y112469D01*
X374929Y111907D01*
X375920Y111710D01*
X462280D01*
X463271Y111907D01*
X464111Y112469D01*
X464673Y113309D01*
X464870Y114300D01*
Y268327D01*
X464673Y269318D01*
X464111Y270158D01*
X464032Y271738D01*
X473054Y280760D01*
X497640D01*
Y297340D01*
D02*
G37*
G36*
X370640D02*
X340560D01*
Y286254D01*
X327838Y273532D01*
X326258Y273611D01*
X325418Y274173D01*
X324427Y274370D01*
X248920D01*
X247929Y274173D01*
X247089Y273611D01*
X246527Y272771D01*
X246330Y271780D01*
Y114300D01*
X246527Y113309D01*
X247089Y112469D01*
X247929Y111907D01*
X248920Y111710D01*
X335280D01*
X336271Y111907D01*
X337111Y112469D01*
X337673Y113309D01*
X337870Y114300D01*
Y268327D01*
X337673Y269318D01*
X337111Y270158D01*
X337032Y271738D01*
X346054Y280760D01*
X370640D01*
Y297340D01*
D02*
G37*
G36*
X116640D02*
X86560D01*
Y280760D01*
X111146D01*
X120168Y271738D01*
X120089Y270158D01*
X119527Y269318D01*
X119330Y268327D01*
Y114300D01*
X119527Y113309D01*
X120089Y112469D01*
X120929Y111907D01*
X121920Y111710D01*
X208280D01*
X209271Y111907D01*
X210111Y112469D01*
X210673Y113309D01*
X210870Y114300D01*
Y271780D01*
X210673Y272771D01*
X210111Y273611D01*
X209271Y274173D01*
X208280Y274370D01*
X132773D01*
X131782Y274173D01*
X130942Y273611D01*
X129362Y273532D01*
X116640Y286254D01*
Y297340D01*
D02*
G37*
G36*
X74347Y332740D02*
X35560D01*
Y87376D01*
X74347D01*
Y332740D01*
D02*
G37*
G36*
X1199515Y107715D02*
X1162685D01*
Y70885D01*
X1199515D01*
Y107715D01*
D02*
G37*
G36*
X1072515D02*
X1035685D01*
Y70885D01*
X1072515D01*
Y107715D01*
D02*
G37*
G36*
X945515D02*
X908685D01*
Y70885D01*
X945515D01*
Y107715D01*
D02*
G37*
G36*
X818515D02*
X781685D01*
Y70885D01*
X818515D01*
Y107715D01*
D02*
G37*
G36*
X691515D02*
X654685D01*
Y70885D01*
X691515D01*
Y107715D01*
D02*
G37*
G36*
X564515D02*
X527685D01*
Y70885D01*
X564515D01*
Y107715D01*
D02*
G37*
G36*
X437515D02*
X400685D01*
Y70885D01*
X437515D01*
Y107715D01*
D02*
G37*
G36*
X310515D02*
X273685D01*
Y70885D01*
X310515D01*
Y107715D01*
D02*
G37*
G36*
X194945Y108145D02*
X135255D01*
Y48455D01*
X194945D01*
Y108145D01*
D02*
G37*
G36*
X1297961Y83340D02*
X1292839D01*
X1287780Y82539D01*
X1282909Y80956D01*
X1278345Y78631D01*
X1274202Y75620D01*
X1270580Y71998D01*
X1267569Y67855D01*
X1265244Y63291D01*
X1263661Y58420D01*
X1262860Y53361D01*
Y48239D01*
X1263661Y43180D01*
X1265244Y38309D01*
X1267569Y33745D01*
X1270580Y29602D01*
X1274202Y25980D01*
X1278345Y22969D01*
X1282909Y20644D01*
X1287780Y19061D01*
X1292839Y18260D01*
X1297961D01*
X1303020Y19061D01*
X1307891Y20644D01*
X1312455Y22969D01*
X1316598Y25980D01*
X1320220Y29602D01*
X1323231Y33745D01*
X1325556Y38309D01*
X1327139Y43180D01*
X1327940Y48239D01*
Y53361D01*
X1327139Y58420D01*
X1325556Y63291D01*
X1323231Y67855D01*
X1320220Y71998D01*
X1316598Y75620D01*
X1312455Y78631D01*
X1307891Y80956D01*
X1303020Y82539D01*
X1297961Y83340D01*
D02*
G37*
G36*
X53361D02*
X48239D01*
X43180Y82539D01*
X38309Y80956D01*
X33745Y78631D01*
X29602Y75620D01*
X25980Y71998D01*
X22969Y67855D01*
X20644Y63291D01*
X19061Y58420D01*
X18260Y53361D01*
Y48239D01*
X19061Y43180D01*
X20644Y38309D01*
X22969Y33745D01*
X25980Y29602D01*
X29602Y25980D01*
X33745Y22969D01*
X38309Y20644D01*
X43180Y19061D01*
X48239Y18260D01*
X53361D01*
X58420Y19061D01*
X63291Y20644D01*
X67855Y22969D01*
X71998Y25980D01*
X75620Y29602D01*
X78631Y33745D01*
X80956Y38309D01*
X82539Y43180D01*
X83340Y48239D01*
Y53361D01*
X82539Y58420D01*
X80956Y63291D01*
X78631Y67855D01*
X75620Y71998D01*
X71998Y75620D01*
X67855Y78631D01*
X63291Y80956D01*
X58420Y82539D01*
X53361Y83340D01*
D02*
G37*
%LPD*%
G36*
X62992Y362204D02*
X67056D01*
Y360172D01*
X58928D01*
Y362204D01*
X42672D01*
Y358140D01*
X40640D01*
Y364236D01*
X62992D01*
Y362204D01*
D02*
G37*
G36*
X83312Y354076D02*
X85344D01*
Y352044D01*
X83312D01*
Y350012D01*
X81280D01*
Y352044D01*
X52832D01*
Y343916D01*
X69088D01*
Y345948D01*
X75184D01*
Y339852D01*
X69088D01*
Y341884D01*
X50800D01*
Y352044D01*
X32512D01*
Y350012D01*
X26416D01*
Y354076D01*
X81280D01*
Y356108D01*
X83312D01*
Y354076D01*
D02*
G37*
G36*
X1213913Y270607D02*
X1205800Y262494D01*
X1203712Y263699D01*
X1200014Y264690D01*
X1199370D01*
Y251420D01*
X1212640D01*
Y252064D01*
X1211649Y255762D01*
X1211066Y256772D01*
X1223107Y268813D01*
X1224280Y268327D01*
Y114300D01*
X1137920D01*
Y271780D01*
X1213427D01*
X1213913Y270607D01*
D02*
G37*
%LPC*%
G36*
X1196830Y264690D02*
X1196186D01*
X1192488Y263699D01*
X1189172Y261785D01*
X1186465Y259078D01*
X1184551Y255762D01*
X1183560Y252064D01*
Y251420D01*
X1196830D01*
Y264690D01*
D02*
G37*
G36*
X1166014D02*
X1165370D01*
Y251420D01*
X1178640D01*
Y252064D01*
X1177649Y255762D01*
X1175735Y259078D01*
X1173028Y261785D01*
X1169712Y263699D01*
X1166014Y264690D01*
D02*
G37*
G36*
X1162830D02*
X1162186D01*
X1158488Y263699D01*
X1155172Y261785D01*
X1152465Y259078D01*
X1150551Y255762D01*
X1149560Y252064D01*
Y251420D01*
X1162830D01*
Y264690D01*
D02*
G37*
G36*
X1212640Y248880D02*
X1199370D01*
Y235610D01*
X1200014D01*
X1203712Y236601D01*
X1207028Y238515D01*
X1209735Y241222D01*
X1211649Y244538D01*
X1212640Y248236D01*
Y248880D01*
D02*
G37*
G36*
X1196830D02*
X1183560D01*
Y248236D01*
X1184551Y244538D01*
X1186465Y241222D01*
X1189172Y238515D01*
X1192488Y236601D01*
X1196186Y235610D01*
X1196830D01*
Y248880D01*
D02*
G37*
G36*
X1178640Y248880D02*
X1165370D01*
Y235610D01*
X1166014D01*
X1169712Y236601D01*
X1173028Y238515D01*
X1175735Y241222D01*
X1177649Y244538D01*
X1178640Y248236D01*
Y248880D01*
D02*
G37*
G36*
X1162830D02*
X1149560D01*
Y248236D01*
X1150551Y244538D01*
X1152465Y241222D01*
X1155172Y238515D01*
X1158488Y236601D01*
X1162186Y235610D01*
X1162830D01*
Y248880D01*
D02*
G37*
G36*
X1182914Y157715D02*
X1182370D01*
Y140570D01*
X1199515D01*
Y141114D01*
X1198807Y144671D01*
X1197419Y148023D01*
X1195404Y151039D01*
X1192839Y153604D01*
X1189823Y155619D01*
X1186471Y157007D01*
X1182914Y157715D01*
D02*
G37*
G36*
X1179830D02*
X1179286D01*
X1175729Y157007D01*
X1172377Y155619D01*
X1169361Y153604D01*
X1166796Y151039D01*
X1164781Y148023D01*
X1163393Y144671D01*
X1162685Y141114D01*
Y140570D01*
X1179830D01*
Y157715D01*
D02*
G37*
G36*
X1199515Y138030D02*
X1182370D01*
Y120885D01*
X1182914D01*
X1186471Y121593D01*
X1189823Y122981D01*
X1192839Y124996D01*
X1195404Y127561D01*
X1197419Y130577D01*
X1198807Y133928D01*
X1199515Y137486D01*
Y138030D01*
D02*
G37*
G36*
X1179830D02*
X1162685D01*
Y137486D01*
X1163393Y133928D01*
X1164781Y130577D01*
X1166796Y127561D01*
X1169361Y124996D01*
X1172377Y122981D01*
X1175729Y121593D01*
X1179286Y120885D01*
X1179830D01*
Y138030D01*
D02*
G37*
%LPD*%
G36*
X1086913Y270607D02*
X1078800Y262494D01*
X1076712Y263699D01*
X1073014Y264690D01*
X1072370D01*
Y251420D01*
X1085640D01*
Y252064D01*
X1084649Y255762D01*
X1084066Y256772D01*
X1096107Y268813D01*
X1097280Y268327D01*
Y114300D01*
X1010920D01*
Y271780D01*
X1086427D01*
X1086913Y270607D01*
D02*
G37*
%LPC*%
G36*
X1069830Y264690D02*
X1069186D01*
X1065488Y263699D01*
X1062172Y261785D01*
X1059465Y259078D01*
X1057551Y255762D01*
X1056560Y252064D01*
Y251420D01*
X1069830D01*
Y264690D01*
D02*
G37*
G36*
X1039014D02*
X1038370D01*
Y251420D01*
X1051640D01*
Y252064D01*
X1050649Y255762D01*
X1048735Y259078D01*
X1046028Y261785D01*
X1042712Y263699D01*
X1039014Y264690D01*
D02*
G37*
G36*
X1035830D02*
X1035186D01*
X1031488Y263699D01*
X1028172Y261785D01*
X1025465Y259078D01*
X1023551Y255762D01*
X1022560Y252064D01*
Y251420D01*
X1035830D01*
Y264690D01*
D02*
G37*
G36*
X1085640Y248880D02*
X1072370D01*
Y235610D01*
X1073014D01*
X1076712Y236601D01*
X1080028Y238515D01*
X1082735Y241222D01*
X1084649Y244538D01*
X1085640Y248236D01*
Y248880D01*
D02*
G37*
G36*
X1069830D02*
X1056560D01*
Y248236D01*
X1057551Y244538D01*
X1059465Y241222D01*
X1062172Y238515D01*
X1065488Y236601D01*
X1069186Y235610D01*
X1069830D01*
Y248880D01*
D02*
G37*
G36*
X1051640Y248880D02*
X1038370D01*
Y235610D01*
X1039014D01*
X1042712Y236601D01*
X1046028Y238515D01*
X1048735Y241222D01*
X1050649Y244538D01*
X1051640Y248236D01*
Y248880D01*
D02*
G37*
G36*
X1035830D02*
X1022560D01*
Y248236D01*
X1023551Y244538D01*
X1025465Y241222D01*
X1028172Y238515D01*
X1031488Y236601D01*
X1035186Y235610D01*
X1035830D01*
Y248880D01*
D02*
G37*
G36*
X1055914Y157715D02*
X1055370D01*
Y140570D01*
X1072515D01*
Y141114D01*
X1071807Y144671D01*
X1070419Y148023D01*
X1068404Y151039D01*
X1065839Y153604D01*
X1062823Y155619D01*
X1059472Y157007D01*
X1055914Y157715D01*
D02*
G37*
G36*
X1052830D02*
X1052286D01*
X1048728Y157007D01*
X1045377Y155619D01*
X1042361Y153604D01*
X1039796Y151039D01*
X1037781Y148023D01*
X1036393Y144671D01*
X1035685Y141114D01*
Y140570D01*
X1052830D01*
Y157715D01*
D02*
G37*
G36*
X1072515Y138030D02*
X1055370D01*
Y120885D01*
X1055914D01*
X1059472Y121593D01*
X1062823Y122981D01*
X1065839Y124996D01*
X1068404Y127561D01*
X1070419Y130577D01*
X1071807Y133928D01*
X1072515Y137486D01*
Y138030D01*
D02*
G37*
G36*
X1052830D02*
X1035685D01*
Y137486D01*
X1036393Y133928D01*
X1037781Y130577D01*
X1039796Y127561D01*
X1042361Y124996D01*
X1045377Y122981D01*
X1048728Y121593D01*
X1052286Y120885D01*
X1052830D01*
Y138030D01*
D02*
G37*
%LPD*%
G36*
X959913Y270607D02*
X951800Y262494D01*
X949712Y263699D01*
X946014Y264690D01*
X945370D01*
Y251420D01*
X958640D01*
Y252064D01*
X957649Y255762D01*
X957066Y256772D01*
X969107Y268813D01*
X970280Y268327D01*
Y114300D01*
X883920D01*
Y271780D01*
X959427D01*
X959913Y270607D01*
D02*
G37*
%LPC*%
G36*
X942830Y264690D02*
X942186D01*
X938488Y263699D01*
X935172Y261785D01*
X932465Y259078D01*
X930551Y255762D01*
X929560Y252064D01*
Y251420D01*
X942830D01*
Y264690D01*
D02*
G37*
G36*
X912014D02*
X911370D01*
Y251420D01*
X924640D01*
Y252064D01*
X923649Y255762D01*
X921735Y259078D01*
X919028Y261785D01*
X915712Y263699D01*
X912014Y264690D01*
D02*
G37*
G36*
X908830D02*
X908186D01*
X904488Y263699D01*
X901172Y261785D01*
X898465Y259078D01*
X896551Y255762D01*
X895560Y252064D01*
Y251420D01*
X908830D01*
Y264690D01*
D02*
G37*
G36*
X958640Y248880D02*
X945370D01*
Y235610D01*
X946014D01*
X949712Y236601D01*
X953028Y238515D01*
X955735Y241222D01*
X957649Y244538D01*
X958640Y248236D01*
Y248880D01*
D02*
G37*
G36*
X942830D02*
X929560D01*
Y248236D01*
X930551Y244538D01*
X932465Y241222D01*
X935172Y238515D01*
X938488Y236601D01*
X942186Y235610D01*
X942830D01*
Y248880D01*
D02*
G37*
G36*
X924640Y248880D02*
X911370D01*
Y235610D01*
X912014D01*
X915712Y236601D01*
X919028Y238515D01*
X921735Y241222D01*
X923649Y244538D01*
X924640Y248236D01*
Y248880D01*
D02*
G37*
G36*
X908830D02*
X895560D01*
Y248236D01*
X896551Y244538D01*
X898465Y241222D01*
X901172Y238515D01*
X904488Y236601D01*
X908186Y235610D01*
X908830D01*
Y248880D01*
D02*
G37*
G36*
X928914Y157715D02*
X928370D01*
Y140570D01*
X945515D01*
Y141114D01*
X944807Y144671D01*
X943419Y148023D01*
X941404Y151039D01*
X938839Y153604D01*
X935823Y155619D01*
X932471Y157007D01*
X928914Y157715D01*
D02*
G37*
G36*
X925830D02*
X925286D01*
X921729Y157007D01*
X918377Y155619D01*
X915361Y153604D01*
X912796Y151039D01*
X910781Y148023D01*
X909393Y144671D01*
X908685Y141114D01*
Y140570D01*
X925830D01*
Y157715D01*
D02*
G37*
G36*
X945515Y138030D02*
X928370D01*
Y120885D01*
X928914D01*
X932471Y121593D01*
X935823Y122981D01*
X938839Y124996D01*
X941404Y127561D01*
X943419Y130577D01*
X944807Y133928D01*
X945515Y137486D01*
Y138030D01*
D02*
G37*
G36*
X925830D02*
X908685D01*
Y137486D01*
X909393Y133928D01*
X910781Y130577D01*
X912796Y127561D01*
X915361Y124996D01*
X918377Y122981D01*
X921729Y121593D01*
X925286Y120885D01*
X925830D01*
Y138030D01*
D02*
G37*
%LPD*%
G36*
X832913Y270607D02*
X824800Y262494D01*
X822712Y263699D01*
X819014Y264690D01*
X818370D01*
Y251420D01*
X831640D01*
Y252064D01*
X830649Y255762D01*
X830066Y256772D01*
X842107Y268813D01*
X843280Y268327D01*
Y114300D01*
X756920D01*
Y271780D01*
X832427D01*
X832913Y270607D01*
D02*
G37*
%LPC*%
G36*
X815830Y264690D02*
X815186D01*
X811488Y263699D01*
X808172Y261785D01*
X805465Y259078D01*
X803551Y255762D01*
X802560Y252064D01*
Y251420D01*
X815830D01*
Y264690D01*
D02*
G37*
G36*
X785014D02*
X784370D01*
Y251420D01*
X797640D01*
Y252064D01*
X796649Y255762D01*
X794735Y259078D01*
X792028Y261785D01*
X788712Y263699D01*
X785014Y264690D01*
D02*
G37*
G36*
X781830D02*
X781186D01*
X777488Y263699D01*
X774172Y261785D01*
X771465Y259078D01*
X769551Y255762D01*
X768560Y252064D01*
Y251420D01*
X781830D01*
Y264690D01*
D02*
G37*
G36*
X831640Y248880D02*
X818370D01*
Y235610D01*
X819014D01*
X822712Y236601D01*
X826028Y238515D01*
X828735Y241222D01*
X830649Y244538D01*
X831640Y248236D01*
Y248880D01*
D02*
G37*
G36*
X815830D02*
X802560D01*
Y248236D01*
X803551Y244538D01*
X805465Y241222D01*
X808172Y238515D01*
X811488Y236601D01*
X815186Y235610D01*
X815830D01*
Y248880D01*
D02*
G37*
G36*
X797640Y248880D02*
X784370D01*
Y235610D01*
X785014D01*
X788712Y236601D01*
X792028Y238515D01*
X794735Y241222D01*
X796649Y244538D01*
X797640Y248236D01*
Y248880D01*
D02*
G37*
G36*
X781830D02*
X768560D01*
Y248236D01*
X769551Y244538D01*
X771465Y241222D01*
X774172Y238515D01*
X777488Y236601D01*
X781186Y235610D01*
X781830D01*
Y248880D01*
D02*
G37*
G36*
X801914Y157715D02*
X801370D01*
Y140570D01*
X818515D01*
Y141114D01*
X817807Y144671D01*
X816419Y148023D01*
X814404Y151039D01*
X811839Y153604D01*
X808823Y155619D01*
X805471Y157007D01*
X801914Y157715D01*
D02*
G37*
G36*
X798830D02*
X798286D01*
X794728Y157007D01*
X791377Y155619D01*
X788361Y153604D01*
X785796Y151039D01*
X783781Y148023D01*
X782393Y144671D01*
X781685Y141114D01*
Y140570D01*
X798830D01*
Y157715D01*
D02*
G37*
G36*
X818515Y138030D02*
X801370D01*
Y120885D01*
X801914D01*
X805471Y121593D01*
X808823Y122981D01*
X811839Y124996D01*
X814404Y127561D01*
X816419Y130577D01*
X817807Y133928D01*
X818515Y137486D01*
Y138030D01*
D02*
G37*
G36*
X798830D02*
X781685D01*
Y137486D01*
X782393Y133928D01*
X783781Y130577D01*
X785796Y127561D01*
X788361Y124996D01*
X791377Y122981D01*
X794728Y121593D01*
X798286Y120885D01*
X798830D01*
Y138030D01*
D02*
G37*
%LPD*%
G36*
X705913Y270607D02*
X697800Y262494D01*
X695712Y263699D01*
X692014Y264690D01*
X691370D01*
Y251420D01*
X704640D01*
Y252064D01*
X703649Y255762D01*
X703066Y256772D01*
X715107Y268813D01*
X716280Y268327D01*
Y114300D01*
X629920D01*
Y271780D01*
X705427D01*
X705913Y270607D01*
D02*
G37*
%LPC*%
G36*
X688830Y264690D02*
X688186D01*
X684488Y263699D01*
X681172Y261785D01*
X678465Y259078D01*
X676551Y255762D01*
X675560Y252064D01*
Y251420D01*
X688830D01*
Y264690D01*
D02*
G37*
G36*
X658014D02*
X657370D01*
Y251420D01*
X670640D01*
Y252064D01*
X669649Y255762D01*
X667735Y259078D01*
X665028Y261785D01*
X661712Y263699D01*
X658014Y264690D01*
D02*
G37*
G36*
X654830D02*
X654186D01*
X650488Y263699D01*
X647172Y261785D01*
X644465Y259078D01*
X642551Y255762D01*
X641560Y252064D01*
Y251420D01*
X654830D01*
Y264690D01*
D02*
G37*
G36*
X704640Y248880D02*
X691370D01*
Y235610D01*
X692014D01*
X695712Y236601D01*
X699028Y238515D01*
X701735Y241222D01*
X703649Y244538D01*
X704640Y248236D01*
Y248880D01*
D02*
G37*
G36*
X688830D02*
X675560D01*
Y248236D01*
X676551Y244538D01*
X678465Y241222D01*
X681172Y238515D01*
X684488Y236601D01*
X688186Y235610D01*
X688830D01*
Y248880D01*
D02*
G37*
G36*
X670640Y248880D02*
X657370D01*
Y235610D01*
X658014D01*
X661712Y236601D01*
X665028Y238515D01*
X667735Y241222D01*
X669649Y244538D01*
X670640Y248236D01*
Y248880D01*
D02*
G37*
G36*
X654830D02*
X641560D01*
Y248236D01*
X642551Y244538D01*
X644465Y241222D01*
X647172Y238515D01*
X650488Y236601D01*
X654186Y235610D01*
X654830D01*
Y248880D01*
D02*
G37*
G36*
X674914Y157715D02*
X674370D01*
Y140570D01*
X691515D01*
Y141114D01*
X690807Y144671D01*
X689419Y148023D01*
X687404Y151039D01*
X684839Y153604D01*
X681823Y155619D01*
X678472Y157007D01*
X674914Y157715D01*
D02*
G37*
G36*
X671830D02*
X671286D01*
X667729Y157007D01*
X664377Y155619D01*
X661361Y153604D01*
X658796Y151039D01*
X656781Y148023D01*
X655393Y144671D01*
X654685Y141114D01*
Y140570D01*
X671830D01*
Y157715D01*
D02*
G37*
G36*
X691515Y138030D02*
X674370D01*
Y120885D01*
X674914D01*
X678472Y121593D01*
X681823Y122981D01*
X684839Y124996D01*
X687404Y127561D01*
X689419Y130577D01*
X690807Y133928D01*
X691515Y137486D01*
Y138030D01*
D02*
G37*
G36*
X671830D02*
X654685D01*
Y137486D01*
X655393Y133928D01*
X656781Y130577D01*
X658796Y127561D01*
X661361Y124996D01*
X664377Y122981D01*
X667729Y121593D01*
X671286Y120885D01*
X671830D01*
Y138030D01*
D02*
G37*
%LPD*%
G36*
X578913Y270607D02*
X570800Y262494D01*
X568712Y263699D01*
X565014Y264690D01*
X564370D01*
Y251420D01*
X577640D01*
Y252064D01*
X576649Y255762D01*
X576066Y256772D01*
X588107Y268813D01*
X589280Y268327D01*
Y114300D01*
X502920D01*
Y271780D01*
X578427D01*
X578913Y270607D01*
D02*
G37*
%LPC*%
G36*
X561830Y264690D02*
X561186D01*
X557488Y263699D01*
X554172Y261785D01*
X551465Y259078D01*
X549551Y255762D01*
X548560Y252064D01*
Y251420D01*
X561830D01*
Y264690D01*
D02*
G37*
G36*
X531014D02*
X530370D01*
Y251420D01*
X543640D01*
Y252064D01*
X542649Y255762D01*
X540735Y259078D01*
X538028Y261785D01*
X534712Y263699D01*
X531014Y264690D01*
D02*
G37*
G36*
X527830D02*
X527186D01*
X523488Y263699D01*
X520172Y261785D01*
X517465Y259078D01*
X515551Y255762D01*
X514560Y252064D01*
Y251420D01*
X527830D01*
Y264690D01*
D02*
G37*
G36*
X577640Y248880D02*
X564370D01*
Y235610D01*
X565014D01*
X568712Y236601D01*
X572028Y238515D01*
X574735Y241222D01*
X576649Y244538D01*
X577640Y248236D01*
Y248880D01*
D02*
G37*
G36*
X561830D02*
X548560D01*
Y248236D01*
X549551Y244538D01*
X551465Y241222D01*
X554172Y238515D01*
X557488Y236601D01*
X561186Y235610D01*
X561830D01*
Y248880D01*
D02*
G37*
G36*
X543640Y248880D02*
X530370D01*
Y235610D01*
X531014D01*
X534712Y236601D01*
X538028Y238515D01*
X540735Y241222D01*
X542649Y244538D01*
X543640Y248236D01*
Y248880D01*
D02*
G37*
G36*
X527830D02*
X514560D01*
Y248236D01*
X515551Y244538D01*
X517465Y241222D01*
X520172Y238515D01*
X523488Y236601D01*
X527186Y235610D01*
X527830D01*
Y248880D01*
D02*
G37*
G36*
X547914Y157715D02*
X547370D01*
Y140570D01*
X564515D01*
Y141114D01*
X563807Y144671D01*
X562419Y148023D01*
X560404Y151039D01*
X557839Y153604D01*
X554823Y155619D01*
X551471Y157007D01*
X547914Y157715D01*
D02*
G37*
G36*
X544830D02*
X544286D01*
X540728Y157007D01*
X537377Y155619D01*
X534361Y153604D01*
X531796Y151039D01*
X529781Y148023D01*
X528393Y144671D01*
X527685Y141114D01*
Y140570D01*
X544830D01*
Y157715D01*
D02*
G37*
G36*
X564515Y138030D02*
X547370D01*
Y120885D01*
X547914D01*
X551471Y121593D01*
X554823Y122981D01*
X557839Y124996D01*
X560404Y127561D01*
X562419Y130577D01*
X563807Y133928D01*
X564515Y137486D01*
Y138030D01*
D02*
G37*
G36*
X544830D02*
X527685D01*
Y137486D01*
X528393Y133928D01*
X529781Y130577D01*
X531796Y127561D01*
X534361Y124996D01*
X537377Y122981D01*
X540728Y121593D01*
X544286Y120885D01*
X544830D01*
Y138030D01*
D02*
G37*
%LPD*%
G36*
X451913Y270607D02*
X443800Y262494D01*
X441712Y263699D01*
X438014Y264690D01*
X437370D01*
Y251420D01*
X450640D01*
Y252064D01*
X449649Y255762D01*
X449066Y256772D01*
X461107Y268813D01*
X462280Y268327D01*
Y114300D01*
X375920D01*
Y271780D01*
X451427D01*
X451913Y270607D01*
D02*
G37*
%LPC*%
G36*
X434830Y264690D02*
X434186D01*
X430488Y263699D01*
X427172Y261785D01*
X424465Y259078D01*
X422551Y255762D01*
X421560Y252064D01*
Y251420D01*
X434830D01*
Y264690D01*
D02*
G37*
G36*
X404014D02*
X403370D01*
Y251420D01*
X416640D01*
Y252064D01*
X415649Y255762D01*
X413735Y259078D01*
X411028Y261785D01*
X407712Y263699D01*
X404014Y264690D01*
D02*
G37*
G36*
X400830D02*
X400186D01*
X396488Y263699D01*
X393172Y261785D01*
X390465Y259078D01*
X388551Y255762D01*
X387560Y252064D01*
Y251420D01*
X400830D01*
Y264690D01*
D02*
G37*
G36*
X450640Y248880D02*
X437370D01*
Y235610D01*
X438014D01*
X441712Y236601D01*
X445028Y238515D01*
X447735Y241222D01*
X449649Y244538D01*
X450640Y248236D01*
Y248880D01*
D02*
G37*
G36*
X434830D02*
X421560D01*
Y248236D01*
X422551Y244538D01*
X424465Y241222D01*
X427172Y238515D01*
X430488Y236601D01*
X434186Y235610D01*
X434830D01*
Y248880D01*
D02*
G37*
G36*
X416640Y248880D02*
X403370D01*
Y235610D01*
X404014D01*
X407712Y236601D01*
X411028Y238515D01*
X413735Y241222D01*
X415649Y244538D01*
X416640Y248236D01*
Y248880D01*
D02*
G37*
G36*
X400830D02*
X387560D01*
Y248236D01*
X388551Y244538D01*
X390465Y241222D01*
X393172Y238515D01*
X396488Y236601D01*
X400186Y235610D01*
X400830D01*
Y248880D01*
D02*
G37*
G36*
X420914Y157715D02*
X420370D01*
Y140570D01*
X437515D01*
Y141114D01*
X436807Y144671D01*
X435419Y148023D01*
X433404Y151039D01*
X430839Y153604D01*
X427823Y155619D01*
X424472Y157007D01*
X420914Y157715D01*
D02*
G37*
G36*
X417830D02*
X417286D01*
X413728Y157007D01*
X410377Y155619D01*
X407361Y153604D01*
X404796Y151039D01*
X402781Y148023D01*
X401393Y144671D01*
X400685Y141114D01*
Y140570D01*
X417830D01*
Y157715D01*
D02*
G37*
G36*
X437515Y138030D02*
X420370D01*
Y120885D01*
X420914D01*
X424472Y121593D01*
X427823Y122981D01*
X430839Y124996D01*
X433404Y127561D01*
X435419Y130577D01*
X436807Y133928D01*
X437515Y137486D01*
Y138030D01*
D02*
G37*
G36*
X417830D02*
X400685D01*
Y137486D01*
X401393Y133928D01*
X402781Y130577D01*
X404796Y127561D01*
X407361Y124996D01*
X410377Y122981D01*
X413728Y121593D01*
X417286Y120885D01*
X417830D01*
Y138030D01*
D02*
G37*
%LPD*%
G36*
X324913Y270607D02*
X316800Y262494D01*
X314712Y263699D01*
X311014Y264690D01*
X310370D01*
Y251420D01*
X323640D01*
Y252064D01*
X322649Y255762D01*
X322066Y256772D01*
X334107Y268813D01*
X335280Y268327D01*
Y114300D01*
X248920D01*
Y271780D01*
X324427D01*
X324913Y270607D01*
D02*
G37*
%LPC*%
G36*
X307830Y264690D02*
X307186D01*
X303488Y263699D01*
X300172Y261785D01*
X297465Y259078D01*
X295551Y255762D01*
X294560Y252064D01*
Y251420D01*
X307830D01*
Y264690D01*
D02*
G37*
G36*
X277014D02*
X276370D01*
Y251420D01*
X289640D01*
Y252064D01*
X288649Y255762D01*
X286735Y259078D01*
X284028Y261785D01*
X280712Y263699D01*
X277014Y264690D01*
D02*
G37*
G36*
X273830D02*
X273186D01*
X269488Y263699D01*
X266172Y261785D01*
X263465Y259078D01*
X261551Y255762D01*
X260560Y252064D01*
Y251420D01*
X273830D01*
Y264690D01*
D02*
G37*
G36*
X323640Y248880D02*
X310370D01*
Y235610D01*
X311014D01*
X314712Y236601D01*
X318028Y238515D01*
X320735Y241222D01*
X322649Y244538D01*
X323640Y248236D01*
Y248880D01*
D02*
G37*
G36*
X307830D02*
X294560D01*
Y248236D01*
X295551Y244538D01*
X297465Y241222D01*
X300172Y238515D01*
X303488Y236601D01*
X307186Y235610D01*
X307830D01*
Y248880D01*
D02*
G37*
G36*
X289640Y248880D02*
X276370D01*
Y235610D01*
X277014D01*
X280712Y236601D01*
X284028Y238515D01*
X286735Y241222D01*
X288649Y244538D01*
X289640Y248236D01*
Y248880D01*
D02*
G37*
G36*
X273830D02*
X260560D01*
Y248236D01*
X261551Y244538D01*
X263465Y241222D01*
X266172Y238515D01*
X269488Y236601D01*
X273186Y235610D01*
X273830D01*
Y248880D01*
D02*
G37*
G36*
X293914Y157715D02*
X293370D01*
Y140570D01*
X310515D01*
Y141114D01*
X309807Y144671D01*
X308419Y148023D01*
X306404Y151039D01*
X303839Y153604D01*
X300823Y155619D01*
X297472Y157007D01*
X293914Y157715D01*
D02*
G37*
G36*
X290830D02*
X290286D01*
X286728Y157007D01*
X283377Y155619D01*
X280361Y153604D01*
X277796Y151039D01*
X275781Y148023D01*
X274393Y144671D01*
X273685Y141114D01*
Y140570D01*
X290830D01*
Y157715D01*
D02*
G37*
G36*
X310515Y138030D02*
X293370D01*
Y120885D01*
X293914D01*
X297472Y121593D01*
X300823Y122981D01*
X303839Y124996D01*
X306404Y127561D01*
X308419Y130577D01*
X309807Y133928D01*
X310515Y137486D01*
Y138030D01*
D02*
G37*
G36*
X290830D02*
X273685D01*
Y137486D01*
X274393Y133928D01*
X275781Y130577D01*
X277796Y127561D01*
X280361Y124996D01*
X283377Y122981D01*
X286728Y121593D01*
X290286Y120885D01*
X290830D01*
Y138030D01*
D02*
G37*
%LPD*%
G36*
X208280Y114300D02*
X121920D01*
Y268327D01*
X123093Y268813D01*
X135134Y256772D01*
X134551Y255762D01*
X133560Y252064D01*
Y251420D01*
X146830D01*
Y264690D01*
X146186D01*
X142488Y263699D01*
X140400Y262494D01*
X132287Y270607D01*
X132773Y271780D01*
X208280D01*
Y114300D01*
D02*
G37*
%LPC*%
G36*
X184014Y264690D02*
X183370D01*
Y251420D01*
X196640D01*
Y252064D01*
X195649Y255762D01*
X193735Y259078D01*
X191028Y261785D01*
X187712Y263699D01*
X184014Y264690D01*
D02*
G37*
G36*
X150014D02*
X149370D01*
Y251420D01*
X162640D01*
Y252064D01*
X161649Y255762D01*
X159735Y259078D01*
X157028Y261785D01*
X153712Y263699D01*
X150014Y264690D01*
D02*
G37*
G36*
X180830D02*
X180186D01*
X176488Y263699D01*
X173172Y261785D01*
X170465Y259078D01*
X168551Y255762D01*
X167560Y252064D01*
Y251420D01*
X180830D01*
Y264690D01*
D02*
G37*
G36*
X196640Y248880D02*
X183370D01*
Y235610D01*
X184014D01*
X187712Y236601D01*
X191028Y238515D01*
X193735Y241222D01*
X195649Y244538D01*
X196640Y248236D01*
Y248880D01*
D02*
G37*
G36*
X180830D02*
X167560D01*
Y248236D01*
X168551Y244538D01*
X170465Y241222D01*
X173172Y238515D01*
X176488Y236601D01*
X180186Y235610D01*
X180830D01*
Y248880D01*
D02*
G37*
G36*
X162640D02*
X149370D01*
Y235610D01*
X150014D01*
X153712Y236601D01*
X157028Y238515D01*
X159735Y241222D01*
X161649Y244538D01*
X162640Y248236D01*
Y248880D01*
D02*
G37*
G36*
X146830D02*
X133560D01*
Y248236D01*
X134551Y244538D01*
X136465Y241222D01*
X139172Y238515D01*
X142488Y236601D01*
X146186Y235610D01*
X146830D01*
Y248880D01*
D02*
G37*
G36*
X167449Y180145D02*
X166370D01*
Y151570D01*
X194945D01*
Y152649D01*
X194210Y157289D01*
X192758Y161756D01*
X190626Y165942D01*
X187864Y169743D01*
X184543Y173064D01*
X180742Y175826D01*
X176556Y177958D01*
X172089Y179410D01*
X167449Y180145D01*
D02*
G37*
G36*
X163830D02*
X162751D01*
X158111Y179410D01*
X153644Y177958D01*
X149458Y175826D01*
X145657Y173064D01*
X142336Y169743D01*
X139574Y165942D01*
X137442Y161756D01*
X135990Y157289D01*
X135255Y152649D01*
Y151570D01*
X163830D01*
Y180145D01*
D02*
G37*
G36*
X194945Y149030D02*
X166370D01*
Y120455D01*
X167449D01*
X172089Y121190D01*
X176556Y122642D01*
X180742Y124774D01*
X184543Y127535D01*
X187864Y130857D01*
X190626Y134658D01*
X192758Y138843D01*
X194210Y143311D01*
X194945Y147951D01*
Y149030D01*
D02*
G37*
G36*
X163830D02*
X135255D01*
Y147951D01*
X135990Y143311D01*
X137442Y138843D01*
X139574Y134658D01*
X142336Y130857D01*
X145657Y127535D01*
X149458Y124774D01*
X153644Y122642D01*
X158111Y121190D01*
X162751Y120455D01*
X163830D01*
Y149030D01*
D02*
G37*
%LPD*%
D10*
X108350Y289050D02*
X147250Y250150D01*
X1246786Y423826D02*
X1257300Y434340D01*
X1231900Y413900D02*
X1241826Y423826D01*
X1246786D01*
X1104900Y413900D02*
X1114826Y423826D01*
X1119786D01*
X1130300Y434340D01*
X987826Y423826D02*
X992786D01*
X977900Y413900D02*
X987826Y423826D01*
X992786D02*
X1003300Y434340D01*
X865786Y423826D02*
X876300Y434340D01*
X850900Y413900D02*
X860826Y423826D01*
X865786D01*
X738786D02*
X749300Y434340D01*
X723900Y413900D02*
X733826Y423826D01*
X738786D01*
X611786D02*
X622300Y434340D01*
X596900Y413900D02*
X606826Y423826D01*
X611786D01*
X484786D02*
X495300Y434340D01*
X469900Y413900D02*
X479826Y423826D01*
X484786D01*
X342900Y413900D02*
X352826Y423826D01*
X357786D01*
X368300Y434340D01*
X230786Y423826D02*
X241300Y434340D01*
X215900Y413900D02*
X225826Y423826D01*
X230786D01*
X114180Y414020D02*
X114300Y413900D01*
X96520Y414020D02*
X114180D01*
X1244600Y371350D02*
Y386200D01*
X1231900Y398900D02*
X1244600Y386200D01*
Y320550D02*
Y339850D01*
X1198950Y250150D02*
X1237850Y289050D01*
X1244600D01*
X1198100Y250150D02*
X1198950D01*
X1117600Y371350D02*
Y386200D01*
X1104900Y398900D02*
X1117600Y386200D01*
Y320550D02*
Y339850D01*
X1071100Y250150D02*
X1071950D01*
X1110850Y289050D01*
X1117600D01*
X977900Y398900D02*
X990600Y386200D01*
Y371350D02*
Y386200D01*
Y320550D02*
Y339850D01*
X944950Y250150D02*
X983850Y289050D01*
X944100Y250150D02*
X944950D01*
X983850Y289050D02*
X990600D01*
X850900Y398900D02*
X863600Y386200D01*
Y371350D02*
Y386200D01*
Y320550D02*
Y339850D01*
X856850Y289050D02*
X863600D01*
X817100Y250150D02*
X817950D01*
X856850Y289050D01*
X736600Y371350D02*
Y386200D01*
X723900Y398900D02*
X736600Y386200D01*
Y320550D02*
Y339850D01*
X690950Y250150D02*
X729850Y289050D01*
X690100Y250150D02*
X690950D01*
X729850Y289050D02*
X736600D01*
X596900Y398900D02*
X609600Y386200D01*
Y371350D02*
Y386200D01*
Y320550D02*
Y339850D01*
X563100Y250150D02*
X563950D01*
X602850Y289050D01*
X609600D01*
X482600Y371350D02*
Y386200D01*
X469900Y398900D02*
X482600Y386200D01*
Y320550D02*
Y339850D01*
X475850Y289050D02*
X482600D01*
X436100Y250150D02*
X436950D01*
X475850Y289050D01*
X342900Y398900D02*
X355600Y386200D01*
Y371350D02*
Y386200D01*
Y320550D02*
Y339850D01*
X348850Y289050D02*
X355600D01*
X309100Y250150D02*
X309950D01*
X348850Y289050D01*
X228600Y320550D02*
Y339850D01*
X215900Y398900D02*
X228600Y386200D01*
Y371350D02*
Y386200D01*
X101600Y371350D02*
Y386200D01*
X114300Y398900D01*
X101600Y320550D02*
Y339850D01*
X147250Y250150D02*
X148100D01*
X101600Y289050D02*
X108350D01*
D16*
X69775Y328168D02*
X59617Y321396D01*
X69775D02*
X59617Y328168D01*
X69775Y315737D02*
X59617D01*
X69775Y319123D02*
Y312351D01*
X68323Y305337D02*
X69291Y305821D01*
X69775Y307272D01*
Y308239D01*
X69291Y309690D01*
X67840Y310658D01*
X65421Y311141D01*
X63003D01*
X61068Y310658D01*
X60100Y309690D01*
X59617Y308239D01*
Y307756D01*
X60100Y306304D01*
X61068Y305337D01*
X62519Y304853D01*
X63003D01*
X64454Y305337D01*
X65421Y306304D01*
X65905Y307756D01*
Y308239D01*
X65421Y309690D01*
X64454Y310658D01*
X63003Y311141D01*
X69775Y299726D02*
X69291Y301177D01*
X67840Y302145D01*
X65421Y302628D01*
X63970D01*
X61552Y302145D01*
X60100Y301177D01*
X59617Y299726D01*
Y298759D01*
X60100Y297308D01*
X61552Y296340D01*
X63970Y295856D01*
X65421D01*
X67840Y296340D01*
X69291Y297308D01*
X69775Y298759D01*
Y299726D01*
Y293583D02*
X59617D01*
X69775D02*
X59617Y289713D01*
X69775Y285844D02*
X59617Y289713D01*
X69775Y285844D02*
X59617D01*
X63970Y282941D02*
Y274235D01*
X69775Y271236D02*
X59617Y264464D01*
X69775D02*
X59617Y271236D01*
X69775Y258805D02*
X59617D01*
X69775Y262190D02*
Y255419D01*
Y253242D02*
Y247921D01*
X65905Y250823D01*
Y249372D01*
X65421Y248405D01*
X64938Y247921D01*
X63486Y247437D01*
X62519D01*
X61068Y247921D01*
X60100Y248889D01*
X59617Y250340D01*
Y251791D01*
X60100Y253242D01*
X60584Y253726D01*
X61552Y254209D01*
X69775Y242262D02*
X69291Y243713D01*
X67840Y244680D01*
X65421Y245164D01*
X63970D01*
X61552Y244680D01*
X60100Y243713D01*
X59617Y242262D01*
Y241294D01*
X60100Y239843D01*
X61552Y238876D01*
X63970Y238392D01*
X65421D01*
X67840Y238876D01*
X69291Y239843D01*
X69775Y241294D01*
Y242262D01*
Y236119D02*
X59617D01*
X69775D02*
Y229831D01*
X64938Y236119D02*
Y232249D01*
X69775Y220689D02*
X59617D01*
X69775D02*
Y214400D01*
X64938Y220689D02*
Y216819D01*
X66389Y213239D02*
X61552D01*
X60100Y212756D01*
X59617Y211788D01*
Y210337D01*
X60100Y209370D01*
X61552Y207919D01*
X66389D02*
X59617D01*
X64938Y199938D02*
X65905Y200421D01*
X66389Y201872D01*
Y203323D01*
X65905Y204775D01*
X64938Y205258D01*
X63970Y204775D01*
X63486Y203807D01*
X63003Y201389D01*
X62519Y200421D01*
X61552Y199938D01*
X61068D01*
X60100Y200421D01*
X59617Y201872D01*
Y203323D01*
X60100Y204775D01*
X61068Y205258D01*
X63486Y197809D02*
Y192005D01*
X64454D01*
X65421Y192488D01*
X65905Y192972D01*
X66389Y193940D01*
Y195391D01*
X65905Y196358D01*
X64938Y197325D01*
X63486Y197809D01*
X62519D01*
X61068Y197325D01*
X60100Y196358D01*
X59617Y195391D01*
Y193940D01*
X60100Y192972D01*
X61068Y192005D01*
X69775Y181847D02*
X59617D01*
X69775D02*
Y177494D01*
X69291Y176042D01*
X68807Y175559D01*
X67840Y175075D01*
X66872D01*
X65905Y175559D01*
X65421Y176042D01*
X64938Y177494D01*
Y181847D02*
Y177494D01*
X64454Y176042D01*
X63970Y175559D01*
X63003Y175075D01*
X61552D01*
X60584Y175559D01*
X60100Y176042D01*
X59617Y177494D01*
Y181847D01*
X66389Y170383D02*
X65905Y171351D01*
X64938Y172318D01*
X63486Y172802D01*
X62519D01*
X61068Y172318D01*
X60100Y171351D01*
X59617Y170383D01*
Y168932D01*
X60100Y167965D01*
X61068Y166997D01*
X62519Y166514D01*
X63486D01*
X64938Y166997D01*
X65905Y167965D01*
X66389Y168932D01*
Y170383D01*
Y158484D02*
X59617D01*
X64938D02*
X65905Y159451D01*
X66389Y160419D01*
Y161870D01*
X65905Y162837D01*
X64938Y163805D01*
X63486Y164289D01*
X62519D01*
X61068Y163805D01*
X60100Y162837D01*
X59617Y161870D01*
Y160419D01*
X60100Y159451D01*
X61068Y158484D01*
X66389Y155775D02*
X59617D01*
X63486D02*
X64938Y155292D01*
X65905Y154324D01*
X66389Y153357D01*
Y151906D01*
X69775Y145182D02*
X59617D01*
X64938D02*
X65905Y146150D01*
X66389Y147117D01*
Y148568D01*
X65905Y149535D01*
X64938Y150503D01*
X63486Y150987D01*
X62519D01*
X61068Y150503D01*
X60100Y149535D01*
X59617Y148568D01*
Y147117D01*
X60100Y146150D01*
X61068Y145182D01*
X66389Y134492D02*
X59617Y131590D01*
X66389Y128688D02*
X59617Y131590D01*
X67840Y127043D02*
X68323Y126076D01*
X69775Y124625D01*
X59617D01*
X60584Y119110D02*
X60100Y119594D01*
X59617Y119110D01*
X60100Y118627D01*
X60584Y119110D01*
X69775Y113499D02*
X69291Y114951D01*
X67840Y115918D01*
X65421Y116402D01*
X63970D01*
X61552Y115918D01*
X60100Y114951D01*
X59617Y113499D01*
Y112532D01*
X60100Y111081D01*
X61552Y110113D01*
X63970Y109630D01*
X65421D01*
X67840Y110113D01*
X69291Y111081D01*
X69775Y112532D01*
Y113499D01*
X52225Y328168D02*
X44969D01*
X43518Y327684D01*
X42551Y326717D01*
X42067Y325266D01*
Y324298D01*
X42551Y322847D01*
X43518Y321880D01*
X44969Y321396D01*
X52225D01*
X49806Y311335D02*
X50774Y311819D01*
X51741Y312786D01*
X52225Y313754D01*
Y315688D01*
X51741Y316656D01*
X50774Y317623D01*
X49806Y318107D01*
X48355Y318591D01*
X45936D01*
X44485Y318107D01*
X43518Y317623D01*
X42551Y316656D01*
X42067Y315688D01*
Y313754D01*
X42551Y312786D01*
X43518Y311819D01*
X44485Y311335D01*
X50774Y301709D02*
X51741Y302677D01*
X52225Y304128D01*
Y306063D01*
X51741Y307514D01*
X50774Y308481D01*
X49806D01*
X48839Y307997D01*
X48355Y307514D01*
X47871Y306546D01*
X46904Y303644D01*
X46420Y302677D01*
X45936Y302193D01*
X44969Y301709D01*
X43518D01*
X42551Y302677D01*
X42067Y304128D01*
Y306063D01*
X42551Y307514D01*
X43518Y308481D01*
X52225Y299436D02*
X42067D01*
X52225D02*
Y296050D01*
X51741Y294599D01*
X50774Y293631D01*
X49806Y293148D01*
X48355Y292664D01*
X45936D01*
X44485Y293148D01*
X43518Y293631D01*
X42551Y294599D01*
X42067Y296050D01*
Y299436D01*
X52225Y279023D02*
X42067D01*
X52225Y282409D02*
Y275637D01*
X48839Y274428D02*
X42067D01*
X45936D02*
X47388Y273945D01*
X48355Y272977D01*
X48839Y272010D01*
Y270559D01*
X52225Y268672D02*
X51741Y268188D01*
X52225Y267705D01*
X52708Y268188D01*
X52225Y268672D01*
X48839Y268188D02*
X42067D01*
X52225Y264464D02*
X44002D01*
X42551Y263980D01*
X42067Y263013D01*
Y262045D01*
X48839Y265915D02*
Y262529D01*
Y258176D02*
X48355Y259143D01*
X47388Y260111D01*
X45936Y260594D01*
X44969D01*
X43518Y260111D01*
X42551Y259143D01*
X42067Y258176D01*
Y256725D01*
X42551Y255757D01*
X43518Y254790D01*
X44969Y254306D01*
X45936D01*
X47388Y254790D01*
X48355Y255757D01*
X48839Y256725D01*
Y258176D01*
Y252081D02*
X42067D01*
X46904D02*
X48355Y250630D01*
X48839Y249662D01*
Y248211D01*
X48355Y247244D01*
X46904Y246760D01*
X42067D01*
Y236361D02*
X52225Y240230D01*
X42067Y244100D01*
X45453Y242649D02*
Y237812D01*
X52225Y233990D02*
X42067D01*
X42551Y230895D02*
X42067Y231378D01*
X42551Y231862D01*
X43034Y231378D01*
X42551Y230895D01*
X41583D01*
X40616Y231378D01*
X40132Y231862D01*
X52225Y214400D02*
Y220689D01*
X42067D01*
Y214400D01*
X47388Y220689D02*
Y216819D01*
X49806Y205452D02*
X50774Y205936D01*
X51741Y206903D01*
X52225Y207870D01*
Y209805D01*
X51741Y210773D01*
X50774Y211740D01*
X49806Y212224D01*
X48355Y212707D01*
X45936D01*
X44485Y212224D01*
X43518Y211740D01*
X42551Y210773D01*
X42067Y209805D01*
Y207870D01*
X42551Y206903D01*
X43518Y205936D01*
X44485Y205452D01*
X52225Y196310D02*
Y202598D01*
X42067D01*
Y196310D01*
X47388Y202598D02*
Y198728D01*
X50290Y186636D02*
X50774Y185668D01*
X52225Y184217D01*
X42067D01*
X48839Y172899D02*
X47388Y173382D01*
X46420Y174350D01*
X45936Y175801D01*
Y176284D01*
X46420Y177736D01*
X47388Y178703D01*
X48839Y179187D01*
X49322D01*
X50774Y178703D01*
X51741Y177736D01*
X52225Y176284D01*
Y175801D01*
X51741Y174350D01*
X50774Y173382D01*
X48839Y172899D01*
X46420D01*
X44002Y173382D01*
X42551Y174350D01*
X42067Y175801D01*
Y176768D01*
X42551Y178219D01*
X43518Y178703D01*
X50290Y170141D02*
X50774Y169174D01*
X52225Y167723D01*
X42067D01*
X52225Y154711D02*
X42067D01*
X52225D02*
Y148423D01*
X47388Y154711D02*
Y150842D01*
X48839Y141458D02*
X42067D01*
X47388D02*
X48355Y142425D01*
X48839Y143392D01*
Y144844D01*
X48355Y145811D01*
X47388Y146778D01*
X45936Y147262D01*
X44969D01*
X43518Y146778D01*
X42551Y145811D01*
X42067Y144844D01*
Y143392D01*
X42551Y142425D01*
X43518Y141458D01*
X52225Y138749D02*
X42067D01*
X52225Y136621D02*
X42067D01*
X49806Y126027D02*
X50290D01*
X51257Y125544D01*
X51741Y125060D01*
X52225Y124093D01*
Y122158D01*
X51741Y121190D01*
X51257Y120707D01*
X50290Y120223D01*
X49322D01*
X48355Y120707D01*
X46904Y121674D01*
X42067Y126511D01*
Y119739D01*
X52225Y114564D02*
X51741Y116015D01*
X50290Y116982D01*
X47871Y117466D01*
X46420D01*
X44002Y116982D01*
X42551Y116015D01*
X42067Y114564D01*
Y113596D01*
X42551Y112145D01*
X44002Y111178D01*
X46420Y110694D01*
X47871D01*
X50290Y111178D01*
X51741Y112145D01*
X52225Y113596D01*
Y114564D01*
X49806Y107937D02*
X50290D01*
X51257Y107453D01*
X51741Y106969D01*
X52225Y106002D01*
Y104067D01*
X51741Y103100D01*
X51257Y102616D01*
X50290Y102132D01*
X49322D01*
X48355Y102616D01*
X46904Y103583D01*
X42067Y108420D01*
Y101649D01*
X50290Y99375D02*
X50774Y98408D01*
X52225Y96957D01*
X42067D01*
D17*
X482600Y320550D02*
D03*
Y289050D02*
D03*
X355600D02*
D03*
Y320550D02*
D03*
X101600D02*
D03*
Y289050D02*
D03*
X228600Y320550D02*
D03*
Y289050D02*
D03*
X609600D02*
D03*
Y320550D02*
D03*
X736600Y289050D02*
D03*
Y320550D02*
D03*
X863600Y289050D02*
D03*
Y320550D02*
D03*
X990600Y289050D02*
D03*
Y320550D02*
D03*
X1117600Y289050D02*
D03*
Y320550D02*
D03*
X1244600Y289050D02*
D03*
Y320550D02*
D03*
X228600Y339850D02*
D03*
Y371350D02*
D03*
X482600Y339850D02*
D03*
Y371350D02*
D03*
X609600Y339850D02*
D03*
Y371350D02*
D03*
X736600Y339850D02*
D03*
Y371350D02*
D03*
X990600Y339850D02*
D03*
Y371350D02*
D03*
X1244600Y339850D02*
D03*
Y371350D02*
D03*
X1117600Y339850D02*
D03*
Y371350D02*
D03*
X863600Y339850D02*
D03*
Y371350D02*
D03*
X355600Y339850D02*
D03*
Y371350D02*
D03*
X101600D02*
D03*
Y339850D02*
D03*
D18*
X469900Y413900D02*
D03*
Y398900D02*
D03*
X215900Y413900D02*
D03*
Y398900D02*
D03*
X114300D02*
D03*
Y413900D02*
D03*
X596900D02*
D03*
Y398900D02*
D03*
X850900D02*
D03*
Y413900D02*
D03*
X723900D02*
D03*
Y398900D02*
D03*
X342900D02*
D03*
Y413900D02*
D03*
X1231900D02*
D03*
Y398900D02*
D03*
X1104900D02*
D03*
Y413900D02*
D03*
X977900D02*
D03*
Y398900D02*
D03*
D28*
X1071100Y384850D02*
D03*
X1037100D02*
D03*
X1071100Y250150D02*
D03*
X1037100D02*
D03*
X436100Y384850D02*
D03*
X402100D02*
D03*
X436100Y250150D02*
D03*
X402100D02*
D03*
X182100Y384850D02*
D03*
X148100D02*
D03*
X182100Y250150D02*
D03*
X148100D02*
D03*
X783100D02*
D03*
X817100D02*
D03*
X783100Y384850D02*
D03*
X817100D02*
D03*
X656100Y250150D02*
D03*
X690100D02*
D03*
X656100Y384850D02*
D03*
X690100D02*
D03*
X1164100Y250150D02*
D03*
X1198100D02*
D03*
X1164100Y384850D02*
D03*
X1198100D02*
D03*
X910100Y250150D02*
D03*
X944100D02*
D03*
X910100Y384850D02*
D03*
X944100D02*
D03*
X275100Y250150D02*
D03*
X309100D02*
D03*
X275100Y384850D02*
D03*
X309100D02*
D03*
X529100Y250150D02*
D03*
X563100D02*
D03*
X529100Y384850D02*
D03*
X563100D02*
D03*
D29*
X546100Y89300D02*
D03*
X927100D02*
D03*
X1181100D02*
D03*
X1054100D02*
D03*
X673100D02*
D03*
X800100D02*
D03*
X419100D02*
D03*
X292100D02*
D03*
D30*
X546100Y139300D02*
D03*
X927100D02*
D03*
X1181100D02*
D03*
X1054100D02*
D03*
X673100D02*
D03*
X800100D02*
D03*
X419100D02*
D03*
X292100D02*
D03*
D31*
X165100Y150300D02*
D03*
D32*
Y78300D02*
D03*
D33*
X50800Y50800D02*
D03*
Y406400D02*
D03*
X1295400D02*
D03*
Y50800D02*
D03*
D34*
X1257300Y434340D02*
D03*
X1130300D02*
D03*
X1003300D02*
D03*
X876300D02*
D03*
X749300D02*
D03*
X622300D02*
D03*
X495300D02*
D03*
X368300D02*
D03*
X241300D02*
D03*
X96520Y414020D02*
D03*
M02*
