G04*
G04 #@! TF.GenerationSoftware,Altium Limited,Altium Designer,21.8.1 (53)*
G04*
G04 Layer_Color=255*
%FSLAX44Y44*%
%MOMM*%
G71*
G04*
G04 #@! TF.SameCoordinates,EA1F17BB-6109-422B-8DE2-DB4FFD1B2ED1*
G04*
G04*
G04 #@! TF.FilePolarity,Positive*
G04*
G01*
G75*
%ADD10R,1.1500X2.5000*%
%ADD11R,0.8000X0.8000*%
%ADD14R,2.5000X1.1500*%
%ADD15R,0.8000X0.8000*%
%ADD18C,2.4000*%
%ADD19R,3.1750X3.1750*%
%ADD20C,3.1750*%
%ADD21C,5.4610*%
%ADD22R,5.4610X5.4610*%
%ADD23C,6.0000*%
%ADD25R,3.1750X3.1750*%
%ADD26R,5.4610X5.4610*%
D10*
X1793750Y965200D02*
D03*
X1762250D02*
D03*
Y1092200D02*
D03*
X1793750D02*
D03*
Y1346200D02*
D03*
X1762250D02*
D03*
X1793750Y1219200D02*
D03*
X1762250D02*
D03*
Y838200D02*
D03*
X1793750D02*
D03*
X1762250Y711200D02*
D03*
X1793750D02*
D03*
X1762250Y584200D02*
D03*
X1793750D02*
D03*
X1762250Y457200D02*
D03*
X1793750D02*
D03*
X1762250Y330200D02*
D03*
X1793750D02*
D03*
X1762250Y203200D02*
D03*
X1793750D02*
D03*
X1813050Y1219200D02*
D03*
X1844550D02*
D03*
X1813050Y965200D02*
D03*
X1844550D02*
D03*
X1813050Y838200D02*
D03*
X1844550D02*
D03*
X1813050Y711200D02*
D03*
X1844550D02*
D03*
X1813050Y457200D02*
D03*
X1844550D02*
D03*
X1813050Y203200D02*
D03*
X1844550D02*
D03*
X1813050Y330200D02*
D03*
X1844550D02*
D03*
X1813050Y584200D02*
D03*
X1844550D02*
D03*
X1813050Y1092200D02*
D03*
X1844550D02*
D03*
Y1346200D02*
D03*
X1813050D02*
D03*
X2273810Y965200D02*
D03*
X2242310D02*
D03*
Y1092200D02*
D03*
X2273810D02*
D03*
Y1346200D02*
D03*
X2242310D02*
D03*
X2273810Y1219200D02*
D03*
X2242310D02*
D03*
Y838200D02*
D03*
X2273810D02*
D03*
X2242310Y711200D02*
D03*
X2273810D02*
D03*
X2242310Y584200D02*
D03*
X2273810D02*
D03*
X2242310Y457200D02*
D03*
X2273810D02*
D03*
X2242310Y330200D02*
D03*
X2273810D02*
D03*
X2242310Y203200D02*
D03*
X2273810D02*
D03*
X2293110Y1219200D02*
D03*
X2324610D02*
D03*
X2293110Y965200D02*
D03*
X2324610D02*
D03*
X2293110Y838200D02*
D03*
X2324610D02*
D03*
X2293110Y711200D02*
D03*
X2324610D02*
D03*
X2293110Y457200D02*
D03*
X2324610D02*
D03*
X2293110Y203200D02*
D03*
X2324610D02*
D03*
X2293110Y330200D02*
D03*
X2324610D02*
D03*
X2293110Y584200D02*
D03*
X2324610D02*
D03*
X2293110Y1092200D02*
D03*
X2324610D02*
D03*
Y1346200D02*
D03*
X2293110D02*
D03*
D11*
X1887100Y977900D02*
D03*
X1872100D02*
D03*
X1887100Y1231900D02*
D03*
X1872100D02*
D03*
Y1333500D02*
D03*
X1887100D02*
D03*
Y850900D02*
D03*
X1872100D02*
D03*
Y596900D02*
D03*
X1887100D02*
D03*
Y723900D02*
D03*
X1872100D02*
D03*
Y1104900D02*
D03*
X1887100D02*
D03*
Y215900D02*
D03*
X1872100D02*
D03*
Y342900D02*
D03*
X1887100D02*
D03*
Y469900D02*
D03*
X1872100D02*
D03*
X2367160Y977900D02*
D03*
X2352160D02*
D03*
X2367160Y1231900D02*
D03*
X2352160D02*
D03*
Y1333500D02*
D03*
X2367160D02*
D03*
Y850900D02*
D03*
X2352160D02*
D03*
Y596900D02*
D03*
X2367160D02*
D03*
Y723900D02*
D03*
X2352160D02*
D03*
Y1104900D02*
D03*
X2367160D02*
D03*
Y215900D02*
D03*
X2352160D02*
D03*
Y342900D02*
D03*
X2367160D02*
D03*
Y469900D02*
D03*
X2352160D02*
D03*
D14*
X584200Y422150D02*
D03*
Y390650D02*
D03*
X457200D02*
D03*
Y422150D02*
D03*
X203200D02*
D03*
Y390650D02*
D03*
X330200Y422150D02*
D03*
Y390650D02*
D03*
X711200D02*
D03*
Y422150D02*
D03*
X838200Y390650D02*
D03*
Y422150D02*
D03*
X965200Y390650D02*
D03*
Y422150D02*
D03*
X1092200Y390650D02*
D03*
Y422150D02*
D03*
X1219200Y390650D02*
D03*
Y422150D02*
D03*
X1346200Y390650D02*
D03*
Y422150D02*
D03*
X330200Y441450D02*
D03*
Y472950D02*
D03*
X584200Y441450D02*
D03*
Y472950D02*
D03*
X711200Y441450D02*
D03*
Y472950D02*
D03*
X838200Y441450D02*
D03*
Y472950D02*
D03*
X1092200Y441450D02*
D03*
Y472950D02*
D03*
X1346200Y441450D02*
D03*
Y472950D02*
D03*
X1219200Y441450D02*
D03*
Y472950D02*
D03*
X965200Y441450D02*
D03*
Y472950D02*
D03*
X457200Y441450D02*
D03*
Y472950D02*
D03*
X203200D02*
D03*
Y441450D02*
D03*
X584200Y904750D02*
D03*
Y873250D02*
D03*
X457200D02*
D03*
Y904750D02*
D03*
X203200D02*
D03*
Y873250D02*
D03*
X330200Y904750D02*
D03*
Y873250D02*
D03*
X711200D02*
D03*
Y904750D02*
D03*
X838200Y873250D02*
D03*
Y904750D02*
D03*
X965200Y873250D02*
D03*
Y904750D02*
D03*
X1092200Y873250D02*
D03*
Y904750D02*
D03*
X1219200Y873250D02*
D03*
Y904750D02*
D03*
X1346200Y873250D02*
D03*
Y904750D02*
D03*
X330200Y924050D02*
D03*
Y955550D02*
D03*
X584200Y924050D02*
D03*
Y955550D02*
D03*
X711200Y924050D02*
D03*
Y955550D02*
D03*
X838200Y924050D02*
D03*
Y955550D02*
D03*
X1092200Y924050D02*
D03*
Y955550D02*
D03*
X1346200Y924050D02*
D03*
Y955550D02*
D03*
X1219200Y924050D02*
D03*
Y955550D02*
D03*
X965200Y924050D02*
D03*
Y955550D02*
D03*
X457200Y924050D02*
D03*
Y955550D02*
D03*
X203200D02*
D03*
Y924050D02*
D03*
X584200Y1387350D02*
D03*
Y1355850D02*
D03*
X457200D02*
D03*
Y1387350D02*
D03*
X203200D02*
D03*
Y1355850D02*
D03*
X330200Y1387350D02*
D03*
Y1355850D02*
D03*
X711200D02*
D03*
Y1387350D02*
D03*
X838200Y1355850D02*
D03*
Y1387350D02*
D03*
X965200Y1355850D02*
D03*
Y1387350D02*
D03*
X1092200Y1355850D02*
D03*
Y1387350D02*
D03*
X1219200Y1355850D02*
D03*
Y1387350D02*
D03*
X1346200Y1355850D02*
D03*
Y1387350D02*
D03*
X330200Y1406650D02*
D03*
Y1438150D02*
D03*
X584200Y1406650D02*
D03*
Y1438150D02*
D03*
X711200Y1406650D02*
D03*
Y1438150D02*
D03*
X838200Y1406650D02*
D03*
Y1438150D02*
D03*
X1092200Y1406650D02*
D03*
Y1438150D02*
D03*
X1346200Y1406650D02*
D03*
Y1438150D02*
D03*
X1219200Y1406650D02*
D03*
Y1438150D02*
D03*
X965200Y1406650D02*
D03*
Y1438150D02*
D03*
X457200Y1406650D02*
D03*
Y1438150D02*
D03*
X203200D02*
D03*
Y1406650D02*
D03*
X584200Y1869950D02*
D03*
Y1838450D02*
D03*
X457200D02*
D03*
Y1869950D02*
D03*
X203200D02*
D03*
Y1838450D02*
D03*
X330200Y1869950D02*
D03*
Y1838450D02*
D03*
X711200D02*
D03*
Y1869950D02*
D03*
X838200Y1838450D02*
D03*
Y1869950D02*
D03*
X965200Y1838450D02*
D03*
Y1869950D02*
D03*
X1092200Y1838450D02*
D03*
Y1869950D02*
D03*
X1219200Y1838450D02*
D03*
Y1869950D02*
D03*
X1346200Y1838450D02*
D03*
Y1869950D02*
D03*
X330200Y1889250D02*
D03*
Y1920750D02*
D03*
X584200Y1889250D02*
D03*
Y1920750D02*
D03*
X711200Y1889250D02*
D03*
Y1920750D02*
D03*
X838200Y1889250D02*
D03*
Y1920750D02*
D03*
X1092200Y1889250D02*
D03*
Y1920750D02*
D03*
X1346200Y1889250D02*
D03*
Y1920750D02*
D03*
X1219200Y1889250D02*
D03*
Y1920750D02*
D03*
X965200Y1889250D02*
D03*
Y1920750D02*
D03*
X457200Y1889250D02*
D03*
Y1920750D02*
D03*
X203200D02*
D03*
Y1889250D02*
D03*
D15*
X571500Y515500D02*
D03*
Y500500D02*
D03*
X317500Y515500D02*
D03*
Y500500D02*
D03*
X215900D02*
D03*
Y515500D02*
D03*
X698500D02*
D03*
Y500500D02*
D03*
X952500D02*
D03*
Y515500D02*
D03*
X825500D02*
D03*
Y500500D02*
D03*
X444500D02*
D03*
Y515500D02*
D03*
X1333500D02*
D03*
Y500500D02*
D03*
X1206500D02*
D03*
Y515500D02*
D03*
X1079500D02*
D03*
Y500500D02*
D03*
X571500Y998100D02*
D03*
Y983100D02*
D03*
X317500Y998100D02*
D03*
Y983100D02*
D03*
X215900D02*
D03*
Y998100D02*
D03*
X698500D02*
D03*
Y983100D02*
D03*
X952500D02*
D03*
Y998100D02*
D03*
X825500D02*
D03*
Y983100D02*
D03*
X444500D02*
D03*
Y998100D02*
D03*
X1333500D02*
D03*
Y983100D02*
D03*
X1206500D02*
D03*
Y998100D02*
D03*
X1079500D02*
D03*
Y983100D02*
D03*
X571500Y1480700D02*
D03*
Y1465700D02*
D03*
X317500Y1480700D02*
D03*
Y1465700D02*
D03*
X215900D02*
D03*
Y1480700D02*
D03*
X698500D02*
D03*
Y1465700D02*
D03*
X952500D02*
D03*
Y1480700D02*
D03*
X825500D02*
D03*
Y1465700D02*
D03*
X444500D02*
D03*
Y1480700D02*
D03*
X1333500D02*
D03*
Y1465700D02*
D03*
X1206500D02*
D03*
Y1480700D02*
D03*
X1079500D02*
D03*
Y1465700D02*
D03*
X571500Y1963300D02*
D03*
Y1948300D02*
D03*
X317500Y1963300D02*
D03*
Y1948300D02*
D03*
X215900D02*
D03*
Y1963300D02*
D03*
X698500D02*
D03*
Y1948300D02*
D03*
X952500D02*
D03*
Y1963300D02*
D03*
X825500D02*
D03*
Y1948300D02*
D03*
X444500D02*
D03*
Y1963300D02*
D03*
X1333500D02*
D03*
Y1948300D02*
D03*
X1206500D02*
D03*
Y1963300D02*
D03*
X1079500D02*
D03*
Y1948300D02*
D03*
D18*
X1858050Y376700D02*
D03*
Y410700D02*
D03*
X1723350Y376700D02*
D03*
Y410700D02*
D03*
X1858050Y1011700D02*
D03*
Y1045700D02*
D03*
X1723350Y1011700D02*
D03*
Y1045700D02*
D03*
X1858050Y1265700D02*
D03*
Y1299700D02*
D03*
X1723350Y1265700D02*
D03*
Y1299700D02*
D03*
Y664700D02*
D03*
Y630700D02*
D03*
X1858050Y664700D02*
D03*
Y630700D02*
D03*
X1723350Y791700D02*
D03*
Y757700D02*
D03*
X1858050Y791700D02*
D03*
Y757700D02*
D03*
X1723350Y283700D02*
D03*
Y249700D02*
D03*
X1858050Y283700D02*
D03*
Y249700D02*
D03*
X1723350Y537700D02*
D03*
Y503700D02*
D03*
X1858050Y537700D02*
D03*
Y503700D02*
D03*
X1723350Y1172700D02*
D03*
Y1138700D02*
D03*
X1858050Y1172700D02*
D03*
Y1138700D02*
D03*
X1723350Y918700D02*
D03*
Y884700D02*
D03*
X1858050Y918700D02*
D03*
Y884700D02*
D03*
X2338110Y376700D02*
D03*
Y410700D02*
D03*
X2203410Y376700D02*
D03*
Y410700D02*
D03*
X2338110Y1011700D02*
D03*
Y1045700D02*
D03*
X2203410Y1011700D02*
D03*
Y1045700D02*
D03*
X2338110Y1265700D02*
D03*
Y1299700D02*
D03*
X2203410Y1265700D02*
D03*
Y1299700D02*
D03*
Y664700D02*
D03*
Y630700D02*
D03*
X2338110Y664700D02*
D03*
Y630700D02*
D03*
X2203410Y791700D02*
D03*
Y757700D02*
D03*
X2338110Y791700D02*
D03*
Y757700D02*
D03*
X2203410Y283700D02*
D03*
Y249700D02*
D03*
X2338110Y283700D02*
D03*
Y249700D02*
D03*
X2203410Y537700D02*
D03*
Y503700D02*
D03*
X2338110Y537700D02*
D03*
Y503700D02*
D03*
X2203410Y1172700D02*
D03*
Y1138700D02*
D03*
X2338110Y1172700D02*
D03*
Y1138700D02*
D03*
X2203410Y918700D02*
D03*
Y884700D02*
D03*
X2338110Y918700D02*
D03*
Y884700D02*
D03*
X1172700Y486450D02*
D03*
X1138700D02*
D03*
X1172700Y351750D02*
D03*
X1138700D02*
D03*
X537700Y486450D02*
D03*
X503700D02*
D03*
X537700Y351750D02*
D03*
X503700D02*
D03*
X283700Y486450D02*
D03*
X249700D02*
D03*
X283700Y351750D02*
D03*
X249700D02*
D03*
X884700D02*
D03*
X918700D02*
D03*
X884700Y486450D02*
D03*
X918700D02*
D03*
X757700Y351750D02*
D03*
X791700D02*
D03*
X757700Y486450D02*
D03*
X791700D02*
D03*
X1265700Y351750D02*
D03*
X1299700D02*
D03*
X1265700Y486450D02*
D03*
X1299700D02*
D03*
X1011700Y351750D02*
D03*
X1045700D02*
D03*
X1011700Y486450D02*
D03*
X1045700D02*
D03*
X376700Y351750D02*
D03*
X410700D02*
D03*
X376700Y486450D02*
D03*
X410700D02*
D03*
X630700Y351750D02*
D03*
X664700D02*
D03*
X630700Y486450D02*
D03*
X664700D02*
D03*
X1172700Y969050D02*
D03*
X1138700D02*
D03*
X1172700Y834350D02*
D03*
X1138700D02*
D03*
X537700Y969050D02*
D03*
X503700D02*
D03*
X537700Y834350D02*
D03*
X503700D02*
D03*
X283700Y969050D02*
D03*
X249700D02*
D03*
X283700Y834350D02*
D03*
X249700D02*
D03*
X884700D02*
D03*
X918700D02*
D03*
X884700Y969050D02*
D03*
X918700D02*
D03*
X757700Y834350D02*
D03*
X791700D02*
D03*
X757700Y969050D02*
D03*
X791700D02*
D03*
X1265700Y834350D02*
D03*
X1299700D02*
D03*
X1265700Y969050D02*
D03*
X1299700D02*
D03*
X1011700Y834350D02*
D03*
X1045700D02*
D03*
X1011700Y969050D02*
D03*
X1045700D02*
D03*
X376700Y834350D02*
D03*
X410700D02*
D03*
X376700Y969050D02*
D03*
X410700D02*
D03*
X630700Y834350D02*
D03*
X664700D02*
D03*
X630700Y969050D02*
D03*
X664700D02*
D03*
X1172700Y1451650D02*
D03*
X1138700D02*
D03*
X1172700Y1316950D02*
D03*
X1138700D02*
D03*
X537700Y1451650D02*
D03*
X503700D02*
D03*
X537700Y1316950D02*
D03*
X503700D02*
D03*
X283700Y1451650D02*
D03*
X249700D02*
D03*
X283700Y1316950D02*
D03*
X249700D02*
D03*
X884700D02*
D03*
X918700D02*
D03*
X884700Y1451650D02*
D03*
X918700D02*
D03*
X757700Y1316950D02*
D03*
X791700D02*
D03*
X757700Y1451650D02*
D03*
X791700D02*
D03*
X1265700Y1316950D02*
D03*
X1299700D02*
D03*
X1265700Y1451650D02*
D03*
X1299700D02*
D03*
X1011700Y1316950D02*
D03*
X1045700D02*
D03*
X1011700Y1451650D02*
D03*
X1045700D02*
D03*
X376700Y1316950D02*
D03*
X410700D02*
D03*
X376700Y1451650D02*
D03*
X410700D02*
D03*
X630700Y1316950D02*
D03*
X664700D02*
D03*
X630700Y1451650D02*
D03*
X664700D02*
D03*
X1172700Y1934250D02*
D03*
X1138700D02*
D03*
X1172700Y1799550D02*
D03*
X1138700D02*
D03*
X537700Y1934250D02*
D03*
X503700D02*
D03*
X537700Y1799550D02*
D03*
X503700D02*
D03*
X283700Y1934250D02*
D03*
X249700D02*
D03*
X283700Y1799550D02*
D03*
X249700D02*
D03*
X884700D02*
D03*
X918700D02*
D03*
X884700Y1934250D02*
D03*
X918700D02*
D03*
X757700Y1799550D02*
D03*
X791700D02*
D03*
X757700Y1934250D02*
D03*
X791700D02*
D03*
X1265700Y1799550D02*
D03*
X1299700D02*
D03*
X1265700Y1934250D02*
D03*
X1299700D02*
D03*
X1011700Y1799550D02*
D03*
X1045700D02*
D03*
X1011700Y1934250D02*
D03*
X1045700D02*
D03*
X376700Y1799550D02*
D03*
X410700D02*
D03*
X376700Y1934250D02*
D03*
X410700D02*
D03*
X630700Y1799550D02*
D03*
X664700D02*
D03*
X630700Y1934250D02*
D03*
X664700D02*
D03*
D19*
X1562500Y901700D02*
D03*
Y520700D02*
D03*
Y266700D02*
D03*
Y393700D02*
D03*
Y774700D02*
D03*
Y647700D02*
D03*
Y1028700D02*
D03*
Y1155700D02*
D03*
X2042560Y901700D02*
D03*
Y520700D02*
D03*
Y266700D02*
D03*
Y393700D02*
D03*
Y774700D02*
D03*
Y647700D02*
D03*
Y1028700D02*
D03*
Y1155700D02*
D03*
D20*
X1612500Y901700D02*
D03*
Y520700D02*
D03*
Y266700D02*
D03*
Y393700D02*
D03*
Y774700D02*
D03*
Y647700D02*
D03*
Y1028700D02*
D03*
Y1155700D02*
D03*
X2092560Y901700D02*
D03*
Y520700D02*
D03*
Y266700D02*
D03*
Y393700D02*
D03*
Y774700D02*
D03*
Y647700D02*
D03*
Y1028700D02*
D03*
Y1155700D02*
D03*
X647700Y240900D02*
D03*
X1028700D02*
D03*
X1282700D02*
D03*
X1155700D02*
D03*
X774700D02*
D03*
X901700D02*
D03*
X520700D02*
D03*
X393700D02*
D03*
X647700Y723500D02*
D03*
X1028700D02*
D03*
X1282700D02*
D03*
X1155700D02*
D03*
X774700D02*
D03*
X901700D02*
D03*
X520700D02*
D03*
X393700D02*
D03*
X647700Y1206100D02*
D03*
X1028700D02*
D03*
X1282700D02*
D03*
X1155700D02*
D03*
X774700D02*
D03*
X901700D02*
D03*
X520700D02*
D03*
X393700D02*
D03*
X647700Y1688700D02*
D03*
X1028700D02*
D03*
X1282700D02*
D03*
X1155700D02*
D03*
X774700D02*
D03*
X901700D02*
D03*
X520700D02*
D03*
X393700D02*
D03*
D21*
X1623500Y1282700D02*
D03*
X2103560D02*
D03*
X266700Y251900D02*
D03*
Y734500D02*
D03*
Y1217100D02*
D03*
Y1699700D02*
D03*
D22*
X1551500Y1282700D02*
D03*
X2031560D02*
D03*
D23*
X1524000Y1397000D02*
D03*
X1879600D02*
D03*
Y152400D02*
D03*
X1524000D02*
D03*
X2004060Y1397000D02*
D03*
X2359660D02*
D03*
Y152400D02*
D03*
X2004060D02*
D03*
X152400D02*
D03*
Y508000D02*
D03*
X1397000D02*
D03*
Y152400D02*
D03*
X152400Y635000D02*
D03*
Y990600D02*
D03*
X1397000D02*
D03*
Y635000D02*
D03*
X152400Y1117600D02*
D03*
Y1473200D02*
D03*
X1397000D02*
D03*
Y1117600D02*
D03*
X152400Y1600200D02*
D03*
Y1955800D02*
D03*
X1397000D02*
D03*
Y1600200D02*
D03*
D25*
X647700Y190900D02*
D03*
X1028700D02*
D03*
X1282700D02*
D03*
X1155700D02*
D03*
X774700D02*
D03*
X901700D02*
D03*
X520700D02*
D03*
X393700D02*
D03*
X647700Y673500D02*
D03*
X1028700D02*
D03*
X1282700D02*
D03*
X1155700D02*
D03*
X774700D02*
D03*
X901700D02*
D03*
X520700D02*
D03*
X393700D02*
D03*
X647700Y1156100D02*
D03*
X1028700D02*
D03*
X1282700D02*
D03*
X1155700D02*
D03*
X774700D02*
D03*
X901700D02*
D03*
X520700D02*
D03*
X393700D02*
D03*
X647700Y1638700D02*
D03*
X1028700D02*
D03*
X1282700D02*
D03*
X1155700D02*
D03*
X774700D02*
D03*
X901700D02*
D03*
X520700D02*
D03*
X393700D02*
D03*
D26*
X266700Y179900D02*
D03*
Y662500D02*
D03*
Y1145100D02*
D03*
Y1627700D02*
D03*
M02*
