G04*
G04 #@! TF.GenerationSoftware,Altium Limited,Altium Designer,21.8.1 (53)*
G04*
G04 Layer_Color=255*
%FSLAX44Y44*%
%MOMM*%
G71*
G04*
G04 #@! TF.SameCoordinates,EA1F17BB-6109-422B-8DE2-DB4FFD1B2ED1*
G04*
G04*
G04 #@! TF.FilePolarity,Positive*
G04*
G01*
G75*
%ADD18C,2.4000*%
%ADD19R,3.1750X3.1750*%
%ADD20C,3.1750*%
%ADD21C,5.4610*%
%ADD22R,5.4610X5.4610*%
%ADD23C,6.0000*%
%ADD25R,3.1750X3.1750*%
%ADD26R,5.4610X5.4610*%
D18*
X1858050Y376700D02*
D03*
Y410700D02*
D03*
X1723350Y376700D02*
D03*
Y410700D02*
D03*
X1858050Y1011700D02*
D03*
Y1045700D02*
D03*
X1723350Y1011700D02*
D03*
Y1045700D02*
D03*
X1858050Y1265700D02*
D03*
Y1299700D02*
D03*
X1723350Y1265700D02*
D03*
Y1299700D02*
D03*
Y664700D02*
D03*
Y630700D02*
D03*
X1858050Y664700D02*
D03*
Y630700D02*
D03*
X1723350Y791700D02*
D03*
Y757700D02*
D03*
X1858050Y791700D02*
D03*
Y757700D02*
D03*
X1723350Y283700D02*
D03*
Y249700D02*
D03*
X1858050Y283700D02*
D03*
Y249700D02*
D03*
X1723350Y537700D02*
D03*
Y503700D02*
D03*
X1858050Y537700D02*
D03*
Y503700D02*
D03*
X1723350Y1172700D02*
D03*
Y1138700D02*
D03*
X1858050Y1172700D02*
D03*
Y1138700D02*
D03*
X1723350Y918700D02*
D03*
Y884700D02*
D03*
X1858050Y918700D02*
D03*
Y884700D02*
D03*
X2338110Y376700D02*
D03*
Y410700D02*
D03*
X2203410Y376700D02*
D03*
Y410700D02*
D03*
X2338110Y1011700D02*
D03*
Y1045700D02*
D03*
X2203410Y1011700D02*
D03*
Y1045700D02*
D03*
X2338110Y1265700D02*
D03*
Y1299700D02*
D03*
X2203410Y1265700D02*
D03*
Y1299700D02*
D03*
Y664700D02*
D03*
Y630700D02*
D03*
X2338110Y664700D02*
D03*
Y630700D02*
D03*
X2203410Y791700D02*
D03*
Y757700D02*
D03*
X2338110Y791700D02*
D03*
Y757700D02*
D03*
X2203410Y283700D02*
D03*
Y249700D02*
D03*
X2338110Y283700D02*
D03*
Y249700D02*
D03*
X2203410Y537700D02*
D03*
Y503700D02*
D03*
X2338110Y537700D02*
D03*
Y503700D02*
D03*
X2203410Y1172700D02*
D03*
Y1138700D02*
D03*
X2338110Y1172700D02*
D03*
Y1138700D02*
D03*
X2203410Y918700D02*
D03*
Y884700D02*
D03*
X2338110Y918700D02*
D03*
Y884700D02*
D03*
X1172700Y486450D02*
D03*
X1138700D02*
D03*
X1172700Y351750D02*
D03*
X1138700D02*
D03*
X537700Y486450D02*
D03*
X503700D02*
D03*
X537700Y351750D02*
D03*
X503700D02*
D03*
X283700Y486450D02*
D03*
X249700D02*
D03*
X283700Y351750D02*
D03*
X249700D02*
D03*
X884700D02*
D03*
X918700D02*
D03*
X884700Y486450D02*
D03*
X918700D02*
D03*
X757700Y351750D02*
D03*
X791700D02*
D03*
X757700Y486450D02*
D03*
X791700D02*
D03*
X1265700Y351750D02*
D03*
X1299700D02*
D03*
X1265700Y486450D02*
D03*
X1299700D02*
D03*
X1011700Y351750D02*
D03*
X1045700D02*
D03*
X1011700Y486450D02*
D03*
X1045700D02*
D03*
X376700Y351750D02*
D03*
X410700D02*
D03*
X376700Y486450D02*
D03*
X410700D02*
D03*
X630700Y351750D02*
D03*
X664700D02*
D03*
X630700Y486450D02*
D03*
X664700D02*
D03*
X1172700Y969050D02*
D03*
X1138700D02*
D03*
X1172700Y834350D02*
D03*
X1138700D02*
D03*
X537700Y969050D02*
D03*
X503700D02*
D03*
X537700Y834350D02*
D03*
X503700D02*
D03*
X283700Y969050D02*
D03*
X249700D02*
D03*
X283700Y834350D02*
D03*
X249700D02*
D03*
X884700D02*
D03*
X918700D02*
D03*
X884700Y969050D02*
D03*
X918700D02*
D03*
X757700Y834350D02*
D03*
X791700D02*
D03*
X757700Y969050D02*
D03*
X791700D02*
D03*
X1265700Y834350D02*
D03*
X1299700D02*
D03*
X1265700Y969050D02*
D03*
X1299700D02*
D03*
X1011700Y834350D02*
D03*
X1045700D02*
D03*
X1011700Y969050D02*
D03*
X1045700D02*
D03*
X376700Y834350D02*
D03*
X410700D02*
D03*
X376700Y969050D02*
D03*
X410700D02*
D03*
X630700Y834350D02*
D03*
X664700D02*
D03*
X630700Y969050D02*
D03*
X664700D02*
D03*
X1172700Y1451650D02*
D03*
X1138700D02*
D03*
X1172700Y1316950D02*
D03*
X1138700D02*
D03*
X537700Y1451650D02*
D03*
X503700D02*
D03*
X537700Y1316950D02*
D03*
X503700D02*
D03*
X283700Y1451650D02*
D03*
X249700D02*
D03*
X283700Y1316950D02*
D03*
X249700D02*
D03*
X884700D02*
D03*
X918700D02*
D03*
X884700Y1451650D02*
D03*
X918700D02*
D03*
X757700Y1316950D02*
D03*
X791700D02*
D03*
X757700Y1451650D02*
D03*
X791700D02*
D03*
X1265700Y1316950D02*
D03*
X1299700D02*
D03*
X1265700Y1451650D02*
D03*
X1299700D02*
D03*
X1011700Y1316950D02*
D03*
X1045700D02*
D03*
X1011700Y1451650D02*
D03*
X1045700D02*
D03*
X376700Y1316950D02*
D03*
X410700D02*
D03*
X376700Y1451650D02*
D03*
X410700D02*
D03*
X630700Y1316950D02*
D03*
X664700D02*
D03*
X630700Y1451650D02*
D03*
X664700D02*
D03*
X1172700Y1934250D02*
D03*
X1138700D02*
D03*
X1172700Y1799550D02*
D03*
X1138700D02*
D03*
X537700Y1934250D02*
D03*
X503700D02*
D03*
X537700Y1799550D02*
D03*
X503700D02*
D03*
X283700Y1934250D02*
D03*
X249700D02*
D03*
X283700Y1799550D02*
D03*
X249700D02*
D03*
X884700D02*
D03*
X918700D02*
D03*
X884700Y1934250D02*
D03*
X918700D02*
D03*
X757700Y1799550D02*
D03*
X791700D02*
D03*
X757700Y1934250D02*
D03*
X791700D02*
D03*
X1265700Y1799550D02*
D03*
X1299700D02*
D03*
X1265700Y1934250D02*
D03*
X1299700D02*
D03*
X1011700Y1799550D02*
D03*
X1045700D02*
D03*
X1011700Y1934250D02*
D03*
X1045700D02*
D03*
X376700Y1799550D02*
D03*
X410700D02*
D03*
X376700Y1934250D02*
D03*
X410700D02*
D03*
X630700Y1799550D02*
D03*
X664700D02*
D03*
X630700Y1934250D02*
D03*
X664700D02*
D03*
D19*
X1562500Y901700D02*
D03*
Y520700D02*
D03*
Y266700D02*
D03*
Y393700D02*
D03*
Y774700D02*
D03*
Y647700D02*
D03*
Y1028700D02*
D03*
Y1155700D02*
D03*
X2042560Y901700D02*
D03*
Y520700D02*
D03*
Y266700D02*
D03*
Y393700D02*
D03*
Y774700D02*
D03*
Y647700D02*
D03*
Y1028700D02*
D03*
Y1155700D02*
D03*
D20*
X1612500Y901700D02*
D03*
Y520700D02*
D03*
Y266700D02*
D03*
Y393700D02*
D03*
Y774700D02*
D03*
Y647700D02*
D03*
Y1028700D02*
D03*
Y1155700D02*
D03*
X2092560Y901700D02*
D03*
Y520700D02*
D03*
Y266700D02*
D03*
Y393700D02*
D03*
Y774700D02*
D03*
Y647700D02*
D03*
Y1028700D02*
D03*
Y1155700D02*
D03*
X647700Y240900D02*
D03*
X1028700D02*
D03*
X1282700D02*
D03*
X1155700D02*
D03*
X774700D02*
D03*
X901700D02*
D03*
X520700D02*
D03*
X393700D02*
D03*
X647700Y723500D02*
D03*
X1028700D02*
D03*
X1282700D02*
D03*
X1155700D02*
D03*
X774700D02*
D03*
X901700D02*
D03*
X520700D02*
D03*
X393700D02*
D03*
X647700Y1206100D02*
D03*
X1028700D02*
D03*
X1282700D02*
D03*
X1155700D02*
D03*
X774700D02*
D03*
X901700D02*
D03*
X520700D02*
D03*
X393700D02*
D03*
X647700Y1688700D02*
D03*
X1028700D02*
D03*
X1282700D02*
D03*
X1155700D02*
D03*
X774700D02*
D03*
X901700D02*
D03*
X520700D02*
D03*
X393700D02*
D03*
D21*
X1623500Y1282700D02*
D03*
X2103560D02*
D03*
X266700Y251900D02*
D03*
Y734500D02*
D03*
Y1217100D02*
D03*
Y1699700D02*
D03*
D22*
X1551500Y1282700D02*
D03*
X2031560D02*
D03*
D23*
X1524000Y1397000D02*
D03*
X1879600D02*
D03*
Y152400D02*
D03*
X1524000D02*
D03*
X2004060Y1397000D02*
D03*
X2359660D02*
D03*
Y152400D02*
D03*
X2004060D02*
D03*
X152400D02*
D03*
Y508000D02*
D03*
X1397000D02*
D03*
Y152400D02*
D03*
X152400Y635000D02*
D03*
Y990600D02*
D03*
X1397000D02*
D03*
Y635000D02*
D03*
X152400Y1117600D02*
D03*
Y1473200D02*
D03*
X1397000D02*
D03*
Y1117600D02*
D03*
X152400Y1600200D02*
D03*
Y1955800D02*
D03*
X1397000D02*
D03*
Y1600200D02*
D03*
D25*
X647700Y190900D02*
D03*
X1028700D02*
D03*
X1282700D02*
D03*
X1155700D02*
D03*
X774700D02*
D03*
X901700D02*
D03*
X520700D02*
D03*
X393700D02*
D03*
X647700Y673500D02*
D03*
X1028700D02*
D03*
X1282700D02*
D03*
X1155700D02*
D03*
X774700D02*
D03*
X901700D02*
D03*
X520700D02*
D03*
X393700D02*
D03*
X647700Y1156100D02*
D03*
X1028700D02*
D03*
X1282700D02*
D03*
X1155700D02*
D03*
X774700D02*
D03*
X901700D02*
D03*
X520700D02*
D03*
X393700D02*
D03*
X647700Y1638700D02*
D03*
X1028700D02*
D03*
X1282700D02*
D03*
X1155700D02*
D03*
X774700D02*
D03*
X901700D02*
D03*
X520700D02*
D03*
X393700D02*
D03*
D26*
X266700Y179900D02*
D03*
Y662500D02*
D03*
Y1145100D02*
D03*
Y1627700D02*
D03*
M02*
