G04*
G04 #@! TF.GenerationSoftware,Altium Limited,Altium Designer,21.8.1 (53)*
G04*
G04 Layer_Color=16711935*
%FSLAX44Y44*%
%MOMM*%
G71*
G04*
G04 #@! TF.SameCoordinates,54C0CB10-D324-4126-BD5B-6722362DD903*
G04*
G04*
G04 #@! TF.FilePolarity,Negative*
G04*
G01*
G75*
%ADD30C,0.7112*%
%ADD31C,5.2032*%
%ADD32C,2.6032*%
%ADD33R,3.3782X3.3782*%
%ADD34C,3.3782*%
%ADD35C,5.6642*%
%ADD36R,5.6642X5.6642*%
%ADD37C,6.2032*%
%ADD38C,1.4732*%
D30*
X1450340Y353060D02*
D03*
Y345440D02*
D03*
Y337820D02*
D03*
Y330200D02*
D03*
Y322580D02*
D03*
Y314960D02*
D03*
Y307340D02*
D03*
X1470660Y353060D02*
D03*
Y345440D02*
D03*
Y337820D02*
D03*
Y330200D02*
D03*
Y322580D02*
D03*
Y314960D02*
D03*
Y307340D02*
D03*
X1450340Y835660D02*
D03*
Y828040D02*
D03*
Y820420D02*
D03*
Y812800D02*
D03*
Y805180D02*
D03*
Y797560D02*
D03*
Y789940D02*
D03*
X1470660Y835660D02*
D03*
Y828040D02*
D03*
Y820420D02*
D03*
Y812800D02*
D03*
Y805180D02*
D03*
Y797560D02*
D03*
Y789940D02*
D03*
X1450340Y1320800D02*
D03*
Y1313180D02*
D03*
Y1305560D02*
D03*
Y1297940D02*
D03*
Y1290320D02*
D03*
Y1282700D02*
D03*
Y1275080D02*
D03*
X1470660Y1320800D02*
D03*
Y1313180D02*
D03*
Y1305560D02*
D03*
Y1297940D02*
D03*
Y1290320D02*
D03*
Y1282700D02*
D03*
Y1275080D02*
D03*
X1450340Y1800860D02*
D03*
Y1793240D02*
D03*
Y1785620D02*
D03*
Y1778000D02*
D03*
Y1770380D02*
D03*
Y1762760D02*
D03*
Y1755140D02*
D03*
X1470660Y1800860D02*
D03*
Y1793240D02*
D03*
Y1785620D02*
D03*
Y1778000D02*
D03*
Y1770380D02*
D03*
Y1762760D02*
D03*
Y1755140D02*
D03*
X1450340Y2092960D02*
D03*
Y2085340D02*
D03*
Y2077720D02*
D03*
Y2070100D02*
D03*
Y2062480D02*
D03*
Y2054860D02*
D03*
Y2047240D02*
D03*
X1470660Y2092960D02*
D03*
Y2085340D02*
D03*
Y2077720D02*
D03*
Y2070100D02*
D03*
Y2062480D02*
D03*
Y2054860D02*
D03*
Y2047240D02*
D03*
X2821940Y2092960D02*
D03*
Y2085340D02*
D03*
Y2077720D02*
D03*
Y2070100D02*
D03*
Y2062480D02*
D03*
Y2054860D02*
D03*
Y2047240D02*
D03*
X2905760Y2009140D02*
D03*
X2898140D02*
D03*
X2890520D02*
D03*
X2882900D02*
D03*
X2875280D02*
D03*
X2867660D02*
D03*
X2860040D02*
D03*
X2905760Y1546860D02*
D03*
X2898140D02*
D03*
X2890520D02*
D03*
X2882900D02*
D03*
X2875280D02*
D03*
X2867660D02*
D03*
X2860040D02*
D03*
X2905760Y1526540D02*
D03*
X2898140D02*
D03*
X2890520D02*
D03*
X2882900D02*
D03*
X2875280D02*
D03*
X2867660D02*
D03*
X2860040D02*
D03*
X2905760Y1064260D02*
D03*
X2898140D02*
D03*
X2890520D02*
D03*
X2882900D02*
D03*
X2875280D02*
D03*
X2867660D02*
D03*
X2860040D02*
D03*
X2905760Y1043940D02*
D03*
X2898140D02*
D03*
X2890520D02*
D03*
X2882900D02*
D03*
X2875280D02*
D03*
X2867660D02*
D03*
X2860040D02*
D03*
X2905760Y581660D02*
D03*
X2898140D02*
D03*
X2890520D02*
D03*
X2882900D02*
D03*
X2875280D02*
D03*
X2867660D02*
D03*
X2860040D02*
D03*
X2905760Y561340D02*
D03*
X2898140D02*
D03*
X2890520D02*
D03*
X2882900D02*
D03*
X2875280D02*
D03*
X2867660D02*
D03*
X2860040D02*
D03*
X2905760Y99060D02*
D03*
X2898140D02*
D03*
X2890520D02*
D03*
X2882900D02*
D03*
X2875280D02*
D03*
X2867660D02*
D03*
X2860040D02*
D03*
X2905760Y78740D02*
D03*
X2898140D02*
D03*
X2890520D02*
D03*
X2882900D02*
D03*
X2875280D02*
D03*
X2867660D02*
D03*
X2860040D02*
D03*
X2842260Y15240D02*
D03*
Y22860D02*
D03*
Y30480D02*
D03*
Y38100D02*
D03*
Y45720D02*
D03*
Y53340D02*
D03*
Y60960D02*
D03*
X2821940Y15240D02*
D03*
Y22860D02*
D03*
Y30480D02*
D03*
Y38100D02*
D03*
Y45720D02*
D03*
Y53340D02*
D03*
Y60960D02*
D03*
X1470660Y15240D02*
D03*
Y22860D02*
D03*
Y30480D02*
D03*
Y38100D02*
D03*
Y45720D02*
D03*
Y53340D02*
D03*
Y60960D02*
D03*
X1450340Y15240D02*
D03*
Y22860D02*
D03*
Y30480D02*
D03*
Y38100D02*
D03*
Y45720D02*
D03*
Y53340D02*
D03*
Y60960D02*
D03*
X99060Y15240D02*
D03*
Y22860D02*
D03*
Y30480D02*
D03*
Y38100D02*
D03*
Y45720D02*
D03*
Y53340D02*
D03*
Y60960D02*
D03*
X15240Y99060D02*
D03*
X22860D02*
D03*
X30480D02*
D03*
X38100D02*
D03*
X45720D02*
D03*
X53340D02*
D03*
X60960D02*
D03*
X15240Y561340D02*
D03*
X22860D02*
D03*
X30480D02*
D03*
X38100D02*
D03*
X45720D02*
D03*
X53340D02*
D03*
X60960D02*
D03*
X15240Y581660D02*
D03*
X22860D02*
D03*
X30480D02*
D03*
X38100D02*
D03*
X45720D02*
D03*
X53340D02*
D03*
X60960D02*
D03*
X15240Y1043940D02*
D03*
X22860D02*
D03*
X30480D02*
D03*
X38100D02*
D03*
X45720D02*
D03*
X53340D02*
D03*
X60960D02*
D03*
X15240Y1064260D02*
D03*
X22860D02*
D03*
X30480D02*
D03*
X38100D02*
D03*
X45720D02*
D03*
X53340D02*
D03*
X60960D02*
D03*
X15240Y1526540D02*
D03*
X22860D02*
D03*
X30480D02*
D03*
X38100D02*
D03*
X45720D02*
D03*
X53340D02*
D03*
X60960D02*
D03*
X15240Y1546860D02*
D03*
X22860D02*
D03*
X30480D02*
D03*
X38100D02*
D03*
X45720D02*
D03*
X53340D02*
D03*
X60960D02*
D03*
X15240Y2009140D02*
D03*
X22860D02*
D03*
X30480D02*
D03*
X38100D02*
D03*
X45720D02*
D03*
X53340D02*
D03*
X60960D02*
D03*
X99060Y2092960D02*
D03*
Y2085340D02*
D03*
Y2077720D02*
D03*
Y2070100D02*
D03*
Y2062480D02*
D03*
Y2054860D02*
D03*
Y2047240D02*
D03*
X2397760Y1546860D02*
D03*
X2390140D02*
D03*
X2382520D02*
D03*
X2374900D02*
D03*
X2367280D02*
D03*
X2359660D02*
D03*
X2352040D02*
D03*
X2397760Y1526540D02*
D03*
X2390140D02*
D03*
X2382520D02*
D03*
X2374900D02*
D03*
X2367280D02*
D03*
X2359660D02*
D03*
X2352040D02*
D03*
X1927860Y1546860D02*
D03*
X1920240D02*
D03*
X1912620D02*
D03*
X1905000D02*
D03*
X1897380D02*
D03*
X1889760D02*
D03*
X1882140D02*
D03*
X1927860Y1526540D02*
D03*
X1920240D02*
D03*
X1912620D02*
D03*
X1905000D02*
D03*
X1897380D02*
D03*
X1889760D02*
D03*
X1882140D02*
D03*
X1026160Y581660D02*
D03*
X1018540D02*
D03*
X1010920D02*
D03*
X1003300D02*
D03*
X995680D02*
D03*
X988060D02*
D03*
X980440D02*
D03*
X1026160Y561340D02*
D03*
X1018540D02*
D03*
X1010920D02*
D03*
X1003300D02*
D03*
X995680D02*
D03*
X988060D02*
D03*
X980440D02*
D03*
X1927860Y581660D02*
D03*
X1920240D02*
D03*
X1912620D02*
D03*
X1905000D02*
D03*
X1897380D02*
D03*
X1889760D02*
D03*
X1882140D02*
D03*
X1927860Y561340D02*
D03*
X1920240D02*
D03*
X1912620D02*
D03*
X1905000D02*
D03*
X1897380D02*
D03*
X1889760D02*
D03*
X1882140D02*
D03*
X2397760Y581660D02*
D03*
X2390140D02*
D03*
X2382520D02*
D03*
X2374900D02*
D03*
X2367280D02*
D03*
X2359660D02*
D03*
X2352040D02*
D03*
X2397760Y561340D02*
D03*
X2390140D02*
D03*
X2382520D02*
D03*
X2374900D02*
D03*
X2367280D02*
D03*
X2359660D02*
D03*
X2352040D02*
D03*
X2397760Y1064260D02*
D03*
X2390140D02*
D03*
X2382520D02*
D03*
X2374900D02*
D03*
X2367280D02*
D03*
X2359660D02*
D03*
X2352040D02*
D03*
X2397760Y1043940D02*
D03*
X2390140D02*
D03*
X2382520D02*
D03*
X2374900D02*
D03*
X2367280D02*
D03*
X2359660D02*
D03*
X2352040D02*
D03*
X1927860Y1064260D02*
D03*
X1920240D02*
D03*
X1912620D02*
D03*
X1905000D02*
D03*
X1897380D02*
D03*
X1889760D02*
D03*
X1882140D02*
D03*
X1927860Y1043940D02*
D03*
X1920240D02*
D03*
X1912620D02*
D03*
X1905000D02*
D03*
X1897380D02*
D03*
X1889760D02*
D03*
X1882140D02*
D03*
X1026160Y1064260D02*
D03*
X1018540D02*
D03*
X1010920D02*
D03*
X1003300D02*
D03*
X995680D02*
D03*
X988060D02*
D03*
X980440D02*
D03*
X1026160Y1043940D02*
D03*
X1018540D02*
D03*
X1010920D02*
D03*
X1003300D02*
D03*
X995680D02*
D03*
X988060D02*
D03*
X980440D02*
D03*
X510540Y561340D02*
D03*
X518160D02*
D03*
X525780D02*
D03*
X533400D02*
D03*
X541020D02*
D03*
X548640D02*
D03*
X556260D02*
D03*
X510540Y581660D02*
D03*
X518160D02*
D03*
X525780D02*
D03*
X533400D02*
D03*
X541020D02*
D03*
X548640D02*
D03*
X556260D02*
D03*
X510540Y1043940D02*
D03*
X518160D02*
D03*
X525780D02*
D03*
X533400D02*
D03*
X541020D02*
D03*
X548640D02*
D03*
X556260D02*
D03*
X510540Y1064260D02*
D03*
X518160D02*
D03*
X525780D02*
D03*
X533400D02*
D03*
X541020D02*
D03*
X548640D02*
D03*
X556260D02*
D03*
X980440Y1526540D02*
D03*
X988060D02*
D03*
X995680D02*
D03*
X1003300D02*
D03*
X1010920D02*
D03*
X1018540D02*
D03*
X1026160D02*
D03*
X980440Y1546860D02*
D03*
X988060D02*
D03*
X995680D02*
D03*
X1003300D02*
D03*
X1010920D02*
D03*
X1018540D02*
D03*
X1026160D02*
D03*
X510540Y1526540D02*
D03*
X518160D02*
D03*
X525780D02*
D03*
X533400D02*
D03*
X541020D02*
D03*
X548640D02*
D03*
X556260D02*
D03*
X510540Y1546860D02*
D03*
X518160D02*
D03*
X525780D02*
D03*
X533400D02*
D03*
X541020D02*
D03*
X548640D02*
D03*
X556260D02*
D03*
X2364740Y2009140D02*
D03*
X2372360D02*
D03*
X2379980D02*
D03*
X2387600D02*
D03*
X2395220D02*
D03*
X2402840D02*
D03*
X2410460D02*
D03*
X2821940Y1800860D02*
D03*
Y1793240D02*
D03*
Y1785620D02*
D03*
Y1778000D02*
D03*
Y1770380D02*
D03*
Y1762760D02*
D03*
Y1755140D02*
D03*
Y1318260D02*
D03*
Y1310640D02*
D03*
Y1303020D02*
D03*
Y1295400D02*
D03*
Y1287780D02*
D03*
Y1280160D02*
D03*
Y1272540D02*
D03*
Y835660D02*
D03*
Y828040D02*
D03*
Y820420D02*
D03*
Y812800D02*
D03*
Y805180D02*
D03*
Y797560D02*
D03*
Y789940D02*
D03*
Y353060D02*
D03*
Y345440D02*
D03*
Y337820D02*
D03*
Y330200D02*
D03*
Y322580D02*
D03*
Y314960D02*
D03*
Y307340D02*
D03*
X2397760Y99060D02*
D03*
X2390140D02*
D03*
X2382520D02*
D03*
X2374900D02*
D03*
X2367280D02*
D03*
X2359660D02*
D03*
X2352040D02*
D03*
X1927860D02*
D03*
X1920240D02*
D03*
X1912620D02*
D03*
X1905000D02*
D03*
X1897380D02*
D03*
X1889760D02*
D03*
X1882140D02*
D03*
X1026160D02*
D03*
X1018540D02*
D03*
X1010920D02*
D03*
X1003300D02*
D03*
X995680D02*
D03*
X988060D02*
D03*
X980440D02*
D03*
X556260D02*
D03*
X548640D02*
D03*
X541020D02*
D03*
X533400D02*
D03*
X525780D02*
D03*
X518160D02*
D03*
X510540D02*
D03*
X99060Y307340D02*
D03*
Y314960D02*
D03*
Y322580D02*
D03*
Y330200D02*
D03*
Y337820D02*
D03*
Y345440D02*
D03*
Y353060D02*
D03*
Y789940D02*
D03*
Y797560D02*
D03*
Y805180D02*
D03*
Y812800D02*
D03*
Y820420D02*
D03*
Y828040D02*
D03*
Y835660D02*
D03*
Y1272540D02*
D03*
Y1280160D02*
D03*
Y1287780D02*
D03*
Y1295400D02*
D03*
Y1303020D02*
D03*
Y1310640D02*
D03*
Y1318260D02*
D03*
Y1755140D02*
D03*
Y1762760D02*
D03*
Y1770380D02*
D03*
Y1778000D02*
D03*
Y1785620D02*
D03*
Y1793240D02*
D03*
Y1800860D02*
D03*
X1894840Y2009140D02*
D03*
X1902460D02*
D03*
X1910080D02*
D03*
X1917700D02*
D03*
X1925320D02*
D03*
X1932940D02*
D03*
X1940560D02*
D03*
X993140D02*
D03*
X1000760D02*
D03*
X1008380D02*
D03*
X1016000D02*
D03*
X1023620D02*
D03*
X1031240D02*
D03*
X1038860D02*
D03*
X568960D02*
D03*
X561340D02*
D03*
X553720D02*
D03*
X546100D02*
D03*
X538480D02*
D03*
X530860D02*
D03*
X523240D02*
D03*
D31*
X2882900Y2070100D02*
D03*
Y38100D02*
D03*
X38100D02*
D03*
Y2070100D02*
D03*
D32*
X1172700Y486450D02*
D03*
X1138700D02*
D03*
X1172700Y351750D02*
D03*
X1138700D02*
D03*
X537700Y486450D02*
D03*
X503700D02*
D03*
X537700Y351750D02*
D03*
X503700D02*
D03*
X283700Y486450D02*
D03*
X249700D02*
D03*
X283700Y351750D02*
D03*
X249700D02*
D03*
X884700D02*
D03*
X918700D02*
D03*
X884700Y486450D02*
D03*
X918700D02*
D03*
X757700Y351750D02*
D03*
X791700D02*
D03*
X757700Y486450D02*
D03*
X791700D02*
D03*
X1265700Y351750D02*
D03*
X1299700D02*
D03*
X1265700Y486450D02*
D03*
X1299700D02*
D03*
X1011700Y351750D02*
D03*
X1045700D02*
D03*
X1011700Y486450D02*
D03*
X1045700D02*
D03*
X376700Y351750D02*
D03*
X410700D02*
D03*
X376700Y486450D02*
D03*
X410700D02*
D03*
X630700Y351750D02*
D03*
X664700D02*
D03*
X630700Y486450D02*
D03*
X664700D02*
D03*
X2544300D02*
D03*
X2510300D02*
D03*
X2544300Y351750D02*
D03*
X2510300D02*
D03*
X1909300Y486450D02*
D03*
X1875300D02*
D03*
X1909300Y351750D02*
D03*
X1875300D02*
D03*
X1655300Y486450D02*
D03*
X1621300D02*
D03*
X1655300Y351750D02*
D03*
X1621300D02*
D03*
X2256300D02*
D03*
X2290300D02*
D03*
X2256300Y486450D02*
D03*
X2290300D02*
D03*
X2129300Y351750D02*
D03*
X2163300D02*
D03*
X2129300Y486450D02*
D03*
X2163300D02*
D03*
X2637300Y351750D02*
D03*
X2671300D02*
D03*
X2637300Y486450D02*
D03*
X2671300D02*
D03*
X2383300Y351750D02*
D03*
X2417300D02*
D03*
X2383300Y486450D02*
D03*
X2417300D02*
D03*
X1748300Y351750D02*
D03*
X1782300D02*
D03*
X1748300Y486450D02*
D03*
X1782300D02*
D03*
X2002300Y351750D02*
D03*
X2036300D02*
D03*
X2002300Y486450D02*
D03*
X2036300D02*
D03*
X1172700Y969050D02*
D03*
X1138700D02*
D03*
X1172700Y834350D02*
D03*
X1138700D02*
D03*
X537700Y969050D02*
D03*
X503700D02*
D03*
X537700Y834350D02*
D03*
X503700D02*
D03*
X283700Y969050D02*
D03*
X249700D02*
D03*
X283700Y834350D02*
D03*
X249700D02*
D03*
X884700D02*
D03*
X918700D02*
D03*
X884700Y969050D02*
D03*
X918700D02*
D03*
X757700Y834350D02*
D03*
X791700D02*
D03*
X757700Y969050D02*
D03*
X791700D02*
D03*
X1265700Y834350D02*
D03*
X1299700D02*
D03*
X1265700Y969050D02*
D03*
X1299700D02*
D03*
X1011700Y834350D02*
D03*
X1045700D02*
D03*
X1011700Y969050D02*
D03*
X1045700D02*
D03*
X376700Y834350D02*
D03*
X410700D02*
D03*
X376700Y969050D02*
D03*
X410700D02*
D03*
X630700Y834350D02*
D03*
X664700D02*
D03*
X630700Y969050D02*
D03*
X664700D02*
D03*
X2544300D02*
D03*
X2510300D02*
D03*
X2544300Y834350D02*
D03*
X2510300D02*
D03*
X1909300Y969050D02*
D03*
X1875300D02*
D03*
X1909300Y834350D02*
D03*
X1875300D02*
D03*
X1655300Y969050D02*
D03*
X1621300D02*
D03*
X1655300Y834350D02*
D03*
X1621300D02*
D03*
X2256300D02*
D03*
X2290300D02*
D03*
X2256300Y969050D02*
D03*
X2290300D02*
D03*
X2129300Y834350D02*
D03*
X2163300D02*
D03*
X2129300Y969050D02*
D03*
X2163300D02*
D03*
X2637300Y834350D02*
D03*
X2671300D02*
D03*
X2637300Y969050D02*
D03*
X2671300D02*
D03*
X2383300Y834350D02*
D03*
X2417300D02*
D03*
X2383300Y969050D02*
D03*
X2417300D02*
D03*
X1748300Y834350D02*
D03*
X1782300D02*
D03*
X1748300Y969050D02*
D03*
X1782300D02*
D03*
X2002300Y834350D02*
D03*
X2036300D02*
D03*
X2002300Y969050D02*
D03*
X2036300D02*
D03*
X1172700Y1451650D02*
D03*
X1138700D02*
D03*
X1172700Y1316950D02*
D03*
X1138700D02*
D03*
X537700Y1451650D02*
D03*
X503700D02*
D03*
X537700Y1316950D02*
D03*
X503700D02*
D03*
X283700Y1451650D02*
D03*
X249700D02*
D03*
X283700Y1316950D02*
D03*
X249700D02*
D03*
X884700D02*
D03*
X918700D02*
D03*
X884700Y1451650D02*
D03*
X918700D02*
D03*
X757700Y1316950D02*
D03*
X791700D02*
D03*
X757700Y1451650D02*
D03*
X791700D02*
D03*
X1265700Y1316950D02*
D03*
X1299700D02*
D03*
X1265700Y1451650D02*
D03*
X1299700D02*
D03*
X1011700Y1316950D02*
D03*
X1045700D02*
D03*
X1011700Y1451650D02*
D03*
X1045700D02*
D03*
X376700Y1316950D02*
D03*
X410700D02*
D03*
X376700Y1451650D02*
D03*
X410700D02*
D03*
X630700Y1316950D02*
D03*
X664700D02*
D03*
X630700Y1451650D02*
D03*
X664700D02*
D03*
X2544300D02*
D03*
X2510300D02*
D03*
X2544300Y1316950D02*
D03*
X2510300D02*
D03*
X1909300Y1451650D02*
D03*
X1875300D02*
D03*
X1909300Y1316950D02*
D03*
X1875300D02*
D03*
X1655300Y1451650D02*
D03*
X1621300D02*
D03*
X1655300Y1316950D02*
D03*
X1621300D02*
D03*
X2256300D02*
D03*
X2290300D02*
D03*
X2256300Y1451650D02*
D03*
X2290300D02*
D03*
X2129300Y1316950D02*
D03*
X2163300D02*
D03*
X2129300Y1451650D02*
D03*
X2163300D02*
D03*
X2637300Y1316950D02*
D03*
X2671300D02*
D03*
X2637300Y1451650D02*
D03*
X2671300D02*
D03*
X2383300Y1316950D02*
D03*
X2417300D02*
D03*
X2383300Y1451650D02*
D03*
X2417300D02*
D03*
X1748300Y1316950D02*
D03*
X1782300D02*
D03*
X1748300Y1451650D02*
D03*
X1782300D02*
D03*
X2002300Y1316950D02*
D03*
X2036300D02*
D03*
X2002300Y1451650D02*
D03*
X2036300D02*
D03*
X1172700Y1934250D02*
D03*
X1138700D02*
D03*
X1172700Y1799550D02*
D03*
X1138700D02*
D03*
X537700Y1934250D02*
D03*
X503700D02*
D03*
X537700Y1799550D02*
D03*
X503700D02*
D03*
X283700Y1934250D02*
D03*
X249700D02*
D03*
X283700Y1799550D02*
D03*
X249700D02*
D03*
X884700D02*
D03*
X918700D02*
D03*
X884700Y1934250D02*
D03*
X918700D02*
D03*
X757700Y1799550D02*
D03*
X791700D02*
D03*
X757700Y1934250D02*
D03*
X791700D02*
D03*
X1265700Y1799550D02*
D03*
X1299700D02*
D03*
X1265700Y1934250D02*
D03*
X1299700D02*
D03*
X1011700Y1799550D02*
D03*
X1045700D02*
D03*
X1011700Y1934250D02*
D03*
X1045700D02*
D03*
X376700Y1799550D02*
D03*
X410700D02*
D03*
X376700Y1934250D02*
D03*
X410700D02*
D03*
X630700Y1799550D02*
D03*
X664700D02*
D03*
X630700Y1934250D02*
D03*
X664700D02*
D03*
X2544300D02*
D03*
X2510300D02*
D03*
X2544300Y1799550D02*
D03*
X2510300D02*
D03*
X1909300Y1934250D02*
D03*
X1875300D02*
D03*
X1909300Y1799550D02*
D03*
X1875300D02*
D03*
X1655300Y1934250D02*
D03*
X1621300D02*
D03*
X1655300Y1799550D02*
D03*
X1621300D02*
D03*
X2256300D02*
D03*
X2290300D02*
D03*
X2256300Y1934250D02*
D03*
X2290300D02*
D03*
X2129300Y1799550D02*
D03*
X2163300D02*
D03*
X2129300Y1934250D02*
D03*
X2163300D02*
D03*
X2637300Y1799550D02*
D03*
X2671300D02*
D03*
X2637300Y1934250D02*
D03*
X2671300D02*
D03*
X2383300Y1799550D02*
D03*
X2417300D02*
D03*
X2383300Y1934250D02*
D03*
X2417300D02*
D03*
X1748300Y1799550D02*
D03*
X1782300D02*
D03*
X1748300Y1934250D02*
D03*
X1782300D02*
D03*
X2002300Y1799550D02*
D03*
X2036300D02*
D03*
X2002300Y1934250D02*
D03*
X2036300D02*
D03*
D33*
X647700Y190900D02*
D03*
X1028700D02*
D03*
X1282700D02*
D03*
X1155700D02*
D03*
X774700D02*
D03*
X901700D02*
D03*
X520700D02*
D03*
X393700D02*
D03*
X2019300D02*
D03*
X2400300D02*
D03*
X2654300D02*
D03*
X2527300D02*
D03*
X2146300D02*
D03*
X2273300D02*
D03*
X1892300D02*
D03*
X1765300D02*
D03*
X647700Y673500D02*
D03*
X1028700D02*
D03*
X1282700D02*
D03*
X1155700D02*
D03*
X774700D02*
D03*
X901700D02*
D03*
X520700D02*
D03*
X393700D02*
D03*
X2019300D02*
D03*
X2400300D02*
D03*
X2654300D02*
D03*
X2527300D02*
D03*
X2146300D02*
D03*
X2273300D02*
D03*
X1892300D02*
D03*
X1765300D02*
D03*
X647700Y1156100D02*
D03*
X1028700D02*
D03*
X1282700D02*
D03*
X1155700D02*
D03*
X774700D02*
D03*
X901700D02*
D03*
X520700D02*
D03*
X393700D02*
D03*
X2019300D02*
D03*
X2400300D02*
D03*
X2654300D02*
D03*
X2527300D02*
D03*
X2146300D02*
D03*
X2273300D02*
D03*
X1892300D02*
D03*
X1765300D02*
D03*
X647700Y1638700D02*
D03*
X1028700D02*
D03*
X1282700D02*
D03*
X1155700D02*
D03*
X774700D02*
D03*
X901700D02*
D03*
X520700D02*
D03*
X393700D02*
D03*
X2019300D02*
D03*
X2400300D02*
D03*
X2654300D02*
D03*
X2527300D02*
D03*
X2146300D02*
D03*
X2273300D02*
D03*
X1892300D02*
D03*
X1765300D02*
D03*
D34*
X647700Y240900D02*
D03*
X1028700D02*
D03*
X1282700D02*
D03*
X1155700D02*
D03*
X774700D02*
D03*
X901700D02*
D03*
X520700D02*
D03*
X393700D02*
D03*
X2019300D02*
D03*
X2400300D02*
D03*
X2654300D02*
D03*
X2527300D02*
D03*
X2146300D02*
D03*
X2273300D02*
D03*
X1892300D02*
D03*
X1765300D02*
D03*
X647700Y723500D02*
D03*
X1028700D02*
D03*
X1282700D02*
D03*
X1155700D02*
D03*
X774700D02*
D03*
X901700D02*
D03*
X520700D02*
D03*
X393700D02*
D03*
X2019300D02*
D03*
X2400300D02*
D03*
X2654300D02*
D03*
X2527300D02*
D03*
X2146300D02*
D03*
X2273300D02*
D03*
X1892300D02*
D03*
X1765300D02*
D03*
X647700Y1206100D02*
D03*
X1028700D02*
D03*
X1282700D02*
D03*
X1155700D02*
D03*
X774700D02*
D03*
X901700D02*
D03*
X520700D02*
D03*
X393700D02*
D03*
X2019300D02*
D03*
X2400300D02*
D03*
X2654300D02*
D03*
X2527300D02*
D03*
X2146300D02*
D03*
X2273300D02*
D03*
X1892300D02*
D03*
X1765300D02*
D03*
X647700Y1688700D02*
D03*
X1028700D02*
D03*
X1282700D02*
D03*
X1155700D02*
D03*
X774700D02*
D03*
X901700D02*
D03*
X520700D02*
D03*
X393700D02*
D03*
X2019300D02*
D03*
X2400300D02*
D03*
X2654300D02*
D03*
X2527300D02*
D03*
X2146300D02*
D03*
X2273300D02*
D03*
X1892300D02*
D03*
X1765300D02*
D03*
D35*
X266700Y251900D02*
D03*
X1638300D02*
D03*
X266700Y734500D02*
D03*
X1638300D02*
D03*
X266700Y1217100D02*
D03*
X1638300D02*
D03*
X266700Y1699700D02*
D03*
X1638300D02*
D03*
D36*
X266700Y179900D02*
D03*
X1638300D02*
D03*
X266700Y662500D02*
D03*
X1638300D02*
D03*
X266700Y1145100D02*
D03*
X1638300D02*
D03*
X266700Y1627700D02*
D03*
X1638300D02*
D03*
D37*
X152400Y152400D02*
D03*
Y508000D02*
D03*
X1397000D02*
D03*
Y152400D02*
D03*
X1524000D02*
D03*
Y508000D02*
D03*
X2768600D02*
D03*
Y152400D02*
D03*
X152400Y635000D02*
D03*
Y990600D02*
D03*
X1397000D02*
D03*
Y635000D02*
D03*
X1524000D02*
D03*
Y990600D02*
D03*
X2768600D02*
D03*
Y635000D02*
D03*
X152400Y1117600D02*
D03*
Y1473200D02*
D03*
X1397000D02*
D03*
Y1117600D02*
D03*
X1524000D02*
D03*
Y1473200D02*
D03*
X2768600D02*
D03*
Y1117600D02*
D03*
X152400Y1600200D02*
D03*
Y1955800D02*
D03*
X1397000D02*
D03*
Y1600200D02*
D03*
X1524000D02*
D03*
Y1955800D02*
D03*
X2768600D02*
D03*
Y1600200D02*
D03*
D38*
X1358900Y535940D02*
D03*
X1231900D02*
D03*
X1104900D02*
D03*
X977900D02*
D03*
X850900D02*
D03*
X723900D02*
D03*
X596900D02*
D03*
X469900D02*
D03*
X342900D02*
D03*
X198120Y515620D02*
D03*
X2730500Y535940D02*
D03*
X2603500D02*
D03*
X2476500D02*
D03*
X2349500D02*
D03*
X2222500D02*
D03*
X2095500D02*
D03*
X1968500D02*
D03*
X1841500D02*
D03*
X1714500D02*
D03*
X1569720Y515620D02*
D03*
X1358900Y1018540D02*
D03*
X1231900D02*
D03*
X1104900D02*
D03*
X977900D02*
D03*
X850900D02*
D03*
X723900D02*
D03*
X596900D02*
D03*
X469900D02*
D03*
X342900D02*
D03*
X198120Y998220D02*
D03*
X2730500Y1018540D02*
D03*
X2603500D02*
D03*
X2476500D02*
D03*
X2349500D02*
D03*
X2222500D02*
D03*
X2095500D02*
D03*
X1968500D02*
D03*
X1841500D02*
D03*
X1714500D02*
D03*
X1569720Y998220D02*
D03*
X1358900Y1501140D02*
D03*
X1231900D02*
D03*
X1104900D02*
D03*
X977900D02*
D03*
X850900D02*
D03*
X723900D02*
D03*
X596900D02*
D03*
X469900D02*
D03*
X342900D02*
D03*
X198120Y1480820D02*
D03*
X2730500Y1501140D02*
D03*
X2603500D02*
D03*
X2476500D02*
D03*
X2349500D02*
D03*
X2222500D02*
D03*
X2095500D02*
D03*
X1968500D02*
D03*
X1841500D02*
D03*
X1714500D02*
D03*
X1569720Y1480820D02*
D03*
X1358900Y1983740D02*
D03*
X1231900D02*
D03*
X1104900D02*
D03*
X977900D02*
D03*
X850900D02*
D03*
X723900D02*
D03*
X596900D02*
D03*
X469900D02*
D03*
X342900D02*
D03*
X198120Y1963420D02*
D03*
X2730500Y1983740D02*
D03*
X2603500D02*
D03*
X2476500D02*
D03*
X2349500D02*
D03*
X2222500D02*
D03*
X2095500D02*
D03*
X1968500D02*
D03*
X1841500D02*
D03*
X1714500D02*
D03*
X1569720Y1963420D02*
D03*
M02*
