G04*
G04 #@! TF.GenerationSoftware,Altium Limited,Altium Designer,21.8.1 (53)*
G04*
G04 Layer_Color=16711935*
%FSLAX44Y44*%
%MOMM*%
G71*
G04*
G04 #@! TF.SameCoordinates,EA1F17BB-6109-422B-8DE2-DB4FFD1B2ED1*
G04*
G04*
G04 #@! TF.FilePolarity,Negative*
G04*
G01*
G75*
%ADD36C,0.7112*%
%ADD37C,5.2032*%
%ADD38C,2.6032*%
%ADD39R,3.3782X3.3782*%
%ADD40C,3.3782*%
%ADD41C,5.6642*%
%ADD42R,5.6642X5.6642*%
%ADD43C,6.2032*%
%ADD44C,1.4732*%
%ADD45R,3.3782X3.3782*%
%ADD46R,5.6642X5.6642*%
D36*
X2482850Y99060D02*
D03*
X2475230D02*
D03*
X2467610D02*
D03*
X2459990D02*
D03*
X2452370D02*
D03*
X2413000Y59690D02*
D03*
Y52070D02*
D03*
Y44450D02*
D03*
Y36830D02*
D03*
Y29210D02*
D03*
Y21590D02*
D03*
Y13970D02*
D03*
X2204720Y1450340D02*
D03*
X2197100D02*
D03*
X2189480D02*
D03*
X2181860D02*
D03*
X2174240D02*
D03*
X2166620D02*
D03*
X2159000D02*
D03*
X1724660D02*
D03*
X1717040D02*
D03*
X1709420D02*
D03*
X1701800D02*
D03*
X1694180D02*
D03*
X1686560D02*
D03*
X1678940D02*
D03*
X2413000Y1272540D02*
D03*
Y1280160D02*
D03*
Y1287780D02*
D03*
Y1295400D02*
D03*
Y1303020D02*
D03*
Y1310640D02*
D03*
Y1318260D02*
D03*
Y789940D02*
D03*
Y797560D02*
D03*
Y805180D02*
D03*
Y812800D02*
D03*
Y820420D02*
D03*
Y828040D02*
D03*
Y835660D02*
D03*
Y307340D02*
D03*
Y314960D02*
D03*
Y322580D02*
D03*
Y330200D02*
D03*
Y337820D02*
D03*
Y345440D02*
D03*
Y353060D02*
D03*
X1950720Y1272540D02*
D03*
Y1280160D02*
D03*
Y1287780D02*
D03*
Y1295400D02*
D03*
Y1303020D02*
D03*
Y1310640D02*
D03*
Y1318260D02*
D03*
X1932940Y1272540D02*
D03*
Y1280160D02*
D03*
Y1287780D02*
D03*
Y1295400D02*
D03*
Y1303020D02*
D03*
Y1310640D02*
D03*
Y1318260D02*
D03*
X1950720Y789940D02*
D03*
Y797560D02*
D03*
Y805180D02*
D03*
Y812800D02*
D03*
Y820420D02*
D03*
Y828040D02*
D03*
Y835660D02*
D03*
X1932940Y789940D02*
D03*
Y797560D02*
D03*
Y805180D02*
D03*
Y812800D02*
D03*
Y820420D02*
D03*
Y828040D02*
D03*
Y835660D02*
D03*
X1950720Y307340D02*
D03*
Y314960D02*
D03*
Y322580D02*
D03*
Y330200D02*
D03*
Y337820D02*
D03*
Y345440D02*
D03*
Y353060D02*
D03*
X1932940Y307340D02*
D03*
Y314960D02*
D03*
Y322580D02*
D03*
Y330200D02*
D03*
Y337820D02*
D03*
Y345440D02*
D03*
Y353060D02*
D03*
X2161540Y99060D02*
D03*
X2169160D02*
D03*
X2176780D02*
D03*
X2184400D02*
D03*
X2192020D02*
D03*
X2199640D02*
D03*
X2207260D02*
D03*
X1678940D02*
D03*
X1686560D02*
D03*
X1694180D02*
D03*
X1701800D02*
D03*
X1709420D02*
D03*
X1717040D02*
D03*
X1724660D02*
D03*
X1450340Y353060D02*
D03*
Y345440D02*
D03*
Y337820D02*
D03*
Y330200D02*
D03*
Y322580D02*
D03*
Y314960D02*
D03*
Y307340D02*
D03*
X1470660Y353060D02*
D03*
Y345440D02*
D03*
Y337820D02*
D03*
Y330200D02*
D03*
Y322580D02*
D03*
Y314960D02*
D03*
Y307340D02*
D03*
X1450340Y835660D02*
D03*
Y828040D02*
D03*
Y820420D02*
D03*
Y812800D02*
D03*
Y805180D02*
D03*
Y797560D02*
D03*
Y789940D02*
D03*
X1470660Y835660D02*
D03*
Y828040D02*
D03*
Y820420D02*
D03*
Y812800D02*
D03*
Y805180D02*
D03*
Y797560D02*
D03*
Y789940D02*
D03*
X1450340Y1320800D02*
D03*
Y1313180D02*
D03*
Y1305560D02*
D03*
Y1297940D02*
D03*
Y1290320D02*
D03*
Y1282700D02*
D03*
Y1275080D02*
D03*
X1470660Y1320800D02*
D03*
Y1313180D02*
D03*
Y1305560D02*
D03*
Y1297940D02*
D03*
Y1290320D02*
D03*
Y1282700D02*
D03*
Y1275080D02*
D03*
X1450340Y1800860D02*
D03*
Y1793240D02*
D03*
Y1785620D02*
D03*
Y1778000D02*
D03*
Y1770380D02*
D03*
Y1762760D02*
D03*
Y1755140D02*
D03*
Y2092960D02*
D03*
Y2085340D02*
D03*
Y2077720D02*
D03*
Y2070100D02*
D03*
Y2062480D02*
D03*
Y2054860D02*
D03*
Y2047240D02*
D03*
X2482850Y1450340D02*
D03*
X2475230D02*
D03*
X2467610D02*
D03*
X2459990D02*
D03*
X2452370D02*
D03*
X1450340Y15240D02*
D03*
Y22860D02*
D03*
Y30480D02*
D03*
Y38100D02*
D03*
Y45720D02*
D03*
Y53340D02*
D03*
Y60960D02*
D03*
X99060Y15240D02*
D03*
Y22860D02*
D03*
Y30480D02*
D03*
Y38100D02*
D03*
Y45720D02*
D03*
Y53340D02*
D03*
Y60960D02*
D03*
X15240Y99060D02*
D03*
X22860D02*
D03*
X30480D02*
D03*
X38100D02*
D03*
X45720D02*
D03*
X53340D02*
D03*
X60960D02*
D03*
X15240Y2009140D02*
D03*
X22860D02*
D03*
X30480D02*
D03*
X38100D02*
D03*
X45720D02*
D03*
X53340D02*
D03*
X60960D02*
D03*
X99060Y2092960D02*
D03*
Y2085340D02*
D03*
Y2077720D02*
D03*
Y2070100D02*
D03*
Y2062480D02*
D03*
Y2054860D02*
D03*
Y2047240D02*
D03*
X1026160Y581660D02*
D03*
X1018540D02*
D03*
X1010920D02*
D03*
X1003300D02*
D03*
X995680D02*
D03*
X988060D02*
D03*
X980440D02*
D03*
X1026160Y561340D02*
D03*
X1018540D02*
D03*
X1010920D02*
D03*
X1003300D02*
D03*
X995680D02*
D03*
X988060D02*
D03*
X980440D02*
D03*
X1026160Y1064260D02*
D03*
X1018540D02*
D03*
X1010920D02*
D03*
X1003300D02*
D03*
X995680D02*
D03*
X988060D02*
D03*
X980440D02*
D03*
X1026160Y1043940D02*
D03*
X1018540D02*
D03*
X1010920D02*
D03*
X1003300D02*
D03*
X995680D02*
D03*
X988060D02*
D03*
X980440D02*
D03*
X510540Y561340D02*
D03*
X518160D02*
D03*
X525780D02*
D03*
X533400D02*
D03*
X541020D02*
D03*
X548640D02*
D03*
X556260D02*
D03*
X510540Y581660D02*
D03*
X518160D02*
D03*
X525780D02*
D03*
X533400D02*
D03*
X541020D02*
D03*
X548640D02*
D03*
X556260D02*
D03*
X510540Y1043940D02*
D03*
X518160D02*
D03*
X525780D02*
D03*
X533400D02*
D03*
X541020D02*
D03*
X548640D02*
D03*
X556260D02*
D03*
X510540Y1064260D02*
D03*
X518160D02*
D03*
X525780D02*
D03*
X533400D02*
D03*
X541020D02*
D03*
X548640D02*
D03*
X556260D02*
D03*
X980440Y1526540D02*
D03*
X988060D02*
D03*
X995680D02*
D03*
X1003300D02*
D03*
X1010920D02*
D03*
X1018540D02*
D03*
X1026160D02*
D03*
X980440Y1546860D02*
D03*
X988060D02*
D03*
X995680D02*
D03*
X1003300D02*
D03*
X1010920D02*
D03*
X1018540D02*
D03*
X1026160D02*
D03*
X510540Y1526540D02*
D03*
X518160D02*
D03*
X525780D02*
D03*
X533400D02*
D03*
X541020D02*
D03*
X548640D02*
D03*
X556260D02*
D03*
X510540Y1546860D02*
D03*
X518160D02*
D03*
X525780D02*
D03*
X533400D02*
D03*
X541020D02*
D03*
X548640D02*
D03*
X556260D02*
D03*
X1026160Y99060D02*
D03*
X1018540D02*
D03*
X1010920D02*
D03*
X1003300D02*
D03*
X995680D02*
D03*
X988060D02*
D03*
X980440D02*
D03*
X556260D02*
D03*
X548640D02*
D03*
X541020D02*
D03*
X533400D02*
D03*
X525780D02*
D03*
X518160D02*
D03*
X510540D02*
D03*
X99060Y307340D02*
D03*
Y314960D02*
D03*
Y322580D02*
D03*
Y330200D02*
D03*
Y337820D02*
D03*
Y345440D02*
D03*
Y353060D02*
D03*
Y789940D02*
D03*
Y797560D02*
D03*
Y805180D02*
D03*
Y812800D02*
D03*
Y820420D02*
D03*
Y828040D02*
D03*
Y835660D02*
D03*
Y1272540D02*
D03*
Y1280160D02*
D03*
Y1287780D02*
D03*
Y1295400D02*
D03*
Y1303020D02*
D03*
Y1310640D02*
D03*
Y1318260D02*
D03*
Y1755140D02*
D03*
Y1762760D02*
D03*
Y1770380D02*
D03*
Y1778000D02*
D03*
Y1785620D02*
D03*
Y1793240D02*
D03*
Y1800860D02*
D03*
X993140Y2009140D02*
D03*
X1000760D02*
D03*
X1008380D02*
D03*
X1016000D02*
D03*
X1023620D02*
D03*
X1031240D02*
D03*
X1038860D02*
D03*
X568960D02*
D03*
X561340D02*
D03*
X553720D02*
D03*
X546100D02*
D03*
X538480D02*
D03*
X530860D02*
D03*
X523240D02*
D03*
D37*
X2463800Y2070100D02*
D03*
Y38100D02*
D03*
X38100D02*
D03*
Y2070100D02*
D03*
D38*
X1858050Y376700D02*
D03*
Y410700D02*
D03*
X1723350Y376700D02*
D03*
Y410700D02*
D03*
X1858050Y1011700D02*
D03*
Y1045700D02*
D03*
X1723350Y1011700D02*
D03*
Y1045700D02*
D03*
X1858050Y1265700D02*
D03*
Y1299700D02*
D03*
X1723350Y1265700D02*
D03*
Y1299700D02*
D03*
Y664700D02*
D03*
Y630700D02*
D03*
X1858050Y664700D02*
D03*
Y630700D02*
D03*
X1723350Y791700D02*
D03*
Y757700D02*
D03*
X1858050Y791700D02*
D03*
Y757700D02*
D03*
X1723350Y283700D02*
D03*
Y249700D02*
D03*
X1858050Y283700D02*
D03*
Y249700D02*
D03*
X1723350Y537700D02*
D03*
Y503700D02*
D03*
X1858050Y537700D02*
D03*
Y503700D02*
D03*
X1723350Y1172700D02*
D03*
Y1138700D02*
D03*
X1858050Y1172700D02*
D03*
Y1138700D02*
D03*
X1723350Y918700D02*
D03*
Y884700D02*
D03*
X1858050Y918700D02*
D03*
Y884700D02*
D03*
X2338110Y376700D02*
D03*
Y410700D02*
D03*
X2203410Y376700D02*
D03*
Y410700D02*
D03*
X2338110Y1011700D02*
D03*
Y1045700D02*
D03*
X2203410Y1011700D02*
D03*
Y1045700D02*
D03*
X2338110Y1265700D02*
D03*
Y1299700D02*
D03*
X2203410Y1265700D02*
D03*
Y1299700D02*
D03*
Y664700D02*
D03*
Y630700D02*
D03*
X2338110Y664700D02*
D03*
Y630700D02*
D03*
X2203410Y791700D02*
D03*
Y757700D02*
D03*
X2338110Y791700D02*
D03*
Y757700D02*
D03*
X2203410Y283700D02*
D03*
Y249700D02*
D03*
X2338110Y283700D02*
D03*
Y249700D02*
D03*
X2203410Y537700D02*
D03*
Y503700D02*
D03*
X2338110Y537700D02*
D03*
Y503700D02*
D03*
X2203410Y1172700D02*
D03*
Y1138700D02*
D03*
X2338110Y1172700D02*
D03*
Y1138700D02*
D03*
X2203410Y918700D02*
D03*
Y884700D02*
D03*
X2338110Y918700D02*
D03*
Y884700D02*
D03*
X1172700Y486450D02*
D03*
X1138700D02*
D03*
X1172700Y351750D02*
D03*
X1138700D02*
D03*
X537700Y486450D02*
D03*
X503700D02*
D03*
X537700Y351750D02*
D03*
X503700D02*
D03*
X283700Y486450D02*
D03*
X249700D02*
D03*
X283700Y351750D02*
D03*
X249700D02*
D03*
X884700D02*
D03*
X918700D02*
D03*
X884700Y486450D02*
D03*
X918700D02*
D03*
X757700Y351750D02*
D03*
X791700D02*
D03*
X757700Y486450D02*
D03*
X791700D02*
D03*
X1265700Y351750D02*
D03*
X1299700D02*
D03*
X1265700Y486450D02*
D03*
X1299700D02*
D03*
X1011700Y351750D02*
D03*
X1045700D02*
D03*
X1011700Y486450D02*
D03*
X1045700D02*
D03*
X376700Y351750D02*
D03*
X410700D02*
D03*
X376700Y486450D02*
D03*
X410700D02*
D03*
X630700Y351750D02*
D03*
X664700D02*
D03*
X630700Y486450D02*
D03*
X664700D02*
D03*
X1172700Y969050D02*
D03*
X1138700D02*
D03*
X1172700Y834350D02*
D03*
X1138700D02*
D03*
X537700Y969050D02*
D03*
X503700D02*
D03*
X537700Y834350D02*
D03*
X503700D02*
D03*
X283700Y969050D02*
D03*
X249700D02*
D03*
X283700Y834350D02*
D03*
X249700D02*
D03*
X884700D02*
D03*
X918700D02*
D03*
X884700Y969050D02*
D03*
X918700D02*
D03*
X757700Y834350D02*
D03*
X791700D02*
D03*
X757700Y969050D02*
D03*
X791700D02*
D03*
X1265700Y834350D02*
D03*
X1299700D02*
D03*
X1265700Y969050D02*
D03*
X1299700D02*
D03*
X1011700Y834350D02*
D03*
X1045700D02*
D03*
X1011700Y969050D02*
D03*
X1045700D02*
D03*
X376700Y834350D02*
D03*
X410700D02*
D03*
X376700Y969050D02*
D03*
X410700D02*
D03*
X630700Y834350D02*
D03*
X664700D02*
D03*
X630700Y969050D02*
D03*
X664700D02*
D03*
X1172700Y1451650D02*
D03*
X1138700D02*
D03*
X1172700Y1316950D02*
D03*
X1138700D02*
D03*
X537700Y1451650D02*
D03*
X503700D02*
D03*
X537700Y1316950D02*
D03*
X503700D02*
D03*
X283700Y1451650D02*
D03*
X249700D02*
D03*
X283700Y1316950D02*
D03*
X249700D02*
D03*
X884700D02*
D03*
X918700D02*
D03*
X884700Y1451650D02*
D03*
X918700D02*
D03*
X757700Y1316950D02*
D03*
X791700D02*
D03*
X757700Y1451650D02*
D03*
X791700D02*
D03*
X1265700Y1316950D02*
D03*
X1299700D02*
D03*
X1265700Y1451650D02*
D03*
X1299700D02*
D03*
X1011700Y1316950D02*
D03*
X1045700D02*
D03*
X1011700Y1451650D02*
D03*
X1045700D02*
D03*
X376700Y1316950D02*
D03*
X410700D02*
D03*
X376700Y1451650D02*
D03*
X410700D02*
D03*
X630700Y1316950D02*
D03*
X664700D02*
D03*
X630700Y1451650D02*
D03*
X664700D02*
D03*
X1172700Y1934250D02*
D03*
X1138700D02*
D03*
X1172700Y1799550D02*
D03*
X1138700D02*
D03*
X537700Y1934250D02*
D03*
X503700D02*
D03*
X537700Y1799550D02*
D03*
X503700D02*
D03*
X283700Y1934250D02*
D03*
X249700D02*
D03*
X283700Y1799550D02*
D03*
X249700D02*
D03*
X884700D02*
D03*
X918700D02*
D03*
X884700Y1934250D02*
D03*
X918700D02*
D03*
X757700Y1799550D02*
D03*
X791700D02*
D03*
X757700Y1934250D02*
D03*
X791700D02*
D03*
X1265700Y1799550D02*
D03*
X1299700D02*
D03*
X1265700Y1934250D02*
D03*
X1299700D02*
D03*
X1011700Y1799550D02*
D03*
X1045700D02*
D03*
X1011700Y1934250D02*
D03*
X1045700D02*
D03*
X376700Y1799550D02*
D03*
X410700D02*
D03*
X376700Y1934250D02*
D03*
X410700D02*
D03*
X630700Y1799550D02*
D03*
X664700D02*
D03*
X630700Y1934250D02*
D03*
X664700D02*
D03*
D39*
X1562500Y901700D02*
D03*
Y520700D02*
D03*
Y266700D02*
D03*
Y393700D02*
D03*
Y774700D02*
D03*
Y647700D02*
D03*
Y1028700D02*
D03*
Y1155700D02*
D03*
X2042560Y901700D02*
D03*
Y520700D02*
D03*
Y266700D02*
D03*
Y393700D02*
D03*
Y774700D02*
D03*
Y647700D02*
D03*
Y1028700D02*
D03*
Y1155700D02*
D03*
D40*
X1612500Y901700D02*
D03*
Y520700D02*
D03*
Y266700D02*
D03*
Y393700D02*
D03*
Y774700D02*
D03*
Y647700D02*
D03*
Y1028700D02*
D03*
Y1155700D02*
D03*
X2092560Y901700D02*
D03*
Y520700D02*
D03*
Y266700D02*
D03*
Y393700D02*
D03*
Y774700D02*
D03*
Y647700D02*
D03*
Y1028700D02*
D03*
Y1155700D02*
D03*
X647700Y240900D02*
D03*
X1028700D02*
D03*
X1282700D02*
D03*
X1155700D02*
D03*
X774700D02*
D03*
X901700D02*
D03*
X520700D02*
D03*
X393700D02*
D03*
X647700Y723500D02*
D03*
X1028700D02*
D03*
X1282700D02*
D03*
X1155700D02*
D03*
X774700D02*
D03*
X901700D02*
D03*
X520700D02*
D03*
X393700D02*
D03*
X647700Y1206100D02*
D03*
X1028700D02*
D03*
X1282700D02*
D03*
X1155700D02*
D03*
X774700D02*
D03*
X901700D02*
D03*
X520700D02*
D03*
X393700D02*
D03*
X647700Y1688700D02*
D03*
X1028700D02*
D03*
X1282700D02*
D03*
X1155700D02*
D03*
X774700D02*
D03*
X901700D02*
D03*
X520700D02*
D03*
X393700D02*
D03*
D41*
X1623500Y1282700D02*
D03*
X2103560D02*
D03*
X266700Y251900D02*
D03*
Y734500D02*
D03*
Y1217100D02*
D03*
Y1699700D02*
D03*
D42*
X1551500Y1282700D02*
D03*
X2031560D02*
D03*
D43*
X1524000Y1397000D02*
D03*
X1879600D02*
D03*
Y152400D02*
D03*
X1524000D02*
D03*
X2004060Y1397000D02*
D03*
X2359660D02*
D03*
Y152400D02*
D03*
X2004060D02*
D03*
X152400D02*
D03*
Y508000D02*
D03*
X1397000D02*
D03*
Y152400D02*
D03*
X152400Y635000D02*
D03*
Y990600D02*
D03*
X1397000D02*
D03*
Y635000D02*
D03*
X152400Y1117600D02*
D03*
Y1473200D02*
D03*
X1397000D02*
D03*
Y1117600D02*
D03*
X152400Y1600200D02*
D03*
Y1955800D02*
D03*
X1397000D02*
D03*
Y1600200D02*
D03*
D44*
X1907540Y190500D02*
D03*
Y317500D02*
D03*
Y444500D02*
D03*
Y571500D02*
D03*
Y698500D02*
D03*
Y825500D02*
D03*
Y952500D02*
D03*
Y1079500D02*
D03*
Y1206500D02*
D03*
X1887220Y1351280D02*
D03*
X2387600Y190500D02*
D03*
Y317500D02*
D03*
Y444500D02*
D03*
Y571500D02*
D03*
Y698500D02*
D03*
Y825500D02*
D03*
Y952500D02*
D03*
Y1079500D02*
D03*
Y1206500D02*
D03*
X2367280Y1351280D02*
D03*
X1358900Y535940D02*
D03*
X1231900D02*
D03*
X1104900D02*
D03*
X977900D02*
D03*
X850900D02*
D03*
X723900D02*
D03*
X596900D02*
D03*
X469900D02*
D03*
X342900D02*
D03*
X198120Y515620D02*
D03*
X1358900Y1018540D02*
D03*
X1231900D02*
D03*
X1104900D02*
D03*
X977900D02*
D03*
X850900D02*
D03*
X723900D02*
D03*
X596900D02*
D03*
X469900D02*
D03*
X342900D02*
D03*
X198120Y998220D02*
D03*
X1358900Y1501140D02*
D03*
X1231900D02*
D03*
X1104900D02*
D03*
X977900D02*
D03*
X850900D02*
D03*
X723900D02*
D03*
X596900D02*
D03*
X469900D02*
D03*
X342900D02*
D03*
X198120Y1480820D02*
D03*
X1358900Y1983740D02*
D03*
X1231900D02*
D03*
X1104900D02*
D03*
X977900D02*
D03*
X850900D02*
D03*
X723900D02*
D03*
X596900D02*
D03*
X469900D02*
D03*
X342900D02*
D03*
X198120Y1963420D02*
D03*
D45*
X647700Y190900D02*
D03*
X1028700D02*
D03*
X1282700D02*
D03*
X1155700D02*
D03*
X774700D02*
D03*
X901700D02*
D03*
X520700D02*
D03*
X393700D02*
D03*
X647700Y673500D02*
D03*
X1028700D02*
D03*
X1282700D02*
D03*
X1155700D02*
D03*
X774700D02*
D03*
X901700D02*
D03*
X520700D02*
D03*
X393700D02*
D03*
X647700Y1156100D02*
D03*
X1028700D02*
D03*
X1282700D02*
D03*
X1155700D02*
D03*
X774700D02*
D03*
X901700D02*
D03*
X520700D02*
D03*
X393700D02*
D03*
X647700Y1638700D02*
D03*
X1028700D02*
D03*
X1282700D02*
D03*
X1155700D02*
D03*
X774700D02*
D03*
X901700D02*
D03*
X520700D02*
D03*
X393700D02*
D03*
D46*
X266700Y179900D02*
D03*
Y662500D02*
D03*
Y1145100D02*
D03*
Y1627700D02*
D03*
M02*
