G04*
G04 #@! TF.GenerationSoftware,Altium Limited,Altium Designer,21.8.1 (53)*
G04*
G04 Layer_Color=255*
%FSLAX44Y44*%
%MOMM*%
G71*
G04*
G04 #@! TF.SameCoordinates,54C0CB10-D324-4126-BD5B-6722362DD903*
G04*
G04*
G04 #@! TF.FilePolarity,Positive*
G04*
G01*
G75*
%ADD16C,2.4000*%
%ADD17R,3.1750X3.1750*%
%ADD18C,3.1750*%
%ADD19C,5.4610*%
%ADD20R,5.4610X5.4610*%
%ADD21C,6.0000*%
D16*
X1172700Y486450D02*
D03*
X1138700D02*
D03*
X1172700Y351750D02*
D03*
X1138700D02*
D03*
X537700Y486450D02*
D03*
X503700D02*
D03*
X537700Y351750D02*
D03*
X503700D02*
D03*
X283700Y486450D02*
D03*
X249700D02*
D03*
X283700Y351750D02*
D03*
X249700D02*
D03*
X884700D02*
D03*
X918700D02*
D03*
X884700Y486450D02*
D03*
X918700D02*
D03*
X757700Y351750D02*
D03*
X791700D02*
D03*
X757700Y486450D02*
D03*
X791700D02*
D03*
X1265700Y351750D02*
D03*
X1299700D02*
D03*
X1265700Y486450D02*
D03*
X1299700D02*
D03*
X1011700Y351750D02*
D03*
X1045700D02*
D03*
X1011700Y486450D02*
D03*
X1045700D02*
D03*
X376700Y351750D02*
D03*
X410700D02*
D03*
X376700Y486450D02*
D03*
X410700D02*
D03*
X630700Y351750D02*
D03*
X664700D02*
D03*
X630700Y486450D02*
D03*
X664700D02*
D03*
X2544300D02*
D03*
X2510300D02*
D03*
X2544300Y351750D02*
D03*
X2510300D02*
D03*
X1909300Y486450D02*
D03*
X1875300D02*
D03*
X1909300Y351750D02*
D03*
X1875300D02*
D03*
X1655300Y486450D02*
D03*
X1621300D02*
D03*
X1655300Y351750D02*
D03*
X1621300D02*
D03*
X2256300D02*
D03*
X2290300D02*
D03*
X2256300Y486450D02*
D03*
X2290300D02*
D03*
X2129300Y351750D02*
D03*
X2163300D02*
D03*
X2129300Y486450D02*
D03*
X2163300D02*
D03*
X2637300Y351750D02*
D03*
X2671300D02*
D03*
X2637300Y486450D02*
D03*
X2671300D02*
D03*
X2383300Y351750D02*
D03*
X2417300D02*
D03*
X2383300Y486450D02*
D03*
X2417300D02*
D03*
X1748300Y351750D02*
D03*
X1782300D02*
D03*
X1748300Y486450D02*
D03*
X1782300D02*
D03*
X2002300Y351750D02*
D03*
X2036300D02*
D03*
X2002300Y486450D02*
D03*
X2036300D02*
D03*
X1172700Y969050D02*
D03*
X1138700D02*
D03*
X1172700Y834350D02*
D03*
X1138700D02*
D03*
X537700Y969050D02*
D03*
X503700D02*
D03*
X537700Y834350D02*
D03*
X503700D02*
D03*
X283700Y969050D02*
D03*
X249700D02*
D03*
X283700Y834350D02*
D03*
X249700D02*
D03*
X884700D02*
D03*
X918700D02*
D03*
X884700Y969050D02*
D03*
X918700D02*
D03*
X757700Y834350D02*
D03*
X791700D02*
D03*
X757700Y969050D02*
D03*
X791700D02*
D03*
X1265700Y834350D02*
D03*
X1299700D02*
D03*
X1265700Y969050D02*
D03*
X1299700D02*
D03*
X1011700Y834350D02*
D03*
X1045700D02*
D03*
X1011700Y969050D02*
D03*
X1045700D02*
D03*
X376700Y834350D02*
D03*
X410700D02*
D03*
X376700Y969050D02*
D03*
X410700D02*
D03*
X630700Y834350D02*
D03*
X664700D02*
D03*
X630700Y969050D02*
D03*
X664700D02*
D03*
X2544300D02*
D03*
X2510300D02*
D03*
X2544300Y834350D02*
D03*
X2510300D02*
D03*
X1909300Y969050D02*
D03*
X1875300D02*
D03*
X1909300Y834350D02*
D03*
X1875300D02*
D03*
X1655300Y969050D02*
D03*
X1621300D02*
D03*
X1655300Y834350D02*
D03*
X1621300D02*
D03*
X2256300D02*
D03*
X2290300D02*
D03*
X2256300Y969050D02*
D03*
X2290300D02*
D03*
X2129300Y834350D02*
D03*
X2163300D02*
D03*
X2129300Y969050D02*
D03*
X2163300D02*
D03*
X2637300Y834350D02*
D03*
X2671300D02*
D03*
X2637300Y969050D02*
D03*
X2671300D02*
D03*
X2383300Y834350D02*
D03*
X2417300D02*
D03*
X2383300Y969050D02*
D03*
X2417300D02*
D03*
X1748300Y834350D02*
D03*
X1782300D02*
D03*
X1748300Y969050D02*
D03*
X1782300D02*
D03*
X2002300Y834350D02*
D03*
X2036300D02*
D03*
X2002300Y969050D02*
D03*
X2036300D02*
D03*
X1172700Y1451650D02*
D03*
X1138700D02*
D03*
X1172700Y1316950D02*
D03*
X1138700D02*
D03*
X537700Y1451650D02*
D03*
X503700D02*
D03*
X537700Y1316950D02*
D03*
X503700D02*
D03*
X283700Y1451650D02*
D03*
X249700D02*
D03*
X283700Y1316950D02*
D03*
X249700D02*
D03*
X884700D02*
D03*
X918700D02*
D03*
X884700Y1451650D02*
D03*
X918700D02*
D03*
X757700Y1316950D02*
D03*
X791700D02*
D03*
X757700Y1451650D02*
D03*
X791700D02*
D03*
X1265700Y1316950D02*
D03*
X1299700D02*
D03*
X1265700Y1451650D02*
D03*
X1299700D02*
D03*
X1011700Y1316950D02*
D03*
X1045700D02*
D03*
X1011700Y1451650D02*
D03*
X1045700D02*
D03*
X376700Y1316950D02*
D03*
X410700D02*
D03*
X376700Y1451650D02*
D03*
X410700D02*
D03*
X630700Y1316950D02*
D03*
X664700D02*
D03*
X630700Y1451650D02*
D03*
X664700D02*
D03*
X2544300D02*
D03*
X2510300D02*
D03*
X2544300Y1316950D02*
D03*
X2510300D02*
D03*
X1909300Y1451650D02*
D03*
X1875300D02*
D03*
X1909300Y1316950D02*
D03*
X1875300D02*
D03*
X1655300Y1451650D02*
D03*
X1621300D02*
D03*
X1655300Y1316950D02*
D03*
X1621300D02*
D03*
X2256300D02*
D03*
X2290300D02*
D03*
X2256300Y1451650D02*
D03*
X2290300D02*
D03*
X2129300Y1316950D02*
D03*
X2163300D02*
D03*
X2129300Y1451650D02*
D03*
X2163300D02*
D03*
X2637300Y1316950D02*
D03*
X2671300D02*
D03*
X2637300Y1451650D02*
D03*
X2671300D02*
D03*
X2383300Y1316950D02*
D03*
X2417300D02*
D03*
X2383300Y1451650D02*
D03*
X2417300D02*
D03*
X1748300Y1316950D02*
D03*
X1782300D02*
D03*
X1748300Y1451650D02*
D03*
X1782300D02*
D03*
X2002300Y1316950D02*
D03*
X2036300D02*
D03*
X2002300Y1451650D02*
D03*
X2036300D02*
D03*
X1172700Y1934250D02*
D03*
X1138700D02*
D03*
X1172700Y1799550D02*
D03*
X1138700D02*
D03*
X537700Y1934250D02*
D03*
X503700D02*
D03*
X537700Y1799550D02*
D03*
X503700D02*
D03*
X283700Y1934250D02*
D03*
X249700D02*
D03*
X283700Y1799550D02*
D03*
X249700D02*
D03*
X884700D02*
D03*
X918700D02*
D03*
X884700Y1934250D02*
D03*
X918700D02*
D03*
X757700Y1799550D02*
D03*
X791700D02*
D03*
X757700Y1934250D02*
D03*
X791700D02*
D03*
X1265700Y1799550D02*
D03*
X1299700D02*
D03*
X1265700Y1934250D02*
D03*
X1299700D02*
D03*
X1011700Y1799550D02*
D03*
X1045700D02*
D03*
X1011700Y1934250D02*
D03*
X1045700D02*
D03*
X376700Y1799550D02*
D03*
X410700D02*
D03*
X376700Y1934250D02*
D03*
X410700D02*
D03*
X630700Y1799550D02*
D03*
X664700D02*
D03*
X630700Y1934250D02*
D03*
X664700D02*
D03*
X2544300D02*
D03*
X2510300D02*
D03*
X2544300Y1799550D02*
D03*
X2510300D02*
D03*
X1909300Y1934250D02*
D03*
X1875300D02*
D03*
X1909300Y1799550D02*
D03*
X1875300D02*
D03*
X1655300Y1934250D02*
D03*
X1621300D02*
D03*
X1655300Y1799550D02*
D03*
X1621300D02*
D03*
X2256300D02*
D03*
X2290300D02*
D03*
X2256300Y1934250D02*
D03*
X2290300D02*
D03*
X2129300Y1799550D02*
D03*
X2163300D02*
D03*
X2129300Y1934250D02*
D03*
X2163300D02*
D03*
X2637300Y1799550D02*
D03*
X2671300D02*
D03*
X2637300Y1934250D02*
D03*
X2671300D02*
D03*
X2383300Y1799550D02*
D03*
X2417300D02*
D03*
X2383300Y1934250D02*
D03*
X2417300D02*
D03*
X1748300Y1799550D02*
D03*
X1782300D02*
D03*
X1748300Y1934250D02*
D03*
X1782300D02*
D03*
X2002300Y1799550D02*
D03*
X2036300D02*
D03*
X2002300Y1934250D02*
D03*
X2036300D02*
D03*
D17*
X647700Y190900D02*
D03*
X1028700D02*
D03*
X1282700D02*
D03*
X1155700D02*
D03*
X774700D02*
D03*
X901700D02*
D03*
X520700D02*
D03*
X393700D02*
D03*
X2019300D02*
D03*
X2400300D02*
D03*
X2654300D02*
D03*
X2527300D02*
D03*
X2146300D02*
D03*
X2273300D02*
D03*
X1892300D02*
D03*
X1765300D02*
D03*
X647700Y673500D02*
D03*
X1028700D02*
D03*
X1282700D02*
D03*
X1155700D02*
D03*
X774700D02*
D03*
X901700D02*
D03*
X520700D02*
D03*
X393700D02*
D03*
X2019300D02*
D03*
X2400300D02*
D03*
X2654300D02*
D03*
X2527300D02*
D03*
X2146300D02*
D03*
X2273300D02*
D03*
X1892300D02*
D03*
X1765300D02*
D03*
X647700Y1156100D02*
D03*
X1028700D02*
D03*
X1282700D02*
D03*
X1155700D02*
D03*
X774700D02*
D03*
X901700D02*
D03*
X520700D02*
D03*
X393700D02*
D03*
X2019300D02*
D03*
X2400300D02*
D03*
X2654300D02*
D03*
X2527300D02*
D03*
X2146300D02*
D03*
X2273300D02*
D03*
X1892300D02*
D03*
X1765300D02*
D03*
X647700Y1638700D02*
D03*
X1028700D02*
D03*
X1282700D02*
D03*
X1155700D02*
D03*
X774700D02*
D03*
X901700D02*
D03*
X520700D02*
D03*
X393700D02*
D03*
X2019300D02*
D03*
X2400300D02*
D03*
X2654300D02*
D03*
X2527300D02*
D03*
X2146300D02*
D03*
X2273300D02*
D03*
X1892300D02*
D03*
X1765300D02*
D03*
D18*
X647700Y240900D02*
D03*
X1028700D02*
D03*
X1282700D02*
D03*
X1155700D02*
D03*
X774700D02*
D03*
X901700D02*
D03*
X520700D02*
D03*
X393700D02*
D03*
X2019300D02*
D03*
X2400300D02*
D03*
X2654300D02*
D03*
X2527300D02*
D03*
X2146300D02*
D03*
X2273300D02*
D03*
X1892300D02*
D03*
X1765300D02*
D03*
X647700Y723500D02*
D03*
X1028700D02*
D03*
X1282700D02*
D03*
X1155700D02*
D03*
X774700D02*
D03*
X901700D02*
D03*
X520700D02*
D03*
X393700D02*
D03*
X2019300D02*
D03*
X2400300D02*
D03*
X2654300D02*
D03*
X2527300D02*
D03*
X2146300D02*
D03*
X2273300D02*
D03*
X1892300D02*
D03*
X1765300D02*
D03*
X647700Y1206100D02*
D03*
X1028700D02*
D03*
X1282700D02*
D03*
X1155700D02*
D03*
X774700D02*
D03*
X901700D02*
D03*
X520700D02*
D03*
X393700D02*
D03*
X2019300D02*
D03*
X2400300D02*
D03*
X2654300D02*
D03*
X2527300D02*
D03*
X2146300D02*
D03*
X2273300D02*
D03*
X1892300D02*
D03*
X1765300D02*
D03*
X647700Y1688700D02*
D03*
X1028700D02*
D03*
X1282700D02*
D03*
X1155700D02*
D03*
X774700D02*
D03*
X901700D02*
D03*
X520700D02*
D03*
X393700D02*
D03*
X2019300D02*
D03*
X2400300D02*
D03*
X2654300D02*
D03*
X2527300D02*
D03*
X2146300D02*
D03*
X2273300D02*
D03*
X1892300D02*
D03*
X1765300D02*
D03*
D19*
X266700Y251900D02*
D03*
X1638300D02*
D03*
X266700Y734500D02*
D03*
X1638300D02*
D03*
X266700Y1217100D02*
D03*
X1638300D02*
D03*
X266700Y1699700D02*
D03*
X1638300D02*
D03*
D20*
X266700Y179900D02*
D03*
X1638300D02*
D03*
X266700Y662500D02*
D03*
X1638300D02*
D03*
X266700Y1145100D02*
D03*
X1638300D02*
D03*
X266700Y1627700D02*
D03*
X1638300D02*
D03*
D21*
X152400Y152400D02*
D03*
Y508000D02*
D03*
X1397000D02*
D03*
Y152400D02*
D03*
X1524000D02*
D03*
Y508000D02*
D03*
X2768600D02*
D03*
Y152400D02*
D03*
X152400Y635000D02*
D03*
Y990600D02*
D03*
X1397000D02*
D03*
Y635000D02*
D03*
X1524000D02*
D03*
Y990600D02*
D03*
X2768600D02*
D03*
Y635000D02*
D03*
X152400Y1117600D02*
D03*
Y1473200D02*
D03*
X1397000D02*
D03*
Y1117600D02*
D03*
X1524000D02*
D03*
Y1473200D02*
D03*
X2768600D02*
D03*
Y1117600D02*
D03*
X152400Y1600200D02*
D03*
Y1955800D02*
D03*
X1397000D02*
D03*
Y1600200D02*
D03*
X1524000D02*
D03*
Y1955800D02*
D03*
X2768600D02*
D03*
Y1600200D02*
D03*
M02*
