M48
;Layer_Color=9474304
;FILE_FORMAT=4:4
METRIC,LZ
;TYPE=PLATED
T1F00S00C0.5080
T2F00S00C0.7112
T3F00S00C1.6000
T4F00S00C2.5400
T5F00S00C3.0000
T6F00S00C4.0000
T7F00S00C4.4450
%
T01
X0009906Y0001524
Y0002286
Y0003048
Y000381
Y0004572
Y0005334
Y0006096
X0006096Y0009906
X0005334
X0004572
X000381
X0003048
X0002286
X0001524
X0051054
X0051816
X0052578
X005334
X0054102
X0054864
X0055626
X0098044
X0098806
X0099568
X010033
X0101092
X0101854
X0102616
X0145034Y0006096
Y0005334
Y0004572
Y000381
Y0003048
Y0002286
Y0001524
X0147066
Y0002286
Y0003048
Y000381
Y0004572
Y0005334
Y0006096
X0188214Y0009906
X0188976
X0189738
X01905
X0191262
X0192024
X0192786
X0235204
X0235966
X0236728
X023749
X0238252
X0239014
X0239776
X0286004
X0286766
X0287528
X028829
X0289052
X0289814
X0290576
Y0007874
X0289814
X0289052
X028829
X0287528
X0286766
X0286004
X0284226Y0006096
Y0005334
Y0004572
Y000381
Y0003048
Y0002286
Y0001524
X0282194
Y0002286
Y0003048
Y000381
Y0004572
Y0005334
Y0006096
Y0030734
Y0031496
Y0032258
Y003302
Y0033782
Y0034544
Y0035306
X0147066
Y0034544
Y0033782
Y003302
Y0032258
Y0031496
Y0030734
X0145034
Y0031496
Y0032258
Y003302
Y0033782
Y0034544
Y0035306
X0009906
Y0034544
Y0033782
Y003302
Y0032258
Y0031496
Y0030734
X0006096Y0056134
X0005334
X0004572
X000381
X0003048
X0002286
X0001524
Y0058166
X0002286
X0003048
X000381
X0004572
X0005334
X0006096
X0009906Y0078994
Y0079756
Y0080518
Y008128
Y0082042
Y0082804
Y0083566
X0051054Y0058166
X0051816
X0052578
X005334
Y0056134
X0052578
X0051816
X0051054
X0054102
X0054864
X0055626
Y0058166
X0054864
X0054102
X0098044
X0098806
X0099568
X010033
X0101092
X0101854
X0102616
Y0056134
X0101854
X0101092
X010033
X0099568
X0098806
X0098044
X0145034Y0078994
Y0079756
Y0080518
Y008128
Y0082042
Y0082804
Y0083566
X0147066
Y0082804
Y0082042
Y008128
Y0080518
Y0079756
Y0078994
X0188214Y0058166
X0188976
X0189738
X01905
X0191262
X0192024
X0192786
Y0056134
X0192024
X0191262
X01905
X0189738
X0188976
X0188214
X0235204
X0235966
X0236728
X023749
X0238252
X0239014
X0239776
Y0058166
X0239014
X0238252
X023749
X0236728
X0235966
X0235204
X0286004
X0286766
X0287528
X028829
X0289052
X0289814
X0290576
Y0056134
X0289814
X0289052
X028829
X0287528
X0286766
X0286004
X0282194Y0078994
Y0079756
Y0080518
Y008128
Y0082042
Y0082804
Y0083566
X0286004Y0104394
X0286766
X0287528
X028829
X0289052
X0289814
X0290576
Y0106426
X0289814
X0289052
X028829
X0287528
X0286766
X0286004
X0282194Y0127254
Y0128016
Y0128778
Y012954
Y0130302
Y0131064
Y0131826
X0239776Y0106426
X0239014
X0238252
X023749
X0236728
X0235966
X0235204
Y0104394
X0235966
X0236728
X023749
X0238252
X0239014
X0239776
X0192786
X0192024
X0191262
X01905
X0189738
X0188976
X0188214
Y0106426
X0188976
X0189738
X01905
X0191262
X0192024
X0192786
X0147066Y0127508
Y012827
Y0129032
Y0129794
Y0130556
Y0131318
Y013208
X0145034
Y0131318
Y0130556
Y0129794
Y0129032
Y012827
Y0127508
X0102616Y0106426
X0101854
X0101092
X010033
X0099568
X0098806
X0098044
Y0104394
X0098806
X0099568
X010033
X0101092
X0101854
X0102616
X0055626
X0054864
X0054102
Y0106426
X0054864
X0055626
X005334
X0052578
X0051816
X0051054
Y0104394
X0051816
X0052578
X005334
X0006096
X0005334
X0004572
X000381
X0003048
X0002286
X0001524
Y0106426
X0002286
X0003048
X000381
X0004572
X0005334
X0006096
X0009906Y0127254
Y0128016
Y0128778
Y012954
Y0130302
Y0131064
Y0131826
X0006096Y0152654
X0005334
X0004572
X000381
X0003048
X0002286
X0001524
Y0154686
X0002286
X0003048
X000381
X0004572
X0005334
X0006096
X0051054
X0051816
X0052578
X005334
Y0152654
X0052578
X0051816
X0051054
X0054102
X0054864
X0055626
Y0154686
X0054864
X0054102
X0098044
X0098806
X0099568
X010033
X0101092
X0101854
X0102616
Y0152654
X0101854
X0101092
X010033
X0099568
X0098806
X0098044
X0188214
X0188976
X0189738
X01905
X0191262
X0192024
X0192786
Y0154686
X0192024
X0191262
X01905
X0189738
X0188976
X0188214
X0235204
X0235966
X0236728
X023749
X0238252
X0239014
X0239776
Y0152654
X0239014
X0238252
X023749
X0236728
X0235966
X0235204
X0286004
X0286766
X0287528
X028829
X0289052
X0289814
X0290576
Y0154686
X0289814
X0289052
X028829
X0287528
X0286766
X0286004
X0282194Y0175514
Y0176276
Y0177038
Y01778
Y0178562
Y0179324
Y0180086
Y0204724
Y0205486
Y0206248
Y020701
Y0207772
Y0208534
Y0209296
X0286004Y0200914
X0286766
X0287528
X028829
X0289052
X0289814
X0290576
X0241046
X0240284
X0239522
X023876
X0237998
X0237236
X0236474
X0194056
X0193294
X0192532
X019177
X0191008
X0190246
X0189484
X0147066Y0204724
Y0205486
Y0206248
Y020701
Y0207772
Y0208534
Y0209296
X0145034
Y0208534
Y0207772
Y020701
Y0206248
Y0205486
Y0204724
Y0180086
Y0179324
Y0178562
Y01778
Y0177038
Y0176276
Y0175514
X0147066
Y0176276
Y0177038
Y01778
Y0178562
Y0179324
Y0180086
X0103886Y0200914
X0103124
X0102362
X01016
X0100838
X0100076
X0099314
X0056896
X0056134
X0055372
X005461
X0053848
X0053086
X0052324
X0006096
X0005334
X0004572
X000381
X0003048
X0002286
X0001524
X0009906Y0204724
Y0205486
Y0206248
Y020701
Y0207772
Y0208534
Y0209296
Y0180086
Y0179324
Y0178562
Y01778
Y0177038
Y0176276
Y0175514
T02
X026035Y0053594
X027305
X024765
X023495
X022225
X020955
X019685
X018415
X017145
X0156972Y0051562
X013589Y0053594
X012319
X011049
X009779
X008509
X007239
X005969
X004699
X003429
X0019812Y0051562
X026035Y0101854
X027305
X024765
X023495
X022225
X020955
X019685
X018415
X017145
X0156972Y0099822
X013589Y0101854
X012319
X011049
X009779
X008509
X007239
X005969
X004699
X003429
X0019812Y0099822
Y0148082
X003429Y0150114
X004699
X005969
X007239
X008509
X009779
X011049
X012319
X013589
X0156972Y0148082
X017145Y0150114
X018415
X019685
X020955
X022225
X023495
X024765
X026035
X027305
Y0198374
X026035
X024765
X023495
X022225
X020955
X019685
X018415
X017145
X0156972Y0196342
X013589Y0198374
X012319
X011049
X009779
X008509
X007239
X005969
X004699
X003429
X0019812Y0196342
T03
X025443Y0035175
X026373
X026713
Y0048645
X026373
X025443
X025103
X024173
X023833
X022903
X022563
X021633
X021293
Y0035175
X021633
X022563
X022903
X023833
X024173
X025103
X020363
X020023
X019093
X018753
X017823
X017483
Y0048645
X017823
X018753
X019093
X020023
X020363
X016553
X016213
Y0035175
X016553
X012997
X012657
X011727
X011387
X010457
X010117
Y0048645
X010457
X011387
X011727
X012657
X012997
X009187
X008847
X007917
X007577
X006647
X006307
Y0035175
X006647
X007577
X007917
X008847
X009187
X005377
X005037
X004107
X003767
X002837
X002497
Y0048645
X002837
X003767
X004107
X005037
X005377
Y0083435
X005037
X004107
X003767
X002837
X002497
X006307
X006647
X007577
X007917
X008847
X009187
X010117
X010457
X011387
X011727
X012657
X012997
X016213
X016553
X017483
X017823
X018753
X019093
X020023
X020363
X021293
X021633
X022563
X022903
X023833
X024173
X025103
X025443
X026373
X026713
Y0096905
X026373
X025443
Y0131695
X026373
X026713
X025103
X024173
X023833
X022903
X022563
X021633
X021293
Y0096905
X021633
X022563
X022903
X023833
X024173
X025103
X020363
X020023
X019093
X018753
X017823
X017483
Y0131695
X017823
X018753
X019093
X020023
X020363
X016553
X016213
Y0096905
X016553
X012997
X012657
X011727
X011387
X010457
X010117
Y0131695
X010457
X011387
X011727
X012657
X012997
X009187
X008847
X007917
X007577
X006647
X006307
Y0096905
X006647
X007577
X007917
X008847
X009187
X005377
X005037
X004107
X003767
X002837
X002497
Y0131695
X002837
X003767
X004107
X005037
X005377
Y0145165
X005037
X004107
X003767
X002837
X002497
X006307
X006647
X007577
X007917
X008847
X009187
X010117
X010457
X011387
X011727
X012657
X012997
X016213
X016553
X017483
X017823
X018753
X019093
X020023
X020363
X021293
X021633
X022563
X022903
X023833
X024173
X025103
X025443
X026373
X026713
Y0179955
X026373
X025443
Y0193425
X026373
X026713
X025103
X024173
X023833
X022903
X022563
X021633
X021293
Y0179955
X021633
X022563
X022903
X023833
X024173
X025103
X020363
X020023
X019093
X018753
X017823
X017483
Y0193425
X017823
X018753
X019093
X020023
X020363
X016553
X016213
Y0179955
X016553
X012997
X012657
X011727
X011387
X010457
X010117
Y0193425
X010457
X011387
X011727
X012657
X012997
X009187
X008847
X007917
X007577
X006647
X006307
Y0179955
X006647
X007577
X007917
X008847
X009187
X005377
X005037
X004107
X003767
X002837
X002497
Y0193425
X002837
X003767
X004107
X005037
X005377
T04
X025273Y001909
Y002409
X026543
Y001909
X024003
Y002409
X022733
Y001909
X021463
Y002409
X020193
Y001909
X018923
Y002409
X017653
Y001909
X012827
Y002409
X011557
Y001909
X010287
Y002409
X009017
Y001909
X007747
Y002409
X006477
Y001909
X005207
Y002409
X003937
Y001909
Y006735
Y007235
X005207
Y006735
X006477
Y007235
X007747
Y006735
X009017
Y007235
X010287
Y006735
X011557
Y007235
X012827
Y006735
X017653
Y007235
X018923
Y006735
X020193
Y007235
X021463
Y006735
X022733
Y007235
X024003
Y006735
X025273
Y007235
X026543
Y006735
Y011561
Y012061
X025273
Y011561
X024003
Y012061
X022733
Y011561
X021463
Y012061
X020193
Y011561
X018923
Y012061
X017653
Y011561
X012827
Y012061
X011557
Y011561
X010287
Y012061
X009017
Y011561
X007747
Y012061
X006477
Y011561
X005207
Y012061
X003937
Y011561
Y016387
Y016887
X005207
Y016387
X006477
Y016887
X007747
Y016387
X009017
Y016887
X010287
Y016387
X011557
Y016887
X012827
Y016387
X017653
Y016887
X018923
Y016387
X020193
Y016887
X021463
Y016387
X022733
Y016887
X024003
Y016387
X025273
Y016887
X026543
Y016387
T05
X000381Y000381
X028829
Y020701
X000381
T06
X027686Y001524
Y00508
X01524
X01397
Y001524
X01524
X001524
Y00508
Y00635
X01397
X01524
X027686
Y009906
Y011176
X01524
Y009906
X01397
Y011176
X001524
Y009906
Y014732
Y016002
X01397
Y014732
X01524
Y016002
X027686
Y014732
Y019558
X01524
X01397
X001524
T07
X016383Y001799
Y002519
X002667
Y001799
Y006625
Y007345
X016383
Y006625
Y011451
Y012171
X002667
Y011451
Y016277
Y016997
X016383
Y016277
M30
