G04*
G04 #@! TF.GenerationSoftware,Altium Limited,Altium Designer,21.8.1 (53)*
G04*
G04 Layer_Color=16711935*
%FSLAX44Y44*%
%MOMM*%
G71*
G04*
G04 #@! TF.SameCoordinates,54C0CB10-D324-4126-BD5B-6722362DD903*
G04*
G04*
G04 #@! TF.FilePolarity,Positive*
G04*
G01*
G75*
%ADD12C,0.2540*%
D12*
X2819400Y850900D02*
G03*
X2844800Y850900I12700J0D01*
G01*
X2921000Y584200D02*
G03*
X2921000Y558800I0J-12700D01*
G01*
X2844800D02*
G03*
X2844800Y584200I0J12700D01*
G01*
X2921000Y1066800D02*
G03*
X2921000Y1041400I0J-12700D01*
G01*
X2844800D02*
G03*
X2844800Y1066800I0J12700D01*
G01*
X2921000Y1549400D02*
G03*
X2921000Y1524000I0J-12700D01*
G01*
X2844800D02*
G03*
X2844800Y1549400I0J12700D01*
G01*
X0Y558800D02*
G03*
X0Y584200I0J12700D01*
G01*
X76200D02*
G03*
X76200Y558800I0J-12700D01*
G01*
Y1549400D02*
G03*
X76200Y1524000I0J-12700D01*
G01*
Y1066800D02*
G03*
X76200Y1041400I0J-12700D01*
G01*
X0D02*
G03*
X0Y1066800I0J12700D01*
G01*
Y1524000D02*
G03*
X0Y1549400I0J12700D01*
G01*
X2921000Y101600D02*
G03*
X2921000Y76200I0J-12700D01*
G01*
X2844800D02*
G03*
X2844800Y101600I0J12700D01*
G01*
X2921000Y2032000D02*
G03*
X2921000Y2006600I0J-12700D01*
G01*
X2844800D02*
G03*
X2844800Y2032000I0J12700D01*
G01*
X0Y2006600D02*
G03*
X0Y2032000I0J12700D01*
G01*
X76200D02*
G03*
X76200Y2006600I0J-12700D01*
G01*
Y101600D02*
G03*
X76200Y76200I0J-12700D01*
G01*
X0D02*
G03*
X0Y101600I0J12700D01*
G01*
X1866900Y558800D02*
G03*
X1866900Y584200I0J12700D01*
G01*
X1943100D02*
G03*
X1943100Y558800I0J-12700D01*
G01*
X2336800D02*
G03*
X2336800Y584200I0J12700D01*
G01*
X2413000D02*
G03*
X2413000Y558800I0J-12700D01*
G01*
X1866900Y1041400D02*
G03*
X1866900Y1066800I0J12700D01*
G01*
X1943100D02*
G03*
X1943100Y1041400I0J-12700D01*
G01*
X2336800D02*
G03*
X2336800Y1066800I0J12700D01*
G01*
X2413000D02*
G03*
X2413000Y1041400I0J-12700D01*
G01*
X1866900Y1524000D02*
G03*
X1866900Y1549400I0J12700D01*
G01*
X1943100D02*
G03*
X1943100Y1524000I0J-12700D01*
G01*
X2336800D02*
G03*
X2336800Y1549400I0J12700D01*
G01*
X2413000D02*
G03*
X2413000Y1524000I0J-12700D01*
G01*
X495300D02*
G03*
X495300Y1549400I0J12700D01*
G01*
X571500D02*
G03*
X571500Y1524000I0J-12700D01*
G01*
X965200D02*
G03*
X965200Y1549400I0J12700D01*
G01*
X1041400D02*
G03*
X1041400Y1524000I0J-12700D01*
G01*
X495300Y1041400D02*
G03*
X495300Y1066800I0J12700D01*
G01*
X571500D02*
G03*
X571500Y1041400I0J-12700D01*
G01*
X965200D02*
G03*
X965200Y1066800I0J12700D01*
G01*
X1041400D02*
G03*
X1041400Y1041400I0J-12700D01*
G01*
X495300Y558800D02*
G03*
X495300Y584200I0J12700D01*
G01*
X571500D02*
G03*
X571500Y558800I0J-12700D01*
G01*
X965200D02*
G03*
X965200Y584200I0J12700D01*
G01*
X1041400D02*
G03*
X1041400Y558800I0J-12700D01*
G01*
X2819400Y2108200D02*
G03*
X2844800Y2108200I12700J0D01*
G01*
Y2032000D02*
G03*
X2819400Y2032000I-12700J0D01*
G01*
X2425700D02*
G03*
X2425700Y2006600I0J-12700D01*
G01*
X2349500D02*
G03*
X2349500Y2032000I0J12700D01*
G01*
X1955800D02*
G03*
X1955800Y2006600I0J-12700D01*
G01*
X1879600D02*
G03*
X1879600Y2032000I0J12700D01*
G01*
X1473200Y1739900D02*
G03*
X1447800Y1739900I-12700J0D01*
G01*
Y1816100D02*
G03*
X1473200Y1816100I12700J0D01*
G01*
X1447800Y2108200D02*
G03*
X1473200Y2108200I12700J0D01*
G01*
Y2032000D02*
G03*
X1447800Y2032000I-12700J0D01*
G01*
X1054100D02*
G03*
X1054100Y2006600I0J-12700D01*
G01*
X977900D02*
G03*
X977900Y2032000I0J12700D01*
G01*
X584200D02*
G03*
X584200Y2006600I0J-12700D01*
G01*
X508000D02*
G03*
X508000Y2032000I0J12700D01*
G01*
X101600Y1739900D02*
G03*
X76200Y1739900I-12700J0D01*
G01*
Y1816100D02*
G03*
X101600Y1816100I12700J0D01*
G01*
X76200Y2108200D02*
G03*
X101600Y2108200I12700J0D01*
G01*
Y2032000D02*
G03*
X76200Y2032000I-12700J0D01*
G01*
X1866900Y76200D02*
G03*
X1866900Y101600I0J12700D01*
G01*
X1943100D02*
G03*
X1943100Y76200I0J-12700D01*
G01*
X2336800D02*
G03*
X2336800Y101600I0J12700D01*
G01*
X2413000D02*
G03*
X2413000Y76200I0J-12700D01*
G01*
X2819400Y368300D02*
G03*
X2844800Y368300I12700J0D01*
G01*
Y292100D02*
G03*
X2819400Y292100I-12700J0D01*
G01*
X2844800Y0D02*
G03*
X2819400Y0I-12700J0D01*
G01*
Y76200D02*
G03*
X2844800Y76200I12700J0D01*
G01*
X1447800D02*
G03*
X1473200Y76200I12700J0D01*
G01*
Y0D02*
G03*
X1447800Y0I-12700J0D01*
G01*
X2844800Y774700D02*
G03*
X2819400Y774700I-12700J0D01*
G01*
Y368300D02*
G03*
X2844800Y368300I12700J0D01*
G01*
Y1257300D02*
G03*
X2819400Y1257300I-12700J0D01*
G01*
Y1816100D02*
G03*
X2844800Y1816100I12700J0D01*
G01*
Y1739900D02*
G03*
X2819400Y1739900I-12700J0D01*
G01*
Y1333500D02*
G03*
X2844800Y1333500I12700J0D01*
G01*
X1447800D02*
G03*
X1473200Y1333500I12700J0D01*
G01*
Y1257300D02*
G03*
X1447800Y1257300I-12700J0D01*
G01*
Y850900D02*
G03*
X1473200Y850900I12700J0D01*
G01*
Y292100D02*
G03*
X1447800Y292100I-12700J0D01*
G01*
X1473200Y774700D02*
G03*
X1447800Y774700I-12700J0D01*
G01*
Y368300D02*
G03*
X1473200Y368300I12700J0D01*
G01*
X1041400Y101600D02*
G03*
X1041400Y76200I0J-12700D01*
G01*
X965200D02*
G03*
X965200Y101600I0J12700D01*
G01*
X571500D02*
G03*
X571500Y76200I0J-12700D01*
G01*
X495300D02*
G03*
X495300Y101600I0J12700D01*
G01*
X101600Y0D02*
G03*
X76200Y0I-12700J0D01*
G01*
Y76200D02*
G03*
X101600Y76200I12700J0D01*
G01*
Y292100D02*
G03*
X76200Y292100I-12700J0D01*
G01*
X101600Y774700D02*
G03*
X76200Y774700I-12700J0D01*
G01*
Y368300D02*
G03*
X101600Y368300I12700J0D01*
G01*
X76200Y850900D02*
G03*
X101600Y850900I12700J0D01*
G01*
Y1257300D02*
G03*
X76200Y1257300I-12700J0D01*
G01*
Y1333500D02*
G03*
X101600Y1333500I12700J0D01*
G01*
X0Y1549400D02*
Y2006600D01*
X2921000Y1549400D02*
Y2006600D01*
Y1066800D02*
Y1524000D01*
Y584200D02*
Y1041400D01*
X2844800Y584200D02*
Y774700D01*
Y850900D02*
Y1041400D01*
Y1549400D02*
Y1739900D01*
X76200Y1066800D02*
Y1257300D01*
Y1549400D02*
Y1739900D01*
X0Y1066800D02*
Y1524000D01*
Y584200D02*
Y1041400D01*
X76200Y368300D02*
Y558800D01*
X101600Y0D02*
X1447800D01*
X1473200D02*
X2819400D01*
X2844800D02*
X2921000D01*
Y76200D01*
X2921000Y101600D02*
X2921000Y558800D01*
X2921000Y2032000D02*
Y2108200D01*
X2844800D02*
X2921000D01*
X1473200D02*
X2819400D01*
X101600D02*
X1447800D01*
X0D02*
X76200D01*
X0Y2032000D02*
Y2108200D01*
X-0Y558800D02*
X0Y101600D01*
Y0D02*
Y76200D01*
Y0D02*
X76200D01*
X1473200Y1333500D02*
X1473200Y1524000D01*
X1473200Y1549400D02*
X1473200Y1739900D01*
X1473200Y1066800D02*
X1473200Y1257300D01*
X1473200Y850900D02*
X1473200Y1041400D01*
X1473200Y368300D02*
X1473200Y558800D01*
X1473200Y584200D02*
X1866900D01*
X1473200Y558800D02*
X1866900D01*
X1943100D02*
X2336800D01*
X1943100Y584200D02*
X2336800D01*
X2413000D02*
X2819400D01*
X2413000Y558800D02*
X2819400D01*
X1473200Y1066800D02*
X1866900D01*
X1473200Y1041400D02*
X1866900D01*
X1943100D02*
X2336800D01*
X1943100Y1066800D02*
X2336800D01*
X2413000D02*
X2819400D01*
X2413000Y1041400D02*
X2819400D01*
X1473200Y1549400D02*
X1866900D01*
X1473200Y1524000D02*
X1866900D01*
X1943100D02*
X2336800D01*
X1943100Y1549400D02*
X2336800D01*
X2413000D02*
X2819400D01*
X2413000Y1524000D02*
X2819400D01*
X101600Y1549400D02*
X495300D01*
X101600Y1524000D02*
X495300D01*
X571500D02*
X965200D01*
X571500Y1549400D02*
X965200D01*
X1041400D02*
X1447800D01*
X1041400Y1524000D02*
X1447800D01*
X101600Y1066800D02*
X495300D01*
X101600Y1041400D02*
X495300D01*
X571500D02*
X965200D01*
X571500Y1066800D02*
X965200D01*
X1041400D02*
X1447800D01*
X1041400Y1041400D02*
X1447800D01*
X101600Y584200D02*
X495300D01*
X101600Y558800D02*
X495300D01*
X571500D02*
X965200D01*
X571500Y584200D02*
X965200D01*
X1041400D02*
X1447800D01*
X1041400Y558800D02*
X1447800D01*
X2425700Y2006600D02*
X2819400D01*
X2425700Y2032000D02*
X2819400D01*
X1955800D02*
X2349500D01*
X1955800Y2006600D02*
X2349500D01*
X1473200D02*
X1879600D01*
X1473200Y2032000D02*
X1879600D01*
X1473200Y1816100D02*
Y2006600D01*
X1447800Y1816100D02*
X1447800Y2006600D01*
X1054100D02*
X1447800D01*
X1054100Y2032000D02*
X1447800D01*
X584200D02*
X977900D01*
X584200Y2006600D02*
X977900D01*
X101600D02*
X508000D01*
X101600Y2032000D02*
X508000D01*
X101600Y1816100D02*
Y2006600D01*
X76200Y1816100D02*
X76200Y2006600D01*
X1473200Y101600D02*
X1866900D01*
X1473200Y76200D02*
X1866900D01*
X1943100D02*
X2336800D01*
X1943100Y101600D02*
X2336800D01*
X2413000D02*
X2819400D01*
X2413000Y76200D02*
X2819400D01*
Y101600D02*
Y292100D01*
X2844800Y101600D02*
X2844800Y292100D01*
X2844800Y368300D02*
X2844800Y558800D01*
X2819400Y584200D02*
Y774700D01*
Y368300D02*
Y558800D01*
X2844800Y1066800D02*
X2844800Y1257300D01*
X2819400Y1066800D02*
Y1257300D01*
Y850900D02*
Y1041400D01*
X2844800Y1816100D02*
X2844800Y2006600D01*
X2819400Y1816100D02*
Y2006600D01*
X2844800Y1333500D02*
X2844800Y1524000D01*
X2819400Y1549400D02*
Y1739900D01*
Y1333500D02*
Y1524000D01*
X1447800Y1549400D02*
Y1739900D01*
Y1333500D02*
Y1524000D01*
Y1066800D02*
Y1257300D01*
Y850900D02*
Y1041400D01*
X1473200Y101600D02*
X1473200Y292100D01*
X1447800Y101600D02*
Y292100D01*
X1473200Y584200D02*
X1473200Y774700D01*
X1447800Y584200D02*
Y774700D01*
Y368300D02*
Y558800D01*
X1041400Y76200D02*
X1447800D01*
X1041400Y101600D02*
X1447800D01*
X571500D02*
X965200D01*
X571500Y76200D02*
X965200D01*
X101600D02*
X495300D01*
X101600Y101600D02*
X495300D01*
X76200D02*
Y292100D01*
X101600Y101600D02*
Y292100D01*
Y584200D02*
Y774700D01*
Y368300D02*
Y558800D01*
X76200Y584200D02*
X76200Y774700D01*
X76200Y850900D02*
X76200Y1041400D01*
X101600Y850900D02*
Y1041400D01*
Y1066800D02*
Y1257300D01*
Y1333500D02*
Y1524000D01*
X495300D01*
X101600Y1549400D02*
X495300D01*
X101600D02*
Y1739900D01*
X76200Y1333500D02*
X76200Y1524000D01*
M02*
