G04*
G04 #@! TF.GenerationSoftware,Altium Limited,Altium Designer,21.8.1 (53)*
G04*
G04 Layer_Color=16711935*
%FSLAX44Y44*%
%MOMM*%
G71*
G04*
G04 #@! TF.SameCoordinates,EA1F17BB-6109-422B-8DE2-DB4FFD1B2ED1*
G04*
G04*
G04 #@! TF.FilePolarity,Positive*
G04*
G01*
G75*
%ADD28C,0.1270*%
%ADD30C,0.1000*%
D28*
X1534500Y892700D02*
X1552500Y874700D01*
X1534500Y910700D02*
Y892700D01*
X1552500Y928700D02*
X1534500Y910700D01*
X1639500Y928700D02*
Y874700D01*
X1552500D02*
X1639500D01*
X1552500Y928700D02*
X1639500D01*
X1667510Y1325880D02*
Y1239520D01*
X1536508Y1325880D02*
X1667510D01*
X1536508D02*
X1507236Y1300023D01*
Y1265377D02*
X1536508Y1239520D01*
X1667510D01*
X1507236Y1300023D02*
Y1265377D01*
X1534500Y511700D02*
X1552500Y493700D01*
X1534500Y529700D02*
Y511700D01*
X1552500Y547700D02*
X1534500Y529700D01*
X1639500Y547700D02*
Y493700D01*
X1552500D02*
X1639500D01*
X1552500Y547700D02*
X1639500D01*
X1534500Y257700D02*
X1552500Y239700D01*
X1534500Y275700D02*
Y257700D01*
X1552500Y293700D02*
X1534500Y275700D01*
X1639500Y293700D02*
Y239700D01*
X1552500D02*
X1639500D01*
X1552500Y293700D02*
X1639500D01*
X1552500Y420700D02*
X1639500D01*
X1552500Y366700D02*
X1639500D01*
Y420700D02*
Y366700D01*
X1552500Y420700D02*
X1534500Y402700D01*
Y384700D01*
X1552500Y366700D01*
X1534500Y765700D02*
X1552500Y747700D01*
X1534500Y783700D02*
Y765700D01*
X1552500Y801700D02*
X1534500Y783700D01*
X1639500Y801700D02*
Y747700D01*
X1552500D02*
X1639500D01*
X1552500Y801700D02*
X1639500D01*
X1552500Y674700D02*
X1639500D01*
X1552500Y620700D02*
X1639500D01*
Y674700D02*
Y620700D01*
X1552500Y674700D02*
X1534500Y656700D01*
Y638700D01*
X1552500Y620700D01*
X1534500Y1019700D02*
X1552500Y1001700D01*
X1534500Y1037700D02*
Y1019700D01*
X1552500Y1055700D02*
X1534500Y1037700D01*
X1639500Y1055700D02*
Y1001700D01*
X1552500D02*
X1639500D01*
X1552500Y1055700D02*
X1639500D01*
X1552500Y1182700D02*
X1639500D01*
X1552500Y1128700D02*
X1639500D01*
Y1182700D02*
Y1128700D01*
X1552500Y1182700D02*
X1534500Y1164700D01*
Y1146700D01*
X1552500Y1128700D01*
X2014560Y892700D02*
X2032560Y874700D01*
X2014560Y910700D02*
Y892700D01*
X2032560Y928700D02*
X2014560Y910700D01*
X2119560Y928700D02*
Y874700D01*
X2032560D02*
X2119560D01*
X2032560Y928700D02*
X2119560D01*
X2147570Y1325880D02*
Y1239520D01*
X2016568Y1325880D02*
X2147570D01*
X2016568D02*
X1987296Y1300023D01*
Y1265377D02*
X2016568Y1239520D01*
X2147570D01*
X1987296Y1300023D02*
Y1265377D01*
X2014560Y511700D02*
X2032560Y493700D01*
X2014560Y529700D02*
Y511700D01*
X2032560Y547700D02*
X2014560Y529700D01*
X2119560Y547700D02*
Y493700D01*
X2032560D02*
X2119560D01*
X2032560Y547700D02*
X2119560D01*
X2014560Y257700D02*
X2032560Y239700D01*
X2014560Y275700D02*
Y257700D01*
X2032560Y293700D02*
X2014560Y275700D01*
X2119560Y293700D02*
Y239700D01*
X2032560D02*
X2119560D01*
X2032560Y293700D02*
X2119560D01*
X2032560Y420700D02*
X2119560D01*
X2032560Y366700D02*
X2119560D01*
Y420700D02*
Y366700D01*
X2032560Y420700D02*
X2014560Y402700D01*
Y384700D01*
X2032560Y366700D01*
X2014560Y765700D02*
X2032560Y747700D01*
X2014560Y783700D02*
Y765700D01*
X2032560Y801700D02*
X2014560Y783700D01*
X2119560Y801700D02*
Y747700D01*
X2032560D02*
X2119560D01*
X2032560Y801700D02*
X2119560D01*
X2032560Y674700D02*
X2119560D01*
X2032560Y620700D02*
X2119560D01*
Y674700D02*
Y620700D01*
X2032560Y674700D02*
X2014560Y656700D01*
Y638700D01*
X2032560Y620700D01*
X2014560Y1019700D02*
X2032560Y1001700D01*
X2014560Y1037700D02*
Y1019700D01*
X2032560Y1055700D02*
X2014560Y1037700D01*
X2119560Y1055700D02*
Y1001700D01*
X2032560D02*
X2119560D01*
X2032560Y1055700D02*
X2119560D01*
X2032560Y1182700D02*
X2119560D01*
X2032560Y1128700D02*
X2119560D01*
Y1182700D02*
Y1128700D01*
X2032560Y1182700D02*
X2014560Y1164700D01*
Y1146700D01*
X2032560Y1128700D01*
X656700Y162900D02*
X674700Y180900D01*
X638700Y162900D02*
X656700D01*
X620700Y180900D02*
X638700Y162900D01*
X620700Y267900D02*
X674700D01*
Y180900D02*
Y267900D01*
X620700Y180900D02*
Y267900D01*
X223520Y295910D02*
X309880D01*
X223520Y164908D02*
Y295910D01*
Y164908D02*
X249377Y135636D01*
X284023D02*
X309880Y164908D01*
Y295910D01*
X249377Y135636D02*
X284023D01*
X1037700Y162900D02*
X1055700Y180900D01*
X1019700Y162900D02*
X1037700D01*
X1001700Y180900D02*
X1019700Y162900D01*
X1001700Y267900D02*
X1055700D01*
Y180900D02*
Y267900D01*
X1001700Y180900D02*
Y267900D01*
X1291700Y162900D02*
X1309700Y180900D01*
X1273700Y162900D02*
X1291700D01*
X1255700Y180900D02*
X1273700Y162900D01*
X1255700Y267900D02*
X1309700D01*
Y180900D02*
Y267900D01*
X1255700Y180900D02*
Y267900D01*
X1128700Y180900D02*
Y267900D01*
X1182700Y180900D02*
Y267900D01*
X1128700D02*
X1182700D01*
X1128700Y180900D02*
X1146700Y162900D01*
X1164700D01*
X1182700Y180900D01*
X783700Y162900D02*
X801700Y180900D01*
X765700Y162900D02*
X783700D01*
X747700Y180900D02*
X765700Y162900D01*
X747700Y267900D02*
X801700D01*
Y180900D02*
Y267900D01*
X747700Y180900D02*
Y267900D01*
X874700Y180900D02*
Y267900D01*
X928700Y180900D02*
Y267900D01*
X874700D02*
X928700D01*
X874700Y180900D02*
X892700Y162900D01*
X910700D01*
X928700Y180900D01*
X529700Y162900D02*
X547700Y180900D01*
X511700Y162900D02*
X529700D01*
X493700Y180900D02*
X511700Y162900D01*
X493700Y267900D02*
X547700D01*
Y180900D02*
Y267900D01*
X493700Y180900D02*
Y267900D01*
X366700Y180900D02*
Y267900D01*
X420700Y180900D02*
Y267900D01*
X366700D02*
X420700D01*
X366700Y180900D02*
X384700Y162900D01*
X402700D01*
X420700Y180900D01*
X656700Y645500D02*
X674700Y663500D01*
X638700Y645500D02*
X656700D01*
X620700Y663500D02*
X638700Y645500D01*
X620700Y750500D02*
X674700D01*
Y663500D02*
Y750500D01*
X620700Y663500D02*
Y750500D01*
X223520Y778510D02*
X309880D01*
X223520Y647508D02*
Y778510D01*
Y647508D02*
X249377Y618236D01*
X284023D02*
X309880Y647508D01*
Y778510D01*
X249377Y618236D02*
X284023D01*
X1037700Y645500D02*
X1055700Y663500D01*
X1019700Y645500D02*
X1037700D01*
X1001700Y663500D02*
X1019700Y645500D01*
X1001700Y750500D02*
X1055700D01*
Y663500D02*
Y750500D01*
X1001700Y663500D02*
Y750500D01*
X1291700Y645500D02*
X1309700Y663500D01*
X1273700Y645500D02*
X1291700D01*
X1255700Y663500D02*
X1273700Y645500D01*
X1255700Y750500D02*
X1309700D01*
Y663500D02*
Y750500D01*
X1255700Y663500D02*
Y750500D01*
X1128700Y663500D02*
Y750500D01*
X1182700Y663500D02*
Y750500D01*
X1128700D02*
X1182700D01*
X1128700Y663500D02*
X1146700Y645500D01*
X1164700D01*
X1182700Y663500D01*
X783700Y645500D02*
X801700Y663500D01*
X765700Y645500D02*
X783700D01*
X747700Y663500D02*
X765700Y645500D01*
X747700Y750500D02*
X801700D01*
Y663500D02*
Y750500D01*
X747700Y663500D02*
Y750500D01*
X874700Y663500D02*
Y750500D01*
X928700Y663500D02*
Y750500D01*
X874700D02*
X928700D01*
X874700Y663500D02*
X892700Y645500D01*
X910700D01*
X928700Y663500D01*
X529700Y645500D02*
X547700Y663500D01*
X511700Y645500D02*
X529700D01*
X493700Y663500D02*
X511700Y645500D01*
X493700Y750500D02*
X547700D01*
Y663500D02*
Y750500D01*
X493700Y663500D02*
Y750500D01*
X366700Y663500D02*
Y750500D01*
X420700Y663500D02*
Y750500D01*
X366700D02*
X420700D01*
X366700Y663500D02*
X384700Y645500D01*
X402700D01*
X420700Y663500D01*
X656700Y1128100D02*
X674700Y1146100D01*
X638700Y1128100D02*
X656700D01*
X620700Y1146100D02*
X638700Y1128100D01*
X620700Y1233100D02*
X674700D01*
Y1146100D02*
Y1233100D01*
X620700Y1146100D02*
Y1233100D01*
X223520Y1261110D02*
X309880D01*
X223520Y1130108D02*
Y1261110D01*
Y1130108D02*
X249377Y1100836D01*
X284023D02*
X309880Y1130108D01*
Y1261110D01*
X249377Y1100836D02*
X284023D01*
X1037700Y1128100D02*
X1055700Y1146100D01*
X1019700Y1128100D02*
X1037700D01*
X1001700Y1146100D02*
X1019700Y1128100D01*
X1001700Y1233100D02*
X1055700D01*
Y1146100D02*
Y1233100D01*
X1001700Y1146100D02*
Y1233100D01*
X1291700Y1128100D02*
X1309700Y1146100D01*
X1273700Y1128100D02*
X1291700D01*
X1255700Y1146100D02*
X1273700Y1128100D01*
X1255700Y1233100D02*
X1309700D01*
Y1146100D02*
Y1233100D01*
X1255700Y1146100D02*
Y1233100D01*
X1128700Y1146100D02*
Y1233100D01*
X1182700Y1146100D02*
Y1233100D01*
X1128700D02*
X1182700D01*
X1128700Y1146100D02*
X1146700Y1128100D01*
X1164700D01*
X1182700Y1146100D01*
X783700Y1128100D02*
X801700Y1146100D01*
X765700Y1128100D02*
X783700D01*
X747700Y1146100D02*
X765700Y1128100D01*
X747700Y1233100D02*
X801700D01*
Y1146100D02*
Y1233100D01*
X747700Y1146100D02*
Y1233100D01*
X874700Y1146100D02*
Y1233100D01*
X928700Y1146100D02*
Y1233100D01*
X874700D02*
X928700D01*
X874700Y1146100D02*
X892700Y1128100D01*
X910700D01*
X928700Y1146100D01*
X529700Y1128100D02*
X547700Y1146100D01*
X511700Y1128100D02*
X529700D01*
X493700Y1146100D02*
X511700Y1128100D01*
X493700Y1233100D02*
X547700D01*
Y1146100D02*
Y1233100D01*
X493700Y1146100D02*
Y1233100D01*
X366700Y1146100D02*
Y1233100D01*
X420700Y1146100D02*
Y1233100D01*
X366700D02*
X420700D01*
X366700Y1146100D02*
X384700Y1128100D01*
X402700D01*
X420700Y1146100D01*
X656700Y1610700D02*
X674700Y1628700D01*
X638700Y1610700D02*
X656700D01*
X620700Y1628700D02*
X638700Y1610700D01*
X620700Y1715700D02*
X674700D01*
Y1628700D02*
Y1715700D01*
X620700Y1628700D02*
Y1715700D01*
X223520Y1743710D02*
X309880D01*
X223520Y1612708D02*
Y1743710D01*
Y1612708D02*
X249377Y1583436D01*
X284023D02*
X309880Y1612708D01*
Y1743710D01*
X249377Y1583436D02*
X284023D01*
X1037700Y1610700D02*
X1055700Y1628700D01*
X1019700Y1610700D02*
X1037700D01*
X1001700Y1628700D02*
X1019700Y1610700D01*
X1001700Y1715700D02*
X1055700D01*
Y1628700D02*
Y1715700D01*
X1001700Y1628700D02*
Y1715700D01*
X1291700Y1610700D02*
X1309700Y1628700D01*
X1273700Y1610700D02*
X1291700D01*
X1255700Y1628700D02*
X1273700Y1610700D01*
X1255700Y1715700D02*
X1309700D01*
Y1628700D02*
Y1715700D01*
X1255700Y1628700D02*
Y1715700D01*
X1128700Y1628700D02*
Y1715700D01*
X1182700Y1628700D02*
Y1715700D01*
X1128700D02*
X1182700D01*
X1128700Y1628700D02*
X1146700Y1610700D01*
X1164700D01*
X1182700Y1628700D01*
X783700Y1610700D02*
X801700Y1628700D01*
X765700Y1610700D02*
X783700D01*
X747700Y1628700D02*
X765700Y1610700D01*
X747700Y1715700D02*
X801700D01*
Y1628700D02*
Y1715700D01*
X747700Y1628700D02*
Y1715700D01*
X874700Y1628700D02*
Y1715700D01*
X928700Y1628700D02*
Y1715700D01*
X874700D02*
X928700D01*
X874700Y1628700D02*
X892700Y1610700D01*
X910700D01*
X928700Y1628700D01*
X529700Y1610700D02*
X547700Y1628700D01*
X511700Y1610700D02*
X529700D01*
X493700Y1628700D02*
X511700Y1610700D01*
X493700Y1715700D02*
X547700D01*
Y1628700D02*
Y1715700D01*
X493700Y1628700D02*
Y1715700D01*
X366700Y1628700D02*
Y1715700D01*
X420700Y1628700D02*
Y1715700D01*
X366700D02*
X420700D01*
X366700Y1628700D02*
X384700Y1610700D01*
X402700D01*
X420700Y1628700D01*
D30*
X1794250Y978200D02*
Y952200D01*
X1761750Y978200D02*
Y952200D01*
X1794250D01*
X1761750Y978200D02*
X1794250D01*
X1761750Y1105200D02*
X1794250D01*
X1761750Y1079200D02*
X1794250D01*
X1761750Y1105200D02*
Y1079200D01*
X1794250Y1105200D02*
Y1079200D01*
Y1359200D02*
Y1333200D01*
X1761750Y1359200D02*
Y1333200D01*
X1794250D01*
X1761750Y1359200D02*
X1794250D01*
Y1232200D02*
Y1206200D01*
X1761750Y1232200D02*
Y1206200D01*
X1794250D01*
X1761750Y1232200D02*
X1794250D01*
X1761750Y851200D02*
X1794250D01*
X1761750Y825200D02*
X1794250D01*
X1761750Y851200D02*
Y825200D01*
X1794250Y851200D02*
Y825200D01*
X1761750Y724200D02*
X1794250D01*
X1761750Y698200D02*
X1794250D01*
X1761750Y724200D02*
Y698200D01*
X1794250Y724200D02*
Y698200D01*
X1761750Y597200D02*
X1794250D01*
X1761750Y571200D02*
X1794250D01*
X1761750Y597200D02*
Y571200D01*
X1794250Y597200D02*
Y571200D01*
X1761750Y470200D02*
X1794250D01*
X1761750Y444200D02*
X1794250D01*
X1761750Y470200D02*
Y444200D01*
X1794250Y470200D02*
Y444200D01*
X1761750Y343200D02*
X1794250D01*
X1761750Y317200D02*
X1794250D01*
X1761750Y343200D02*
Y317200D01*
X1794250Y343200D02*
Y317200D01*
X1761750Y216200D02*
X1794250D01*
X1761750Y190200D02*
X1794250D01*
X1761750Y216200D02*
Y190200D01*
X1794250Y216200D02*
Y190200D01*
X1812550Y1232200D02*
X1845050D01*
X1812550Y1206200D02*
X1845050D01*
X1812550Y1232200D02*
Y1206200D01*
X1845050Y1232200D02*
Y1206200D01*
X1812550Y978200D02*
X1845050D01*
X1812550Y952200D02*
X1845050D01*
X1812550Y978200D02*
Y952200D01*
X1845050Y978200D02*
Y952200D01*
X1812550Y851200D02*
X1845050D01*
X1812550Y825200D02*
X1845050D01*
X1812550Y851200D02*
Y825200D01*
X1845050Y851200D02*
Y825200D01*
X1812550Y724200D02*
X1845050D01*
X1812550Y698200D02*
X1845050D01*
X1812550Y724200D02*
Y698200D01*
X1845050Y724200D02*
Y698200D01*
X1812550Y470200D02*
X1845050D01*
X1812550Y444200D02*
X1845050D01*
X1812550Y470200D02*
Y444200D01*
X1845050Y470200D02*
Y444200D01*
X1812550Y216200D02*
X1845050D01*
X1812550Y190200D02*
X1845050D01*
X1812550Y216200D02*
Y190200D01*
X1845050Y216200D02*
Y190200D01*
X1812550Y343200D02*
X1845050D01*
X1812550Y317200D02*
X1845050D01*
X1812550Y343200D02*
Y317200D01*
X1845050Y343200D02*
Y317200D01*
X1812550Y597200D02*
X1845050D01*
X1812550Y571200D02*
X1845050D01*
X1812550Y597200D02*
Y571200D01*
X1845050Y597200D02*
Y571200D01*
X1812550Y1105200D02*
X1845050D01*
X1812550Y1079200D02*
X1845050D01*
X1812550Y1105200D02*
Y1079200D01*
X1845050Y1105200D02*
Y1079200D01*
Y1359200D02*
Y1333200D01*
X1812550Y1359200D02*
Y1333200D01*
X1845050D01*
X1812550Y1359200D02*
X1845050D01*
X1870850Y973150D02*
X1888350D01*
X1870850Y982650D02*
X1888350D01*
Y973150D01*
X1870850Y982650D02*
Y973150D01*
Y1227150D02*
X1888350D01*
X1870850Y1236650D02*
X1888350D01*
Y1227150D01*
X1870850Y1236650D02*
Y1227150D01*
Y1338250D02*
Y1328750D01*
X1888350Y1338250D02*
Y1328750D01*
X1870850Y1338250D02*
X1888350D01*
X1870850Y1328750D02*
X1888350D01*
X1870850Y846150D02*
X1888350D01*
X1870850Y855650D02*
X1888350D01*
Y846150D01*
X1870850Y855650D02*
Y846150D01*
Y601650D02*
Y592150D01*
X1888350Y601650D02*
Y592150D01*
X1870850Y601650D02*
X1888350D01*
X1870850Y592150D02*
X1888350D01*
X1870850Y719150D02*
X1888350D01*
X1870850Y728650D02*
X1888350D01*
Y719150D01*
X1870850Y728650D02*
Y719150D01*
Y1109650D02*
Y1100150D01*
X1888350Y1109650D02*
Y1100150D01*
X1870850Y1109650D02*
X1888350D01*
X1870850Y1100150D02*
X1888350D01*
X1870850Y211150D02*
X1888350D01*
X1870850Y220650D02*
X1888350D01*
Y211150D01*
X1870850Y220650D02*
Y211150D01*
Y347650D02*
Y338150D01*
X1888350Y347650D02*
Y338150D01*
X1870850Y347650D02*
X1888350D01*
X1870850Y338150D02*
X1888350D01*
X1870850Y465150D02*
X1888350D01*
X1870850Y474650D02*
X1888350D01*
Y465150D01*
X1870850Y474650D02*
Y465150D01*
X2274310Y978200D02*
Y952200D01*
X2241810Y978200D02*
Y952200D01*
X2274310D01*
X2241810Y978200D02*
X2274310D01*
X2241810Y1105200D02*
X2274310D01*
X2241810Y1079200D02*
X2274310D01*
X2241810Y1105200D02*
Y1079200D01*
X2274310Y1105200D02*
Y1079200D01*
Y1359200D02*
Y1333200D01*
X2241810Y1359200D02*
Y1333200D01*
X2274310D01*
X2241810Y1359200D02*
X2274310D01*
Y1232200D02*
Y1206200D01*
X2241810Y1232200D02*
Y1206200D01*
X2274310D01*
X2241810Y1232200D02*
X2274310D01*
X2241810Y851200D02*
X2274310D01*
X2241810Y825200D02*
X2274310D01*
X2241810Y851200D02*
Y825200D01*
X2274310Y851200D02*
Y825200D01*
X2241810Y724200D02*
X2274310D01*
X2241810Y698200D02*
X2274310D01*
X2241810Y724200D02*
Y698200D01*
X2274310Y724200D02*
Y698200D01*
X2241810Y597200D02*
X2274310D01*
X2241810Y571200D02*
X2274310D01*
X2241810Y597200D02*
Y571200D01*
X2274310Y597200D02*
Y571200D01*
X2241810Y470200D02*
X2274310D01*
X2241810Y444200D02*
X2274310D01*
X2241810Y470200D02*
Y444200D01*
X2274310Y470200D02*
Y444200D01*
X2241810Y343200D02*
X2274310D01*
X2241810Y317200D02*
X2274310D01*
X2241810Y343200D02*
Y317200D01*
X2274310Y343200D02*
Y317200D01*
X2241810Y216200D02*
X2274310D01*
X2241810Y190200D02*
X2274310D01*
X2241810Y216200D02*
Y190200D01*
X2274310Y216200D02*
Y190200D01*
X2292610Y1232200D02*
X2325110D01*
X2292610Y1206200D02*
X2325110D01*
X2292610Y1232200D02*
Y1206200D01*
X2325110Y1232200D02*
Y1206200D01*
X2292610Y978200D02*
X2325110D01*
X2292610Y952200D02*
X2325110D01*
X2292610Y978200D02*
Y952200D01*
X2325110Y978200D02*
Y952200D01*
X2292610Y851200D02*
X2325110D01*
X2292610Y825200D02*
X2325110D01*
X2292610Y851200D02*
Y825200D01*
X2325110Y851200D02*
Y825200D01*
X2292610Y724200D02*
X2325110D01*
X2292610Y698200D02*
X2325110D01*
X2292610Y724200D02*
Y698200D01*
X2325110Y724200D02*
Y698200D01*
X2292610Y470200D02*
X2325110D01*
X2292610Y444200D02*
X2325110D01*
X2292610Y470200D02*
Y444200D01*
X2325110Y470200D02*
Y444200D01*
X2292610Y216200D02*
X2325110D01*
X2292610Y190200D02*
X2325110D01*
X2292610Y216200D02*
Y190200D01*
X2325110Y216200D02*
Y190200D01*
X2292610Y343200D02*
X2325110D01*
X2292610Y317200D02*
X2325110D01*
X2292610Y343200D02*
Y317200D01*
X2325110Y343200D02*
Y317200D01*
X2292610Y597200D02*
X2325110D01*
X2292610Y571200D02*
X2325110D01*
X2292610Y597200D02*
Y571200D01*
X2325110Y597200D02*
Y571200D01*
X2292610Y1105200D02*
X2325110D01*
X2292610Y1079200D02*
X2325110D01*
X2292610Y1105200D02*
Y1079200D01*
X2325110Y1105200D02*
Y1079200D01*
Y1359200D02*
Y1333200D01*
X2292610Y1359200D02*
Y1333200D01*
X2325110D01*
X2292610Y1359200D02*
X2325110D01*
X2350910Y973150D02*
X2368410D01*
X2350910Y982650D02*
X2368410D01*
Y973150D01*
X2350910Y982650D02*
Y973150D01*
Y1227150D02*
X2368410D01*
X2350910Y1236650D02*
X2368410D01*
Y1227150D01*
X2350910Y1236650D02*
Y1227150D01*
Y1338250D02*
Y1328750D01*
X2368410Y1338250D02*
Y1328750D01*
X2350910Y1338250D02*
X2368410D01*
X2350910Y1328750D02*
X2368410D01*
X2350910Y846150D02*
X2368410D01*
X2350910Y855650D02*
X2368410D01*
Y846150D01*
X2350910Y855650D02*
Y846150D01*
Y601650D02*
Y592150D01*
X2368410Y601650D02*
Y592150D01*
X2350910Y601650D02*
X2368410D01*
X2350910Y592150D02*
X2368410D01*
X2350910Y719150D02*
X2368410D01*
X2350910Y728650D02*
X2368410D01*
Y719150D01*
X2350910Y728650D02*
Y719150D01*
Y1109650D02*
Y1100150D01*
X2368410Y1109650D02*
Y1100150D01*
X2350910Y1109650D02*
X2368410D01*
X2350910Y1100150D02*
X2368410D01*
X2350910Y211150D02*
X2368410D01*
X2350910Y220650D02*
X2368410D01*
Y211150D01*
X2350910Y220650D02*
Y211150D01*
Y347650D02*
Y338150D01*
X2368410Y347650D02*
Y338150D01*
X2350910Y347650D02*
X2368410D01*
X2350910Y338150D02*
X2368410D01*
X2350910Y465150D02*
X2368410D01*
X2350910Y474650D02*
X2368410D01*
Y465150D01*
X2350910Y474650D02*
Y465150D01*
X571200Y422650D02*
X597200D01*
X571200Y390150D02*
X597200D01*
Y422650D01*
X571200Y390150D02*
Y422650D01*
X444200Y390150D02*
Y422650D01*
X470200Y390150D02*
Y422650D01*
X444200Y390150D02*
X470200D01*
X444200Y422650D02*
X470200D01*
X190200D02*
X216200D01*
X190200Y390150D02*
X216200D01*
Y422650D01*
X190200Y390150D02*
Y422650D01*
X317200D02*
X343200D01*
X317200Y390150D02*
X343200D01*
Y422650D01*
X317200Y390150D02*
Y422650D01*
X698200Y390150D02*
Y422650D01*
X724200Y390150D02*
Y422650D01*
X698200Y390150D02*
X724200D01*
X698200Y422650D02*
X724200D01*
X825200Y390150D02*
Y422650D01*
X851200Y390150D02*
Y422650D01*
X825200Y390150D02*
X851200D01*
X825200Y422650D02*
X851200D01*
X952200Y390150D02*
Y422650D01*
X978200Y390150D02*
Y422650D01*
X952200Y390150D02*
X978200D01*
X952200Y422650D02*
X978200D01*
X1079200Y390150D02*
Y422650D01*
X1105200Y390150D02*
Y422650D01*
X1079200Y390150D02*
X1105200D01*
X1079200Y422650D02*
X1105200D01*
X1206200Y390150D02*
Y422650D01*
X1232200Y390150D02*
Y422650D01*
X1206200Y390150D02*
X1232200D01*
X1206200Y422650D02*
X1232200D01*
X1333200Y390150D02*
Y422650D01*
X1359200Y390150D02*
Y422650D01*
X1333200Y390150D02*
X1359200D01*
X1333200Y422650D02*
X1359200D01*
X317200Y440950D02*
Y473450D01*
X343200Y440950D02*
Y473450D01*
X317200Y440950D02*
X343200D01*
X317200Y473450D02*
X343200D01*
X571200Y440950D02*
Y473450D01*
X597200Y440950D02*
Y473450D01*
X571200Y440950D02*
X597200D01*
X571200Y473450D02*
X597200D01*
X698200Y440950D02*
Y473450D01*
X724200Y440950D02*
Y473450D01*
X698200Y440950D02*
X724200D01*
X698200Y473450D02*
X724200D01*
X825200Y440950D02*
Y473450D01*
X851200Y440950D02*
Y473450D01*
X825200Y440950D02*
X851200D01*
X825200Y473450D02*
X851200D01*
X1079200Y440950D02*
Y473450D01*
X1105200Y440950D02*
Y473450D01*
X1079200Y440950D02*
X1105200D01*
X1079200Y473450D02*
X1105200D01*
X1333200Y440950D02*
Y473450D01*
X1359200Y440950D02*
Y473450D01*
X1333200Y440950D02*
X1359200D01*
X1333200Y473450D02*
X1359200D01*
X1206200Y440950D02*
Y473450D01*
X1232200Y440950D02*
Y473450D01*
X1206200Y440950D02*
X1232200D01*
X1206200Y473450D02*
X1232200D01*
X952200Y440950D02*
Y473450D01*
X978200Y440950D02*
Y473450D01*
X952200Y440950D02*
X978200D01*
X952200Y473450D02*
X978200D01*
X444200Y440950D02*
Y473450D01*
X470200Y440950D02*
Y473450D01*
X444200Y440950D02*
X470200D01*
X444200Y473450D02*
X470200D01*
X190200D02*
X216200D01*
X190200Y440950D02*
X216200D01*
Y473450D01*
X190200Y440950D02*
Y473450D01*
X576250Y499250D02*
Y516750D01*
X566750Y499250D02*
Y516750D01*
X576250D01*
X566750Y499250D02*
X576250D01*
X322250D02*
Y516750D01*
X312750Y499250D02*
Y516750D01*
X322250D01*
X312750Y499250D02*
X322250D01*
X211150D02*
X220650D01*
X211150Y516750D02*
X220650D01*
X211150Y499250D02*
Y516750D01*
X220650Y499250D02*
Y516750D01*
X703250Y499250D02*
Y516750D01*
X693750Y499250D02*
Y516750D01*
X703250D01*
X693750Y499250D02*
X703250D01*
X947750D02*
X957250D01*
X947750Y516750D02*
X957250D01*
X947750Y499250D02*
Y516750D01*
X957250Y499250D02*
Y516750D01*
X830250Y499250D02*
Y516750D01*
X820750Y499250D02*
Y516750D01*
X830250D01*
X820750Y499250D02*
X830250D01*
X439750D02*
X449250D01*
X439750Y516750D02*
X449250D01*
X439750Y499250D02*
Y516750D01*
X449250Y499250D02*
Y516750D01*
X1338250Y499250D02*
Y516750D01*
X1328750Y499250D02*
Y516750D01*
X1338250D01*
X1328750Y499250D02*
X1338250D01*
X1201750D02*
X1211250D01*
X1201750Y516750D02*
X1211250D01*
X1201750Y499250D02*
Y516750D01*
X1211250Y499250D02*
Y516750D01*
X1084250Y499250D02*
Y516750D01*
X1074750Y499250D02*
Y516750D01*
X1084250D01*
X1074750Y499250D02*
X1084250D01*
X571200Y905250D02*
X597200D01*
X571200Y872750D02*
X597200D01*
Y905250D01*
X571200Y872750D02*
Y905250D01*
X444200Y872750D02*
Y905250D01*
X470200Y872750D02*
Y905250D01*
X444200Y872750D02*
X470200D01*
X444200Y905250D02*
X470200D01*
X190200D02*
X216200D01*
X190200Y872750D02*
X216200D01*
Y905250D01*
X190200Y872750D02*
Y905250D01*
X317200D02*
X343200D01*
X317200Y872750D02*
X343200D01*
Y905250D01*
X317200Y872750D02*
Y905250D01*
X698200Y872750D02*
Y905250D01*
X724200Y872750D02*
Y905250D01*
X698200Y872750D02*
X724200D01*
X698200Y905250D02*
X724200D01*
X825200Y872750D02*
Y905250D01*
X851200Y872750D02*
Y905250D01*
X825200Y872750D02*
X851200D01*
X825200Y905250D02*
X851200D01*
X952200Y872750D02*
Y905250D01*
X978200Y872750D02*
Y905250D01*
X952200Y872750D02*
X978200D01*
X952200Y905250D02*
X978200D01*
X1079200Y872750D02*
Y905250D01*
X1105200Y872750D02*
Y905250D01*
X1079200Y872750D02*
X1105200D01*
X1079200Y905250D02*
X1105200D01*
X1206200Y872750D02*
Y905250D01*
X1232200Y872750D02*
Y905250D01*
X1206200Y872750D02*
X1232200D01*
X1206200Y905250D02*
X1232200D01*
X1333200Y872750D02*
Y905250D01*
X1359200Y872750D02*
Y905250D01*
X1333200Y872750D02*
X1359200D01*
X1333200Y905250D02*
X1359200D01*
X317200Y923550D02*
Y956050D01*
X343200Y923550D02*
Y956050D01*
X317200Y923550D02*
X343200D01*
X317200Y956050D02*
X343200D01*
X571200Y923550D02*
Y956050D01*
X597200Y923550D02*
Y956050D01*
X571200Y923550D02*
X597200D01*
X571200Y956050D02*
X597200D01*
X698200Y923550D02*
Y956050D01*
X724200Y923550D02*
Y956050D01*
X698200Y923550D02*
X724200D01*
X698200Y956050D02*
X724200D01*
X825200Y923550D02*
Y956050D01*
X851200Y923550D02*
Y956050D01*
X825200Y923550D02*
X851200D01*
X825200Y956050D02*
X851200D01*
X1079200Y923550D02*
Y956050D01*
X1105200Y923550D02*
Y956050D01*
X1079200Y923550D02*
X1105200D01*
X1079200Y956050D02*
X1105200D01*
X1333200Y923550D02*
Y956050D01*
X1359200Y923550D02*
Y956050D01*
X1333200Y923550D02*
X1359200D01*
X1333200Y956050D02*
X1359200D01*
X1206200Y923550D02*
Y956050D01*
X1232200Y923550D02*
Y956050D01*
X1206200Y923550D02*
X1232200D01*
X1206200Y956050D02*
X1232200D01*
X952200Y923550D02*
Y956050D01*
X978200Y923550D02*
Y956050D01*
X952200Y923550D02*
X978200D01*
X952200Y956050D02*
X978200D01*
X444200Y923550D02*
Y956050D01*
X470200Y923550D02*
Y956050D01*
X444200Y923550D02*
X470200D01*
X444200Y956050D02*
X470200D01*
X190200D02*
X216200D01*
X190200Y923550D02*
X216200D01*
Y956050D01*
X190200Y923550D02*
Y956050D01*
X576250Y981850D02*
Y999350D01*
X566750Y981850D02*
Y999350D01*
X576250D01*
X566750Y981850D02*
X576250D01*
X322250D02*
Y999350D01*
X312750Y981850D02*
Y999350D01*
X322250D01*
X312750Y981850D02*
X322250D01*
X211150D02*
X220650D01*
X211150Y999350D02*
X220650D01*
X211150Y981850D02*
Y999350D01*
X220650Y981850D02*
Y999350D01*
X703250Y981850D02*
Y999350D01*
X693750Y981850D02*
Y999350D01*
X703250D01*
X693750Y981850D02*
X703250D01*
X947750D02*
X957250D01*
X947750Y999350D02*
X957250D01*
X947750Y981850D02*
Y999350D01*
X957250Y981850D02*
Y999350D01*
X830250Y981850D02*
Y999350D01*
X820750Y981850D02*
Y999350D01*
X830250D01*
X820750Y981850D02*
X830250D01*
X439750D02*
X449250D01*
X439750Y999350D02*
X449250D01*
X439750Y981850D02*
Y999350D01*
X449250Y981850D02*
Y999350D01*
X1338250Y981850D02*
Y999350D01*
X1328750Y981850D02*
Y999350D01*
X1338250D01*
X1328750Y981850D02*
X1338250D01*
X1201750D02*
X1211250D01*
X1201750Y999350D02*
X1211250D01*
X1201750Y981850D02*
Y999350D01*
X1211250Y981850D02*
Y999350D01*
X1084250Y981850D02*
Y999350D01*
X1074750Y981850D02*
Y999350D01*
X1084250D01*
X1074750Y981850D02*
X1084250D01*
X571200Y1387850D02*
X597200D01*
X571200Y1355350D02*
X597200D01*
Y1387850D01*
X571200Y1355350D02*
Y1387850D01*
X444200Y1355350D02*
Y1387850D01*
X470200Y1355350D02*
Y1387850D01*
X444200Y1355350D02*
X470200D01*
X444200Y1387850D02*
X470200D01*
X190200D02*
X216200D01*
X190200Y1355350D02*
X216200D01*
Y1387850D01*
X190200Y1355350D02*
Y1387850D01*
X317200D02*
X343200D01*
X317200Y1355350D02*
X343200D01*
Y1387850D01*
X317200Y1355350D02*
Y1387850D01*
X698200Y1355350D02*
Y1387850D01*
X724200Y1355350D02*
Y1387850D01*
X698200Y1355350D02*
X724200D01*
X698200Y1387850D02*
X724200D01*
X825200Y1355350D02*
Y1387850D01*
X851200Y1355350D02*
Y1387850D01*
X825200Y1355350D02*
X851200D01*
X825200Y1387850D02*
X851200D01*
X952200Y1355350D02*
Y1387850D01*
X978200Y1355350D02*
Y1387850D01*
X952200Y1355350D02*
X978200D01*
X952200Y1387850D02*
X978200D01*
X1079200Y1355350D02*
Y1387850D01*
X1105200Y1355350D02*
Y1387850D01*
X1079200Y1355350D02*
X1105200D01*
X1079200Y1387850D02*
X1105200D01*
X1206200Y1355350D02*
Y1387850D01*
X1232200Y1355350D02*
Y1387850D01*
X1206200Y1355350D02*
X1232200D01*
X1206200Y1387850D02*
X1232200D01*
X1333200Y1355350D02*
Y1387850D01*
X1359200Y1355350D02*
Y1387850D01*
X1333200Y1355350D02*
X1359200D01*
X1333200Y1387850D02*
X1359200D01*
X317200Y1406150D02*
Y1438650D01*
X343200Y1406150D02*
Y1438650D01*
X317200Y1406150D02*
X343200D01*
X317200Y1438650D02*
X343200D01*
X571200Y1406150D02*
Y1438650D01*
X597200Y1406150D02*
Y1438650D01*
X571200Y1406150D02*
X597200D01*
X571200Y1438650D02*
X597200D01*
X698200Y1406150D02*
Y1438650D01*
X724200Y1406150D02*
Y1438650D01*
X698200Y1406150D02*
X724200D01*
X698200Y1438650D02*
X724200D01*
X825200Y1406150D02*
Y1438650D01*
X851200Y1406150D02*
Y1438650D01*
X825200Y1406150D02*
X851200D01*
X825200Y1438650D02*
X851200D01*
X1079200Y1406150D02*
Y1438650D01*
X1105200Y1406150D02*
Y1438650D01*
X1079200Y1406150D02*
X1105200D01*
X1079200Y1438650D02*
X1105200D01*
X1333200Y1406150D02*
Y1438650D01*
X1359200Y1406150D02*
Y1438650D01*
X1333200Y1406150D02*
X1359200D01*
X1333200Y1438650D02*
X1359200D01*
X1206200Y1406150D02*
Y1438650D01*
X1232200Y1406150D02*
Y1438650D01*
X1206200Y1406150D02*
X1232200D01*
X1206200Y1438650D02*
X1232200D01*
X952200Y1406150D02*
Y1438650D01*
X978200Y1406150D02*
Y1438650D01*
X952200Y1406150D02*
X978200D01*
X952200Y1438650D02*
X978200D01*
X444200Y1406150D02*
Y1438650D01*
X470200Y1406150D02*
Y1438650D01*
X444200Y1406150D02*
X470200D01*
X444200Y1438650D02*
X470200D01*
X190200D02*
X216200D01*
X190200Y1406150D02*
X216200D01*
Y1438650D01*
X190200Y1406150D02*
Y1438650D01*
X576250Y1464450D02*
Y1481950D01*
X566750Y1464450D02*
Y1481950D01*
X576250D01*
X566750Y1464450D02*
X576250D01*
X322250D02*
Y1481950D01*
X312750Y1464450D02*
Y1481950D01*
X322250D01*
X312750Y1464450D02*
X322250D01*
X211150D02*
X220650D01*
X211150Y1481950D02*
X220650D01*
X211150Y1464450D02*
Y1481950D01*
X220650Y1464450D02*
Y1481950D01*
X703250Y1464450D02*
Y1481950D01*
X693750Y1464450D02*
Y1481950D01*
X703250D01*
X693750Y1464450D02*
X703250D01*
X947750D02*
X957250D01*
X947750Y1481950D02*
X957250D01*
X947750Y1464450D02*
Y1481950D01*
X957250Y1464450D02*
Y1481950D01*
X830250Y1464450D02*
Y1481950D01*
X820750Y1464450D02*
Y1481950D01*
X830250D01*
X820750Y1464450D02*
X830250D01*
X439750D02*
X449250D01*
X439750Y1481950D02*
X449250D01*
X439750Y1464450D02*
Y1481950D01*
X449250Y1464450D02*
Y1481950D01*
X1338250Y1464450D02*
Y1481950D01*
X1328750Y1464450D02*
Y1481950D01*
X1338250D01*
X1328750Y1464450D02*
X1338250D01*
X1201750D02*
X1211250D01*
X1201750Y1481950D02*
X1211250D01*
X1201750Y1464450D02*
Y1481950D01*
X1211250Y1464450D02*
Y1481950D01*
X1084250Y1464450D02*
Y1481950D01*
X1074750Y1464450D02*
Y1481950D01*
X1084250D01*
X1074750Y1464450D02*
X1084250D01*
X571200Y1870450D02*
X597200D01*
X571200Y1837950D02*
X597200D01*
Y1870450D01*
X571200Y1837950D02*
Y1870450D01*
X444200Y1837950D02*
Y1870450D01*
X470200Y1837950D02*
Y1870450D01*
X444200Y1837950D02*
X470200D01*
X444200Y1870450D02*
X470200D01*
X190200D02*
X216200D01*
X190200Y1837950D02*
X216200D01*
Y1870450D01*
X190200Y1837950D02*
Y1870450D01*
X317200D02*
X343200D01*
X317200Y1837950D02*
X343200D01*
Y1870450D01*
X317200Y1837950D02*
Y1870450D01*
X698200Y1837950D02*
Y1870450D01*
X724200Y1837950D02*
Y1870450D01*
X698200Y1837950D02*
X724200D01*
X698200Y1870450D02*
X724200D01*
X825200Y1837950D02*
Y1870450D01*
X851200Y1837950D02*
Y1870450D01*
X825200Y1837950D02*
X851200D01*
X825200Y1870450D02*
X851200D01*
X952200Y1837950D02*
Y1870450D01*
X978200Y1837950D02*
Y1870450D01*
X952200Y1837950D02*
X978200D01*
X952200Y1870450D02*
X978200D01*
X1079200Y1837950D02*
Y1870450D01*
X1105200Y1837950D02*
Y1870450D01*
X1079200Y1837950D02*
X1105200D01*
X1079200Y1870450D02*
X1105200D01*
X1206200Y1837950D02*
Y1870450D01*
X1232200Y1837950D02*
Y1870450D01*
X1206200Y1837950D02*
X1232200D01*
X1206200Y1870450D02*
X1232200D01*
X1333200Y1837950D02*
Y1870450D01*
X1359200Y1837950D02*
Y1870450D01*
X1333200Y1837950D02*
X1359200D01*
X1333200Y1870450D02*
X1359200D01*
X317200Y1888750D02*
Y1921250D01*
X343200Y1888750D02*
Y1921250D01*
X317200Y1888750D02*
X343200D01*
X317200Y1921250D02*
X343200D01*
X571200Y1888750D02*
Y1921250D01*
X597200Y1888750D02*
Y1921250D01*
X571200Y1888750D02*
X597200D01*
X571200Y1921250D02*
X597200D01*
X698200Y1888750D02*
Y1921250D01*
X724200Y1888750D02*
Y1921250D01*
X698200Y1888750D02*
X724200D01*
X698200Y1921250D02*
X724200D01*
X825200Y1888750D02*
Y1921250D01*
X851200Y1888750D02*
Y1921250D01*
X825200Y1888750D02*
X851200D01*
X825200Y1921250D02*
X851200D01*
X1079200Y1888750D02*
Y1921250D01*
X1105200Y1888750D02*
Y1921250D01*
X1079200Y1888750D02*
X1105200D01*
X1079200Y1921250D02*
X1105200D01*
X1333200Y1888750D02*
Y1921250D01*
X1359200Y1888750D02*
Y1921250D01*
X1333200Y1888750D02*
X1359200D01*
X1333200Y1921250D02*
X1359200D01*
X1206200Y1888750D02*
Y1921250D01*
X1232200Y1888750D02*
Y1921250D01*
X1206200Y1888750D02*
X1232200D01*
X1206200Y1921250D02*
X1232200D01*
X952200Y1888750D02*
Y1921250D01*
X978200Y1888750D02*
Y1921250D01*
X952200Y1888750D02*
X978200D01*
X952200Y1921250D02*
X978200D01*
X444200Y1888750D02*
Y1921250D01*
X470200Y1888750D02*
Y1921250D01*
X444200Y1888750D02*
X470200D01*
X444200Y1921250D02*
X470200D01*
X190200D02*
X216200D01*
X190200Y1888750D02*
X216200D01*
Y1921250D01*
X190200Y1888750D02*
Y1921250D01*
X576250Y1947050D02*
Y1964550D01*
X566750Y1947050D02*
Y1964550D01*
X576250D01*
X566750Y1947050D02*
X576250D01*
X322250D02*
Y1964550D01*
X312750Y1947050D02*
Y1964550D01*
X322250D01*
X312750Y1947050D02*
X322250D01*
X211150D02*
X220650D01*
X211150Y1964550D02*
X220650D01*
X211150Y1947050D02*
Y1964550D01*
X220650Y1947050D02*
Y1964550D01*
X703250Y1947050D02*
Y1964550D01*
X693750Y1947050D02*
Y1964550D01*
X703250D01*
X693750Y1947050D02*
X703250D01*
X947750D02*
X957250D01*
X947750Y1964550D02*
X957250D01*
X947750Y1947050D02*
Y1964550D01*
X957250Y1947050D02*
Y1964550D01*
X830250Y1947050D02*
Y1964550D01*
X820750Y1947050D02*
Y1964550D01*
X830250D01*
X820750Y1947050D02*
X830250D01*
X439750D02*
X449250D01*
X439750Y1964550D02*
X449250D01*
X439750Y1947050D02*
Y1964550D01*
X449250Y1947050D02*
Y1964550D01*
X1338250Y1947050D02*
Y1964550D01*
X1328750Y1947050D02*
Y1964550D01*
X1338250D01*
X1328750Y1947050D02*
X1338250D01*
X1201750D02*
X1211250D01*
X1201750Y1964550D02*
X1211250D01*
X1201750Y1947050D02*
Y1964550D01*
X1211250Y1947050D02*
Y1964550D01*
X1084250Y1947050D02*
Y1964550D01*
X1074750Y1947050D02*
Y1964550D01*
X1084250D01*
X1074750Y1947050D02*
X1084250D01*
M02*
