G04*
G04 #@! TF.GenerationSoftware,Altium Limited,Altium Designer,21.8.1 (53)*
G04*
G04 Layer_Color=2752767*
%FSLAX44Y44*%
%MOMM*%
G71*
G04*
G04 #@! TF.SameCoordinates,54C0CB10-D324-4126-BD5B-6722362DD903*
G04*
G04*
G04 #@! TF.FilePolarity,Positive*
G04*
G01*
G75*
%ADD40C,0.0508*%
%ADD41C,0.0677*%
D40*
X1448308Y351028D02*
Y355092D01*
X1452372D01*
Y351028D01*
X1448308D01*
Y343408D02*
Y347472D01*
X1452372D01*
Y343408D01*
X1448308D01*
Y335788D02*
Y339852D01*
X1452372D01*
Y335788D01*
X1448308D01*
Y328168D02*
Y332232D01*
X1452372D01*
Y328168D01*
X1448308D01*
Y320548D02*
Y324612D01*
X1452372D01*
Y320548D01*
X1448308D01*
Y312928D02*
Y316992D01*
X1452372D01*
Y312928D01*
X1448308D01*
Y305308D02*
Y309372D01*
X1452372D01*
Y305308D01*
X1448308D01*
X1468628Y351028D02*
Y355092D01*
X1472692D01*
Y351028D01*
X1468628D01*
Y343408D02*
Y347472D01*
X1472692D01*
Y343408D01*
X1468628D01*
Y335788D02*
Y339852D01*
X1472692D01*
Y335788D01*
X1468628D01*
Y328168D02*
Y332232D01*
X1472692D01*
Y328168D01*
X1468628D01*
Y320548D02*
Y324612D01*
X1472692D01*
Y320548D01*
X1468628D01*
Y312928D02*
Y316992D01*
X1472692D01*
Y312928D01*
X1468628D01*
Y305308D02*
Y309372D01*
X1472692D01*
Y305308D01*
X1468628D01*
X1448308Y833628D02*
Y837692D01*
X1452372D01*
Y833628D01*
X1448308D01*
Y826008D02*
Y830072D01*
X1452372D01*
Y826008D01*
X1448308D01*
Y818388D02*
Y822452D01*
X1452372D01*
Y818388D01*
X1448308D01*
Y810768D02*
Y814832D01*
X1452372D01*
Y810768D01*
X1448308D01*
Y803148D02*
Y807212D01*
X1452372D01*
Y803148D01*
X1448308D01*
Y795528D02*
Y799592D01*
X1452372D01*
Y795528D01*
X1448308D01*
Y787908D02*
Y791972D01*
X1452372D01*
Y787908D01*
X1448308D01*
X1468628Y833628D02*
Y837692D01*
X1472692D01*
Y833628D01*
X1468628D01*
Y826008D02*
Y830072D01*
X1472692D01*
Y826008D01*
X1468628D01*
Y818388D02*
Y822452D01*
X1472692D01*
Y818388D01*
X1468628D01*
Y810768D02*
Y814832D01*
X1472692D01*
Y810768D01*
X1468628D01*
Y803148D02*
Y807212D01*
X1472692D01*
Y803148D01*
X1468628D01*
Y795528D02*
Y799592D01*
X1472692D01*
Y795528D01*
X1468628D01*
Y787908D02*
Y791972D01*
X1472692D01*
Y787908D01*
X1468628D01*
X1448308Y1318768D02*
Y1322832D01*
X1452372D01*
Y1318768D01*
X1448308D01*
Y1311148D02*
Y1315212D01*
X1452372D01*
Y1311148D01*
X1448308D01*
Y1303528D02*
Y1307592D01*
X1452372D01*
Y1303528D01*
X1448308D01*
Y1295908D02*
Y1299972D01*
X1452372D01*
Y1295908D01*
X1448308D01*
Y1288288D02*
Y1292352D01*
X1452372D01*
Y1288288D01*
X1448308D01*
Y1280668D02*
Y1284732D01*
X1452372D01*
Y1280668D01*
X1448308D01*
Y1273048D02*
Y1277112D01*
X1452372D01*
Y1273048D01*
X1448308D01*
X1468628Y1318768D02*
Y1322832D01*
X1472692D01*
Y1318768D01*
X1468628D01*
Y1311148D02*
Y1315212D01*
X1472692D01*
Y1311148D01*
X1468628D01*
Y1303528D02*
Y1307592D01*
X1472692D01*
Y1303528D01*
X1468628D01*
Y1295908D02*
Y1299972D01*
X1472692D01*
Y1295908D01*
X1468628D01*
Y1288288D02*
Y1292352D01*
X1472692D01*
Y1288288D01*
X1468628D01*
Y1280668D02*
Y1284732D01*
X1472692D01*
Y1280668D01*
X1468628D01*
Y1273048D02*
Y1277112D01*
X1472692D01*
Y1273048D01*
X1468628D01*
X1448308Y1798828D02*
Y1802892D01*
X1452372D01*
Y1798828D01*
X1448308D01*
Y1791208D02*
Y1795272D01*
X1452372D01*
Y1791208D01*
X1448308D01*
Y1783588D02*
Y1787652D01*
X1452372D01*
Y1783588D01*
X1448308D01*
Y1775968D02*
Y1780032D01*
X1452372D01*
Y1775968D01*
X1448308D01*
Y1768348D02*
Y1772412D01*
X1452372D01*
Y1768348D01*
X1448308D01*
Y1760728D02*
Y1764792D01*
X1452372D01*
Y1760728D01*
X1448308D01*
Y1753108D02*
Y1757172D01*
X1452372D01*
Y1753108D01*
X1448308D01*
X1468628Y1798828D02*
Y1802892D01*
X1472692D01*
Y1798828D01*
X1468628D01*
Y1791208D02*
Y1795272D01*
X1472692D01*
Y1791208D01*
X1468628D01*
Y1783588D02*
Y1787652D01*
X1472692D01*
Y1783588D01*
X1468628D01*
Y1775968D02*
Y1780032D01*
X1472692D01*
Y1775968D01*
X1468628D01*
Y1768348D02*
Y1772412D01*
X1472692D01*
Y1768348D01*
X1468628D01*
Y1760728D02*
Y1764792D01*
X1472692D01*
Y1760728D01*
X1468628D01*
Y1753108D02*
Y1757172D01*
X1472692D01*
Y1753108D01*
X1468628D01*
X1448308Y2090928D02*
Y2094992D01*
X1452372D01*
Y2090928D01*
X1448308D01*
Y2083308D02*
Y2087372D01*
X1452372D01*
Y2083308D01*
X1448308D01*
Y2075688D02*
Y2079752D01*
X1452372D01*
Y2075688D01*
X1448308D01*
Y2068068D02*
Y2072132D01*
X1452372D01*
Y2068068D01*
X1448308D01*
Y2060448D02*
Y2064512D01*
X1452372D01*
Y2060448D01*
X1448308D01*
Y2052828D02*
Y2056892D01*
X1452372D01*
Y2052828D01*
X1448308D01*
Y2045208D02*
Y2049272D01*
X1452372D01*
Y2045208D01*
X1448308D01*
X1468628Y2090928D02*
Y2094992D01*
X1472692D01*
Y2090928D01*
X1468628D01*
Y2083308D02*
Y2087372D01*
X1472692D01*
Y2083308D01*
X1468628D01*
Y2075688D02*
Y2079752D01*
X1472692D01*
Y2075688D01*
X1468628D01*
Y2068068D02*
Y2072132D01*
X1472692D01*
Y2068068D01*
X1468628D01*
Y2060448D02*
Y2064512D01*
X1472692D01*
Y2060448D01*
X1468628D01*
Y2052828D02*
Y2056892D01*
X1472692D01*
Y2052828D01*
X1468628D01*
Y2045208D02*
Y2049272D01*
X1472692D01*
Y2045208D01*
X1468628D01*
X2819908Y2090928D02*
Y2094992D01*
X2823972D01*
Y2090928D01*
X2819908D01*
Y2083308D02*
Y2087372D01*
X2823972D01*
Y2083308D01*
X2819908D01*
Y2075688D02*
Y2079752D01*
X2823972D01*
Y2075688D01*
X2819908D01*
Y2068068D02*
Y2072132D01*
X2823972D01*
Y2068068D01*
X2819908D01*
Y2060448D02*
Y2064512D01*
X2823972D01*
Y2060448D01*
X2819908D01*
Y2052828D02*
Y2056892D01*
X2823972D01*
Y2052828D01*
X2819908D01*
Y2045208D02*
Y2049272D01*
X2823972D01*
Y2045208D01*
X2819908D01*
X2903728Y2007108D02*
Y2011172D01*
X2907792D01*
Y2007108D01*
X2903728D01*
X2896108D02*
Y2011172D01*
X2900172D01*
Y2007108D01*
X2896108D01*
X2888488D02*
Y2011172D01*
X2892552D01*
Y2007108D01*
X2888488D01*
X2880868D02*
Y2011172D01*
X2884932D01*
Y2007108D01*
X2880868D01*
X2873248D02*
Y2011172D01*
X2877312D01*
Y2007108D01*
X2873248D01*
X2865628D02*
Y2011172D01*
X2869692D01*
Y2007108D01*
X2865628D01*
X2858008D02*
Y2011172D01*
X2862072D01*
Y2007108D01*
X2858008D01*
X2903728Y1544828D02*
Y1548892D01*
X2907792D01*
Y1544828D01*
X2903728D01*
X2896108D02*
Y1548892D01*
X2900172D01*
Y1544828D01*
X2896108D01*
X2888488D02*
Y1548892D01*
X2892552D01*
Y1544828D01*
X2888488D01*
X2880868D02*
Y1548892D01*
X2884932D01*
Y1544828D01*
X2880868D01*
X2873248D02*
Y1548892D01*
X2877312D01*
Y1544828D01*
X2873248D01*
X2865628D02*
Y1548892D01*
X2869692D01*
Y1544828D01*
X2865628D01*
X2858008D02*
Y1548892D01*
X2862072D01*
Y1544828D01*
X2858008D01*
X2903728Y1524508D02*
Y1528572D01*
X2907792D01*
Y1524508D01*
X2903728D01*
X2896108D02*
Y1528572D01*
X2900172D01*
Y1524508D01*
X2896108D01*
X2888488D02*
Y1528572D01*
X2892552D01*
Y1524508D01*
X2888488D01*
X2880868D02*
Y1528572D01*
X2884932D01*
Y1524508D01*
X2880868D01*
X2873248D02*
Y1528572D01*
X2877312D01*
Y1524508D01*
X2873248D01*
X2865628D02*
Y1528572D01*
X2869692D01*
Y1524508D01*
X2865628D01*
X2858008D02*
Y1528572D01*
X2862072D01*
Y1524508D01*
X2858008D01*
X2903728Y1062228D02*
Y1066292D01*
X2907792D01*
Y1062228D01*
X2903728D01*
X2896108D02*
Y1066292D01*
X2900172D01*
Y1062228D01*
X2896108D01*
X2888488D02*
Y1066292D01*
X2892552D01*
Y1062228D01*
X2888488D01*
X2880868D02*
Y1066292D01*
X2884932D01*
Y1062228D01*
X2880868D01*
X2873248D02*
Y1066292D01*
X2877312D01*
Y1062228D01*
X2873248D01*
X2865628D02*
Y1066292D01*
X2869692D01*
Y1062228D01*
X2865628D01*
X2858008D02*
Y1066292D01*
X2862072D01*
Y1062228D01*
X2858008D01*
X2903728Y1041908D02*
Y1045972D01*
X2907792D01*
Y1041908D01*
X2903728D01*
X2896108D02*
Y1045972D01*
X2900172D01*
Y1041908D01*
X2896108D01*
X2888488D02*
Y1045972D01*
X2892552D01*
Y1041908D01*
X2888488D01*
X2880868D02*
Y1045972D01*
X2884932D01*
Y1041908D01*
X2880868D01*
X2873248D02*
Y1045972D01*
X2877312D01*
Y1041908D01*
X2873248D01*
X2865628D02*
Y1045972D01*
X2869692D01*
Y1041908D01*
X2865628D01*
X2858008D02*
Y1045972D01*
X2862072D01*
Y1041908D01*
X2858008D01*
X2903728Y579628D02*
Y583692D01*
X2907792D01*
Y579628D01*
X2903728D01*
X2896108D02*
Y583692D01*
X2900172D01*
Y579628D01*
X2896108D01*
X2888488D02*
Y583692D01*
X2892552D01*
Y579628D01*
X2888488D01*
X2880868D02*
Y583692D01*
X2884932D01*
Y579628D01*
X2880868D01*
X2873248D02*
Y583692D01*
X2877312D01*
Y579628D01*
X2873248D01*
X2865628D02*
Y583692D01*
X2869692D01*
Y579628D01*
X2865628D01*
X2858008D02*
Y583692D01*
X2862072D01*
Y579628D01*
X2858008D01*
X2903728Y559308D02*
Y563372D01*
X2907792D01*
Y559308D01*
X2903728D01*
X2896108D02*
Y563372D01*
X2900172D01*
Y559308D01*
X2896108D01*
X2888488D02*
Y563372D01*
X2892552D01*
Y559308D01*
X2888488D01*
X2880868D02*
Y563372D01*
X2884932D01*
Y559308D01*
X2880868D01*
X2873248D02*
Y563372D01*
X2877312D01*
Y559308D01*
X2873248D01*
X2865628D02*
Y563372D01*
X2869692D01*
Y559308D01*
X2865628D01*
X2858008D02*
Y563372D01*
X2862072D01*
Y559308D01*
X2858008D01*
X2903728Y97028D02*
Y101092D01*
X2907792D01*
Y97028D01*
X2903728D01*
X2896108D02*
Y101092D01*
X2900172D01*
Y97028D01*
X2896108D01*
X2888488D02*
Y101092D01*
X2892552D01*
Y97028D01*
X2888488D01*
X2880868D02*
Y101092D01*
X2884932D01*
Y97028D01*
X2880868D01*
X2873248D02*
Y101092D01*
X2877312D01*
Y97028D01*
X2873248D01*
X2865628D02*
Y101092D01*
X2869692D01*
Y97028D01*
X2865628D01*
X2858008D02*
Y101092D01*
X2862072D01*
Y97028D01*
X2858008D01*
X2903728Y76708D02*
Y80772D01*
X2907792D01*
Y76708D01*
X2903728D01*
X2896108D02*
Y80772D01*
X2900172D01*
Y76708D01*
X2896108D01*
X2888488D02*
Y80772D01*
X2892552D01*
Y76708D01*
X2888488D01*
X2880868D02*
Y80772D01*
X2884932D01*
Y76708D01*
X2880868D01*
X2873248D02*
Y80772D01*
X2877312D01*
Y76708D01*
X2873248D01*
X2865628D02*
Y80772D01*
X2869692D01*
Y76708D01*
X2865628D01*
X2858008D02*
Y80772D01*
X2862072D01*
Y76708D01*
X2858008D01*
X2840228Y13208D02*
Y17272D01*
X2844292D01*
Y13208D01*
X2840228D01*
Y20828D02*
Y24892D01*
X2844292D01*
Y20828D01*
X2840228D01*
Y28448D02*
Y32512D01*
X2844292D01*
Y28448D01*
X2840228D01*
Y36068D02*
Y40132D01*
X2844292D01*
Y36068D01*
X2840228D01*
Y43688D02*
Y47752D01*
X2844292D01*
Y43688D01*
X2840228D01*
Y51308D02*
Y55372D01*
X2844292D01*
Y51308D01*
X2840228D01*
Y58928D02*
Y62992D01*
X2844292D01*
Y58928D01*
X2840228D01*
X2819908Y13208D02*
Y17272D01*
X2823972D01*
Y13208D01*
X2819908D01*
Y20828D02*
Y24892D01*
X2823972D01*
Y20828D01*
X2819908D01*
Y28448D02*
Y32512D01*
X2823972D01*
Y28448D01*
X2819908D01*
Y36068D02*
Y40132D01*
X2823972D01*
Y36068D01*
X2819908D01*
Y43688D02*
Y47752D01*
X2823972D01*
Y43688D01*
X2819908D01*
Y51308D02*
Y55372D01*
X2823972D01*
Y51308D01*
X2819908D01*
Y58928D02*
Y62992D01*
X2823972D01*
Y58928D01*
X2819908D01*
X1468628Y13208D02*
Y17272D01*
X1472692D01*
Y13208D01*
X1468628D01*
Y20828D02*
Y24892D01*
X1472692D01*
Y20828D01*
X1468628D01*
Y28448D02*
Y32512D01*
X1472692D01*
Y28448D01*
X1468628D01*
Y36068D02*
Y40132D01*
X1472692D01*
Y36068D01*
X1468628D01*
Y43688D02*
Y47752D01*
X1472692D01*
Y43688D01*
X1468628D01*
Y51308D02*
Y55372D01*
X1472692D01*
Y51308D01*
X1468628D01*
Y58928D02*
Y62992D01*
X1472692D01*
Y58928D01*
X1468628D01*
X1448308Y13208D02*
Y17272D01*
X1452372D01*
Y13208D01*
X1448308D01*
Y20828D02*
Y24892D01*
X1452372D01*
Y20828D01*
X1448308D01*
Y28448D02*
Y32512D01*
X1452372D01*
Y28448D01*
X1448308D01*
Y36068D02*
Y40132D01*
X1452372D01*
Y36068D01*
X1448308D01*
Y43688D02*
Y47752D01*
X1452372D01*
Y43688D01*
X1448308D01*
Y51308D02*
Y55372D01*
X1452372D01*
Y51308D01*
X1448308D01*
Y58928D02*
Y62992D01*
X1452372D01*
Y58928D01*
X1448308D01*
X97028Y13208D02*
Y17272D01*
X101092D01*
Y13208D01*
X97028D01*
Y20828D02*
Y24892D01*
X101092D01*
Y20828D01*
X97028D01*
Y28448D02*
Y32512D01*
X101092D01*
Y28448D01*
X97028D01*
Y36068D02*
Y40132D01*
X101092D01*
Y36068D01*
X97028D01*
Y43688D02*
Y47752D01*
X101092D01*
Y43688D01*
X97028D01*
Y51308D02*
Y55372D01*
X101092D01*
Y51308D01*
X97028D01*
Y58928D02*
Y62992D01*
X101092D01*
Y58928D01*
X97028D01*
X13208Y97028D02*
Y101092D01*
X17272D01*
Y97028D01*
X13208D01*
X20828D02*
Y101092D01*
X24892D01*
Y97028D01*
X20828D01*
X28448D02*
Y101092D01*
X32512D01*
Y97028D01*
X28448D01*
X36068D02*
Y101092D01*
X40132D01*
Y97028D01*
X36068D01*
X43688D02*
Y101092D01*
X47752D01*
Y97028D01*
X43688D01*
X51308D02*
Y101092D01*
X55372D01*
Y97028D01*
X51308D01*
X58928D02*
Y101092D01*
X62992D01*
Y97028D01*
X58928D01*
X13208Y559308D02*
Y563372D01*
X17272D01*
Y559308D01*
X13208D01*
X20828D02*
Y563372D01*
X24892D01*
Y559308D01*
X20828D01*
X28448D02*
Y563372D01*
X32512D01*
Y559308D01*
X28448D01*
X36068D02*
Y563372D01*
X40132D01*
Y559308D01*
X36068D01*
X43688D02*
Y563372D01*
X47752D01*
Y559308D01*
X43688D01*
X51308D02*
Y563372D01*
X55372D01*
Y559308D01*
X51308D01*
X58928D02*
Y563372D01*
X62992D01*
Y559308D01*
X58928D01*
X13208Y579628D02*
Y583692D01*
X17272D01*
Y579628D01*
X13208D01*
X20828D02*
Y583692D01*
X24892D01*
Y579628D01*
X20828D01*
X28448D02*
Y583692D01*
X32512D01*
Y579628D01*
X28448D01*
X36068D02*
Y583692D01*
X40132D01*
Y579628D01*
X36068D01*
X43688D02*
Y583692D01*
X47752D01*
Y579628D01*
X43688D01*
X51308D02*
Y583692D01*
X55372D01*
Y579628D01*
X51308D01*
X58928D02*
Y583692D01*
X62992D01*
Y579628D01*
X58928D01*
X13208Y1041908D02*
Y1045972D01*
X17272D01*
Y1041908D01*
X13208D01*
X20828D02*
Y1045972D01*
X24892D01*
Y1041908D01*
X20828D01*
X28448D02*
Y1045972D01*
X32512D01*
Y1041908D01*
X28448D01*
X36068D02*
Y1045972D01*
X40132D01*
Y1041908D01*
X36068D01*
X43688D02*
Y1045972D01*
X47752D01*
Y1041908D01*
X43688D01*
X51308D02*
Y1045972D01*
X55372D01*
Y1041908D01*
X51308D01*
X58928D02*
Y1045972D01*
X62992D01*
Y1041908D01*
X58928D01*
X13208Y1062228D02*
Y1066292D01*
X17272D01*
Y1062228D01*
X13208D01*
X20828D02*
Y1066292D01*
X24892D01*
Y1062228D01*
X20828D01*
X28448D02*
Y1066292D01*
X32512D01*
Y1062228D01*
X28448D01*
X36068D02*
Y1066292D01*
X40132D01*
Y1062228D01*
X36068D01*
X43688D02*
Y1066292D01*
X47752D01*
Y1062228D01*
X43688D01*
X51308D02*
Y1066292D01*
X55372D01*
Y1062228D01*
X51308D01*
X58928D02*
Y1066292D01*
X62992D01*
Y1062228D01*
X58928D01*
X13208Y1524508D02*
Y1528572D01*
X17272D01*
Y1524508D01*
X13208D01*
X20828D02*
Y1528572D01*
X24892D01*
Y1524508D01*
X20828D01*
X28448D02*
Y1528572D01*
X32512D01*
Y1524508D01*
X28448D01*
X36068D02*
Y1528572D01*
X40132D01*
Y1524508D01*
X36068D01*
X43688D02*
Y1528572D01*
X47752D01*
Y1524508D01*
X43688D01*
X51308D02*
Y1528572D01*
X55372D01*
Y1524508D01*
X51308D01*
X58928D02*
Y1528572D01*
X62992D01*
Y1524508D01*
X58928D01*
X13208Y1544828D02*
Y1548892D01*
X17272D01*
Y1544828D01*
X13208D01*
X20828D02*
Y1548892D01*
X24892D01*
Y1544828D01*
X20828D01*
X28448D02*
Y1548892D01*
X32512D01*
Y1544828D01*
X28448D01*
X36068D02*
Y1548892D01*
X40132D01*
Y1544828D01*
X36068D01*
X43688D02*
Y1548892D01*
X47752D01*
Y1544828D01*
X43688D01*
X51308D02*
Y1548892D01*
X55372D01*
Y1544828D01*
X51308D01*
X58928D02*
Y1548892D01*
X62992D01*
Y1544828D01*
X58928D01*
X13208Y2007108D02*
Y2011172D01*
X17272D01*
Y2007108D01*
X13208D01*
X20828D02*
Y2011172D01*
X24892D01*
Y2007108D01*
X20828D01*
X28448D02*
Y2011172D01*
X32512D01*
Y2007108D01*
X28448D01*
X36068D02*
Y2011172D01*
X40132D01*
Y2007108D01*
X36068D01*
X43688D02*
Y2011172D01*
X47752D01*
Y2007108D01*
X43688D01*
X51308D02*
Y2011172D01*
X55372D01*
Y2007108D01*
X51308D01*
X58928D02*
Y2011172D01*
X62992D01*
Y2007108D01*
X58928D01*
X97028Y2090928D02*
Y2094992D01*
X101092D01*
Y2090928D01*
X97028D01*
Y2083308D02*
Y2087372D01*
X101092D01*
Y2083308D01*
X97028D01*
Y2075688D02*
Y2079752D01*
X101092D01*
Y2075688D01*
X97028D01*
Y2068068D02*
Y2072132D01*
X101092D01*
Y2068068D01*
X97028D01*
Y2060448D02*
Y2064512D01*
X101092D01*
Y2060448D01*
X97028D01*
Y2052828D02*
Y2056892D01*
X101092D01*
Y2052828D01*
X97028D01*
Y2045208D02*
Y2049272D01*
X101092D01*
Y2045208D01*
X97028D01*
X2395728Y1544828D02*
Y1548892D01*
X2399792D01*
Y1544828D01*
X2395728D01*
X2388108D02*
Y1548892D01*
X2392172D01*
Y1544828D01*
X2388108D01*
X2380488D02*
Y1548892D01*
X2384552D01*
Y1544828D01*
X2380488D01*
X2372868D02*
Y1548892D01*
X2376932D01*
Y1544828D01*
X2372868D01*
X2365248D02*
Y1548892D01*
X2369312D01*
Y1544828D01*
X2365248D01*
X2357628D02*
Y1548892D01*
X2361692D01*
Y1544828D01*
X2357628D01*
X2350008D02*
Y1548892D01*
X2354072D01*
Y1544828D01*
X2350008D01*
X2395728Y1524508D02*
Y1528572D01*
X2399792D01*
Y1524508D01*
X2395728D01*
X2388108D02*
Y1528572D01*
X2392172D01*
Y1524508D01*
X2388108D01*
X2380488D02*
Y1528572D01*
X2384552D01*
Y1524508D01*
X2380488D01*
X2372868D02*
Y1528572D01*
X2376932D01*
Y1524508D01*
X2372868D01*
X2365248D02*
Y1528572D01*
X2369312D01*
Y1524508D01*
X2365248D01*
X2357628D02*
Y1528572D01*
X2361692D01*
Y1524508D01*
X2357628D01*
X2350008D02*
Y1528572D01*
X2354072D01*
Y1524508D01*
X2350008D01*
X1925828Y1544828D02*
Y1548892D01*
X1929892D01*
Y1544828D01*
X1925828D01*
X1918208D02*
Y1548892D01*
X1922272D01*
Y1544828D01*
X1918208D01*
X1910588D02*
Y1548892D01*
X1914652D01*
Y1544828D01*
X1910588D01*
X1902968D02*
Y1548892D01*
X1907032D01*
Y1544828D01*
X1902968D01*
X1895348D02*
Y1548892D01*
X1899412D01*
Y1544828D01*
X1895348D01*
X1887728D02*
Y1548892D01*
X1891792D01*
Y1544828D01*
X1887728D01*
X1880108D02*
Y1548892D01*
X1884172D01*
Y1544828D01*
X1880108D01*
X1925828Y1524508D02*
Y1528572D01*
X1929892D01*
Y1524508D01*
X1925828D01*
X1918208D02*
Y1528572D01*
X1922272D01*
Y1524508D01*
X1918208D01*
X1910588D02*
Y1528572D01*
X1914652D01*
Y1524508D01*
X1910588D01*
X1902968D02*
Y1528572D01*
X1907032D01*
Y1524508D01*
X1902968D01*
X1895348D02*
Y1528572D01*
X1899412D01*
Y1524508D01*
X1895348D01*
X1887728D02*
Y1528572D01*
X1891792D01*
Y1524508D01*
X1887728D01*
X1880108D02*
Y1528572D01*
X1884172D01*
Y1524508D01*
X1880108D01*
X1024128Y579628D02*
Y583692D01*
X1028192D01*
Y579628D01*
X1024128D01*
X1016508D02*
Y583692D01*
X1020572D01*
Y579628D01*
X1016508D01*
X1008888D02*
Y583692D01*
X1012952D01*
Y579628D01*
X1008888D01*
X1001268D02*
Y583692D01*
X1005332D01*
Y579628D01*
X1001268D01*
X993648D02*
Y583692D01*
X997712D01*
Y579628D01*
X993648D01*
X986028D02*
Y583692D01*
X990092D01*
Y579628D01*
X986028D01*
X978408D02*
Y583692D01*
X982472D01*
Y579628D01*
X978408D01*
X1024128Y559308D02*
Y563372D01*
X1028192D01*
Y559308D01*
X1024128D01*
X1016508D02*
Y563372D01*
X1020572D01*
Y559308D01*
X1016508D01*
X1008888D02*
Y563372D01*
X1012952D01*
Y559308D01*
X1008888D01*
X1001268D02*
Y563372D01*
X1005332D01*
Y559308D01*
X1001268D01*
X993648D02*
Y563372D01*
X997712D01*
Y559308D01*
X993648D01*
X986028D02*
Y563372D01*
X990092D01*
Y559308D01*
X986028D01*
X978408D02*
Y563372D01*
X982472D01*
Y559308D01*
X978408D01*
X1925828Y579628D02*
Y583692D01*
X1929892D01*
Y579628D01*
X1925828D01*
X1918208D02*
Y583692D01*
X1922272D01*
Y579628D01*
X1918208D01*
X1910588D02*
Y583692D01*
X1914652D01*
Y579628D01*
X1910588D01*
X1902968D02*
Y583692D01*
X1907032D01*
Y579628D01*
X1902968D01*
X1895348D02*
Y583692D01*
X1899412D01*
Y579628D01*
X1895348D01*
X1887728D02*
Y583692D01*
X1891792D01*
Y579628D01*
X1887728D01*
X1880108D02*
Y583692D01*
X1884172D01*
Y579628D01*
X1880108D01*
X1925828Y559308D02*
Y563372D01*
X1929892D01*
Y559308D01*
X1925828D01*
X1918208D02*
Y563372D01*
X1922272D01*
Y559308D01*
X1918208D01*
X1910588D02*
Y563372D01*
X1914652D01*
Y559308D01*
X1910588D01*
X1902968D02*
Y563372D01*
X1907032D01*
Y559308D01*
X1902968D01*
X1895348D02*
Y563372D01*
X1899412D01*
Y559308D01*
X1895348D01*
X1887728D02*
Y563372D01*
X1891792D01*
Y559308D01*
X1887728D01*
X1880108D02*
Y563372D01*
X1884172D01*
Y559308D01*
X1880108D01*
X2395728Y579628D02*
Y583692D01*
X2399792D01*
Y579628D01*
X2395728D01*
X2388108D02*
Y583692D01*
X2392172D01*
Y579628D01*
X2388108D01*
X2380488D02*
Y583692D01*
X2384552D01*
Y579628D01*
X2380488D01*
X2372868D02*
Y583692D01*
X2376932D01*
Y579628D01*
X2372868D01*
X2365248D02*
Y583692D01*
X2369312D01*
Y579628D01*
X2365248D01*
X2357628D02*
Y583692D01*
X2361692D01*
Y579628D01*
X2357628D01*
X2350008D02*
Y583692D01*
X2354072D01*
Y579628D01*
X2350008D01*
X2395728Y559308D02*
Y563372D01*
X2399792D01*
Y559308D01*
X2395728D01*
X2388108D02*
Y563372D01*
X2392172D01*
Y559308D01*
X2388108D01*
X2380488D02*
Y563372D01*
X2384552D01*
Y559308D01*
X2380488D01*
X2372868D02*
Y563372D01*
X2376932D01*
Y559308D01*
X2372868D01*
X2365248D02*
Y563372D01*
X2369312D01*
Y559308D01*
X2365248D01*
X2357628D02*
Y563372D01*
X2361692D01*
Y559308D01*
X2357628D01*
X2350008D02*
Y563372D01*
X2354072D01*
Y559308D01*
X2350008D01*
X2395728Y1062228D02*
Y1066292D01*
X2399792D01*
Y1062228D01*
X2395728D01*
X2388108D02*
Y1066292D01*
X2392172D01*
Y1062228D01*
X2388108D01*
X2380488D02*
Y1066292D01*
X2384552D01*
Y1062228D01*
X2380488D01*
X2372868D02*
Y1066292D01*
X2376932D01*
Y1062228D01*
X2372868D01*
X2365248D02*
Y1066292D01*
X2369312D01*
Y1062228D01*
X2365248D01*
X2357628D02*
Y1066292D01*
X2361692D01*
Y1062228D01*
X2357628D01*
X2350008D02*
Y1066292D01*
X2354072D01*
Y1062228D01*
X2350008D01*
X2395728Y1041908D02*
Y1045972D01*
X2399792D01*
Y1041908D01*
X2395728D01*
X2388108D02*
Y1045972D01*
X2392172D01*
Y1041908D01*
X2388108D01*
X2380488D02*
Y1045972D01*
X2384552D01*
Y1041908D01*
X2380488D01*
X2372868D02*
Y1045972D01*
X2376932D01*
Y1041908D01*
X2372868D01*
X2365248D02*
Y1045972D01*
X2369312D01*
Y1041908D01*
X2365248D01*
X2357628D02*
Y1045972D01*
X2361692D01*
Y1041908D01*
X2357628D01*
X2350008D02*
Y1045972D01*
X2354072D01*
Y1041908D01*
X2350008D01*
X1925828Y1062228D02*
Y1066292D01*
X1929892D01*
Y1062228D01*
X1925828D01*
X1918208D02*
Y1066292D01*
X1922272D01*
Y1062228D01*
X1918208D01*
X1910588D02*
Y1066292D01*
X1914652D01*
Y1062228D01*
X1910588D01*
X1902968D02*
Y1066292D01*
X1907032D01*
Y1062228D01*
X1902968D01*
X1895348D02*
Y1066292D01*
X1899412D01*
Y1062228D01*
X1895348D01*
X1887728D02*
Y1066292D01*
X1891792D01*
Y1062228D01*
X1887728D01*
X1880108D02*
Y1066292D01*
X1884172D01*
Y1062228D01*
X1880108D01*
X1925828Y1041908D02*
Y1045972D01*
X1929892D01*
Y1041908D01*
X1925828D01*
X1918208D02*
Y1045972D01*
X1922272D01*
Y1041908D01*
X1918208D01*
X1910588D02*
Y1045972D01*
X1914652D01*
Y1041908D01*
X1910588D01*
X1902968D02*
Y1045972D01*
X1907032D01*
Y1041908D01*
X1902968D01*
X1895348D02*
Y1045972D01*
X1899412D01*
Y1041908D01*
X1895348D01*
X1887728D02*
Y1045972D01*
X1891792D01*
Y1041908D01*
X1887728D01*
X1880108D02*
Y1045972D01*
X1884172D01*
Y1041908D01*
X1880108D01*
X1024128Y1062228D02*
Y1066292D01*
X1028192D01*
Y1062228D01*
X1024128D01*
X1016508D02*
Y1066292D01*
X1020572D01*
Y1062228D01*
X1016508D01*
X1008888D02*
Y1066292D01*
X1012952D01*
Y1062228D01*
X1008888D01*
X1001268D02*
Y1066292D01*
X1005332D01*
Y1062228D01*
X1001268D01*
X993648D02*
Y1066292D01*
X997712D01*
Y1062228D01*
X993648D01*
X986028D02*
Y1066292D01*
X990092D01*
Y1062228D01*
X986028D01*
X978408D02*
Y1066292D01*
X982472D01*
Y1062228D01*
X978408D01*
X1024128Y1041908D02*
Y1045972D01*
X1028192D01*
Y1041908D01*
X1024128D01*
X1016508D02*
Y1045972D01*
X1020572D01*
Y1041908D01*
X1016508D01*
X1008888D02*
Y1045972D01*
X1012952D01*
Y1041908D01*
X1008888D01*
X1001268D02*
Y1045972D01*
X1005332D01*
Y1041908D01*
X1001268D01*
X993648D02*
Y1045972D01*
X997712D01*
Y1041908D01*
X993648D01*
X986028D02*
Y1045972D01*
X990092D01*
Y1041908D01*
X986028D01*
X978408D02*
Y1045972D01*
X982472D01*
Y1041908D01*
X978408D01*
X508508Y559308D02*
Y563372D01*
X512572D01*
Y559308D01*
X508508D01*
X516128D02*
Y563372D01*
X520192D01*
Y559308D01*
X516128D01*
X523748D02*
Y563372D01*
X527812D01*
Y559308D01*
X523748D01*
X531368D02*
Y563372D01*
X535432D01*
Y559308D01*
X531368D01*
X538988D02*
Y563372D01*
X543052D01*
Y559308D01*
X538988D01*
X546608D02*
Y563372D01*
X550672D01*
Y559308D01*
X546608D01*
X554228D02*
Y563372D01*
X558292D01*
Y559308D01*
X554228D01*
X508508Y579628D02*
Y583692D01*
X512572D01*
Y579628D01*
X508508D01*
X516128D02*
Y583692D01*
X520192D01*
Y579628D01*
X516128D01*
X523748D02*
Y583692D01*
X527812D01*
Y579628D01*
X523748D01*
X531368D02*
Y583692D01*
X535432D01*
Y579628D01*
X531368D01*
X538988D02*
Y583692D01*
X543052D01*
Y579628D01*
X538988D01*
X546608D02*
Y583692D01*
X550672D01*
Y579628D01*
X546608D01*
X554228D02*
Y583692D01*
X558292D01*
Y579628D01*
X554228D01*
X508508Y1041908D02*
Y1045972D01*
X512572D01*
Y1041908D01*
X508508D01*
X516128D02*
Y1045972D01*
X520192D01*
Y1041908D01*
X516128D01*
X523748D02*
Y1045972D01*
X527812D01*
Y1041908D01*
X523748D01*
X531368D02*
Y1045972D01*
X535432D01*
Y1041908D01*
X531368D01*
X538988D02*
Y1045972D01*
X543052D01*
Y1041908D01*
X538988D01*
X546608D02*
Y1045972D01*
X550672D01*
Y1041908D01*
X546608D01*
X554228D02*
Y1045972D01*
X558292D01*
Y1041908D01*
X554228D01*
X508508Y1062228D02*
Y1066292D01*
X512572D01*
Y1062228D01*
X508508D01*
X516128D02*
Y1066292D01*
X520192D01*
Y1062228D01*
X516128D01*
X523748D02*
Y1066292D01*
X527812D01*
Y1062228D01*
X523748D01*
X531368D02*
Y1066292D01*
X535432D01*
Y1062228D01*
X531368D01*
X538988D02*
Y1066292D01*
X543052D01*
Y1062228D01*
X538988D01*
X546608D02*
Y1066292D01*
X550672D01*
Y1062228D01*
X546608D01*
X554228D02*
Y1066292D01*
X558292D01*
Y1062228D01*
X554228D01*
X978408Y1524508D02*
Y1528572D01*
X982472D01*
Y1524508D01*
X978408D01*
X986028D02*
Y1528572D01*
X990092D01*
Y1524508D01*
X986028D01*
X993648D02*
Y1528572D01*
X997712D01*
Y1524508D01*
X993648D01*
X1001268D02*
Y1528572D01*
X1005332D01*
Y1524508D01*
X1001268D01*
X1008888D02*
Y1528572D01*
X1012952D01*
Y1524508D01*
X1008888D01*
X1016508D02*
Y1528572D01*
X1020572D01*
Y1524508D01*
X1016508D01*
X1024128D02*
Y1528572D01*
X1028192D01*
Y1524508D01*
X1024128D01*
X978408Y1544828D02*
Y1548892D01*
X982472D01*
Y1544828D01*
X978408D01*
X986028D02*
Y1548892D01*
X990092D01*
Y1544828D01*
X986028D01*
X993648D02*
Y1548892D01*
X997712D01*
Y1544828D01*
X993648D01*
X1001268D02*
Y1548892D01*
X1005332D01*
Y1544828D01*
X1001268D01*
X1008888D02*
Y1548892D01*
X1012952D01*
Y1544828D01*
X1008888D01*
X1016508D02*
Y1548892D01*
X1020572D01*
Y1544828D01*
X1016508D01*
X1024128D02*
Y1548892D01*
X1028192D01*
Y1544828D01*
X1024128D01*
X508508Y1524508D02*
Y1528572D01*
X512572D01*
Y1524508D01*
X508508D01*
X516128D02*
Y1528572D01*
X520192D01*
Y1524508D01*
X516128D01*
X523748D02*
Y1528572D01*
X527812D01*
Y1524508D01*
X523748D01*
X531368D02*
Y1528572D01*
X535432D01*
Y1524508D01*
X531368D01*
X538988D02*
Y1528572D01*
X543052D01*
Y1524508D01*
X538988D01*
X546608D02*
Y1528572D01*
X550672D01*
Y1524508D01*
X546608D01*
X554228D02*
Y1528572D01*
X558292D01*
Y1524508D01*
X554228D01*
X508508Y1544828D02*
Y1548892D01*
X512572D01*
Y1544828D01*
X508508D01*
X516128D02*
Y1548892D01*
X520192D01*
Y1544828D01*
X516128D01*
X523748D02*
Y1548892D01*
X527812D01*
Y1544828D01*
X523748D01*
X531368D02*
Y1548892D01*
X535432D01*
Y1544828D01*
X531368D01*
X538988D02*
Y1548892D01*
X543052D01*
Y1544828D01*
X538988D01*
X546608D02*
Y1548892D01*
X550672D01*
Y1544828D01*
X546608D01*
X554228D02*
Y1548892D01*
X558292D01*
Y1544828D01*
X554228D01*
X2362708Y2007108D02*
Y2011172D01*
X2366772D01*
Y2007108D01*
X2362708D01*
X2370328D02*
Y2011172D01*
X2374392D01*
Y2007108D01*
X2370328D01*
X2377948D02*
Y2011172D01*
X2382012D01*
Y2007108D01*
X2377948D01*
X2385568D02*
Y2011172D01*
X2389632D01*
Y2007108D01*
X2385568D01*
X2393188D02*
Y2011172D01*
X2397252D01*
Y2007108D01*
X2393188D01*
X2400808D02*
Y2011172D01*
X2404872D01*
Y2007108D01*
X2400808D01*
X2408428D02*
Y2011172D01*
X2412492D01*
Y2007108D01*
X2408428D01*
X2819908Y1798828D02*
Y1802892D01*
X2823972D01*
Y1798828D01*
X2819908D01*
Y1791208D02*
Y1795272D01*
X2823972D01*
Y1791208D01*
X2819908D01*
Y1783588D02*
Y1787652D01*
X2823972D01*
Y1783588D01*
X2819908D01*
Y1775968D02*
Y1780032D01*
X2823972D01*
Y1775968D01*
X2819908D01*
Y1768348D02*
Y1772412D01*
X2823972D01*
Y1768348D01*
X2819908D01*
Y1760728D02*
Y1764792D01*
X2823972D01*
Y1760728D01*
X2819908D01*
Y1753108D02*
Y1757172D01*
X2823972D01*
Y1753108D01*
X2819908D01*
Y1316228D02*
Y1320292D01*
X2823972D01*
Y1316228D01*
X2819908D01*
Y1308608D02*
Y1312672D01*
X2823972D01*
Y1308608D01*
X2819908D01*
Y1300988D02*
Y1305052D01*
X2823972D01*
Y1300988D01*
X2819908D01*
Y1293368D02*
Y1297432D01*
X2823972D01*
Y1293368D01*
X2819908D01*
Y1285748D02*
Y1289812D01*
X2823972D01*
Y1285748D01*
X2819908D01*
Y1278128D02*
Y1282192D01*
X2823972D01*
Y1278128D01*
X2819908D01*
Y1270508D02*
Y1274572D01*
X2823972D01*
Y1270508D01*
X2819908D01*
Y833628D02*
Y837692D01*
X2823972D01*
Y833628D01*
X2819908D01*
Y826008D02*
Y830072D01*
X2823972D01*
Y826008D01*
X2819908D01*
Y818388D02*
Y822452D01*
X2823972D01*
Y818388D01*
X2819908D01*
Y810768D02*
Y814832D01*
X2823972D01*
Y810768D01*
X2819908D01*
Y803148D02*
Y807212D01*
X2823972D01*
Y803148D01*
X2819908D01*
Y795528D02*
Y799592D01*
X2823972D01*
Y795528D01*
X2819908D01*
Y787908D02*
Y791972D01*
X2823972D01*
Y787908D01*
X2819908D01*
Y351028D02*
Y355092D01*
X2823972D01*
Y351028D01*
X2819908D01*
Y343408D02*
Y347472D01*
X2823972D01*
Y343408D01*
X2819908D01*
Y335788D02*
Y339852D01*
X2823972D01*
Y335788D01*
X2819908D01*
Y328168D02*
Y332232D01*
X2823972D01*
Y328168D01*
X2819908D01*
Y320548D02*
Y324612D01*
X2823972D01*
Y320548D01*
X2819908D01*
Y312928D02*
Y316992D01*
X2823972D01*
Y312928D01*
X2819908D01*
Y305308D02*
Y309372D01*
X2823972D01*
Y305308D01*
X2819908D01*
X2395728Y97028D02*
Y101092D01*
X2399792D01*
Y97028D01*
X2395728D01*
X2388108D02*
Y101092D01*
X2392172D01*
Y97028D01*
X2388108D01*
X2380488D02*
Y101092D01*
X2384552D01*
Y97028D01*
X2380488D01*
X2372868D02*
Y101092D01*
X2376932D01*
Y97028D01*
X2372868D01*
X2365248D02*
Y101092D01*
X2369312D01*
Y97028D01*
X2365248D01*
X2357628D02*
Y101092D01*
X2361692D01*
Y97028D01*
X2357628D01*
X2350008D02*
Y101092D01*
X2354072D01*
Y97028D01*
X2350008D01*
X1925828D02*
Y101092D01*
X1929892D01*
Y97028D01*
X1925828D01*
X1918208D02*
Y101092D01*
X1922272D01*
Y97028D01*
X1918208D01*
X1910588D02*
Y101092D01*
X1914652D01*
Y97028D01*
X1910588D01*
X1902968D02*
Y101092D01*
X1907032D01*
Y97028D01*
X1902968D01*
X1895348D02*
Y101092D01*
X1899412D01*
Y97028D01*
X1895348D01*
X1887728D02*
Y101092D01*
X1891792D01*
Y97028D01*
X1887728D01*
X1880108D02*
Y101092D01*
X1884172D01*
Y97028D01*
X1880108D01*
X1024128D02*
Y101092D01*
X1028192D01*
Y97028D01*
X1024128D01*
X1016508D02*
Y101092D01*
X1020572D01*
Y97028D01*
X1016508D01*
X1008888D02*
Y101092D01*
X1012952D01*
Y97028D01*
X1008888D01*
X1001268D02*
Y101092D01*
X1005332D01*
Y97028D01*
X1001268D01*
X993648D02*
Y101092D01*
X997712D01*
Y97028D01*
X993648D01*
X986028D02*
Y101092D01*
X990092D01*
Y97028D01*
X986028D01*
X978408D02*
Y101092D01*
X982472D01*
Y97028D01*
X978408D01*
X554228D02*
Y101092D01*
X558292D01*
Y97028D01*
X554228D01*
X546608D02*
Y101092D01*
X550672D01*
Y97028D01*
X546608D01*
X538988D02*
Y101092D01*
X543052D01*
Y97028D01*
X538988D01*
X531368D02*
Y101092D01*
X535432D01*
Y97028D01*
X531368D01*
X523748D02*
Y101092D01*
X527812D01*
Y97028D01*
X523748D01*
X516128D02*
Y101092D01*
X520192D01*
Y97028D01*
X516128D01*
X508508D02*
Y101092D01*
X512572D01*
Y97028D01*
X508508D01*
X97028Y305308D02*
Y309372D01*
X101092D01*
Y305308D01*
X97028D01*
Y312928D02*
Y316992D01*
X101092D01*
Y312928D01*
X97028D01*
Y320548D02*
Y324612D01*
X101092D01*
Y320548D01*
X97028D01*
Y328168D02*
Y332232D01*
X101092D01*
Y328168D01*
X97028D01*
Y335788D02*
Y339852D01*
X101092D01*
Y335788D01*
X97028D01*
Y343408D02*
Y347472D01*
X101092D01*
Y343408D01*
X97028D01*
Y351028D02*
Y355092D01*
X101092D01*
Y351028D01*
X97028D01*
Y787908D02*
Y791972D01*
X101092D01*
Y787908D01*
X97028D01*
Y795528D02*
Y799592D01*
X101092D01*
Y795528D01*
X97028D01*
Y803148D02*
Y807212D01*
X101092D01*
Y803148D01*
X97028D01*
Y810768D02*
Y814832D01*
X101092D01*
Y810768D01*
X97028D01*
Y818388D02*
Y822452D01*
X101092D01*
Y818388D01*
X97028D01*
Y826008D02*
Y830072D01*
X101092D01*
Y826008D01*
X97028D01*
Y833628D02*
Y837692D01*
X101092D01*
Y833628D01*
X97028D01*
Y1270508D02*
Y1274572D01*
X101092D01*
Y1270508D01*
X97028D01*
Y1278128D02*
Y1282192D01*
X101092D01*
Y1278128D01*
X97028D01*
Y1285748D02*
Y1289812D01*
X101092D01*
Y1285748D01*
X97028D01*
Y1293368D02*
Y1297432D01*
X101092D01*
Y1293368D01*
X97028D01*
Y1300988D02*
Y1305052D01*
X101092D01*
Y1300988D01*
X97028D01*
Y1308608D02*
Y1312672D01*
X101092D01*
Y1308608D01*
X97028D01*
Y1316228D02*
Y1320292D01*
X101092D01*
Y1316228D01*
X97028D01*
Y1753108D02*
Y1757172D01*
X101092D01*
Y1753108D01*
X97028D01*
Y1760728D02*
Y1764792D01*
X101092D01*
Y1760728D01*
X97028D01*
Y1768348D02*
Y1772412D01*
X101092D01*
Y1768348D01*
X97028D01*
Y1775968D02*
Y1780032D01*
X101092D01*
Y1775968D01*
X97028D01*
Y1783588D02*
Y1787652D01*
X101092D01*
Y1783588D01*
X97028D01*
Y1791208D02*
Y1795272D01*
X101092D01*
Y1791208D01*
X97028D01*
Y1798828D02*
Y1802892D01*
X101092D01*
Y1798828D01*
X97028D01*
X1892808Y2007108D02*
Y2011172D01*
X1896872D01*
Y2007108D01*
X1892808D01*
X1900428D02*
Y2011172D01*
X1904492D01*
Y2007108D01*
X1900428D01*
X1908048D02*
Y2011172D01*
X1912112D01*
Y2007108D01*
X1908048D01*
X1915668D02*
Y2011172D01*
X1919732D01*
Y2007108D01*
X1915668D01*
X1923288D02*
Y2011172D01*
X1927352D01*
Y2007108D01*
X1923288D01*
X1930908D02*
Y2011172D01*
X1934972D01*
Y2007108D01*
X1930908D01*
X1938528D02*
Y2011172D01*
X1942592D01*
Y2007108D01*
X1938528D01*
X991108D02*
Y2011172D01*
X995172D01*
Y2007108D01*
X991108D01*
X998728D02*
Y2011172D01*
X1002792D01*
Y2007108D01*
X998728D01*
X1006348D02*
Y2011172D01*
X1010412D01*
Y2007108D01*
X1006348D01*
X1013968D02*
Y2011172D01*
X1018032D01*
Y2007108D01*
X1013968D01*
X1021588D02*
Y2011172D01*
X1025652D01*
Y2007108D01*
X1021588D01*
X1029208D02*
Y2011172D01*
X1033272D01*
Y2007108D01*
X1029208D01*
X1036828D02*
Y2011172D01*
X1040892D01*
Y2007108D01*
X1036828D01*
X566928D02*
Y2011172D01*
X570992D01*
Y2007108D01*
X566928D01*
X559308D02*
Y2011172D01*
X563372D01*
Y2007108D01*
X559308D01*
X551688D02*
Y2011172D01*
X555752D01*
Y2007108D01*
X551688D01*
X544068D02*
Y2011172D01*
X548132D01*
Y2007108D01*
X544068D01*
X536448D02*
Y2011172D01*
X540512D01*
Y2007108D01*
X536448D01*
X528828D02*
Y2011172D01*
X532892D01*
Y2007108D01*
X528828D01*
X521208D02*
Y2011172D01*
X525272D01*
Y2007108D01*
X521208D01*
X1172700Y484418D02*
X1170668Y488482D01*
X1174732D01*
X1172700Y484418D01*
X1138700D02*
X1136668Y488482D01*
X1140732D01*
X1138700Y484418D01*
X1172700Y349718D02*
X1170668Y353782D01*
X1174732D01*
X1172700Y349718D01*
X1138700D02*
X1136668Y353782D01*
X1140732D01*
X1138700Y349718D01*
X537700Y484418D02*
X535668Y488482D01*
X539732D01*
X537700Y484418D01*
X503700D02*
X501668Y488482D01*
X505732D01*
X503700Y484418D01*
X537700Y349718D02*
X535668Y353782D01*
X539732D01*
X537700Y349718D01*
X503700D02*
X501668Y353782D01*
X505732D01*
X503700Y349718D01*
X647700Y188868D02*
X648716Y189884D01*
X649732D01*
X648716Y190900D01*
X649732Y191916D01*
X648716D01*
X647700Y192932D01*
X646684Y191916D01*
X645668D01*
X646684Y190900D01*
X645668Y189884D01*
X646684D01*
X647700Y188868D01*
Y238868D02*
X648716Y239884D01*
X649732D01*
X648716Y240900D01*
X649732Y241916D01*
X648716D01*
X647700Y242932D01*
X646684Y241916D01*
X645668D01*
X646684Y240900D01*
X645668Y239884D01*
X646684D01*
X647700Y238868D01*
X264668Y249868D02*
X265684Y251900D01*
X264668Y253932D01*
X266700Y252916D01*
X268732Y253932D01*
X267716Y251900D01*
X268732Y249868D01*
X266700Y250884D01*
X264668Y249868D01*
Y177868D02*
X265684Y179900D01*
X264668Y181932D01*
X266700Y180916D01*
X268732Y181932D01*
X267716Y179900D01*
X268732Y177868D01*
X266700Y178884D01*
X264668Y177868D01*
X283700Y484418D02*
X281668Y488482D01*
X285732D01*
X283700Y484418D01*
X249700D02*
X247668Y488482D01*
X251732D01*
X249700Y484418D01*
X283700Y349718D02*
X281668Y353782D01*
X285732D01*
X283700Y349718D01*
X249700D02*
X247668Y353782D01*
X251732D01*
X249700Y349718D01*
X1028700Y188868D02*
X1029716Y189884D01*
X1030732D01*
X1029716Y190900D01*
X1030732Y191916D01*
X1029716D01*
X1028700Y192932D01*
X1027684Y191916D01*
X1026668D01*
X1027684Y190900D01*
X1026668Y189884D01*
X1027684D01*
X1028700Y188868D01*
Y238868D02*
X1029716Y239884D01*
X1030732D01*
X1029716Y240900D01*
X1030732Y241916D01*
X1029716D01*
X1028700Y242932D01*
X1027684Y241916D01*
X1026668D01*
X1027684Y240900D01*
X1026668Y239884D01*
X1027684D01*
X1028700Y238868D01*
X1282700Y188868D02*
X1283716Y189884D01*
X1284732D01*
X1283716Y190900D01*
X1284732Y191916D01*
X1283716D01*
X1282700Y192932D01*
X1281684Y191916D01*
X1280668D01*
X1281684Y190900D01*
X1280668Y189884D01*
X1281684D01*
X1282700Y188868D01*
Y238868D02*
X1283716Y239884D01*
X1284732D01*
X1283716Y240900D01*
X1284732Y241916D01*
X1283716D01*
X1282700Y242932D01*
X1281684Y241916D01*
X1280668D01*
X1281684Y240900D01*
X1280668Y239884D01*
X1281684D01*
X1282700Y238868D01*
X1155700D02*
X1156716Y239884D01*
X1157732D01*
X1156716Y240900D01*
X1157732Y241916D01*
X1156716D01*
X1155700Y242932D01*
X1154684Y241916D01*
X1153668D01*
X1154684Y240900D01*
X1153668Y239884D01*
X1154684D01*
X1155700Y238868D01*
Y188868D02*
X1156716Y189884D01*
X1157732D01*
X1156716Y190900D01*
X1157732Y191916D01*
X1156716D01*
X1155700Y192932D01*
X1154684Y191916D01*
X1153668D01*
X1154684Y190900D01*
X1153668Y189884D01*
X1154684D01*
X1155700Y188868D01*
X774700D02*
X775716Y189884D01*
X776732D01*
X775716Y190900D01*
X776732Y191916D01*
X775716D01*
X774700Y192932D01*
X773684Y191916D01*
X772668D01*
X773684Y190900D01*
X772668Y189884D01*
X773684D01*
X774700Y188868D01*
Y238868D02*
X775716Y239884D01*
X776732D01*
X775716Y240900D01*
X776732Y241916D01*
X775716D01*
X774700Y242932D01*
X773684Y241916D01*
X772668D01*
X773684Y240900D01*
X772668Y239884D01*
X773684D01*
X774700Y238868D01*
X901700D02*
X902716Y239884D01*
X903732D01*
X902716Y240900D01*
X903732Y241916D01*
X902716D01*
X901700Y242932D01*
X900684Y241916D01*
X899668D01*
X900684Y240900D01*
X899668Y239884D01*
X900684D01*
X901700Y238868D01*
Y188868D02*
X902716Y189884D01*
X903732D01*
X902716Y190900D01*
X903732Y191916D01*
X902716D01*
X901700Y192932D01*
X900684Y191916D01*
X899668D01*
X900684Y190900D01*
X899668Y189884D01*
X900684D01*
X901700Y188868D01*
X520700D02*
X521716Y189884D01*
X522732D01*
X521716Y190900D01*
X522732Y191916D01*
X521716D01*
X520700Y192932D01*
X519684Y191916D01*
X518668D01*
X519684Y190900D01*
X518668Y189884D01*
X519684D01*
X520700Y188868D01*
Y238868D02*
X521716Y239884D01*
X522732D01*
X521716Y240900D01*
X522732Y241916D01*
X521716D01*
X520700Y242932D01*
X519684Y241916D01*
X518668D01*
X519684Y240900D01*
X518668Y239884D01*
X519684D01*
X520700Y238868D01*
X393700D02*
X394716Y239884D01*
X395732D01*
X394716Y240900D01*
X395732Y241916D01*
X394716D01*
X393700Y242932D01*
X392684Y241916D01*
X391668D01*
X392684Y240900D01*
X391668Y239884D01*
X392684D01*
X393700Y238868D01*
Y188868D02*
X394716Y189884D01*
X395732D01*
X394716Y190900D01*
X395732Y191916D01*
X394716D01*
X393700Y192932D01*
X392684Y191916D01*
X391668D01*
X392684Y190900D01*
X391668Y189884D01*
X392684D01*
X393700Y188868D01*
X884700Y349718D02*
X882668Y353782D01*
X886732D01*
X884700Y349718D01*
X918700D02*
X916668Y353782D01*
X920732D01*
X918700Y349718D01*
X884700Y484418D02*
X882668Y488482D01*
X886732D01*
X884700Y484418D01*
X918700D02*
X916668Y488482D01*
X920732D01*
X918700Y484418D01*
X757700Y349718D02*
X755668Y353782D01*
X759732D01*
X757700Y349718D01*
X791700D02*
X789668Y353782D01*
X793732D01*
X791700Y349718D01*
X757700Y484418D02*
X755668Y488482D01*
X759732D01*
X757700Y484418D01*
X791700D02*
X789668Y488482D01*
X793732D01*
X791700Y484418D01*
X1265700Y349718D02*
X1263668Y353782D01*
X1267732D01*
X1265700Y349718D01*
X1299700D02*
X1297668Y353782D01*
X1301732D01*
X1299700Y349718D01*
X1265700Y484418D02*
X1263668Y488482D01*
X1267732D01*
X1265700Y484418D01*
X1299700D02*
X1297668Y488482D01*
X1301732D01*
X1299700Y484418D01*
X1011700Y349718D02*
X1009668Y353782D01*
X1013732D01*
X1011700Y349718D01*
X1045700D02*
X1043668Y353782D01*
X1047732D01*
X1045700Y349718D01*
X1011700Y484418D02*
X1009668Y488482D01*
X1013732D01*
X1011700Y484418D01*
X1045700D02*
X1043668Y488482D01*
X1047732D01*
X1045700Y484418D01*
X376700Y349718D02*
X374668Y353782D01*
X378732D01*
X376700Y349718D01*
X410700D02*
X408668Y353782D01*
X412732D01*
X410700Y349718D01*
X376700Y484418D02*
X374668Y488482D01*
X378732D01*
X376700Y484418D01*
X410700D02*
X408668Y488482D01*
X412732D01*
X410700Y484418D01*
X630700Y349718D02*
X628668Y353782D01*
X632732D01*
X630700Y349718D01*
X664700D02*
X662668Y353782D01*
X666732D01*
X664700Y349718D01*
X630700Y484418D02*
X628668Y488482D01*
X632732D01*
X630700Y484418D01*
X664700D02*
X662668Y488482D01*
X666732D01*
X664700Y484418D01*
X151384Y151384D02*
Y150368D01*
X153416D01*
Y151384D01*
X154432D01*
Y153416D01*
X153416D01*
Y154432D01*
X151384D01*
Y153416D01*
X150368D01*
Y151384D01*
X151384D01*
Y506984D02*
Y505968D01*
X153416D01*
Y506984D01*
X154432D01*
Y509016D01*
X153416D01*
Y510032D01*
X151384D01*
Y509016D01*
X150368D01*
Y506984D01*
X151384D01*
X1395984D02*
Y505968D01*
X1398016D01*
Y506984D01*
X1399032D01*
Y509016D01*
X1398016D01*
Y510032D01*
X1395984D01*
Y509016D01*
X1394968D01*
Y506984D01*
X1395984D01*
Y151384D02*
Y150368D01*
X1398016D01*
Y151384D01*
X1399032D01*
Y153416D01*
X1398016D01*
Y154432D01*
X1395984D01*
Y153416D01*
X1394968D01*
Y151384D01*
X1395984D01*
X1356868Y533908D02*
X1357884D01*
X1358900Y534924D01*
X1359916Y533908D01*
X1360932D01*
Y534924D01*
X1359916Y535940D01*
X1360932Y536956D01*
Y537972D01*
X1359916D01*
X1358900Y536956D01*
X1357884Y537972D01*
X1356868D01*
Y536956D01*
X1357884Y535940D01*
X1356868Y534924D01*
Y533908D01*
X1229868D02*
X1230884D01*
X1231900Y534924D01*
X1232916Y533908D01*
X1233932D01*
Y534924D01*
X1232916Y535940D01*
X1233932Y536956D01*
Y537972D01*
X1232916D01*
X1231900Y536956D01*
X1230884Y537972D01*
X1229868D01*
Y536956D01*
X1230884Y535940D01*
X1229868Y534924D01*
Y533908D01*
X1102868D02*
X1103884D01*
X1104900Y534924D01*
X1105916Y533908D01*
X1106932D01*
Y534924D01*
X1105916Y535940D01*
X1106932Y536956D01*
Y537972D01*
X1105916D01*
X1104900Y536956D01*
X1103884Y537972D01*
X1102868D01*
Y536956D01*
X1103884Y535940D01*
X1102868Y534924D01*
Y533908D01*
X975868D02*
X976884D01*
X977900Y534924D01*
X978916Y533908D01*
X979932D01*
Y534924D01*
X978916Y535940D01*
X979932Y536956D01*
Y537972D01*
X978916D01*
X977900Y536956D01*
X976884Y537972D01*
X975868D01*
Y536956D01*
X976884Y535940D01*
X975868Y534924D01*
Y533908D01*
X848868D02*
X849884D01*
X850900Y534924D01*
X851916Y533908D01*
X852932D01*
Y534924D01*
X851916Y535940D01*
X852932Y536956D01*
Y537972D01*
X851916D01*
X850900Y536956D01*
X849884Y537972D01*
X848868D01*
Y536956D01*
X849884Y535940D01*
X848868Y534924D01*
Y533908D01*
X721868D02*
X722884D01*
X723900Y534924D01*
X724916Y533908D01*
X725932D01*
Y534924D01*
X724916Y535940D01*
X725932Y536956D01*
Y537972D01*
X724916D01*
X723900Y536956D01*
X722884Y537972D01*
X721868D01*
Y536956D01*
X722884Y535940D01*
X721868Y534924D01*
Y533908D01*
X594868D02*
X595884D01*
X596900Y534924D01*
X597916Y533908D01*
X598932D01*
Y534924D01*
X597916Y535940D01*
X598932Y536956D01*
Y537972D01*
X597916D01*
X596900Y536956D01*
X595884Y537972D01*
X594868D01*
Y536956D01*
X595884Y535940D01*
X594868Y534924D01*
Y533908D01*
X467868D02*
X468884D01*
X469900Y534924D01*
X470916Y533908D01*
X471932D01*
Y534924D01*
X470916Y535940D01*
X471932Y536956D01*
Y537972D01*
X470916D01*
X469900Y536956D01*
X468884Y537972D01*
X467868D01*
Y536956D01*
X468884Y535940D01*
X467868Y534924D01*
Y533908D01*
X340868D02*
X341884D01*
X342900Y534924D01*
X343916Y533908D01*
X344932D01*
Y534924D01*
X343916Y535940D01*
X344932Y536956D01*
Y537972D01*
X343916D01*
X342900Y536956D01*
X341884Y537972D01*
X340868D01*
Y536956D01*
X341884Y535940D01*
X340868Y534924D01*
Y533908D01*
X196088Y513588D02*
X197104D01*
X198120Y514604D01*
X199136Y513588D01*
X200152D01*
Y514604D01*
X199136Y515620D01*
X200152Y516636D01*
Y517652D01*
X199136D01*
X198120Y516636D01*
X197104Y517652D01*
X196088D01*
Y516636D01*
X197104Y515620D01*
X196088Y514604D01*
Y513588D01*
X2544300Y484418D02*
X2542268Y488482D01*
X2546332D01*
X2544300Y484418D01*
X2510300D02*
X2508268Y488482D01*
X2512332D01*
X2510300Y484418D01*
X2544300Y349718D02*
X2542268Y353782D01*
X2546332D01*
X2544300Y349718D01*
X2510300D02*
X2508268Y353782D01*
X2512332D01*
X2510300Y349718D01*
X1909300Y484418D02*
X1907268Y488482D01*
X1911332D01*
X1909300Y484418D01*
X1875300D02*
X1873268Y488482D01*
X1877332D01*
X1875300Y484418D01*
X1909300Y349718D02*
X1907268Y353782D01*
X1911332D01*
X1909300Y349718D01*
X1875300D02*
X1873268Y353782D01*
X1877332D01*
X1875300Y349718D01*
X2019300Y188868D02*
X2020316Y189884D01*
X2021332D01*
X2020316Y190900D01*
X2021332Y191916D01*
X2020316D01*
X2019300Y192932D01*
X2018284Y191916D01*
X2017268D01*
X2018284Y190900D01*
X2017268Y189884D01*
X2018284D01*
X2019300Y188868D01*
Y238868D02*
X2020316Y239884D01*
X2021332D01*
X2020316Y240900D01*
X2021332Y241916D01*
X2020316D01*
X2019300Y242932D01*
X2018284Y241916D01*
X2017268D01*
X2018284Y240900D01*
X2017268Y239884D01*
X2018284D01*
X2019300Y238868D01*
X1636268Y249868D02*
X1637284Y251900D01*
X1636268Y253932D01*
X1638300Y252916D01*
X1640332Y253932D01*
X1639316Y251900D01*
X1640332Y249868D01*
X1638300Y250884D01*
X1636268Y249868D01*
Y177868D02*
X1637284Y179900D01*
X1636268Y181932D01*
X1638300Y180916D01*
X1640332Y181932D01*
X1639316Y179900D01*
X1640332Y177868D01*
X1638300Y178884D01*
X1636268Y177868D01*
X1655300Y484418D02*
X1653268Y488482D01*
X1657332D01*
X1655300Y484418D01*
X1621300D02*
X1619268Y488482D01*
X1623332D01*
X1621300Y484418D01*
X1655300Y349718D02*
X1653268Y353782D01*
X1657332D01*
X1655300Y349718D01*
X1621300D02*
X1619268Y353782D01*
X1623332D01*
X1621300Y349718D01*
X2400300Y188868D02*
X2401316Y189884D01*
X2402332D01*
X2401316Y190900D01*
X2402332Y191916D01*
X2401316D01*
X2400300Y192932D01*
X2399284Y191916D01*
X2398268D01*
X2399284Y190900D01*
X2398268Y189884D01*
X2399284D01*
X2400300Y188868D01*
Y238868D02*
X2401316Y239884D01*
X2402332D01*
X2401316Y240900D01*
X2402332Y241916D01*
X2401316D01*
X2400300Y242932D01*
X2399284Y241916D01*
X2398268D01*
X2399284Y240900D01*
X2398268Y239884D01*
X2399284D01*
X2400300Y238868D01*
X2654300Y188868D02*
X2655316Y189884D01*
X2656332D01*
X2655316Y190900D01*
X2656332Y191916D01*
X2655316D01*
X2654300Y192932D01*
X2653284Y191916D01*
X2652268D01*
X2653284Y190900D01*
X2652268Y189884D01*
X2653284D01*
X2654300Y188868D01*
Y238868D02*
X2655316Y239884D01*
X2656332D01*
X2655316Y240900D01*
X2656332Y241916D01*
X2655316D01*
X2654300Y242932D01*
X2653284Y241916D01*
X2652268D01*
X2653284Y240900D01*
X2652268Y239884D01*
X2653284D01*
X2654300Y238868D01*
X2527300D02*
X2528316Y239884D01*
X2529332D01*
X2528316Y240900D01*
X2529332Y241916D01*
X2528316D01*
X2527300Y242932D01*
X2526284Y241916D01*
X2525268D01*
X2526284Y240900D01*
X2525268Y239884D01*
X2526284D01*
X2527300Y238868D01*
Y188868D02*
X2528316Y189884D01*
X2529332D01*
X2528316Y190900D01*
X2529332Y191916D01*
X2528316D01*
X2527300Y192932D01*
X2526284Y191916D01*
X2525268D01*
X2526284Y190900D01*
X2525268Y189884D01*
X2526284D01*
X2527300Y188868D01*
X2146300D02*
X2147316Y189884D01*
X2148332D01*
X2147316Y190900D01*
X2148332Y191916D01*
X2147316D01*
X2146300Y192932D01*
X2145284Y191916D01*
X2144268D01*
X2145284Y190900D01*
X2144268Y189884D01*
X2145284D01*
X2146300Y188868D01*
Y238868D02*
X2147316Y239884D01*
X2148332D01*
X2147316Y240900D01*
X2148332Y241916D01*
X2147316D01*
X2146300Y242932D01*
X2145284Y241916D01*
X2144268D01*
X2145284Y240900D01*
X2144268Y239884D01*
X2145284D01*
X2146300Y238868D01*
X2273300D02*
X2274316Y239884D01*
X2275332D01*
X2274316Y240900D01*
X2275332Y241916D01*
X2274316D01*
X2273300Y242932D01*
X2272284Y241916D01*
X2271268D01*
X2272284Y240900D01*
X2271268Y239884D01*
X2272284D01*
X2273300Y238868D01*
Y188868D02*
X2274316Y189884D01*
X2275332D01*
X2274316Y190900D01*
X2275332Y191916D01*
X2274316D01*
X2273300Y192932D01*
X2272284Y191916D01*
X2271268D01*
X2272284Y190900D01*
X2271268Y189884D01*
X2272284D01*
X2273300Y188868D01*
X1892300D02*
X1893316Y189884D01*
X1894332D01*
X1893316Y190900D01*
X1894332Y191916D01*
X1893316D01*
X1892300Y192932D01*
X1891284Y191916D01*
X1890268D01*
X1891284Y190900D01*
X1890268Y189884D01*
X1891284D01*
X1892300Y188868D01*
Y238868D02*
X1893316Y239884D01*
X1894332D01*
X1893316Y240900D01*
X1894332Y241916D01*
X1893316D01*
X1892300Y242932D01*
X1891284Y241916D01*
X1890268D01*
X1891284Y240900D01*
X1890268Y239884D01*
X1891284D01*
X1892300Y238868D01*
X1765300D02*
X1766316Y239884D01*
X1767332D01*
X1766316Y240900D01*
X1767332Y241916D01*
X1766316D01*
X1765300Y242932D01*
X1764284Y241916D01*
X1763268D01*
X1764284Y240900D01*
X1763268Y239884D01*
X1764284D01*
X1765300Y238868D01*
Y188868D02*
X1766316Y189884D01*
X1767332D01*
X1766316Y190900D01*
X1767332Y191916D01*
X1766316D01*
X1765300Y192932D01*
X1764284Y191916D01*
X1763268D01*
X1764284Y190900D01*
X1763268Y189884D01*
X1764284D01*
X1765300Y188868D01*
X2256300Y349718D02*
X2254268Y353782D01*
X2258332D01*
X2256300Y349718D01*
X2290300D02*
X2288268Y353782D01*
X2292332D01*
X2290300Y349718D01*
X2256300Y484418D02*
X2254268Y488482D01*
X2258332D01*
X2256300Y484418D01*
X2290300D02*
X2288268Y488482D01*
X2292332D01*
X2290300Y484418D01*
X2129300Y349718D02*
X2127268Y353782D01*
X2131332D01*
X2129300Y349718D01*
X2163300D02*
X2161268Y353782D01*
X2165332D01*
X2163300Y349718D01*
X2129300Y484418D02*
X2127268Y488482D01*
X2131332D01*
X2129300Y484418D01*
X2163300D02*
X2161268Y488482D01*
X2165332D01*
X2163300Y484418D01*
X2637300Y349718D02*
X2635268Y353782D01*
X2639332D01*
X2637300Y349718D01*
X2671300D02*
X2669268Y353782D01*
X2673332D01*
X2671300Y349718D01*
X2637300Y484418D02*
X2635268Y488482D01*
X2639332D01*
X2637300Y484418D01*
X2671300D02*
X2669268Y488482D01*
X2673332D01*
X2671300Y484418D01*
X2383300Y349718D02*
X2381268Y353782D01*
X2385332D01*
X2383300Y349718D01*
X2417300D02*
X2415268Y353782D01*
X2419332D01*
X2417300Y349718D01*
X2383300Y484418D02*
X2381268Y488482D01*
X2385332D01*
X2383300Y484418D01*
X2417300D02*
X2415268Y488482D01*
X2419332D01*
X2417300Y484418D01*
X1748300Y349718D02*
X1746268Y353782D01*
X1750332D01*
X1748300Y349718D01*
X1782300D02*
X1780268Y353782D01*
X1784332D01*
X1782300Y349718D01*
X1748300Y484418D02*
X1746268Y488482D01*
X1750332D01*
X1748300Y484418D01*
X1782300D02*
X1780268Y488482D01*
X1784332D01*
X1782300Y484418D01*
X2002300Y349718D02*
X2000268Y353782D01*
X2004332D01*
X2002300Y349718D01*
X2036300D02*
X2034268Y353782D01*
X2038332D01*
X2036300Y349718D01*
X2002300Y484418D02*
X2000268Y488482D01*
X2004332D01*
X2002300Y484418D01*
X2036300D02*
X2034268Y488482D01*
X2038332D01*
X2036300Y484418D01*
X1522984Y151384D02*
Y150368D01*
X1525016D01*
Y151384D01*
X1526032D01*
Y153416D01*
X1525016D01*
Y154432D01*
X1522984D01*
Y153416D01*
X1521968D01*
Y151384D01*
X1522984D01*
Y506984D02*
Y505968D01*
X1525016D01*
Y506984D01*
X1526032D01*
Y509016D01*
X1525016D01*
Y510032D01*
X1522984D01*
Y509016D01*
X1521968D01*
Y506984D01*
X1522984D01*
X2767584D02*
Y505968D01*
X2769616D01*
Y506984D01*
X2770632D01*
Y509016D01*
X2769616D01*
Y510032D01*
X2767584D01*
Y509016D01*
X2766568D01*
Y506984D01*
X2767584D01*
Y151384D02*
Y150368D01*
X2769616D01*
Y151384D01*
X2770632D01*
Y153416D01*
X2769616D01*
Y154432D01*
X2767584D01*
Y153416D01*
X2766568D01*
Y151384D01*
X2767584D01*
X2728468Y533908D02*
X2729484D01*
X2730500Y534924D01*
X2731516Y533908D01*
X2732532D01*
Y534924D01*
X2731516Y535940D01*
X2732532Y536956D01*
Y537972D01*
X2731516D01*
X2730500Y536956D01*
X2729484Y537972D01*
X2728468D01*
Y536956D01*
X2729484Y535940D01*
X2728468Y534924D01*
Y533908D01*
X2601468D02*
X2602484D01*
X2603500Y534924D01*
X2604516Y533908D01*
X2605532D01*
Y534924D01*
X2604516Y535940D01*
X2605532Y536956D01*
Y537972D01*
X2604516D01*
X2603500Y536956D01*
X2602484Y537972D01*
X2601468D01*
Y536956D01*
X2602484Y535940D01*
X2601468Y534924D01*
Y533908D01*
X2474468D02*
X2475484D01*
X2476500Y534924D01*
X2477516Y533908D01*
X2478532D01*
Y534924D01*
X2477516Y535940D01*
X2478532Y536956D01*
Y537972D01*
X2477516D01*
X2476500Y536956D01*
X2475484Y537972D01*
X2474468D01*
Y536956D01*
X2475484Y535940D01*
X2474468Y534924D01*
Y533908D01*
X2347468D02*
X2348484D01*
X2349500Y534924D01*
X2350516Y533908D01*
X2351532D01*
Y534924D01*
X2350516Y535940D01*
X2351532Y536956D01*
Y537972D01*
X2350516D01*
X2349500Y536956D01*
X2348484Y537972D01*
X2347468D01*
Y536956D01*
X2348484Y535940D01*
X2347468Y534924D01*
Y533908D01*
X2220468D02*
X2221484D01*
X2222500Y534924D01*
X2223516Y533908D01*
X2224532D01*
Y534924D01*
X2223516Y535940D01*
X2224532Y536956D01*
Y537972D01*
X2223516D01*
X2222500Y536956D01*
X2221484Y537972D01*
X2220468D01*
Y536956D01*
X2221484Y535940D01*
X2220468Y534924D01*
Y533908D01*
X2093468D02*
X2094484D01*
X2095500Y534924D01*
X2096516Y533908D01*
X2097532D01*
Y534924D01*
X2096516Y535940D01*
X2097532Y536956D01*
Y537972D01*
X2096516D01*
X2095500Y536956D01*
X2094484Y537972D01*
X2093468D01*
Y536956D01*
X2094484Y535940D01*
X2093468Y534924D01*
Y533908D01*
X1966468D02*
X1967484D01*
X1968500Y534924D01*
X1969516Y533908D01*
X1970532D01*
Y534924D01*
X1969516Y535940D01*
X1970532Y536956D01*
Y537972D01*
X1969516D01*
X1968500Y536956D01*
X1967484Y537972D01*
X1966468D01*
Y536956D01*
X1967484Y535940D01*
X1966468Y534924D01*
Y533908D01*
X1839468D02*
X1840484D01*
X1841500Y534924D01*
X1842516Y533908D01*
X1843532D01*
Y534924D01*
X1842516Y535940D01*
X1843532Y536956D01*
Y537972D01*
X1842516D01*
X1841500Y536956D01*
X1840484Y537972D01*
X1839468D01*
Y536956D01*
X1840484Y535940D01*
X1839468Y534924D01*
Y533908D01*
X1712468D02*
X1713484D01*
X1714500Y534924D01*
X1715516Y533908D01*
X1716532D01*
Y534924D01*
X1715516Y535940D01*
X1716532Y536956D01*
Y537972D01*
X1715516D01*
X1714500Y536956D01*
X1713484Y537972D01*
X1712468D01*
Y536956D01*
X1713484Y535940D01*
X1712468Y534924D01*
Y533908D01*
X1567688Y513588D02*
X1568704D01*
X1569720Y514604D01*
X1570736Y513588D01*
X1571752D01*
Y514604D01*
X1570736Y515620D01*
X1571752Y516636D01*
Y517652D01*
X1570736D01*
X1569720Y516636D01*
X1568704Y517652D01*
X1567688D01*
Y516636D01*
X1568704Y515620D01*
X1567688Y514604D01*
Y513588D01*
X1172700Y967018D02*
X1170668Y971082D01*
X1174732D01*
X1172700Y967018D01*
X1138700D02*
X1136668Y971082D01*
X1140732D01*
X1138700Y967018D01*
X1172700Y832318D02*
X1170668Y836382D01*
X1174732D01*
X1172700Y832318D01*
X1138700D02*
X1136668Y836382D01*
X1140732D01*
X1138700Y832318D01*
X537700Y967018D02*
X535668Y971082D01*
X539732D01*
X537700Y967018D01*
X503700D02*
X501668Y971082D01*
X505732D01*
X503700Y967018D01*
X537700Y832318D02*
X535668Y836382D01*
X539732D01*
X537700Y832318D01*
X503700D02*
X501668Y836382D01*
X505732D01*
X503700Y832318D01*
X647700Y671468D02*
X648716Y672484D01*
X649732D01*
X648716Y673500D01*
X649732Y674516D01*
X648716D01*
X647700Y675532D01*
X646684Y674516D01*
X645668D01*
X646684Y673500D01*
X645668Y672484D01*
X646684D01*
X647700Y671468D01*
Y721468D02*
X648716Y722484D01*
X649732D01*
X648716Y723500D01*
X649732Y724516D01*
X648716D01*
X647700Y725532D01*
X646684Y724516D01*
X645668D01*
X646684Y723500D01*
X645668Y722484D01*
X646684D01*
X647700Y721468D01*
X264668Y732468D02*
X265684Y734500D01*
X264668Y736532D01*
X266700Y735516D01*
X268732Y736532D01*
X267716Y734500D01*
X268732Y732468D01*
X266700Y733484D01*
X264668Y732468D01*
Y660468D02*
X265684Y662500D01*
X264668Y664532D01*
X266700Y663516D01*
X268732Y664532D01*
X267716Y662500D01*
X268732Y660468D01*
X266700Y661484D01*
X264668Y660468D01*
X283700Y967018D02*
X281668Y971082D01*
X285732D01*
X283700Y967018D01*
X249700D02*
X247668Y971082D01*
X251732D01*
X249700Y967018D01*
X283700Y832318D02*
X281668Y836382D01*
X285732D01*
X283700Y832318D01*
X249700D02*
X247668Y836382D01*
X251732D01*
X249700Y832318D01*
X1028700Y671468D02*
X1029716Y672484D01*
X1030732D01*
X1029716Y673500D01*
X1030732Y674516D01*
X1029716D01*
X1028700Y675532D01*
X1027684Y674516D01*
X1026668D01*
X1027684Y673500D01*
X1026668Y672484D01*
X1027684D01*
X1028700Y671468D01*
Y721468D02*
X1029716Y722484D01*
X1030732D01*
X1029716Y723500D01*
X1030732Y724516D01*
X1029716D01*
X1028700Y725532D01*
X1027684Y724516D01*
X1026668D01*
X1027684Y723500D01*
X1026668Y722484D01*
X1027684D01*
X1028700Y721468D01*
X1282700Y671468D02*
X1283716Y672484D01*
X1284732D01*
X1283716Y673500D01*
X1284732Y674516D01*
X1283716D01*
X1282700Y675532D01*
X1281684Y674516D01*
X1280668D01*
X1281684Y673500D01*
X1280668Y672484D01*
X1281684D01*
X1282700Y671468D01*
Y721468D02*
X1283716Y722484D01*
X1284732D01*
X1283716Y723500D01*
X1284732Y724516D01*
X1283716D01*
X1282700Y725532D01*
X1281684Y724516D01*
X1280668D01*
X1281684Y723500D01*
X1280668Y722484D01*
X1281684D01*
X1282700Y721468D01*
X1155700D02*
X1156716Y722484D01*
X1157732D01*
X1156716Y723500D01*
X1157732Y724516D01*
X1156716D01*
X1155700Y725532D01*
X1154684Y724516D01*
X1153668D01*
X1154684Y723500D01*
X1153668Y722484D01*
X1154684D01*
X1155700Y721468D01*
Y671468D02*
X1156716Y672484D01*
X1157732D01*
X1156716Y673500D01*
X1157732Y674516D01*
X1156716D01*
X1155700Y675532D01*
X1154684Y674516D01*
X1153668D01*
X1154684Y673500D01*
X1153668Y672484D01*
X1154684D01*
X1155700Y671468D01*
X774700D02*
X775716Y672484D01*
X776732D01*
X775716Y673500D01*
X776732Y674516D01*
X775716D01*
X774700Y675532D01*
X773684Y674516D01*
X772668D01*
X773684Y673500D01*
X772668Y672484D01*
X773684D01*
X774700Y671468D01*
Y721468D02*
X775716Y722484D01*
X776732D01*
X775716Y723500D01*
X776732Y724516D01*
X775716D01*
X774700Y725532D01*
X773684Y724516D01*
X772668D01*
X773684Y723500D01*
X772668Y722484D01*
X773684D01*
X774700Y721468D01*
X901700D02*
X902716Y722484D01*
X903732D01*
X902716Y723500D01*
X903732Y724516D01*
X902716D01*
X901700Y725532D01*
X900684Y724516D01*
X899668D01*
X900684Y723500D01*
X899668Y722484D01*
X900684D01*
X901700Y721468D01*
Y671468D02*
X902716Y672484D01*
X903732D01*
X902716Y673500D01*
X903732Y674516D01*
X902716D01*
X901700Y675532D01*
X900684Y674516D01*
X899668D01*
X900684Y673500D01*
X899668Y672484D01*
X900684D01*
X901700Y671468D01*
X520700D02*
X521716Y672484D01*
X522732D01*
X521716Y673500D01*
X522732Y674516D01*
X521716D01*
X520700Y675532D01*
X519684Y674516D01*
X518668D01*
X519684Y673500D01*
X518668Y672484D01*
X519684D01*
X520700Y671468D01*
Y721468D02*
X521716Y722484D01*
X522732D01*
X521716Y723500D01*
X522732Y724516D01*
X521716D01*
X520700Y725532D01*
X519684Y724516D01*
X518668D01*
X519684Y723500D01*
X518668Y722484D01*
X519684D01*
X520700Y721468D01*
X393700D02*
X394716Y722484D01*
X395732D01*
X394716Y723500D01*
X395732Y724516D01*
X394716D01*
X393700Y725532D01*
X392684Y724516D01*
X391668D01*
X392684Y723500D01*
X391668Y722484D01*
X392684D01*
X393700Y721468D01*
Y671468D02*
X394716Y672484D01*
X395732D01*
X394716Y673500D01*
X395732Y674516D01*
X394716D01*
X393700Y675532D01*
X392684Y674516D01*
X391668D01*
X392684Y673500D01*
X391668Y672484D01*
X392684D01*
X393700Y671468D01*
X884700Y832318D02*
X882668Y836382D01*
X886732D01*
X884700Y832318D01*
X918700D02*
X916668Y836382D01*
X920732D01*
X918700Y832318D01*
X884700Y967018D02*
X882668Y971082D01*
X886732D01*
X884700Y967018D01*
X918700D02*
X916668Y971082D01*
X920732D01*
X918700Y967018D01*
X757700Y832318D02*
X755668Y836382D01*
X759732D01*
X757700Y832318D01*
X791700D02*
X789668Y836382D01*
X793732D01*
X791700Y832318D01*
X757700Y967018D02*
X755668Y971082D01*
X759732D01*
X757700Y967018D01*
X791700D02*
X789668Y971082D01*
X793732D01*
X791700Y967018D01*
X1265700Y832318D02*
X1263668Y836382D01*
X1267732D01*
X1265700Y832318D01*
X1299700D02*
X1297668Y836382D01*
X1301732D01*
X1299700Y832318D01*
X1265700Y967018D02*
X1263668Y971082D01*
X1267732D01*
X1265700Y967018D01*
X1299700D02*
X1297668Y971082D01*
X1301732D01*
X1299700Y967018D01*
X1011700Y832318D02*
X1009668Y836382D01*
X1013732D01*
X1011700Y832318D01*
X1045700D02*
X1043668Y836382D01*
X1047732D01*
X1045700Y832318D01*
X1011700Y967018D02*
X1009668Y971082D01*
X1013732D01*
X1011700Y967018D01*
X1045700D02*
X1043668Y971082D01*
X1047732D01*
X1045700Y967018D01*
X376700Y832318D02*
X374668Y836382D01*
X378732D01*
X376700Y832318D01*
X410700D02*
X408668Y836382D01*
X412732D01*
X410700Y832318D01*
X376700Y967018D02*
X374668Y971082D01*
X378732D01*
X376700Y967018D01*
X410700D02*
X408668Y971082D01*
X412732D01*
X410700Y967018D01*
X630700Y832318D02*
X628668Y836382D01*
X632732D01*
X630700Y832318D01*
X664700D02*
X662668Y836382D01*
X666732D01*
X664700Y832318D01*
X630700Y967018D02*
X628668Y971082D01*
X632732D01*
X630700Y967018D01*
X664700D02*
X662668Y971082D01*
X666732D01*
X664700Y967018D01*
X151384Y633984D02*
Y632968D01*
X153416D01*
Y633984D01*
X154432D01*
Y636016D01*
X153416D01*
Y637032D01*
X151384D01*
Y636016D01*
X150368D01*
Y633984D01*
X151384D01*
Y989584D02*
Y988568D01*
X153416D01*
Y989584D01*
X154432D01*
Y991616D01*
X153416D01*
Y992632D01*
X151384D01*
Y991616D01*
X150368D01*
Y989584D01*
X151384D01*
X1395984D02*
Y988568D01*
X1398016D01*
Y989584D01*
X1399032D01*
Y991616D01*
X1398016D01*
Y992632D01*
X1395984D01*
Y991616D01*
X1394968D01*
Y989584D01*
X1395984D01*
Y633984D02*
Y632968D01*
X1398016D01*
Y633984D01*
X1399032D01*
Y636016D01*
X1398016D01*
Y637032D01*
X1395984D01*
Y636016D01*
X1394968D01*
Y633984D01*
X1395984D01*
X1356868Y1016508D02*
X1357884D01*
X1358900Y1017524D01*
X1359916Y1016508D01*
X1360932D01*
Y1017524D01*
X1359916Y1018540D01*
X1360932Y1019556D01*
Y1020572D01*
X1359916D01*
X1358900Y1019556D01*
X1357884Y1020572D01*
X1356868D01*
Y1019556D01*
X1357884Y1018540D01*
X1356868Y1017524D01*
Y1016508D01*
X1229868D02*
X1230884D01*
X1231900Y1017524D01*
X1232916Y1016508D01*
X1233932D01*
Y1017524D01*
X1232916Y1018540D01*
X1233932Y1019556D01*
Y1020572D01*
X1232916D01*
X1231900Y1019556D01*
X1230884Y1020572D01*
X1229868D01*
Y1019556D01*
X1230884Y1018540D01*
X1229868Y1017524D01*
Y1016508D01*
X1102868D02*
X1103884D01*
X1104900Y1017524D01*
X1105916Y1016508D01*
X1106932D01*
Y1017524D01*
X1105916Y1018540D01*
X1106932Y1019556D01*
Y1020572D01*
X1105916D01*
X1104900Y1019556D01*
X1103884Y1020572D01*
X1102868D01*
Y1019556D01*
X1103884Y1018540D01*
X1102868Y1017524D01*
Y1016508D01*
X975868D02*
X976884D01*
X977900Y1017524D01*
X978916Y1016508D01*
X979932D01*
Y1017524D01*
X978916Y1018540D01*
X979932Y1019556D01*
Y1020572D01*
X978916D01*
X977900Y1019556D01*
X976884Y1020572D01*
X975868D01*
Y1019556D01*
X976884Y1018540D01*
X975868Y1017524D01*
Y1016508D01*
X848868D02*
X849884D01*
X850900Y1017524D01*
X851916Y1016508D01*
X852932D01*
Y1017524D01*
X851916Y1018540D01*
X852932Y1019556D01*
Y1020572D01*
X851916D01*
X850900Y1019556D01*
X849884Y1020572D01*
X848868D01*
Y1019556D01*
X849884Y1018540D01*
X848868Y1017524D01*
Y1016508D01*
X721868D02*
X722884D01*
X723900Y1017524D01*
X724916Y1016508D01*
X725932D01*
Y1017524D01*
X724916Y1018540D01*
X725932Y1019556D01*
Y1020572D01*
X724916D01*
X723900Y1019556D01*
X722884Y1020572D01*
X721868D01*
Y1019556D01*
X722884Y1018540D01*
X721868Y1017524D01*
Y1016508D01*
X594868D02*
X595884D01*
X596900Y1017524D01*
X597916Y1016508D01*
X598932D01*
Y1017524D01*
X597916Y1018540D01*
X598932Y1019556D01*
Y1020572D01*
X597916D01*
X596900Y1019556D01*
X595884Y1020572D01*
X594868D01*
Y1019556D01*
X595884Y1018540D01*
X594868Y1017524D01*
Y1016508D01*
X467868D02*
X468884D01*
X469900Y1017524D01*
X470916Y1016508D01*
X471932D01*
Y1017524D01*
X470916Y1018540D01*
X471932Y1019556D01*
Y1020572D01*
X470916D01*
X469900Y1019556D01*
X468884Y1020572D01*
X467868D01*
Y1019556D01*
X468884Y1018540D01*
X467868Y1017524D01*
Y1016508D01*
X340868D02*
X341884D01*
X342900Y1017524D01*
X343916Y1016508D01*
X344932D01*
Y1017524D01*
X343916Y1018540D01*
X344932Y1019556D01*
Y1020572D01*
X343916D01*
X342900Y1019556D01*
X341884Y1020572D01*
X340868D01*
Y1019556D01*
X341884Y1018540D01*
X340868Y1017524D01*
Y1016508D01*
X196088Y996188D02*
X197104D01*
X198120Y997204D01*
X199136Y996188D01*
X200152D01*
Y997204D01*
X199136Y998220D01*
X200152Y999236D01*
Y1000252D01*
X199136D01*
X198120Y999236D01*
X197104Y1000252D01*
X196088D01*
Y999236D01*
X197104Y998220D01*
X196088Y997204D01*
Y996188D01*
X2544300Y967018D02*
X2542268Y971082D01*
X2546332D01*
X2544300Y967018D01*
X2510300D02*
X2508268Y971082D01*
X2512332D01*
X2510300Y967018D01*
X2544300Y832318D02*
X2542268Y836382D01*
X2546332D01*
X2544300Y832318D01*
X2510300D02*
X2508268Y836382D01*
X2512332D01*
X2510300Y832318D01*
X1909300Y967018D02*
X1907268Y971082D01*
X1911332D01*
X1909300Y967018D01*
X1875300D02*
X1873268Y971082D01*
X1877332D01*
X1875300Y967018D01*
X1909300Y832318D02*
X1907268Y836382D01*
X1911332D01*
X1909300Y832318D01*
X1875300D02*
X1873268Y836382D01*
X1877332D01*
X1875300Y832318D01*
X2019300Y671468D02*
X2020316Y672484D01*
X2021332D01*
X2020316Y673500D01*
X2021332Y674516D01*
X2020316D01*
X2019300Y675532D01*
X2018284Y674516D01*
X2017268D01*
X2018284Y673500D01*
X2017268Y672484D01*
X2018284D01*
X2019300Y671468D01*
Y721468D02*
X2020316Y722484D01*
X2021332D01*
X2020316Y723500D01*
X2021332Y724516D01*
X2020316D01*
X2019300Y725532D01*
X2018284Y724516D01*
X2017268D01*
X2018284Y723500D01*
X2017268Y722484D01*
X2018284D01*
X2019300Y721468D01*
X1636268Y732468D02*
X1637284Y734500D01*
X1636268Y736532D01*
X1638300Y735516D01*
X1640332Y736532D01*
X1639316Y734500D01*
X1640332Y732468D01*
X1638300Y733484D01*
X1636268Y732468D01*
Y660468D02*
X1637284Y662500D01*
X1636268Y664532D01*
X1638300Y663516D01*
X1640332Y664532D01*
X1639316Y662500D01*
X1640332Y660468D01*
X1638300Y661484D01*
X1636268Y660468D01*
X1655300Y967018D02*
X1653268Y971082D01*
X1657332D01*
X1655300Y967018D01*
X1621300D02*
X1619268Y971082D01*
X1623332D01*
X1621300Y967018D01*
X1655300Y832318D02*
X1653268Y836382D01*
X1657332D01*
X1655300Y832318D01*
X1621300D02*
X1619268Y836382D01*
X1623332D01*
X1621300Y832318D01*
X2400300Y671468D02*
X2401316Y672484D01*
X2402332D01*
X2401316Y673500D01*
X2402332Y674516D01*
X2401316D01*
X2400300Y675532D01*
X2399284Y674516D01*
X2398268D01*
X2399284Y673500D01*
X2398268Y672484D01*
X2399284D01*
X2400300Y671468D01*
Y721468D02*
X2401316Y722484D01*
X2402332D01*
X2401316Y723500D01*
X2402332Y724516D01*
X2401316D01*
X2400300Y725532D01*
X2399284Y724516D01*
X2398268D01*
X2399284Y723500D01*
X2398268Y722484D01*
X2399284D01*
X2400300Y721468D01*
X2654300Y671468D02*
X2655316Y672484D01*
X2656332D01*
X2655316Y673500D01*
X2656332Y674516D01*
X2655316D01*
X2654300Y675532D01*
X2653284Y674516D01*
X2652268D01*
X2653284Y673500D01*
X2652268Y672484D01*
X2653284D01*
X2654300Y671468D01*
Y721468D02*
X2655316Y722484D01*
X2656332D01*
X2655316Y723500D01*
X2656332Y724516D01*
X2655316D01*
X2654300Y725532D01*
X2653284Y724516D01*
X2652268D01*
X2653284Y723500D01*
X2652268Y722484D01*
X2653284D01*
X2654300Y721468D01*
X2527300D02*
X2528316Y722484D01*
X2529332D01*
X2528316Y723500D01*
X2529332Y724516D01*
X2528316D01*
X2527300Y725532D01*
X2526284Y724516D01*
X2525268D01*
X2526284Y723500D01*
X2525268Y722484D01*
X2526284D01*
X2527300Y721468D01*
Y671468D02*
X2528316Y672484D01*
X2529332D01*
X2528316Y673500D01*
X2529332Y674516D01*
X2528316D01*
X2527300Y675532D01*
X2526284Y674516D01*
X2525268D01*
X2526284Y673500D01*
X2525268Y672484D01*
X2526284D01*
X2527300Y671468D01*
X2146300D02*
X2147316Y672484D01*
X2148332D01*
X2147316Y673500D01*
X2148332Y674516D01*
X2147316D01*
X2146300Y675532D01*
X2145284Y674516D01*
X2144268D01*
X2145284Y673500D01*
X2144268Y672484D01*
X2145284D01*
X2146300Y671468D01*
Y721468D02*
X2147316Y722484D01*
X2148332D01*
X2147316Y723500D01*
X2148332Y724516D01*
X2147316D01*
X2146300Y725532D01*
X2145284Y724516D01*
X2144268D01*
X2145284Y723500D01*
X2144268Y722484D01*
X2145284D01*
X2146300Y721468D01*
X2273300D02*
X2274316Y722484D01*
X2275332D01*
X2274316Y723500D01*
X2275332Y724516D01*
X2274316D01*
X2273300Y725532D01*
X2272284Y724516D01*
X2271268D01*
X2272284Y723500D01*
X2271268Y722484D01*
X2272284D01*
X2273300Y721468D01*
Y671468D02*
X2274316Y672484D01*
X2275332D01*
X2274316Y673500D01*
X2275332Y674516D01*
X2274316D01*
X2273300Y675532D01*
X2272284Y674516D01*
X2271268D01*
X2272284Y673500D01*
X2271268Y672484D01*
X2272284D01*
X2273300Y671468D01*
X1892300D02*
X1893316Y672484D01*
X1894332D01*
X1893316Y673500D01*
X1894332Y674516D01*
X1893316D01*
X1892300Y675532D01*
X1891284Y674516D01*
X1890268D01*
X1891284Y673500D01*
X1890268Y672484D01*
X1891284D01*
X1892300Y671468D01*
Y721468D02*
X1893316Y722484D01*
X1894332D01*
X1893316Y723500D01*
X1894332Y724516D01*
X1893316D01*
X1892300Y725532D01*
X1891284Y724516D01*
X1890268D01*
X1891284Y723500D01*
X1890268Y722484D01*
X1891284D01*
X1892300Y721468D01*
X1765300D02*
X1766316Y722484D01*
X1767332D01*
X1766316Y723500D01*
X1767332Y724516D01*
X1766316D01*
X1765300Y725532D01*
X1764284Y724516D01*
X1763268D01*
X1764284Y723500D01*
X1763268Y722484D01*
X1764284D01*
X1765300Y721468D01*
Y671468D02*
X1766316Y672484D01*
X1767332D01*
X1766316Y673500D01*
X1767332Y674516D01*
X1766316D01*
X1765300Y675532D01*
X1764284Y674516D01*
X1763268D01*
X1764284Y673500D01*
X1763268Y672484D01*
X1764284D01*
X1765300Y671468D01*
X2256300Y832318D02*
X2254268Y836382D01*
X2258332D01*
X2256300Y832318D01*
X2290300D02*
X2288268Y836382D01*
X2292332D01*
X2290300Y832318D01*
X2256300Y967018D02*
X2254268Y971082D01*
X2258332D01*
X2256300Y967018D01*
X2290300D02*
X2288268Y971082D01*
X2292332D01*
X2290300Y967018D01*
X2129300Y832318D02*
X2127268Y836382D01*
X2131332D01*
X2129300Y832318D01*
X2163300D02*
X2161268Y836382D01*
X2165332D01*
X2163300Y832318D01*
X2129300Y967018D02*
X2127268Y971082D01*
X2131332D01*
X2129300Y967018D01*
X2163300D02*
X2161268Y971082D01*
X2165332D01*
X2163300Y967018D01*
X2637300Y832318D02*
X2635268Y836382D01*
X2639332D01*
X2637300Y832318D01*
X2671300D02*
X2669268Y836382D01*
X2673332D01*
X2671300Y832318D01*
X2637300Y967018D02*
X2635268Y971082D01*
X2639332D01*
X2637300Y967018D01*
X2671300D02*
X2669268Y971082D01*
X2673332D01*
X2671300Y967018D01*
X2383300Y832318D02*
X2381268Y836382D01*
X2385332D01*
X2383300Y832318D01*
X2417300D02*
X2415268Y836382D01*
X2419332D01*
X2417300Y832318D01*
X2383300Y967018D02*
X2381268Y971082D01*
X2385332D01*
X2383300Y967018D01*
X2417300D02*
X2415268Y971082D01*
X2419332D01*
X2417300Y967018D01*
X1748300Y832318D02*
X1746268Y836382D01*
X1750332D01*
X1748300Y832318D01*
X1782300D02*
X1780268Y836382D01*
X1784332D01*
X1782300Y832318D01*
X1748300Y967018D02*
X1746268Y971082D01*
X1750332D01*
X1748300Y967018D01*
X1782300D02*
X1780268Y971082D01*
X1784332D01*
X1782300Y967018D01*
X2002300Y832318D02*
X2000268Y836382D01*
X2004332D01*
X2002300Y832318D01*
X2036300D02*
X2034268Y836382D01*
X2038332D01*
X2036300Y832318D01*
X2002300Y967018D02*
X2000268Y971082D01*
X2004332D01*
X2002300Y967018D01*
X2036300D02*
X2034268Y971082D01*
X2038332D01*
X2036300Y967018D01*
X1522984Y633984D02*
Y632968D01*
X1525016D01*
Y633984D01*
X1526032D01*
Y636016D01*
X1525016D01*
Y637032D01*
X1522984D01*
Y636016D01*
X1521968D01*
Y633984D01*
X1522984D01*
Y989584D02*
Y988568D01*
X1525016D01*
Y989584D01*
X1526032D01*
Y991616D01*
X1525016D01*
Y992632D01*
X1522984D01*
Y991616D01*
X1521968D01*
Y989584D01*
X1522984D01*
X2767584D02*
Y988568D01*
X2769616D01*
Y989584D01*
X2770632D01*
Y991616D01*
X2769616D01*
Y992632D01*
X2767584D01*
Y991616D01*
X2766568D01*
Y989584D01*
X2767584D01*
Y633984D02*
Y632968D01*
X2769616D01*
Y633984D01*
X2770632D01*
Y636016D01*
X2769616D01*
Y637032D01*
X2767584D01*
Y636016D01*
X2766568D01*
Y633984D01*
X2767584D01*
X2728468Y1016508D02*
X2729484D01*
X2730500Y1017524D01*
X2731516Y1016508D01*
X2732532D01*
Y1017524D01*
X2731516Y1018540D01*
X2732532Y1019556D01*
Y1020572D01*
X2731516D01*
X2730500Y1019556D01*
X2729484Y1020572D01*
X2728468D01*
Y1019556D01*
X2729484Y1018540D01*
X2728468Y1017524D01*
Y1016508D01*
X2601468D02*
X2602484D01*
X2603500Y1017524D01*
X2604516Y1016508D01*
X2605532D01*
Y1017524D01*
X2604516Y1018540D01*
X2605532Y1019556D01*
Y1020572D01*
X2604516D01*
X2603500Y1019556D01*
X2602484Y1020572D01*
X2601468D01*
Y1019556D01*
X2602484Y1018540D01*
X2601468Y1017524D01*
Y1016508D01*
X2474468D02*
X2475484D01*
X2476500Y1017524D01*
X2477516Y1016508D01*
X2478532D01*
Y1017524D01*
X2477516Y1018540D01*
X2478532Y1019556D01*
Y1020572D01*
X2477516D01*
X2476500Y1019556D01*
X2475484Y1020572D01*
X2474468D01*
Y1019556D01*
X2475484Y1018540D01*
X2474468Y1017524D01*
Y1016508D01*
X2347468D02*
X2348484D01*
X2349500Y1017524D01*
X2350516Y1016508D01*
X2351532D01*
Y1017524D01*
X2350516Y1018540D01*
X2351532Y1019556D01*
Y1020572D01*
X2350516D01*
X2349500Y1019556D01*
X2348484Y1020572D01*
X2347468D01*
Y1019556D01*
X2348484Y1018540D01*
X2347468Y1017524D01*
Y1016508D01*
X2220468D02*
X2221484D01*
X2222500Y1017524D01*
X2223516Y1016508D01*
X2224532D01*
Y1017524D01*
X2223516Y1018540D01*
X2224532Y1019556D01*
Y1020572D01*
X2223516D01*
X2222500Y1019556D01*
X2221484Y1020572D01*
X2220468D01*
Y1019556D01*
X2221484Y1018540D01*
X2220468Y1017524D01*
Y1016508D01*
X2093468D02*
X2094484D01*
X2095500Y1017524D01*
X2096516Y1016508D01*
X2097532D01*
Y1017524D01*
X2096516Y1018540D01*
X2097532Y1019556D01*
Y1020572D01*
X2096516D01*
X2095500Y1019556D01*
X2094484Y1020572D01*
X2093468D01*
Y1019556D01*
X2094484Y1018540D01*
X2093468Y1017524D01*
Y1016508D01*
X1966468D02*
X1967484D01*
X1968500Y1017524D01*
X1969516Y1016508D01*
X1970532D01*
Y1017524D01*
X1969516Y1018540D01*
X1970532Y1019556D01*
Y1020572D01*
X1969516D01*
X1968500Y1019556D01*
X1967484Y1020572D01*
X1966468D01*
Y1019556D01*
X1967484Y1018540D01*
X1966468Y1017524D01*
Y1016508D01*
X1839468D02*
X1840484D01*
X1841500Y1017524D01*
X1842516Y1016508D01*
X1843532D01*
Y1017524D01*
X1842516Y1018540D01*
X1843532Y1019556D01*
Y1020572D01*
X1842516D01*
X1841500Y1019556D01*
X1840484Y1020572D01*
X1839468D01*
Y1019556D01*
X1840484Y1018540D01*
X1839468Y1017524D01*
Y1016508D01*
X1712468D02*
X1713484D01*
X1714500Y1017524D01*
X1715516Y1016508D01*
X1716532D01*
Y1017524D01*
X1715516Y1018540D01*
X1716532Y1019556D01*
Y1020572D01*
X1715516D01*
X1714500Y1019556D01*
X1713484Y1020572D01*
X1712468D01*
Y1019556D01*
X1713484Y1018540D01*
X1712468Y1017524D01*
Y1016508D01*
X1567688Y996188D02*
X1568704D01*
X1569720Y997204D01*
X1570736Y996188D01*
X1571752D01*
Y997204D01*
X1570736Y998220D01*
X1571752Y999236D01*
Y1000252D01*
X1570736D01*
X1569720Y999236D01*
X1568704Y1000252D01*
X1567688D01*
Y999236D01*
X1568704Y998220D01*
X1567688Y997204D01*
Y996188D01*
X1172700Y1449618D02*
X1170668Y1453682D01*
X1174732D01*
X1172700Y1449618D01*
X1138700D02*
X1136668Y1453682D01*
X1140732D01*
X1138700Y1449618D01*
X1172700Y1314918D02*
X1170668Y1318982D01*
X1174732D01*
X1172700Y1314918D01*
X1138700D02*
X1136668Y1318982D01*
X1140732D01*
X1138700Y1314918D01*
X537700Y1449618D02*
X535668Y1453682D01*
X539732D01*
X537700Y1449618D01*
X503700D02*
X501668Y1453682D01*
X505732D01*
X503700Y1449618D01*
X537700Y1314918D02*
X535668Y1318982D01*
X539732D01*
X537700Y1314918D01*
X503700D02*
X501668Y1318982D01*
X505732D01*
X503700Y1314918D01*
X647700Y1154068D02*
X648716Y1155084D01*
X649732D01*
X648716Y1156100D01*
X649732Y1157116D01*
X648716D01*
X647700Y1158132D01*
X646684Y1157116D01*
X645668D01*
X646684Y1156100D01*
X645668Y1155084D01*
X646684D01*
X647700Y1154068D01*
Y1204068D02*
X648716Y1205084D01*
X649732D01*
X648716Y1206100D01*
X649732Y1207116D01*
X648716D01*
X647700Y1208132D01*
X646684Y1207116D01*
X645668D01*
X646684Y1206100D01*
X645668Y1205084D01*
X646684D01*
X647700Y1204068D01*
X264668Y1215068D02*
X265684Y1217100D01*
X264668Y1219132D01*
X266700Y1218116D01*
X268732Y1219132D01*
X267716Y1217100D01*
X268732Y1215068D01*
X266700Y1216084D01*
X264668Y1215068D01*
Y1143068D02*
X265684Y1145100D01*
X264668Y1147132D01*
X266700Y1146116D01*
X268732Y1147132D01*
X267716Y1145100D01*
X268732Y1143068D01*
X266700Y1144084D01*
X264668Y1143068D01*
X283700Y1449618D02*
X281668Y1453682D01*
X285732D01*
X283700Y1449618D01*
X249700D02*
X247668Y1453682D01*
X251732D01*
X249700Y1449618D01*
X283700Y1314918D02*
X281668Y1318982D01*
X285732D01*
X283700Y1314918D01*
X249700D02*
X247668Y1318982D01*
X251732D01*
X249700Y1314918D01*
X1028700Y1154068D02*
X1029716Y1155084D01*
X1030732D01*
X1029716Y1156100D01*
X1030732Y1157116D01*
X1029716D01*
X1028700Y1158132D01*
X1027684Y1157116D01*
X1026668D01*
X1027684Y1156100D01*
X1026668Y1155084D01*
X1027684D01*
X1028700Y1154068D01*
Y1204068D02*
X1029716Y1205084D01*
X1030732D01*
X1029716Y1206100D01*
X1030732Y1207116D01*
X1029716D01*
X1028700Y1208132D01*
X1027684Y1207116D01*
X1026668D01*
X1027684Y1206100D01*
X1026668Y1205084D01*
X1027684D01*
X1028700Y1204068D01*
X1282700Y1154068D02*
X1283716Y1155084D01*
X1284732D01*
X1283716Y1156100D01*
X1284732Y1157116D01*
X1283716D01*
X1282700Y1158132D01*
X1281684Y1157116D01*
X1280668D01*
X1281684Y1156100D01*
X1280668Y1155084D01*
X1281684D01*
X1282700Y1154068D01*
Y1204068D02*
X1283716Y1205084D01*
X1284732D01*
X1283716Y1206100D01*
X1284732Y1207116D01*
X1283716D01*
X1282700Y1208132D01*
X1281684Y1207116D01*
X1280668D01*
X1281684Y1206100D01*
X1280668Y1205084D01*
X1281684D01*
X1282700Y1204068D01*
X1155700D02*
X1156716Y1205084D01*
X1157732D01*
X1156716Y1206100D01*
X1157732Y1207116D01*
X1156716D01*
X1155700Y1208132D01*
X1154684Y1207116D01*
X1153668D01*
X1154684Y1206100D01*
X1153668Y1205084D01*
X1154684D01*
X1155700Y1204068D01*
Y1154068D02*
X1156716Y1155084D01*
X1157732D01*
X1156716Y1156100D01*
X1157732Y1157116D01*
X1156716D01*
X1155700Y1158132D01*
X1154684Y1157116D01*
X1153668D01*
X1154684Y1156100D01*
X1153668Y1155084D01*
X1154684D01*
X1155700Y1154068D01*
X774700D02*
X775716Y1155084D01*
X776732D01*
X775716Y1156100D01*
X776732Y1157116D01*
X775716D01*
X774700Y1158132D01*
X773684Y1157116D01*
X772668D01*
X773684Y1156100D01*
X772668Y1155084D01*
X773684D01*
X774700Y1154068D01*
Y1204068D02*
X775716Y1205084D01*
X776732D01*
X775716Y1206100D01*
X776732Y1207116D01*
X775716D01*
X774700Y1208132D01*
X773684Y1207116D01*
X772668D01*
X773684Y1206100D01*
X772668Y1205084D01*
X773684D01*
X774700Y1204068D01*
X901700D02*
X902716Y1205084D01*
X903732D01*
X902716Y1206100D01*
X903732Y1207116D01*
X902716D01*
X901700Y1208132D01*
X900684Y1207116D01*
X899668D01*
X900684Y1206100D01*
X899668Y1205084D01*
X900684D01*
X901700Y1204068D01*
Y1154068D02*
X902716Y1155084D01*
X903732D01*
X902716Y1156100D01*
X903732Y1157116D01*
X902716D01*
X901700Y1158132D01*
X900684Y1157116D01*
X899668D01*
X900684Y1156100D01*
X899668Y1155084D01*
X900684D01*
X901700Y1154068D01*
X520700D02*
X521716Y1155084D01*
X522732D01*
X521716Y1156100D01*
X522732Y1157116D01*
X521716D01*
X520700Y1158132D01*
X519684Y1157116D01*
X518668D01*
X519684Y1156100D01*
X518668Y1155084D01*
X519684D01*
X520700Y1154068D01*
Y1204068D02*
X521716Y1205084D01*
X522732D01*
X521716Y1206100D01*
X522732Y1207116D01*
X521716D01*
X520700Y1208132D01*
X519684Y1207116D01*
X518668D01*
X519684Y1206100D01*
X518668Y1205084D01*
X519684D01*
X520700Y1204068D01*
X393700D02*
X394716Y1205084D01*
X395732D01*
X394716Y1206100D01*
X395732Y1207116D01*
X394716D01*
X393700Y1208132D01*
X392684Y1207116D01*
X391668D01*
X392684Y1206100D01*
X391668Y1205084D01*
X392684D01*
X393700Y1204068D01*
Y1154068D02*
X394716Y1155084D01*
X395732D01*
X394716Y1156100D01*
X395732Y1157116D01*
X394716D01*
X393700Y1158132D01*
X392684Y1157116D01*
X391668D01*
X392684Y1156100D01*
X391668Y1155084D01*
X392684D01*
X393700Y1154068D01*
X884700Y1314918D02*
X882668Y1318982D01*
X886732D01*
X884700Y1314918D01*
X918700D02*
X916668Y1318982D01*
X920732D01*
X918700Y1314918D01*
X884700Y1449618D02*
X882668Y1453682D01*
X886732D01*
X884700Y1449618D01*
X918700D02*
X916668Y1453682D01*
X920732D01*
X918700Y1449618D01*
X757700Y1314918D02*
X755668Y1318982D01*
X759732D01*
X757700Y1314918D01*
X791700D02*
X789668Y1318982D01*
X793732D01*
X791700Y1314918D01*
X757700Y1449618D02*
X755668Y1453682D01*
X759732D01*
X757700Y1449618D01*
X791700D02*
X789668Y1453682D01*
X793732D01*
X791700Y1449618D01*
X1265700Y1314918D02*
X1263668Y1318982D01*
X1267732D01*
X1265700Y1314918D01*
X1299700D02*
X1297668Y1318982D01*
X1301732D01*
X1299700Y1314918D01*
X1265700Y1449618D02*
X1263668Y1453682D01*
X1267732D01*
X1265700Y1449618D01*
X1299700D02*
X1297668Y1453682D01*
X1301732D01*
X1299700Y1449618D01*
X1011700Y1314918D02*
X1009668Y1318982D01*
X1013732D01*
X1011700Y1314918D01*
X1045700D02*
X1043668Y1318982D01*
X1047732D01*
X1045700Y1314918D01*
X1011700Y1449618D02*
X1009668Y1453682D01*
X1013732D01*
X1011700Y1449618D01*
X1045700D02*
X1043668Y1453682D01*
X1047732D01*
X1045700Y1449618D01*
X376700Y1314918D02*
X374668Y1318982D01*
X378732D01*
X376700Y1314918D01*
X410700D02*
X408668Y1318982D01*
X412732D01*
X410700Y1314918D01*
X376700Y1449618D02*
X374668Y1453682D01*
X378732D01*
X376700Y1449618D01*
X410700D02*
X408668Y1453682D01*
X412732D01*
X410700Y1449618D01*
X630700Y1314918D02*
X628668Y1318982D01*
X632732D01*
X630700Y1314918D01*
X664700D02*
X662668Y1318982D01*
X666732D01*
X664700Y1314918D01*
X630700Y1449618D02*
X628668Y1453682D01*
X632732D01*
X630700Y1449618D01*
X664700D02*
X662668Y1453682D01*
X666732D01*
X664700Y1449618D01*
X151384Y1116584D02*
Y1115568D01*
X153416D01*
Y1116584D01*
X154432D01*
Y1118616D01*
X153416D01*
Y1119632D01*
X151384D01*
Y1118616D01*
X150368D01*
Y1116584D01*
X151384D01*
Y1472184D02*
Y1471168D01*
X153416D01*
Y1472184D01*
X154432D01*
Y1474216D01*
X153416D01*
Y1475232D01*
X151384D01*
Y1474216D01*
X150368D01*
Y1472184D01*
X151384D01*
X1395984D02*
Y1471168D01*
X1398016D01*
Y1472184D01*
X1399032D01*
Y1474216D01*
X1398016D01*
Y1475232D01*
X1395984D01*
Y1474216D01*
X1394968D01*
Y1472184D01*
X1395984D01*
Y1116584D02*
Y1115568D01*
X1398016D01*
Y1116584D01*
X1399032D01*
Y1118616D01*
X1398016D01*
Y1119632D01*
X1395984D01*
Y1118616D01*
X1394968D01*
Y1116584D01*
X1395984D01*
X1356868Y1499108D02*
X1357884D01*
X1358900Y1500124D01*
X1359916Y1499108D01*
X1360932D01*
Y1500124D01*
X1359916Y1501140D01*
X1360932Y1502156D01*
Y1503172D01*
X1359916D01*
X1358900Y1502156D01*
X1357884Y1503172D01*
X1356868D01*
Y1502156D01*
X1357884Y1501140D01*
X1356868Y1500124D01*
Y1499108D01*
X1229868D02*
X1230884D01*
X1231900Y1500124D01*
X1232916Y1499108D01*
X1233932D01*
Y1500124D01*
X1232916Y1501140D01*
X1233932Y1502156D01*
Y1503172D01*
X1232916D01*
X1231900Y1502156D01*
X1230884Y1503172D01*
X1229868D01*
Y1502156D01*
X1230884Y1501140D01*
X1229868Y1500124D01*
Y1499108D01*
X1102868D02*
X1103884D01*
X1104900Y1500124D01*
X1105916Y1499108D01*
X1106932D01*
Y1500124D01*
X1105916Y1501140D01*
X1106932Y1502156D01*
Y1503172D01*
X1105916D01*
X1104900Y1502156D01*
X1103884Y1503172D01*
X1102868D01*
Y1502156D01*
X1103884Y1501140D01*
X1102868Y1500124D01*
Y1499108D01*
X975868D02*
X976884D01*
X977900Y1500124D01*
X978916Y1499108D01*
X979932D01*
Y1500124D01*
X978916Y1501140D01*
X979932Y1502156D01*
Y1503172D01*
X978916D01*
X977900Y1502156D01*
X976884Y1503172D01*
X975868D01*
Y1502156D01*
X976884Y1501140D01*
X975868Y1500124D01*
Y1499108D01*
X848868D02*
X849884D01*
X850900Y1500124D01*
X851916Y1499108D01*
X852932D01*
Y1500124D01*
X851916Y1501140D01*
X852932Y1502156D01*
Y1503172D01*
X851916D01*
X850900Y1502156D01*
X849884Y1503172D01*
X848868D01*
Y1502156D01*
X849884Y1501140D01*
X848868Y1500124D01*
Y1499108D01*
X721868D02*
X722884D01*
X723900Y1500124D01*
X724916Y1499108D01*
X725932D01*
Y1500124D01*
X724916Y1501140D01*
X725932Y1502156D01*
Y1503172D01*
X724916D01*
X723900Y1502156D01*
X722884Y1503172D01*
X721868D01*
Y1502156D01*
X722884Y1501140D01*
X721868Y1500124D01*
Y1499108D01*
X594868D02*
X595884D01*
X596900Y1500124D01*
X597916Y1499108D01*
X598932D01*
Y1500124D01*
X597916Y1501140D01*
X598932Y1502156D01*
Y1503172D01*
X597916D01*
X596900Y1502156D01*
X595884Y1503172D01*
X594868D01*
Y1502156D01*
X595884Y1501140D01*
X594868Y1500124D01*
Y1499108D01*
X467868D02*
X468884D01*
X469900Y1500124D01*
X470916Y1499108D01*
X471932D01*
Y1500124D01*
X470916Y1501140D01*
X471932Y1502156D01*
Y1503172D01*
X470916D01*
X469900Y1502156D01*
X468884Y1503172D01*
X467868D01*
Y1502156D01*
X468884Y1501140D01*
X467868Y1500124D01*
Y1499108D01*
X340868D02*
X341884D01*
X342900Y1500124D01*
X343916Y1499108D01*
X344932D01*
Y1500124D01*
X343916Y1501140D01*
X344932Y1502156D01*
Y1503172D01*
X343916D01*
X342900Y1502156D01*
X341884Y1503172D01*
X340868D01*
Y1502156D01*
X341884Y1501140D01*
X340868Y1500124D01*
Y1499108D01*
X196088Y1478788D02*
X197104D01*
X198120Y1479804D01*
X199136Y1478788D01*
X200152D01*
Y1479804D01*
X199136Y1480820D01*
X200152Y1481836D01*
Y1482852D01*
X199136D01*
X198120Y1481836D01*
X197104Y1482852D01*
X196088D01*
Y1481836D01*
X197104Y1480820D01*
X196088Y1479804D01*
Y1478788D01*
X2544300Y1449618D02*
X2542268Y1453682D01*
X2546332D01*
X2544300Y1449618D01*
X2510300D02*
X2508268Y1453682D01*
X2512332D01*
X2510300Y1449618D01*
X2544300Y1314918D02*
X2542268Y1318982D01*
X2546332D01*
X2544300Y1314918D01*
X2510300D02*
X2508268Y1318982D01*
X2512332D01*
X2510300Y1314918D01*
X1909300Y1449618D02*
X1907268Y1453682D01*
X1911332D01*
X1909300Y1449618D01*
X1875300D02*
X1873268Y1453682D01*
X1877332D01*
X1875300Y1449618D01*
X1909300Y1314918D02*
X1907268Y1318982D01*
X1911332D01*
X1909300Y1314918D01*
X1875300D02*
X1873268Y1318982D01*
X1877332D01*
X1875300Y1314918D01*
X2019300Y1154068D02*
X2020316Y1155084D01*
X2021332D01*
X2020316Y1156100D01*
X2021332Y1157116D01*
X2020316D01*
X2019300Y1158132D01*
X2018284Y1157116D01*
X2017268D01*
X2018284Y1156100D01*
X2017268Y1155084D01*
X2018284D01*
X2019300Y1154068D01*
Y1204068D02*
X2020316Y1205084D01*
X2021332D01*
X2020316Y1206100D01*
X2021332Y1207116D01*
X2020316D01*
X2019300Y1208132D01*
X2018284Y1207116D01*
X2017268D01*
X2018284Y1206100D01*
X2017268Y1205084D01*
X2018284D01*
X2019300Y1204068D01*
X1636268Y1215068D02*
X1637284Y1217100D01*
X1636268Y1219132D01*
X1638300Y1218116D01*
X1640332Y1219132D01*
X1639316Y1217100D01*
X1640332Y1215068D01*
X1638300Y1216084D01*
X1636268Y1215068D01*
Y1143068D02*
X1637284Y1145100D01*
X1636268Y1147132D01*
X1638300Y1146116D01*
X1640332Y1147132D01*
X1639316Y1145100D01*
X1640332Y1143068D01*
X1638300Y1144084D01*
X1636268Y1143068D01*
X1655300Y1449618D02*
X1653268Y1453682D01*
X1657332D01*
X1655300Y1449618D01*
X1621300D02*
X1619268Y1453682D01*
X1623332D01*
X1621300Y1449618D01*
X1655300Y1314918D02*
X1653268Y1318982D01*
X1657332D01*
X1655300Y1314918D01*
X1621300D02*
X1619268Y1318982D01*
X1623332D01*
X1621300Y1314918D01*
X2400300Y1154068D02*
X2401316Y1155084D01*
X2402332D01*
X2401316Y1156100D01*
X2402332Y1157116D01*
X2401316D01*
X2400300Y1158132D01*
X2399284Y1157116D01*
X2398268D01*
X2399284Y1156100D01*
X2398268Y1155084D01*
X2399284D01*
X2400300Y1154068D01*
Y1204068D02*
X2401316Y1205084D01*
X2402332D01*
X2401316Y1206100D01*
X2402332Y1207116D01*
X2401316D01*
X2400300Y1208132D01*
X2399284Y1207116D01*
X2398268D01*
X2399284Y1206100D01*
X2398268Y1205084D01*
X2399284D01*
X2400300Y1204068D01*
X2654300Y1154068D02*
X2655316Y1155084D01*
X2656332D01*
X2655316Y1156100D01*
X2656332Y1157116D01*
X2655316D01*
X2654300Y1158132D01*
X2653284Y1157116D01*
X2652268D01*
X2653284Y1156100D01*
X2652268Y1155084D01*
X2653284D01*
X2654300Y1154068D01*
Y1204068D02*
X2655316Y1205084D01*
X2656332D01*
X2655316Y1206100D01*
X2656332Y1207116D01*
X2655316D01*
X2654300Y1208132D01*
X2653284Y1207116D01*
X2652268D01*
X2653284Y1206100D01*
X2652268Y1205084D01*
X2653284D01*
X2654300Y1204068D01*
X2527300D02*
X2528316Y1205084D01*
X2529332D01*
X2528316Y1206100D01*
X2529332Y1207116D01*
X2528316D01*
X2527300Y1208132D01*
X2526284Y1207116D01*
X2525268D01*
X2526284Y1206100D01*
X2525268Y1205084D01*
X2526284D01*
X2527300Y1204068D01*
Y1154068D02*
X2528316Y1155084D01*
X2529332D01*
X2528316Y1156100D01*
X2529332Y1157116D01*
X2528316D01*
X2527300Y1158132D01*
X2526284Y1157116D01*
X2525268D01*
X2526284Y1156100D01*
X2525268Y1155084D01*
X2526284D01*
X2527300Y1154068D01*
X2146300D02*
X2147316Y1155084D01*
X2148332D01*
X2147316Y1156100D01*
X2148332Y1157116D01*
X2147316D01*
X2146300Y1158132D01*
X2145284Y1157116D01*
X2144268D01*
X2145284Y1156100D01*
X2144268Y1155084D01*
X2145284D01*
X2146300Y1154068D01*
Y1204068D02*
X2147316Y1205084D01*
X2148332D01*
X2147316Y1206100D01*
X2148332Y1207116D01*
X2147316D01*
X2146300Y1208132D01*
X2145284Y1207116D01*
X2144268D01*
X2145284Y1206100D01*
X2144268Y1205084D01*
X2145284D01*
X2146300Y1204068D01*
X2273300D02*
X2274316Y1205084D01*
X2275332D01*
X2274316Y1206100D01*
X2275332Y1207116D01*
X2274316D01*
X2273300Y1208132D01*
X2272284Y1207116D01*
X2271268D01*
X2272284Y1206100D01*
X2271268Y1205084D01*
X2272284D01*
X2273300Y1204068D01*
Y1154068D02*
X2274316Y1155084D01*
X2275332D01*
X2274316Y1156100D01*
X2275332Y1157116D01*
X2274316D01*
X2273300Y1158132D01*
X2272284Y1157116D01*
X2271268D01*
X2272284Y1156100D01*
X2271268Y1155084D01*
X2272284D01*
X2273300Y1154068D01*
X1892300D02*
X1893316Y1155084D01*
X1894332D01*
X1893316Y1156100D01*
X1894332Y1157116D01*
X1893316D01*
X1892300Y1158132D01*
X1891284Y1157116D01*
X1890268D01*
X1891284Y1156100D01*
X1890268Y1155084D01*
X1891284D01*
X1892300Y1154068D01*
Y1204068D02*
X1893316Y1205084D01*
X1894332D01*
X1893316Y1206100D01*
X1894332Y1207116D01*
X1893316D01*
X1892300Y1208132D01*
X1891284Y1207116D01*
X1890268D01*
X1891284Y1206100D01*
X1890268Y1205084D01*
X1891284D01*
X1892300Y1204068D01*
X1765300D02*
X1766316Y1205084D01*
X1767332D01*
X1766316Y1206100D01*
X1767332Y1207116D01*
X1766316D01*
X1765300Y1208132D01*
X1764284Y1207116D01*
X1763268D01*
X1764284Y1206100D01*
X1763268Y1205084D01*
X1764284D01*
X1765300Y1204068D01*
Y1154068D02*
X1766316Y1155084D01*
X1767332D01*
X1766316Y1156100D01*
X1767332Y1157116D01*
X1766316D01*
X1765300Y1158132D01*
X1764284Y1157116D01*
X1763268D01*
X1764284Y1156100D01*
X1763268Y1155084D01*
X1764284D01*
X1765300Y1154068D01*
X2256300Y1314918D02*
X2254268Y1318982D01*
X2258332D01*
X2256300Y1314918D01*
X2290300D02*
X2288268Y1318982D01*
X2292332D01*
X2290300Y1314918D01*
X2256300Y1449618D02*
X2254268Y1453682D01*
X2258332D01*
X2256300Y1449618D01*
X2290300D02*
X2288268Y1453682D01*
X2292332D01*
X2290300Y1449618D01*
X2129300Y1314918D02*
X2127268Y1318982D01*
X2131332D01*
X2129300Y1314918D01*
X2163300D02*
X2161268Y1318982D01*
X2165332D01*
X2163300Y1314918D01*
X2129300Y1449618D02*
X2127268Y1453682D01*
X2131332D01*
X2129300Y1449618D01*
X2163300D02*
X2161268Y1453682D01*
X2165332D01*
X2163300Y1449618D01*
X2637300Y1314918D02*
X2635268Y1318982D01*
X2639332D01*
X2637300Y1314918D01*
X2671300D02*
X2669268Y1318982D01*
X2673332D01*
X2671300Y1314918D01*
X2637300Y1449618D02*
X2635268Y1453682D01*
X2639332D01*
X2637300Y1449618D01*
X2671300D02*
X2669268Y1453682D01*
X2673332D01*
X2671300Y1449618D01*
X2383300Y1314918D02*
X2381268Y1318982D01*
X2385332D01*
X2383300Y1314918D01*
X2417300D02*
X2415268Y1318982D01*
X2419332D01*
X2417300Y1314918D01*
X2383300Y1449618D02*
X2381268Y1453682D01*
X2385332D01*
X2383300Y1449618D01*
X2417300D02*
X2415268Y1453682D01*
X2419332D01*
X2417300Y1449618D01*
X1748300Y1314918D02*
X1746268Y1318982D01*
X1750332D01*
X1748300Y1314918D01*
X1782300D02*
X1780268Y1318982D01*
X1784332D01*
X1782300Y1314918D01*
X1748300Y1449618D02*
X1746268Y1453682D01*
X1750332D01*
X1748300Y1449618D01*
X1782300D02*
X1780268Y1453682D01*
X1784332D01*
X1782300Y1449618D01*
X2002300Y1314918D02*
X2000268Y1318982D01*
X2004332D01*
X2002300Y1314918D01*
X2036300D02*
X2034268Y1318982D01*
X2038332D01*
X2036300Y1314918D01*
X2002300Y1449618D02*
X2000268Y1453682D01*
X2004332D01*
X2002300Y1449618D01*
X2036300D02*
X2034268Y1453682D01*
X2038332D01*
X2036300Y1449618D01*
X1522984Y1116584D02*
Y1115568D01*
X1525016D01*
Y1116584D01*
X1526032D01*
Y1118616D01*
X1525016D01*
Y1119632D01*
X1522984D01*
Y1118616D01*
X1521968D01*
Y1116584D01*
X1522984D01*
Y1472184D02*
Y1471168D01*
X1525016D01*
Y1472184D01*
X1526032D01*
Y1474216D01*
X1525016D01*
Y1475232D01*
X1522984D01*
Y1474216D01*
X1521968D01*
Y1472184D01*
X1522984D01*
X2767584D02*
Y1471168D01*
X2769616D01*
Y1472184D01*
X2770632D01*
Y1474216D01*
X2769616D01*
Y1475232D01*
X2767584D01*
Y1474216D01*
X2766568D01*
Y1472184D01*
X2767584D01*
Y1116584D02*
Y1115568D01*
X2769616D01*
Y1116584D01*
X2770632D01*
Y1118616D01*
X2769616D01*
Y1119632D01*
X2767584D01*
Y1118616D01*
X2766568D01*
Y1116584D01*
X2767584D01*
X2728468Y1499108D02*
X2729484D01*
X2730500Y1500124D01*
X2731516Y1499108D01*
X2732532D01*
Y1500124D01*
X2731516Y1501140D01*
X2732532Y1502156D01*
Y1503172D01*
X2731516D01*
X2730500Y1502156D01*
X2729484Y1503172D01*
X2728468D01*
Y1502156D01*
X2729484Y1501140D01*
X2728468Y1500124D01*
Y1499108D01*
X2601468D02*
X2602484D01*
X2603500Y1500124D01*
X2604516Y1499108D01*
X2605532D01*
Y1500124D01*
X2604516Y1501140D01*
X2605532Y1502156D01*
Y1503172D01*
X2604516D01*
X2603500Y1502156D01*
X2602484Y1503172D01*
X2601468D01*
Y1502156D01*
X2602484Y1501140D01*
X2601468Y1500124D01*
Y1499108D01*
X2474468D02*
X2475484D01*
X2476500Y1500124D01*
X2477516Y1499108D01*
X2478532D01*
Y1500124D01*
X2477516Y1501140D01*
X2478532Y1502156D01*
Y1503172D01*
X2477516D01*
X2476500Y1502156D01*
X2475484Y1503172D01*
X2474468D01*
Y1502156D01*
X2475484Y1501140D01*
X2474468Y1500124D01*
Y1499108D01*
X2347468D02*
X2348484D01*
X2349500Y1500124D01*
X2350516Y1499108D01*
X2351532D01*
Y1500124D01*
X2350516Y1501140D01*
X2351532Y1502156D01*
Y1503172D01*
X2350516D01*
X2349500Y1502156D01*
X2348484Y1503172D01*
X2347468D01*
Y1502156D01*
X2348484Y1501140D01*
X2347468Y1500124D01*
Y1499108D01*
X2220468D02*
X2221484D01*
X2222500Y1500124D01*
X2223516Y1499108D01*
X2224532D01*
Y1500124D01*
X2223516Y1501140D01*
X2224532Y1502156D01*
Y1503172D01*
X2223516D01*
X2222500Y1502156D01*
X2221484Y1503172D01*
X2220468D01*
Y1502156D01*
X2221484Y1501140D01*
X2220468Y1500124D01*
Y1499108D01*
X2093468D02*
X2094484D01*
X2095500Y1500124D01*
X2096516Y1499108D01*
X2097532D01*
Y1500124D01*
X2096516Y1501140D01*
X2097532Y1502156D01*
Y1503172D01*
X2096516D01*
X2095500Y1502156D01*
X2094484Y1503172D01*
X2093468D01*
Y1502156D01*
X2094484Y1501140D01*
X2093468Y1500124D01*
Y1499108D01*
X1966468D02*
X1967484D01*
X1968500Y1500124D01*
X1969516Y1499108D01*
X1970532D01*
Y1500124D01*
X1969516Y1501140D01*
X1970532Y1502156D01*
Y1503172D01*
X1969516D01*
X1968500Y1502156D01*
X1967484Y1503172D01*
X1966468D01*
Y1502156D01*
X1967484Y1501140D01*
X1966468Y1500124D01*
Y1499108D01*
X1839468D02*
X1840484D01*
X1841500Y1500124D01*
X1842516Y1499108D01*
X1843532D01*
Y1500124D01*
X1842516Y1501140D01*
X1843532Y1502156D01*
Y1503172D01*
X1842516D01*
X1841500Y1502156D01*
X1840484Y1503172D01*
X1839468D01*
Y1502156D01*
X1840484Y1501140D01*
X1839468Y1500124D01*
Y1499108D01*
X1712468D02*
X1713484D01*
X1714500Y1500124D01*
X1715516Y1499108D01*
X1716532D01*
Y1500124D01*
X1715516Y1501140D01*
X1716532Y1502156D01*
Y1503172D01*
X1715516D01*
X1714500Y1502156D01*
X1713484Y1503172D01*
X1712468D01*
Y1502156D01*
X1713484Y1501140D01*
X1712468Y1500124D01*
Y1499108D01*
X1567688Y1478788D02*
X1568704D01*
X1569720Y1479804D01*
X1570736Y1478788D01*
X1571752D01*
Y1479804D01*
X1570736Y1480820D01*
X1571752Y1481836D01*
Y1482852D01*
X1570736D01*
X1569720Y1481836D01*
X1568704Y1482852D01*
X1567688D01*
Y1481836D01*
X1568704Y1480820D01*
X1567688Y1479804D01*
Y1478788D01*
X1172700Y1932218D02*
X1170668Y1936282D01*
X1174732D01*
X1172700Y1932218D01*
X1138700D02*
X1136668Y1936282D01*
X1140732D01*
X1138700Y1932218D01*
X1172700Y1797518D02*
X1170668Y1801582D01*
X1174732D01*
X1172700Y1797518D01*
X1138700D02*
X1136668Y1801582D01*
X1140732D01*
X1138700Y1797518D01*
X537700Y1932218D02*
X535668Y1936282D01*
X539732D01*
X537700Y1932218D01*
X503700D02*
X501668Y1936282D01*
X505732D01*
X503700Y1932218D01*
X537700Y1797518D02*
X535668Y1801582D01*
X539732D01*
X537700Y1797518D01*
X503700D02*
X501668Y1801582D01*
X505732D01*
X503700Y1797518D01*
X647700Y1636668D02*
X648716Y1637684D01*
X649732D01*
X648716Y1638700D01*
X649732Y1639716D01*
X648716D01*
X647700Y1640732D01*
X646684Y1639716D01*
X645668D01*
X646684Y1638700D01*
X645668Y1637684D01*
X646684D01*
X647700Y1636668D01*
Y1686668D02*
X648716Y1687684D01*
X649732D01*
X648716Y1688700D01*
X649732Y1689716D01*
X648716D01*
X647700Y1690732D01*
X646684Y1689716D01*
X645668D01*
X646684Y1688700D01*
X645668Y1687684D01*
X646684D01*
X647700Y1686668D01*
X264668Y1697668D02*
X265684Y1699700D01*
X264668Y1701732D01*
X266700Y1700716D01*
X268732Y1701732D01*
X267716Y1699700D01*
X268732Y1697668D01*
X266700Y1698684D01*
X264668Y1697668D01*
Y1625668D02*
X265684Y1627700D01*
X264668Y1629732D01*
X266700Y1628716D01*
X268732Y1629732D01*
X267716Y1627700D01*
X268732Y1625668D01*
X266700Y1626684D01*
X264668Y1625668D01*
X283700Y1932218D02*
X281668Y1936282D01*
X285732D01*
X283700Y1932218D01*
X249700D02*
X247668Y1936282D01*
X251732D01*
X249700Y1932218D01*
X283700Y1797518D02*
X281668Y1801582D01*
X285732D01*
X283700Y1797518D01*
X249700D02*
X247668Y1801582D01*
X251732D01*
X249700Y1797518D01*
X1028700Y1636668D02*
X1029716Y1637684D01*
X1030732D01*
X1029716Y1638700D01*
X1030732Y1639716D01*
X1029716D01*
X1028700Y1640732D01*
X1027684Y1639716D01*
X1026668D01*
X1027684Y1638700D01*
X1026668Y1637684D01*
X1027684D01*
X1028700Y1636668D01*
Y1686668D02*
X1029716Y1687684D01*
X1030732D01*
X1029716Y1688700D01*
X1030732Y1689716D01*
X1029716D01*
X1028700Y1690732D01*
X1027684Y1689716D01*
X1026668D01*
X1027684Y1688700D01*
X1026668Y1687684D01*
X1027684D01*
X1028700Y1686668D01*
X1282700Y1636668D02*
X1283716Y1637684D01*
X1284732D01*
X1283716Y1638700D01*
X1284732Y1639716D01*
X1283716D01*
X1282700Y1640732D01*
X1281684Y1639716D01*
X1280668D01*
X1281684Y1638700D01*
X1280668Y1637684D01*
X1281684D01*
X1282700Y1636668D01*
Y1686668D02*
X1283716Y1687684D01*
X1284732D01*
X1283716Y1688700D01*
X1284732Y1689716D01*
X1283716D01*
X1282700Y1690732D01*
X1281684Y1689716D01*
X1280668D01*
X1281684Y1688700D01*
X1280668Y1687684D01*
X1281684D01*
X1282700Y1686668D01*
X1155700D02*
X1156716Y1687684D01*
X1157732D01*
X1156716Y1688700D01*
X1157732Y1689716D01*
X1156716D01*
X1155700Y1690732D01*
X1154684Y1689716D01*
X1153668D01*
X1154684Y1688700D01*
X1153668Y1687684D01*
X1154684D01*
X1155700Y1686668D01*
Y1636668D02*
X1156716Y1637684D01*
X1157732D01*
X1156716Y1638700D01*
X1157732Y1639716D01*
X1156716D01*
X1155700Y1640732D01*
X1154684Y1639716D01*
X1153668D01*
X1154684Y1638700D01*
X1153668Y1637684D01*
X1154684D01*
X1155700Y1636668D01*
X774700D02*
X775716Y1637684D01*
X776732D01*
X775716Y1638700D01*
X776732Y1639716D01*
X775716D01*
X774700Y1640732D01*
X773684Y1639716D01*
X772668D01*
X773684Y1638700D01*
X772668Y1637684D01*
X773684D01*
X774700Y1636668D01*
Y1686668D02*
X775716Y1687684D01*
X776732D01*
X775716Y1688700D01*
X776732Y1689716D01*
X775716D01*
X774700Y1690732D01*
X773684Y1689716D01*
X772668D01*
X773684Y1688700D01*
X772668Y1687684D01*
X773684D01*
X774700Y1686668D01*
X901700D02*
X902716Y1687684D01*
X903732D01*
X902716Y1688700D01*
X903732Y1689716D01*
X902716D01*
X901700Y1690732D01*
X900684Y1689716D01*
X899668D01*
X900684Y1688700D01*
X899668Y1687684D01*
X900684D01*
X901700Y1686668D01*
Y1636668D02*
X902716Y1637684D01*
X903732D01*
X902716Y1638700D01*
X903732Y1639716D01*
X902716D01*
X901700Y1640732D01*
X900684Y1639716D01*
X899668D01*
X900684Y1638700D01*
X899668Y1637684D01*
X900684D01*
X901700Y1636668D01*
X520700D02*
X521716Y1637684D01*
X522732D01*
X521716Y1638700D01*
X522732Y1639716D01*
X521716D01*
X520700Y1640732D01*
X519684Y1639716D01*
X518668D01*
X519684Y1638700D01*
X518668Y1637684D01*
X519684D01*
X520700Y1636668D01*
Y1686668D02*
X521716Y1687684D01*
X522732D01*
X521716Y1688700D01*
X522732Y1689716D01*
X521716D01*
X520700Y1690732D01*
X519684Y1689716D01*
X518668D01*
X519684Y1688700D01*
X518668Y1687684D01*
X519684D01*
X520700Y1686668D01*
X393700D02*
X394716Y1687684D01*
X395732D01*
X394716Y1688700D01*
X395732Y1689716D01*
X394716D01*
X393700Y1690732D01*
X392684Y1689716D01*
X391668D01*
X392684Y1688700D01*
X391668Y1687684D01*
X392684D01*
X393700Y1686668D01*
Y1636668D02*
X394716Y1637684D01*
X395732D01*
X394716Y1638700D01*
X395732Y1639716D01*
X394716D01*
X393700Y1640732D01*
X392684Y1639716D01*
X391668D01*
X392684Y1638700D01*
X391668Y1637684D01*
X392684D01*
X393700Y1636668D01*
X884700Y1797518D02*
X882668Y1801582D01*
X886732D01*
X884700Y1797518D01*
X918700D02*
X916668Y1801582D01*
X920732D01*
X918700Y1797518D01*
X884700Y1932218D02*
X882668Y1936282D01*
X886732D01*
X884700Y1932218D01*
X918700D02*
X916668Y1936282D01*
X920732D01*
X918700Y1932218D01*
X757700Y1797518D02*
X755668Y1801582D01*
X759732D01*
X757700Y1797518D01*
X791700D02*
X789668Y1801582D01*
X793732D01*
X791700Y1797518D01*
X757700Y1932218D02*
X755668Y1936282D01*
X759732D01*
X757700Y1932218D01*
X791700D02*
X789668Y1936282D01*
X793732D01*
X791700Y1932218D01*
X1265700Y1797518D02*
X1263668Y1801582D01*
X1267732D01*
X1265700Y1797518D01*
X1299700D02*
X1297668Y1801582D01*
X1301732D01*
X1299700Y1797518D01*
X1265700Y1932218D02*
X1263668Y1936282D01*
X1267732D01*
X1265700Y1932218D01*
X1299700D02*
X1297668Y1936282D01*
X1301732D01*
X1299700Y1932218D01*
X1011700Y1797518D02*
X1009668Y1801582D01*
X1013732D01*
X1011700Y1797518D01*
X1045700D02*
X1043668Y1801582D01*
X1047732D01*
X1045700Y1797518D01*
X1011700Y1932218D02*
X1009668Y1936282D01*
X1013732D01*
X1011700Y1932218D01*
X1045700D02*
X1043668Y1936282D01*
X1047732D01*
X1045700Y1932218D01*
X376700Y1797518D02*
X374668Y1801582D01*
X378732D01*
X376700Y1797518D01*
X410700D02*
X408668Y1801582D01*
X412732D01*
X410700Y1797518D01*
X376700Y1932218D02*
X374668Y1936282D01*
X378732D01*
X376700Y1932218D01*
X410700D02*
X408668Y1936282D01*
X412732D01*
X410700Y1932218D01*
X630700Y1797518D02*
X628668Y1801582D01*
X632732D01*
X630700Y1797518D01*
X664700D02*
X662668Y1801582D01*
X666732D01*
X664700Y1797518D01*
X630700Y1932218D02*
X628668Y1936282D01*
X632732D01*
X630700Y1932218D01*
X664700D02*
X662668Y1936282D01*
X666732D01*
X664700Y1932218D01*
X151384Y1599184D02*
Y1598168D01*
X153416D01*
Y1599184D01*
X154432D01*
Y1601216D01*
X153416D01*
Y1602232D01*
X151384D01*
Y1601216D01*
X150368D01*
Y1599184D01*
X151384D01*
Y1954784D02*
Y1953768D01*
X153416D01*
Y1954784D01*
X154432D01*
Y1956816D01*
X153416D01*
Y1957832D01*
X151384D01*
Y1956816D01*
X150368D01*
Y1954784D01*
X151384D01*
X1395984D02*
Y1953768D01*
X1398016D01*
Y1954784D01*
X1399032D01*
Y1956816D01*
X1398016D01*
Y1957832D01*
X1395984D01*
Y1956816D01*
X1394968D01*
Y1954784D01*
X1395984D01*
Y1599184D02*
Y1598168D01*
X1398016D01*
Y1599184D01*
X1399032D01*
Y1601216D01*
X1398016D01*
Y1602232D01*
X1395984D01*
Y1601216D01*
X1394968D01*
Y1599184D01*
X1395984D01*
X1356868Y1981708D02*
X1357884D01*
X1358900Y1982724D01*
X1359916Y1981708D01*
X1360932D01*
Y1982724D01*
X1359916Y1983740D01*
X1360932Y1984756D01*
Y1985772D01*
X1359916D01*
X1358900Y1984756D01*
X1357884Y1985772D01*
X1356868D01*
Y1984756D01*
X1357884Y1983740D01*
X1356868Y1982724D01*
Y1981708D01*
X1229868D02*
X1230884D01*
X1231900Y1982724D01*
X1232916Y1981708D01*
X1233932D01*
Y1982724D01*
X1232916Y1983740D01*
X1233932Y1984756D01*
Y1985772D01*
X1232916D01*
X1231900Y1984756D01*
X1230884Y1985772D01*
X1229868D01*
Y1984756D01*
X1230884Y1983740D01*
X1229868Y1982724D01*
Y1981708D01*
X1102868D02*
X1103884D01*
X1104900Y1982724D01*
X1105916Y1981708D01*
X1106932D01*
Y1982724D01*
X1105916Y1983740D01*
X1106932Y1984756D01*
Y1985772D01*
X1105916D01*
X1104900Y1984756D01*
X1103884Y1985772D01*
X1102868D01*
Y1984756D01*
X1103884Y1983740D01*
X1102868Y1982724D01*
Y1981708D01*
X975868D02*
X976884D01*
X977900Y1982724D01*
X978916Y1981708D01*
X979932D01*
Y1982724D01*
X978916Y1983740D01*
X979932Y1984756D01*
Y1985772D01*
X978916D01*
X977900Y1984756D01*
X976884Y1985772D01*
X975868D01*
Y1984756D01*
X976884Y1983740D01*
X975868Y1982724D01*
Y1981708D01*
X848868D02*
X849884D01*
X850900Y1982724D01*
X851916Y1981708D01*
X852932D01*
Y1982724D01*
X851916Y1983740D01*
X852932Y1984756D01*
Y1985772D01*
X851916D01*
X850900Y1984756D01*
X849884Y1985772D01*
X848868D01*
Y1984756D01*
X849884Y1983740D01*
X848868Y1982724D01*
Y1981708D01*
X721868D02*
X722884D01*
X723900Y1982724D01*
X724916Y1981708D01*
X725932D01*
Y1982724D01*
X724916Y1983740D01*
X725932Y1984756D01*
Y1985772D01*
X724916D01*
X723900Y1984756D01*
X722884Y1985772D01*
X721868D01*
Y1984756D01*
X722884Y1983740D01*
X721868Y1982724D01*
Y1981708D01*
X594868D02*
X595884D01*
X596900Y1982724D01*
X597916Y1981708D01*
X598932D01*
Y1982724D01*
X597916Y1983740D01*
X598932Y1984756D01*
Y1985772D01*
X597916D01*
X596900Y1984756D01*
X595884Y1985772D01*
X594868D01*
Y1984756D01*
X595884Y1983740D01*
X594868Y1982724D01*
Y1981708D01*
X467868D02*
X468884D01*
X469900Y1982724D01*
X470916Y1981708D01*
X471932D01*
Y1982724D01*
X470916Y1983740D01*
X471932Y1984756D01*
Y1985772D01*
X470916D01*
X469900Y1984756D01*
X468884Y1985772D01*
X467868D01*
Y1984756D01*
X468884Y1983740D01*
X467868Y1982724D01*
Y1981708D01*
X340868D02*
X341884D01*
X342900Y1982724D01*
X343916Y1981708D01*
X344932D01*
Y1982724D01*
X343916Y1983740D01*
X344932Y1984756D01*
Y1985772D01*
X343916D01*
X342900Y1984756D01*
X341884Y1985772D01*
X340868D01*
Y1984756D01*
X341884Y1983740D01*
X340868Y1982724D01*
Y1981708D01*
X196088Y1961388D02*
X197104D01*
X198120Y1962404D01*
X199136Y1961388D01*
X200152D01*
Y1962404D01*
X199136Y1963420D01*
X200152Y1964436D01*
Y1965452D01*
X199136D01*
X198120Y1964436D01*
X197104Y1965452D01*
X196088D01*
Y1964436D01*
X197104Y1963420D01*
X196088Y1962404D01*
Y1961388D01*
X2544300Y1932218D02*
X2542268Y1936282D01*
X2546332D01*
X2544300Y1932218D01*
X2510300D02*
X2508268Y1936282D01*
X2512332D01*
X2510300Y1932218D01*
X2544300Y1797518D02*
X2542268Y1801582D01*
X2546332D01*
X2544300Y1797518D01*
X2510300D02*
X2508268Y1801582D01*
X2512332D01*
X2510300Y1797518D01*
X1909300Y1932218D02*
X1907268Y1936282D01*
X1911332D01*
X1909300Y1932218D01*
X1875300D02*
X1873268Y1936282D01*
X1877332D01*
X1875300Y1932218D01*
X1909300Y1797518D02*
X1907268Y1801582D01*
X1911332D01*
X1909300Y1797518D01*
X1875300D02*
X1873268Y1801582D01*
X1877332D01*
X1875300Y1797518D01*
X2019300Y1636668D02*
X2020316Y1637684D01*
X2021332D01*
X2020316Y1638700D01*
X2021332Y1639716D01*
X2020316D01*
X2019300Y1640732D01*
X2018284Y1639716D01*
X2017268D01*
X2018284Y1638700D01*
X2017268Y1637684D01*
X2018284D01*
X2019300Y1636668D01*
Y1686668D02*
X2020316Y1687684D01*
X2021332D01*
X2020316Y1688700D01*
X2021332Y1689716D01*
X2020316D01*
X2019300Y1690732D01*
X2018284Y1689716D01*
X2017268D01*
X2018284Y1688700D01*
X2017268Y1687684D01*
X2018284D01*
X2019300Y1686668D01*
X1636268Y1697668D02*
X1637284Y1699700D01*
X1636268Y1701732D01*
X1638300Y1700716D01*
X1640332Y1701732D01*
X1639316Y1699700D01*
X1640332Y1697668D01*
X1638300Y1698684D01*
X1636268Y1697668D01*
Y1625668D02*
X1637284Y1627700D01*
X1636268Y1629732D01*
X1638300Y1628716D01*
X1640332Y1629732D01*
X1639316Y1627700D01*
X1640332Y1625668D01*
X1638300Y1626684D01*
X1636268Y1625668D01*
X1655300Y1932218D02*
X1653268Y1936282D01*
X1657332D01*
X1655300Y1932218D01*
X1621300D02*
X1619268Y1936282D01*
X1623332D01*
X1621300Y1932218D01*
X1655300Y1797518D02*
X1653268Y1801582D01*
X1657332D01*
X1655300Y1797518D01*
X1621300D02*
X1619268Y1801582D01*
X1623332D01*
X1621300Y1797518D01*
X2400300Y1636668D02*
X2401316Y1637684D01*
X2402332D01*
X2401316Y1638700D01*
X2402332Y1639716D01*
X2401316D01*
X2400300Y1640732D01*
X2399284Y1639716D01*
X2398268D01*
X2399284Y1638700D01*
X2398268Y1637684D01*
X2399284D01*
X2400300Y1636668D01*
Y1686668D02*
X2401316Y1687684D01*
X2402332D01*
X2401316Y1688700D01*
X2402332Y1689716D01*
X2401316D01*
X2400300Y1690732D01*
X2399284Y1689716D01*
X2398268D01*
X2399284Y1688700D01*
X2398268Y1687684D01*
X2399284D01*
X2400300Y1686668D01*
X2654300Y1636668D02*
X2655316Y1637684D01*
X2656332D01*
X2655316Y1638700D01*
X2656332Y1639716D01*
X2655316D01*
X2654300Y1640732D01*
X2653284Y1639716D01*
X2652268D01*
X2653284Y1638700D01*
X2652268Y1637684D01*
X2653284D01*
X2654300Y1636668D01*
Y1686668D02*
X2655316Y1687684D01*
X2656332D01*
X2655316Y1688700D01*
X2656332Y1689716D01*
X2655316D01*
X2654300Y1690732D01*
X2653284Y1689716D01*
X2652268D01*
X2653284Y1688700D01*
X2652268Y1687684D01*
X2653284D01*
X2654300Y1686668D01*
X2527300D02*
X2528316Y1687684D01*
X2529332D01*
X2528316Y1688700D01*
X2529332Y1689716D01*
X2528316D01*
X2527300Y1690732D01*
X2526284Y1689716D01*
X2525268D01*
X2526284Y1688700D01*
X2525268Y1687684D01*
X2526284D01*
X2527300Y1686668D01*
Y1636668D02*
X2528316Y1637684D01*
X2529332D01*
X2528316Y1638700D01*
X2529332Y1639716D01*
X2528316D01*
X2527300Y1640732D01*
X2526284Y1639716D01*
X2525268D01*
X2526284Y1638700D01*
X2525268Y1637684D01*
X2526284D01*
X2527300Y1636668D01*
X2146300D02*
X2147316Y1637684D01*
X2148332D01*
X2147316Y1638700D01*
X2148332Y1639716D01*
X2147316D01*
X2146300Y1640732D01*
X2145284Y1639716D01*
X2144268D01*
X2145284Y1638700D01*
X2144268Y1637684D01*
X2145284D01*
X2146300Y1636668D01*
Y1686668D02*
X2147316Y1687684D01*
X2148332D01*
X2147316Y1688700D01*
X2148332Y1689716D01*
X2147316D01*
X2146300Y1690732D01*
X2145284Y1689716D01*
X2144268D01*
X2145284Y1688700D01*
X2144268Y1687684D01*
X2145284D01*
X2146300Y1686668D01*
X2273300D02*
X2274316Y1687684D01*
X2275332D01*
X2274316Y1688700D01*
X2275332Y1689716D01*
X2274316D01*
X2273300Y1690732D01*
X2272284Y1689716D01*
X2271268D01*
X2272284Y1688700D01*
X2271268Y1687684D01*
X2272284D01*
X2273300Y1686668D01*
Y1636668D02*
X2274316Y1637684D01*
X2275332D01*
X2274316Y1638700D01*
X2275332Y1639716D01*
X2274316D01*
X2273300Y1640732D01*
X2272284Y1639716D01*
X2271268D01*
X2272284Y1638700D01*
X2271268Y1637684D01*
X2272284D01*
X2273300Y1636668D01*
X1892300D02*
X1893316Y1637684D01*
X1894332D01*
X1893316Y1638700D01*
X1894332Y1639716D01*
X1893316D01*
X1892300Y1640732D01*
X1891284Y1639716D01*
X1890268D01*
X1891284Y1638700D01*
X1890268Y1637684D01*
X1891284D01*
X1892300Y1636668D01*
Y1686668D02*
X1893316Y1687684D01*
X1894332D01*
X1893316Y1688700D01*
X1894332Y1689716D01*
X1893316D01*
X1892300Y1690732D01*
X1891284Y1689716D01*
X1890268D01*
X1891284Y1688700D01*
X1890268Y1687684D01*
X1891284D01*
X1892300Y1686668D01*
X1765300D02*
X1766316Y1687684D01*
X1767332D01*
X1766316Y1688700D01*
X1767332Y1689716D01*
X1766316D01*
X1765300Y1690732D01*
X1764284Y1689716D01*
X1763268D01*
X1764284Y1688700D01*
X1763268Y1687684D01*
X1764284D01*
X1765300Y1686668D01*
Y1636668D02*
X1766316Y1637684D01*
X1767332D01*
X1766316Y1638700D01*
X1767332Y1639716D01*
X1766316D01*
X1765300Y1640732D01*
X1764284Y1639716D01*
X1763268D01*
X1764284Y1638700D01*
X1763268Y1637684D01*
X1764284D01*
X1765300Y1636668D01*
X2256300Y1797518D02*
X2254268Y1801582D01*
X2258332D01*
X2256300Y1797518D01*
X2290300D02*
X2288268Y1801582D01*
X2292332D01*
X2290300Y1797518D01*
X2256300Y1932218D02*
X2254268Y1936282D01*
X2258332D01*
X2256300Y1932218D01*
X2290300D02*
X2288268Y1936282D01*
X2292332D01*
X2290300Y1932218D01*
X2129300Y1797518D02*
X2127268Y1801582D01*
X2131332D01*
X2129300Y1797518D01*
X2163300D02*
X2161268Y1801582D01*
X2165332D01*
X2163300Y1797518D01*
X2129300Y1932218D02*
X2127268Y1936282D01*
X2131332D01*
X2129300Y1932218D01*
X2163300D02*
X2161268Y1936282D01*
X2165332D01*
X2163300Y1932218D01*
X2637300Y1797518D02*
X2635268Y1801582D01*
X2639332D01*
X2637300Y1797518D01*
X2671300D02*
X2669268Y1801582D01*
X2673332D01*
X2671300Y1797518D01*
X2637300Y1932218D02*
X2635268Y1936282D01*
X2639332D01*
X2637300Y1932218D01*
X2671300D02*
X2669268Y1936282D01*
X2673332D01*
X2671300Y1932218D01*
X2383300Y1797518D02*
X2381268Y1801582D01*
X2385332D01*
X2383300Y1797518D01*
X2417300D02*
X2415268Y1801582D01*
X2419332D01*
X2417300Y1797518D01*
X2383300Y1932218D02*
X2381268Y1936282D01*
X2385332D01*
X2383300Y1932218D01*
X2417300D02*
X2415268Y1936282D01*
X2419332D01*
X2417300Y1932218D01*
X1748300Y1797518D02*
X1746268Y1801582D01*
X1750332D01*
X1748300Y1797518D01*
X1782300D02*
X1780268Y1801582D01*
X1784332D01*
X1782300Y1797518D01*
X1748300Y1932218D02*
X1746268Y1936282D01*
X1750332D01*
X1748300Y1932218D01*
X1782300D02*
X1780268Y1936282D01*
X1784332D01*
X1782300Y1932218D01*
X2002300Y1797518D02*
X2000268Y1801582D01*
X2004332D01*
X2002300Y1797518D01*
X2036300D02*
X2034268Y1801582D01*
X2038332D01*
X2036300Y1797518D01*
X2002300Y1932218D02*
X2000268Y1936282D01*
X2004332D01*
X2002300Y1932218D01*
X2036300D02*
X2034268Y1936282D01*
X2038332D01*
X2036300Y1932218D01*
X1522984Y1599184D02*
Y1598168D01*
X1525016D01*
Y1599184D01*
X1526032D01*
Y1601216D01*
X1525016D01*
Y1602232D01*
X1522984D01*
Y1601216D01*
X1521968D01*
Y1599184D01*
X1522984D01*
Y1954784D02*
Y1953768D01*
X1525016D01*
Y1954784D01*
X1526032D01*
Y1956816D01*
X1525016D01*
Y1957832D01*
X1522984D01*
Y1956816D01*
X1521968D01*
Y1954784D01*
X1522984D01*
X2767584D02*
Y1953768D01*
X2769616D01*
Y1954784D01*
X2770632D01*
Y1956816D01*
X2769616D01*
Y1957832D01*
X2767584D01*
Y1956816D01*
X2766568D01*
Y1954784D01*
X2767584D01*
Y1599184D02*
Y1598168D01*
X2769616D01*
Y1599184D01*
X2770632D01*
Y1601216D01*
X2769616D01*
Y1602232D01*
X2767584D01*
Y1601216D01*
X2766568D01*
Y1599184D01*
X2767584D01*
X2728468Y1981708D02*
X2729484D01*
X2730500Y1982724D01*
X2731516Y1981708D01*
X2732532D01*
Y1982724D01*
X2731516Y1983740D01*
X2732532Y1984756D01*
Y1985772D01*
X2731516D01*
X2730500Y1984756D01*
X2729484Y1985772D01*
X2728468D01*
Y1984756D01*
X2729484Y1983740D01*
X2728468Y1982724D01*
Y1981708D01*
X2601468D02*
X2602484D01*
X2603500Y1982724D01*
X2604516Y1981708D01*
X2605532D01*
Y1982724D01*
X2604516Y1983740D01*
X2605532Y1984756D01*
Y1985772D01*
X2604516D01*
X2603500Y1984756D01*
X2602484Y1985772D01*
X2601468D01*
Y1984756D01*
X2602484Y1983740D01*
X2601468Y1982724D01*
Y1981708D01*
X2474468D02*
X2475484D01*
X2476500Y1982724D01*
X2477516Y1981708D01*
X2478532D01*
Y1982724D01*
X2477516Y1983740D01*
X2478532Y1984756D01*
Y1985772D01*
X2477516D01*
X2476500Y1984756D01*
X2475484Y1985772D01*
X2474468D01*
Y1984756D01*
X2475484Y1983740D01*
X2474468Y1982724D01*
Y1981708D01*
X2347468D02*
X2348484D01*
X2349500Y1982724D01*
X2350516Y1981708D01*
X2351532D01*
Y1982724D01*
X2350516Y1983740D01*
X2351532Y1984756D01*
Y1985772D01*
X2350516D01*
X2349500Y1984756D01*
X2348484Y1985772D01*
X2347468D01*
Y1984756D01*
X2348484Y1983740D01*
X2347468Y1982724D01*
Y1981708D01*
X2220468D02*
X2221484D01*
X2222500Y1982724D01*
X2223516Y1981708D01*
X2224532D01*
Y1982724D01*
X2223516Y1983740D01*
X2224532Y1984756D01*
Y1985772D01*
X2223516D01*
X2222500Y1984756D01*
X2221484Y1985772D01*
X2220468D01*
Y1984756D01*
X2221484Y1983740D01*
X2220468Y1982724D01*
Y1981708D01*
X2093468D02*
X2094484D01*
X2095500Y1982724D01*
X2096516Y1981708D01*
X2097532D01*
Y1982724D01*
X2096516Y1983740D01*
X2097532Y1984756D01*
Y1985772D01*
X2096516D01*
X2095500Y1984756D01*
X2094484Y1985772D01*
X2093468D01*
Y1984756D01*
X2094484Y1983740D01*
X2093468Y1982724D01*
Y1981708D01*
X1966468D02*
X1967484D01*
X1968500Y1982724D01*
X1969516Y1981708D01*
X1970532D01*
Y1982724D01*
X1969516Y1983740D01*
X1970532Y1984756D01*
Y1985772D01*
X1969516D01*
X1968500Y1984756D01*
X1967484Y1985772D01*
X1966468D01*
Y1984756D01*
X1967484Y1983740D01*
X1966468Y1982724D01*
Y1981708D01*
X1839468D02*
X1840484D01*
X1841500Y1982724D01*
X1842516Y1981708D01*
X1843532D01*
Y1982724D01*
X1842516Y1983740D01*
X1843532Y1984756D01*
Y1985772D01*
X1842516D01*
X1841500Y1984756D01*
X1840484Y1985772D01*
X1839468D01*
Y1984756D01*
X1840484Y1983740D01*
X1839468Y1982724D01*
Y1981708D01*
X1712468D02*
X1713484D01*
X1714500Y1982724D01*
X1715516Y1981708D01*
X1716532D01*
Y1982724D01*
X1715516Y1983740D01*
X1716532Y1984756D01*
Y1985772D01*
X1715516D01*
X1714500Y1984756D01*
X1713484Y1985772D01*
X1712468D01*
Y1984756D01*
X1713484Y1983740D01*
X1712468Y1982724D01*
Y1981708D01*
X1567688Y1961388D02*
X1568704D01*
X1569720Y1962404D01*
X1570736Y1961388D01*
X1571752D01*
Y1962404D01*
X1570736Y1963420D01*
X1571752Y1964436D01*
Y1965452D01*
X1570736D01*
X1569720Y1964436D01*
X1568704Y1965452D01*
X1567688D01*
Y1964436D01*
X1568704Y1963420D01*
X1567688Y1962404D01*
Y1961388D01*
D41*
X2884932Y2070100D02*
G03*
X2884932Y2070100I-2032J0D01*
G01*
Y38100D02*
G03*
X2884932Y38100I-2032J0D01*
G01*
X40132D02*
G03*
X40132Y38100I-2032J0D01*
G01*
Y2070100D02*
G03*
X40132Y2070100I-2032J0D01*
G01*
M02*
