G04*
G04 #@! TF.GenerationSoftware,Altium Limited,Altium Designer,21.8.1 (53)*
G04*
G04 Layer_Color=2752767*
%FSLAX44Y44*%
%MOMM*%
G71*
G04*
G04 #@! TF.SameCoordinates,EA1F17BB-6109-422B-8DE2-DB4FFD1B2ED1*
G04*
G04*
G04 #@! TF.FilePolarity,Positive*
G04*
G01*
G75*
%ADD48C,0.0508*%
%ADD49C,0.0677*%
D48*
X2480818Y97028D02*
Y101092D01*
X2484882D01*
Y97028D01*
X2480818D01*
X2473198D02*
Y101092D01*
X2477262D01*
Y97028D01*
X2473198D01*
X2465578D02*
Y101092D01*
X2469642D01*
Y97028D01*
X2465578D01*
X2457958D02*
Y101092D01*
X2462022D01*
Y97028D01*
X2457958D01*
X2450338D02*
Y101092D01*
X2454402D01*
Y97028D01*
X2450338D01*
X2410968Y57658D02*
Y61722D01*
X2415032D01*
Y57658D01*
X2410968D01*
Y50038D02*
Y54102D01*
X2415032D01*
Y50038D01*
X2410968D01*
Y42418D02*
Y46482D01*
X2415032D01*
Y42418D01*
X2410968D01*
Y34798D02*
Y38862D01*
X2415032D01*
Y34798D01*
X2410968D01*
Y27178D02*
Y31242D01*
X2415032D01*
Y27178D01*
X2410968D01*
Y19558D02*
Y23622D01*
X2415032D01*
Y19558D01*
X2410968D01*
Y11938D02*
Y16002D01*
X2415032D01*
Y11938D01*
X2410968D01*
X2202688Y1448308D02*
Y1452372D01*
X2206752D01*
Y1448308D01*
X2202688D01*
X2195068D02*
Y1452372D01*
X2199132D01*
Y1448308D01*
X2195068D01*
X2187448D02*
Y1452372D01*
X2191512D01*
Y1448308D01*
X2187448D01*
X2179828D02*
Y1452372D01*
X2183892D01*
Y1448308D01*
X2179828D01*
X2172208D02*
Y1452372D01*
X2176272D01*
Y1448308D01*
X2172208D01*
X2164588D02*
Y1452372D01*
X2168652D01*
Y1448308D01*
X2164588D01*
X2156968D02*
Y1452372D01*
X2161032D01*
Y1448308D01*
X2156968D01*
X1722628D02*
Y1452372D01*
X1726692D01*
Y1448308D01*
X1722628D01*
X1715008D02*
Y1452372D01*
X1719072D01*
Y1448308D01*
X1715008D01*
X1707388D02*
Y1452372D01*
X1711452D01*
Y1448308D01*
X1707388D01*
X1699768D02*
Y1452372D01*
X1703832D01*
Y1448308D01*
X1699768D01*
X1692148D02*
Y1452372D01*
X1696212D01*
Y1448308D01*
X1692148D01*
X1684528D02*
Y1452372D01*
X1688592D01*
Y1448308D01*
X1684528D01*
X1676908D02*
Y1452372D01*
X1680972D01*
Y1448308D01*
X1676908D01*
X2410968Y1270508D02*
Y1274572D01*
X2415032D01*
Y1270508D01*
X2410968D01*
Y1278128D02*
Y1282192D01*
X2415032D01*
Y1278128D01*
X2410968D01*
Y1285748D02*
Y1289812D01*
X2415032D01*
Y1285748D01*
X2410968D01*
Y1293368D02*
Y1297432D01*
X2415032D01*
Y1293368D01*
X2410968D01*
Y1300988D02*
Y1305052D01*
X2415032D01*
Y1300988D01*
X2410968D01*
Y1308608D02*
Y1312672D01*
X2415032D01*
Y1308608D01*
X2410968D01*
Y1316228D02*
Y1320292D01*
X2415032D01*
Y1316228D01*
X2410968D01*
Y787908D02*
Y791972D01*
X2415032D01*
Y787908D01*
X2410968D01*
Y795528D02*
Y799592D01*
X2415032D01*
Y795528D01*
X2410968D01*
Y803148D02*
Y807212D01*
X2415032D01*
Y803148D01*
X2410968D01*
Y810768D02*
Y814832D01*
X2415032D01*
Y810768D01*
X2410968D01*
Y818388D02*
Y822452D01*
X2415032D01*
Y818388D01*
X2410968D01*
Y826008D02*
Y830072D01*
X2415032D01*
Y826008D01*
X2410968D01*
Y833628D02*
Y837692D01*
X2415032D01*
Y833628D01*
X2410968D01*
Y305308D02*
Y309372D01*
X2415032D01*
Y305308D01*
X2410968D01*
Y312928D02*
Y316992D01*
X2415032D01*
Y312928D01*
X2410968D01*
Y320548D02*
Y324612D01*
X2415032D01*
Y320548D01*
X2410968D01*
Y328168D02*
Y332232D01*
X2415032D01*
Y328168D01*
X2410968D01*
Y335788D02*
Y339852D01*
X2415032D01*
Y335788D01*
X2410968D01*
Y343408D02*
Y347472D01*
X2415032D01*
Y343408D01*
X2410968D01*
Y351028D02*
Y355092D01*
X2415032D01*
Y351028D01*
X2410968D01*
X1948688Y1270508D02*
Y1274572D01*
X1952752D01*
Y1270508D01*
X1948688D01*
Y1278128D02*
Y1282192D01*
X1952752D01*
Y1278128D01*
X1948688D01*
Y1285748D02*
Y1289812D01*
X1952752D01*
Y1285748D01*
X1948688D01*
Y1293368D02*
Y1297432D01*
X1952752D01*
Y1293368D01*
X1948688D01*
Y1300988D02*
Y1305052D01*
X1952752D01*
Y1300988D01*
X1948688D01*
Y1308608D02*
Y1312672D01*
X1952752D01*
Y1308608D01*
X1948688D01*
Y1316228D02*
Y1320292D01*
X1952752D01*
Y1316228D01*
X1948688D01*
X1930908Y1270508D02*
Y1274572D01*
X1934972D01*
Y1270508D01*
X1930908D01*
Y1278128D02*
Y1282192D01*
X1934972D01*
Y1278128D01*
X1930908D01*
Y1285748D02*
Y1289812D01*
X1934972D01*
Y1285748D01*
X1930908D01*
Y1293368D02*
Y1297432D01*
X1934972D01*
Y1293368D01*
X1930908D01*
Y1300988D02*
Y1305052D01*
X1934972D01*
Y1300988D01*
X1930908D01*
Y1308608D02*
Y1312672D01*
X1934972D01*
Y1308608D01*
X1930908D01*
Y1316228D02*
Y1320292D01*
X1934972D01*
Y1316228D01*
X1930908D01*
X1948688Y787908D02*
Y791972D01*
X1952752D01*
Y787908D01*
X1948688D01*
Y795528D02*
Y799592D01*
X1952752D01*
Y795528D01*
X1948688D01*
Y803148D02*
Y807212D01*
X1952752D01*
Y803148D01*
X1948688D01*
Y810768D02*
Y814832D01*
X1952752D01*
Y810768D01*
X1948688D01*
Y818388D02*
Y822452D01*
X1952752D01*
Y818388D01*
X1948688D01*
Y826008D02*
Y830072D01*
X1952752D01*
Y826008D01*
X1948688D01*
Y833628D02*
Y837692D01*
X1952752D01*
Y833628D01*
X1948688D01*
X1930908Y787908D02*
Y791972D01*
X1934972D01*
Y787908D01*
X1930908D01*
Y795528D02*
Y799592D01*
X1934972D01*
Y795528D01*
X1930908D01*
Y803148D02*
Y807212D01*
X1934972D01*
Y803148D01*
X1930908D01*
Y810768D02*
Y814832D01*
X1934972D01*
Y810768D01*
X1930908D01*
Y818388D02*
Y822452D01*
X1934972D01*
Y818388D01*
X1930908D01*
Y826008D02*
Y830072D01*
X1934972D01*
Y826008D01*
X1930908D01*
Y833628D02*
Y837692D01*
X1934972D01*
Y833628D01*
X1930908D01*
X1948688Y305308D02*
Y309372D01*
X1952752D01*
Y305308D01*
X1948688D01*
Y312928D02*
Y316992D01*
X1952752D01*
Y312928D01*
X1948688D01*
Y320548D02*
Y324612D01*
X1952752D01*
Y320548D01*
X1948688D01*
Y328168D02*
Y332232D01*
X1952752D01*
Y328168D01*
X1948688D01*
Y335788D02*
Y339852D01*
X1952752D01*
Y335788D01*
X1948688D01*
Y343408D02*
Y347472D01*
X1952752D01*
Y343408D01*
X1948688D01*
Y351028D02*
Y355092D01*
X1952752D01*
Y351028D01*
X1948688D01*
X1930908Y305308D02*
Y309372D01*
X1934972D01*
Y305308D01*
X1930908D01*
Y312928D02*
Y316992D01*
X1934972D01*
Y312928D01*
X1930908D01*
Y320548D02*
Y324612D01*
X1934972D01*
Y320548D01*
X1930908D01*
Y328168D02*
Y332232D01*
X1934972D01*
Y328168D01*
X1930908D01*
Y335788D02*
Y339852D01*
X1934972D01*
Y335788D01*
X1930908D01*
Y343408D02*
Y347472D01*
X1934972D01*
Y343408D01*
X1930908D01*
Y351028D02*
Y355092D01*
X1934972D01*
Y351028D01*
X1930908D01*
X2159508Y97028D02*
Y101092D01*
X2163572D01*
Y97028D01*
X2159508D01*
X2167128D02*
Y101092D01*
X2171192D01*
Y97028D01*
X2167128D01*
X2174748D02*
Y101092D01*
X2178812D01*
Y97028D01*
X2174748D01*
X2182368D02*
Y101092D01*
X2186432D01*
Y97028D01*
X2182368D01*
X2189988D02*
Y101092D01*
X2194052D01*
Y97028D01*
X2189988D01*
X2197608D02*
Y101092D01*
X2201672D01*
Y97028D01*
X2197608D01*
X2205228D02*
Y101092D01*
X2209292D01*
Y97028D01*
X2205228D01*
X1676908D02*
Y101092D01*
X1680972D01*
Y97028D01*
X1676908D01*
X1684528D02*
Y101092D01*
X1688592D01*
Y97028D01*
X1684528D01*
X1692148D02*
Y101092D01*
X1696212D01*
Y97028D01*
X1692148D01*
X1699768D02*
Y101092D01*
X1703832D01*
Y97028D01*
X1699768D01*
X1707388D02*
Y101092D01*
X1711452D01*
Y97028D01*
X1707388D01*
X1715008D02*
Y101092D01*
X1719072D01*
Y97028D01*
X1715008D01*
X1722628D02*
Y101092D01*
X1726692D01*
Y97028D01*
X1722628D01*
X1448308Y351028D02*
Y355092D01*
X1452372D01*
Y351028D01*
X1448308D01*
Y343408D02*
Y347472D01*
X1452372D01*
Y343408D01*
X1448308D01*
Y335788D02*
Y339852D01*
X1452372D01*
Y335788D01*
X1448308D01*
Y328168D02*
Y332232D01*
X1452372D01*
Y328168D01*
X1448308D01*
Y320548D02*
Y324612D01*
X1452372D01*
Y320548D01*
X1448308D01*
Y312928D02*
Y316992D01*
X1452372D01*
Y312928D01*
X1448308D01*
Y305308D02*
Y309372D01*
X1452372D01*
Y305308D01*
X1448308D01*
X1468628Y351028D02*
Y355092D01*
X1472692D01*
Y351028D01*
X1468628D01*
Y343408D02*
Y347472D01*
X1472692D01*
Y343408D01*
X1468628D01*
Y335788D02*
Y339852D01*
X1472692D01*
Y335788D01*
X1468628D01*
Y328168D02*
Y332232D01*
X1472692D01*
Y328168D01*
X1468628D01*
Y320548D02*
Y324612D01*
X1472692D01*
Y320548D01*
X1468628D01*
Y312928D02*
Y316992D01*
X1472692D01*
Y312928D01*
X1468628D01*
Y305308D02*
Y309372D01*
X1472692D01*
Y305308D01*
X1468628D01*
X1448308Y833628D02*
Y837692D01*
X1452372D01*
Y833628D01*
X1448308D01*
Y826008D02*
Y830072D01*
X1452372D01*
Y826008D01*
X1448308D01*
Y818388D02*
Y822452D01*
X1452372D01*
Y818388D01*
X1448308D01*
Y810768D02*
Y814832D01*
X1452372D01*
Y810768D01*
X1448308D01*
Y803148D02*
Y807212D01*
X1452372D01*
Y803148D01*
X1448308D01*
Y795528D02*
Y799592D01*
X1452372D01*
Y795528D01*
X1448308D01*
Y787908D02*
Y791972D01*
X1452372D01*
Y787908D01*
X1448308D01*
X1468628Y833628D02*
Y837692D01*
X1472692D01*
Y833628D01*
X1468628D01*
Y826008D02*
Y830072D01*
X1472692D01*
Y826008D01*
X1468628D01*
Y818388D02*
Y822452D01*
X1472692D01*
Y818388D01*
X1468628D01*
Y810768D02*
Y814832D01*
X1472692D01*
Y810768D01*
X1468628D01*
Y803148D02*
Y807212D01*
X1472692D01*
Y803148D01*
X1468628D01*
Y795528D02*
Y799592D01*
X1472692D01*
Y795528D01*
X1468628D01*
Y787908D02*
Y791972D01*
X1472692D01*
Y787908D01*
X1468628D01*
X1448308Y1318768D02*
Y1322832D01*
X1452372D01*
Y1318768D01*
X1448308D01*
Y1311148D02*
Y1315212D01*
X1452372D01*
Y1311148D01*
X1448308D01*
Y1303528D02*
Y1307592D01*
X1452372D01*
Y1303528D01*
X1448308D01*
Y1295908D02*
Y1299972D01*
X1452372D01*
Y1295908D01*
X1448308D01*
Y1288288D02*
Y1292352D01*
X1452372D01*
Y1288288D01*
X1448308D01*
Y1280668D02*
Y1284732D01*
X1452372D01*
Y1280668D01*
X1448308D01*
Y1273048D02*
Y1277112D01*
X1452372D01*
Y1273048D01*
X1448308D01*
X1468628Y1318768D02*
Y1322832D01*
X1472692D01*
Y1318768D01*
X1468628D01*
Y1311148D02*
Y1315212D01*
X1472692D01*
Y1311148D01*
X1468628D01*
Y1303528D02*
Y1307592D01*
X1472692D01*
Y1303528D01*
X1468628D01*
Y1295908D02*
Y1299972D01*
X1472692D01*
Y1295908D01*
X1468628D01*
Y1288288D02*
Y1292352D01*
X1472692D01*
Y1288288D01*
X1468628D01*
Y1280668D02*
Y1284732D01*
X1472692D01*
Y1280668D01*
X1468628D01*
Y1273048D02*
Y1277112D01*
X1472692D01*
Y1273048D01*
X1468628D01*
X1448308Y1798828D02*
Y1802892D01*
X1452372D01*
Y1798828D01*
X1448308D01*
Y1791208D02*
Y1795272D01*
X1452372D01*
Y1791208D01*
X1448308D01*
Y1783588D02*
Y1787652D01*
X1452372D01*
Y1783588D01*
X1448308D01*
Y1775968D02*
Y1780032D01*
X1452372D01*
Y1775968D01*
X1448308D01*
Y1768348D02*
Y1772412D01*
X1452372D01*
Y1768348D01*
X1448308D01*
Y1760728D02*
Y1764792D01*
X1452372D01*
Y1760728D01*
X1448308D01*
Y1753108D02*
Y1757172D01*
X1452372D01*
Y1753108D01*
X1448308D01*
Y2090928D02*
Y2094992D01*
X1452372D01*
Y2090928D01*
X1448308D01*
Y2083308D02*
Y2087372D01*
X1452372D01*
Y2083308D01*
X1448308D01*
Y2075688D02*
Y2079752D01*
X1452372D01*
Y2075688D01*
X1448308D01*
Y2068068D02*
Y2072132D01*
X1452372D01*
Y2068068D01*
X1448308D01*
Y2060448D02*
Y2064512D01*
X1452372D01*
Y2060448D01*
X1448308D01*
Y2052828D02*
Y2056892D01*
X1452372D01*
Y2052828D01*
X1448308D01*
Y2045208D02*
Y2049272D01*
X1452372D01*
Y2045208D01*
X1448308D01*
X2480818Y1448308D02*
Y1452372D01*
X2484882D01*
Y1448308D01*
X2480818D01*
X2473198D02*
Y1452372D01*
X2477262D01*
Y1448308D01*
X2473198D01*
X2465578D02*
Y1452372D01*
X2469642D01*
Y1448308D01*
X2465578D01*
X2457958D02*
Y1452372D01*
X2462022D01*
Y1448308D01*
X2457958D01*
X2450338D02*
Y1452372D01*
X2454402D01*
Y1448308D01*
X2450338D01*
X1448308Y13208D02*
Y17272D01*
X1452372D01*
Y13208D01*
X1448308D01*
Y20828D02*
Y24892D01*
X1452372D01*
Y20828D01*
X1448308D01*
Y28448D02*
Y32512D01*
X1452372D01*
Y28448D01*
X1448308D01*
Y36068D02*
Y40132D01*
X1452372D01*
Y36068D01*
X1448308D01*
Y43688D02*
Y47752D01*
X1452372D01*
Y43688D01*
X1448308D01*
Y51308D02*
Y55372D01*
X1452372D01*
Y51308D01*
X1448308D01*
Y58928D02*
Y62992D01*
X1452372D01*
Y58928D01*
X1448308D01*
X97028Y13208D02*
Y17272D01*
X101092D01*
Y13208D01*
X97028D01*
Y20828D02*
Y24892D01*
X101092D01*
Y20828D01*
X97028D01*
Y28448D02*
Y32512D01*
X101092D01*
Y28448D01*
X97028D01*
Y36068D02*
Y40132D01*
X101092D01*
Y36068D01*
X97028D01*
Y43688D02*
Y47752D01*
X101092D01*
Y43688D01*
X97028D01*
Y51308D02*
Y55372D01*
X101092D01*
Y51308D01*
X97028D01*
Y58928D02*
Y62992D01*
X101092D01*
Y58928D01*
X97028D01*
X13208Y97028D02*
Y101092D01*
X17272D01*
Y97028D01*
X13208D01*
X20828D02*
Y101092D01*
X24892D01*
Y97028D01*
X20828D01*
X28448D02*
Y101092D01*
X32512D01*
Y97028D01*
X28448D01*
X36068D02*
Y101092D01*
X40132D01*
Y97028D01*
X36068D01*
X43688D02*
Y101092D01*
X47752D01*
Y97028D01*
X43688D01*
X51308D02*
Y101092D01*
X55372D01*
Y97028D01*
X51308D01*
X58928D02*
Y101092D01*
X62992D01*
Y97028D01*
X58928D01*
X13208Y2007108D02*
Y2011172D01*
X17272D01*
Y2007108D01*
X13208D01*
X20828D02*
Y2011172D01*
X24892D01*
Y2007108D01*
X20828D01*
X28448D02*
Y2011172D01*
X32512D01*
Y2007108D01*
X28448D01*
X36068D02*
Y2011172D01*
X40132D01*
Y2007108D01*
X36068D01*
X43688D02*
Y2011172D01*
X47752D01*
Y2007108D01*
X43688D01*
X51308D02*
Y2011172D01*
X55372D01*
Y2007108D01*
X51308D01*
X58928D02*
Y2011172D01*
X62992D01*
Y2007108D01*
X58928D01*
X97028Y2090928D02*
Y2094992D01*
X101092D01*
Y2090928D01*
X97028D01*
Y2083308D02*
Y2087372D01*
X101092D01*
Y2083308D01*
X97028D01*
Y2075688D02*
Y2079752D01*
X101092D01*
Y2075688D01*
X97028D01*
Y2068068D02*
Y2072132D01*
X101092D01*
Y2068068D01*
X97028D01*
Y2060448D02*
Y2064512D01*
X101092D01*
Y2060448D01*
X97028D01*
Y2052828D02*
Y2056892D01*
X101092D01*
Y2052828D01*
X97028D01*
Y2045208D02*
Y2049272D01*
X101092D01*
Y2045208D01*
X97028D01*
X1024128Y579628D02*
Y583692D01*
X1028192D01*
Y579628D01*
X1024128D01*
X1016508D02*
Y583692D01*
X1020572D01*
Y579628D01*
X1016508D01*
X1008888D02*
Y583692D01*
X1012952D01*
Y579628D01*
X1008888D01*
X1001268D02*
Y583692D01*
X1005332D01*
Y579628D01*
X1001268D01*
X993648D02*
Y583692D01*
X997712D01*
Y579628D01*
X993648D01*
X986028D02*
Y583692D01*
X990092D01*
Y579628D01*
X986028D01*
X978408D02*
Y583692D01*
X982472D01*
Y579628D01*
X978408D01*
X1024128Y559308D02*
Y563372D01*
X1028192D01*
Y559308D01*
X1024128D01*
X1016508D02*
Y563372D01*
X1020572D01*
Y559308D01*
X1016508D01*
X1008888D02*
Y563372D01*
X1012952D01*
Y559308D01*
X1008888D01*
X1001268D02*
Y563372D01*
X1005332D01*
Y559308D01*
X1001268D01*
X993648D02*
Y563372D01*
X997712D01*
Y559308D01*
X993648D01*
X986028D02*
Y563372D01*
X990092D01*
Y559308D01*
X986028D01*
X978408D02*
Y563372D01*
X982472D01*
Y559308D01*
X978408D01*
X1024128Y1062228D02*
Y1066292D01*
X1028192D01*
Y1062228D01*
X1024128D01*
X1016508D02*
Y1066292D01*
X1020572D01*
Y1062228D01*
X1016508D01*
X1008888D02*
Y1066292D01*
X1012952D01*
Y1062228D01*
X1008888D01*
X1001268D02*
Y1066292D01*
X1005332D01*
Y1062228D01*
X1001268D01*
X993648D02*
Y1066292D01*
X997712D01*
Y1062228D01*
X993648D01*
X986028D02*
Y1066292D01*
X990092D01*
Y1062228D01*
X986028D01*
X978408D02*
Y1066292D01*
X982472D01*
Y1062228D01*
X978408D01*
X1024128Y1041908D02*
Y1045972D01*
X1028192D01*
Y1041908D01*
X1024128D01*
X1016508D02*
Y1045972D01*
X1020572D01*
Y1041908D01*
X1016508D01*
X1008888D02*
Y1045972D01*
X1012952D01*
Y1041908D01*
X1008888D01*
X1001268D02*
Y1045972D01*
X1005332D01*
Y1041908D01*
X1001268D01*
X993648D02*
Y1045972D01*
X997712D01*
Y1041908D01*
X993648D01*
X986028D02*
Y1045972D01*
X990092D01*
Y1041908D01*
X986028D01*
X978408D02*
Y1045972D01*
X982472D01*
Y1041908D01*
X978408D01*
X508508Y559308D02*
Y563372D01*
X512572D01*
Y559308D01*
X508508D01*
X516128D02*
Y563372D01*
X520192D01*
Y559308D01*
X516128D01*
X523748D02*
Y563372D01*
X527812D01*
Y559308D01*
X523748D01*
X531368D02*
Y563372D01*
X535432D01*
Y559308D01*
X531368D01*
X538988D02*
Y563372D01*
X543052D01*
Y559308D01*
X538988D01*
X546608D02*
Y563372D01*
X550672D01*
Y559308D01*
X546608D01*
X554228D02*
Y563372D01*
X558292D01*
Y559308D01*
X554228D01*
X508508Y579628D02*
Y583692D01*
X512572D01*
Y579628D01*
X508508D01*
X516128D02*
Y583692D01*
X520192D01*
Y579628D01*
X516128D01*
X523748D02*
Y583692D01*
X527812D01*
Y579628D01*
X523748D01*
X531368D02*
Y583692D01*
X535432D01*
Y579628D01*
X531368D01*
X538988D02*
Y583692D01*
X543052D01*
Y579628D01*
X538988D01*
X546608D02*
Y583692D01*
X550672D01*
Y579628D01*
X546608D01*
X554228D02*
Y583692D01*
X558292D01*
Y579628D01*
X554228D01*
X508508Y1041908D02*
Y1045972D01*
X512572D01*
Y1041908D01*
X508508D01*
X516128D02*
Y1045972D01*
X520192D01*
Y1041908D01*
X516128D01*
X523748D02*
Y1045972D01*
X527812D01*
Y1041908D01*
X523748D01*
X531368D02*
Y1045972D01*
X535432D01*
Y1041908D01*
X531368D01*
X538988D02*
Y1045972D01*
X543052D01*
Y1041908D01*
X538988D01*
X546608D02*
Y1045972D01*
X550672D01*
Y1041908D01*
X546608D01*
X554228D02*
Y1045972D01*
X558292D01*
Y1041908D01*
X554228D01*
X508508Y1062228D02*
Y1066292D01*
X512572D01*
Y1062228D01*
X508508D01*
X516128D02*
Y1066292D01*
X520192D01*
Y1062228D01*
X516128D01*
X523748D02*
Y1066292D01*
X527812D01*
Y1062228D01*
X523748D01*
X531368D02*
Y1066292D01*
X535432D01*
Y1062228D01*
X531368D01*
X538988D02*
Y1066292D01*
X543052D01*
Y1062228D01*
X538988D01*
X546608D02*
Y1066292D01*
X550672D01*
Y1062228D01*
X546608D01*
X554228D02*
Y1066292D01*
X558292D01*
Y1062228D01*
X554228D01*
X978408Y1524508D02*
Y1528572D01*
X982472D01*
Y1524508D01*
X978408D01*
X986028D02*
Y1528572D01*
X990092D01*
Y1524508D01*
X986028D01*
X993648D02*
Y1528572D01*
X997712D01*
Y1524508D01*
X993648D01*
X1001268D02*
Y1528572D01*
X1005332D01*
Y1524508D01*
X1001268D01*
X1008888D02*
Y1528572D01*
X1012952D01*
Y1524508D01*
X1008888D01*
X1016508D02*
Y1528572D01*
X1020572D01*
Y1524508D01*
X1016508D01*
X1024128D02*
Y1528572D01*
X1028192D01*
Y1524508D01*
X1024128D01*
X978408Y1544828D02*
Y1548892D01*
X982472D01*
Y1544828D01*
X978408D01*
X986028D02*
Y1548892D01*
X990092D01*
Y1544828D01*
X986028D01*
X993648D02*
Y1548892D01*
X997712D01*
Y1544828D01*
X993648D01*
X1001268D02*
Y1548892D01*
X1005332D01*
Y1544828D01*
X1001268D01*
X1008888D02*
Y1548892D01*
X1012952D01*
Y1544828D01*
X1008888D01*
X1016508D02*
Y1548892D01*
X1020572D01*
Y1544828D01*
X1016508D01*
X1024128D02*
Y1548892D01*
X1028192D01*
Y1544828D01*
X1024128D01*
X508508Y1524508D02*
Y1528572D01*
X512572D01*
Y1524508D01*
X508508D01*
X516128D02*
Y1528572D01*
X520192D01*
Y1524508D01*
X516128D01*
X523748D02*
Y1528572D01*
X527812D01*
Y1524508D01*
X523748D01*
X531368D02*
Y1528572D01*
X535432D01*
Y1524508D01*
X531368D01*
X538988D02*
Y1528572D01*
X543052D01*
Y1524508D01*
X538988D01*
X546608D02*
Y1528572D01*
X550672D01*
Y1524508D01*
X546608D01*
X554228D02*
Y1528572D01*
X558292D01*
Y1524508D01*
X554228D01*
X508508Y1544828D02*
Y1548892D01*
X512572D01*
Y1544828D01*
X508508D01*
X516128D02*
Y1548892D01*
X520192D01*
Y1544828D01*
X516128D01*
X523748D02*
Y1548892D01*
X527812D01*
Y1544828D01*
X523748D01*
X531368D02*
Y1548892D01*
X535432D01*
Y1544828D01*
X531368D01*
X538988D02*
Y1548892D01*
X543052D01*
Y1544828D01*
X538988D01*
X546608D02*
Y1548892D01*
X550672D01*
Y1544828D01*
X546608D01*
X554228D02*
Y1548892D01*
X558292D01*
Y1544828D01*
X554228D01*
X1024128Y97028D02*
Y101092D01*
X1028192D01*
Y97028D01*
X1024128D01*
X1016508D02*
Y101092D01*
X1020572D01*
Y97028D01*
X1016508D01*
X1008888D02*
Y101092D01*
X1012952D01*
Y97028D01*
X1008888D01*
X1001268D02*
Y101092D01*
X1005332D01*
Y97028D01*
X1001268D01*
X993648D02*
Y101092D01*
X997712D01*
Y97028D01*
X993648D01*
X986028D02*
Y101092D01*
X990092D01*
Y97028D01*
X986028D01*
X978408D02*
Y101092D01*
X982472D01*
Y97028D01*
X978408D01*
X554228D02*
Y101092D01*
X558292D01*
Y97028D01*
X554228D01*
X546608D02*
Y101092D01*
X550672D01*
Y97028D01*
X546608D01*
X538988D02*
Y101092D01*
X543052D01*
Y97028D01*
X538988D01*
X531368D02*
Y101092D01*
X535432D01*
Y97028D01*
X531368D01*
X523748D02*
Y101092D01*
X527812D01*
Y97028D01*
X523748D01*
X516128D02*
Y101092D01*
X520192D01*
Y97028D01*
X516128D01*
X508508D02*
Y101092D01*
X512572D01*
Y97028D01*
X508508D01*
X97028Y305308D02*
Y309372D01*
X101092D01*
Y305308D01*
X97028D01*
Y312928D02*
Y316992D01*
X101092D01*
Y312928D01*
X97028D01*
Y320548D02*
Y324612D01*
X101092D01*
Y320548D01*
X97028D01*
Y328168D02*
Y332232D01*
X101092D01*
Y328168D01*
X97028D01*
Y335788D02*
Y339852D01*
X101092D01*
Y335788D01*
X97028D01*
Y343408D02*
Y347472D01*
X101092D01*
Y343408D01*
X97028D01*
Y351028D02*
Y355092D01*
X101092D01*
Y351028D01*
X97028D01*
Y787908D02*
Y791972D01*
X101092D01*
Y787908D01*
X97028D01*
Y795528D02*
Y799592D01*
X101092D01*
Y795528D01*
X97028D01*
Y803148D02*
Y807212D01*
X101092D01*
Y803148D01*
X97028D01*
Y810768D02*
Y814832D01*
X101092D01*
Y810768D01*
X97028D01*
Y818388D02*
Y822452D01*
X101092D01*
Y818388D01*
X97028D01*
Y826008D02*
Y830072D01*
X101092D01*
Y826008D01*
X97028D01*
Y833628D02*
Y837692D01*
X101092D01*
Y833628D01*
X97028D01*
Y1270508D02*
Y1274572D01*
X101092D01*
Y1270508D01*
X97028D01*
Y1278128D02*
Y1282192D01*
X101092D01*
Y1278128D01*
X97028D01*
Y1285748D02*
Y1289812D01*
X101092D01*
Y1285748D01*
X97028D01*
Y1293368D02*
Y1297432D01*
X101092D01*
Y1293368D01*
X97028D01*
Y1300988D02*
Y1305052D01*
X101092D01*
Y1300988D01*
X97028D01*
Y1308608D02*
Y1312672D01*
X101092D01*
Y1308608D01*
X97028D01*
Y1316228D02*
Y1320292D01*
X101092D01*
Y1316228D01*
X97028D01*
Y1753108D02*
Y1757172D01*
X101092D01*
Y1753108D01*
X97028D01*
Y1760728D02*
Y1764792D01*
X101092D01*
Y1760728D01*
X97028D01*
Y1768348D02*
Y1772412D01*
X101092D01*
Y1768348D01*
X97028D01*
Y1775968D02*
Y1780032D01*
X101092D01*
Y1775968D01*
X97028D01*
Y1783588D02*
Y1787652D01*
X101092D01*
Y1783588D01*
X97028D01*
Y1791208D02*
Y1795272D01*
X101092D01*
Y1791208D01*
X97028D01*
Y1798828D02*
Y1802892D01*
X101092D01*
Y1798828D01*
X97028D01*
X991108Y2007108D02*
Y2011172D01*
X995172D01*
Y2007108D01*
X991108D01*
X998728D02*
Y2011172D01*
X1002792D01*
Y2007108D01*
X998728D01*
X1006348D02*
Y2011172D01*
X1010412D01*
Y2007108D01*
X1006348D01*
X1013968D02*
Y2011172D01*
X1018032D01*
Y2007108D01*
X1013968D01*
X1021588D02*
Y2011172D01*
X1025652D01*
Y2007108D01*
X1021588D01*
X1029208D02*
Y2011172D01*
X1033272D01*
Y2007108D01*
X1029208D01*
X1036828D02*
Y2011172D01*
X1040892D01*
Y2007108D01*
X1036828D01*
X566928D02*
Y2011172D01*
X570992D01*
Y2007108D01*
X566928D01*
X559308D02*
Y2011172D01*
X563372D01*
Y2007108D01*
X559308D01*
X551688D02*
Y2011172D01*
X555752D01*
Y2007108D01*
X551688D01*
X544068D02*
Y2011172D01*
X548132D01*
Y2007108D01*
X544068D01*
X536448D02*
Y2011172D01*
X540512D01*
Y2007108D01*
X536448D01*
X528828D02*
Y2011172D01*
X532892D01*
Y2007108D01*
X528828D01*
X521208D02*
Y2011172D01*
X525272D01*
Y2007108D01*
X521208D01*
X1858050Y374668D02*
X1856018Y378732D01*
X1860082D01*
X1858050Y374668D01*
Y408668D02*
X1856018Y412732D01*
X1860082D01*
X1858050Y408668D01*
X1723350Y374668D02*
X1721318Y378732D01*
X1725382D01*
X1723350Y374668D01*
Y408668D02*
X1721318Y412732D01*
X1725382D01*
X1723350Y408668D01*
X1858050Y1009668D02*
X1856018Y1013732D01*
X1860082D01*
X1858050Y1009668D01*
Y1043668D02*
X1856018Y1047732D01*
X1860082D01*
X1858050Y1043668D01*
X1723350Y1009668D02*
X1721318Y1013732D01*
X1725382D01*
X1723350Y1009668D01*
Y1043668D02*
X1721318Y1047732D01*
X1725382D01*
X1723350Y1043668D01*
X1562500Y899668D02*
X1563516Y900684D01*
X1564532D01*
X1563516Y901700D01*
X1564532Y902716D01*
X1563516D01*
X1562500Y903732D01*
X1561484Y902716D01*
X1560468D01*
X1561484Y901700D01*
X1560468Y900684D01*
X1561484D01*
X1562500Y899668D01*
X1612500D02*
X1613516Y900684D01*
X1614532D01*
X1613516Y901700D01*
X1614532Y902716D01*
X1613516D01*
X1612500Y903732D01*
X1611484Y902716D01*
X1610468D01*
X1611484Y901700D01*
X1610468Y900684D01*
X1611484D01*
X1612500Y899668D01*
X1621468Y1280668D02*
X1622484Y1282700D01*
X1621468Y1284732D01*
X1623500Y1283716D01*
X1625532Y1284732D01*
X1624516Y1282700D01*
X1625532Y1280668D01*
X1623500Y1281684D01*
X1621468Y1280668D01*
X1549468D02*
X1550484Y1282700D01*
X1549468Y1284732D01*
X1551500Y1283716D01*
X1553532Y1284732D01*
X1552516Y1282700D01*
X1553532Y1280668D01*
X1551500Y1281684D01*
X1549468Y1280668D01*
X1858050Y1263668D02*
X1856018Y1267732D01*
X1860082D01*
X1858050Y1263668D01*
Y1297668D02*
X1856018Y1301732D01*
X1860082D01*
X1858050Y1297668D01*
X1723350Y1263668D02*
X1721318Y1267732D01*
X1725382D01*
X1723350Y1263668D01*
Y1297668D02*
X1721318Y1301732D01*
X1725382D01*
X1723350Y1297668D01*
X1562500Y518668D02*
X1563516Y519684D01*
X1564532D01*
X1563516Y520700D01*
X1564532Y521716D01*
X1563516D01*
X1562500Y522732D01*
X1561484Y521716D01*
X1560468D01*
X1561484Y520700D01*
X1560468Y519684D01*
X1561484D01*
X1562500Y518668D01*
X1612500D02*
X1613516Y519684D01*
X1614532D01*
X1613516Y520700D01*
X1614532Y521716D01*
X1613516D01*
X1612500Y522732D01*
X1611484Y521716D01*
X1610468D01*
X1611484Y520700D01*
X1610468Y519684D01*
X1611484D01*
X1612500Y518668D01*
X1562500Y264668D02*
X1563516Y265684D01*
X1564532D01*
X1563516Y266700D01*
X1564532Y267716D01*
X1563516D01*
X1562500Y268732D01*
X1561484Y267716D01*
X1560468D01*
X1561484Y266700D01*
X1560468Y265684D01*
X1561484D01*
X1562500Y264668D01*
X1612500D02*
X1613516Y265684D01*
X1614532D01*
X1613516Y266700D01*
X1614532Y267716D01*
X1613516D01*
X1612500Y268732D01*
X1611484Y267716D01*
X1610468D01*
X1611484Y266700D01*
X1610468Y265684D01*
X1611484D01*
X1612500Y264668D01*
Y391668D02*
X1613516Y392684D01*
X1614532D01*
X1613516Y393700D01*
X1614532Y394716D01*
X1613516D01*
X1612500Y395732D01*
X1611484Y394716D01*
X1610468D01*
X1611484Y393700D01*
X1610468Y392684D01*
X1611484D01*
X1612500Y391668D01*
X1562500D02*
X1563516Y392684D01*
X1564532D01*
X1563516Y393700D01*
X1564532Y394716D01*
X1563516D01*
X1562500Y395732D01*
X1561484Y394716D01*
X1560468D01*
X1561484Y393700D01*
X1560468Y392684D01*
X1561484D01*
X1562500Y391668D01*
Y772668D02*
X1563516Y773684D01*
X1564532D01*
X1563516Y774700D01*
X1564532Y775716D01*
X1563516D01*
X1562500Y776732D01*
X1561484Y775716D01*
X1560468D01*
X1561484Y774700D01*
X1560468Y773684D01*
X1561484D01*
X1562500Y772668D01*
X1612500D02*
X1613516Y773684D01*
X1614532D01*
X1613516Y774700D01*
X1614532Y775716D01*
X1613516D01*
X1612500Y776732D01*
X1611484Y775716D01*
X1610468D01*
X1611484Y774700D01*
X1610468Y773684D01*
X1611484D01*
X1612500Y772668D01*
Y645668D02*
X1613516Y646684D01*
X1614532D01*
X1613516Y647700D01*
X1614532Y648716D01*
X1613516D01*
X1612500Y649732D01*
X1611484Y648716D01*
X1610468D01*
X1611484Y647700D01*
X1610468Y646684D01*
X1611484D01*
X1612500Y645668D01*
X1562500D02*
X1563516Y646684D01*
X1564532D01*
X1563516Y647700D01*
X1564532Y648716D01*
X1563516D01*
X1562500Y649732D01*
X1561484Y648716D01*
X1560468D01*
X1561484Y647700D01*
X1560468Y646684D01*
X1561484D01*
X1562500Y645668D01*
Y1026668D02*
X1563516Y1027684D01*
X1564532D01*
X1563516Y1028700D01*
X1564532Y1029716D01*
X1563516D01*
X1562500Y1030732D01*
X1561484Y1029716D01*
X1560468D01*
X1561484Y1028700D01*
X1560468Y1027684D01*
X1561484D01*
X1562500Y1026668D01*
X1612500D02*
X1613516Y1027684D01*
X1614532D01*
X1613516Y1028700D01*
X1614532Y1029716D01*
X1613516D01*
X1612500Y1030732D01*
X1611484Y1029716D01*
X1610468D01*
X1611484Y1028700D01*
X1610468Y1027684D01*
X1611484D01*
X1612500Y1026668D01*
Y1153668D02*
X1613516Y1154684D01*
X1614532D01*
X1613516Y1155700D01*
X1614532Y1156716D01*
X1613516D01*
X1612500Y1157732D01*
X1611484Y1156716D01*
X1610468D01*
X1611484Y1155700D01*
X1610468Y1154684D01*
X1611484D01*
X1612500Y1153668D01*
X1562500D02*
X1563516Y1154684D01*
X1564532D01*
X1563516Y1155700D01*
X1564532Y1156716D01*
X1563516D01*
X1562500Y1157732D01*
X1561484Y1156716D01*
X1560468D01*
X1561484Y1155700D01*
X1560468Y1154684D01*
X1561484D01*
X1562500Y1153668D01*
X1723350Y662668D02*
X1721318Y666732D01*
X1725382D01*
X1723350Y662668D01*
Y628668D02*
X1721318Y632732D01*
X1725382D01*
X1723350Y628668D01*
X1858050Y662668D02*
X1856018Y666732D01*
X1860082D01*
X1858050Y662668D01*
Y628668D02*
X1856018Y632732D01*
X1860082D01*
X1858050Y628668D01*
X1723350Y789668D02*
X1721318Y793732D01*
X1725382D01*
X1723350Y789668D01*
Y755668D02*
X1721318Y759732D01*
X1725382D01*
X1723350Y755668D01*
X1858050Y789668D02*
X1856018Y793732D01*
X1860082D01*
X1858050Y789668D01*
Y755668D02*
X1856018Y759732D01*
X1860082D01*
X1858050Y755668D01*
X1723350Y281668D02*
X1721318Y285732D01*
X1725382D01*
X1723350Y281668D01*
Y247668D02*
X1721318Y251732D01*
X1725382D01*
X1723350Y247668D01*
X1858050Y281668D02*
X1856018Y285732D01*
X1860082D01*
X1858050Y281668D01*
Y247668D02*
X1856018Y251732D01*
X1860082D01*
X1858050Y247668D01*
X1723350Y535668D02*
X1721318Y539732D01*
X1725382D01*
X1723350Y535668D01*
Y501668D02*
X1721318Y505732D01*
X1725382D01*
X1723350Y501668D01*
X1858050Y535668D02*
X1856018Y539732D01*
X1860082D01*
X1858050Y535668D01*
Y501668D02*
X1856018Y505732D01*
X1860082D01*
X1858050Y501668D01*
X1723350Y1170668D02*
X1721318Y1174732D01*
X1725382D01*
X1723350Y1170668D01*
Y1136668D02*
X1721318Y1140732D01*
X1725382D01*
X1723350Y1136668D01*
X1858050Y1170668D02*
X1856018Y1174732D01*
X1860082D01*
X1858050Y1170668D01*
Y1136668D02*
X1856018Y1140732D01*
X1860082D01*
X1858050Y1136668D01*
X1723350Y916668D02*
X1721318Y920732D01*
X1725382D01*
X1723350Y916668D01*
Y882668D02*
X1721318Y886732D01*
X1725382D01*
X1723350Y882668D01*
X1858050Y916668D02*
X1856018Y920732D01*
X1860082D01*
X1858050Y916668D01*
Y882668D02*
X1856018Y886732D01*
X1860082D01*
X1858050Y882668D01*
X1522984Y1395984D02*
Y1394968D01*
X1525016D01*
Y1395984D01*
X1526032D01*
Y1398016D01*
X1525016D01*
Y1399032D01*
X1522984D01*
Y1398016D01*
X1521968D01*
Y1395984D01*
X1522984D01*
X1878584D02*
Y1394968D01*
X1880616D01*
Y1395984D01*
X1881632D01*
Y1398016D01*
X1880616D01*
Y1399032D01*
X1878584D01*
Y1398016D01*
X1877568D01*
Y1395984D01*
X1878584D01*
Y151384D02*
Y150368D01*
X1880616D01*
Y151384D01*
X1881632D01*
Y153416D01*
X1880616D01*
Y154432D01*
X1878584D01*
Y153416D01*
X1877568D01*
Y151384D01*
X1878584D01*
X1522984D02*
Y150368D01*
X1525016D01*
Y151384D01*
X1526032D01*
Y153416D01*
X1525016D01*
Y154432D01*
X1522984D01*
Y153416D01*
X1521968D01*
Y151384D01*
X1522984D01*
X1905508Y188468D02*
X1906524D01*
X1907540Y189484D01*
X1908556Y188468D01*
X1909572D01*
Y189484D01*
X1908556Y190500D01*
X1909572Y191516D01*
Y192532D01*
X1908556D01*
X1907540Y191516D01*
X1906524Y192532D01*
X1905508D01*
Y191516D01*
X1906524Y190500D01*
X1905508Y189484D01*
Y188468D01*
Y315468D02*
X1906524D01*
X1907540Y316484D01*
X1908556Y315468D01*
X1909572D01*
Y316484D01*
X1908556Y317500D01*
X1909572Y318516D01*
Y319532D01*
X1908556D01*
X1907540Y318516D01*
X1906524Y319532D01*
X1905508D01*
Y318516D01*
X1906524Y317500D01*
X1905508Y316484D01*
Y315468D01*
Y442468D02*
X1906524D01*
X1907540Y443484D01*
X1908556Y442468D01*
X1909572D01*
Y443484D01*
X1908556Y444500D01*
X1909572Y445516D01*
Y446532D01*
X1908556D01*
X1907540Y445516D01*
X1906524Y446532D01*
X1905508D01*
Y445516D01*
X1906524Y444500D01*
X1905508Y443484D01*
Y442468D01*
Y569468D02*
X1906524D01*
X1907540Y570484D01*
X1908556Y569468D01*
X1909572D01*
Y570484D01*
X1908556Y571500D01*
X1909572Y572516D01*
Y573532D01*
X1908556D01*
X1907540Y572516D01*
X1906524Y573532D01*
X1905508D01*
Y572516D01*
X1906524Y571500D01*
X1905508Y570484D01*
Y569468D01*
Y696468D02*
X1906524D01*
X1907540Y697484D01*
X1908556Y696468D01*
X1909572D01*
Y697484D01*
X1908556Y698500D01*
X1909572Y699516D01*
Y700532D01*
X1908556D01*
X1907540Y699516D01*
X1906524Y700532D01*
X1905508D01*
Y699516D01*
X1906524Y698500D01*
X1905508Y697484D01*
Y696468D01*
Y823468D02*
X1906524D01*
X1907540Y824484D01*
X1908556Y823468D01*
X1909572D01*
Y824484D01*
X1908556Y825500D01*
X1909572Y826516D01*
Y827532D01*
X1908556D01*
X1907540Y826516D01*
X1906524Y827532D01*
X1905508D01*
Y826516D01*
X1906524Y825500D01*
X1905508Y824484D01*
Y823468D01*
Y950468D02*
X1906524D01*
X1907540Y951484D01*
X1908556Y950468D01*
X1909572D01*
Y951484D01*
X1908556Y952500D01*
X1909572Y953516D01*
Y954532D01*
X1908556D01*
X1907540Y953516D01*
X1906524Y954532D01*
X1905508D01*
Y953516D01*
X1906524Y952500D01*
X1905508Y951484D01*
Y950468D01*
Y1077468D02*
X1906524D01*
X1907540Y1078484D01*
X1908556Y1077468D01*
X1909572D01*
Y1078484D01*
X1908556Y1079500D01*
X1909572Y1080516D01*
Y1081532D01*
X1908556D01*
X1907540Y1080516D01*
X1906524Y1081532D01*
X1905508D01*
Y1080516D01*
X1906524Y1079500D01*
X1905508Y1078484D01*
Y1077468D01*
Y1204468D02*
X1906524D01*
X1907540Y1205484D01*
X1908556Y1204468D01*
X1909572D01*
Y1205484D01*
X1908556Y1206500D01*
X1909572Y1207516D01*
Y1208532D01*
X1908556D01*
X1907540Y1207516D01*
X1906524Y1208532D01*
X1905508D01*
Y1207516D01*
X1906524Y1206500D01*
X1905508Y1205484D01*
Y1204468D01*
X1885188Y1349248D02*
X1886204D01*
X1887220Y1350264D01*
X1888236Y1349248D01*
X1889252D01*
Y1350264D01*
X1888236Y1351280D01*
X1889252Y1352296D01*
Y1353312D01*
X1888236D01*
X1887220Y1352296D01*
X1886204Y1353312D01*
X1885188D01*
Y1352296D01*
X1886204Y1351280D01*
X1885188Y1350264D01*
Y1349248D01*
X2338110Y374668D02*
X2336078Y378732D01*
X2340142D01*
X2338110Y374668D01*
Y408668D02*
X2336078Y412732D01*
X2340142D01*
X2338110Y408668D01*
X2203410Y374668D02*
X2201378Y378732D01*
X2205442D01*
X2203410Y374668D01*
Y408668D02*
X2201378Y412732D01*
X2205442D01*
X2203410Y408668D01*
X2338110Y1009668D02*
X2336078Y1013732D01*
X2340142D01*
X2338110Y1009668D01*
Y1043668D02*
X2336078Y1047732D01*
X2340142D01*
X2338110Y1043668D01*
X2203410Y1009668D02*
X2201378Y1013732D01*
X2205442D01*
X2203410Y1009668D01*
Y1043668D02*
X2201378Y1047732D01*
X2205442D01*
X2203410Y1043668D01*
X2042560Y899668D02*
X2043576Y900684D01*
X2044592D01*
X2043576Y901700D01*
X2044592Y902716D01*
X2043576D01*
X2042560Y903732D01*
X2041544Y902716D01*
X2040528D01*
X2041544Y901700D01*
X2040528Y900684D01*
X2041544D01*
X2042560Y899668D01*
X2092560D02*
X2093576Y900684D01*
X2094592D01*
X2093576Y901700D01*
X2094592Y902716D01*
X2093576D01*
X2092560Y903732D01*
X2091544Y902716D01*
X2090528D01*
X2091544Y901700D01*
X2090528Y900684D01*
X2091544D01*
X2092560Y899668D01*
X2101528Y1280668D02*
X2102544Y1282700D01*
X2101528Y1284732D01*
X2103560Y1283716D01*
X2105592Y1284732D01*
X2104576Y1282700D01*
X2105592Y1280668D01*
X2103560Y1281684D01*
X2101528Y1280668D01*
X2029528D02*
X2030544Y1282700D01*
X2029528Y1284732D01*
X2031560Y1283716D01*
X2033592Y1284732D01*
X2032576Y1282700D01*
X2033592Y1280668D01*
X2031560Y1281684D01*
X2029528Y1280668D01*
X2338110Y1263668D02*
X2336078Y1267732D01*
X2340142D01*
X2338110Y1263668D01*
Y1297668D02*
X2336078Y1301732D01*
X2340142D01*
X2338110Y1297668D01*
X2203410Y1263668D02*
X2201378Y1267732D01*
X2205442D01*
X2203410Y1263668D01*
Y1297668D02*
X2201378Y1301732D01*
X2205442D01*
X2203410Y1297668D01*
X2042560Y518668D02*
X2043576Y519684D01*
X2044592D01*
X2043576Y520700D01*
X2044592Y521716D01*
X2043576D01*
X2042560Y522732D01*
X2041544Y521716D01*
X2040528D01*
X2041544Y520700D01*
X2040528Y519684D01*
X2041544D01*
X2042560Y518668D01*
X2092560D02*
X2093576Y519684D01*
X2094592D01*
X2093576Y520700D01*
X2094592Y521716D01*
X2093576D01*
X2092560Y522732D01*
X2091544Y521716D01*
X2090528D01*
X2091544Y520700D01*
X2090528Y519684D01*
X2091544D01*
X2092560Y518668D01*
X2042560Y264668D02*
X2043576Y265684D01*
X2044592D01*
X2043576Y266700D01*
X2044592Y267716D01*
X2043576D01*
X2042560Y268732D01*
X2041544Y267716D01*
X2040528D01*
X2041544Y266700D01*
X2040528Y265684D01*
X2041544D01*
X2042560Y264668D01*
X2092560D02*
X2093576Y265684D01*
X2094592D01*
X2093576Y266700D01*
X2094592Y267716D01*
X2093576D01*
X2092560Y268732D01*
X2091544Y267716D01*
X2090528D01*
X2091544Y266700D01*
X2090528Y265684D01*
X2091544D01*
X2092560Y264668D01*
Y391668D02*
X2093576Y392684D01*
X2094592D01*
X2093576Y393700D01*
X2094592Y394716D01*
X2093576D01*
X2092560Y395732D01*
X2091544Y394716D01*
X2090528D01*
X2091544Y393700D01*
X2090528Y392684D01*
X2091544D01*
X2092560Y391668D01*
X2042560D02*
X2043576Y392684D01*
X2044592D01*
X2043576Y393700D01*
X2044592Y394716D01*
X2043576D01*
X2042560Y395732D01*
X2041544Y394716D01*
X2040528D01*
X2041544Y393700D01*
X2040528Y392684D01*
X2041544D01*
X2042560Y391668D01*
Y772668D02*
X2043576Y773684D01*
X2044592D01*
X2043576Y774700D01*
X2044592Y775716D01*
X2043576D01*
X2042560Y776732D01*
X2041544Y775716D01*
X2040528D01*
X2041544Y774700D01*
X2040528Y773684D01*
X2041544D01*
X2042560Y772668D01*
X2092560D02*
X2093576Y773684D01*
X2094592D01*
X2093576Y774700D01*
X2094592Y775716D01*
X2093576D01*
X2092560Y776732D01*
X2091544Y775716D01*
X2090528D01*
X2091544Y774700D01*
X2090528Y773684D01*
X2091544D01*
X2092560Y772668D01*
Y645668D02*
X2093576Y646684D01*
X2094592D01*
X2093576Y647700D01*
X2094592Y648716D01*
X2093576D01*
X2092560Y649732D01*
X2091544Y648716D01*
X2090528D01*
X2091544Y647700D01*
X2090528Y646684D01*
X2091544D01*
X2092560Y645668D01*
X2042560D02*
X2043576Y646684D01*
X2044592D01*
X2043576Y647700D01*
X2044592Y648716D01*
X2043576D01*
X2042560Y649732D01*
X2041544Y648716D01*
X2040528D01*
X2041544Y647700D01*
X2040528Y646684D01*
X2041544D01*
X2042560Y645668D01*
Y1026668D02*
X2043576Y1027684D01*
X2044592D01*
X2043576Y1028700D01*
X2044592Y1029716D01*
X2043576D01*
X2042560Y1030732D01*
X2041544Y1029716D01*
X2040528D01*
X2041544Y1028700D01*
X2040528Y1027684D01*
X2041544D01*
X2042560Y1026668D01*
X2092560D02*
X2093576Y1027684D01*
X2094592D01*
X2093576Y1028700D01*
X2094592Y1029716D01*
X2093576D01*
X2092560Y1030732D01*
X2091544Y1029716D01*
X2090528D01*
X2091544Y1028700D01*
X2090528Y1027684D01*
X2091544D01*
X2092560Y1026668D01*
Y1153668D02*
X2093576Y1154684D01*
X2094592D01*
X2093576Y1155700D01*
X2094592Y1156716D01*
X2093576D01*
X2092560Y1157732D01*
X2091544Y1156716D01*
X2090528D01*
X2091544Y1155700D01*
X2090528Y1154684D01*
X2091544D01*
X2092560Y1153668D01*
X2042560D02*
X2043576Y1154684D01*
X2044592D01*
X2043576Y1155700D01*
X2044592Y1156716D01*
X2043576D01*
X2042560Y1157732D01*
X2041544Y1156716D01*
X2040528D01*
X2041544Y1155700D01*
X2040528Y1154684D01*
X2041544D01*
X2042560Y1153668D01*
X2203410Y662668D02*
X2201378Y666732D01*
X2205442D01*
X2203410Y662668D01*
Y628668D02*
X2201378Y632732D01*
X2205442D01*
X2203410Y628668D01*
X2338110Y662668D02*
X2336078Y666732D01*
X2340142D01*
X2338110Y662668D01*
Y628668D02*
X2336078Y632732D01*
X2340142D01*
X2338110Y628668D01*
X2203410Y789668D02*
X2201378Y793732D01*
X2205442D01*
X2203410Y789668D01*
Y755668D02*
X2201378Y759732D01*
X2205442D01*
X2203410Y755668D01*
X2338110Y789668D02*
X2336078Y793732D01*
X2340142D01*
X2338110Y789668D01*
Y755668D02*
X2336078Y759732D01*
X2340142D01*
X2338110Y755668D01*
X2203410Y281668D02*
X2201378Y285732D01*
X2205442D01*
X2203410Y281668D01*
Y247668D02*
X2201378Y251732D01*
X2205442D01*
X2203410Y247668D01*
X2338110Y281668D02*
X2336078Y285732D01*
X2340142D01*
X2338110Y281668D01*
Y247668D02*
X2336078Y251732D01*
X2340142D01*
X2338110Y247668D01*
X2203410Y535668D02*
X2201378Y539732D01*
X2205442D01*
X2203410Y535668D01*
Y501668D02*
X2201378Y505732D01*
X2205442D01*
X2203410Y501668D01*
X2338110Y535668D02*
X2336078Y539732D01*
X2340142D01*
X2338110Y535668D01*
Y501668D02*
X2336078Y505732D01*
X2340142D01*
X2338110Y501668D01*
X2203410Y1170668D02*
X2201378Y1174732D01*
X2205442D01*
X2203410Y1170668D01*
Y1136668D02*
X2201378Y1140732D01*
X2205442D01*
X2203410Y1136668D01*
X2338110Y1170668D02*
X2336078Y1174732D01*
X2340142D01*
X2338110Y1170668D01*
Y1136668D02*
X2336078Y1140732D01*
X2340142D01*
X2338110Y1136668D01*
X2203410Y916668D02*
X2201378Y920732D01*
X2205442D01*
X2203410Y916668D01*
Y882668D02*
X2201378Y886732D01*
X2205442D01*
X2203410Y882668D01*
X2338110Y916668D02*
X2336078Y920732D01*
X2340142D01*
X2338110Y916668D01*
Y882668D02*
X2336078Y886732D01*
X2340142D01*
X2338110Y882668D01*
X2003044Y1395984D02*
Y1394968D01*
X2005076D01*
Y1395984D01*
X2006092D01*
Y1398016D01*
X2005076D01*
Y1399032D01*
X2003044D01*
Y1398016D01*
X2002028D01*
Y1395984D01*
X2003044D01*
X2358644D02*
Y1394968D01*
X2360676D01*
Y1395984D01*
X2361692D01*
Y1398016D01*
X2360676D01*
Y1399032D01*
X2358644D01*
Y1398016D01*
X2357628D01*
Y1395984D01*
X2358644D01*
Y151384D02*
Y150368D01*
X2360676D01*
Y151384D01*
X2361692D01*
Y153416D01*
X2360676D01*
Y154432D01*
X2358644D01*
Y153416D01*
X2357628D01*
Y151384D01*
X2358644D01*
X2003044D02*
Y150368D01*
X2005076D01*
Y151384D01*
X2006092D01*
Y153416D01*
X2005076D01*
Y154432D01*
X2003044D01*
Y153416D01*
X2002028D01*
Y151384D01*
X2003044D01*
X2385568Y188468D02*
X2386584D01*
X2387600Y189484D01*
X2388616Y188468D01*
X2389632D01*
Y189484D01*
X2388616Y190500D01*
X2389632Y191516D01*
Y192532D01*
X2388616D01*
X2387600Y191516D01*
X2386584Y192532D01*
X2385568D01*
Y191516D01*
X2386584Y190500D01*
X2385568Y189484D01*
Y188468D01*
Y315468D02*
X2386584D01*
X2387600Y316484D01*
X2388616Y315468D01*
X2389632D01*
Y316484D01*
X2388616Y317500D01*
X2389632Y318516D01*
Y319532D01*
X2388616D01*
X2387600Y318516D01*
X2386584Y319532D01*
X2385568D01*
Y318516D01*
X2386584Y317500D01*
X2385568Y316484D01*
Y315468D01*
Y442468D02*
X2386584D01*
X2387600Y443484D01*
X2388616Y442468D01*
X2389632D01*
Y443484D01*
X2388616Y444500D01*
X2389632Y445516D01*
Y446532D01*
X2388616D01*
X2387600Y445516D01*
X2386584Y446532D01*
X2385568D01*
Y445516D01*
X2386584Y444500D01*
X2385568Y443484D01*
Y442468D01*
Y569468D02*
X2386584D01*
X2387600Y570484D01*
X2388616Y569468D01*
X2389632D01*
Y570484D01*
X2388616Y571500D01*
X2389632Y572516D01*
Y573532D01*
X2388616D01*
X2387600Y572516D01*
X2386584Y573532D01*
X2385568D01*
Y572516D01*
X2386584Y571500D01*
X2385568Y570484D01*
Y569468D01*
Y696468D02*
X2386584D01*
X2387600Y697484D01*
X2388616Y696468D01*
X2389632D01*
Y697484D01*
X2388616Y698500D01*
X2389632Y699516D01*
Y700532D01*
X2388616D01*
X2387600Y699516D01*
X2386584Y700532D01*
X2385568D01*
Y699516D01*
X2386584Y698500D01*
X2385568Y697484D01*
Y696468D01*
Y823468D02*
X2386584D01*
X2387600Y824484D01*
X2388616Y823468D01*
X2389632D01*
Y824484D01*
X2388616Y825500D01*
X2389632Y826516D01*
Y827532D01*
X2388616D01*
X2387600Y826516D01*
X2386584Y827532D01*
X2385568D01*
Y826516D01*
X2386584Y825500D01*
X2385568Y824484D01*
Y823468D01*
Y950468D02*
X2386584D01*
X2387600Y951484D01*
X2388616Y950468D01*
X2389632D01*
Y951484D01*
X2388616Y952500D01*
X2389632Y953516D01*
Y954532D01*
X2388616D01*
X2387600Y953516D01*
X2386584Y954532D01*
X2385568D01*
Y953516D01*
X2386584Y952500D01*
X2385568Y951484D01*
Y950468D01*
Y1077468D02*
X2386584D01*
X2387600Y1078484D01*
X2388616Y1077468D01*
X2389632D01*
Y1078484D01*
X2388616Y1079500D01*
X2389632Y1080516D01*
Y1081532D01*
X2388616D01*
X2387600Y1080516D01*
X2386584Y1081532D01*
X2385568D01*
Y1080516D01*
X2386584Y1079500D01*
X2385568Y1078484D01*
Y1077468D01*
Y1204468D02*
X2386584D01*
X2387600Y1205484D01*
X2388616Y1204468D01*
X2389632D01*
Y1205484D01*
X2388616Y1206500D01*
X2389632Y1207516D01*
Y1208532D01*
X2388616D01*
X2387600Y1207516D01*
X2386584Y1208532D01*
X2385568D01*
Y1207516D01*
X2386584Y1206500D01*
X2385568Y1205484D01*
Y1204468D01*
X2365248Y1349248D02*
X2366264D01*
X2367280Y1350264D01*
X2368296Y1349248D01*
X2369312D01*
Y1350264D01*
X2368296Y1351280D01*
X2369312Y1352296D01*
Y1353312D01*
X2368296D01*
X2367280Y1352296D01*
X2366264Y1353312D01*
X2365248D01*
Y1352296D01*
X2366264Y1351280D01*
X2365248Y1350264D01*
Y1349248D01*
X1172700Y484418D02*
X1170668Y488482D01*
X1174732D01*
X1172700Y484418D01*
X1138700D02*
X1136668Y488482D01*
X1140732D01*
X1138700Y484418D01*
X1172700Y349718D02*
X1170668Y353782D01*
X1174732D01*
X1172700Y349718D01*
X1138700D02*
X1136668Y353782D01*
X1140732D01*
X1138700Y349718D01*
X537700Y484418D02*
X535668Y488482D01*
X539732D01*
X537700Y484418D01*
X503700D02*
X501668Y488482D01*
X505732D01*
X503700Y484418D01*
X537700Y349718D02*
X535668Y353782D01*
X539732D01*
X537700Y349718D01*
X503700D02*
X501668Y353782D01*
X505732D01*
X503700Y349718D01*
X647700Y188868D02*
X648716Y189884D01*
X649732D01*
X648716Y190900D01*
X649732Y191916D01*
X648716D01*
X647700Y192932D01*
X646684Y191916D01*
X645668D01*
X646684Y190900D01*
X645668Y189884D01*
X646684D01*
X647700Y188868D01*
Y238868D02*
X648716Y239884D01*
X649732D01*
X648716Y240900D01*
X649732Y241916D01*
X648716D01*
X647700Y242932D01*
X646684Y241916D01*
X645668D01*
X646684Y240900D01*
X645668Y239884D01*
X646684D01*
X647700Y238868D01*
X264668Y249868D02*
X265684Y251900D01*
X264668Y253932D01*
X266700Y252916D01*
X268732Y253932D01*
X267716Y251900D01*
X268732Y249868D01*
X266700Y250884D01*
X264668Y249868D01*
Y177868D02*
X265684Y179900D01*
X264668Y181932D01*
X266700Y180916D01*
X268732Y181932D01*
X267716Y179900D01*
X268732Y177868D01*
X266700Y178884D01*
X264668Y177868D01*
X283700Y484418D02*
X281668Y488482D01*
X285732D01*
X283700Y484418D01*
X249700D02*
X247668Y488482D01*
X251732D01*
X249700Y484418D01*
X283700Y349718D02*
X281668Y353782D01*
X285732D01*
X283700Y349718D01*
X249700D02*
X247668Y353782D01*
X251732D01*
X249700Y349718D01*
X1028700Y188868D02*
X1029716Y189884D01*
X1030732D01*
X1029716Y190900D01*
X1030732Y191916D01*
X1029716D01*
X1028700Y192932D01*
X1027684Y191916D01*
X1026668D01*
X1027684Y190900D01*
X1026668Y189884D01*
X1027684D01*
X1028700Y188868D01*
Y238868D02*
X1029716Y239884D01*
X1030732D01*
X1029716Y240900D01*
X1030732Y241916D01*
X1029716D01*
X1028700Y242932D01*
X1027684Y241916D01*
X1026668D01*
X1027684Y240900D01*
X1026668Y239884D01*
X1027684D01*
X1028700Y238868D01*
X1282700Y188868D02*
X1283716Y189884D01*
X1284732D01*
X1283716Y190900D01*
X1284732Y191916D01*
X1283716D01*
X1282700Y192932D01*
X1281684Y191916D01*
X1280668D01*
X1281684Y190900D01*
X1280668Y189884D01*
X1281684D01*
X1282700Y188868D01*
Y238868D02*
X1283716Y239884D01*
X1284732D01*
X1283716Y240900D01*
X1284732Y241916D01*
X1283716D01*
X1282700Y242932D01*
X1281684Y241916D01*
X1280668D01*
X1281684Y240900D01*
X1280668Y239884D01*
X1281684D01*
X1282700Y238868D01*
X1155700D02*
X1156716Y239884D01*
X1157732D01*
X1156716Y240900D01*
X1157732Y241916D01*
X1156716D01*
X1155700Y242932D01*
X1154684Y241916D01*
X1153668D01*
X1154684Y240900D01*
X1153668Y239884D01*
X1154684D01*
X1155700Y238868D01*
Y188868D02*
X1156716Y189884D01*
X1157732D01*
X1156716Y190900D01*
X1157732Y191916D01*
X1156716D01*
X1155700Y192932D01*
X1154684Y191916D01*
X1153668D01*
X1154684Y190900D01*
X1153668Y189884D01*
X1154684D01*
X1155700Y188868D01*
X774700D02*
X775716Y189884D01*
X776732D01*
X775716Y190900D01*
X776732Y191916D01*
X775716D01*
X774700Y192932D01*
X773684Y191916D01*
X772668D01*
X773684Y190900D01*
X772668Y189884D01*
X773684D01*
X774700Y188868D01*
Y238868D02*
X775716Y239884D01*
X776732D01*
X775716Y240900D01*
X776732Y241916D01*
X775716D01*
X774700Y242932D01*
X773684Y241916D01*
X772668D01*
X773684Y240900D01*
X772668Y239884D01*
X773684D01*
X774700Y238868D01*
X901700D02*
X902716Y239884D01*
X903732D01*
X902716Y240900D01*
X903732Y241916D01*
X902716D01*
X901700Y242932D01*
X900684Y241916D01*
X899668D01*
X900684Y240900D01*
X899668Y239884D01*
X900684D01*
X901700Y238868D01*
Y188868D02*
X902716Y189884D01*
X903732D01*
X902716Y190900D01*
X903732Y191916D01*
X902716D01*
X901700Y192932D01*
X900684Y191916D01*
X899668D01*
X900684Y190900D01*
X899668Y189884D01*
X900684D01*
X901700Y188868D01*
X520700D02*
X521716Y189884D01*
X522732D01*
X521716Y190900D01*
X522732Y191916D01*
X521716D01*
X520700Y192932D01*
X519684Y191916D01*
X518668D01*
X519684Y190900D01*
X518668Y189884D01*
X519684D01*
X520700Y188868D01*
Y238868D02*
X521716Y239884D01*
X522732D01*
X521716Y240900D01*
X522732Y241916D01*
X521716D01*
X520700Y242932D01*
X519684Y241916D01*
X518668D01*
X519684Y240900D01*
X518668Y239884D01*
X519684D01*
X520700Y238868D01*
X393700D02*
X394716Y239884D01*
X395732D01*
X394716Y240900D01*
X395732Y241916D01*
X394716D01*
X393700Y242932D01*
X392684Y241916D01*
X391668D01*
X392684Y240900D01*
X391668Y239884D01*
X392684D01*
X393700Y238868D01*
Y188868D02*
X394716Y189884D01*
X395732D01*
X394716Y190900D01*
X395732Y191916D01*
X394716D01*
X393700Y192932D01*
X392684Y191916D01*
X391668D01*
X392684Y190900D01*
X391668Y189884D01*
X392684D01*
X393700Y188868D01*
X884700Y349718D02*
X882668Y353782D01*
X886732D01*
X884700Y349718D01*
X918700D02*
X916668Y353782D01*
X920732D01*
X918700Y349718D01*
X884700Y484418D02*
X882668Y488482D01*
X886732D01*
X884700Y484418D01*
X918700D02*
X916668Y488482D01*
X920732D01*
X918700Y484418D01*
X757700Y349718D02*
X755668Y353782D01*
X759732D01*
X757700Y349718D01*
X791700D02*
X789668Y353782D01*
X793732D01*
X791700Y349718D01*
X757700Y484418D02*
X755668Y488482D01*
X759732D01*
X757700Y484418D01*
X791700D02*
X789668Y488482D01*
X793732D01*
X791700Y484418D01*
X1265700Y349718D02*
X1263668Y353782D01*
X1267732D01*
X1265700Y349718D01*
X1299700D02*
X1297668Y353782D01*
X1301732D01*
X1299700Y349718D01*
X1265700Y484418D02*
X1263668Y488482D01*
X1267732D01*
X1265700Y484418D01*
X1299700D02*
X1297668Y488482D01*
X1301732D01*
X1299700Y484418D01*
X1011700Y349718D02*
X1009668Y353782D01*
X1013732D01*
X1011700Y349718D01*
X1045700D02*
X1043668Y353782D01*
X1047732D01*
X1045700Y349718D01*
X1011700Y484418D02*
X1009668Y488482D01*
X1013732D01*
X1011700Y484418D01*
X1045700D02*
X1043668Y488482D01*
X1047732D01*
X1045700Y484418D01*
X376700Y349718D02*
X374668Y353782D01*
X378732D01*
X376700Y349718D01*
X410700D02*
X408668Y353782D01*
X412732D01*
X410700Y349718D01*
X376700Y484418D02*
X374668Y488482D01*
X378732D01*
X376700Y484418D01*
X410700D02*
X408668Y488482D01*
X412732D01*
X410700Y484418D01*
X630700Y349718D02*
X628668Y353782D01*
X632732D01*
X630700Y349718D01*
X664700D02*
X662668Y353782D01*
X666732D01*
X664700Y349718D01*
X630700Y484418D02*
X628668Y488482D01*
X632732D01*
X630700Y484418D01*
X664700D02*
X662668Y488482D01*
X666732D01*
X664700Y484418D01*
X151384Y151384D02*
Y150368D01*
X153416D01*
Y151384D01*
X154432D01*
Y153416D01*
X153416D01*
Y154432D01*
X151384D01*
Y153416D01*
X150368D01*
Y151384D01*
X151384D01*
Y506984D02*
Y505968D01*
X153416D01*
Y506984D01*
X154432D01*
Y509016D01*
X153416D01*
Y510032D01*
X151384D01*
Y509016D01*
X150368D01*
Y506984D01*
X151384D01*
X1395984D02*
Y505968D01*
X1398016D01*
Y506984D01*
X1399032D01*
Y509016D01*
X1398016D01*
Y510032D01*
X1395984D01*
Y509016D01*
X1394968D01*
Y506984D01*
X1395984D01*
Y151384D02*
Y150368D01*
X1398016D01*
Y151384D01*
X1399032D01*
Y153416D01*
X1398016D01*
Y154432D01*
X1395984D01*
Y153416D01*
X1394968D01*
Y151384D01*
X1395984D01*
X1356868Y533908D02*
X1357884D01*
X1358900Y534924D01*
X1359916Y533908D01*
X1360932D01*
Y534924D01*
X1359916Y535940D01*
X1360932Y536956D01*
Y537972D01*
X1359916D01*
X1358900Y536956D01*
X1357884Y537972D01*
X1356868D01*
Y536956D01*
X1357884Y535940D01*
X1356868Y534924D01*
Y533908D01*
X1229868D02*
X1230884D01*
X1231900Y534924D01*
X1232916Y533908D01*
X1233932D01*
Y534924D01*
X1232916Y535940D01*
X1233932Y536956D01*
Y537972D01*
X1232916D01*
X1231900Y536956D01*
X1230884Y537972D01*
X1229868D01*
Y536956D01*
X1230884Y535940D01*
X1229868Y534924D01*
Y533908D01*
X1102868D02*
X1103884D01*
X1104900Y534924D01*
X1105916Y533908D01*
X1106932D01*
Y534924D01*
X1105916Y535940D01*
X1106932Y536956D01*
Y537972D01*
X1105916D01*
X1104900Y536956D01*
X1103884Y537972D01*
X1102868D01*
Y536956D01*
X1103884Y535940D01*
X1102868Y534924D01*
Y533908D01*
X975868D02*
X976884D01*
X977900Y534924D01*
X978916Y533908D01*
X979932D01*
Y534924D01*
X978916Y535940D01*
X979932Y536956D01*
Y537972D01*
X978916D01*
X977900Y536956D01*
X976884Y537972D01*
X975868D01*
Y536956D01*
X976884Y535940D01*
X975868Y534924D01*
Y533908D01*
X848868D02*
X849884D01*
X850900Y534924D01*
X851916Y533908D01*
X852932D01*
Y534924D01*
X851916Y535940D01*
X852932Y536956D01*
Y537972D01*
X851916D01*
X850900Y536956D01*
X849884Y537972D01*
X848868D01*
Y536956D01*
X849884Y535940D01*
X848868Y534924D01*
Y533908D01*
X721868D02*
X722884D01*
X723900Y534924D01*
X724916Y533908D01*
X725932D01*
Y534924D01*
X724916Y535940D01*
X725932Y536956D01*
Y537972D01*
X724916D01*
X723900Y536956D01*
X722884Y537972D01*
X721868D01*
Y536956D01*
X722884Y535940D01*
X721868Y534924D01*
Y533908D01*
X594868D02*
X595884D01*
X596900Y534924D01*
X597916Y533908D01*
X598932D01*
Y534924D01*
X597916Y535940D01*
X598932Y536956D01*
Y537972D01*
X597916D01*
X596900Y536956D01*
X595884Y537972D01*
X594868D01*
Y536956D01*
X595884Y535940D01*
X594868Y534924D01*
Y533908D01*
X467868D02*
X468884D01*
X469900Y534924D01*
X470916Y533908D01*
X471932D01*
Y534924D01*
X470916Y535940D01*
X471932Y536956D01*
Y537972D01*
X470916D01*
X469900Y536956D01*
X468884Y537972D01*
X467868D01*
Y536956D01*
X468884Y535940D01*
X467868Y534924D01*
Y533908D01*
X340868D02*
X341884D01*
X342900Y534924D01*
X343916Y533908D01*
X344932D01*
Y534924D01*
X343916Y535940D01*
X344932Y536956D01*
Y537972D01*
X343916D01*
X342900Y536956D01*
X341884Y537972D01*
X340868D01*
Y536956D01*
X341884Y535940D01*
X340868Y534924D01*
Y533908D01*
X196088Y513588D02*
X197104D01*
X198120Y514604D01*
X199136Y513588D01*
X200152D01*
Y514604D01*
X199136Y515620D01*
X200152Y516636D01*
Y517652D01*
X199136D01*
X198120Y516636D01*
X197104Y517652D01*
X196088D01*
Y516636D01*
X197104Y515620D01*
X196088Y514604D01*
Y513588D01*
X1172700Y967018D02*
X1170668Y971082D01*
X1174732D01*
X1172700Y967018D01*
X1138700D02*
X1136668Y971082D01*
X1140732D01*
X1138700Y967018D01*
X1172700Y832318D02*
X1170668Y836382D01*
X1174732D01*
X1172700Y832318D01*
X1138700D02*
X1136668Y836382D01*
X1140732D01*
X1138700Y832318D01*
X537700Y967018D02*
X535668Y971082D01*
X539732D01*
X537700Y967018D01*
X503700D02*
X501668Y971082D01*
X505732D01*
X503700Y967018D01*
X537700Y832318D02*
X535668Y836382D01*
X539732D01*
X537700Y832318D01*
X503700D02*
X501668Y836382D01*
X505732D01*
X503700Y832318D01*
X647700Y671468D02*
X648716Y672484D01*
X649732D01*
X648716Y673500D01*
X649732Y674516D01*
X648716D01*
X647700Y675532D01*
X646684Y674516D01*
X645668D01*
X646684Y673500D01*
X645668Y672484D01*
X646684D01*
X647700Y671468D01*
Y721468D02*
X648716Y722484D01*
X649732D01*
X648716Y723500D01*
X649732Y724516D01*
X648716D01*
X647700Y725532D01*
X646684Y724516D01*
X645668D01*
X646684Y723500D01*
X645668Y722484D01*
X646684D01*
X647700Y721468D01*
X264668Y732468D02*
X265684Y734500D01*
X264668Y736532D01*
X266700Y735516D01*
X268732Y736532D01*
X267716Y734500D01*
X268732Y732468D01*
X266700Y733484D01*
X264668Y732468D01*
Y660468D02*
X265684Y662500D01*
X264668Y664532D01*
X266700Y663516D01*
X268732Y664532D01*
X267716Y662500D01*
X268732Y660468D01*
X266700Y661484D01*
X264668Y660468D01*
X283700Y967018D02*
X281668Y971082D01*
X285732D01*
X283700Y967018D01*
X249700D02*
X247668Y971082D01*
X251732D01*
X249700Y967018D01*
X283700Y832318D02*
X281668Y836382D01*
X285732D01*
X283700Y832318D01*
X249700D02*
X247668Y836382D01*
X251732D01*
X249700Y832318D01*
X1028700Y671468D02*
X1029716Y672484D01*
X1030732D01*
X1029716Y673500D01*
X1030732Y674516D01*
X1029716D01*
X1028700Y675532D01*
X1027684Y674516D01*
X1026668D01*
X1027684Y673500D01*
X1026668Y672484D01*
X1027684D01*
X1028700Y671468D01*
Y721468D02*
X1029716Y722484D01*
X1030732D01*
X1029716Y723500D01*
X1030732Y724516D01*
X1029716D01*
X1028700Y725532D01*
X1027684Y724516D01*
X1026668D01*
X1027684Y723500D01*
X1026668Y722484D01*
X1027684D01*
X1028700Y721468D01*
X1282700Y671468D02*
X1283716Y672484D01*
X1284732D01*
X1283716Y673500D01*
X1284732Y674516D01*
X1283716D01*
X1282700Y675532D01*
X1281684Y674516D01*
X1280668D01*
X1281684Y673500D01*
X1280668Y672484D01*
X1281684D01*
X1282700Y671468D01*
Y721468D02*
X1283716Y722484D01*
X1284732D01*
X1283716Y723500D01*
X1284732Y724516D01*
X1283716D01*
X1282700Y725532D01*
X1281684Y724516D01*
X1280668D01*
X1281684Y723500D01*
X1280668Y722484D01*
X1281684D01*
X1282700Y721468D01*
X1155700D02*
X1156716Y722484D01*
X1157732D01*
X1156716Y723500D01*
X1157732Y724516D01*
X1156716D01*
X1155700Y725532D01*
X1154684Y724516D01*
X1153668D01*
X1154684Y723500D01*
X1153668Y722484D01*
X1154684D01*
X1155700Y721468D01*
Y671468D02*
X1156716Y672484D01*
X1157732D01*
X1156716Y673500D01*
X1157732Y674516D01*
X1156716D01*
X1155700Y675532D01*
X1154684Y674516D01*
X1153668D01*
X1154684Y673500D01*
X1153668Y672484D01*
X1154684D01*
X1155700Y671468D01*
X774700D02*
X775716Y672484D01*
X776732D01*
X775716Y673500D01*
X776732Y674516D01*
X775716D01*
X774700Y675532D01*
X773684Y674516D01*
X772668D01*
X773684Y673500D01*
X772668Y672484D01*
X773684D01*
X774700Y671468D01*
Y721468D02*
X775716Y722484D01*
X776732D01*
X775716Y723500D01*
X776732Y724516D01*
X775716D01*
X774700Y725532D01*
X773684Y724516D01*
X772668D01*
X773684Y723500D01*
X772668Y722484D01*
X773684D01*
X774700Y721468D01*
X901700D02*
X902716Y722484D01*
X903732D01*
X902716Y723500D01*
X903732Y724516D01*
X902716D01*
X901700Y725532D01*
X900684Y724516D01*
X899668D01*
X900684Y723500D01*
X899668Y722484D01*
X900684D01*
X901700Y721468D01*
Y671468D02*
X902716Y672484D01*
X903732D01*
X902716Y673500D01*
X903732Y674516D01*
X902716D01*
X901700Y675532D01*
X900684Y674516D01*
X899668D01*
X900684Y673500D01*
X899668Y672484D01*
X900684D01*
X901700Y671468D01*
X520700D02*
X521716Y672484D01*
X522732D01*
X521716Y673500D01*
X522732Y674516D01*
X521716D01*
X520700Y675532D01*
X519684Y674516D01*
X518668D01*
X519684Y673500D01*
X518668Y672484D01*
X519684D01*
X520700Y671468D01*
Y721468D02*
X521716Y722484D01*
X522732D01*
X521716Y723500D01*
X522732Y724516D01*
X521716D01*
X520700Y725532D01*
X519684Y724516D01*
X518668D01*
X519684Y723500D01*
X518668Y722484D01*
X519684D01*
X520700Y721468D01*
X393700D02*
X394716Y722484D01*
X395732D01*
X394716Y723500D01*
X395732Y724516D01*
X394716D01*
X393700Y725532D01*
X392684Y724516D01*
X391668D01*
X392684Y723500D01*
X391668Y722484D01*
X392684D01*
X393700Y721468D01*
Y671468D02*
X394716Y672484D01*
X395732D01*
X394716Y673500D01*
X395732Y674516D01*
X394716D01*
X393700Y675532D01*
X392684Y674516D01*
X391668D01*
X392684Y673500D01*
X391668Y672484D01*
X392684D01*
X393700Y671468D01*
X884700Y832318D02*
X882668Y836382D01*
X886732D01*
X884700Y832318D01*
X918700D02*
X916668Y836382D01*
X920732D01*
X918700Y832318D01*
X884700Y967018D02*
X882668Y971082D01*
X886732D01*
X884700Y967018D01*
X918700D02*
X916668Y971082D01*
X920732D01*
X918700Y967018D01*
X757700Y832318D02*
X755668Y836382D01*
X759732D01*
X757700Y832318D01*
X791700D02*
X789668Y836382D01*
X793732D01*
X791700Y832318D01*
X757700Y967018D02*
X755668Y971082D01*
X759732D01*
X757700Y967018D01*
X791700D02*
X789668Y971082D01*
X793732D01*
X791700Y967018D01*
X1265700Y832318D02*
X1263668Y836382D01*
X1267732D01*
X1265700Y832318D01*
X1299700D02*
X1297668Y836382D01*
X1301732D01*
X1299700Y832318D01*
X1265700Y967018D02*
X1263668Y971082D01*
X1267732D01*
X1265700Y967018D01*
X1299700D02*
X1297668Y971082D01*
X1301732D01*
X1299700Y967018D01*
X1011700Y832318D02*
X1009668Y836382D01*
X1013732D01*
X1011700Y832318D01*
X1045700D02*
X1043668Y836382D01*
X1047732D01*
X1045700Y832318D01*
X1011700Y967018D02*
X1009668Y971082D01*
X1013732D01*
X1011700Y967018D01*
X1045700D02*
X1043668Y971082D01*
X1047732D01*
X1045700Y967018D01*
X376700Y832318D02*
X374668Y836382D01*
X378732D01*
X376700Y832318D01*
X410700D02*
X408668Y836382D01*
X412732D01*
X410700Y832318D01*
X376700Y967018D02*
X374668Y971082D01*
X378732D01*
X376700Y967018D01*
X410700D02*
X408668Y971082D01*
X412732D01*
X410700Y967018D01*
X630700Y832318D02*
X628668Y836382D01*
X632732D01*
X630700Y832318D01*
X664700D02*
X662668Y836382D01*
X666732D01*
X664700Y832318D01*
X630700Y967018D02*
X628668Y971082D01*
X632732D01*
X630700Y967018D01*
X664700D02*
X662668Y971082D01*
X666732D01*
X664700Y967018D01*
X151384Y633984D02*
Y632968D01*
X153416D01*
Y633984D01*
X154432D01*
Y636016D01*
X153416D01*
Y637032D01*
X151384D01*
Y636016D01*
X150368D01*
Y633984D01*
X151384D01*
Y989584D02*
Y988568D01*
X153416D01*
Y989584D01*
X154432D01*
Y991616D01*
X153416D01*
Y992632D01*
X151384D01*
Y991616D01*
X150368D01*
Y989584D01*
X151384D01*
X1395984D02*
Y988568D01*
X1398016D01*
Y989584D01*
X1399032D01*
Y991616D01*
X1398016D01*
Y992632D01*
X1395984D01*
Y991616D01*
X1394968D01*
Y989584D01*
X1395984D01*
Y633984D02*
Y632968D01*
X1398016D01*
Y633984D01*
X1399032D01*
Y636016D01*
X1398016D01*
Y637032D01*
X1395984D01*
Y636016D01*
X1394968D01*
Y633984D01*
X1395984D01*
X1356868Y1016508D02*
X1357884D01*
X1358900Y1017524D01*
X1359916Y1016508D01*
X1360932D01*
Y1017524D01*
X1359916Y1018540D01*
X1360932Y1019556D01*
Y1020572D01*
X1359916D01*
X1358900Y1019556D01*
X1357884Y1020572D01*
X1356868D01*
Y1019556D01*
X1357884Y1018540D01*
X1356868Y1017524D01*
Y1016508D01*
X1229868D02*
X1230884D01*
X1231900Y1017524D01*
X1232916Y1016508D01*
X1233932D01*
Y1017524D01*
X1232916Y1018540D01*
X1233932Y1019556D01*
Y1020572D01*
X1232916D01*
X1231900Y1019556D01*
X1230884Y1020572D01*
X1229868D01*
Y1019556D01*
X1230884Y1018540D01*
X1229868Y1017524D01*
Y1016508D01*
X1102868D02*
X1103884D01*
X1104900Y1017524D01*
X1105916Y1016508D01*
X1106932D01*
Y1017524D01*
X1105916Y1018540D01*
X1106932Y1019556D01*
Y1020572D01*
X1105916D01*
X1104900Y1019556D01*
X1103884Y1020572D01*
X1102868D01*
Y1019556D01*
X1103884Y1018540D01*
X1102868Y1017524D01*
Y1016508D01*
X975868D02*
X976884D01*
X977900Y1017524D01*
X978916Y1016508D01*
X979932D01*
Y1017524D01*
X978916Y1018540D01*
X979932Y1019556D01*
Y1020572D01*
X978916D01*
X977900Y1019556D01*
X976884Y1020572D01*
X975868D01*
Y1019556D01*
X976884Y1018540D01*
X975868Y1017524D01*
Y1016508D01*
X848868D02*
X849884D01*
X850900Y1017524D01*
X851916Y1016508D01*
X852932D01*
Y1017524D01*
X851916Y1018540D01*
X852932Y1019556D01*
Y1020572D01*
X851916D01*
X850900Y1019556D01*
X849884Y1020572D01*
X848868D01*
Y1019556D01*
X849884Y1018540D01*
X848868Y1017524D01*
Y1016508D01*
X721868D02*
X722884D01*
X723900Y1017524D01*
X724916Y1016508D01*
X725932D01*
Y1017524D01*
X724916Y1018540D01*
X725932Y1019556D01*
Y1020572D01*
X724916D01*
X723900Y1019556D01*
X722884Y1020572D01*
X721868D01*
Y1019556D01*
X722884Y1018540D01*
X721868Y1017524D01*
Y1016508D01*
X594868D02*
X595884D01*
X596900Y1017524D01*
X597916Y1016508D01*
X598932D01*
Y1017524D01*
X597916Y1018540D01*
X598932Y1019556D01*
Y1020572D01*
X597916D01*
X596900Y1019556D01*
X595884Y1020572D01*
X594868D01*
Y1019556D01*
X595884Y1018540D01*
X594868Y1017524D01*
Y1016508D01*
X467868D02*
X468884D01*
X469900Y1017524D01*
X470916Y1016508D01*
X471932D01*
Y1017524D01*
X470916Y1018540D01*
X471932Y1019556D01*
Y1020572D01*
X470916D01*
X469900Y1019556D01*
X468884Y1020572D01*
X467868D01*
Y1019556D01*
X468884Y1018540D01*
X467868Y1017524D01*
Y1016508D01*
X340868D02*
X341884D01*
X342900Y1017524D01*
X343916Y1016508D01*
X344932D01*
Y1017524D01*
X343916Y1018540D01*
X344932Y1019556D01*
Y1020572D01*
X343916D01*
X342900Y1019556D01*
X341884Y1020572D01*
X340868D01*
Y1019556D01*
X341884Y1018540D01*
X340868Y1017524D01*
Y1016508D01*
X196088Y996188D02*
X197104D01*
X198120Y997204D01*
X199136Y996188D01*
X200152D01*
Y997204D01*
X199136Y998220D01*
X200152Y999236D01*
Y1000252D01*
X199136D01*
X198120Y999236D01*
X197104Y1000252D01*
X196088D01*
Y999236D01*
X197104Y998220D01*
X196088Y997204D01*
Y996188D01*
X1172700Y1449618D02*
X1170668Y1453682D01*
X1174732D01*
X1172700Y1449618D01*
X1138700D02*
X1136668Y1453682D01*
X1140732D01*
X1138700Y1449618D01*
X1172700Y1314918D02*
X1170668Y1318982D01*
X1174732D01*
X1172700Y1314918D01*
X1138700D02*
X1136668Y1318982D01*
X1140732D01*
X1138700Y1314918D01*
X537700Y1449618D02*
X535668Y1453682D01*
X539732D01*
X537700Y1449618D01*
X503700D02*
X501668Y1453682D01*
X505732D01*
X503700Y1449618D01*
X537700Y1314918D02*
X535668Y1318982D01*
X539732D01*
X537700Y1314918D01*
X503700D02*
X501668Y1318982D01*
X505732D01*
X503700Y1314918D01*
X647700Y1154068D02*
X648716Y1155084D01*
X649732D01*
X648716Y1156100D01*
X649732Y1157116D01*
X648716D01*
X647700Y1158132D01*
X646684Y1157116D01*
X645668D01*
X646684Y1156100D01*
X645668Y1155084D01*
X646684D01*
X647700Y1154068D01*
Y1204068D02*
X648716Y1205084D01*
X649732D01*
X648716Y1206100D01*
X649732Y1207116D01*
X648716D01*
X647700Y1208132D01*
X646684Y1207116D01*
X645668D01*
X646684Y1206100D01*
X645668Y1205084D01*
X646684D01*
X647700Y1204068D01*
X264668Y1215068D02*
X265684Y1217100D01*
X264668Y1219132D01*
X266700Y1218116D01*
X268732Y1219132D01*
X267716Y1217100D01*
X268732Y1215068D01*
X266700Y1216084D01*
X264668Y1215068D01*
Y1143068D02*
X265684Y1145100D01*
X264668Y1147132D01*
X266700Y1146116D01*
X268732Y1147132D01*
X267716Y1145100D01*
X268732Y1143068D01*
X266700Y1144084D01*
X264668Y1143068D01*
X283700Y1449618D02*
X281668Y1453682D01*
X285732D01*
X283700Y1449618D01*
X249700D02*
X247668Y1453682D01*
X251732D01*
X249700Y1449618D01*
X283700Y1314918D02*
X281668Y1318982D01*
X285732D01*
X283700Y1314918D01*
X249700D02*
X247668Y1318982D01*
X251732D01*
X249700Y1314918D01*
X1028700Y1154068D02*
X1029716Y1155084D01*
X1030732D01*
X1029716Y1156100D01*
X1030732Y1157116D01*
X1029716D01*
X1028700Y1158132D01*
X1027684Y1157116D01*
X1026668D01*
X1027684Y1156100D01*
X1026668Y1155084D01*
X1027684D01*
X1028700Y1154068D01*
Y1204068D02*
X1029716Y1205084D01*
X1030732D01*
X1029716Y1206100D01*
X1030732Y1207116D01*
X1029716D01*
X1028700Y1208132D01*
X1027684Y1207116D01*
X1026668D01*
X1027684Y1206100D01*
X1026668Y1205084D01*
X1027684D01*
X1028700Y1204068D01*
X1282700Y1154068D02*
X1283716Y1155084D01*
X1284732D01*
X1283716Y1156100D01*
X1284732Y1157116D01*
X1283716D01*
X1282700Y1158132D01*
X1281684Y1157116D01*
X1280668D01*
X1281684Y1156100D01*
X1280668Y1155084D01*
X1281684D01*
X1282700Y1154068D01*
Y1204068D02*
X1283716Y1205084D01*
X1284732D01*
X1283716Y1206100D01*
X1284732Y1207116D01*
X1283716D01*
X1282700Y1208132D01*
X1281684Y1207116D01*
X1280668D01*
X1281684Y1206100D01*
X1280668Y1205084D01*
X1281684D01*
X1282700Y1204068D01*
X1155700D02*
X1156716Y1205084D01*
X1157732D01*
X1156716Y1206100D01*
X1157732Y1207116D01*
X1156716D01*
X1155700Y1208132D01*
X1154684Y1207116D01*
X1153668D01*
X1154684Y1206100D01*
X1153668Y1205084D01*
X1154684D01*
X1155700Y1204068D01*
Y1154068D02*
X1156716Y1155084D01*
X1157732D01*
X1156716Y1156100D01*
X1157732Y1157116D01*
X1156716D01*
X1155700Y1158132D01*
X1154684Y1157116D01*
X1153668D01*
X1154684Y1156100D01*
X1153668Y1155084D01*
X1154684D01*
X1155700Y1154068D01*
X774700D02*
X775716Y1155084D01*
X776732D01*
X775716Y1156100D01*
X776732Y1157116D01*
X775716D01*
X774700Y1158132D01*
X773684Y1157116D01*
X772668D01*
X773684Y1156100D01*
X772668Y1155084D01*
X773684D01*
X774700Y1154068D01*
Y1204068D02*
X775716Y1205084D01*
X776732D01*
X775716Y1206100D01*
X776732Y1207116D01*
X775716D01*
X774700Y1208132D01*
X773684Y1207116D01*
X772668D01*
X773684Y1206100D01*
X772668Y1205084D01*
X773684D01*
X774700Y1204068D01*
X901700D02*
X902716Y1205084D01*
X903732D01*
X902716Y1206100D01*
X903732Y1207116D01*
X902716D01*
X901700Y1208132D01*
X900684Y1207116D01*
X899668D01*
X900684Y1206100D01*
X899668Y1205084D01*
X900684D01*
X901700Y1204068D01*
Y1154068D02*
X902716Y1155084D01*
X903732D01*
X902716Y1156100D01*
X903732Y1157116D01*
X902716D01*
X901700Y1158132D01*
X900684Y1157116D01*
X899668D01*
X900684Y1156100D01*
X899668Y1155084D01*
X900684D01*
X901700Y1154068D01*
X520700D02*
X521716Y1155084D01*
X522732D01*
X521716Y1156100D01*
X522732Y1157116D01*
X521716D01*
X520700Y1158132D01*
X519684Y1157116D01*
X518668D01*
X519684Y1156100D01*
X518668Y1155084D01*
X519684D01*
X520700Y1154068D01*
Y1204068D02*
X521716Y1205084D01*
X522732D01*
X521716Y1206100D01*
X522732Y1207116D01*
X521716D01*
X520700Y1208132D01*
X519684Y1207116D01*
X518668D01*
X519684Y1206100D01*
X518668Y1205084D01*
X519684D01*
X520700Y1204068D01*
X393700D02*
X394716Y1205084D01*
X395732D01*
X394716Y1206100D01*
X395732Y1207116D01*
X394716D01*
X393700Y1208132D01*
X392684Y1207116D01*
X391668D01*
X392684Y1206100D01*
X391668Y1205084D01*
X392684D01*
X393700Y1204068D01*
Y1154068D02*
X394716Y1155084D01*
X395732D01*
X394716Y1156100D01*
X395732Y1157116D01*
X394716D01*
X393700Y1158132D01*
X392684Y1157116D01*
X391668D01*
X392684Y1156100D01*
X391668Y1155084D01*
X392684D01*
X393700Y1154068D01*
X884700Y1314918D02*
X882668Y1318982D01*
X886732D01*
X884700Y1314918D01*
X918700D02*
X916668Y1318982D01*
X920732D01*
X918700Y1314918D01*
X884700Y1449618D02*
X882668Y1453682D01*
X886732D01*
X884700Y1449618D01*
X918700D02*
X916668Y1453682D01*
X920732D01*
X918700Y1449618D01*
X757700Y1314918D02*
X755668Y1318982D01*
X759732D01*
X757700Y1314918D01*
X791700D02*
X789668Y1318982D01*
X793732D01*
X791700Y1314918D01*
X757700Y1449618D02*
X755668Y1453682D01*
X759732D01*
X757700Y1449618D01*
X791700D02*
X789668Y1453682D01*
X793732D01*
X791700Y1449618D01*
X1265700Y1314918D02*
X1263668Y1318982D01*
X1267732D01*
X1265700Y1314918D01*
X1299700D02*
X1297668Y1318982D01*
X1301732D01*
X1299700Y1314918D01*
X1265700Y1449618D02*
X1263668Y1453682D01*
X1267732D01*
X1265700Y1449618D01*
X1299700D02*
X1297668Y1453682D01*
X1301732D01*
X1299700Y1449618D01*
X1011700Y1314918D02*
X1009668Y1318982D01*
X1013732D01*
X1011700Y1314918D01*
X1045700D02*
X1043668Y1318982D01*
X1047732D01*
X1045700Y1314918D01*
X1011700Y1449618D02*
X1009668Y1453682D01*
X1013732D01*
X1011700Y1449618D01*
X1045700D02*
X1043668Y1453682D01*
X1047732D01*
X1045700Y1449618D01*
X376700Y1314918D02*
X374668Y1318982D01*
X378732D01*
X376700Y1314918D01*
X410700D02*
X408668Y1318982D01*
X412732D01*
X410700Y1314918D01*
X376700Y1449618D02*
X374668Y1453682D01*
X378732D01*
X376700Y1449618D01*
X410700D02*
X408668Y1453682D01*
X412732D01*
X410700Y1449618D01*
X630700Y1314918D02*
X628668Y1318982D01*
X632732D01*
X630700Y1314918D01*
X664700D02*
X662668Y1318982D01*
X666732D01*
X664700Y1314918D01*
X630700Y1449618D02*
X628668Y1453682D01*
X632732D01*
X630700Y1449618D01*
X664700D02*
X662668Y1453682D01*
X666732D01*
X664700Y1449618D01*
X151384Y1116584D02*
Y1115568D01*
X153416D01*
Y1116584D01*
X154432D01*
Y1118616D01*
X153416D01*
Y1119632D01*
X151384D01*
Y1118616D01*
X150368D01*
Y1116584D01*
X151384D01*
Y1472184D02*
Y1471168D01*
X153416D01*
Y1472184D01*
X154432D01*
Y1474216D01*
X153416D01*
Y1475232D01*
X151384D01*
Y1474216D01*
X150368D01*
Y1472184D01*
X151384D01*
X1395984D02*
Y1471168D01*
X1398016D01*
Y1472184D01*
X1399032D01*
Y1474216D01*
X1398016D01*
Y1475232D01*
X1395984D01*
Y1474216D01*
X1394968D01*
Y1472184D01*
X1395984D01*
Y1116584D02*
Y1115568D01*
X1398016D01*
Y1116584D01*
X1399032D01*
Y1118616D01*
X1398016D01*
Y1119632D01*
X1395984D01*
Y1118616D01*
X1394968D01*
Y1116584D01*
X1395984D01*
X1356868Y1499108D02*
X1357884D01*
X1358900Y1500124D01*
X1359916Y1499108D01*
X1360932D01*
Y1500124D01*
X1359916Y1501140D01*
X1360932Y1502156D01*
Y1503172D01*
X1359916D01*
X1358900Y1502156D01*
X1357884Y1503172D01*
X1356868D01*
Y1502156D01*
X1357884Y1501140D01*
X1356868Y1500124D01*
Y1499108D01*
X1229868D02*
X1230884D01*
X1231900Y1500124D01*
X1232916Y1499108D01*
X1233932D01*
Y1500124D01*
X1232916Y1501140D01*
X1233932Y1502156D01*
Y1503172D01*
X1232916D01*
X1231900Y1502156D01*
X1230884Y1503172D01*
X1229868D01*
Y1502156D01*
X1230884Y1501140D01*
X1229868Y1500124D01*
Y1499108D01*
X1102868D02*
X1103884D01*
X1104900Y1500124D01*
X1105916Y1499108D01*
X1106932D01*
Y1500124D01*
X1105916Y1501140D01*
X1106932Y1502156D01*
Y1503172D01*
X1105916D01*
X1104900Y1502156D01*
X1103884Y1503172D01*
X1102868D01*
Y1502156D01*
X1103884Y1501140D01*
X1102868Y1500124D01*
Y1499108D01*
X975868D02*
X976884D01*
X977900Y1500124D01*
X978916Y1499108D01*
X979932D01*
Y1500124D01*
X978916Y1501140D01*
X979932Y1502156D01*
Y1503172D01*
X978916D01*
X977900Y1502156D01*
X976884Y1503172D01*
X975868D01*
Y1502156D01*
X976884Y1501140D01*
X975868Y1500124D01*
Y1499108D01*
X848868D02*
X849884D01*
X850900Y1500124D01*
X851916Y1499108D01*
X852932D01*
Y1500124D01*
X851916Y1501140D01*
X852932Y1502156D01*
Y1503172D01*
X851916D01*
X850900Y1502156D01*
X849884Y1503172D01*
X848868D01*
Y1502156D01*
X849884Y1501140D01*
X848868Y1500124D01*
Y1499108D01*
X721868D02*
X722884D01*
X723900Y1500124D01*
X724916Y1499108D01*
X725932D01*
Y1500124D01*
X724916Y1501140D01*
X725932Y1502156D01*
Y1503172D01*
X724916D01*
X723900Y1502156D01*
X722884Y1503172D01*
X721868D01*
Y1502156D01*
X722884Y1501140D01*
X721868Y1500124D01*
Y1499108D01*
X594868D02*
X595884D01*
X596900Y1500124D01*
X597916Y1499108D01*
X598932D01*
Y1500124D01*
X597916Y1501140D01*
X598932Y1502156D01*
Y1503172D01*
X597916D01*
X596900Y1502156D01*
X595884Y1503172D01*
X594868D01*
Y1502156D01*
X595884Y1501140D01*
X594868Y1500124D01*
Y1499108D01*
X467868D02*
X468884D01*
X469900Y1500124D01*
X470916Y1499108D01*
X471932D01*
Y1500124D01*
X470916Y1501140D01*
X471932Y1502156D01*
Y1503172D01*
X470916D01*
X469900Y1502156D01*
X468884Y1503172D01*
X467868D01*
Y1502156D01*
X468884Y1501140D01*
X467868Y1500124D01*
Y1499108D01*
X340868D02*
X341884D01*
X342900Y1500124D01*
X343916Y1499108D01*
X344932D01*
Y1500124D01*
X343916Y1501140D01*
X344932Y1502156D01*
Y1503172D01*
X343916D01*
X342900Y1502156D01*
X341884Y1503172D01*
X340868D01*
Y1502156D01*
X341884Y1501140D01*
X340868Y1500124D01*
Y1499108D01*
X196088Y1478788D02*
X197104D01*
X198120Y1479804D01*
X199136Y1478788D01*
X200152D01*
Y1479804D01*
X199136Y1480820D01*
X200152Y1481836D01*
Y1482852D01*
X199136D01*
X198120Y1481836D01*
X197104Y1482852D01*
X196088D01*
Y1481836D01*
X197104Y1480820D01*
X196088Y1479804D01*
Y1478788D01*
X1172700Y1932218D02*
X1170668Y1936282D01*
X1174732D01*
X1172700Y1932218D01*
X1138700D02*
X1136668Y1936282D01*
X1140732D01*
X1138700Y1932218D01*
X1172700Y1797518D02*
X1170668Y1801582D01*
X1174732D01*
X1172700Y1797518D01*
X1138700D02*
X1136668Y1801582D01*
X1140732D01*
X1138700Y1797518D01*
X537700Y1932218D02*
X535668Y1936282D01*
X539732D01*
X537700Y1932218D01*
X503700D02*
X501668Y1936282D01*
X505732D01*
X503700Y1932218D01*
X537700Y1797518D02*
X535668Y1801582D01*
X539732D01*
X537700Y1797518D01*
X503700D02*
X501668Y1801582D01*
X505732D01*
X503700Y1797518D01*
X647700Y1636668D02*
X648716Y1637684D01*
X649732D01*
X648716Y1638700D01*
X649732Y1639716D01*
X648716D01*
X647700Y1640732D01*
X646684Y1639716D01*
X645668D01*
X646684Y1638700D01*
X645668Y1637684D01*
X646684D01*
X647700Y1636668D01*
Y1686668D02*
X648716Y1687684D01*
X649732D01*
X648716Y1688700D01*
X649732Y1689716D01*
X648716D01*
X647700Y1690732D01*
X646684Y1689716D01*
X645668D01*
X646684Y1688700D01*
X645668Y1687684D01*
X646684D01*
X647700Y1686668D01*
X264668Y1697668D02*
X265684Y1699700D01*
X264668Y1701732D01*
X266700Y1700716D01*
X268732Y1701732D01*
X267716Y1699700D01*
X268732Y1697668D01*
X266700Y1698684D01*
X264668Y1697668D01*
Y1625668D02*
X265684Y1627700D01*
X264668Y1629732D01*
X266700Y1628716D01*
X268732Y1629732D01*
X267716Y1627700D01*
X268732Y1625668D01*
X266700Y1626684D01*
X264668Y1625668D01*
X283700Y1932218D02*
X281668Y1936282D01*
X285732D01*
X283700Y1932218D01*
X249700D02*
X247668Y1936282D01*
X251732D01*
X249700Y1932218D01*
X283700Y1797518D02*
X281668Y1801582D01*
X285732D01*
X283700Y1797518D01*
X249700D02*
X247668Y1801582D01*
X251732D01*
X249700Y1797518D01*
X1028700Y1636668D02*
X1029716Y1637684D01*
X1030732D01*
X1029716Y1638700D01*
X1030732Y1639716D01*
X1029716D01*
X1028700Y1640732D01*
X1027684Y1639716D01*
X1026668D01*
X1027684Y1638700D01*
X1026668Y1637684D01*
X1027684D01*
X1028700Y1636668D01*
Y1686668D02*
X1029716Y1687684D01*
X1030732D01*
X1029716Y1688700D01*
X1030732Y1689716D01*
X1029716D01*
X1028700Y1690732D01*
X1027684Y1689716D01*
X1026668D01*
X1027684Y1688700D01*
X1026668Y1687684D01*
X1027684D01*
X1028700Y1686668D01*
X1282700Y1636668D02*
X1283716Y1637684D01*
X1284732D01*
X1283716Y1638700D01*
X1284732Y1639716D01*
X1283716D01*
X1282700Y1640732D01*
X1281684Y1639716D01*
X1280668D01*
X1281684Y1638700D01*
X1280668Y1637684D01*
X1281684D01*
X1282700Y1636668D01*
Y1686668D02*
X1283716Y1687684D01*
X1284732D01*
X1283716Y1688700D01*
X1284732Y1689716D01*
X1283716D01*
X1282700Y1690732D01*
X1281684Y1689716D01*
X1280668D01*
X1281684Y1688700D01*
X1280668Y1687684D01*
X1281684D01*
X1282700Y1686668D01*
X1155700D02*
X1156716Y1687684D01*
X1157732D01*
X1156716Y1688700D01*
X1157732Y1689716D01*
X1156716D01*
X1155700Y1690732D01*
X1154684Y1689716D01*
X1153668D01*
X1154684Y1688700D01*
X1153668Y1687684D01*
X1154684D01*
X1155700Y1686668D01*
Y1636668D02*
X1156716Y1637684D01*
X1157732D01*
X1156716Y1638700D01*
X1157732Y1639716D01*
X1156716D01*
X1155700Y1640732D01*
X1154684Y1639716D01*
X1153668D01*
X1154684Y1638700D01*
X1153668Y1637684D01*
X1154684D01*
X1155700Y1636668D01*
X774700D02*
X775716Y1637684D01*
X776732D01*
X775716Y1638700D01*
X776732Y1639716D01*
X775716D01*
X774700Y1640732D01*
X773684Y1639716D01*
X772668D01*
X773684Y1638700D01*
X772668Y1637684D01*
X773684D01*
X774700Y1636668D01*
Y1686668D02*
X775716Y1687684D01*
X776732D01*
X775716Y1688700D01*
X776732Y1689716D01*
X775716D01*
X774700Y1690732D01*
X773684Y1689716D01*
X772668D01*
X773684Y1688700D01*
X772668Y1687684D01*
X773684D01*
X774700Y1686668D01*
X901700D02*
X902716Y1687684D01*
X903732D01*
X902716Y1688700D01*
X903732Y1689716D01*
X902716D01*
X901700Y1690732D01*
X900684Y1689716D01*
X899668D01*
X900684Y1688700D01*
X899668Y1687684D01*
X900684D01*
X901700Y1686668D01*
Y1636668D02*
X902716Y1637684D01*
X903732D01*
X902716Y1638700D01*
X903732Y1639716D01*
X902716D01*
X901700Y1640732D01*
X900684Y1639716D01*
X899668D01*
X900684Y1638700D01*
X899668Y1637684D01*
X900684D01*
X901700Y1636668D01*
X520700D02*
X521716Y1637684D01*
X522732D01*
X521716Y1638700D01*
X522732Y1639716D01*
X521716D01*
X520700Y1640732D01*
X519684Y1639716D01*
X518668D01*
X519684Y1638700D01*
X518668Y1637684D01*
X519684D01*
X520700Y1636668D01*
Y1686668D02*
X521716Y1687684D01*
X522732D01*
X521716Y1688700D01*
X522732Y1689716D01*
X521716D01*
X520700Y1690732D01*
X519684Y1689716D01*
X518668D01*
X519684Y1688700D01*
X518668Y1687684D01*
X519684D01*
X520700Y1686668D01*
X393700D02*
X394716Y1687684D01*
X395732D01*
X394716Y1688700D01*
X395732Y1689716D01*
X394716D01*
X393700Y1690732D01*
X392684Y1689716D01*
X391668D01*
X392684Y1688700D01*
X391668Y1687684D01*
X392684D01*
X393700Y1686668D01*
Y1636668D02*
X394716Y1637684D01*
X395732D01*
X394716Y1638700D01*
X395732Y1639716D01*
X394716D01*
X393700Y1640732D01*
X392684Y1639716D01*
X391668D01*
X392684Y1638700D01*
X391668Y1637684D01*
X392684D01*
X393700Y1636668D01*
X884700Y1797518D02*
X882668Y1801582D01*
X886732D01*
X884700Y1797518D01*
X918700D02*
X916668Y1801582D01*
X920732D01*
X918700Y1797518D01*
X884700Y1932218D02*
X882668Y1936282D01*
X886732D01*
X884700Y1932218D01*
X918700D02*
X916668Y1936282D01*
X920732D01*
X918700Y1932218D01*
X757700Y1797518D02*
X755668Y1801582D01*
X759732D01*
X757700Y1797518D01*
X791700D02*
X789668Y1801582D01*
X793732D01*
X791700Y1797518D01*
X757700Y1932218D02*
X755668Y1936282D01*
X759732D01*
X757700Y1932218D01*
X791700D02*
X789668Y1936282D01*
X793732D01*
X791700Y1932218D01*
X1265700Y1797518D02*
X1263668Y1801582D01*
X1267732D01*
X1265700Y1797518D01*
X1299700D02*
X1297668Y1801582D01*
X1301732D01*
X1299700Y1797518D01*
X1265700Y1932218D02*
X1263668Y1936282D01*
X1267732D01*
X1265700Y1932218D01*
X1299700D02*
X1297668Y1936282D01*
X1301732D01*
X1299700Y1932218D01*
X1011700Y1797518D02*
X1009668Y1801582D01*
X1013732D01*
X1011700Y1797518D01*
X1045700D02*
X1043668Y1801582D01*
X1047732D01*
X1045700Y1797518D01*
X1011700Y1932218D02*
X1009668Y1936282D01*
X1013732D01*
X1011700Y1932218D01*
X1045700D02*
X1043668Y1936282D01*
X1047732D01*
X1045700Y1932218D01*
X376700Y1797518D02*
X374668Y1801582D01*
X378732D01*
X376700Y1797518D01*
X410700D02*
X408668Y1801582D01*
X412732D01*
X410700Y1797518D01*
X376700Y1932218D02*
X374668Y1936282D01*
X378732D01*
X376700Y1932218D01*
X410700D02*
X408668Y1936282D01*
X412732D01*
X410700Y1932218D01*
X630700Y1797518D02*
X628668Y1801582D01*
X632732D01*
X630700Y1797518D01*
X664700D02*
X662668Y1801582D01*
X666732D01*
X664700Y1797518D01*
X630700Y1932218D02*
X628668Y1936282D01*
X632732D01*
X630700Y1932218D01*
X664700D02*
X662668Y1936282D01*
X666732D01*
X664700Y1932218D01*
X151384Y1599184D02*
Y1598168D01*
X153416D01*
Y1599184D01*
X154432D01*
Y1601216D01*
X153416D01*
Y1602232D01*
X151384D01*
Y1601216D01*
X150368D01*
Y1599184D01*
X151384D01*
Y1954784D02*
Y1953768D01*
X153416D01*
Y1954784D01*
X154432D01*
Y1956816D01*
X153416D01*
Y1957832D01*
X151384D01*
Y1956816D01*
X150368D01*
Y1954784D01*
X151384D01*
X1395984D02*
Y1953768D01*
X1398016D01*
Y1954784D01*
X1399032D01*
Y1956816D01*
X1398016D01*
Y1957832D01*
X1395984D01*
Y1956816D01*
X1394968D01*
Y1954784D01*
X1395984D01*
Y1599184D02*
Y1598168D01*
X1398016D01*
Y1599184D01*
X1399032D01*
Y1601216D01*
X1398016D01*
Y1602232D01*
X1395984D01*
Y1601216D01*
X1394968D01*
Y1599184D01*
X1395984D01*
X1356868Y1981708D02*
X1357884D01*
X1358900Y1982724D01*
X1359916Y1981708D01*
X1360932D01*
Y1982724D01*
X1359916Y1983740D01*
X1360932Y1984756D01*
Y1985772D01*
X1359916D01*
X1358900Y1984756D01*
X1357884Y1985772D01*
X1356868D01*
Y1984756D01*
X1357884Y1983740D01*
X1356868Y1982724D01*
Y1981708D01*
X1229868D02*
X1230884D01*
X1231900Y1982724D01*
X1232916Y1981708D01*
X1233932D01*
Y1982724D01*
X1232916Y1983740D01*
X1233932Y1984756D01*
Y1985772D01*
X1232916D01*
X1231900Y1984756D01*
X1230884Y1985772D01*
X1229868D01*
Y1984756D01*
X1230884Y1983740D01*
X1229868Y1982724D01*
Y1981708D01*
X1102868D02*
X1103884D01*
X1104900Y1982724D01*
X1105916Y1981708D01*
X1106932D01*
Y1982724D01*
X1105916Y1983740D01*
X1106932Y1984756D01*
Y1985772D01*
X1105916D01*
X1104900Y1984756D01*
X1103884Y1985772D01*
X1102868D01*
Y1984756D01*
X1103884Y1983740D01*
X1102868Y1982724D01*
Y1981708D01*
X975868D02*
X976884D01*
X977900Y1982724D01*
X978916Y1981708D01*
X979932D01*
Y1982724D01*
X978916Y1983740D01*
X979932Y1984756D01*
Y1985772D01*
X978916D01*
X977900Y1984756D01*
X976884Y1985772D01*
X975868D01*
Y1984756D01*
X976884Y1983740D01*
X975868Y1982724D01*
Y1981708D01*
X848868D02*
X849884D01*
X850900Y1982724D01*
X851916Y1981708D01*
X852932D01*
Y1982724D01*
X851916Y1983740D01*
X852932Y1984756D01*
Y1985772D01*
X851916D01*
X850900Y1984756D01*
X849884Y1985772D01*
X848868D01*
Y1984756D01*
X849884Y1983740D01*
X848868Y1982724D01*
Y1981708D01*
X721868D02*
X722884D01*
X723900Y1982724D01*
X724916Y1981708D01*
X725932D01*
Y1982724D01*
X724916Y1983740D01*
X725932Y1984756D01*
Y1985772D01*
X724916D01*
X723900Y1984756D01*
X722884Y1985772D01*
X721868D01*
Y1984756D01*
X722884Y1983740D01*
X721868Y1982724D01*
Y1981708D01*
X594868D02*
X595884D01*
X596900Y1982724D01*
X597916Y1981708D01*
X598932D01*
Y1982724D01*
X597916Y1983740D01*
X598932Y1984756D01*
Y1985772D01*
X597916D01*
X596900Y1984756D01*
X595884Y1985772D01*
X594868D01*
Y1984756D01*
X595884Y1983740D01*
X594868Y1982724D01*
Y1981708D01*
X467868D02*
X468884D01*
X469900Y1982724D01*
X470916Y1981708D01*
X471932D01*
Y1982724D01*
X470916Y1983740D01*
X471932Y1984756D01*
Y1985772D01*
X470916D01*
X469900Y1984756D01*
X468884Y1985772D01*
X467868D01*
Y1984756D01*
X468884Y1983740D01*
X467868Y1982724D01*
Y1981708D01*
X340868D02*
X341884D01*
X342900Y1982724D01*
X343916Y1981708D01*
X344932D01*
Y1982724D01*
X343916Y1983740D01*
X344932Y1984756D01*
Y1985772D01*
X343916D01*
X342900Y1984756D01*
X341884Y1985772D01*
X340868D01*
Y1984756D01*
X341884Y1983740D01*
X340868Y1982724D01*
Y1981708D01*
X196088Y1961388D02*
X197104D01*
X198120Y1962404D01*
X199136Y1961388D01*
X200152D01*
Y1962404D01*
X199136Y1963420D01*
X200152Y1964436D01*
Y1965452D01*
X199136D01*
X198120Y1964436D01*
X197104Y1965452D01*
X196088D01*
Y1964436D01*
X197104Y1963420D01*
X196088Y1962404D01*
Y1961388D01*
D49*
X2465832Y2070100D02*
G03*
X2465832Y2070100I-2032J0D01*
G01*
Y38100D02*
G03*
X2465832Y38100I-2032J0D01*
G01*
X40132D02*
G03*
X40132Y38100I-2032J0D01*
G01*
Y2070100D02*
G03*
X40132Y2070100I-2032J0D01*
G01*
M02*
