M48
;Layer_Color=9474304
;FILE_FORMAT=4:4
METRIC,LZ
;TYPE=PLATED
T1F00S00C0.7112
T2F00S00C1.6000
T3F00S00C2.5400
T4F00S00C4.0000
T5F00S00C4.4450
%
T01
X010033Y0043434
X011303
X012573
X008763
X007493
X006223
X004953
X003683
X002413
X0009652Y0041402
T02
X010371Y0025015
X010711
X011641
X011981
Y0038485
X011641
X010711
X010371
X009441
X009101
X008171
X007831
X006901
X006561
Y0025015
X006901
X007831
X008171
X009101
X009441
X005631
X005291
X004361
X004021
X003091
X002751
Y0038485
X003091
X004021
X004361
X005291
X005631
X001821
X001481
Y0025015
X001821
T03
X002921Y000893
Y001393
X004191
Y000893
X005461
Y001393
X006731
Y000893
X008001
Y001393
X009271
Y000893
X010541
Y001393
X011811
Y000893
T04
X000508Y000508
X012954
Y004064
X000508
T05
X001651Y000783
Y001503
M30
