G04*
G04 #@! TF.GenerationSoftware,Altium Limited,Altium Designer,21.8.1 (53)*
G04*
G04 Layer_Color=8388736*
%FSLAX44Y44*%
%MOMM*%
G71*
G04*
G04 #@! TF.SameCoordinates,F20226F6-1504-4F19-8167-BFA24F29C99C*
G04*
G04*
G04 #@! TF.FilePolarity,Negative*
G04*
G01*
G75*
%ADD16C,0.2032*%
%ADD19R,2.7032X1.3532*%
%ADD20R,1.0032X1.0032*%
%ADD21C,2.6032*%
%ADD22R,3.3782X3.3782*%
%ADD23C,3.3782*%
%ADD24C,5.6642*%
%ADD25R,5.6642X5.6642*%
%ADD26C,6.2032*%
%ADD27C,1.4732*%
G36*
X65024Y360172D02*
X62992D01*
X60960D01*
X58928D01*
Y362204D01*
X56896D01*
X54864D01*
X52832D01*
X50800D01*
X48768D01*
X46736D01*
X44704D01*
X42672D01*
Y358140D01*
X40640D01*
Y364236D01*
X42672D01*
X44704D01*
X46736D01*
X48768D01*
X50800D01*
X52832D01*
X54864D01*
X56896D01*
X58928D01*
X60960D01*
X62992D01*
Y362204D01*
X65024D01*
X67056D01*
Y360172D01*
X65024D01*
D02*
G37*
G36*
X83312Y352044D02*
Y350012D01*
X81280D01*
Y352044D01*
X79248D01*
X77216D01*
X75184D01*
X73152D01*
X71120D01*
X69088D01*
X67056D01*
X65024D01*
X62992D01*
X60960D01*
X58928D01*
X56896D01*
X54864D01*
X52832D01*
Y343916D01*
X54864D01*
X56896D01*
X58928D01*
X60960D01*
X62992D01*
X65024D01*
X67056D01*
X69088D01*
Y345948D01*
X71120D01*
X73152D01*
X75184D01*
Y339852D01*
X73152D01*
X71120D01*
X69088D01*
Y341884D01*
X67056D01*
X65024D01*
X62992D01*
X60960D01*
X58928D01*
X56896D01*
X54864D01*
X52832D01*
X50800D01*
Y352044D01*
X48768D01*
X46736D01*
X44704D01*
X42672D01*
X40640D01*
X38608D01*
X36576D01*
X34544D01*
X32512D01*
Y350012D01*
X30480D01*
X28448D01*
X26416D01*
Y354076D01*
X28448D01*
X30480D01*
X32512D01*
X34544D01*
X36576D01*
X38608D01*
X40640D01*
X42672D01*
X44704D01*
X46736D01*
X48768D01*
X50800D01*
X52832D01*
X54864D01*
X56896D01*
X58928D01*
X60960D01*
X62992D01*
X65024D01*
X67056D01*
X69088D01*
X71120D01*
X73152D01*
X75184D01*
X77216D01*
X79248D01*
X81280D01*
Y356108D01*
X83312D01*
Y354076D01*
X85344D01*
Y352044D01*
X83312D01*
D02*
G37*
D16*
X69775Y328168D02*
X59617Y321396D01*
X69775D02*
X59617Y328168D01*
X69775Y315737D02*
X59617D01*
X69775Y319123D02*
Y312351D01*
X68323Y305337D02*
X69291Y305821D01*
X69775Y307272D01*
Y308239D01*
X69291Y309690D01*
X67840Y310658D01*
X65421Y311141D01*
X63003D01*
X61068Y310658D01*
X60100Y309690D01*
X59617Y308239D01*
Y307756D01*
X60100Y306304D01*
X61068Y305337D01*
X62519Y304853D01*
X63003D01*
X64454Y305337D01*
X65421Y306304D01*
X65905Y307756D01*
Y308239D01*
X65421Y309690D01*
X64454Y310658D01*
X63003Y311141D01*
X69775Y299726D02*
X69291Y301177D01*
X67840Y302145D01*
X65421Y302628D01*
X63970D01*
X61552Y302145D01*
X60100Y301177D01*
X59617Y299726D01*
Y298759D01*
X60100Y297308D01*
X61552Y296340D01*
X63970Y295856D01*
X65421D01*
X67840Y296340D01*
X69291Y297308D01*
X69775Y298759D01*
Y299726D01*
Y293583D02*
X59617D01*
X69775D02*
X59617Y289713D01*
X69775Y285844D02*
X59617Y289713D01*
X69775Y285844D02*
X59617D01*
X63970Y282941D02*
Y274235D01*
X69775Y271236D02*
X59617Y264464D01*
X69775D02*
X59617Y271236D01*
X69775Y258805D02*
X59617D01*
X69775Y262190D02*
Y255419D01*
Y253242D02*
Y247921D01*
X65905Y250823D01*
Y249372D01*
X65421Y248405D01*
X64938Y247921D01*
X63486Y247437D01*
X62519D01*
X61068Y247921D01*
X60100Y248889D01*
X59617Y250340D01*
Y251791D01*
X60100Y253242D01*
X60584Y253726D01*
X61552Y254209D01*
X69775Y242262D02*
X69291Y243713D01*
X67840Y244680D01*
X65421Y245164D01*
X63970D01*
X61552Y244680D01*
X60100Y243713D01*
X59617Y242262D01*
Y241294D01*
X60100Y239843D01*
X61552Y238876D01*
X63970Y238392D01*
X65421D01*
X67840Y238876D01*
X69291Y239843D01*
X69775Y241294D01*
Y242262D01*
Y236119D02*
X59617D01*
X69775D02*
Y229831D01*
X64938Y236119D02*
Y232249D01*
X69775Y220689D02*
X59617D01*
X69775D02*
Y214400D01*
X64938Y220689D02*
Y216819D01*
X66389Y213239D02*
X61552D01*
X60100Y212756D01*
X59617Y211788D01*
Y210337D01*
X60100Y209370D01*
X61552Y207919D01*
X66389D02*
X59617D01*
X64938Y199938D02*
X65905Y200421D01*
X66389Y201872D01*
Y203323D01*
X65905Y204775D01*
X64938Y205258D01*
X63970Y204775D01*
X63486Y203807D01*
X63003Y201389D01*
X62519Y200421D01*
X61552Y199938D01*
X61068D01*
X60100Y200421D01*
X59617Y201872D01*
Y203323D01*
X60100Y204775D01*
X61068Y205258D01*
X63486Y197809D02*
Y192005D01*
X64454D01*
X65421Y192488D01*
X65905Y192972D01*
X66389Y193940D01*
Y195391D01*
X65905Y196358D01*
X64938Y197325D01*
X63486Y197809D01*
X62519D01*
X61068Y197325D01*
X60100Y196358D01*
X59617Y195391D01*
Y193940D01*
X60100Y192972D01*
X61068Y192005D01*
X69775Y181847D02*
X59617D01*
X69775D02*
Y177494D01*
X69291Y176042D01*
X68807Y175559D01*
X67840Y175075D01*
X66872D01*
X65905Y175559D01*
X65421Y176042D01*
X64938Y177494D01*
Y181847D02*
Y177494D01*
X64454Y176042D01*
X63970Y175559D01*
X63003Y175075D01*
X61552D01*
X60584Y175559D01*
X60100Y176042D01*
X59617Y177494D01*
Y181847D01*
X66389Y170383D02*
X65905Y171351D01*
X64938Y172318D01*
X63486Y172802D01*
X62519D01*
X61068Y172318D01*
X60100Y171351D01*
X59617Y170383D01*
Y168932D01*
X60100Y167965D01*
X61068Y166997D01*
X62519Y166514D01*
X63486D01*
X64938Y166997D01*
X65905Y167965D01*
X66389Y168932D01*
Y170383D01*
Y158484D02*
X59617D01*
X64938D02*
X65905Y159451D01*
X66389Y160419D01*
Y161870D01*
X65905Y162837D01*
X64938Y163805D01*
X63486Y164289D01*
X62519D01*
X61068Y163805D01*
X60100Y162837D01*
X59617Y161870D01*
Y160419D01*
X60100Y159451D01*
X61068Y158484D01*
X66389Y155775D02*
X59617D01*
X63486D02*
X64938Y155292D01*
X65905Y154324D01*
X66389Y153357D01*
Y151906D01*
X69775Y145182D02*
X59617D01*
X64938D02*
X65905Y146150D01*
X66389Y147117D01*
Y148568D01*
X65905Y149535D01*
X64938Y150503D01*
X63486Y150987D01*
X62519D01*
X61068Y150503D01*
X60100Y149535D01*
X59617Y148568D01*
Y147117D01*
X60100Y146150D01*
X61068Y145182D01*
X66389Y134492D02*
X59617Y131590D01*
X66389Y128688D02*
X59617Y131590D01*
X67840Y127043D02*
X68323Y126076D01*
X69775Y124625D01*
X59617D01*
X60584Y119110D02*
X60100Y119594D01*
X59617Y119110D01*
X60100Y118627D01*
X60584Y119110D01*
X69775Y113499D02*
X69291Y114951D01*
X67840Y115918D01*
X65421Y116402D01*
X63970D01*
X61552Y115918D01*
X60100Y114951D01*
X59617Y113499D01*
Y112532D01*
X60100Y111081D01*
X61552Y110113D01*
X63970Y109630D01*
X65421D01*
X67840Y110113D01*
X69291Y111081D01*
X69775Y112532D01*
Y113499D01*
X52225Y328168D02*
X44969D01*
X43518Y327684D01*
X42551Y326717D01*
X42067Y325266D01*
Y324298D01*
X42551Y322847D01*
X43518Y321880D01*
X44969Y321396D01*
X52225D01*
X49806Y311335D02*
X50774Y311819D01*
X51741Y312786D01*
X52225Y313754D01*
Y315688D01*
X51741Y316656D01*
X50774Y317623D01*
X49806Y318107D01*
X48355Y318591D01*
X45936D01*
X44485Y318107D01*
X43518Y317623D01*
X42551Y316656D01*
X42067Y315688D01*
Y313754D01*
X42551Y312786D01*
X43518Y311819D01*
X44485Y311335D01*
X50774Y301709D02*
X51741Y302677D01*
X52225Y304128D01*
Y306063D01*
X51741Y307514D01*
X50774Y308481D01*
X49806D01*
X48839Y307997D01*
X48355Y307514D01*
X47871Y306546D01*
X46904Y303644D01*
X46420Y302677D01*
X45936Y302193D01*
X44969Y301709D01*
X43518D01*
X42551Y302677D01*
X42067Y304128D01*
Y306063D01*
X42551Y307514D01*
X43518Y308481D01*
X52225Y299436D02*
X42067D01*
X52225D02*
Y296050D01*
X51741Y294599D01*
X50774Y293631D01*
X49806Y293148D01*
X48355Y292664D01*
X45936D01*
X44485Y293148D01*
X43518Y293631D01*
X42551Y294599D01*
X42067Y296050D01*
Y299436D01*
X52225Y279023D02*
X42067D01*
X52225Y282409D02*
Y275637D01*
X48839Y274428D02*
X42067D01*
X45936D02*
X47388Y273945D01*
X48355Y272977D01*
X48839Y272010D01*
Y270559D01*
X52225Y268672D02*
X51741Y268188D01*
X52225Y267705D01*
X52708Y268188D01*
X52225Y268672D01*
X48839Y268188D02*
X42067D01*
X52225Y264464D02*
X44002D01*
X42551Y263980D01*
X42067Y263013D01*
Y262045D01*
X48839Y265915D02*
Y262529D01*
Y258176D02*
X48355Y259143D01*
X47388Y260111D01*
X45936Y260594D01*
X44969D01*
X43518Y260111D01*
X42551Y259143D01*
X42067Y258176D01*
Y256725D01*
X42551Y255757D01*
X43518Y254790D01*
X44969Y254306D01*
X45936D01*
X47388Y254790D01*
X48355Y255757D01*
X48839Y256725D01*
Y258176D01*
Y252081D02*
X42067D01*
X46904D02*
X48355Y250630D01*
X48839Y249662D01*
Y248211D01*
X48355Y247244D01*
X46904Y246760D01*
X42067D01*
Y236361D02*
X52225Y240230D01*
X42067Y244100D01*
X45453Y242649D02*
Y237812D01*
X52225Y233990D02*
X42067D01*
X42551Y230895D02*
X42067Y231378D01*
X42551Y231862D01*
X43034Y231378D01*
X42551Y230895D01*
X41583D01*
X40616Y231378D01*
X40132Y231862D01*
X52225Y214400D02*
Y220689D01*
X42067D01*
Y214400D01*
X47388Y220689D02*
Y216819D01*
X49806Y205452D02*
X50774Y205936D01*
X51741Y206903D01*
X52225Y207870D01*
Y209805D01*
X51741Y210773D01*
X50774Y211740D01*
X49806Y212224D01*
X48355Y212707D01*
X45936D01*
X44485Y212224D01*
X43518Y211740D01*
X42551Y210773D01*
X42067Y209805D01*
Y207870D01*
X42551Y206903D01*
X43518Y205936D01*
X44485Y205452D01*
X52225Y196310D02*
Y202598D01*
X42067D01*
Y196310D01*
X47388Y202598D02*
Y198728D01*
X50290Y186636D02*
X50774Y185668D01*
X52225Y184217D01*
X42067D01*
X48839Y172899D02*
X47388Y173382D01*
X46420Y174350D01*
X45936Y175801D01*
Y176284D01*
X46420Y177736D01*
X47388Y178703D01*
X48839Y179187D01*
X49322D01*
X50774Y178703D01*
X51741Y177736D01*
X52225Y176284D01*
Y175801D01*
X51741Y174350D01*
X50774Y173382D01*
X48839Y172899D01*
X46420D01*
X44002Y173382D01*
X42551Y174350D01*
X42067Y175801D01*
Y176768D01*
X42551Y178219D01*
X43518Y178703D01*
X50290Y170141D02*
X50774Y169174D01*
X52225Y167723D01*
X42067D01*
X52225Y154711D02*
X42067D01*
X52225D02*
Y148423D01*
X47388Y154711D02*
Y150842D01*
X48839Y141458D02*
X42067D01*
X47388D02*
X48355Y142425D01*
X48839Y143392D01*
Y144844D01*
X48355Y145811D01*
X47388Y146778D01*
X45936Y147262D01*
X44969D01*
X43518Y146778D01*
X42551Y145811D01*
X42067Y144844D01*
Y143392D01*
X42551Y142425D01*
X43518Y141458D01*
X52225Y138749D02*
X42067D01*
X52225Y136621D02*
X42067D01*
X49806Y126027D02*
X50290D01*
X51257Y125544D01*
X51741Y125060D01*
X52225Y124093D01*
Y122158D01*
X51741Y121190D01*
X51257Y120707D01*
X50290Y120223D01*
X49322D01*
X48355Y120707D01*
X46904Y121674D01*
X42067Y126511D01*
Y119739D01*
X52225Y114564D02*
X51741Y116015D01*
X50290Y116982D01*
X47871Y117466D01*
X46420D01*
X44002Y116982D01*
X42551Y116015D01*
X42067Y114564D01*
Y113596D01*
X42551Y112145D01*
X44002Y111178D01*
X46420Y110694D01*
X47871D01*
X50290Y111178D01*
X51741Y112145D01*
X52225Y113596D01*
Y114564D01*
X49806Y107937D02*
X50290D01*
X51257Y107453D01*
X51741Y106969D01*
X52225Y106002D01*
Y104067D01*
X51741Y103100D01*
X51257Y102616D01*
X50290Y102132D01*
X49322D01*
X48355Y102616D01*
X46904Y103583D01*
X42067Y108420D01*
Y101649D01*
X50290Y99375D02*
X50774Y98408D01*
X52225Y96957D01*
X42067D01*
D19*
X482600Y320550D02*
D03*
Y289050D02*
D03*
X355600D02*
D03*
Y320550D02*
D03*
X101600D02*
D03*
Y289050D02*
D03*
X228600Y320550D02*
D03*
Y289050D02*
D03*
X609600D02*
D03*
Y320550D02*
D03*
X736600Y289050D02*
D03*
Y320550D02*
D03*
X863600Y289050D02*
D03*
Y320550D02*
D03*
X990600Y289050D02*
D03*
Y320550D02*
D03*
X1117600Y289050D02*
D03*
Y320550D02*
D03*
X1244600Y289050D02*
D03*
Y320550D02*
D03*
X228600Y339850D02*
D03*
Y371350D02*
D03*
X482600Y339850D02*
D03*
Y371350D02*
D03*
X609600Y339850D02*
D03*
Y371350D02*
D03*
X736600Y339850D02*
D03*
Y371350D02*
D03*
X990600Y339850D02*
D03*
Y371350D02*
D03*
X1244600Y339850D02*
D03*
Y371350D02*
D03*
X1117600Y339850D02*
D03*
Y371350D02*
D03*
X863600Y339850D02*
D03*
Y371350D02*
D03*
X355600Y339850D02*
D03*
Y371350D02*
D03*
X101600D02*
D03*
Y339850D02*
D03*
D20*
X469900Y413900D02*
D03*
Y398900D02*
D03*
X215900Y413900D02*
D03*
Y398900D02*
D03*
X114300D02*
D03*
Y413900D02*
D03*
X596900D02*
D03*
Y398900D02*
D03*
X850900D02*
D03*
Y413900D02*
D03*
X723900D02*
D03*
Y398900D02*
D03*
X342900D02*
D03*
Y413900D02*
D03*
X1231900D02*
D03*
Y398900D02*
D03*
X1104900D02*
D03*
Y413900D02*
D03*
X977900D02*
D03*
Y398900D02*
D03*
D21*
X1071100Y384850D02*
D03*
X1037100D02*
D03*
X1071100Y250150D02*
D03*
X1037100D02*
D03*
X436100Y384850D02*
D03*
X402100D02*
D03*
X436100Y250150D02*
D03*
X402100D02*
D03*
X182100Y384850D02*
D03*
X148100D02*
D03*
X182100Y250150D02*
D03*
X148100D02*
D03*
X783100D02*
D03*
X817100D02*
D03*
X783100Y384850D02*
D03*
X817100D02*
D03*
X656100Y250150D02*
D03*
X690100D02*
D03*
X656100Y384850D02*
D03*
X690100D02*
D03*
X1164100Y250150D02*
D03*
X1198100D02*
D03*
X1164100Y384850D02*
D03*
X1198100D02*
D03*
X910100Y250150D02*
D03*
X944100D02*
D03*
X910100Y384850D02*
D03*
X944100D02*
D03*
X275100Y250150D02*
D03*
X309100D02*
D03*
X275100Y384850D02*
D03*
X309100D02*
D03*
X529100Y250150D02*
D03*
X563100D02*
D03*
X529100Y384850D02*
D03*
X563100D02*
D03*
D22*
X546100Y89300D02*
D03*
X927100D02*
D03*
X1181100D02*
D03*
X1054100D02*
D03*
X673100D02*
D03*
X800100D02*
D03*
X419100D02*
D03*
X292100D02*
D03*
D23*
X546100Y139300D02*
D03*
X927100D02*
D03*
X1181100D02*
D03*
X1054100D02*
D03*
X673100D02*
D03*
X800100D02*
D03*
X419100D02*
D03*
X292100D02*
D03*
D24*
X165100Y150300D02*
D03*
D25*
Y78300D02*
D03*
D26*
X50800Y50800D02*
D03*
Y406400D02*
D03*
X1295400D02*
D03*
Y50800D02*
D03*
D27*
X1257300Y434340D02*
D03*
X1130300D02*
D03*
X1003300D02*
D03*
X876300D02*
D03*
X749300D02*
D03*
X622300D02*
D03*
X495300D02*
D03*
X368300D02*
D03*
X241300D02*
D03*
X96520Y414020D02*
D03*
M02*
