G04*
G04 #@! TF.GenerationSoftware,Altium Limited,Altium Designer,22.0.2 (36)*
G04*
G04 Layer_Color=32768*
%FSLAX44Y44*%
%MOMM*%
G71*
G04*
G04 #@! TF.SameCoordinates,51EA9407-4672-4AB4-A77A-266F19B1D4C2*
G04*
G04*
G04 #@! TF.FilePolarity,Positive*
G04*
G01*
G75*
%ADD13C,0.1270*%
%ADD31C,0.1000*%
%ADD49C,0.0500*%
D13*
X1193000Y416080D02*
Y624360D01*
X1116800Y416080D02*
X1193000D01*
X1116800D02*
Y624360D01*
X1193000D01*
X558000Y416080D02*
Y624360D01*
X481800Y416080D02*
X558000D01*
X481800D02*
Y624360D01*
X558000D01*
X227800Y416080D02*
X304000D01*
Y624360D01*
X227800D02*
X304000D01*
X227800Y416080D02*
Y624360D01*
X862800D02*
X939000D01*
X862800Y416080D02*
Y624360D01*
Y416080D02*
X939000D01*
Y624360D01*
X735800D02*
X812000D01*
X735800Y416080D02*
Y624360D01*
Y416080D02*
X812000D01*
Y624360D01*
X1243800D02*
X1320000D01*
X1243800Y416080D02*
Y624360D01*
Y416080D02*
X1320000D01*
Y624360D01*
X989800D02*
X1066000D01*
X989800Y416080D02*
Y624360D01*
Y416080D02*
X1066000D01*
Y624360D01*
X354800D02*
X431000D01*
X354800Y416080D02*
Y624360D01*
Y416080D02*
X431000D01*
Y624360D01*
X608800D02*
X685000D01*
X608800Y416080D02*
Y624360D01*
Y416080D02*
X685000D01*
Y624360D01*
X1193000Y1000280D02*
Y1208560D01*
X1116800Y1000280D02*
X1193000D01*
X1116800D02*
Y1208560D01*
X1193000D01*
X558000Y1000280D02*
Y1208560D01*
X481800Y1000280D02*
X558000D01*
X481800D02*
Y1208560D01*
X558000D01*
X227800Y1000280D02*
X304000D01*
Y1208560D01*
X227800D02*
X304000D01*
X227800Y1000280D02*
Y1208560D01*
X862800D02*
X939000D01*
X862800Y1000280D02*
Y1208560D01*
Y1000280D02*
X939000D01*
Y1208560D01*
X735800D02*
X812000D01*
X735800Y1000280D02*
Y1208560D01*
Y1000280D02*
X812000D01*
Y1208560D01*
X1243800D02*
X1320000D01*
X1243800Y1000280D02*
Y1208560D01*
Y1000280D02*
X1320000D01*
Y1208560D01*
X989800D02*
X1066000D01*
X989800Y1000280D02*
Y1208560D01*
Y1000280D02*
X1066000D01*
Y1208560D01*
X354800D02*
X431000D01*
X354800Y1000280D02*
Y1208560D01*
Y1000280D02*
X431000D01*
Y1208560D01*
X608800D02*
X685000D01*
X608800Y1000280D02*
Y1208560D01*
Y1000280D02*
X685000D01*
Y1208560D01*
X1193000Y1584480D02*
Y1792760D01*
X1116800Y1584480D02*
X1193000D01*
X1116800D02*
Y1792760D01*
X1193000D01*
X558000Y1584480D02*
Y1792760D01*
X481800Y1584480D02*
X558000D01*
X481800D02*
Y1792760D01*
X558000D01*
X227800Y1584480D02*
X304000D01*
Y1792760D01*
X227800D02*
X304000D01*
X227800Y1584480D02*
Y1792760D01*
X862800D02*
X939000D01*
X862800Y1584480D02*
Y1792760D01*
Y1584480D02*
X939000D01*
Y1792760D01*
X735800D02*
X812000D01*
X735800Y1584480D02*
Y1792760D01*
Y1584480D02*
X812000D01*
Y1792760D01*
X1243800D02*
X1320000D01*
X1243800Y1584480D02*
Y1792760D01*
Y1584480D02*
X1320000D01*
Y1792760D01*
X989800D02*
X1066000D01*
X989800Y1584480D02*
Y1792760D01*
Y1584480D02*
X1066000D01*
Y1792760D01*
X354800D02*
X431000D01*
X354800Y1584480D02*
Y1792760D01*
Y1584480D02*
X431000D01*
Y1792760D01*
X608800D02*
X685000D01*
X608800Y1584480D02*
Y1792760D01*
Y1584480D02*
X685000D01*
Y1792760D01*
X1193000Y2168680D02*
Y2376960D01*
X1116800Y2168680D02*
X1193000D01*
X1116800D02*
Y2376960D01*
X1193000D01*
X558000Y2168680D02*
Y2376960D01*
X481800Y2168680D02*
X558000D01*
X481800D02*
Y2376960D01*
X558000D01*
X227800Y2168680D02*
X304000D01*
Y2376960D01*
X227800D02*
X304000D01*
X227800Y2168680D02*
Y2376960D01*
X862800D02*
X939000D01*
X862800Y2168680D02*
Y2376960D01*
Y2168680D02*
X939000D01*
Y2376960D01*
X735800D02*
X812000D01*
X735800Y2168680D02*
Y2376960D01*
Y2168680D02*
X812000D01*
Y2376960D01*
X1243800D02*
X1320000D01*
X1243800Y2168680D02*
Y2376960D01*
Y2168680D02*
X1320000D01*
Y2376960D01*
X989800D02*
X1066000D01*
X989800Y2168680D02*
Y2376960D01*
Y2168680D02*
X1066000D01*
Y2376960D01*
X354800D02*
X431000D01*
X354800Y2168680D02*
Y2376960D01*
Y2168680D02*
X431000D01*
Y2376960D01*
X608800D02*
X685000D01*
X608800Y2168680D02*
Y2376960D01*
Y2168680D02*
X685000D01*
Y2376960D01*
X1788160Y355600D02*
X1996440D01*
X1788160Y431800D02*
Y355600D01*
Y431800D02*
X1996440D01*
Y355600D01*
X1788160Y990600D02*
X1996440D01*
X1788160Y1066800D02*
Y990600D01*
Y1066800D02*
X1996440D01*
Y990600D01*
X1788160Y1320800D02*
Y1244600D01*
X1996440D01*
Y1320800D02*
Y1244600D01*
X1788160Y1320800D02*
X1996440D01*
Y685800D02*
Y609600D01*
X1788160Y685800D02*
X1996440D01*
X1788160D02*
Y609600D01*
X1996440D01*
Y812800D02*
Y736600D01*
X1788160Y812800D02*
X1996440D01*
X1788160D02*
Y736600D01*
X1996440D01*
Y304800D02*
Y228600D01*
X1788160Y304800D02*
X1996440D01*
X1788160D02*
Y228600D01*
X1996440D01*
Y558800D02*
Y482600D01*
X1788160Y558800D02*
X1996440D01*
X1788160D02*
Y482600D01*
X1996440D01*
Y1193800D02*
Y1117600D01*
X1788160Y1193800D02*
X1996440D01*
X1788160D02*
Y1117600D01*
X1996440D01*
Y939800D02*
Y863600D01*
X1788160Y939800D02*
X1996440D01*
X1788160D02*
Y863600D01*
X1996440D01*
D31*
X443700Y553320D02*
Y563320D01*
X438700Y558320D02*
X448700D01*
X570700Y553320D02*
Y563320D01*
X565700Y558320D02*
X575700D01*
X697700Y553320D02*
Y563320D01*
X692700Y558320D02*
X702700D01*
X824700Y553320D02*
Y563320D01*
X819700Y558320D02*
X829700D01*
X951700Y553320D02*
Y563320D01*
X946700Y558320D02*
X956700D01*
X1078700Y553320D02*
Y563320D01*
X1073700Y558320D02*
X1083700D01*
X1205700Y553320D02*
Y563320D01*
X1200700Y558320D02*
X1210700D01*
X1332700Y553320D02*
Y563320D01*
X1327700Y558320D02*
X1337700D01*
X316700Y553320D02*
Y563320D01*
X311700Y558320D02*
X321700D01*
X215100Y553320D02*
Y563320D01*
X210100Y558320D02*
X220100D01*
X565950Y609120D02*
X575450D01*
X570700Y604370D02*
Y613870D01*
X311950Y609120D02*
X321450D01*
X316700Y604370D02*
Y613870D01*
X215100Y604370D02*
Y613870D01*
X210350Y609120D02*
X219850D01*
X692950D02*
X702450D01*
X697700Y604370D02*
Y613870D01*
X951700Y604370D02*
Y613870D01*
X946950Y609120D02*
X956450D01*
X819950D02*
X829450D01*
X824700Y604370D02*
Y613870D01*
X443700Y604370D02*
Y613870D01*
X438950Y609120D02*
X448450D01*
X1327950D02*
X1337450D01*
X1332700Y604370D02*
Y613870D01*
X1205700Y604370D02*
Y613870D01*
X1200950Y609120D02*
X1210450D01*
X1073950D02*
X1083450D01*
X1078700Y604370D02*
Y613870D01*
X443700Y1137520D02*
Y1147520D01*
X438700Y1142520D02*
X448700D01*
X570700Y1137520D02*
Y1147520D01*
X565700Y1142520D02*
X575700D01*
X697700Y1137520D02*
Y1147520D01*
X692700Y1142520D02*
X702700D01*
X824700Y1137520D02*
Y1147520D01*
X819700Y1142520D02*
X829700D01*
X951700Y1137520D02*
Y1147520D01*
X946700Y1142520D02*
X956700D01*
X1078700Y1137520D02*
Y1147520D01*
X1073700Y1142520D02*
X1083700D01*
X1205700Y1137520D02*
Y1147520D01*
X1200700Y1142520D02*
X1210700D01*
X1332700Y1137520D02*
Y1147520D01*
X1327700Y1142520D02*
X1337700D01*
X316700Y1137520D02*
Y1147520D01*
X311700Y1142520D02*
X321700D01*
X215100Y1137520D02*
Y1147520D01*
X210100Y1142520D02*
X220100D01*
X565950Y1193320D02*
X575450D01*
X570700Y1188570D02*
Y1198070D01*
X311950Y1193320D02*
X321450D01*
X316700Y1188570D02*
Y1198070D01*
X215100Y1188570D02*
Y1198070D01*
X210350Y1193320D02*
X219850D01*
X692950D02*
X702450D01*
X697700Y1188570D02*
Y1198070D01*
X951700Y1188570D02*
Y1198070D01*
X946950Y1193320D02*
X956450D01*
X819950D02*
X829450D01*
X824700Y1188570D02*
Y1198070D01*
X443700Y1188570D02*
Y1198070D01*
X438950Y1193320D02*
X448450D01*
X1327950D02*
X1337450D01*
X1332700Y1188570D02*
Y1198070D01*
X1205700Y1188570D02*
Y1198070D01*
X1200950Y1193320D02*
X1210450D01*
X1073950D02*
X1083450D01*
X1078700Y1188570D02*
Y1198070D01*
X443700Y1721720D02*
Y1731720D01*
X438700Y1726720D02*
X448700D01*
X570700Y1721720D02*
Y1731720D01*
X565700Y1726720D02*
X575700D01*
X697700Y1721720D02*
Y1731720D01*
X692700Y1726720D02*
X702700D01*
X824700Y1721720D02*
Y1731720D01*
X819700Y1726720D02*
X829700D01*
X951700Y1721720D02*
Y1731720D01*
X946700Y1726720D02*
X956700D01*
X1078700Y1721720D02*
Y1731720D01*
X1073700Y1726720D02*
X1083700D01*
X1205700Y1721720D02*
Y1731720D01*
X1200700Y1726720D02*
X1210700D01*
X1332700Y1721720D02*
Y1731720D01*
X1327700Y1726720D02*
X1337700D01*
X316700Y1721720D02*
Y1731720D01*
X311700Y1726720D02*
X321700D01*
X215100Y1721720D02*
Y1731720D01*
X210100Y1726720D02*
X220100D01*
X565950Y1777520D02*
X575450D01*
X570700Y1772770D02*
Y1782270D01*
X311950Y1777520D02*
X321450D01*
X316700Y1772770D02*
Y1782270D01*
X215100Y1772770D02*
Y1782270D01*
X210350Y1777520D02*
X219850D01*
X692950D02*
X702450D01*
X697700Y1772770D02*
Y1782270D01*
X951700Y1772770D02*
Y1782270D01*
X946950Y1777520D02*
X956450D01*
X819950D02*
X829450D01*
X824700Y1772770D02*
Y1782270D01*
X443700Y1772770D02*
Y1782270D01*
X438950Y1777520D02*
X448450D01*
X1327950D02*
X1337450D01*
X1332700Y1772770D02*
Y1782270D01*
X1205700Y1772770D02*
Y1782270D01*
X1200950Y1777520D02*
X1210450D01*
X1073950D02*
X1083450D01*
X1078700Y1772770D02*
Y1782270D01*
X443700Y2305920D02*
Y2315920D01*
X438700Y2310920D02*
X448700D01*
X570700Y2305920D02*
Y2315920D01*
X565700Y2310920D02*
X575700D01*
X697700Y2305920D02*
Y2315920D01*
X692700Y2310920D02*
X702700D01*
X824700Y2305920D02*
Y2315920D01*
X819700Y2310920D02*
X829700D01*
X951700Y2305920D02*
Y2315920D01*
X946700Y2310920D02*
X956700D01*
X1078700Y2305920D02*
Y2315920D01*
X1073700Y2310920D02*
X1083700D01*
X1205700Y2305920D02*
Y2315920D01*
X1200700Y2310920D02*
X1210700D01*
X1332700Y2305920D02*
Y2315920D01*
X1327700Y2310920D02*
X1337700D01*
X316700Y2305920D02*
Y2315920D01*
X311700Y2310920D02*
X321700D01*
X215100Y2305920D02*
Y2315920D01*
X210100Y2310920D02*
X220100D01*
X565950Y2361720D02*
X575450D01*
X570700Y2356970D02*
Y2366470D01*
X311950Y2361720D02*
X321450D01*
X316700Y2356970D02*
Y2366470D01*
X215100Y2356970D02*
Y2366470D01*
X210350Y2361720D02*
X219850D01*
X692950D02*
X702450D01*
X697700Y2356970D02*
Y2366470D01*
X951700Y2356970D02*
Y2366470D01*
X946950Y2361720D02*
X956450D01*
X819950D02*
X829450D01*
X824700Y2356970D02*
Y2366470D01*
X443700Y2356970D02*
Y2366470D01*
X438950Y2361720D02*
X448450D01*
X1327950D02*
X1337450D01*
X1332700Y2356970D02*
Y2366470D01*
X1205700Y2356970D02*
Y2366470D01*
X1200950Y2361720D02*
X1210450D01*
X1073950D02*
X1083450D01*
X1078700Y2356970D02*
Y2366470D01*
X1925400Y1104900D02*
X1935400D01*
X1930400Y1109900D02*
Y1099900D01*
X1925400Y977900D02*
X1935400D01*
X1930400Y982900D02*
Y972900D01*
X1925400Y850900D02*
X1935400D01*
X1930400Y855900D02*
Y845900D01*
X1925400Y723900D02*
X1935400D01*
X1930400Y728900D02*
Y718900D01*
X1925400Y596900D02*
X1935400D01*
X1930400Y601900D02*
Y591900D01*
X1925400Y469900D02*
X1935400D01*
X1930400Y474900D02*
Y464900D01*
X1925400Y342900D02*
X1935400D01*
X1930400Y347900D02*
Y337900D01*
X1925400Y215900D02*
X1935400D01*
X1930400Y220900D02*
Y210900D01*
X1925400Y1231900D02*
X1935400D01*
X1930400Y1236900D02*
Y1226900D01*
X1925400Y1333500D02*
X1935400D01*
X1930400Y1338500D02*
Y1328500D01*
X1981200Y982650D02*
Y973150D01*
X1976450Y977900D02*
X1985950D01*
X1981200Y1236650D02*
Y1227150D01*
X1976450Y1231900D02*
X1985950D01*
X1976450Y1333500D02*
X1985950D01*
X1981200Y1338250D02*
Y1328750D01*
Y855650D02*
Y846150D01*
X1976450Y850900D02*
X1985950D01*
X1976450Y596900D02*
X1985950D01*
X1981200Y601650D02*
Y592150D01*
Y728650D02*
Y719150D01*
X1976450Y723900D02*
X1985950D01*
X1976450Y1104900D02*
X1985950D01*
X1981200Y1109650D02*
Y1100150D01*
Y220650D02*
Y211150D01*
X1976450Y215900D02*
X1985950D01*
X1976450Y342900D02*
X1985950D01*
X1981200Y347650D02*
Y338150D01*
Y474650D02*
Y465150D01*
X1976450Y469900D02*
X1985950D01*
D49*
X433800Y536820D02*
X453600D01*
Y579820D01*
X433800D02*
X453600D01*
X433800Y536820D02*
Y579820D01*
X560800Y536820D02*
X580600D01*
Y579820D01*
X560800D02*
X580600D01*
X560800Y536820D02*
Y579820D01*
X687800Y536820D02*
X707600D01*
Y579820D01*
X687800D02*
X707600D01*
X687800Y536820D02*
Y579820D01*
X814800Y536820D02*
X834600D01*
Y579820D01*
X814800D02*
X834600D01*
X814800Y536820D02*
Y579820D01*
X941800Y536820D02*
X961600D01*
Y579820D01*
X941800D02*
X961600D01*
X941800Y536820D02*
Y579820D01*
X1068800Y536820D02*
X1088600D01*
Y579820D01*
X1068800D02*
X1088600D01*
X1068800Y536820D02*
Y579820D01*
X1195800Y536820D02*
X1215600D01*
Y579820D01*
X1195800D02*
X1215600D01*
X1195800Y536820D02*
Y579820D01*
X1322800Y536820D02*
X1342600D01*
Y579820D01*
X1322800D02*
X1342600D01*
X1322800Y536820D02*
Y579820D01*
X306800Y536820D02*
X326600D01*
Y579820D01*
X306800D02*
X326600D01*
X306800Y536820D02*
Y579820D01*
X205200Y536820D02*
X225000D01*
Y579820D01*
X205200D02*
X225000D01*
X205200Y536820D02*
Y579820D01*
X578200Y595150D02*
Y623090D01*
X563200Y595150D02*
Y623090D01*
X578200D01*
X563200Y595150D02*
X578200D01*
X324200D02*
Y623090D01*
X309200Y595150D02*
Y623090D01*
X324200D01*
X309200Y595150D02*
X324200D01*
X207600D02*
X222600D01*
X207600Y623090D02*
X222600D01*
X207600Y595150D02*
Y623090D01*
X222600Y595150D02*
Y623090D01*
X617400Y147220D02*
Y257220D01*
X676400Y147220D02*
Y257220D01*
X617400D02*
X676400D01*
X617400Y147220D02*
X676400D01*
X311366Y145570D02*
Y310670D01*
X220180D02*
X311366D01*
X220180Y145570D02*
Y310670D01*
Y145570D02*
X311366D01*
X998400Y147220D02*
Y257220D01*
X1057400Y147220D02*
Y257220D01*
X998400D02*
X1057400D01*
X998400Y147220D02*
X1057400D01*
X1252400D02*
Y257220D01*
X1311400Y147220D02*
Y257220D01*
X1252400D02*
X1311400D01*
X1252400Y147220D02*
X1311400D01*
X1125400D02*
X1184400D01*
X1125400Y257220D02*
X1184400D01*
Y147220D02*
Y257220D01*
X1125400Y147220D02*
Y257220D01*
X744400Y147220D02*
Y257220D01*
X803400Y147220D02*
Y257220D01*
X744400D02*
X803400D01*
X744400Y147220D02*
X803400D01*
X871400D02*
X930400D01*
X871400Y257220D02*
X930400D01*
Y147220D02*
Y257220D01*
X871400Y147220D02*
Y257220D01*
X490400Y147220D02*
Y257220D01*
X549400Y147220D02*
Y257220D01*
X490400D02*
X549400D01*
X490400Y147220D02*
X549400D01*
X363400D02*
X422400D01*
X363400Y257220D02*
X422400D01*
Y147220D02*
Y257220D01*
X363400Y147220D02*
Y257220D01*
X705200Y595150D02*
Y623090D01*
X690200Y595150D02*
Y623090D01*
X705200D01*
X690200Y595150D02*
X705200D01*
X944200D02*
X959200D01*
X944200Y623090D02*
X959200D01*
X944200Y595150D02*
Y623090D01*
X959200Y595150D02*
Y623090D01*
X832200Y595150D02*
Y623090D01*
X817200Y595150D02*
Y623090D01*
X832200D01*
X817200Y595150D02*
X832200D01*
X436200D02*
X451200D01*
X436200Y623090D02*
X451200D01*
X436200Y595150D02*
Y623090D01*
X451200Y595150D02*
Y623090D01*
X1340200Y595150D02*
Y623090D01*
X1325200Y595150D02*
Y623090D01*
X1340200D01*
X1325200Y595150D02*
X1340200D01*
X1198200D02*
X1213200D01*
X1198200Y623090D02*
X1213200D01*
X1198200Y595150D02*
Y623090D01*
X1213200Y595150D02*
Y623090D01*
X1086200Y595150D02*
Y623090D01*
X1071200Y595150D02*
Y623090D01*
X1086200D01*
X1071200Y595150D02*
X1086200D01*
X433800Y1121020D02*
X453600D01*
Y1164020D01*
X433800D02*
X453600D01*
X433800Y1121020D02*
Y1164020D01*
X560800Y1121020D02*
X580600D01*
Y1164020D01*
X560800D02*
X580600D01*
X560800Y1121020D02*
Y1164020D01*
X687800Y1121020D02*
X707600D01*
Y1164020D01*
X687800D02*
X707600D01*
X687800Y1121020D02*
Y1164020D01*
X814800Y1121020D02*
X834600D01*
Y1164020D01*
X814800D02*
X834600D01*
X814800Y1121020D02*
Y1164020D01*
X941800Y1121020D02*
X961600D01*
Y1164020D01*
X941800D02*
X961600D01*
X941800Y1121020D02*
Y1164020D01*
X1068800Y1121020D02*
X1088600D01*
Y1164020D01*
X1068800D02*
X1088600D01*
X1068800Y1121020D02*
Y1164020D01*
X1195800Y1121020D02*
X1215600D01*
Y1164020D01*
X1195800D02*
X1215600D01*
X1195800Y1121020D02*
Y1164020D01*
X1322800Y1121020D02*
X1342600D01*
Y1164020D01*
X1322800D02*
X1342600D01*
X1322800Y1121020D02*
Y1164020D01*
X306800Y1121020D02*
X326600D01*
Y1164020D01*
X306800D02*
X326600D01*
X306800Y1121020D02*
Y1164020D01*
X205200Y1121020D02*
X225000D01*
Y1164020D01*
X205200D02*
X225000D01*
X205200Y1121020D02*
Y1164020D01*
X578200Y1179350D02*
Y1207290D01*
X563200Y1179350D02*
Y1207290D01*
X578200D01*
X563200Y1179350D02*
X578200D01*
X324200D02*
Y1207290D01*
X309200Y1179350D02*
Y1207290D01*
X324200D01*
X309200Y1179350D02*
X324200D01*
X207600D02*
X222600D01*
X207600Y1207290D02*
X222600D01*
X207600Y1179350D02*
Y1207290D01*
X222600Y1179350D02*
Y1207290D01*
X617400Y731420D02*
Y841420D01*
X676400Y731420D02*
Y841420D01*
X617400D02*
X676400D01*
X617400Y731420D02*
X676400D01*
X311366Y729770D02*
Y894870D01*
X220180D02*
X311366D01*
X220180Y729770D02*
Y894870D01*
Y729770D02*
X311366D01*
X998400Y731420D02*
Y841420D01*
X1057400Y731420D02*
Y841420D01*
X998400D02*
X1057400D01*
X998400Y731420D02*
X1057400D01*
X1252400D02*
Y841420D01*
X1311400Y731420D02*
Y841420D01*
X1252400D02*
X1311400D01*
X1252400Y731420D02*
X1311400D01*
X1125400D02*
X1184400D01*
X1125400Y841420D02*
X1184400D01*
Y731420D02*
Y841420D01*
X1125400Y731420D02*
Y841420D01*
X744400Y731420D02*
Y841420D01*
X803400Y731420D02*
Y841420D01*
X744400D02*
X803400D01*
X744400Y731420D02*
X803400D01*
X871400D02*
X930400D01*
X871400Y841420D02*
X930400D01*
Y731420D02*
Y841420D01*
X871400Y731420D02*
Y841420D01*
X490400Y731420D02*
Y841420D01*
X549400Y731420D02*
Y841420D01*
X490400D02*
X549400D01*
X490400Y731420D02*
X549400D01*
X363400D02*
X422400D01*
X363400Y841420D02*
X422400D01*
Y731420D02*
Y841420D01*
X363400Y731420D02*
Y841420D01*
X705200Y1179350D02*
Y1207290D01*
X690200Y1179350D02*
Y1207290D01*
X705200D01*
X690200Y1179350D02*
X705200D01*
X944200D02*
X959200D01*
X944200Y1207290D02*
X959200D01*
X944200Y1179350D02*
Y1207290D01*
X959200Y1179350D02*
Y1207290D01*
X832200Y1179350D02*
Y1207290D01*
X817200Y1179350D02*
Y1207290D01*
X832200D01*
X817200Y1179350D02*
X832200D01*
X436200D02*
X451200D01*
X436200Y1207290D02*
X451200D01*
X436200Y1179350D02*
Y1207290D01*
X451200Y1179350D02*
Y1207290D01*
X1340200Y1179350D02*
Y1207290D01*
X1325200Y1179350D02*
Y1207290D01*
X1340200D01*
X1325200Y1179350D02*
X1340200D01*
X1198200D02*
X1213200D01*
X1198200Y1207290D02*
X1213200D01*
X1198200Y1179350D02*
Y1207290D01*
X1213200Y1179350D02*
Y1207290D01*
X1086200Y1179350D02*
Y1207290D01*
X1071200Y1179350D02*
Y1207290D01*
X1086200D01*
X1071200Y1179350D02*
X1086200D01*
X433800Y1705220D02*
X453600D01*
Y1748220D01*
X433800D02*
X453600D01*
X433800Y1705220D02*
Y1748220D01*
X560800Y1705220D02*
X580600D01*
Y1748220D01*
X560800D02*
X580600D01*
X560800Y1705220D02*
Y1748220D01*
X687800Y1705220D02*
X707600D01*
Y1748220D01*
X687800D02*
X707600D01*
X687800Y1705220D02*
Y1748220D01*
X814800Y1705220D02*
X834600D01*
Y1748220D01*
X814800D02*
X834600D01*
X814800Y1705220D02*
Y1748220D01*
X941800Y1705220D02*
X961600D01*
Y1748220D01*
X941800D02*
X961600D01*
X941800Y1705220D02*
Y1748220D01*
X1068800Y1705220D02*
X1088600D01*
Y1748220D01*
X1068800D02*
X1088600D01*
X1068800Y1705220D02*
Y1748220D01*
X1195800Y1705220D02*
X1215600D01*
Y1748220D01*
X1195800D02*
X1215600D01*
X1195800Y1705220D02*
Y1748220D01*
X1322800Y1705220D02*
X1342600D01*
Y1748220D01*
X1322800D02*
X1342600D01*
X1322800Y1705220D02*
Y1748220D01*
X306800Y1705220D02*
X326600D01*
Y1748220D01*
X306800D02*
X326600D01*
X306800Y1705220D02*
Y1748220D01*
X205200Y1705220D02*
X225000D01*
Y1748220D01*
X205200D02*
X225000D01*
X205200Y1705220D02*
Y1748220D01*
X578200Y1763550D02*
Y1791490D01*
X563200Y1763550D02*
Y1791490D01*
X578200D01*
X563200Y1763550D02*
X578200D01*
X324200D02*
Y1791490D01*
X309200Y1763550D02*
Y1791490D01*
X324200D01*
X309200Y1763550D02*
X324200D01*
X207600D02*
X222600D01*
X207600Y1791490D02*
X222600D01*
X207600Y1763550D02*
Y1791490D01*
X222600Y1763550D02*
Y1791490D01*
X617400Y1315620D02*
Y1425620D01*
X676400Y1315620D02*
Y1425620D01*
X617400D02*
X676400D01*
X617400Y1315620D02*
X676400D01*
X311366Y1313970D02*
Y1479070D01*
X220180D02*
X311366D01*
X220180Y1313970D02*
Y1479070D01*
Y1313970D02*
X311366D01*
X998400Y1315620D02*
Y1425620D01*
X1057400Y1315620D02*
Y1425620D01*
X998400D02*
X1057400D01*
X998400Y1315620D02*
X1057400D01*
X1252400D02*
Y1425620D01*
X1311400Y1315620D02*
Y1425620D01*
X1252400D02*
X1311400D01*
X1252400Y1315620D02*
X1311400D01*
X1125400D02*
X1184400D01*
X1125400Y1425620D02*
X1184400D01*
Y1315620D02*
Y1425620D01*
X1125400Y1315620D02*
Y1425620D01*
X744400Y1315620D02*
Y1425620D01*
X803400Y1315620D02*
Y1425620D01*
X744400D02*
X803400D01*
X744400Y1315620D02*
X803400D01*
X871400D02*
X930400D01*
X871400Y1425620D02*
X930400D01*
Y1315620D02*
Y1425620D01*
X871400Y1315620D02*
Y1425620D01*
X490400Y1315620D02*
Y1425620D01*
X549400Y1315620D02*
Y1425620D01*
X490400D02*
X549400D01*
X490400Y1315620D02*
X549400D01*
X363400D02*
X422400D01*
X363400Y1425620D02*
X422400D01*
Y1315620D02*
Y1425620D01*
X363400Y1315620D02*
Y1425620D01*
X705200Y1763550D02*
Y1791490D01*
X690200Y1763550D02*
Y1791490D01*
X705200D01*
X690200Y1763550D02*
X705200D01*
X944200D02*
X959200D01*
X944200Y1791490D02*
X959200D01*
X944200Y1763550D02*
Y1791490D01*
X959200Y1763550D02*
Y1791490D01*
X832200Y1763550D02*
Y1791490D01*
X817200Y1763550D02*
Y1791490D01*
X832200D01*
X817200Y1763550D02*
X832200D01*
X436200D02*
X451200D01*
X436200Y1791490D02*
X451200D01*
X436200Y1763550D02*
Y1791490D01*
X451200Y1763550D02*
Y1791490D01*
X1340200Y1763550D02*
Y1791490D01*
X1325200Y1763550D02*
Y1791490D01*
X1340200D01*
X1325200Y1763550D02*
X1340200D01*
X1198200D02*
X1213200D01*
X1198200Y1791490D02*
X1213200D01*
X1198200Y1763550D02*
Y1791490D01*
X1213200Y1763550D02*
Y1791490D01*
X1086200Y1763550D02*
Y1791490D01*
X1071200Y1763550D02*
Y1791490D01*
X1086200D01*
X1071200Y1763550D02*
X1086200D01*
X433800Y2289420D02*
X453600D01*
Y2332420D01*
X433800D02*
X453600D01*
X433800Y2289420D02*
Y2332420D01*
X560800Y2289420D02*
X580600D01*
Y2332420D01*
X560800D02*
X580600D01*
X560800Y2289420D02*
Y2332420D01*
X687800Y2289420D02*
X707600D01*
Y2332420D01*
X687800D02*
X707600D01*
X687800Y2289420D02*
Y2332420D01*
X814800Y2289420D02*
X834600D01*
Y2332420D01*
X814800D02*
X834600D01*
X814800Y2289420D02*
Y2332420D01*
X941800Y2289420D02*
X961600D01*
Y2332420D01*
X941800D02*
X961600D01*
X941800Y2289420D02*
Y2332420D01*
X1068800Y2289420D02*
X1088600D01*
Y2332420D01*
X1068800D02*
X1088600D01*
X1068800Y2289420D02*
Y2332420D01*
X1195800Y2289420D02*
X1215600D01*
Y2332420D01*
X1195800D02*
X1215600D01*
X1195800Y2289420D02*
Y2332420D01*
X1322800Y2289420D02*
X1342600D01*
Y2332420D01*
X1322800D02*
X1342600D01*
X1322800Y2289420D02*
Y2332420D01*
X306800Y2289420D02*
X326600D01*
Y2332420D01*
X306800D02*
X326600D01*
X306800Y2289420D02*
Y2332420D01*
X205200Y2289420D02*
X225000D01*
Y2332420D01*
X205200D02*
X225000D01*
X205200Y2289420D02*
Y2332420D01*
X578200Y2347750D02*
Y2375690D01*
X563200Y2347750D02*
Y2375690D01*
X578200D01*
X563200Y2347750D02*
X578200D01*
X324200D02*
Y2375690D01*
X309200Y2347750D02*
Y2375690D01*
X324200D01*
X309200Y2347750D02*
X324200D01*
X207600D02*
X222600D01*
X207600Y2375690D02*
X222600D01*
X207600Y2347750D02*
Y2375690D01*
X222600Y2347750D02*
Y2375690D01*
X617400Y1899820D02*
Y2009820D01*
X676400Y1899820D02*
Y2009820D01*
X617400D02*
X676400D01*
X617400Y1899820D02*
X676400D01*
X311366Y1898170D02*
Y2063270D01*
X220180D02*
X311366D01*
X220180Y1898170D02*
Y2063270D01*
Y1898170D02*
X311366D01*
X998400Y1899820D02*
Y2009820D01*
X1057400Y1899820D02*
Y2009820D01*
X998400D02*
X1057400D01*
X998400Y1899820D02*
X1057400D01*
X1252400D02*
Y2009820D01*
X1311400Y1899820D02*
Y2009820D01*
X1252400D02*
X1311400D01*
X1252400Y1899820D02*
X1311400D01*
X1125400D02*
X1184400D01*
X1125400Y2009820D02*
X1184400D01*
Y1899820D02*
Y2009820D01*
X1125400Y1899820D02*
Y2009820D01*
X744400Y1899820D02*
Y2009820D01*
X803400Y1899820D02*
Y2009820D01*
X744400D02*
X803400D01*
X744400Y1899820D02*
X803400D01*
X871400D02*
X930400D01*
X871400Y2009820D02*
X930400D01*
Y1899820D02*
Y2009820D01*
X871400Y1899820D02*
Y2009820D01*
X490400Y1899820D02*
Y2009820D01*
X549400Y1899820D02*
Y2009820D01*
X490400D02*
X549400D01*
X490400Y1899820D02*
X549400D01*
X363400D02*
X422400D01*
X363400Y2009820D02*
X422400D01*
Y1899820D02*
Y2009820D01*
X363400Y1899820D02*
Y2009820D01*
X705200Y2347750D02*
Y2375690D01*
X690200Y2347750D02*
Y2375690D01*
X705200D01*
X690200Y2347750D02*
X705200D01*
X944200D02*
X959200D01*
X944200Y2375690D02*
X959200D01*
X944200Y2347750D02*
Y2375690D01*
X959200Y2347750D02*
Y2375690D01*
X832200Y2347750D02*
Y2375690D01*
X817200Y2347750D02*
Y2375690D01*
X832200D01*
X817200Y2347750D02*
X832200D01*
X436200D02*
X451200D01*
X436200Y2375690D02*
X451200D01*
X436200Y2347750D02*
Y2375690D01*
X451200Y2347750D02*
Y2375690D01*
X1340200Y2347750D02*
Y2375690D01*
X1325200Y2347750D02*
Y2375690D01*
X1340200D01*
X1325200Y2347750D02*
X1340200D01*
X1198200D02*
X1213200D01*
X1198200Y2375690D02*
X1213200D01*
X1198200Y2347750D02*
Y2375690D01*
X1213200Y2347750D02*
Y2375690D01*
X1086200Y2347750D02*
Y2375690D01*
X1071200Y2347750D02*
Y2375690D01*
X1086200D01*
X1071200Y2347750D02*
X1086200D01*
X1908900Y1114800D02*
Y1095000D01*
X1951900D01*
Y1114800D02*
Y1095000D01*
X1908900Y1114800D02*
X1951900D01*
X1908900Y987800D02*
Y968000D01*
X1951900D01*
Y987800D02*
Y968000D01*
X1908900Y987800D02*
X1951900D01*
X1908900Y860800D02*
Y841000D01*
X1951900D01*
Y860800D02*
Y841000D01*
X1908900Y860800D02*
X1951900D01*
X1908900Y733800D02*
Y714000D01*
X1951900D01*
Y733800D02*
Y714000D01*
X1908900Y733800D02*
X1951900D01*
X1908900Y606800D02*
Y587000D01*
X1951900D01*
Y606800D02*
Y587000D01*
X1908900Y606800D02*
X1951900D01*
X1908900Y479800D02*
Y460000D01*
X1951900D01*
Y479800D02*
Y460000D01*
X1908900Y479800D02*
X1951900D01*
X1908900Y352800D02*
Y333000D01*
X1951900D01*
Y352800D02*
Y333000D01*
X1908900Y352800D02*
X1951900D01*
X1908900Y225800D02*
Y206000D01*
X1951900D01*
Y225800D02*
Y206000D01*
X1908900Y225800D02*
X1951900D01*
X1908900Y1241800D02*
Y1222000D01*
X1951900D01*
Y1241800D02*
Y1222000D01*
X1908900Y1241800D02*
X1951900D01*
X1908900Y1343400D02*
Y1323600D01*
X1951900D01*
Y1343400D02*
Y1323600D01*
X1908900Y1343400D02*
X1951900D01*
X1967230Y970400D02*
X1995170D01*
X1967230Y985400D02*
X1995170D01*
Y970400D01*
X1967230Y985400D02*
Y970400D01*
Y1224400D02*
X1995170D01*
X1967230Y1239400D02*
X1995170D01*
Y1224400D01*
X1967230Y1239400D02*
Y1224400D01*
Y1341000D02*
Y1326000D01*
X1995170Y1341000D02*
Y1326000D01*
X1967230Y1341000D02*
X1995170D01*
X1967230Y1326000D02*
X1995170D01*
X1519300Y931200D02*
X1629300D01*
X1519300Y872200D02*
X1629300D01*
Y931200D02*
Y872200D01*
X1519300Y931200D02*
Y872200D01*
X1517650Y1237234D02*
X1682750D01*
Y1328420D02*
Y1237234D01*
X1517650Y1328420D02*
X1682750D01*
X1517650D02*
Y1237234D01*
X1519300Y550200D02*
X1629300D01*
X1519300Y491200D02*
X1629300D01*
Y550200D02*
Y491200D01*
X1519300Y550200D02*
Y491200D01*
Y296200D02*
X1629300D01*
X1519300Y237200D02*
X1629300D01*
Y296200D02*
Y237200D01*
X1519300Y296200D02*
Y237200D01*
Y423200D02*
Y364200D01*
X1629300Y423200D02*
Y364200D01*
X1519300D02*
X1629300D01*
X1519300Y423200D02*
X1629300D01*
X1519300Y804200D02*
X1629300D01*
X1519300Y745200D02*
X1629300D01*
Y804200D02*
Y745200D01*
X1519300Y804200D02*
Y745200D01*
Y677200D02*
Y618200D01*
X1629300Y677200D02*
Y618200D01*
X1519300D02*
X1629300D01*
X1519300Y677200D02*
X1629300D01*
X1519300Y1058200D02*
X1629300D01*
X1519300Y999200D02*
X1629300D01*
Y1058200D02*
Y999200D01*
X1519300Y1058200D02*
Y999200D01*
Y1185200D02*
Y1126200D01*
X1629300Y1185200D02*
Y1126200D01*
X1519300D02*
X1629300D01*
X1519300Y1185200D02*
X1629300D01*
X1967230Y843400D02*
X1995170D01*
X1967230Y858400D02*
X1995170D01*
Y843400D01*
X1967230Y858400D02*
Y843400D01*
Y604400D02*
Y589400D01*
X1995170Y604400D02*
Y589400D01*
X1967230Y604400D02*
X1995170D01*
X1967230Y589400D02*
X1995170D01*
X1967230Y716400D02*
X1995170D01*
X1967230Y731400D02*
X1995170D01*
Y716400D01*
X1967230Y731400D02*
Y716400D01*
Y1112400D02*
Y1097400D01*
X1995170Y1112400D02*
Y1097400D01*
X1967230Y1112400D02*
X1995170D01*
X1967230Y1097400D02*
X1995170D01*
X1967230Y208400D02*
X1995170D01*
X1967230Y223400D02*
X1995170D01*
Y208400D01*
X1967230Y223400D02*
Y208400D01*
Y350400D02*
Y335400D01*
X1995170Y350400D02*
Y335400D01*
X1967230Y350400D02*
X1995170D01*
X1967230Y335400D02*
X1995170D01*
X1967230Y462400D02*
X1995170D01*
X1967230Y477400D02*
X1995170D01*
Y462400D01*
X1967230Y477400D02*
Y462400D01*
M02*
