G04*
G04 #@! TF.GenerationSoftware,Altium Limited,Altium Designer,22.0.2 (36)*
G04*
G04 Layer_Color=65535*
%FSLAX44Y44*%
%MOMM*%
G71*
G04*
G04 #@! TF.SameCoordinates,51EA9407-4672-4AB4-A77A-266F19B1D4C2*
G04*
G04*
G04 #@! TF.FilePolarity,Positive*
G04*
G01*
G75*
%ADD10C,0.2540*%
%ADD13C,0.1270*%
%ADD28C,0.2000*%
%ADD29C,0.2500*%
%ADD30C,0.3000*%
%ADD31C,0.1000*%
%ADD32C,0.1500*%
D10*
X647900Y142720D02*
G03*
X647900Y142720I-1000J0D01*
G01*
X1028900D02*
G03*
X1028900Y142720I-1000J0D01*
G01*
X1282900D02*
G03*
X1282900Y142720I-1000J0D01*
G01*
X1155900D02*
G03*
X1155900Y142720I-1000J0D01*
G01*
X774900D02*
G03*
X774900Y142720I-1000J0D01*
G01*
X901900D02*
G03*
X901900Y142720I-1000J0D01*
G01*
X520900D02*
G03*
X520900Y142720I-1000J0D01*
G01*
X393900D02*
G03*
X393900Y142720I-1000J0D01*
G01*
X647900Y726920D02*
G03*
X647900Y726920I-1000J0D01*
G01*
X1028900D02*
G03*
X1028900Y726920I-1000J0D01*
G01*
X1282900D02*
G03*
X1282900Y726920I-1000J0D01*
G01*
X1155900D02*
G03*
X1155900Y726920I-1000J0D01*
G01*
X774900D02*
G03*
X774900Y726920I-1000J0D01*
G01*
X901900D02*
G03*
X901900Y726920I-1000J0D01*
G01*
X520900D02*
G03*
X520900Y726920I-1000J0D01*
G01*
X393900D02*
G03*
X393900Y726920I-1000J0D01*
G01*
X647900Y1311120D02*
G03*
X647900Y1311120I-1000J0D01*
G01*
X1028900D02*
G03*
X1028900Y1311120I-1000J0D01*
G01*
X1282900D02*
G03*
X1282900Y1311120I-1000J0D01*
G01*
X1155900D02*
G03*
X1155900Y1311120I-1000J0D01*
G01*
X774900D02*
G03*
X774900Y1311120I-1000J0D01*
G01*
X901900D02*
G03*
X901900Y1311120I-1000J0D01*
G01*
X520900D02*
G03*
X520900Y1311120I-1000J0D01*
G01*
X393900D02*
G03*
X393900Y1311120I-1000J0D01*
G01*
X647900Y1895320D02*
G03*
X647900Y1895320I-1000J0D01*
G01*
X1028900D02*
G03*
X1028900Y1895320I-1000J0D01*
G01*
X1282900D02*
G03*
X1282900Y1895320I-1000J0D01*
G01*
X1155900D02*
G03*
X1155900Y1895320I-1000J0D01*
G01*
X774900D02*
G03*
X774900Y1895320I-1000J0D01*
G01*
X901900D02*
G03*
X901900Y1895320I-1000J0D01*
G01*
X520900D02*
G03*
X520900Y1895320I-1000J0D01*
G01*
X393900D02*
G03*
X393900Y1895320I-1000J0D01*
G01*
X1514800Y900700D02*
G03*
X1514800Y900700I0J1000D01*
G01*
Y519700D02*
G03*
X1514800Y519700I0J1000D01*
G01*
Y265700D02*
G03*
X1514800Y265700I0J1000D01*
G01*
Y392700D02*
G03*
X1514800Y392700I0J1000D01*
G01*
Y773700D02*
G03*
X1514800Y773700I0J1000D01*
G01*
Y646700D02*
G03*
X1514800Y646700I0J1000D01*
G01*
Y1027700D02*
G03*
X1514800Y1027700I0J1000D01*
G01*
Y1154700D02*
G03*
X1514800Y1154700I0J1000D01*
G01*
D13*
X1119340Y621820D02*
X1190460D01*
X1119340Y418620D02*
Y621820D01*
Y418620D02*
X1190460D01*
Y621820D01*
X484340D02*
X555460D01*
X484340Y418620D02*
Y621820D01*
Y418620D02*
X555460D01*
Y621820D01*
X655900Y149720D02*
X657900Y151720D01*
X637900Y149720D02*
X655900D01*
X619900Y167720D02*
Y254720D01*
Y167720D02*
X637900Y149720D01*
X619900Y254720D02*
X673900D01*
Y167720D02*
Y254720D01*
X657900Y151720D02*
X673900Y167720D01*
X248577Y147856D02*
X283223D01*
X309080Y177120D01*
Y308130D01*
X222720D02*
X309080D01*
X222720Y177138D02*
Y308130D01*
Y177138D02*
X248577Y147856D01*
X230340Y418620D02*
Y621820D01*
X301460D01*
Y418620D02*
Y621820D01*
X230340Y418620D02*
X301460D01*
X1036900Y149720D02*
X1038900Y151720D01*
X1018900Y149720D02*
X1036900D01*
X1000900Y167720D02*
Y254720D01*
Y167720D02*
X1018900Y149720D01*
X1000900Y254720D02*
X1054900D01*
Y167720D02*
Y254720D01*
X1038900Y151720D02*
X1054900Y167720D01*
X1290900Y149720D02*
X1292900Y151720D01*
X1272900Y149720D02*
X1290900D01*
X1254900Y167720D02*
Y254720D01*
Y167720D02*
X1272900Y149720D01*
X1254900Y254720D02*
X1308900D01*
Y167720D02*
Y254720D01*
X1292900Y151720D02*
X1308900Y167720D01*
X1165900Y151720D02*
X1181900Y167720D01*
Y254720D01*
X1127900D02*
X1181900D01*
X1127900Y167720D02*
X1145900Y149720D01*
X1127900Y167720D02*
Y254720D01*
X1145900Y149720D02*
X1163900D01*
X1165900Y151720D01*
X782900Y149720D02*
X784900Y151720D01*
X764900Y149720D02*
X782900D01*
X746900Y167720D02*
Y254720D01*
Y167720D02*
X764900Y149720D01*
X746900Y254720D02*
X800900D01*
Y167720D02*
Y254720D01*
X784900Y151720D02*
X800900Y167720D01*
X911900Y151720D02*
X927900Y167720D01*
Y254720D01*
X873900D02*
X927900D01*
X873900Y167720D02*
X891900Y149720D01*
X873900Y167720D02*
Y254720D01*
X891900Y149720D02*
X909900D01*
X911900Y151720D01*
X528900Y149720D02*
X530900Y151720D01*
X510900Y149720D02*
X528900D01*
X492900Y167720D02*
Y254720D01*
Y167720D02*
X510900Y149720D01*
X492900Y254720D02*
X546900D01*
Y167720D02*
Y254720D01*
X530900Y151720D02*
X546900Y167720D01*
X403900Y151720D02*
X419900Y167720D01*
Y254720D01*
X365900D02*
X419900D01*
X365900Y167720D02*
X383900Y149720D01*
X365900Y167720D02*
Y254720D01*
X383900Y149720D02*
X401900D01*
X403900Y151720D01*
X936460Y418620D02*
Y621820D01*
X865340Y418620D02*
X936460D01*
X865340D02*
Y621820D01*
X936460D01*
X809460Y418620D02*
Y621820D01*
X738340Y418620D02*
X809460D01*
X738340D02*
Y621820D01*
X809460D01*
X1317460Y418620D02*
Y621820D01*
X1246340Y418620D02*
X1317460D01*
X1246340D02*
Y621820D01*
X1317460D01*
X1063460Y418620D02*
Y621820D01*
X992340Y418620D02*
X1063460D01*
X992340D02*
Y621820D01*
X1063460D01*
X428460Y418620D02*
Y621820D01*
X357340Y418620D02*
X428460D01*
X357340D02*
Y621820D01*
X428460D01*
X682460Y418620D02*
Y621820D01*
X611340Y418620D02*
X682460D01*
X611340D02*
Y621820D01*
X682460D01*
X1229832Y295432D02*
X1228562Y294163D01*
Y291624D01*
X1229832Y290354D01*
X1234910D01*
X1236180Y291624D01*
Y294163D01*
X1234910Y295432D01*
X1229832Y297972D02*
X1228562Y299241D01*
Y301780D01*
X1229832Y303050D01*
X1231102D01*
X1232371Y301780D01*
X1233641Y303050D01*
X1234910D01*
X1236180Y301780D01*
Y299241D01*
X1234910Y297972D01*
X1233641D01*
X1232371Y299241D01*
X1231102Y297972D01*
X1229832D01*
X1232371Y299241D02*
Y301780D01*
X1102832Y295432D02*
X1101562Y294163D01*
Y291624D01*
X1102832Y290354D01*
X1107910D01*
X1109180Y291624D01*
Y294163D01*
X1107910Y295432D01*
X1101562Y297972D02*
Y303050D01*
X1102832D01*
X1107910Y297972D01*
X1109180D01*
X975832Y295432D02*
X974563Y294163D01*
Y291624D01*
X975832Y290354D01*
X980910D01*
X982180Y291624D01*
Y294163D01*
X980910Y295432D01*
X974563Y303050D02*
X975832Y300511D01*
X978371Y297972D01*
X980910D01*
X982180Y299241D01*
Y301780D01*
X980910Y303050D01*
X979641D01*
X978371Y301780D01*
Y297972D01*
X848832Y295432D02*
X847562Y294163D01*
Y291624D01*
X848832Y290354D01*
X853910D01*
X855180Y291624D01*
Y294163D01*
X853910Y295432D01*
X847562Y303050D02*
Y297972D01*
X851371D01*
X850102Y300511D01*
Y301780D01*
X851371Y303050D01*
X853910D01*
X855180Y301780D01*
Y299241D01*
X853910Y297972D01*
X721832Y295432D02*
X720563Y294163D01*
Y291624D01*
X721832Y290354D01*
X726910D01*
X728180Y291624D01*
Y294163D01*
X726910Y295432D01*
X728180Y301780D02*
X720563D01*
X724371Y297972D01*
Y303050D01*
X594832Y295432D02*
X593563Y294163D01*
Y291624D01*
X594832Y290354D01*
X599910D01*
X601180Y291624D01*
Y294163D01*
X599910Y295432D01*
X594832Y297972D02*
X593563Y299241D01*
Y301780D01*
X594832Y303050D01*
X596102D01*
X597371Y301780D01*
Y300511D01*
Y301780D01*
X598641Y303050D01*
X599910D01*
X601180Y301780D01*
Y299241D01*
X599910Y297972D01*
X467832Y295432D02*
X466562Y294163D01*
Y291624D01*
X467832Y290354D01*
X472910D01*
X474180Y291624D01*
Y294163D01*
X472910Y295432D01*
X474180Y303050D02*
Y297972D01*
X469102Y303050D01*
X467832D01*
X466562Y301780D01*
Y299241D01*
X467832Y297972D01*
X347182Y291622D02*
X345913Y290352D01*
Y287813D01*
X347182Y286543D01*
X352260D01*
X353530Y287813D01*
Y290352D01*
X352260Y291622D01*
X353530Y294161D02*
Y296700D01*
Y295430D01*
X345913D01*
X347182Y294161D01*
X1346670Y539270D02*
X1352112D01*
X1353200Y539633D01*
X1353926Y540358D01*
X1354288Y541447D01*
Y542172D01*
X1353926Y543261D01*
X1353200Y543986D01*
X1352112Y544349D01*
X1346670D01*
X1348121Y546453D02*
X1347758Y547179D01*
X1346670Y548267D01*
X1354288D01*
X1346670Y554216D02*
X1347033Y553128D01*
X1348121Y552403D01*
X1349935Y552040D01*
X1351023D01*
X1352837Y552403D01*
X1353926Y553128D01*
X1354288Y554216D01*
Y554942D01*
X1353926Y556030D01*
X1352837Y556756D01*
X1351023Y557119D01*
X1349935D01*
X1348121Y556756D01*
X1347033Y556030D01*
X1346670Y554942D01*
Y554216D01*
X1219670Y539270D02*
X1225112D01*
X1226200Y539633D01*
X1226926Y540358D01*
X1227288Y541447D01*
Y542172D01*
X1226926Y543261D01*
X1226200Y543986D01*
X1225112Y544349D01*
X1219670D01*
X1222209Y551169D02*
X1223298Y550806D01*
X1224023Y550081D01*
X1224386Y548993D01*
Y548630D01*
X1224023Y547541D01*
X1223298Y546816D01*
X1222209Y546453D01*
X1221847D01*
X1220758Y546816D01*
X1220033Y547541D01*
X1219670Y548630D01*
Y548993D01*
X1220033Y550081D01*
X1220758Y550806D01*
X1222209Y551169D01*
X1224023D01*
X1225837Y550806D01*
X1226926Y550081D01*
X1227288Y548993D01*
Y548267D01*
X1226926Y547179D01*
X1226200Y546816D01*
X1092670Y539270D02*
X1098112D01*
X1099200Y539633D01*
X1099926Y540358D01*
X1100288Y541447D01*
Y542172D01*
X1099926Y543261D01*
X1099200Y543986D01*
X1098112Y544349D01*
X1092670D01*
Y548267D02*
X1093033Y547179D01*
X1093758Y546816D01*
X1094484D01*
X1095210Y547179D01*
X1095572Y547904D01*
X1095935Y549355D01*
X1096298Y550444D01*
X1097023Y551169D01*
X1097749Y551532D01*
X1098837D01*
X1099563Y551169D01*
X1099926Y550806D01*
X1100288Y549718D01*
Y548267D01*
X1099926Y547179D01*
X1099563Y546816D01*
X1098837Y546453D01*
X1097749D01*
X1097023Y546816D01*
X1096298Y547541D01*
X1095935Y548630D01*
X1095572Y550081D01*
X1095210Y550806D01*
X1094484Y551169D01*
X1093758D01*
X1093033Y550806D01*
X1092670Y549718D01*
Y548267D01*
X965670Y539270D02*
X971112D01*
X972200Y539633D01*
X972926Y540358D01*
X973288Y541447D01*
Y542172D01*
X972926Y543261D01*
X972200Y543986D01*
X971112Y544349D01*
X965670D01*
Y551532D02*
X973288Y547904D01*
X965670Y546453D02*
Y551532D01*
X838670Y539270D02*
X844112D01*
X845200Y539633D01*
X845926Y540358D01*
X846288Y541447D01*
Y542172D01*
X845926Y543261D01*
X845200Y543986D01*
X844112Y544349D01*
X838670D01*
X839758Y550806D02*
X839033Y550444D01*
X838670Y549355D01*
Y548630D01*
X839033Y547541D01*
X840121Y546816D01*
X841935Y546453D01*
X843749D01*
X845200Y546816D01*
X845926Y547541D01*
X846288Y548630D01*
Y548993D01*
X845926Y550081D01*
X845200Y550806D01*
X844112Y551169D01*
X843749D01*
X842661Y550806D01*
X841935Y550081D01*
X841572Y548993D01*
Y548630D01*
X841935Y547541D01*
X842661Y546816D01*
X843749Y546453D01*
X711670Y539270D02*
X717112D01*
X718200Y539633D01*
X718926Y540358D01*
X719288Y541447D01*
Y542172D01*
X718926Y543261D01*
X718200Y543986D01*
X717112Y544349D01*
X711670D01*
Y550806D02*
Y547179D01*
X714935Y546816D01*
X714572Y547179D01*
X714210Y548267D01*
Y549355D01*
X714572Y550444D01*
X715298Y551169D01*
X716386Y551532D01*
X717112D01*
X718200Y551169D01*
X718926Y550444D01*
X719288Y549355D01*
Y548267D01*
X718926Y547179D01*
X718563Y546816D01*
X717837Y546453D01*
X584670Y539270D02*
X590112D01*
X591200Y539633D01*
X591926Y540358D01*
X592288Y541447D01*
Y542172D01*
X591926Y543261D01*
X591200Y543986D01*
X590112Y544349D01*
X584670D01*
Y550081D02*
X589749Y546453D01*
Y551895D01*
X584670Y550081D02*
X592288D01*
X457670Y539270D02*
X463112D01*
X464200Y539633D01*
X464926Y540358D01*
X465288Y541447D01*
Y542172D01*
X464926Y543261D01*
X464200Y543986D01*
X463112Y544349D01*
X457670D01*
Y547179D02*
Y551169D01*
X460572Y548993D01*
Y550081D01*
X460935Y550806D01*
X461298Y551169D01*
X462386Y551532D01*
X463112D01*
X464200Y551169D01*
X464926Y550444D01*
X465288Y549355D01*
Y548267D01*
X464926Y547179D01*
X464563Y546816D01*
X463837Y546453D01*
X330670Y539270D02*
X336112D01*
X337200Y539633D01*
X337926Y540358D01*
X338288Y541447D01*
Y542172D01*
X337926Y543261D01*
X337200Y543986D01*
X336112Y544349D01*
X330670D01*
X332484Y546816D02*
X332121D01*
X331396Y547179D01*
X331033Y547541D01*
X330670Y548267D01*
Y549718D01*
X331033Y550444D01*
X331396Y550806D01*
X332121Y551169D01*
X332847D01*
X333572Y550806D01*
X334661Y550081D01*
X338288Y546453D01*
Y551532D01*
X193512Y539270D02*
X198953D01*
X200042Y539633D01*
X200767Y540358D01*
X201130Y541447D01*
Y542172D01*
X200767Y543261D01*
X200042Y543986D01*
X198953Y544349D01*
X193512D01*
X194963Y546453D02*
X194600Y547179D01*
X193512Y548267D01*
X201130D01*
X328130Y595150D02*
X335748D01*
X328130D02*
Y597690D01*
X328493Y598778D01*
X329218Y599503D01*
X329944Y599866D01*
X331032Y600229D01*
X332846D01*
X333935Y599866D01*
X334660Y599503D01*
X335386Y598778D01*
X335748Y597690D01*
Y595150D01*
X329944Y602297D02*
X329581D01*
X328856Y602660D01*
X328493Y603022D01*
X328130Y603748D01*
Y605199D01*
X328493Y605925D01*
X328856Y606287D01*
X329581Y606650D01*
X330307D01*
X331032Y606287D01*
X332121Y605562D01*
X335748Y601934D01*
Y607013D01*
X196052Y595150D02*
X203670D01*
X196052D02*
Y597690D01*
X196414Y598778D01*
X197140Y599503D01*
X197866Y599866D01*
X198954Y600229D01*
X200768D01*
X201856Y599866D01*
X202582Y599503D01*
X203307Y598778D01*
X203670Y597690D01*
Y595150D01*
X197503Y601934D02*
X197140Y602660D01*
X196052Y603748D01*
X203670D01*
X229070Y637058D02*
X234149Y629440D01*
Y637058D02*
X229070Y629440D01*
X235854Y637058D02*
Y629440D01*
Y637058D02*
X240570D01*
X235854Y633431D02*
X238756D01*
X241441Y635607D02*
X242166Y635970D01*
X243255Y637058D01*
Y629440D01*
X688808Y251162D02*
X683004D01*
X681916Y251525D01*
X681553Y251888D01*
X681190Y252613D01*
Y253339D01*
X681553Y254065D01*
X681916Y254427D01*
X683004Y254790D01*
X683729D01*
X688808Y245575D02*
X683729Y249203D01*
Y243762D01*
X688808Y245575D02*
X681190D01*
X582130Y595150D02*
X589748D01*
X582130D02*
Y597690D01*
X582493Y598778D01*
X583218Y599503D01*
X583944Y599866D01*
X585032Y600229D01*
X586846D01*
X587934Y599866D01*
X588660Y599503D01*
X589386Y598778D01*
X589748Y597690D01*
Y595150D01*
X582130Y605562D02*
X587209Y601934D01*
Y607376D01*
X582130Y605562D02*
X589748D01*
X1196808Y251162D02*
X1191004D01*
X1189916Y251525D01*
X1189553Y251888D01*
X1189190Y252613D01*
Y253339D01*
X1189553Y254065D01*
X1189916Y254427D01*
X1191004Y254790D01*
X1191730D01*
X1196808Y247389D02*
X1196446Y248478D01*
X1195720Y248840D01*
X1194995D01*
X1194269Y248478D01*
X1193906Y247752D01*
X1193543Y246301D01*
X1193181Y245213D01*
X1192455Y244487D01*
X1191730Y244124D01*
X1190641D01*
X1189916Y244487D01*
X1189553Y244850D01*
X1189190Y245938D01*
Y247389D01*
X1189553Y248478D01*
X1189916Y248840D01*
X1190641Y249203D01*
X1191730D01*
X1192455Y248840D01*
X1193181Y248115D01*
X1193543Y247027D01*
X1193906Y245575D01*
X1194269Y244850D01*
X1194995Y244487D01*
X1195720D01*
X1196446Y244850D01*
X1196808Y245938D01*
Y247389D01*
X942808Y251162D02*
X937004D01*
X935916Y251525D01*
X935553Y251888D01*
X935190Y252613D01*
Y253339D01*
X935553Y254065D01*
X935916Y254427D01*
X937004Y254790D01*
X937729D01*
X941720Y244850D02*
X942446Y245213D01*
X942808Y246301D01*
Y247027D01*
X942446Y248115D01*
X941357Y248840D01*
X939543Y249203D01*
X937729D01*
X936278Y248840D01*
X935553Y248115D01*
X935190Y247027D01*
Y246664D01*
X935553Y245575D01*
X936278Y244850D01*
X937367Y244487D01*
X937729D01*
X938818Y244850D01*
X939543Y245575D01*
X939906Y246664D01*
Y247027D01*
X939543Y248115D01*
X938818Y248840D01*
X937729Y249203D01*
X323048Y304502D02*
X317244D01*
X316156Y304865D01*
X315793Y305228D01*
X315430Y305953D01*
Y306679D01*
X315793Y307404D01*
X316156Y307767D01*
X317244Y308130D01*
X317969D01*
X321597Y302543D02*
X321960Y301818D01*
X323048Y300729D01*
X315430D01*
X434808Y251162D02*
X429004D01*
X427916Y251525D01*
X427553Y251888D01*
X427190Y252613D01*
Y253339D01*
X427553Y254065D01*
X427916Y254427D01*
X429004Y254790D01*
X429729D01*
X432994Y248840D02*
X433357D01*
X434083Y248478D01*
X434446Y248115D01*
X434808Y247389D01*
Y245938D01*
X434446Y245213D01*
X434083Y244850D01*
X433357Y244487D01*
X432632D01*
X431906Y244850D01*
X430818Y245575D01*
X427190Y249203D01*
Y244124D01*
X1245070Y637058D02*
X1250149Y629440D01*
Y637058D02*
X1245070Y629440D01*
X1251854Y637058D02*
Y629440D01*
Y637058D02*
X1256570D01*
X1251854Y633431D02*
X1254756D01*
X1262157Y634519D02*
X1261794Y633431D01*
X1261069Y632705D01*
X1259980Y632342D01*
X1259617D01*
X1258529Y632705D01*
X1257804Y633431D01*
X1257441Y634519D01*
Y634882D01*
X1257804Y635970D01*
X1258529Y636696D01*
X1259617Y637058D01*
X1259980D01*
X1261069Y636696D01*
X1261794Y635970D01*
X1262157Y634519D01*
Y632705D01*
X1261794Y630891D01*
X1261069Y629803D01*
X1259980Y629440D01*
X1259255D01*
X1258166Y629803D01*
X1257804Y630528D01*
X1118070Y637058D02*
X1123149Y629440D01*
Y637058D02*
X1118070Y629440D01*
X1124854Y637058D02*
Y629440D01*
Y637058D02*
X1129570D01*
X1124854Y633431D02*
X1127756D01*
X1132255Y637058D02*
X1131166Y636696D01*
X1130804Y635970D01*
Y635244D01*
X1131166Y634519D01*
X1131892Y634156D01*
X1133343Y633793D01*
X1134431Y633431D01*
X1135157Y632705D01*
X1135520Y631979D01*
Y630891D01*
X1135157Y630166D01*
X1134794Y629803D01*
X1133706Y629440D01*
X1132255D01*
X1131166Y629803D01*
X1130804Y630166D01*
X1130441Y630891D01*
Y631979D01*
X1130804Y632705D01*
X1131529Y633431D01*
X1132617Y633793D01*
X1134069Y634156D01*
X1134794Y634519D01*
X1135157Y635244D01*
Y635970D01*
X1134794Y636696D01*
X1133706Y637058D01*
X1132255D01*
X991070D02*
X996149Y629440D01*
Y637058D02*
X991070Y629440D01*
X997854Y637058D02*
Y629440D01*
Y637058D02*
X1002570D01*
X997854Y633431D02*
X1000756D01*
X1008520Y637058D02*
X1004892Y629440D01*
X1003441Y637058D02*
X1008520D01*
X864070D02*
X869149Y629440D01*
Y637058D02*
X864070Y629440D01*
X870854Y637058D02*
Y629440D01*
Y637058D02*
X875570D01*
X870854Y633431D02*
X873756D01*
X880794Y635970D02*
X880431Y636696D01*
X879343Y637058D01*
X878617D01*
X877529Y636696D01*
X876804Y635607D01*
X876441Y633793D01*
Y631979D01*
X876804Y630528D01*
X877529Y629803D01*
X878617Y629440D01*
X878980D01*
X880069Y629803D01*
X880794Y630528D01*
X881157Y631617D01*
Y631979D01*
X880794Y633068D01*
X880069Y633793D01*
X878980Y634156D01*
X878617D01*
X877529Y633793D01*
X876804Y633068D01*
X876441Y631979D01*
X737070Y637058D02*
X742149Y629440D01*
Y637058D02*
X737070Y629440D01*
X743854Y637058D02*
Y629440D01*
Y637058D02*
X748570D01*
X743854Y633431D02*
X746756D01*
X753794Y637058D02*
X750166D01*
X749804Y633793D01*
X750166Y634156D01*
X751255Y634519D01*
X752343D01*
X753431Y634156D01*
X754157Y633431D01*
X754520Y632342D01*
Y631617D01*
X754157Y630528D01*
X753431Y629803D01*
X752343Y629440D01*
X751255D01*
X750166Y629803D01*
X749804Y630166D01*
X749441Y630891D01*
X610070Y637058D02*
X615149Y629440D01*
Y637058D02*
X610070Y629440D01*
X616854Y637058D02*
Y629440D01*
Y637058D02*
X621570D01*
X616854Y633431D02*
X619756D01*
X626069Y637058D02*
X622441Y631979D01*
X627882D01*
X626069Y637058D02*
Y629440D01*
X483070Y637058D02*
X488149Y629440D01*
Y637058D02*
X483070Y629440D01*
X489854Y637058D02*
Y629440D01*
Y637058D02*
X494570D01*
X489854Y633431D02*
X492756D01*
X496166Y637058D02*
X500157D01*
X497980Y634156D01*
X499069D01*
X499794Y633793D01*
X500157Y633431D01*
X500520Y632342D01*
Y631617D01*
X500157Y630528D01*
X499431Y629803D01*
X498343Y629440D01*
X497255D01*
X496166Y629803D01*
X495804Y630166D01*
X495441Y630891D01*
X356070Y637058D02*
X361149Y629440D01*
Y637058D02*
X356070Y629440D01*
X362854Y637058D02*
Y629440D01*
Y637058D02*
X367570D01*
X362854Y633431D02*
X365756D01*
X368804Y635244D02*
Y635607D01*
X369166Y636333D01*
X369529Y636696D01*
X370255Y637058D01*
X371706D01*
X372431Y636696D01*
X372794Y636333D01*
X373157Y635607D01*
Y634882D01*
X372794Y634156D01*
X372069Y633068D01*
X368441Y629440D01*
X373520D01*
X1323808Y251162D02*
X1318004D01*
X1316916Y251525D01*
X1316553Y251888D01*
X1316190Y252613D01*
Y253339D01*
X1316553Y254064D01*
X1316916Y254427D01*
X1318004Y254790D01*
X1318730D01*
X1321269Y244487D02*
X1320181Y244850D01*
X1319455Y245575D01*
X1319092Y246664D01*
Y247027D01*
X1319455Y248115D01*
X1320181Y248840D01*
X1321269Y249203D01*
X1321632D01*
X1322720Y248840D01*
X1323446Y248115D01*
X1323808Y247027D01*
Y246664D01*
X1323446Y245575D01*
X1322720Y244850D01*
X1321269Y244487D01*
X1319455D01*
X1317641Y244850D01*
X1316553Y245575D01*
X1316190Y246664D01*
Y247389D01*
X1316553Y248478D01*
X1317278Y248840D01*
X1069808Y251162D02*
X1064004D01*
X1062916Y251525D01*
X1062553Y251888D01*
X1062190Y252613D01*
Y253339D01*
X1062553Y254065D01*
X1062916Y254427D01*
X1064004Y254790D01*
X1064730D01*
X1069808Y244124D02*
X1062190Y247752D01*
X1069808Y249203D02*
Y244124D01*
X815808Y251162D02*
X810004D01*
X808916Y251525D01*
X808553Y251888D01*
X808190Y252613D01*
Y253339D01*
X808553Y254065D01*
X808916Y254427D01*
X810004Y254790D01*
X810730D01*
X815808Y244850D02*
Y248478D01*
X812543Y248840D01*
X812906Y248478D01*
X813269Y247389D01*
Y246301D01*
X812906Y245213D01*
X812181Y244487D01*
X811092Y244124D01*
X810367D01*
X809278Y244487D01*
X808553Y245213D01*
X808190Y246301D01*
Y247389D01*
X808553Y248478D01*
X808916Y248840D01*
X809641Y249203D01*
X561808Y251162D02*
X556004D01*
X554916Y251525D01*
X554553Y251888D01*
X554190Y252613D01*
Y253339D01*
X554553Y254065D01*
X554916Y254427D01*
X556004Y254790D01*
X556730D01*
X561808Y248478D02*
Y244487D01*
X558906Y246664D01*
Y245575D01*
X558543Y244850D01*
X558181Y244487D01*
X557092Y244124D01*
X556367D01*
X555278Y244487D01*
X554553Y245213D01*
X554190Y246301D01*
Y247389D01*
X554553Y248478D01*
X554916Y248840D01*
X555641Y249203D01*
X1344130Y595150D02*
X1351748D01*
X1344130D02*
Y597690D01*
X1344493Y598778D01*
X1345218Y599503D01*
X1345944Y599866D01*
X1347032Y600229D01*
X1348846D01*
X1349935Y599866D01*
X1350660Y599503D01*
X1351386Y598778D01*
X1351748Y597690D01*
Y595150D01*
X1345581Y601934D02*
X1345218Y602660D01*
X1344130Y603748D01*
X1351748D01*
X1344130Y609697D02*
X1344493Y608609D01*
X1345581Y607884D01*
X1347395Y607521D01*
X1348483D01*
X1350297Y607884D01*
X1351386Y608609D01*
X1351748Y609697D01*
Y610423D01*
X1351386Y611511D01*
X1350297Y612237D01*
X1348483Y612600D01*
X1347395D01*
X1345581Y612237D01*
X1344493Y611511D01*
X1344130Y610423D01*
Y609697D01*
X1217130Y595150D02*
X1224748D01*
X1217130D02*
Y597690D01*
X1217493Y598778D01*
X1218218Y599503D01*
X1218944Y599866D01*
X1220032Y600229D01*
X1221846D01*
X1222934Y599866D01*
X1223660Y599503D01*
X1224386Y598778D01*
X1224748Y597690D01*
Y595150D01*
X1219669Y606650D02*
X1220758Y606287D01*
X1221483Y605562D01*
X1221846Y604473D01*
Y604111D01*
X1221483Y603022D01*
X1220758Y602297D01*
X1219669Y601934D01*
X1219307D01*
X1218218Y602297D01*
X1217493Y603022D01*
X1217130Y604111D01*
Y604473D01*
X1217493Y605562D01*
X1218218Y606287D01*
X1219669Y606650D01*
X1221483D01*
X1223297Y606287D01*
X1224386Y605562D01*
X1224748Y604473D01*
Y603748D01*
X1224386Y602660D01*
X1223660Y602297D01*
X1090130Y595150D02*
X1097748D01*
X1090130D02*
Y597690D01*
X1090493Y598778D01*
X1091218Y599503D01*
X1091944Y599866D01*
X1093032Y600229D01*
X1094846D01*
X1095935Y599866D01*
X1096660Y599503D01*
X1097386Y598778D01*
X1097748Y597690D01*
Y595150D01*
X1090130Y603748D02*
X1090493Y602660D01*
X1091218Y602297D01*
X1091944D01*
X1092670Y602660D01*
X1093032Y603385D01*
X1093395Y604836D01*
X1093758Y605925D01*
X1094483Y606650D01*
X1095209Y607013D01*
X1096297D01*
X1097023Y606650D01*
X1097386Y606287D01*
X1097748Y605199D01*
Y603748D01*
X1097386Y602660D01*
X1097023Y602297D01*
X1096297Y601934D01*
X1095209D01*
X1094483Y602297D01*
X1093758Y603022D01*
X1093395Y604111D01*
X1093032Y605562D01*
X1092670Y606287D01*
X1091944Y606650D01*
X1091218D01*
X1090493Y606287D01*
X1090130Y605199D01*
Y603748D01*
X963130Y595150D02*
X970748D01*
X963130D02*
Y597690D01*
X963493Y598778D01*
X964218Y599503D01*
X964944Y599866D01*
X966032Y600229D01*
X967846D01*
X968934Y599866D01*
X969660Y599503D01*
X970386Y598778D01*
X970748Y597690D01*
Y595150D01*
X963130Y607013D02*
X970748Y603385D01*
X963130Y601934D02*
Y607013D01*
X836130Y595150D02*
X843748D01*
X836130D02*
Y597690D01*
X836493Y598778D01*
X837218Y599503D01*
X837944Y599866D01*
X839032Y600229D01*
X840846D01*
X841935Y599866D01*
X842660Y599503D01*
X843386Y598778D01*
X843748Y597690D01*
Y595150D01*
X837218Y606287D02*
X836493Y605925D01*
X836130Y604836D01*
Y604111D01*
X836493Y603022D01*
X837581Y602297D01*
X839395Y601934D01*
X841209D01*
X842660Y602297D01*
X843386Y603022D01*
X843748Y604111D01*
Y604473D01*
X843386Y605562D01*
X842660Y606287D01*
X841572Y606650D01*
X841209D01*
X840121Y606287D01*
X839395Y605562D01*
X839032Y604473D01*
Y604111D01*
X839395Y603022D01*
X840121Y602297D01*
X841209Y601934D01*
X709130Y595150D02*
X716748D01*
X709130D02*
Y597690D01*
X709493Y598778D01*
X710218Y599503D01*
X710944Y599866D01*
X712032Y600229D01*
X713846D01*
X714934Y599866D01*
X715660Y599503D01*
X716386Y598778D01*
X716748Y597690D01*
Y595150D01*
X709130Y606287D02*
Y602660D01*
X712395Y602297D01*
X712032Y602660D01*
X711669Y603748D01*
Y604836D01*
X712032Y605925D01*
X712758Y606650D01*
X713846Y607013D01*
X714572D01*
X715660Y606650D01*
X716386Y605925D01*
X716748Y604836D01*
Y603748D01*
X716386Y602660D01*
X716023Y602297D01*
X715297Y601934D01*
X455130Y595150D02*
X462748D01*
X455130D02*
Y597690D01*
X455493Y598778D01*
X456218Y599503D01*
X456944Y599866D01*
X458032Y600229D01*
X459846D01*
X460934Y599866D01*
X461660Y599503D01*
X462386Y598778D01*
X462748Y597690D01*
Y595150D01*
X455130Y602660D02*
Y606650D01*
X458032Y604473D01*
Y605562D01*
X458395Y606287D01*
X458758Y606650D01*
X459846Y607013D01*
X460572D01*
X461660Y606650D01*
X462386Y605925D01*
X462748Y604836D01*
Y603748D01*
X462386Y602660D01*
X462023Y602297D01*
X461297Y601934D01*
X1119340Y1206020D02*
X1190460D01*
X1119340Y1002820D02*
Y1206020D01*
Y1002820D02*
X1190460D01*
Y1206020D01*
X484340D02*
X555460D01*
X484340Y1002820D02*
Y1206020D01*
Y1002820D02*
X555460D01*
Y1206020D01*
X655900Y733920D02*
X657900Y735920D01*
X637900Y733920D02*
X655900D01*
X619900Y751920D02*
Y838920D01*
Y751920D02*
X637900Y733920D01*
X619900Y838920D02*
X673900D01*
Y751920D02*
Y838920D01*
X657900Y735920D02*
X673900Y751920D01*
X248577Y732056D02*
X283223D01*
X309080Y761320D01*
Y892330D01*
X222720D02*
X309080D01*
X222720Y761338D02*
Y892330D01*
Y761338D02*
X248577Y732056D01*
X230340Y1002820D02*
Y1206020D01*
X301460D01*
Y1002820D02*
Y1206020D01*
X230340Y1002820D02*
X301460D01*
X1036900Y733920D02*
X1038900Y735920D01*
X1018900Y733920D02*
X1036900D01*
X1000900Y751920D02*
Y838920D01*
Y751920D02*
X1018900Y733920D01*
X1000900Y838920D02*
X1054900D01*
Y751920D02*
Y838920D01*
X1038900Y735920D02*
X1054900Y751920D01*
X1290900Y733920D02*
X1292900Y735920D01*
X1272900Y733920D02*
X1290900D01*
X1254900Y751920D02*
Y838920D01*
Y751920D02*
X1272900Y733920D01*
X1254900Y838920D02*
X1308900D01*
Y751920D02*
Y838920D01*
X1292900Y735920D02*
X1308900Y751920D01*
X1165900Y735920D02*
X1181900Y751920D01*
Y838920D01*
X1127900D02*
X1181900D01*
X1127900Y751920D02*
X1145900Y733920D01*
X1127900Y751920D02*
Y838920D01*
X1145900Y733920D02*
X1163900D01*
X1165900Y735920D01*
X782900Y733920D02*
X784900Y735920D01*
X764900Y733920D02*
X782900D01*
X746900Y751920D02*
Y838920D01*
Y751920D02*
X764900Y733920D01*
X746900Y838920D02*
X800900D01*
Y751920D02*
Y838920D01*
X784900Y735920D02*
X800900Y751920D01*
X911900Y735920D02*
X927900Y751920D01*
Y838920D01*
X873900D02*
X927900D01*
X873900Y751920D02*
X891900Y733920D01*
X873900Y751920D02*
Y838920D01*
X891900Y733920D02*
X909900D01*
X911900Y735920D01*
X528900Y733920D02*
X530900Y735920D01*
X510900Y733920D02*
X528900D01*
X492900Y751920D02*
Y838920D01*
Y751920D02*
X510900Y733920D01*
X492900Y838920D02*
X546900D01*
Y751920D02*
Y838920D01*
X530900Y735920D02*
X546900Y751920D01*
X403900Y735920D02*
X419900Y751920D01*
Y838920D01*
X365900D02*
X419900D01*
X365900Y751920D02*
X383900Y733920D01*
X365900Y751920D02*
Y838920D01*
X383900Y733920D02*
X401900D01*
X403900Y735920D01*
X936460Y1002820D02*
Y1206020D01*
X865340Y1002820D02*
X936460D01*
X865340D02*
Y1206020D01*
X936460D01*
X809460Y1002820D02*
Y1206020D01*
X738340Y1002820D02*
X809460D01*
X738340D02*
Y1206020D01*
X809460D01*
X1317460Y1002820D02*
Y1206020D01*
X1246340Y1002820D02*
X1317460D01*
X1246340D02*
Y1206020D01*
X1317460D01*
X1063460Y1002820D02*
Y1206020D01*
X992340Y1002820D02*
X1063460D01*
X992340D02*
Y1206020D01*
X1063460D01*
X428460Y1002820D02*
Y1206020D01*
X357340Y1002820D02*
X428460D01*
X357340D02*
Y1206020D01*
X428460D01*
X682460Y1002820D02*
Y1206020D01*
X611340Y1002820D02*
X682460D01*
X611340D02*
Y1206020D01*
X682460D01*
X1229832Y879632D02*
X1228562Y878363D01*
Y875824D01*
X1229832Y874554D01*
X1234910D01*
X1236180Y875824D01*
Y878363D01*
X1234910Y879632D01*
X1229832Y882172D02*
X1228562Y883441D01*
Y885980D01*
X1229832Y887250D01*
X1231102D01*
X1232371Y885980D01*
X1233641Y887250D01*
X1234910D01*
X1236180Y885980D01*
Y883441D01*
X1234910Y882172D01*
X1233641D01*
X1232371Y883441D01*
X1231102Y882172D01*
X1229832D01*
X1232371Y883441D02*
Y885980D01*
X1102832Y879632D02*
X1101562Y878363D01*
Y875824D01*
X1102832Y874554D01*
X1107910D01*
X1109180Y875824D01*
Y878363D01*
X1107910Y879632D01*
X1101562Y882172D02*
Y887250D01*
X1102832D01*
X1107910Y882172D01*
X1109180D01*
X975832Y879632D02*
X974563Y878363D01*
Y875824D01*
X975832Y874554D01*
X980910D01*
X982180Y875824D01*
Y878363D01*
X980910Y879632D01*
X974563Y887250D02*
X975832Y884711D01*
X978371Y882172D01*
X980910D01*
X982180Y883441D01*
Y885980D01*
X980910Y887250D01*
X979641D01*
X978371Y885980D01*
Y882172D01*
X848832Y879632D02*
X847562Y878363D01*
Y875824D01*
X848832Y874554D01*
X853910D01*
X855180Y875824D01*
Y878363D01*
X853910Y879632D01*
X847562Y887250D02*
Y882172D01*
X851371D01*
X850102Y884711D01*
Y885980D01*
X851371Y887250D01*
X853910D01*
X855180Y885980D01*
Y883441D01*
X853910Y882172D01*
X721832Y879632D02*
X720563Y878363D01*
Y875824D01*
X721832Y874554D01*
X726910D01*
X728180Y875824D01*
Y878363D01*
X726910Y879632D01*
X728180Y885980D02*
X720563D01*
X724371Y882172D01*
Y887250D01*
X594832Y879632D02*
X593563Y878363D01*
Y875824D01*
X594832Y874554D01*
X599910D01*
X601180Y875824D01*
Y878363D01*
X599910Y879632D01*
X594832Y882172D02*
X593563Y883441D01*
Y885980D01*
X594832Y887250D01*
X596102D01*
X597371Y885980D01*
Y884711D01*
Y885980D01*
X598641Y887250D01*
X599910D01*
X601180Y885980D01*
Y883441D01*
X599910Y882172D01*
X467832Y879632D02*
X466562Y878363D01*
Y875824D01*
X467832Y874554D01*
X472910D01*
X474180Y875824D01*
Y878363D01*
X472910Y879632D01*
X474180Y887250D02*
Y882172D01*
X469102Y887250D01*
X467832D01*
X466562Y885980D01*
Y883441D01*
X467832Y882172D01*
X347182Y875822D02*
X345913Y874552D01*
Y872013D01*
X347182Y870743D01*
X352260D01*
X353530Y872013D01*
Y874552D01*
X352260Y875822D01*
X353530Y878361D02*
Y880900D01*
Y879630D01*
X345913D01*
X347182Y878361D01*
X1346670Y1123470D02*
X1352112D01*
X1353200Y1123833D01*
X1353926Y1124558D01*
X1354288Y1125647D01*
Y1126372D01*
X1353926Y1127461D01*
X1353200Y1128186D01*
X1352112Y1128549D01*
X1346670D01*
X1348121Y1130653D02*
X1347758Y1131379D01*
X1346670Y1132467D01*
X1354288D01*
X1346670Y1138417D02*
X1347033Y1137328D01*
X1348121Y1136603D01*
X1349935Y1136240D01*
X1351023D01*
X1352837Y1136603D01*
X1353926Y1137328D01*
X1354288Y1138417D01*
Y1139142D01*
X1353926Y1140230D01*
X1352837Y1140956D01*
X1351023Y1141319D01*
X1349935D01*
X1348121Y1140956D01*
X1347033Y1140230D01*
X1346670Y1139142D01*
Y1138417D01*
X1219670Y1123470D02*
X1225112D01*
X1226200Y1123833D01*
X1226926Y1124558D01*
X1227288Y1125647D01*
Y1126372D01*
X1226926Y1127461D01*
X1226200Y1128186D01*
X1225112Y1128549D01*
X1219670D01*
X1222209Y1135369D02*
X1223298Y1135006D01*
X1224023Y1134281D01*
X1224386Y1133193D01*
Y1132830D01*
X1224023Y1131741D01*
X1223298Y1131016D01*
X1222209Y1130653D01*
X1221847D01*
X1220758Y1131016D01*
X1220033Y1131741D01*
X1219670Y1132830D01*
Y1133193D01*
X1220033Y1134281D01*
X1220758Y1135006D01*
X1222209Y1135369D01*
X1224023D01*
X1225837Y1135006D01*
X1226926Y1134281D01*
X1227288Y1133193D01*
Y1132467D01*
X1226926Y1131379D01*
X1226200Y1131016D01*
X1092670Y1123470D02*
X1098112D01*
X1099200Y1123833D01*
X1099926Y1124558D01*
X1100288Y1125647D01*
Y1126372D01*
X1099926Y1127461D01*
X1099200Y1128186D01*
X1098112Y1128549D01*
X1092670D01*
Y1132467D02*
X1093033Y1131379D01*
X1093758Y1131016D01*
X1094484D01*
X1095210Y1131379D01*
X1095572Y1132104D01*
X1095935Y1133555D01*
X1096298Y1134644D01*
X1097023Y1135369D01*
X1097749Y1135732D01*
X1098837D01*
X1099563Y1135369D01*
X1099926Y1135006D01*
X1100288Y1133918D01*
Y1132467D01*
X1099926Y1131379D01*
X1099563Y1131016D01*
X1098837Y1130653D01*
X1097749D01*
X1097023Y1131016D01*
X1096298Y1131741D01*
X1095935Y1132830D01*
X1095572Y1134281D01*
X1095210Y1135006D01*
X1094484Y1135369D01*
X1093758D01*
X1093033Y1135006D01*
X1092670Y1133918D01*
Y1132467D01*
X965670Y1123470D02*
X971112D01*
X972200Y1123833D01*
X972926Y1124558D01*
X973288Y1125647D01*
Y1126372D01*
X972926Y1127461D01*
X972200Y1128186D01*
X971112Y1128549D01*
X965670D01*
Y1135732D02*
X973288Y1132104D01*
X965670Y1130653D02*
Y1135732D01*
X838670Y1123470D02*
X844112D01*
X845200Y1123833D01*
X845926Y1124558D01*
X846288Y1125647D01*
Y1126372D01*
X845926Y1127461D01*
X845200Y1128186D01*
X844112Y1128549D01*
X838670D01*
X839758Y1135006D02*
X839033Y1134644D01*
X838670Y1133555D01*
Y1132830D01*
X839033Y1131741D01*
X840121Y1131016D01*
X841935Y1130653D01*
X843749D01*
X845200Y1131016D01*
X845926Y1131741D01*
X846288Y1132830D01*
Y1133193D01*
X845926Y1134281D01*
X845200Y1135006D01*
X844112Y1135369D01*
X843749D01*
X842661Y1135006D01*
X841935Y1134281D01*
X841572Y1133193D01*
Y1132830D01*
X841935Y1131741D01*
X842661Y1131016D01*
X843749Y1130653D01*
X711670Y1123470D02*
X717112D01*
X718200Y1123833D01*
X718926Y1124558D01*
X719288Y1125647D01*
Y1126372D01*
X718926Y1127461D01*
X718200Y1128186D01*
X717112Y1128549D01*
X711670D01*
Y1135006D02*
Y1131379D01*
X714935Y1131016D01*
X714572Y1131379D01*
X714210Y1132467D01*
Y1133555D01*
X714572Y1134644D01*
X715298Y1135369D01*
X716386Y1135732D01*
X717112D01*
X718200Y1135369D01*
X718926Y1134644D01*
X719288Y1133555D01*
Y1132467D01*
X718926Y1131379D01*
X718563Y1131016D01*
X717837Y1130653D01*
X584670Y1123470D02*
X590112D01*
X591200Y1123833D01*
X591926Y1124558D01*
X592288Y1125647D01*
Y1126372D01*
X591926Y1127461D01*
X591200Y1128186D01*
X590112Y1128549D01*
X584670D01*
Y1134281D02*
X589749Y1130653D01*
Y1136095D01*
X584670Y1134281D02*
X592288D01*
X457670Y1123470D02*
X463112D01*
X464200Y1123833D01*
X464926Y1124558D01*
X465288Y1125647D01*
Y1126372D01*
X464926Y1127461D01*
X464200Y1128186D01*
X463112Y1128549D01*
X457670D01*
Y1131379D02*
Y1135369D01*
X460572Y1133193D01*
Y1134281D01*
X460935Y1135006D01*
X461298Y1135369D01*
X462386Y1135732D01*
X463112D01*
X464200Y1135369D01*
X464926Y1134644D01*
X465288Y1133555D01*
Y1132467D01*
X464926Y1131379D01*
X464563Y1131016D01*
X463837Y1130653D01*
X330670Y1123470D02*
X336112D01*
X337200Y1123833D01*
X337926Y1124558D01*
X338288Y1125647D01*
Y1126372D01*
X337926Y1127461D01*
X337200Y1128186D01*
X336112Y1128549D01*
X330670D01*
X332484Y1131016D02*
X332121D01*
X331396Y1131379D01*
X331033Y1131741D01*
X330670Y1132467D01*
Y1133918D01*
X331033Y1134644D01*
X331396Y1135006D01*
X332121Y1135369D01*
X332847D01*
X333572Y1135006D01*
X334661Y1134281D01*
X338288Y1130653D01*
Y1135732D01*
X193512Y1123470D02*
X198953D01*
X200042Y1123833D01*
X200767Y1124558D01*
X201130Y1125647D01*
Y1126372D01*
X200767Y1127461D01*
X200042Y1128186D01*
X198953Y1128549D01*
X193512D01*
X194963Y1130653D02*
X194600Y1131379D01*
X193512Y1132467D01*
X201130D01*
X328130Y1179350D02*
X335748D01*
X328130D02*
Y1181889D01*
X328493Y1182978D01*
X329218Y1183703D01*
X329944Y1184066D01*
X331032Y1184429D01*
X332846D01*
X333935Y1184066D01*
X334660Y1183703D01*
X335386Y1182978D01*
X335748Y1181889D01*
Y1179350D01*
X329944Y1186497D02*
X329581D01*
X328856Y1186860D01*
X328493Y1187222D01*
X328130Y1187948D01*
Y1189399D01*
X328493Y1190125D01*
X328856Y1190487D01*
X329581Y1190850D01*
X330307D01*
X331032Y1190487D01*
X332121Y1189762D01*
X335748Y1186134D01*
Y1191213D01*
X196052Y1179350D02*
X203670D01*
X196052D02*
Y1181889D01*
X196414Y1182978D01*
X197140Y1183703D01*
X197866Y1184066D01*
X198954Y1184429D01*
X200768D01*
X201856Y1184066D01*
X202582Y1183703D01*
X203307Y1182978D01*
X203670Y1181889D01*
Y1179350D01*
X197503Y1186134D02*
X197140Y1186860D01*
X196052Y1187948D01*
X203670D01*
X229070Y1221258D02*
X234149Y1213640D01*
Y1221258D02*
X229070Y1213640D01*
X235854Y1221258D02*
Y1213640D01*
Y1221258D02*
X240570D01*
X235854Y1217631D02*
X238756D01*
X241441Y1219807D02*
X242166Y1220170D01*
X243255Y1221258D01*
Y1213640D01*
X688808Y835362D02*
X683004D01*
X681916Y835725D01*
X681553Y836088D01*
X681190Y836813D01*
Y837539D01*
X681553Y838264D01*
X681916Y838627D01*
X683004Y838990D01*
X683729D01*
X688808Y829775D02*
X683729Y833403D01*
Y827962D01*
X688808Y829775D02*
X681190D01*
X582130Y1179350D02*
X589748D01*
X582130D02*
Y1181889D01*
X582493Y1182978D01*
X583218Y1183703D01*
X583944Y1184066D01*
X585032Y1184429D01*
X586846D01*
X587934Y1184066D01*
X588660Y1183703D01*
X589386Y1182978D01*
X589748Y1181889D01*
Y1179350D01*
X582130Y1189762D02*
X587209Y1186134D01*
Y1191576D01*
X582130Y1189762D02*
X589748D01*
X1196808Y835362D02*
X1191004D01*
X1189916Y835725D01*
X1189553Y836088D01*
X1189190Y836813D01*
Y837539D01*
X1189553Y838264D01*
X1189916Y838627D01*
X1191004Y838990D01*
X1191730D01*
X1196808Y831589D02*
X1196446Y832678D01*
X1195720Y833040D01*
X1194995D01*
X1194269Y832678D01*
X1193906Y831952D01*
X1193543Y830501D01*
X1193181Y829413D01*
X1192455Y828687D01*
X1191730Y828324D01*
X1190641D01*
X1189916Y828687D01*
X1189553Y829050D01*
X1189190Y830138D01*
Y831589D01*
X1189553Y832678D01*
X1189916Y833040D01*
X1190641Y833403D01*
X1191730D01*
X1192455Y833040D01*
X1193181Y832315D01*
X1193543Y831227D01*
X1193906Y829775D01*
X1194269Y829050D01*
X1194995Y828687D01*
X1195720D01*
X1196446Y829050D01*
X1196808Y830138D01*
Y831589D01*
X942808Y835362D02*
X937004D01*
X935916Y835725D01*
X935553Y836088D01*
X935190Y836813D01*
Y837539D01*
X935553Y838264D01*
X935916Y838627D01*
X937004Y838990D01*
X937729D01*
X941720Y829050D02*
X942446Y829413D01*
X942808Y830501D01*
Y831227D01*
X942446Y832315D01*
X941357Y833040D01*
X939543Y833403D01*
X937729D01*
X936278Y833040D01*
X935553Y832315D01*
X935190Y831227D01*
Y830864D01*
X935553Y829775D01*
X936278Y829050D01*
X937367Y828687D01*
X937729D01*
X938818Y829050D01*
X939543Y829775D01*
X939906Y830864D01*
Y831227D01*
X939543Y832315D01*
X938818Y833040D01*
X937729Y833403D01*
X323048Y888702D02*
X317244D01*
X316156Y889065D01*
X315793Y889428D01*
X315430Y890153D01*
Y890879D01*
X315793Y891605D01*
X316156Y891967D01*
X317244Y892330D01*
X317969D01*
X321597Y886743D02*
X321960Y886018D01*
X323048Y884929D01*
X315430D01*
X434808Y835362D02*
X429004D01*
X427916Y835725D01*
X427553Y836088D01*
X427190Y836813D01*
Y837539D01*
X427553Y838264D01*
X427916Y838627D01*
X429004Y838990D01*
X429729D01*
X432994Y833040D02*
X433357D01*
X434083Y832678D01*
X434446Y832315D01*
X434808Y831589D01*
Y830138D01*
X434446Y829413D01*
X434083Y829050D01*
X433357Y828687D01*
X432632D01*
X431906Y829050D01*
X430818Y829775D01*
X427190Y833403D01*
Y828324D01*
X1245070Y1221258D02*
X1250149Y1213640D01*
Y1221258D02*
X1245070Y1213640D01*
X1251854Y1221258D02*
Y1213640D01*
Y1221258D02*
X1256570D01*
X1251854Y1217631D02*
X1254756D01*
X1262157Y1218719D02*
X1261794Y1217631D01*
X1261069Y1216905D01*
X1259980Y1216542D01*
X1259617D01*
X1258529Y1216905D01*
X1257804Y1217631D01*
X1257441Y1218719D01*
Y1219082D01*
X1257804Y1220170D01*
X1258529Y1220896D01*
X1259617Y1221258D01*
X1259980D01*
X1261069Y1220896D01*
X1261794Y1220170D01*
X1262157Y1218719D01*
Y1216905D01*
X1261794Y1215091D01*
X1261069Y1214003D01*
X1259980Y1213640D01*
X1259255D01*
X1258166Y1214003D01*
X1257804Y1214728D01*
X1118070Y1221258D02*
X1123149Y1213640D01*
Y1221258D02*
X1118070Y1213640D01*
X1124854Y1221258D02*
Y1213640D01*
Y1221258D02*
X1129570D01*
X1124854Y1217631D02*
X1127756D01*
X1132255Y1221258D02*
X1131166Y1220896D01*
X1130804Y1220170D01*
Y1219445D01*
X1131166Y1218719D01*
X1131892Y1218356D01*
X1133343Y1217993D01*
X1134431Y1217631D01*
X1135157Y1216905D01*
X1135520Y1216180D01*
Y1215091D01*
X1135157Y1214366D01*
X1134794Y1214003D01*
X1133706Y1213640D01*
X1132255D01*
X1131166Y1214003D01*
X1130804Y1214366D01*
X1130441Y1215091D01*
Y1216180D01*
X1130804Y1216905D01*
X1131529Y1217631D01*
X1132617Y1217993D01*
X1134069Y1218356D01*
X1134794Y1218719D01*
X1135157Y1219445D01*
Y1220170D01*
X1134794Y1220896D01*
X1133706Y1221258D01*
X1132255D01*
X991070D02*
X996149Y1213640D01*
Y1221258D02*
X991070Y1213640D01*
X997854Y1221258D02*
Y1213640D01*
Y1221258D02*
X1002570D01*
X997854Y1217631D02*
X1000756D01*
X1008520Y1221258D02*
X1004892Y1213640D01*
X1003441Y1221258D02*
X1008520D01*
X864070D02*
X869149Y1213640D01*
Y1221258D02*
X864070Y1213640D01*
X870854Y1221258D02*
Y1213640D01*
Y1221258D02*
X875570D01*
X870854Y1217631D02*
X873756D01*
X880794Y1220170D02*
X880431Y1220896D01*
X879343Y1221258D01*
X878617D01*
X877529Y1220896D01*
X876804Y1219807D01*
X876441Y1217993D01*
Y1216180D01*
X876804Y1214728D01*
X877529Y1214003D01*
X878617Y1213640D01*
X878980D01*
X880069Y1214003D01*
X880794Y1214728D01*
X881157Y1215817D01*
Y1216180D01*
X880794Y1217268D01*
X880069Y1217993D01*
X878980Y1218356D01*
X878617D01*
X877529Y1217993D01*
X876804Y1217268D01*
X876441Y1216180D01*
X737070Y1221258D02*
X742149Y1213640D01*
Y1221258D02*
X737070Y1213640D01*
X743854Y1221258D02*
Y1213640D01*
Y1221258D02*
X748570D01*
X743854Y1217631D02*
X746756D01*
X753794Y1221258D02*
X750166D01*
X749804Y1217993D01*
X750166Y1218356D01*
X751255Y1218719D01*
X752343D01*
X753431Y1218356D01*
X754157Y1217631D01*
X754520Y1216542D01*
Y1215817D01*
X754157Y1214728D01*
X753431Y1214003D01*
X752343Y1213640D01*
X751255D01*
X750166Y1214003D01*
X749804Y1214366D01*
X749441Y1215091D01*
X610070Y1221258D02*
X615149Y1213640D01*
Y1221258D02*
X610070Y1213640D01*
X616854Y1221258D02*
Y1213640D01*
Y1221258D02*
X621570D01*
X616854Y1217631D02*
X619756D01*
X626069Y1221258D02*
X622441Y1216180D01*
X627882D01*
X626069Y1221258D02*
Y1213640D01*
X483070Y1221258D02*
X488149Y1213640D01*
Y1221258D02*
X483070Y1213640D01*
X489854Y1221258D02*
Y1213640D01*
Y1221258D02*
X494570D01*
X489854Y1217631D02*
X492756D01*
X496166Y1221258D02*
X500157D01*
X497980Y1218356D01*
X499069D01*
X499794Y1217993D01*
X500157Y1217631D01*
X500520Y1216542D01*
Y1215817D01*
X500157Y1214728D01*
X499431Y1214003D01*
X498343Y1213640D01*
X497255D01*
X496166Y1214003D01*
X495804Y1214366D01*
X495441Y1215091D01*
X356070Y1221258D02*
X361149Y1213640D01*
Y1221258D02*
X356070Y1213640D01*
X362854Y1221258D02*
Y1213640D01*
Y1221258D02*
X367570D01*
X362854Y1217631D02*
X365756D01*
X368804Y1219445D02*
Y1219807D01*
X369166Y1220533D01*
X369529Y1220896D01*
X370255Y1221258D01*
X371706D01*
X372431Y1220896D01*
X372794Y1220533D01*
X373157Y1219807D01*
Y1219082D01*
X372794Y1218356D01*
X372069Y1217268D01*
X368441Y1213640D01*
X373520D01*
X1323808Y835362D02*
X1318004D01*
X1316916Y835725D01*
X1316553Y836088D01*
X1316190Y836813D01*
Y837539D01*
X1316553Y838264D01*
X1316916Y838627D01*
X1318004Y838990D01*
X1318730D01*
X1321269Y828687D02*
X1320181Y829050D01*
X1319455Y829775D01*
X1319092Y830864D01*
Y831227D01*
X1319455Y832315D01*
X1320181Y833040D01*
X1321269Y833403D01*
X1321632D01*
X1322720Y833040D01*
X1323446Y832315D01*
X1323808Y831227D01*
Y830864D01*
X1323446Y829775D01*
X1322720Y829050D01*
X1321269Y828687D01*
X1319455D01*
X1317641Y829050D01*
X1316553Y829775D01*
X1316190Y830864D01*
Y831589D01*
X1316553Y832678D01*
X1317278Y833040D01*
X1069808Y835362D02*
X1064004D01*
X1062916Y835725D01*
X1062553Y836088D01*
X1062190Y836813D01*
Y837539D01*
X1062553Y838264D01*
X1062916Y838627D01*
X1064004Y838990D01*
X1064730D01*
X1069808Y828324D02*
X1062190Y831952D01*
X1069808Y833403D02*
Y828324D01*
X815808Y835362D02*
X810004D01*
X808916Y835725D01*
X808553Y836088D01*
X808190Y836813D01*
Y837539D01*
X808553Y838264D01*
X808916Y838627D01*
X810004Y838990D01*
X810730D01*
X815808Y829050D02*
Y832678D01*
X812543Y833040D01*
X812906Y832678D01*
X813269Y831589D01*
Y830501D01*
X812906Y829413D01*
X812181Y828687D01*
X811092Y828324D01*
X810367D01*
X809278Y828687D01*
X808553Y829413D01*
X808190Y830501D01*
Y831589D01*
X808553Y832678D01*
X808916Y833040D01*
X809641Y833403D01*
X561808Y835362D02*
X556004D01*
X554916Y835725D01*
X554553Y836088D01*
X554190Y836813D01*
Y837539D01*
X554553Y838264D01*
X554916Y838627D01*
X556004Y838990D01*
X556730D01*
X561808Y832678D02*
Y828687D01*
X558906Y830864D01*
Y829775D01*
X558543Y829050D01*
X558181Y828687D01*
X557092Y828324D01*
X556367D01*
X555278Y828687D01*
X554553Y829413D01*
X554190Y830501D01*
Y831589D01*
X554553Y832678D01*
X554916Y833040D01*
X555641Y833403D01*
X1344130Y1179350D02*
X1351748D01*
X1344130D02*
Y1181889D01*
X1344493Y1182978D01*
X1345218Y1183703D01*
X1345944Y1184066D01*
X1347032Y1184429D01*
X1348846D01*
X1349935Y1184066D01*
X1350660Y1183703D01*
X1351386Y1182978D01*
X1351748Y1181889D01*
Y1179350D01*
X1345581Y1186134D02*
X1345218Y1186860D01*
X1344130Y1187948D01*
X1351748D01*
X1344130Y1193897D02*
X1344493Y1192809D01*
X1345581Y1192084D01*
X1347395Y1191721D01*
X1348483D01*
X1350297Y1192084D01*
X1351386Y1192809D01*
X1351748Y1193897D01*
Y1194623D01*
X1351386Y1195711D01*
X1350297Y1196437D01*
X1348483Y1196800D01*
X1347395D01*
X1345581Y1196437D01*
X1344493Y1195711D01*
X1344130Y1194623D01*
Y1193897D01*
X1217130Y1179350D02*
X1224748D01*
X1217130D02*
Y1181889D01*
X1217493Y1182978D01*
X1218218Y1183703D01*
X1218944Y1184066D01*
X1220032Y1184429D01*
X1221846D01*
X1222934Y1184066D01*
X1223660Y1183703D01*
X1224386Y1182978D01*
X1224748Y1181889D01*
Y1179350D01*
X1219669Y1190850D02*
X1220758Y1190487D01*
X1221483Y1189762D01*
X1221846Y1188673D01*
Y1188311D01*
X1221483Y1187222D01*
X1220758Y1186497D01*
X1219669Y1186134D01*
X1219307D01*
X1218218Y1186497D01*
X1217493Y1187222D01*
X1217130Y1188311D01*
Y1188673D01*
X1217493Y1189762D01*
X1218218Y1190487D01*
X1219669Y1190850D01*
X1221483D01*
X1223297Y1190487D01*
X1224386Y1189762D01*
X1224748Y1188673D01*
Y1187948D01*
X1224386Y1186860D01*
X1223660Y1186497D01*
X1090130Y1179350D02*
X1097748D01*
X1090130D02*
Y1181889D01*
X1090493Y1182978D01*
X1091218Y1183703D01*
X1091944Y1184066D01*
X1093032Y1184429D01*
X1094846D01*
X1095935Y1184066D01*
X1096660Y1183703D01*
X1097386Y1182978D01*
X1097748Y1181889D01*
Y1179350D01*
X1090130Y1187948D02*
X1090493Y1186860D01*
X1091218Y1186497D01*
X1091944D01*
X1092670Y1186860D01*
X1093032Y1187585D01*
X1093395Y1189036D01*
X1093758Y1190125D01*
X1094483Y1190850D01*
X1095209Y1191213D01*
X1096297D01*
X1097023Y1190850D01*
X1097386Y1190487D01*
X1097748Y1189399D01*
Y1187948D01*
X1097386Y1186860D01*
X1097023Y1186497D01*
X1096297Y1186134D01*
X1095209D01*
X1094483Y1186497D01*
X1093758Y1187222D01*
X1093395Y1188311D01*
X1093032Y1189762D01*
X1092670Y1190487D01*
X1091944Y1190850D01*
X1091218D01*
X1090493Y1190487D01*
X1090130Y1189399D01*
Y1187948D01*
X963130Y1179350D02*
X970748D01*
X963130D02*
Y1181889D01*
X963493Y1182978D01*
X964218Y1183703D01*
X964944Y1184066D01*
X966032Y1184429D01*
X967846D01*
X968934Y1184066D01*
X969660Y1183703D01*
X970386Y1182978D01*
X970748Y1181889D01*
Y1179350D01*
X963130Y1191213D02*
X970748Y1187585D01*
X963130Y1186134D02*
Y1191213D01*
X836130Y1179350D02*
X843748D01*
X836130D02*
Y1181889D01*
X836493Y1182978D01*
X837218Y1183703D01*
X837944Y1184066D01*
X839032Y1184429D01*
X840846D01*
X841935Y1184066D01*
X842660Y1183703D01*
X843386Y1182978D01*
X843748Y1181889D01*
Y1179350D01*
X837218Y1190487D02*
X836493Y1190125D01*
X836130Y1189036D01*
Y1188311D01*
X836493Y1187222D01*
X837581Y1186497D01*
X839395Y1186134D01*
X841209D01*
X842660Y1186497D01*
X843386Y1187222D01*
X843748Y1188311D01*
Y1188673D01*
X843386Y1189762D01*
X842660Y1190487D01*
X841572Y1190850D01*
X841209D01*
X840121Y1190487D01*
X839395Y1189762D01*
X839032Y1188673D01*
Y1188311D01*
X839395Y1187222D01*
X840121Y1186497D01*
X841209Y1186134D01*
X709130Y1179350D02*
X716748D01*
X709130D02*
Y1181889D01*
X709493Y1182978D01*
X710218Y1183703D01*
X710944Y1184066D01*
X712032Y1184429D01*
X713846D01*
X714934Y1184066D01*
X715660Y1183703D01*
X716386Y1182978D01*
X716748Y1181889D01*
Y1179350D01*
X709130Y1190487D02*
Y1186860D01*
X712395Y1186497D01*
X712032Y1186860D01*
X711669Y1187948D01*
Y1189036D01*
X712032Y1190125D01*
X712758Y1190850D01*
X713846Y1191213D01*
X714572D01*
X715660Y1190850D01*
X716386Y1190125D01*
X716748Y1189036D01*
Y1187948D01*
X716386Y1186860D01*
X716023Y1186497D01*
X715297Y1186134D01*
X455130Y1179350D02*
X462748D01*
X455130D02*
Y1181889D01*
X455493Y1182978D01*
X456218Y1183703D01*
X456944Y1184066D01*
X458032Y1184429D01*
X459846D01*
X460934Y1184066D01*
X461660Y1183703D01*
X462386Y1182978D01*
X462748Y1181889D01*
Y1179350D01*
X455130Y1186860D02*
Y1190850D01*
X458032Y1188673D01*
Y1189762D01*
X458395Y1190487D01*
X458758Y1190850D01*
X459846Y1191213D01*
X460572D01*
X461660Y1190850D01*
X462386Y1190125D01*
X462748Y1189036D01*
Y1187948D01*
X462386Y1186860D01*
X462023Y1186497D01*
X461297Y1186134D01*
X1119340Y1790220D02*
X1190460D01*
X1119340Y1587020D02*
Y1790220D01*
Y1587020D02*
X1190460D01*
Y1790220D01*
X484340D02*
X555460D01*
X484340Y1587020D02*
Y1790220D01*
Y1587020D02*
X555460D01*
Y1790220D01*
X655900Y1318120D02*
X657900Y1320120D01*
X637900Y1318120D02*
X655900D01*
X619900Y1336120D02*
Y1423120D01*
Y1336120D02*
X637900Y1318120D01*
X619900Y1423120D02*
X673900D01*
Y1336120D02*
Y1423120D01*
X657900Y1320120D02*
X673900Y1336120D01*
X248577Y1316256D02*
X283223D01*
X309080Y1345520D01*
Y1476530D01*
X222720D02*
X309080D01*
X222720Y1345538D02*
Y1476530D01*
Y1345538D02*
X248577Y1316256D01*
X230340Y1587020D02*
Y1790220D01*
X301460D01*
Y1587020D02*
Y1790220D01*
X230340Y1587020D02*
X301460D01*
X1036900Y1318120D02*
X1038900Y1320120D01*
X1018900Y1318120D02*
X1036900D01*
X1000900Y1336120D02*
Y1423120D01*
Y1336120D02*
X1018900Y1318120D01*
X1000900Y1423120D02*
X1054900D01*
Y1336120D02*
Y1423120D01*
X1038900Y1320120D02*
X1054900Y1336120D01*
X1290900Y1318120D02*
X1292900Y1320120D01*
X1272900Y1318120D02*
X1290900D01*
X1254900Y1336120D02*
Y1423120D01*
Y1336120D02*
X1272900Y1318120D01*
X1254900Y1423120D02*
X1308900D01*
Y1336120D02*
Y1423120D01*
X1292900Y1320120D02*
X1308900Y1336120D01*
X1165900Y1320120D02*
X1181900Y1336120D01*
Y1423120D01*
X1127900D02*
X1181900D01*
X1127900Y1336120D02*
X1145900Y1318120D01*
X1127900Y1336120D02*
Y1423120D01*
X1145900Y1318120D02*
X1163900D01*
X1165900Y1320120D01*
X782900Y1318120D02*
X784900Y1320120D01*
X764900Y1318120D02*
X782900D01*
X746900Y1336120D02*
Y1423120D01*
Y1336120D02*
X764900Y1318120D01*
X746900Y1423120D02*
X800900D01*
Y1336120D02*
Y1423120D01*
X784900Y1320120D02*
X800900Y1336120D01*
X911900Y1320120D02*
X927900Y1336120D01*
Y1423120D01*
X873900D02*
X927900D01*
X873900Y1336120D02*
X891900Y1318120D01*
X873900Y1336120D02*
Y1423120D01*
X891900Y1318120D02*
X909900D01*
X911900Y1320120D01*
X528900Y1318120D02*
X530900Y1320120D01*
X510900Y1318120D02*
X528900D01*
X492900Y1336120D02*
Y1423120D01*
Y1336120D02*
X510900Y1318120D01*
X492900Y1423120D02*
X546900D01*
Y1336120D02*
Y1423120D01*
X530900Y1320120D02*
X546900Y1336120D01*
X403900Y1320120D02*
X419900Y1336120D01*
Y1423120D01*
X365900D02*
X419900D01*
X365900Y1336120D02*
X383900Y1318120D01*
X365900Y1336120D02*
Y1423120D01*
X383900Y1318120D02*
X401900D01*
X403900Y1320120D01*
X936460Y1587020D02*
Y1790220D01*
X865340Y1587020D02*
X936460D01*
X865340D02*
Y1790220D01*
X936460D01*
X809460Y1587020D02*
Y1790220D01*
X738340Y1587020D02*
X809460D01*
X738340D02*
Y1790220D01*
X809460D01*
X1317460Y1587020D02*
Y1790220D01*
X1246340Y1587020D02*
X1317460D01*
X1246340D02*
Y1790220D01*
X1317460D01*
X1063460Y1587020D02*
Y1790220D01*
X992340Y1587020D02*
X1063460D01*
X992340D02*
Y1790220D01*
X1063460D01*
X428460Y1587020D02*
Y1790220D01*
X357340Y1587020D02*
X428460D01*
X357340D02*
Y1790220D01*
X428460D01*
X682460Y1587020D02*
Y1790220D01*
X611340Y1587020D02*
X682460D01*
X611340D02*
Y1790220D01*
X682460D01*
X1229832Y1463833D02*
X1228562Y1462563D01*
Y1460024D01*
X1229832Y1458754D01*
X1234910D01*
X1236180Y1460024D01*
Y1462563D01*
X1234910Y1463833D01*
X1229832Y1466372D02*
X1228562Y1467641D01*
Y1470180D01*
X1229832Y1471450D01*
X1231102D01*
X1232371Y1470180D01*
X1233641Y1471450D01*
X1234910D01*
X1236180Y1470180D01*
Y1467641D01*
X1234910Y1466372D01*
X1233641D01*
X1232371Y1467641D01*
X1231102Y1466372D01*
X1229832D01*
X1232371Y1467641D02*
Y1470180D01*
X1102832Y1463833D02*
X1101562Y1462563D01*
Y1460024D01*
X1102832Y1458754D01*
X1107910D01*
X1109180Y1460024D01*
Y1462563D01*
X1107910Y1463833D01*
X1101562Y1466372D02*
Y1471450D01*
X1102832D01*
X1107910Y1466372D01*
X1109180D01*
X975832Y1463833D02*
X974563Y1462563D01*
Y1460024D01*
X975832Y1458754D01*
X980910D01*
X982180Y1460024D01*
Y1462563D01*
X980910Y1463833D01*
X974563Y1471450D02*
X975832Y1468911D01*
X978371Y1466372D01*
X980910D01*
X982180Y1467641D01*
Y1470180D01*
X980910Y1471450D01*
X979641D01*
X978371Y1470180D01*
Y1466372D01*
X848832Y1463833D02*
X847562Y1462563D01*
Y1460024D01*
X848832Y1458754D01*
X853910D01*
X855180Y1460024D01*
Y1462563D01*
X853910Y1463833D01*
X847562Y1471450D02*
Y1466372D01*
X851371D01*
X850102Y1468911D01*
Y1470180D01*
X851371Y1471450D01*
X853910D01*
X855180Y1470180D01*
Y1467641D01*
X853910Y1466372D01*
X721832Y1463833D02*
X720563Y1462563D01*
Y1460024D01*
X721832Y1458754D01*
X726910D01*
X728180Y1460024D01*
Y1462563D01*
X726910Y1463833D01*
X728180Y1470180D02*
X720563D01*
X724371Y1466372D01*
Y1471450D01*
X594832Y1463833D02*
X593563Y1462563D01*
Y1460024D01*
X594832Y1458754D01*
X599910D01*
X601180Y1460024D01*
Y1462563D01*
X599910Y1463833D01*
X594832Y1466372D02*
X593563Y1467641D01*
Y1470180D01*
X594832Y1471450D01*
X596102D01*
X597371Y1470180D01*
Y1468911D01*
Y1470180D01*
X598641Y1471450D01*
X599910D01*
X601180Y1470180D01*
Y1467641D01*
X599910Y1466372D01*
X467832Y1463833D02*
X466562Y1462563D01*
Y1460024D01*
X467832Y1458754D01*
X472910D01*
X474180Y1460024D01*
Y1462563D01*
X472910Y1463833D01*
X474180Y1471450D02*
Y1466372D01*
X469102Y1471450D01*
X467832D01*
X466562Y1470180D01*
Y1467641D01*
X467832Y1466372D01*
X347182Y1460022D02*
X345913Y1458752D01*
Y1456213D01*
X347182Y1454943D01*
X352260D01*
X353530Y1456213D01*
Y1458752D01*
X352260Y1460022D01*
X353530Y1462561D02*
Y1465100D01*
Y1463830D01*
X345913D01*
X347182Y1462561D01*
X1346670Y1707670D02*
X1352112D01*
X1353200Y1708033D01*
X1353926Y1708758D01*
X1354288Y1709847D01*
Y1710572D01*
X1353926Y1711661D01*
X1353200Y1712386D01*
X1352112Y1712749D01*
X1346670D01*
X1348121Y1714853D02*
X1347758Y1715579D01*
X1346670Y1716667D01*
X1354288D01*
X1346670Y1722616D02*
X1347033Y1721528D01*
X1348121Y1720803D01*
X1349935Y1720440D01*
X1351023D01*
X1352837Y1720803D01*
X1353926Y1721528D01*
X1354288Y1722616D01*
Y1723342D01*
X1353926Y1724430D01*
X1352837Y1725156D01*
X1351023Y1725519D01*
X1349935D01*
X1348121Y1725156D01*
X1347033Y1724430D01*
X1346670Y1723342D01*
Y1722616D01*
X1219670Y1707670D02*
X1225112D01*
X1226200Y1708033D01*
X1226926Y1708758D01*
X1227288Y1709847D01*
Y1710572D01*
X1226926Y1711661D01*
X1226200Y1712386D01*
X1225112Y1712749D01*
X1219670D01*
X1222209Y1719569D02*
X1223298Y1719206D01*
X1224023Y1718481D01*
X1224386Y1717392D01*
Y1717030D01*
X1224023Y1715941D01*
X1223298Y1715216D01*
X1222209Y1714853D01*
X1221847D01*
X1220758Y1715216D01*
X1220033Y1715941D01*
X1219670Y1717030D01*
Y1717392D01*
X1220033Y1718481D01*
X1220758Y1719206D01*
X1222209Y1719569D01*
X1224023D01*
X1225837Y1719206D01*
X1226926Y1718481D01*
X1227288Y1717392D01*
Y1716667D01*
X1226926Y1715579D01*
X1226200Y1715216D01*
X1092670Y1707670D02*
X1098112D01*
X1099200Y1708033D01*
X1099926Y1708758D01*
X1100288Y1709847D01*
Y1710572D01*
X1099926Y1711661D01*
X1099200Y1712386D01*
X1098112Y1712749D01*
X1092670D01*
Y1716667D02*
X1093033Y1715579D01*
X1093758Y1715216D01*
X1094484D01*
X1095210Y1715579D01*
X1095572Y1716304D01*
X1095935Y1717755D01*
X1096298Y1718844D01*
X1097023Y1719569D01*
X1097749Y1719932D01*
X1098837D01*
X1099563Y1719569D01*
X1099926Y1719206D01*
X1100288Y1718118D01*
Y1716667D01*
X1099926Y1715579D01*
X1099563Y1715216D01*
X1098837Y1714853D01*
X1097749D01*
X1097023Y1715216D01*
X1096298Y1715941D01*
X1095935Y1717030D01*
X1095572Y1718481D01*
X1095210Y1719206D01*
X1094484Y1719569D01*
X1093758D01*
X1093033Y1719206D01*
X1092670Y1718118D01*
Y1716667D01*
X965670Y1707670D02*
X971112D01*
X972200Y1708033D01*
X972926Y1708758D01*
X973288Y1709847D01*
Y1710572D01*
X972926Y1711661D01*
X972200Y1712386D01*
X971112Y1712749D01*
X965670D01*
Y1719932D02*
X973288Y1716304D01*
X965670Y1714853D02*
Y1719932D01*
X838670Y1707670D02*
X844112D01*
X845200Y1708033D01*
X845926Y1708758D01*
X846288Y1709847D01*
Y1710572D01*
X845926Y1711661D01*
X845200Y1712386D01*
X844112Y1712749D01*
X838670D01*
X839758Y1719206D02*
X839033Y1718844D01*
X838670Y1717755D01*
Y1717030D01*
X839033Y1715941D01*
X840121Y1715216D01*
X841935Y1714853D01*
X843749D01*
X845200Y1715216D01*
X845926Y1715941D01*
X846288Y1717030D01*
Y1717392D01*
X845926Y1718481D01*
X845200Y1719206D01*
X844112Y1719569D01*
X843749D01*
X842661Y1719206D01*
X841935Y1718481D01*
X841572Y1717392D01*
Y1717030D01*
X841935Y1715941D01*
X842661Y1715216D01*
X843749Y1714853D01*
X711670Y1707670D02*
X717112D01*
X718200Y1708033D01*
X718926Y1708758D01*
X719288Y1709847D01*
Y1710572D01*
X718926Y1711661D01*
X718200Y1712386D01*
X717112Y1712749D01*
X711670D01*
Y1719206D02*
Y1715579D01*
X714935Y1715216D01*
X714572Y1715579D01*
X714210Y1716667D01*
Y1717755D01*
X714572Y1718844D01*
X715298Y1719569D01*
X716386Y1719932D01*
X717112D01*
X718200Y1719569D01*
X718926Y1718844D01*
X719288Y1717755D01*
Y1716667D01*
X718926Y1715579D01*
X718563Y1715216D01*
X717837Y1714853D01*
X584670Y1707670D02*
X590112D01*
X591200Y1708033D01*
X591926Y1708758D01*
X592288Y1709847D01*
Y1710572D01*
X591926Y1711661D01*
X591200Y1712386D01*
X590112Y1712749D01*
X584670D01*
Y1718481D02*
X589749Y1714853D01*
Y1720295D01*
X584670Y1718481D02*
X592288D01*
X457670Y1707670D02*
X463112D01*
X464200Y1708033D01*
X464926Y1708758D01*
X465288Y1709847D01*
Y1710572D01*
X464926Y1711661D01*
X464200Y1712386D01*
X463112Y1712749D01*
X457670D01*
Y1715579D02*
Y1719569D01*
X460572Y1717392D01*
Y1718481D01*
X460935Y1719206D01*
X461298Y1719569D01*
X462386Y1719932D01*
X463112D01*
X464200Y1719569D01*
X464926Y1718844D01*
X465288Y1717755D01*
Y1716667D01*
X464926Y1715579D01*
X464563Y1715216D01*
X463837Y1714853D01*
X330670Y1707670D02*
X336112D01*
X337200Y1708033D01*
X337926Y1708758D01*
X338288Y1709847D01*
Y1710572D01*
X337926Y1711661D01*
X337200Y1712386D01*
X336112Y1712749D01*
X330670D01*
X332484Y1715216D02*
X332121D01*
X331396Y1715579D01*
X331033Y1715941D01*
X330670Y1716667D01*
Y1718118D01*
X331033Y1718844D01*
X331396Y1719206D01*
X332121Y1719569D01*
X332847D01*
X333572Y1719206D01*
X334661Y1718481D01*
X338288Y1714853D01*
Y1719932D01*
X193512Y1707670D02*
X198953D01*
X200042Y1708033D01*
X200767Y1708758D01*
X201130Y1709847D01*
Y1710572D01*
X200767Y1711661D01*
X200042Y1712386D01*
X198953Y1712749D01*
X193512D01*
X194963Y1714853D02*
X194600Y1715579D01*
X193512Y1716667D01*
X201130D01*
X328130Y1763550D02*
X335748D01*
X328130D02*
Y1766089D01*
X328493Y1767178D01*
X329218Y1767903D01*
X329944Y1768266D01*
X331032Y1768629D01*
X332846D01*
X333935Y1768266D01*
X334660Y1767903D01*
X335386Y1767178D01*
X335748Y1766089D01*
Y1763550D01*
X329944Y1770697D02*
X329581D01*
X328856Y1771060D01*
X328493Y1771422D01*
X328130Y1772148D01*
Y1773599D01*
X328493Y1774325D01*
X328856Y1774687D01*
X329581Y1775050D01*
X330307D01*
X331032Y1774687D01*
X332121Y1773962D01*
X335748Y1770334D01*
Y1775413D01*
X196052Y1763550D02*
X203670D01*
X196052D02*
Y1766089D01*
X196414Y1767178D01*
X197140Y1767903D01*
X197866Y1768266D01*
X198954Y1768629D01*
X200768D01*
X201856Y1768266D01*
X202582Y1767903D01*
X203307Y1767178D01*
X203670Y1766089D01*
Y1763550D01*
X197503Y1770334D02*
X197140Y1771060D01*
X196052Y1772148D01*
X203670D01*
X229070Y1805458D02*
X234149Y1797840D01*
Y1805458D02*
X229070Y1797840D01*
X235854Y1805458D02*
Y1797840D01*
Y1805458D02*
X240570D01*
X235854Y1801831D02*
X238756D01*
X241441Y1804007D02*
X242166Y1804370D01*
X243255Y1805458D01*
Y1797840D01*
X688808Y1419562D02*
X683004D01*
X681916Y1419925D01*
X681553Y1420288D01*
X681190Y1421013D01*
Y1421739D01*
X681553Y1422464D01*
X681916Y1422827D01*
X683004Y1423190D01*
X683729D01*
X688808Y1413975D02*
X683729Y1417603D01*
Y1412162D01*
X688808Y1413975D02*
X681190D01*
X582130Y1763550D02*
X589748D01*
X582130D02*
Y1766089D01*
X582493Y1767178D01*
X583218Y1767903D01*
X583944Y1768266D01*
X585032Y1768629D01*
X586846D01*
X587934Y1768266D01*
X588660Y1767903D01*
X589386Y1767178D01*
X589748Y1766089D01*
Y1763550D01*
X582130Y1773962D02*
X587209Y1770334D01*
Y1775776D01*
X582130Y1773962D02*
X589748D01*
X1196808Y1419562D02*
X1191004D01*
X1189916Y1419925D01*
X1189553Y1420288D01*
X1189190Y1421013D01*
Y1421739D01*
X1189553Y1422464D01*
X1189916Y1422827D01*
X1191004Y1423190D01*
X1191730D01*
X1196808Y1415789D02*
X1196446Y1416878D01*
X1195720Y1417240D01*
X1194995D01*
X1194269Y1416878D01*
X1193906Y1416152D01*
X1193543Y1414701D01*
X1193181Y1413613D01*
X1192455Y1412887D01*
X1191730Y1412524D01*
X1190641D01*
X1189916Y1412887D01*
X1189553Y1413250D01*
X1189190Y1414338D01*
Y1415789D01*
X1189553Y1416878D01*
X1189916Y1417240D01*
X1190641Y1417603D01*
X1191730D01*
X1192455Y1417240D01*
X1193181Y1416515D01*
X1193543Y1415426D01*
X1193906Y1413975D01*
X1194269Y1413250D01*
X1194995Y1412887D01*
X1195720D01*
X1196446Y1413250D01*
X1196808Y1414338D01*
Y1415789D01*
X942808Y1419562D02*
X937004D01*
X935916Y1419925D01*
X935553Y1420288D01*
X935190Y1421013D01*
Y1421739D01*
X935553Y1422464D01*
X935916Y1422827D01*
X937004Y1423190D01*
X937729D01*
X941720Y1413250D02*
X942446Y1413613D01*
X942808Y1414701D01*
Y1415426D01*
X942446Y1416515D01*
X941357Y1417240D01*
X939543Y1417603D01*
X937729D01*
X936278Y1417240D01*
X935553Y1416515D01*
X935190Y1415426D01*
Y1415064D01*
X935553Y1413975D01*
X936278Y1413250D01*
X937367Y1412887D01*
X937729D01*
X938818Y1413250D01*
X939543Y1413975D01*
X939906Y1415064D01*
Y1415426D01*
X939543Y1416515D01*
X938818Y1417240D01*
X937729Y1417603D01*
X323048Y1472902D02*
X317244D01*
X316156Y1473265D01*
X315793Y1473628D01*
X315430Y1474353D01*
Y1475079D01*
X315793Y1475804D01*
X316156Y1476167D01*
X317244Y1476530D01*
X317969D01*
X321597Y1470943D02*
X321960Y1470218D01*
X323048Y1469129D01*
X315430D01*
X434808Y1419562D02*
X429004D01*
X427916Y1419925D01*
X427553Y1420288D01*
X427190Y1421013D01*
Y1421739D01*
X427553Y1422464D01*
X427916Y1422827D01*
X429004Y1423190D01*
X429729D01*
X432994Y1417240D02*
X433357D01*
X434083Y1416878D01*
X434446Y1416515D01*
X434808Y1415789D01*
Y1414338D01*
X434446Y1413613D01*
X434083Y1413250D01*
X433357Y1412887D01*
X432632D01*
X431906Y1413250D01*
X430818Y1413975D01*
X427190Y1417603D01*
Y1412524D01*
X1245070Y1805458D02*
X1250149Y1797840D01*
Y1805458D02*
X1245070Y1797840D01*
X1251854Y1805458D02*
Y1797840D01*
Y1805458D02*
X1256570D01*
X1251854Y1801831D02*
X1254756D01*
X1262157Y1802919D02*
X1261794Y1801831D01*
X1261069Y1801105D01*
X1259980Y1800742D01*
X1259617D01*
X1258529Y1801105D01*
X1257804Y1801831D01*
X1257441Y1802919D01*
Y1803282D01*
X1257804Y1804370D01*
X1258529Y1805096D01*
X1259617Y1805458D01*
X1259980D01*
X1261069Y1805096D01*
X1261794Y1804370D01*
X1262157Y1802919D01*
Y1801105D01*
X1261794Y1799291D01*
X1261069Y1798203D01*
X1259980Y1797840D01*
X1259255D01*
X1258166Y1798203D01*
X1257804Y1798928D01*
X1118070Y1805458D02*
X1123149Y1797840D01*
Y1805458D02*
X1118070Y1797840D01*
X1124854Y1805458D02*
Y1797840D01*
Y1805458D02*
X1129570D01*
X1124854Y1801831D02*
X1127756D01*
X1132255Y1805458D02*
X1131166Y1805096D01*
X1130804Y1804370D01*
Y1803645D01*
X1131166Y1802919D01*
X1131892Y1802556D01*
X1133343Y1802193D01*
X1134431Y1801831D01*
X1135157Y1801105D01*
X1135520Y1800379D01*
Y1799291D01*
X1135157Y1798566D01*
X1134794Y1798203D01*
X1133706Y1797840D01*
X1132255D01*
X1131166Y1798203D01*
X1130804Y1798566D01*
X1130441Y1799291D01*
Y1800379D01*
X1130804Y1801105D01*
X1131529Y1801831D01*
X1132617Y1802193D01*
X1134069Y1802556D01*
X1134794Y1802919D01*
X1135157Y1803645D01*
Y1804370D01*
X1134794Y1805096D01*
X1133706Y1805458D01*
X1132255D01*
X991070D02*
X996149Y1797840D01*
Y1805458D02*
X991070Y1797840D01*
X997854Y1805458D02*
Y1797840D01*
Y1805458D02*
X1002570D01*
X997854Y1801831D02*
X1000756D01*
X1008520Y1805458D02*
X1004892Y1797840D01*
X1003441Y1805458D02*
X1008520D01*
X864070D02*
X869149Y1797840D01*
Y1805458D02*
X864070Y1797840D01*
X870854Y1805458D02*
Y1797840D01*
Y1805458D02*
X875570D01*
X870854Y1801831D02*
X873756D01*
X880794Y1804370D02*
X880431Y1805096D01*
X879343Y1805458D01*
X878617D01*
X877529Y1805096D01*
X876804Y1804007D01*
X876441Y1802193D01*
Y1800379D01*
X876804Y1798928D01*
X877529Y1798203D01*
X878617Y1797840D01*
X878980D01*
X880069Y1798203D01*
X880794Y1798928D01*
X881157Y1800017D01*
Y1800379D01*
X880794Y1801468D01*
X880069Y1802193D01*
X878980Y1802556D01*
X878617D01*
X877529Y1802193D01*
X876804Y1801468D01*
X876441Y1800379D01*
X737070Y1805458D02*
X742149Y1797840D01*
Y1805458D02*
X737070Y1797840D01*
X743854Y1805458D02*
Y1797840D01*
Y1805458D02*
X748570D01*
X743854Y1801831D02*
X746756D01*
X753794Y1805458D02*
X750166D01*
X749804Y1802193D01*
X750166Y1802556D01*
X751255Y1802919D01*
X752343D01*
X753431Y1802556D01*
X754157Y1801831D01*
X754520Y1800742D01*
Y1800017D01*
X754157Y1798928D01*
X753431Y1798203D01*
X752343Y1797840D01*
X751255D01*
X750166Y1798203D01*
X749804Y1798566D01*
X749441Y1799291D01*
X610070Y1805458D02*
X615149Y1797840D01*
Y1805458D02*
X610070Y1797840D01*
X616854Y1805458D02*
Y1797840D01*
Y1805458D02*
X621570D01*
X616854Y1801831D02*
X619756D01*
X626069Y1805458D02*
X622441Y1800379D01*
X627882D01*
X626069Y1805458D02*
Y1797840D01*
X483070Y1805458D02*
X488149Y1797840D01*
Y1805458D02*
X483070Y1797840D01*
X489854Y1805458D02*
Y1797840D01*
Y1805458D02*
X494570D01*
X489854Y1801831D02*
X492756D01*
X496166Y1805458D02*
X500157D01*
X497980Y1802556D01*
X499069D01*
X499794Y1802193D01*
X500157Y1801831D01*
X500520Y1800742D01*
Y1800017D01*
X500157Y1798928D01*
X499431Y1798203D01*
X498343Y1797840D01*
X497255D01*
X496166Y1798203D01*
X495804Y1798566D01*
X495441Y1799291D01*
X356070Y1805458D02*
X361149Y1797840D01*
Y1805458D02*
X356070Y1797840D01*
X362854Y1805458D02*
Y1797840D01*
Y1805458D02*
X367570D01*
X362854Y1801831D02*
X365756D01*
X368804Y1803645D02*
Y1804007D01*
X369166Y1804733D01*
X369529Y1805096D01*
X370255Y1805458D01*
X371706D01*
X372431Y1805096D01*
X372794Y1804733D01*
X373157Y1804007D01*
Y1803282D01*
X372794Y1802556D01*
X372069Y1801468D01*
X368441Y1797840D01*
X373520D01*
X1323808Y1419562D02*
X1318004D01*
X1316916Y1419925D01*
X1316553Y1420288D01*
X1316190Y1421013D01*
Y1421739D01*
X1316553Y1422464D01*
X1316916Y1422827D01*
X1318004Y1423190D01*
X1318730D01*
X1321269Y1412887D02*
X1320181Y1413250D01*
X1319455Y1413975D01*
X1319092Y1415064D01*
Y1415426D01*
X1319455Y1416515D01*
X1320181Y1417240D01*
X1321269Y1417603D01*
X1321632D01*
X1322720Y1417240D01*
X1323446Y1416515D01*
X1323808Y1415426D01*
Y1415064D01*
X1323446Y1413975D01*
X1322720Y1413250D01*
X1321269Y1412887D01*
X1319455D01*
X1317641Y1413250D01*
X1316553Y1413975D01*
X1316190Y1415064D01*
Y1415789D01*
X1316553Y1416878D01*
X1317278Y1417240D01*
X1069808Y1419562D02*
X1064004D01*
X1062916Y1419925D01*
X1062553Y1420288D01*
X1062190Y1421013D01*
Y1421739D01*
X1062553Y1422464D01*
X1062916Y1422827D01*
X1064004Y1423190D01*
X1064730D01*
X1069808Y1412524D02*
X1062190Y1416152D01*
X1069808Y1417603D02*
Y1412524D01*
X815808Y1419562D02*
X810004D01*
X808916Y1419925D01*
X808553Y1420288D01*
X808190Y1421013D01*
Y1421739D01*
X808553Y1422464D01*
X808916Y1422827D01*
X810004Y1423190D01*
X810730D01*
X815808Y1413250D02*
Y1416878D01*
X812543Y1417240D01*
X812906Y1416878D01*
X813269Y1415789D01*
Y1414701D01*
X812906Y1413613D01*
X812181Y1412887D01*
X811092Y1412524D01*
X810367D01*
X809278Y1412887D01*
X808553Y1413613D01*
X808190Y1414701D01*
Y1415789D01*
X808553Y1416878D01*
X808916Y1417240D01*
X809641Y1417603D01*
X561808Y1419562D02*
X556004D01*
X554916Y1419925D01*
X554553Y1420288D01*
X554190Y1421013D01*
Y1421739D01*
X554553Y1422464D01*
X554916Y1422827D01*
X556004Y1423190D01*
X556730D01*
X561808Y1416878D02*
Y1412887D01*
X558906Y1415064D01*
Y1413975D01*
X558543Y1413250D01*
X558181Y1412887D01*
X557092Y1412524D01*
X556367D01*
X555278Y1412887D01*
X554553Y1413613D01*
X554190Y1414701D01*
Y1415789D01*
X554553Y1416878D01*
X554916Y1417240D01*
X555641Y1417603D01*
X1344130Y1763550D02*
X1351748D01*
X1344130D02*
Y1766089D01*
X1344493Y1767178D01*
X1345218Y1767903D01*
X1345944Y1768266D01*
X1347032Y1768629D01*
X1348846D01*
X1349935Y1768266D01*
X1350660Y1767903D01*
X1351386Y1767178D01*
X1351748Y1766089D01*
Y1763550D01*
X1345581Y1770334D02*
X1345218Y1771060D01*
X1344130Y1772148D01*
X1351748D01*
X1344130Y1778098D02*
X1344493Y1777009D01*
X1345581Y1776284D01*
X1347395Y1775921D01*
X1348483D01*
X1350297Y1776284D01*
X1351386Y1777009D01*
X1351748Y1778098D01*
Y1778823D01*
X1351386Y1779911D01*
X1350297Y1780637D01*
X1348483Y1781000D01*
X1347395D01*
X1345581Y1780637D01*
X1344493Y1779911D01*
X1344130Y1778823D01*
Y1778098D01*
X1217130Y1763550D02*
X1224748D01*
X1217130D02*
Y1766089D01*
X1217493Y1767178D01*
X1218218Y1767903D01*
X1218944Y1768266D01*
X1220032Y1768629D01*
X1221846D01*
X1222934Y1768266D01*
X1223660Y1767903D01*
X1224386Y1767178D01*
X1224748Y1766089D01*
Y1763550D01*
X1219669Y1775050D02*
X1220758Y1774687D01*
X1221483Y1773962D01*
X1221846Y1772874D01*
Y1772511D01*
X1221483Y1771422D01*
X1220758Y1770697D01*
X1219669Y1770334D01*
X1219307D01*
X1218218Y1770697D01*
X1217493Y1771422D01*
X1217130Y1772511D01*
Y1772874D01*
X1217493Y1773962D01*
X1218218Y1774687D01*
X1219669Y1775050D01*
X1221483D01*
X1223297Y1774687D01*
X1224386Y1773962D01*
X1224748Y1772874D01*
Y1772148D01*
X1224386Y1771060D01*
X1223660Y1770697D01*
X1090130Y1763550D02*
X1097748D01*
X1090130D02*
Y1766089D01*
X1090493Y1767178D01*
X1091218Y1767903D01*
X1091944Y1768266D01*
X1093032Y1768629D01*
X1094846D01*
X1095935Y1768266D01*
X1096660Y1767903D01*
X1097386Y1767178D01*
X1097748Y1766089D01*
Y1763550D01*
X1090130Y1772148D02*
X1090493Y1771060D01*
X1091218Y1770697D01*
X1091944D01*
X1092670Y1771060D01*
X1093032Y1771785D01*
X1093395Y1773236D01*
X1093758Y1774325D01*
X1094483Y1775050D01*
X1095209Y1775413D01*
X1096297D01*
X1097023Y1775050D01*
X1097386Y1774687D01*
X1097748Y1773599D01*
Y1772148D01*
X1097386Y1771060D01*
X1097023Y1770697D01*
X1096297Y1770334D01*
X1095209D01*
X1094483Y1770697D01*
X1093758Y1771422D01*
X1093395Y1772511D01*
X1093032Y1773962D01*
X1092670Y1774687D01*
X1091944Y1775050D01*
X1091218D01*
X1090493Y1774687D01*
X1090130Y1773599D01*
Y1772148D01*
X963130Y1763550D02*
X970748D01*
X963130D02*
Y1766089D01*
X963493Y1767178D01*
X964218Y1767903D01*
X964944Y1768266D01*
X966032Y1768629D01*
X967846D01*
X968934Y1768266D01*
X969660Y1767903D01*
X970386Y1767178D01*
X970748Y1766089D01*
Y1763550D01*
X963130Y1775413D02*
X970748Y1771785D01*
X963130Y1770334D02*
Y1775413D01*
X836130Y1763550D02*
X843748D01*
X836130D02*
Y1766089D01*
X836493Y1767178D01*
X837218Y1767903D01*
X837944Y1768266D01*
X839032Y1768629D01*
X840846D01*
X841935Y1768266D01*
X842660Y1767903D01*
X843386Y1767178D01*
X843748Y1766089D01*
Y1763550D01*
X837218Y1774687D02*
X836493Y1774325D01*
X836130Y1773236D01*
Y1772511D01*
X836493Y1771422D01*
X837581Y1770697D01*
X839395Y1770334D01*
X841209D01*
X842660Y1770697D01*
X843386Y1771422D01*
X843748Y1772511D01*
Y1772874D01*
X843386Y1773962D01*
X842660Y1774687D01*
X841572Y1775050D01*
X841209D01*
X840121Y1774687D01*
X839395Y1773962D01*
X839032Y1772874D01*
Y1772511D01*
X839395Y1771422D01*
X840121Y1770697D01*
X841209Y1770334D01*
X709130Y1763550D02*
X716748D01*
X709130D02*
Y1766089D01*
X709493Y1767178D01*
X710218Y1767903D01*
X710944Y1768266D01*
X712032Y1768629D01*
X713846D01*
X714934Y1768266D01*
X715660Y1767903D01*
X716386Y1767178D01*
X716748Y1766089D01*
Y1763550D01*
X709130Y1774687D02*
Y1771060D01*
X712395Y1770697D01*
X712032Y1771060D01*
X711669Y1772148D01*
Y1773236D01*
X712032Y1774325D01*
X712758Y1775050D01*
X713846Y1775413D01*
X714572D01*
X715660Y1775050D01*
X716386Y1774325D01*
X716748Y1773236D01*
Y1772148D01*
X716386Y1771060D01*
X716023Y1770697D01*
X715297Y1770334D01*
X455130Y1763550D02*
X462748D01*
X455130D02*
Y1766089D01*
X455493Y1767178D01*
X456218Y1767903D01*
X456944Y1768266D01*
X458032Y1768629D01*
X459846D01*
X460934Y1768266D01*
X461660Y1767903D01*
X462386Y1767178D01*
X462748Y1766089D01*
Y1763550D01*
X455130Y1771060D02*
Y1775050D01*
X458032Y1772874D01*
Y1773962D01*
X458395Y1774687D01*
X458758Y1775050D01*
X459846Y1775413D01*
X460572D01*
X461660Y1775050D01*
X462386Y1774325D01*
X462748Y1773236D01*
Y1772148D01*
X462386Y1771060D01*
X462023Y1770697D01*
X461297Y1770334D01*
X1119340Y2374420D02*
X1190460D01*
X1119340Y2171220D02*
Y2374420D01*
Y2171220D02*
X1190460D01*
Y2374420D01*
X484340D02*
X555460D01*
X484340Y2171220D02*
Y2374420D01*
Y2171220D02*
X555460D01*
Y2374420D01*
X655900Y1902320D02*
X657900Y1904320D01*
X637900Y1902320D02*
X655900D01*
X619900Y1920320D02*
Y2007320D01*
Y1920320D02*
X637900Y1902320D01*
X619900Y2007320D02*
X673900D01*
Y1920320D02*
Y2007320D01*
X657900Y1904320D02*
X673900Y1920320D01*
X248577Y1900456D02*
X283223D01*
X309080Y1929720D01*
Y2060730D01*
X222720D02*
X309080D01*
X222720Y1929738D02*
Y2060730D01*
Y1929738D02*
X248577Y1900456D01*
X230340Y2171220D02*
Y2374420D01*
X301460D01*
Y2171220D02*
Y2374420D01*
X230340Y2171220D02*
X301460D01*
X1036900Y1902320D02*
X1038900Y1904320D01*
X1018900Y1902320D02*
X1036900D01*
X1000900Y1920320D02*
Y2007320D01*
Y1920320D02*
X1018900Y1902320D01*
X1000900Y2007320D02*
X1054900D01*
Y1920320D02*
Y2007320D01*
X1038900Y1904320D02*
X1054900Y1920320D01*
X1290900Y1902320D02*
X1292900Y1904320D01*
X1272900Y1902320D02*
X1290900D01*
X1254900Y1920320D02*
Y2007320D01*
Y1920320D02*
X1272900Y1902320D01*
X1254900Y2007320D02*
X1308900D01*
Y1920320D02*
Y2007320D01*
X1292900Y1904320D02*
X1308900Y1920320D01*
X1165900Y1904320D02*
X1181900Y1920320D01*
Y2007320D01*
X1127900D02*
X1181900D01*
X1127900Y1920320D02*
X1145900Y1902320D01*
X1127900Y1920320D02*
Y2007320D01*
X1145900Y1902320D02*
X1163900D01*
X1165900Y1904320D01*
X782900Y1902320D02*
X784900Y1904320D01*
X764900Y1902320D02*
X782900D01*
X746900Y1920320D02*
Y2007320D01*
Y1920320D02*
X764900Y1902320D01*
X746900Y2007320D02*
X800900D01*
Y1920320D02*
Y2007320D01*
X784900Y1904320D02*
X800900Y1920320D01*
X911900Y1904320D02*
X927900Y1920320D01*
Y2007320D01*
X873900D02*
X927900D01*
X873900Y1920320D02*
X891900Y1902320D01*
X873900Y1920320D02*
Y2007320D01*
X891900Y1902320D02*
X909900D01*
X911900Y1904320D01*
X528900Y1902320D02*
X530900Y1904320D01*
X510900Y1902320D02*
X528900D01*
X492900Y1920320D02*
Y2007320D01*
Y1920320D02*
X510900Y1902320D01*
X492900Y2007320D02*
X546900D01*
Y1920320D02*
Y2007320D01*
X530900Y1904320D02*
X546900Y1920320D01*
X403900Y1904320D02*
X419900Y1920320D01*
Y2007320D01*
X365900D02*
X419900D01*
X365900Y1920320D02*
X383900Y1902320D01*
X365900Y1920320D02*
Y2007320D01*
X383900Y1902320D02*
X401900D01*
X403900Y1904320D01*
X936460Y2171220D02*
Y2374420D01*
X865340Y2171220D02*
X936460D01*
X865340D02*
Y2374420D01*
X936460D01*
X809460Y2171220D02*
Y2374420D01*
X738340Y2171220D02*
X809460D01*
X738340D02*
Y2374420D01*
X809460D01*
X1317460Y2171220D02*
Y2374420D01*
X1246340Y2171220D02*
X1317460D01*
X1246340D02*
Y2374420D01*
X1317460D01*
X1063460Y2171220D02*
Y2374420D01*
X992340Y2171220D02*
X1063460D01*
X992340D02*
Y2374420D01*
X1063460D01*
X428460Y2171220D02*
Y2374420D01*
X357340Y2171220D02*
X428460D01*
X357340D02*
Y2374420D01*
X428460D01*
X682460Y2171220D02*
Y2374420D01*
X611340Y2171220D02*
X682460D01*
X611340D02*
Y2374420D01*
X682460D01*
X1229832Y2048033D02*
X1228562Y2046763D01*
Y2044224D01*
X1229832Y2042954D01*
X1234910D01*
X1236180Y2044224D01*
Y2046763D01*
X1234910Y2048033D01*
X1229832Y2050572D02*
X1228562Y2051841D01*
Y2054380D01*
X1229832Y2055650D01*
X1231102D01*
X1232371Y2054380D01*
X1233641Y2055650D01*
X1234910D01*
X1236180Y2054380D01*
Y2051841D01*
X1234910Y2050572D01*
X1233641D01*
X1232371Y2051841D01*
X1231102Y2050572D01*
X1229832D01*
X1232371Y2051841D02*
Y2054380D01*
X1102832Y2048033D02*
X1101562Y2046763D01*
Y2044224D01*
X1102832Y2042954D01*
X1107910D01*
X1109180Y2044224D01*
Y2046763D01*
X1107910Y2048033D01*
X1101562Y2050572D02*
Y2055650D01*
X1102832D01*
X1107910Y2050572D01*
X1109180D01*
X975832Y2048033D02*
X974563Y2046763D01*
Y2044224D01*
X975832Y2042954D01*
X980910D01*
X982180Y2044224D01*
Y2046763D01*
X980910Y2048033D01*
X974563Y2055650D02*
X975832Y2053111D01*
X978371Y2050572D01*
X980910D01*
X982180Y2051841D01*
Y2054380D01*
X980910Y2055650D01*
X979641D01*
X978371Y2054380D01*
Y2050572D01*
X848832Y2048033D02*
X847562Y2046763D01*
Y2044224D01*
X848832Y2042954D01*
X853910D01*
X855180Y2044224D01*
Y2046763D01*
X853910Y2048033D01*
X847562Y2055650D02*
Y2050572D01*
X851371D01*
X850102Y2053111D01*
Y2054380D01*
X851371Y2055650D01*
X853910D01*
X855180Y2054380D01*
Y2051841D01*
X853910Y2050572D01*
X721832Y2048033D02*
X720563Y2046763D01*
Y2044224D01*
X721832Y2042954D01*
X726910D01*
X728180Y2044224D01*
Y2046763D01*
X726910Y2048033D01*
X728180Y2054380D02*
X720563D01*
X724371Y2050572D01*
Y2055650D01*
X594832Y2048033D02*
X593563Y2046763D01*
Y2044224D01*
X594832Y2042954D01*
X599910D01*
X601180Y2044224D01*
Y2046763D01*
X599910Y2048033D01*
X594832Y2050572D02*
X593563Y2051841D01*
Y2054380D01*
X594832Y2055650D01*
X596102D01*
X597371Y2054380D01*
Y2053111D01*
Y2054380D01*
X598641Y2055650D01*
X599910D01*
X601180Y2054380D01*
Y2051841D01*
X599910Y2050572D01*
X467832Y2048033D02*
X466562Y2046763D01*
Y2044224D01*
X467832Y2042954D01*
X472910D01*
X474180Y2044224D01*
Y2046763D01*
X472910Y2048033D01*
X474180Y2055650D02*
Y2050572D01*
X469102Y2055650D01*
X467832D01*
X466562Y2054380D01*
Y2051841D01*
X467832Y2050572D01*
X347182Y2044222D02*
X345913Y2042952D01*
Y2040413D01*
X347182Y2039143D01*
X352260D01*
X353530Y2040413D01*
Y2042952D01*
X352260Y2044222D01*
X353530Y2046761D02*
Y2049300D01*
Y2048030D01*
X345913D01*
X347182Y2046761D01*
X1346670Y2291870D02*
X1352112D01*
X1353200Y2292233D01*
X1353926Y2292958D01*
X1354288Y2294047D01*
Y2294772D01*
X1353926Y2295861D01*
X1353200Y2296586D01*
X1352112Y2296949D01*
X1346670D01*
X1348121Y2299053D02*
X1347758Y2299779D01*
X1346670Y2300867D01*
X1354288D01*
X1346670Y2306817D02*
X1347033Y2305728D01*
X1348121Y2305003D01*
X1349935Y2304640D01*
X1351023D01*
X1352837Y2305003D01*
X1353926Y2305728D01*
X1354288Y2306817D01*
Y2307542D01*
X1353926Y2308630D01*
X1352837Y2309356D01*
X1351023Y2309719D01*
X1349935D01*
X1348121Y2309356D01*
X1347033Y2308630D01*
X1346670Y2307542D01*
Y2306817D01*
X1219670Y2291870D02*
X1225112D01*
X1226200Y2292233D01*
X1226926Y2292958D01*
X1227288Y2294047D01*
Y2294772D01*
X1226926Y2295861D01*
X1226200Y2296586D01*
X1225112Y2296949D01*
X1219670D01*
X1222209Y2303769D02*
X1223298Y2303406D01*
X1224023Y2302681D01*
X1224386Y2301593D01*
Y2301230D01*
X1224023Y2300141D01*
X1223298Y2299416D01*
X1222209Y2299053D01*
X1221847D01*
X1220758Y2299416D01*
X1220033Y2300141D01*
X1219670Y2301230D01*
Y2301593D01*
X1220033Y2302681D01*
X1220758Y2303406D01*
X1222209Y2303769D01*
X1224023D01*
X1225837Y2303406D01*
X1226926Y2302681D01*
X1227288Y2301593D01*
Y2300867D01*
X1226926Y2299779D01*
X1226200Y2299416D01*
X1092670Y2291870D02*
X1098112D01*
X1099200Y2292233D01*
X1099926Y2292958D01*
X1100288Y2294047D01*
Y2294772D01*
X1099926Y2295861D01*
X1099200Y2296586D01*
X1098112Y2296949D01*
X1092670D01*
Y2300867D02*
X1093033Y2299779D01*
X1093758Y2299416D01*
X1094484D01*
X1095210Y2299779D01*
X1095572Y2300504D01*
X1095935Y2301955D01*
X1096298Y2303044D01*
X1097023Y2303769D01*
X1097749Y2304132D01*
X1098837D01*
X1099563Y2303769D01*
X1099926Y2303406D01*
X1100288Y2302318D01*
Y2300867D01*
X1099926Y2299779D01*
X1099563Y2299416D01*
X1098837Y2299053D01*
X1097749D01*
X1097023Y2299416D01*
X1096298Y2300141D01*
X1095935Y2301230D01*
X1095572Y2302681D01*
X1095210Y2303406D01*
X1094484Y2303769D01*
X1093758D01*
X1093033Y2303406D01*
X1092670Y2302318D01*
Y2300867D01*
X965670Y2291870D02*
X971112D01*
X972200Y2292233D01*
X972926Y2292958D01*
X973288Y2294047D01*
Y2294772D01*
X972926Y2295861D01*
X972200Y2296586D01*
X971112Y2296949D01*
X965670D01*
Y2304132D02*
X973288Y2300504D01*
X965670Y2299053D02*
Y2304132D01*
X838670Y2291870D02*
X844112D01*
X845200Y2292233D01*
X845926Y2292958D01*
X846288Y2294047D01*
Y2294772D01*
X845926Y2295861D01*
X845200Y2296586D01*
X844112Y2296949D01*
X838670D01*
X839758Y2303406D02*
X839033Y2303044D01*
X838670Y2301955D01*
Y2301230D01*
X839033Y2300141D01*
X840121Y2299416D01*
X841935Y2299053D01*
X843749D01*
X845200Y2299416D01*
X845926Y2300141D01*
X846288Y2301230D01*
Y2301593D01*
X845926Y2302681D01*
X845200Y2303406D01*
X844112Y2303769D01*
X843749D01*
X842661Y2303406D01*
X841935Y2302681D01*
X841572Y2301593D01*
Y2301230D01*
X841935Y2300141D01*
X842661Y2299416D01*
X843749Y2299053D01*
X711670Y2291870D02*
X717112D01*
X718200Y2292233D01*
X718926Y2292958D01*
X719288Y2294047D01*
Y2294772D01*
X718926Y2295861D01*
X718200Y2296586D01*
X717112Y2296949D01*
X711670D01*
Y2303406D02*
Y2299779D01*
X714935Y2299416D01*
X714572Y2299779D01*
X714210Y2300867D01*
Y2301955D01*
X714572Y2303044D01*
X715298Y2303769D01*
X716386Y2304132D01*
X717112D01*
X718200Y2303769D01*
X718926Y2303044D01*
X719288Y2301955D01*
Y2300867D01*
X718926Y2299779D01*
X718563Y2299416D01*
X717837Y2299053D01*
X584670Y2291870D02*
X590112D01*
X591200Y2292233D01*
X591926Y2292958D01*
X592288Y2294047D01*
Y2294772D01*
X591926Y2295861D01*
X591200Y2296586D01*
X590112Y2296949D01*
X584670D01*
Y2302681D02*
X589749Y2299053D01*
Y2304495D01*
X584670Y2302681D02*
X592288D01*
X457670Y2291870D02*
X463112D01*
X464200Y2292233D01*
X464926Y2292958D01*
X465288Y2294047D01*
Y2294772D01*
X464926Y2295861D01*
X464200Y2296586D01*
X463112Y2296949D01*
X457670D01*
Y2299779D02*
Y2303769D01*
X460572Y2301593D01*
Y2302681D01*
X460935Y2303406D01*
X461298Y2303769D01*
X462386Y2304132D01*
X463112D01*
X464200Y2303769D01*
X464926Y2303044D01*
X465288Y2301955D01*
Y2300867D01*
X464926Y2299779D01*
X464563Y2299416D01*
X463837Y2299053D01*
X330670Y2291870D02*
X336112D01*
X337200Y2292233D01*
X337926Y2292958D01*
X338288Y2294047D01*
Y2294772D01*
X337926Y2295861D01*
X337200Y2296586D01*
X336112Y2296949D01*
X330670D01*
X332484Y2299416D02*
X332121D01*
X331396Y2299779D01*
X331033Y2300141D01*
X330670Y2300867D01*
Y2302318D01*
X331033Y2303044D01*
X331396Y2303406D01*
X332121Y2303769D01*
X332847D01*
X333572Y2303406D01*
X334661Y2302681D01*
X338288Y2299053D01*
Y2304132D01*
X193512Y2291870D02*
X198953D01*
X200042Y2292233D01*
X200767Y2292958D01*
X201130Y2294047D01*
Y2294772D01*
X200767Y2295861D01*
X200042Y2296586D01*
X198953Y2296949D01*
X193512D01*
X194963Y2299053D02*
X194600Y2299779D01*
X193512Y2300867D01*
X201130D01*
X328130Y2347750D02*
X335748D01*
X328130D02*
Y2350289D01*
X328493Y2351378D01*
X329218Y2352103D01*
X329944Y2352466D01*
X331032Y2352829D01*
X332846D01*
X333935Y2352466D01*
X334660Y2352103D01*
X335386Y2351378D01*
X335748Y2350289D01*
Y2347750D01*
X329944Y2354897D02*
X329581D01*
X328856Y2355260D01*
X328493Y2355622D01*
X328130Y2356348D01*
Y2357799D01*
X328493Y2358525D01*
X328856Y2358887D01*
X329581Y2359250D01*
X330307D01*
X331032Y2358887D01*
X332121Y2358162D01*
X335748Y2354534D01*
Y2359613D01*
X196052Y2347750D02*
X203670D01*
X196052D02*
Y2350289D01*
X196414Y2351378D01*
X197140Y2352103D01*
X197866Y2352466D01*
X198954Y2352829D01*
X200768D01*
X201856Y2352466D01*
X202582Y2352103D01*
X203307Y2351378D01*
X203670Y2350289D01*
Y2347750D01*
X197503Y2354534D02*
X197140Y2355260D01*
X196052Y2356348D01*
X203670D01*
X229070Y2389658D02*
X234149Y2382040D01*
Y2389658D02*
X229070Y2382040D01*
X235854Y2389658D02*
Y2382040D01*
Y2389658D02*
X240570D01*
X235854Y2386031D02*
X238756D01*
X241441Y2388207D02*
X242166Y2388570D01*
X243255Y2389658D01*
Y2382040D01*
X688808Y2003762D02*
X683004D01*
X681916Y2004125D01*
X681553Y2004488D01*
X681190Y2005213D01*
Y2005939D01*
X681553Y2006664D01*
X681916Y2007027D01*
X683004Y2007390D01*
X683729D01*
X688808Y1998175D02*
X683729Y2001803D01*
Y1996362D01*
X688808Y1998175D02*
X681190D01*
X582130Y2347750D02*
X589748D01*
X582130D02*
Y2350289D01*
X582493Y2351378D01*
X583218Y2352103D01*
X583944Y2352466D01*
X585032Y2352829D01*
X586846D01*
X587934Y2352466D01*
X588660Y2352103D01*
X589386Y2351378D01*
X589748Y2350289D01*
Y2347750D01*
X582130Y2358162D02*
X587209Y2354534D01*
Y2359976D01*
X582130Y2358162D02*
X589748D01*
X1196808Y2003762D02*
X1191004D01*
X1189916Y2004125D01*
X1189553Y2004488D01*
X1189190Y2005213D01*
Y2005939D01*
X1189553Y2006664D01*
X1189916Y2007027D01*
X1191004Y2007390D01*
X1191730D01*
X1196808Y1999989D02*
X1196446Y2001078D01*
X1195720Y2001440D01*
X1194995D01*
X1194269Y2001078D01*
X1193906Y2000352D01*
X1193543Y1998901D01*
X1193181Y1997813D01*
X1192455Y1997087D01*
X1191730Y1996724D01*
X1190641D01*
X1189916Y1997087D01*
X1189553Y1997450D01*
X1189190Y1998538D01*
Y1999989D01*
X1189553Y2001078D01*
X1189916Y2001440D01*
X1190641Y2001803D01*
X1191730D01*
X1192455Y2001440D01*
X1193181Y2000715D01*
X1193543Y1999626D01*
X1193906Y1998175D01*
X1194269Y1997450D01*
X1194995Y1997087D01*
X1195720D01*
X1196446Y1997450D01*
X1196808Y1998538D01*
Y1999989D01*
X942808Y2003762D02*
X937004D01*
X935916Y2004125D01*
X935553Y2004488D01*
X935190Y2005213D01*
Y2005939D01*
X935553Y2006664D01*
X935916Y2007027D01*
X937004Y2007390D01*
X937729D01*
X941720Y1997450D02*
X942446Y1997813D01*
X942808Y1998901D01*
Y1999626D01*
X942446Y2000715D01*
X941357Y2001440D01*
X939543Y2001803D01*
X937729D01*
X936278Y2001440D01*
X935553Y2000715D01*
X935190Y1999626D01*
Y1999264D01*
X935553Y1998175D01*
X936278Y1997450D01*
X937367Y1997087D01*
X937729D01*
X938818Y1997450D01*
X939543Y1998175D01*
X939906Y1999264D01*
Y1999626D01*
X939543Y2000715D01*
X938818Y2001440D01*
X937729Y2001803D01*
X323048Y2057102D02*
X317244D01*
X316156Y2057465D01*
X315793Y2057828D01*
X315430Y2058553D01*
Y2059279D01*
X315793Y2060004D01*
X316156Y2060367D01*
X317244Y2060730D01*
X317969D01*
X321597Y2055143D02*
X321960Y2054418D01*
X323048Y2053329D01*
X315430D01*
X434808Y2003762D02*
X429004D01*
X427916Y2004125D01*
X427553Y2004488D01*
X427190Y2005213D01*
Y2005939D01*
X427553Y2006664D01*
X427916Y2007027D01*
X429004Y2007390D01*
X429729D01*
X432994Y2001440D02*
X433357D01*
X434083Y2001078D01*
X434446Y2000715D01*
X434808Y1999989D01*
Y1998538D01*
X434446Y1997813D01*
X434083Y1997450D01*
X433357Y1997087D01*
X432632D01*
X431906Y1997450D01*
X430818Y1998175D01*
X427190Y2001803D01*
Y1996724D01*
X1245070Y2389658D02*
X1250149Y2382040D01*
Y2389658D02*
X1245070Y2382040D01*
X1251854Y2389658D02*
Y2382040D01*
Y2389658D02*
X1256570D01*
X1251854Y2386031D02*
X1254756D01*
X1262157Y2387119D02*
X1261794Y2386031D01*
X1261069Y2385305D01*
X1259980Y2384942D01*
X1259617D01*
X1258529Y2385305D01*
X1257804Y2386031D01*
X1257441Y2387119D01*
Y2387482D01*
X1257804Y2388570D01*
X1258529Y2389296D01*
X1259617Y2389658D01*
X1259980D01*
X1261069Y2389296D01*
X1261794Y2388570D01*
X1262157Y2387119D01*
Y2385305D01*
X1261794Y2383491D01*
X1261069Y2382403D01*
X1259980Y2382040D01*
X1259255D01*
X1258166Y2382403D01*
X1257804Y2383128D01*
X1118070Y2389658D02*
X1123149Y2382040D01*
Y2389658D02*
X1118070Y2382040D01*
X1124854Y2389658D02*
Y2382040D01*
Y2389658D02*
X1129570D01*
X1124854Y2386031D02*
X1127756D01*
X1132255Y2389658D02*
X1131166Y2389296D01*
X1130804Y2388570D01*
Y2387845D01*
X1131166Y2387119D01*
X1131892Y2386756D01*
X1133343Y2386393D01*
X1134431Y2386031D01*
X1135157Y2385305D01*
X1135520Y2384579D01*
Y2383491D01*
X1135157Y2382766D01*
X1134794Y2382403D01*
X1133706Y2382040D01*
X1132255D01*
X1131166Y2382403D01*
X1130804Y2382766D01*
X1130441Y2383491D01*
Y2384579D01*
X1130804Y2385305D01*
X1131529Y2386031D01*
X1132617Y2386393D01*
X1134069Y2386756D01*
X1134794Y2387119D01*
X1135157Y2387845D01*
Y2388570D01*
X1134794Y2389296D01*
X1133706Y2389658D01*
X1132255D01*
X991070D02*
X996149Y2382040D01*
Y2389658D02*
X991070Y2382040D01*
X997854Y2389658D02*
Y2382040D01*
Y2389658D02*
X1002570D01*
X997854Y2386031D02*
X1000756D01*
X1008520Y2389658D02*
X1004892Y2382040D01*
X1003441Y2389658D02*
X1008520D01*
X864070D02*
X869149Y2382040D01*
Y2389658D02*
X864070Y2382040D01*
X870854Y2389658D02*
Y2382040D01*
Y2389658D02*
X875570D01*
X870854Y2386031D02*
X873756D01*
X880794Y2388570D02*
X880431Y2389296D01*
X879343Y2389658D01*
X878617D01*
X877529Y2389296D01*
X876804Y2388207D01*
X876441Y2386393D01*
Y2384579D01*
X876804Y2383128D01*
X877529Y2382403D01*
X878617Y2382040D01*
X878980D01*
X880069Y2382403D01*
X880794Y2383128D01*
X881157Y2384217D01*
Y2384579D01*
X880794Y2385668D01*
X880069Y2386393D01*
X878980Y2386756D01*
X878617D01*
X877529Y2386393D01*
X876804Y2385668D01*
X876441Y2384579D01*
X737070Y2389658D02*
X742149Y2382040D01*
Y2389658D02*
X737070Y2382040D01*
X743854Y2389658D02*
Y2382040D01*
Y2389658D02*
X748570D01*
X743854Y2386031D02*
X746756D01*
X753794Y2389658D02*
X750166D01*
X749804Y2386393D01*
X750166Y2386756D01*
X751255Y2387119D01*
X752343D01*
X753431Y2386756D01*
X754157Y2386031D01*
X754520Y2384942D01*
Y2384217D01*
X754157Y2383128D01*
X753431Y2382403D01*
X752343Y2382040D01*
X751255D01*
X750166Y2382403D01*
X749804Y2382766D01*
X749441Y2383491D01*
X610070Y2389658D02*
X615149Y2382040D01*
Y2389658D02*
X610070Y2382040D01*
X616854Y2389658D02*
Y2382040D01*
Y2389658D02*
X621570D01*
X616854Y2386031D02*
X619756D01*
X626069Y2389658D02*
X622441Y2384579D01*
X627882D01*
X626069Y2389658D02*
Y2382040D01*
X483070Y2389658D02*
X488149Y2382040D01*
Y2389658D02*
X483070Y2382040D01*
X489854Y2389658D02*
Y2382040D01*
Y2389658D02*
X494570D01*
X489854Y2386031D02*
X492756D01*
X496166Y2389658D02*
X500157D01*
X497980Y2386756D01*
X499069D01*
X499794Y2386393D01*
X500157Y2386031D01*
X500520Y2384942D01*
Y2384217D01*
X500157Y2383128D01*
X499431Y2382403D01*
X498343Y2382040D01*
X497255D01*
X496166Y2382403D01*
X495804Y2382766D01*
X495441Y2383491D01*
X356070Y2389658D02*
X361149Y2382040D01*
Y2389658D02*
X356070Y2382040D01*
X362854Y2389658D02*
Y2382040D01*
Y2389658D02*
X367570D01*
X362854Y2386031D02*
X365756D01*
X368804Y2387845D02*
Y2388207D01*
X369166Y2388933D01*
X369529Y2389296D01*
X370255Y2389658D01*
X371706D01*
X372431Y2389296D01*
X372794Y2388933D01*
X373157Y2388207D01*
Y2387482D01*
X372794Y2386756D01*
X372069Y2385668D01*
X368441Y2382040D01*
X373520D01*
X1323808Y2003762D02*
X1318004D01*
X1316916Y2004125D01*
X1316553Y2004488D01*
X1316190Y2005213D01*
Y2005939D01*
X1316553Y2006664D01*
X1316916Y2007027D01*
X1318004Y2007390D01*
X1318730D01*
X1321269Y1997087D02*
X1320181Y1997450D01*
X1319455Y1998175D01*
X1319092Y1999264D01*
Y1999626D01*
X1319455Y2000715D01*
X1320181Y2001440D01*
X1321269Y2001803D01*
X1321632D01*
X1322720Y2001440D01*
X1323446Y2000715D01*
X1323808Y1999626D01*
Y1999264D01*
X1323446Y1998175D01*
X1322720Y1997450D01*
X1321269Y1997087D01*
X1319455D01*
X1317641Y1997450D01*
X1316553Y1998175D01*
X1316190Y1999264D01*
Y1999989D01*
X1316553Y2001078D01*
X1317278Y2001440D01*
X1069808Y2003762D02*
X1064004D01*
X1062916Y2004125D01*
X1062553Y2004488D01*
X1062190Y2005213D01*
Y2005939D01*
X1062553Y2006664D01*
X1062916Y2007027D01*
X1064004Y2007390D01*
X1064730D01*
X1069808Y1996724D02*
X1062190Y2000352D01*
X1069808Y2001803D02*
Y1996724D01*
X815808Y2003762D02*
X810004D01*
X808916Y2004125D01*
X808553Y2004488D01*
X808190Y2005213D01*
Y2005939D01*
X808553Y2006664D01*
X808916Y2007027D01*
X810004Y2007390D01*
X810730D01*
X815808Y1997450D02*
Y2001078D01*
X812543Y2001440D01*
X812906Y2001078D01*
X813269Y1999989D01*
Y1998901D01*
X812906Y1997813D01*
X812181Y1997087D01*
X811092Y1996724D01*
X810367D01*
X809278Y1997087D01*
X808553Y1997813D01*
X808190Y1998901D01*
Y1999989D01*
X808553Y2001078D01*
X808916Y2001440D01*
X809641Y2001803D01*
X561808Y2003762D02*
X556004D01*
X554916Y2004125D01*
X554553Y2004488D01*
X554190Y2005213D01*
Y2005939D01*
X554553Y2006664D01*
X554916Y2007027D01*
X556004Y2007390D01*
X556730D01*
X561808Y2001078D02*
Y1997087D01*
X558906Y1999264D01*
Y1998175D01*
X558543Y1997450D01*
X558181Y1997087D01*
X557092Y1996724D01*
X556367D01*
X555278Y1997087D01*
X554553Y1997813D01*
X554190Y1998901D01*
Y1999989D01*
X554553Y2001078D01*
X554916Y2001440D01*
X555641Y2001803D01*
X1344130Y2347750D02*
X1351748D01*
X1344130D02*
Y2350289D01*
X1344493Y2351378D01*
X1345218Y2352103D01*
X1345944Y2352466D01*
X1347032Y2352829D01*
X1348846D01*
X1349935Y2352466D01*
X1350660Y2352103D01*
X1351386Y2351378D01*
X1351748Y2350289D01*
Y2347750D01*
X1345581Y2354534D02*
X1345218Y2355260D01*
X1344130Y2356348D01*
X1351748D01*
X1344130Y2362298D02*
X1344493Y2361209D01*
X1345581Y2360484D01*
X1347395Y2360121D01*
X1348483D01*
X1350297Y2360484D01*
X1351386Y2361209D01*
X1351748Y2362298D01*
Y2363023D01*
X1351386Y2364111D01*
X1350297Y2364837D01*
X1348483Y2365200D01*
X1347395D01*
X1345581Y2364837D01*
X1344493Y2364111D01*
X1344130Y2363023D01*
Y2362298D01*
X1217130Y2347750D02*
X1224748D01*
X1217130D02*
Y2350289D01*
X1217493Y2351378D01*
X1218218Y2352103D01*
X1218944Y2352466D01*
X1220032Y2352829D01*
X1221846D01*
X1222934Y2352466D01*
X1223660Y2352103D01*
X1224386Y2351378D01*
X1224748Y2350289D01*
Y2347750D01*
X1219669Y2359250D02*
X1220758Y2358887D01*
X1221483Y2358162D01*
X1221846Y2357074D01*
Y2356711D01*
X1221483Y2355622D01*
X1220758Y2354897D01*
X1219669Y2354534D01*
X1219307D01*
X1218218Y2354897D01*
X1217493Y2355622D01*
X1217130Y2356711D01*
Y2357074D01*
X1217493Y2358162D01*
X1218218Y2358887D01*
X1219669Y2359250D01*
X1221483D01*
X1223297Y2358887D01*
X1224386Y2358162D01*
X1224748Y2357074D01*
Y2356348D01*
X1224386Y2355260D01*
X1223660Y2354897D01*
X1090130Y2347750D02*
X1097748D01*
X1090130D02*
Y2350289D01*
X1090493Y2351378D01*
X1091218Y2352103D01*
X1091944Y2352466D01*
X1093032Y2352829D01*
X1094846D01*
X1095935Y2352466D01*
X1096660Y2352103D01*
X1097386Y2351378D01*
X1097748Y2350289D01*
Y2347750D01*
X1090130Y2356348D02*
X1090493Y2355260D01*
X1091218Y2354897D01*
X1091944D01*
X1092670Y2355260D01*
X1093032Y2355985D01*
X1093395Y2357436D01*
X1093758Y2358525D01*
X1094483Y2359250D01*
X1095209Y2359613D01*
X1096297D01*
X1097023Y2359250D01*
X1097386Y2358887D01*
X1097748Y2357799D01*
Y2356348D01*
X1097386Y2355260D01*
X1097023Y2354897D01*
X1096297Y2354534D01*
X1095209D01*
X1094483Y2354897D01*
X1093758Y2355622D01*
X1093395Y2356711D01*
X1093032Y2358162D01*
X1092670Y2358887D01*
X1091944Y2359250D01*
X1091218D01*
X1090493Y2358887D01*
X1090130Y2357799D01*
Y2356348D01*
X963130Y2347750D02*
X970748D01*
X963130D02*
Y2350289D01*
X963493Y2351378D01*
X964218Y2352103D01*
X964944Y2352466D01*
X966032Y2352829D01*
X967846D01*
X968934Y2352466D01*
X969660Y2352103D01*
X970386Y2351378D01*
X970748Y2350289D01*
Y2347750D01*
X963130Y2359613D02*
X970748Y2355985D01*
X963130Y2354534D02*
Y2359613D01*
X836130Y2347750D02*
X843748D01*
X836130D02*
Y2350289D01*
X836493Y2351378D01*
X837218Y2352103D01*
X837944Y2352466D01*
X839032Y2352829D01*
X840846D01*
X841935Y2352466D01*
X842660Y2352103D01*
X843386Y2351378D01*
X843748Y2350289D01*
Y2347750D01*
X837218Y2358887D02*
X836493Y2358525D01*
X836130Y2357436D01*
Y2356711D01*
X836493Y2355622D01*
X837581Y2354897D01*
X839395Y2354534D01*
X841209D01*
X842660Y2354897D01*
X843386Y2355622D01*
X843748Y2356711D01*
Y2357074D01*
X843386Y2358162D01*
X842660Y2358887D01*
X841572Y2359250D01*
X841209D01*
X840121Y2358887D01*
X839395Y2358162D01*
X839032Y2357074D01*
Y2356711D01*
X839395Y2355622D01*
X840121Y2354897D01*
X841209Y2354534D01*
X709130Y2347750D02*
X716748D01*
X709130D02*
Y2350289D01*
X709493Y2351378D01*
X710218Y2352103D01*
X710944Y2352466D01*
X712032Y2352829D01*
X713846D01*
X714934Y2352466D01*
X715660Y2352103D01*
X716386Y2351378D01*
X716748Y2350289D01*
Y2347750D01*
X709130Y2358887D02*
Y2355260D01*
X712395Y2354897D01*
X712032Y2355260D01*
X711669Y2356348D01*
Y2357436D01*
X712032Y2358525D01*
X712758Y2359250D01*
X713846Y2359613D01*
X714572D01*
X715660Y2359250D01*
X716386Y2358525D01*
X716748Y2357436D01*
Y2356348D01*
X716386Y2355260D01*
X716023Y2354897D01*
X715297Y2354534D01*
X455130Y2347750D02*
X462748D01*
X455130D02*
Y2350289D01*
X455493Y2351378D01*
X456218Y2352103D01*
X456944Y2352466D01*
X458032Y2352829D01*
X459846D01*
X460934Y2352466D01*
X461660Y2352103D01*
X462386Y2351378D01*
X462748Y2350289D01*
Y2347750D01*
X455130Y2355260D02*
Y2359250D01*
X458032Y2357074D01*
Y2358162D01*
X458395Y2358887D01*
X458758Y2359250D01*
X459846Y2359613D01*
X460572D01*
X461660Y2359250D01*
X462386Y2358525D01*
X462748Y2357436D01*
Y2356348D01*
X462386Y2355260D01*
X462023Y2354897D01*
X461297Y2354534D01*
X1993900Y429260D02*
Y358140D01*
X1790700Y429260D02*
X1993900D01*
X1790700D02*
Y358140D01*
X1993900D01*
Y1064260D02*
Y993140D01*
X1790700Y1064260D02*
X1993900D01*
X1790700D02*
Y993140D01*
X1993900D01*
X1521800Y892700D02*
X1523800Y890700D01*
X1521800Y910700D02*
Y892700D01*
X1539800Y928700D02*
X1626800D01*
X1539800D02*
X1521800Y910700D01*
X1626800Y928700D02*
Y874700D01*
X1539800D02*
X1626800D01*
X1523800Y890700D02*
X1539800Y874700D01*
X1519936Y1300023D02*
Y1265377D01*
X1549200Y1239520D01*
X1680210D01*
Y1325880D02*
Y1239520D01*
X1549218Y1325880D02*
X1680210D01*
X1549218D02*
X1519936Y1300023D01*
X1790700Y1318260D02*
X1993900D01*
Y1247140D01*
X1790700D02*
X1993900D01*
X1790700Y1318260D02*
Y1247140D01*
X1521800Y511700D02*
X1523800Y509700D01*
X1521800Y529700D02*
Y511700D01*
X1539800Y547700D02*
X1626800D01*
X1539800D02*
X1521800Y529700D01*
X1626800Y547700D02*
Y493700D01*
X1539800D02*
X1626800D01*
X1523800Y509700D02*
X1539800Y493700D01*
X1521800Y257700D02*
X1523800Y255700D01*
X1521800Y275700D02*
Y257700D01*
X1539800Y293700D02*
X1626800D01*
X1539800D02*
X1521800Y275700D01*
X1626800Y293700D02*
Y239700D01*
X1539800D02*
X1626800D01*
X1523800Y255700D02*
X1539800Y239700D01*
X1523800Y382700D02*
X1539800Y366700D01*
X1626800D01*
Y420700D02*
Y366700D01*
X1539800Y420700D02*
X1521800Y402700D01*
X1539800Y420700D02*
X1626800D01*
X1521800Y402700D02*
Y384700D01*
X1523800Y382700D01*
X1521800Y765700D02*
X1523800Y763700D01*
X1521800Y783700D02*
Y765700D01*
X1539800Y801700D02*
X1626800D01*
X1539800D02*
X1521800Y783700D01*
X1626800Y801700D02*
Y747700D01*
X1539800D02*
X1626800D01*
X1523800Y763700D02*
X1539800Y747700D01*
X1523800Y636700D02*
X1539800Y620700D01*
X1626800D01*
Y674700D02*
Y620700D01*
X1539800Y674700D02*
X1521800Y656700D01*
X1539800Y674700D02*
X1626800D01*
X1521800Y656700D02*
Y638700D01*
X1523800Y636700D01*
X1521800Y1019700D02*
X1523800Y1017700D01*
X1521800Y1037700D02*
Y1019700D01*
X1539800Y1055700D02*
X1626800D01*
X1539800D02*
X1521800Y1037700D01*
X1626800Y1055700D02*
Y1001700D01*
X1539800D02*
X1626800D01*
X1523800Y1017700D02*
X1539800Y1001700D01*
X1523800Y1144700D02*
X1539800Y1128700D01*
X1626800D01*
Y1182700D02*
Y1128700D01*
X1539800Y1182700D02*
X1521800Y1164700D01*
X1539800Y1182700D02*
X1626800D01*
X1521800Y1164700D02*
Y1146700D01*
X1523800Y1144700D01*
X1790700Y612140D02*
X1993900D01*
X1790700Y683260D02*
Y612140D01*
Y683260D02*
X1993900D01*
Y612140D01*
X1790700Y739140D02*
X1993900D01*
X1790700Y810260D02*
Y739140D01*
Y810260D02*
X1993900D01*
Y739140D01*
X1790700Y231140D02*
X1993900D01*
X1790700Y302260D02*
Y231140D01*
Y302260D02*
X1993900D01*
Y231140D01*
X1790700Y485140D02*
X1993900D01*
X1790700Y556260D02*
Y485140D01*
Y556260D02*
X1993900D01*
Y485140D01*
X1790700Y1120140D02*
X1993900D01*
X1790700Y1191260D02*
Y1120140D01*
Y1191260D02*
X1993900D01*
Y1120140D01*
X1790700Y866140D02*
X1993900D01*
X1790700Y937260D02*
Y866140D01*
Y937260D02*
X1993900D01*
Y866140D01*
X1667513Y318768D02*
X1666243Y320037D01*
X1663704D01*
X1662434Y318768D01*
Y313690D01*
X1663704Y312420D01*
X1666243D01*
X1667513Y313690D01*
X1670052Y318768D02*
X1671321Y320037D01*
X1673860D01*
X1675130Y318768D01*
Y317498D01*
X1673860Y316229D01*
X1675130Y314959D01*
Y313690D01*
X1673860Y312420D01*
X1671321D01*
X1670052Y313690D01*
Y314959D01*
X1671321Y316229D01*
X1670052Y317498D01*
Y318768D01*
X1671321Y316229D02*
X1673860D01*
X1667513Y445768D02*
X1666243Y447038D01*
X1663704D01*
X1662434Y445768D01*
Y440690D01*
X1663704Y439420D01*
X1666243D01*
X1667513Y440690D01*
X1670052Y447038D02*
X1675130D01*
Y445768D01*
X1670052Y440690D01*
Y439420D01*
X1667513Y572768D02*
X1666243Y574038D01*
X1663704D01*
X1662434Y572768D01*
Y567690D01*
X1663704Y566420D01*
X1666243D01*
X1667513Y567690D01*
X1675130Y574038D02*
X1672591Y572768D01*
X1670052Y570229D01*
Y567690D01*
X1671321Y566420D01*
X1673860D01*
X1675130Y567690D01*
Y568959D01*
X1673860Y570229D01*
X1670052D01*
X1667513Y699768D02*
X1666243Y701038D01*
X1663704D01*
X1662434Y699768D01*
Y694690D01*
X1663704Y693420D01*
X1666243D01*
X1667513Y694690D01*
X1675130Y701038D02*
X1670052D01*
Y697229D01*
X1672591Y698498D01*
X1673860D01*
X1675130Y697229D01*
Y694690D01*
X1673860Y693420D01*
X1671321D01*
X1670052Y694690D01*
X1667513Y826768D02*
X1666243Y828037D01*
X1663704D01*
X1662434Y826768D01*
Y821690D01*
X1663704Y820420D01*
X1666243D01*
X1667513Y821690D01*
X1673860Y820420D02*
Y828037D01*
X1670052Y824229D01*
X1675130D01*
X1667513Y953768D02*
X1666243Y955038D01*
X1663704D01*
X1662434Y953768D01*
Y948690D01*
X1663704Y947420D01*
X1666243D01*
X1667513Y948690D01*
X1670052Y953768D02*
X1671321Y955038D01*
X1673860D01*
X1675130Y953768D01*
Y952498D01*
X1673860Y951229D01*
X1672591D01*
X1673860D01*
X1675130Y949959D01*
Y948690D01*
X1673860Y947420D01*
X1671321D01*
X1670052Y948690D01*
X1667513Y1080768D02*
X1666243Y1082038D01*
X1663704D01*
X1662434Y1080768D01*
Y1075690D01*
X1663704Y1074420D01*
X1666243D01*
X1667513Y1075690D01*
X1675130Y1074420D02*
X1670052D01*
X1675130Y1079498D01*
Y1080768D01*
X1673860Y1082038D01*
X1671321D01*
X1670052Y1080768D01*
X1663702Y1201418D02*
X1662432Y1202688D01*
X1659893D01*
X1658623Y1201418D01*
Y1196340D01*
X1659893Y1195070D01*
X1662432D01*
X1663702Y1196340D01*
X1666241Y1195070D02*
X1668780D01*
X1667510D01*
Y1202688D01*
X1666241Y1201418D01*
X1911350Y201930D02*
Y196488D01*
X1911713Y195400D01*
X1912438Y194674D01*
X1913527Y194312D01*
X1914252D01*
X1915341Y194674D01*
X1916066Y195400D01*
X1916429Y196488D01*
Y201930D01*
X1918533Y200479D02*
X1919259Y200842D01*
X1920347Y201930D01*
Y194312D01*
X1926297Y201930D02*
X1925208Y201567D01*
X1924483Y200479D01*
X1924120Y198665D01*
Y197577D01*
X1924483Y195763D01*
X1925208Y194674D01*
X1926297Y194312D01*
X1927022D01*
X1928110Y194674D01*
X1928836Y195763D01*
X1929199Y197577D01*
Y198665D01*
X1928836Y200479D01*
X1928110Y201567D01*
X1927022Y201930D01*
X1926297D01*
X1911350Y328930D02*
Y323488D01*
X1911713Y322400D01*
X1912438Y321674D01*
X1913527Y321312D01*
X1914252D01*
X1915341Y321674D01*
X1916066Y322400D01*
X1916429Y323488D01*
Y328930D01*
X1923249Y326390D02*
X1922886Y325302D01*
X1922161Y324577D01*
X1921073Y324214D01*
X1920710D01*
X1919621Y324577D01*
X1918896Y325302D01*
X1918533Y326390D01*
Y326753D01*
X1918896Y327842D01*
X1919621Y328567D01*
X1920710Y328930D01*
X1921073D01*
X1922161Y328567D01*
X1922886Y327842D01*
X1923249Y326390D01*
Y324577D01*
X1922886Y322763D01*
X1922161Y321674D01*
X1921073Y321312D01*
X1920347D01*
X1919259Y321674D01*
X1918896Y322400D01*
X1911350Y455930D02*
Y450488D01*
X1911713Y449400D01*
X1912438Y448674D01*
X1913527Y448312D01*
X1914252D01*
X1915341Y448674D01*
X1916066Y449400D01*
X1916429Y450488D01*
Y455930D01*
X1920347D02*
X1919259Y455567D01*
X1918896Y454842D01*
Y454116D01*
X1919259Y453391D01*
X1919984Y453028D01*
X1921435Y452665D01*
X1922524Y452302D01*
X1923249Y451577D01*
X1923612Y450851D01*
Y449763D01*
X1923249Y449037D01*
X1922886Y448674D01*
X1921798Y448312D01*
X1920347D01*
X1919259Y448674D01*
X1918896Y449037D01*
X1918533Y449763D01*
Y450851D01*
X1918896Y451577D01*
X1919621Y452302D01*
X1920710Y452665D01*
X1922161Y453028D01*
X1922886Y453391D01*
X1923249Y454116D01*
Y454842D01*
X1922886Y455567D01*
X1921798Y455930D01*
X1920347D01*
X1911350Y582930D02*
Y577488D01*
X1911713Y576400D01*
X1912438Y575674D01*
X1913527Y575312D01*
X1914252D01*
X1915341Y575674D01*
X1916066Y576400D01*
X1916429Y577488D01*
Y582930D01*
X1923612D02*
X1919984Y575312D01*
X1918533Y582930D02*
X1923612D01*
X1911350Y709930D02*
Y704488D01*
X1911713Y703400D01*
X1912438Y702674D01*
X1913527Y702312D01*
X1914252D01*
X1915341Y702674D01*
X1916066Y703400D01*
X1916429Y704488D01*
Y709930D01*
X1922886Y708842D02*
X1922524Y709567D01*
X1921435Y709930D01*
X1920710D01*
X1919621Y709567D01*
X1918896Y708479D01*
X1918533Y706665D01*
Y704851D01*
X1918896Y703400D01*
X1919621Y702674D01*
X1920710Y702312D01*
X1921073D01*
X1922161Y702674D01*
X1922886Y703400D01*
X1923249Y704488D01*
Y704851D01*
X1922886Y705939D01*
X1922161Y706665D01*
X1921073Y707028D01*
X1920710D01*
X1919621Y706665D01*
X1918896Y705939D01*
X1918533Y704851D01*
X1911350Y836930D02*
Y831488D01*
X1911713Y830400D01*
X1912438Y829674D01*
X1913527Y829312D01*
X1914252D01*
X1915341Y829674D01*
X1916066Y830400D01*
X1916429Y831488D01*
Y836930D01*
X1922886D02*
X1919259D01*
X1918896Y833665D01*
X1919259Y834028D01*
X1920347Y834390D01*
X1921435D01*
X1922524Y834028D01*
X1923249Y833302D01*
X1923612Y832214D01*
Y831488D01*
X1923249Y830400D01*
X1922524Y829674D01*
X1921435Y829312D01*
X1920347D01*
X1919259Y829674D01*
X1918896Y830037D01*
X1918533Y830763D01*
X1911350Y963930D02*
Y958488D01*
X1911713Y957400D01*
X1912438Y956674D01*
X1913527Y956312D01*
X1914252D01*
X1915341Y956674D01*
X1916066Y957400D01*
X1916429Y958488D01*
Y963930D01*
X1922161D02*
X1918533Y958851D01*
X1923975D01*
X1922161Y963930D02*
Y956312D01*
X1911350Y1090930D02*
Y1085488D01*
X1911713Y1084400D01*
X1912438Y1083674D01*
X1913527Y1083312D01*
X1914252D01*
X1915341Y1083674D01*
X1916066Y1084400D01*
X1916429Y1085488D01*
Y1090930D01*
X1919259D02*
X1923249D01*
X1921073Y1088028D01*
X1922161D01*
X1922886Y1087665D01*
X1923249Y1087302D01*
X1923612Y1086214D01*
Y1085488D01*
X1923249Y1084400D01*
X1922524Y1083674D01*
X1921435Y1083312D01*
X1920347D01*
X1919259Y1083674D01*
X1918896Y1084037D01*
X1918533Y1084763D01*
X1911350Y1217930D02*
Y1212488D01*
X1911713Y1211400D01*
X1912438Y1210674D01*
X1913527Y1210312D01*
X1914252D01*
X1915341Y1210674D01*
X1916066Y1211400D01*
X1916429Y1212488D01*
Y1217930D01*
X1918896Y1216116D02*
Y1216479D01*
X1919259Y1217204D01*
X1919621Y1217567D01*
X1920347Y1217930D01*
X1921798D01*
X1922524Y1217567D01*
X1922886Y1217204D01*
X1923249Y1216479D01*
Y1215753D01*
X1922886Y1215028D01*
X1922161Y1213939D01*
X1918533Y1210312D01*
X1923612D01*
X1911350Y1355088D02*
Y1349647D01*
X1911713Y1348558D01*
X1912438Y1347833D01*
X1913527Y1347470D01*
X1914252D01*
X1915341Y1347833D01*
X1916066Y1348558D01*
X1916429Y1349647D01*
Y1355088D01*
X1918533Y1353637D02*
X1919259Y1354000D01*
X1920347Y1355088D01*
Y1347470D01*
X1967230Y1220470D02*
Y1212852D01*
Y1220470D02*
X1969769D01*
X1970858Y1220107D01*
X1971583Y1219382D01*
X1971946Y1218656D01*
X1972309Y1217568D01*
Y1215754D01*
X1971946Y1214666D01*
X1971583Y1213940D01*
X1970858Y1213214D01*
X1969769Y1212852D01*
X1967230D01*
X1974377Y1218656D02*
Y1219019D01*
X1974740Y1219744D01*
X1975102Y1220107D01*
X1975828Y1220470D01*
X1977279D01*
X1978005Y1220107D01*
X1978367Y1219744D01*
X1978730Y1219019D01*
Y1218293D01*
X1978367Y1217568D01*
X1977642Y1216479D01*
X1974014Y1212852D01*
X1979093D01*
X1967230Y1352548D02*
Y1344930D01*
Y1352548D02*
X1969769D01*
X1970858Y1352186D01*
X1971583Y1351460D01*
X1971946Y1350735D01*
X1972309Y1349646D01*
Y1347832D01*
X1971946Y1346744D01*
X1971583Y1346018D01*
X1970858Y1345293D01*
X1969769Y1344930D01*
X1967230D01*
X1974014Y1351097D02*
X1974740Y1351460D01*
X1975828Y1352548D01*
Y1344930D01*
X2009138Y1319530D02*
X2001520Y1314451D01*
X2009138D02*
X2001520Y1319530D01*
X2009138Y1312746D02*
X2001520D01*
X2009138D02*
Y1308030D01*
X2005511Y1312746D02*
Y1309844D01*
X2007687Y1307159D02*
X2008050Y1306434D01*
X2009138Y1305345D01*
X2001520D01*
X1623242Y859792D02*
Y865596D01*
X1623605Y866684D01*
X1623968Y867047D01*
X1624693Y867410D01*
X1625419D01*
X1626144Y867047D01*
X1626507Y866684D01*
X1626870Y865596D01*
Y864871D01*
X1617655Y859792D02*
X1621283Y864871D01*
X1615842D01*
X1617655Y859792D02*
Y867410D01*
X1967230Y966470D02*
Y958852D01*
Y966470D02*
X1969769D01*
X1970858Y966107D01*
X1971583Y965382D01*
X1971946Y964656D01*
X1972309Y963568D01*
Y961754D01*
X1971946Y960666D01*
X1971583Y959940D01*
X1970858Y959214D01*
X1969769Y958852D01*
X1967230D01*
X1977642Y966470D02*
X1974014Y961391D01*
X1979456D01*
X1977642Y966470D02*
Y958852D01*
X1623242Y351792D02*
Y357596D01*
X1623605Y358684D01*
X1623968Y359047D01*
X1624693Y359410D01*
X1625419D01*
X1626144Y359047D01*
X1626507Y358684D01*
X1626870Y357596D01*
Y356870D01*
X1619469Y351792D02*
X1620558Y352154D01*
X1620920Y352880D01*
Y353605D01*
X1620558Y354331D01*
X1619832Y354694D01*
X1618381Y355057D01*
X1617293Y355419D01*
X1616567Y356145D01*
X1616204Y356870D01*
Y357959D01*
X1616567Y358684D01*
X1616930Y359047D01*
X1618018Y359410D01*
X1619469D01*
X1620558Y359047D01*
X1620920Y358684D01*
X1621283Y357959D01*
Y356870D01*
X1620920Y356145D01*
X1620195Y355419D01*
X1619106Y355057D01*
X1617655Y354694D01*
X1616930Y354331D01*
X1616567Y353605D01*
Y352880D01*
X1616930Y352154D01*
X1618018Y351792D01*
X1619469D01*
X1623242Y605792D02*
Y611596D01*
X1623605Y612684D01*
X1623968Y613047D01*
X1624693Y613410D01*
X1625419D01*
X1626144Y613047D01*
X1626507Y612684D01*
X1626870Y611596D01*
Y610871D01*
X1616930Y606880D02*
X1617293Y606154D01*
X1618381Y605792D01*
X1619106D01*
X1620195Y606154D01*
X1620920Y607243D01*
X1621283Y609057D01*
Y610871D01*
X1620920Y612322D01*
X1620195Y613047D01*
X1619106Y613410D01*
X1618744D01*
X1617655Y613047D01*
X1616930Y612322D01*
X1616567Y611233D01*
Y610871D01*
X1616930Y609782D01*
X1617655Y609057D01*
X1618744Y608694D01*
X1619106D01*
X1620195Y609057D01*
X1620920Y609782D01*
X1621283Y610871D01*
X1676582Y1225552D02*
Y1231356D01*
X1676945Y1232444D01*
X1677308Y1232807D01*
X1678033Y1233170D01*
X1678759D01*
X1679484Y1232807D01*
X1679847Y1232444D01*
X1680210Y1231356D01*
Y1230630D01*
X1674623Y1227003D02*
X1673898Y1226640D01*
X1672809Y1225552D01*
Y1233170D01*
X1623242Y1113792D02*
Y1119596D01*
X1623605Y1120684D01*
X1623968Y1121047D01*
X1624693Y1121410D01*
X1625419D01*
X1626144Y1121047D01*
X1626507Y1120684D01*
X1626870Y1119596D01*
Y1118870D01*
X1620920Y1115605D02*
Y1115243D01*
X1620558Y1114517D01*
X1620195Y1114154D01*
X1619469Y1113792D01*
X1618018D01*
X1617293Y1114154D01*
X1616930Y1114517D01*
X1616567Y1115243D01*
Y1115968D01*
X1616930Y1116694D01*
X1617655Y1117782D01*
X1621283Y1121410D01*
X1616204D01*
X2009138Y303530D02*
X2001520Y298451D01*
X2009138D02*
X2001520Y303530D01*
X2009138Y296746D02*
X2001520D01*
X2009138D02*
Y292030D01*
X2005511Y296746D02*
Y293844D01*
X2006599Y286443D02*
X2005511Y286806D01*
X2004785Y287531D01*
X2004422Y288620D01*
Y288983D01*
X2004785Y290071D01*
X2005511Y290796D01*
X2006599Y291159D01*
X2006962D01*
X2008050Y290796D01*
X2008776Y290071D01*
X2009138Y288983D01*
Y288620D01*
X2008776Y287531D01*
X2008050Y286806D01*
X2006599Y286443D01*
X2004785D01*
X2002971Y286806D01*
X2001883Y287531D01*
X2001520Y288620D01*
Y289345D01*
X2001883Y290434D01*
X2002608Y290796D01*
X2009138Y430530D02*
X2001520Y425451D01*
X2009138D02*
X2001520Y430530D01*
X2009138Y423746D02*
X2001520D01*
X2009138D02*
Y419030D01*
X2005511Y423746D02*
Y420844D01*
X2009138Y416345D02*
X2008776Y417434D01*
X2008050Y417796D01*
X2007325D01*
X2006599Y417434D01*
X2006236Y416708D01*
X2005873Y415257D01*
X2005511Y414169D01*
X2004785Y413443D01*
X2004059Y413080D01*
X2002971D01*
X2002246Y413443D01*
X2001883Y413806D01*
X2001520Y414894D01*
Y416345D01*
X2001883Y417434D01*
X2002246Y417796D01*
X2002971Y418159D01*
X2004059D01*
X2004785Y417796D01*
X2005511Y417071D01*
X2005873Y415983D01*
X2006236Y414531D01*
X2006599Y413806D01*
X2007325Y413443D01*
X2008050D01*
X2008776Y413806D01*
X2009138Y414894D01*
Y416345D01*
Y557530D02*
X2001520Y552451D01*
X2009138D02*
X2001520Y557530D01*
X2009138Y550746D02*
X2001520D01*
X2009138D02*
Y546030D01*
X2005511Y550746D02*
Y547844D01*
X2009138Y540080D02*
X2001520Y543708D01*
X2009138Y545159D02*
Y540080D01*
Y684530D02*
X2001520Y679451D01*
X2009138D02*
X2001520Y684530D01*
X2009138Y677746D02*
X2001520D01*
X2009138D02*
Y673030D01*
X2005511Y677746D02*
Y674844D01*
X2008050Y667806D02*
X2008776Y668169D01*
X2009138Y669257D01*
Y669983D01*
X2008776Y671071D01*
X2007687Y671796D01*
X2005873Y672159D01*
X2004059D01*
X2002608Y671796D01*
X2001883Y671071D01*
X2001520Y669983D01*
Y669620D01*
X2001883Y668531D01*
X2002608Y667806D01*
X2003697Y667443D01*
X2004059D01*
X2005148Y667806D01*
X2005873Y668531D01*
X2006236Y669620D01*
Y669983D01*
X2005873Y671071D01*
X2005148Y671796D01*
X2004059Y672159D01*
X2009138Y811530D02*
X2001520Y806451D01*
X2009138D02*
X2001520Y811530D01*
X2009138Y804746D02*
X2001520D01*
X2009138D02*
Y800030D01*
X2005511Y804746D02*
Y801844D01*
X2009138Y794806D02*
Y798434D01*
X2005873Y798796D01*
X2006236Y798434D01*
X2006599Y797345D01*
Y796257D01*
X2006236Y795169D01*
X2005511Y794443D01*
X2004422Y794080D01*
X2003697D01*
X2002608Y794443D01*
X2001883Y795169D01*
X2001520Y796257D01*
Y797345D01*
X2001883Y798434D01*
X2002246Y798796D01*
X2002971Y799159D01*
X2009138Y938530D02*
X2001520Y933451D01*
X2009138D02*
X2001520Y938530D01*
X2009138Y931746D02*
X2001520D01*
X2009138D02*
Y927030D01*
X2005511Y931746D02*
Y928844D01*
X2009138Y922531D02*
X2004059Y926159D01*
Y920717D01*
X2009138Y922531D02*
X2001520D01*
X2009138Y1065530D02*
X2001520Y1060451D01*
X2009138D02*
X2001520Y1065530D01*
X2009138Y1058746D02*
X2001520D01*
X2009138D02*
Y1054030D01*
X2005511Y1058746D02*
Y1055844D01*
X2009138Y1052434D02*
Y1048443D01*
X2006236Y1050620D01*
Y1049531D01*
X2005873Y1048806D01*
X2005511Y1048443D01*
X2004422Y1048080D01*
X2003697D01*
X2002608Y1048443D01*
X2001883Y1049169D01*
X2001520Y1050257D01*
Y1051345D01*
X2001883Y1052434D01*
X2002246Y1052796D01*
X2002971Y1053159D01*
X2009138Y1192530D02*
X2001520Y1187451D01*
X2009138D02*
X2001520Y1192530D01*
X2009138Y1185746D02*
X2001520D01*
X2009138D02*
Y1181030D01*
X2005511Y1185746D02*
Y1182844D01*
X2007325Y1179796D02*
X2007687D01*
X2008413Y1179434D01*
X2008776Y1179071D01*
X2009138Y1178345D01*
Y1176894D01*
X2008776Y1176169D01*
X2008413Y1175806D01*
X2007687Y1175443D01*
X2006962D01*
X2006236Y1175806D01*
X2005148Y1176531D01*
X2001520Y1180159D01*
Y1175080D01*
X1623242Y224792D02*
Y230596D01*
X1623605Y231684D01*
X1623968Y232047D01*
X1624693Y232410D01*
X1625419D01*
X1626144Y232047D01*
X1626507Y231684D01*
X1626870Y230596D01*
Y229870D01*
X1616567Y227331D02*
X1616930Y228419D01*
X1617655Y229145D01*
X1618744Y229508D01*
X1619106D01*
X1620195Y229145D01*
X1620920Y228419D01*
X1621283Y227331D01*
Y226968D01*
X1620920Y225880D01*
X1620195Y225154D01*
X1619106Y224792D01*
X1618744D01*
X1617655Y225154D01*
X1616930Y225880D01*
X1616567Y227331D01*
Y229145D01*
X1616930Y230959D01*
X1617655Y232047D01*
X1618744Y232410D01*
X1619469D01*
X1620558Y232047D01*
X1620920Y231322D01*
X1623242Y478792D02*
Y484596D01*
X1623605Y485684D01*
X1623968Y486047D01*
X1624693Y486410D01*
X1625419D01*
X1626144Y486047D01*
X1626507Y485684D01*
X1626870Y484596D01*
Y483871D01*
X1616204Y478792D02*
X1619832Y486410D01*
X1621283Y478792D02*
X1616204D01*
X1623242Y732792D02*
Y738596D01*
X1623605Y739684D01*
X1623968Y740047D01*
X1624693Y740410D01*
X1625419D01*
X1626144Y740047D01*
X1626507Y739684D01*
X1626870Y738596D01*
Y737870D01*
X1616930Y732792D02*
X1620558D01*
X1620920Y736057D01*
X1620558Y735694D01*
X1619469Y735331D01*
X1618381D01*
X1617293Y735694D01*
X1616567Y736419D01*
X1616204Y737508D01*
Y738233D01*
X1616567Y739322D01*
X1617293Y740047D01*
X1618381Y740410D01*
X1619469D01*
X1620558Y740047D01*
X1620920Y739684D01*
X1621283Y738959D01*
X1623242Y986792D02*
Y992596D01*
X1623605Y993684D01*
X1623968Y994047D01*
X1624693Y994410D01*
X1625419D01*
X1626144Y994047D01*
X1626507Y993684D01*
X1626870Y992596D01*
Y991870D01*
X1620558Y986792D02*
X1616567D01*
X1618744Y989694D01*
X1617655D01*
X1616930Y990057D01*
X1616567Y990419D01*
X1616204Y991508D01*
Y992233D01*
X1616567Y993322D01*
X1617293Y994047D01*
X1618381Y994410D01*
X1619469D01*
X1620558Y994047D01*
X1620920Y993684D01*
X1621283Y992959D01*
X1967230Y204470D02*
Y196852D01*
Y204470D02*
X1969769D01*
X1970858Y204107D01*
X1971583Y203382D01*
X1971946Y202656D01*
X1972309Y201568D01*
Y199754D01*
X1971946Y198666D01*
X1971583Y197940D01*
X1970858Y197214D01*
X1969769Y196852D01*
X1967230D01*
X1974014Y203019D02*
X1974740Y203382D01*
X1975828Y204470D01*
Y196852D01*
X1981777Y204470D02*
X1980689Y204107D01*
X1979964Y203019D01*
X1979601Y201205D01*
Y200117D01*
X1979964Y198303D01*
X1980689Y197214D01*
X1981777Y196852D01*
X1982503D01*
X1983591Y197214D01*
X1984317Y198303D01*
X1984680Y200117D01*
Y201205D01*
X1984317Y203019D01*
X1983591Y204107D01*
X1982503Y204470D01*
X1981777D01*
X1967230Y331470D02*
Y323852D01*
Y331470D02*
X1969769D01*
X1970858Y331107D01*
X1971583Y330382D01*
X1971946Y329656D01*
X1972309Y328568D01*
Y326754D01*
X1971946Y325666D01*
X1971583Y324940D01*
X1970858Y324214D01*
X1969769Y323852D01*
X1967230D01*
X1978730Y328931D02*
X1978367Y327842D01*
X1977642Y327117D01*
X1976553Y326754D01*
X1976191D01*
X1975102Y327117D01*
X1974377Y327842D01*
X1974014Y328931D01*
Y329293D01*
X1974377Y330382D01*
X1975102Y331107D01*
X1976191Y331470D01*
X1976553D01*
X1977642Y331107D01*
X1978367Y330382D01*
X1978730Y328931D01*
Y327117D01*
X1978367Y325303D01*
X1977642Y324214D01*
X1976553Y323852D01*
X1975828D01*
X1974740Y324214D01*
X1974377Y324940D01*
X1967230Y458470D02*
Y450852D01*
Y458470D02*
X1969769D01*
X1970858Y458107D01*
X1971583Y457382D01*
X1971946Y456656D01*
X1972309Y455568D01*
Y453754D01*
X1971946Y452665D01*
X1971583Y451940D01*
X1970858Y451214D01*
X1969769Y450852D01*
X1967230D01*
X1975828Y458470D02*
X1974740Y458107D01*
X1974377Y457382D01*
Y456656D01*
X1974740Y455930D01*
X1975465Y455568D01*
X1976916Y455205D01*
X1978005Y454842D01*
X1978730Y454117D01*
X1979093Y453391D01*
Y452303D01*
X1978730Y451577D01*
X1978367Y451214D01*
X1977279Y450852D01*
X1975828D01*
X1974740Y451214D01*
X1974377Y451577D01*
X1974014Y452303D01*
Y453391D01*
X1974377Y454117D01*
X1975102Y454842D01*
X1976191Y455205D01*
X1977642Y455568D01*
X1978367Y455930D01*
X1978730Y456656D01*
Y457382D01*
X1978367Y458107D01*
X1977279Y458470D01*
X1975828D01*
X1967230Y585470D02*
Y577852D01*
Y585470D02*
X1969769D01*
X1970858Y585107D01*
X1971583Y584382D01*
X1971946Y583656D01*
X1972309Y582568D01*
Y580754D01*
X1971946Y579665D01*
X1971583Y578940D01*
X1970858Y578214D01*
X1969769Y577852D01*
X1967230D01*
X1979093Y585470D02*
X1975465Y577852D01*
X1974014Y585470D02*
X1979093D01*
X1967230Y712470D02*
Y704852D01*
Y712470D02*
X1969769D01*
X1970858Y712107D01*
X1971583Y711382D01*
X1971946Y710656D01*
X1972309Y709568D01*
Y707754D01*
X1971946Y706665D01*
X1971583Y705940D01*
X1970858Y705214D01*
X1969769Y704852D01*
X1967230D01*
X1978367Y711382D02*
X1978005Y712107D01*
X1976916Y712470D01*
X1976191D01*
X1975102Y712107D01*
X1974377Y711019D01*
X1974014Y709205D01*
Y707391D01*
X1974377Y705940D01*
X1975102Y705214D01*
X1976191Y704852D01*
X1976553D01*
X1977642Y705214D01*
X1978367Y705940D01*
X1978730Y707028D01*
Y707391D01*
X1978367Y708479D01*
X1977642Y709205D01*
X1976553Y709568D01*
X1976191D01*
X1975102Y709205D01*
X1974377Y708479D01*
X1974014Y707391D01*
X1967230Y839470D02*
Y831852D01*
Y839470D02*
X1969769D01*
X1970858Y839107D01*
X1971583Y838382D01*
X1971946Y837656D01*
X1972309Y836568D01*
Y834754D01*
X1971946Y833665D01*
X1971583Y832940D01*
X1970858Y832214D01*
X1969769Y831852D01*
X1967230D01*
X1978367Y839470D02*
X1974740D01*
X1974377Y836205D01*
X1974740Y836568D01*
X1975828Y836930D01*
X1976916D01*
X1978005Y836568D01*
X1978730Y835842D01*
X1979093Y834754D01*
Y834028D01*
X1978730Y832940D01*
X1978005Y832214D01*
X1976916Y831852D01*
X1975828D01*
X1974740Y832214D01*
X1974377Y832577D01*
X1974014Y833303D01*
X1967230Y1093470D02*
Y1085852D01*
Y1093470D02*
X1969769D01*
X1970858Y1093107D01*
X1971583Y1092382D01*
X1971946Y1091656D01*
X1972309Y1090568D01*
Y1088754D01*
X1971946Y1087665D01*
X1971583Y1086940D01*
X1970858Y1086214D01*
X1969769Y1085852D01*
X1967230D01*
X1974740Y1093470D02*
X1978730D01*
X1976553Y1090568D01*
X1977642D01*
X1978367Y1090205D01*
X1978730Y1089842D01*
X1979093Y1088754D01*
Y1088028D01*
X1978730Y1086940D01*
X1978005Y1086214D01*
X1976916Y1085852D01*
X1975828D01*
X1974740Y1086214D01*
X1974377Y1086577D01*
X1974014Y1087303D01*
D28*
X1331900Y342420D02*
G03*
X1331900Y342420I-50000J0D01*
G01*
X1204900D02*
G03*
X1204900Y342420I-50000J0D01*
G01*
X1077900D02*
G03*
X1077900Y342420I-50000J0D01*
G01*
X950900D02*
G03*
X950900Y342420I-50000J0D01*
G01*
X823900D02*
G03*
X823900Y342420I-50000J0D01*
G01*
X696900D02*
G03*
X696900Y342420I-50000J0D01*
G01*
X569900D02*
G03*
X569900Y342420I-50000J0D01*
G01*
X442900D02*
G03*
X442900Y342420I-50000J0D01*
G01*
X1276820Y282420D02*
X1286980D01*
X1281900Y277340D02*
Y287500D01*
X1149820Y282420D02*
X1159980D01*
X1154900Y277340D02*
Y287500D01*
X1022820Y282420D02*
X1032980D01*
X1027900Y277340D02*
Y287500D01*
X895820Y282420D02*
X905980D01*
X900900Y277340D02*
Y287500D01*
X768820Y282420D02*
X778980D01*
X773900Y277340D02*
Y287500D01*
X641820Y282420D02*
X651980D01*
X646900Y277340D02*
Y287500D01*
X514820Y282420D02*
X524980D01*
X519900Y277340D02*
Y287500D01*
X387820Y282420D02*
X397980D01*
X392900Y277340D02*
Y287500D01*
X434800Y552320D02*
Y564320D01*
X452600Y552320D02*
Y564320D01*
X561800Y552320D02*
Y564320D01*
X579600Y552320D02*
Y564320D01*
X688800Y552320D02*
Y564320D01*
X706600Y552320D02*
Y564320D01*
X815800Y552320D02*
Y564320D01*
X833600Y552320D02*
Y564320D01*
X942800Y552320D02*
Y564320D01*
X960600Y552320D02*
Y564320D01*
X1069800Y552320D02*
Y564320D01*
X1087600Y552320D02*
Y564320D01*
X1196800Y552320D02*
Y564320D01*
X1214600Y552320D02*
Y564320D01*
X1323800Y552320D02*
Y564320D01*
X1341600Y552320D02*
Y564320D01*
X307800Y552320D02*
Y564320D01*
X325600Y552320D02*
Y564320D01*
X206200Y552320D02*
Y564320D01*
X224000Y552320D02*
Y564320D01*
X1331900Y926620D02*
G03*
X1331900Y926620I-50000J0D01*
G01*
X1204900D02*
G03*
X1204900Y926620I-50000J0D01*
G01*
X1077900D02*
G03*
X1077900Y926620I-50000J0D01*
G01*
X950900D02*
G03*
X950900Y926620I-50000J0D01*
G01*
X823900D02*
G03*
X823900Y926620I-50000J0D01*
G01*
X696900D02*
G03*
X696900Y926620I-50000J0D01*
G01*
X569900D02*
G03*
X569900Y926620I-50000J0D01*
G01*
X442900D02*
G03*
X442900Y926620I-50000J0D01*
G01*
X1276820Y866620D02*
X1286980D01*
X1281900Y861540D02*
Y871700D01*
X1149820Y866620D02*
X1159980D01*
X1154900Y861540D02*
Y871700D01*
X1022820Y866620D02*
X1032980D01*
X1027900Y861540D02*
Y871700D01*
X895820Y866620D02*
X905980D01*
X900900Y861540D02*
Y871700D01*
X768820Y866620D02*
X778980D01*
X773900Y861540D02*
Y871700D01*
X641820Y866620D02*
X651980D01*
X646900Y861540D02*
Y871700D01*
X514820Y866620D02*
X524980D01*
X519900Y861540D02*
Y871700D01*
X387820Y866620D02*
X397980D01*
X392900Y861540D02*
Y871700D01*
X434800Y1136520D02*
Y1148520D01*
X452600Y1136520D02*
Y1148520D01*
X561800Y1136520D02*
Y1148520D01*
X579600Y1136520D02*
Y1148520D01*
X688800Y1136520D02*
Y1148520D01*
X706600Y1136520D02*
Y1148520D01*
X815800Y1136520D02*
Y1148520D01*
X833600Y1136520D02*
Y1148520D01*
X942800Y1136520D02*
Y1148520D01*
X960600Y1136520D02*
Y1148520D01*
X1069800Y1136520D02*
Y1148520D01*
X1087600Y1136520D02*
Y1148520D01*
X1196800Y1136520D02*
Y1148520D01*
X1214600Y1136520D02*
Y1148520D01*
X1323800Y1136520D02*
Y1148520D01*
X1341600Y1136520D02*
Y1148520D01*
X307800Y1136520D02*
Y1148520D01*
X325600Y1136520D02*
Y1148520D01*
X206200Y1136520D02*
Y1148520D01*
X224000Y1136520D02*
Y1148520D01*
X1331900Y1510820D02*
G03*
X1331900Y1510820I-50000J0D01*
G01*
X1204900D02*
G03*
X1204900Y1510820I-50000J0D01*
G01*
X1077900D02*
G03*
X1077900Y1510820I-50000J0D01*
G01*
X950900D02*
G03*
X950900Y1510820I-50000J0D01*
G01*
X823900D02*
G03*
X823900Y1510820I-50000J0D01*
G01*
X696900D02*
G03*
X696900Y1510820I-50000J0D01*
G01*
X569900D02*
G03*
X569900Y1510820I-50000J0D01*
G01*
X442900D02*
G03*
X442900Y1510820I-50000J0D01*
G01*
X1276820Y1450820D02*
X1286980D01*
X1281900Y1445740D02*
Y1455900D01*
X1149820Y1450820D02*
X1159980D01*
X1154900Y1445740D02*
Y1455900D01*
X1022820Y1450820D02*
X1032980D01*
X1027900Y1445740D02*
Y1455900D01*
X895820Y1450820D02*
X905980D01*
X900900Y1445740D02*
Y1455900D01*
X768820Y1450820D02*
X778980D01*
X773900Y1445740D02*
Y1455900D01*
X641820Y1450820D02*
X651980D01*
X646900Y1445740D02*
Y1455900D01*
X514820Y1450820D02*
X524980D01*
X519900Y1445740D02*
Y1455900D01*
X387820Y1450820D02*
X397980D01*
X392900Y1445740D02*
Y1455900D01*
X434800Y1720720D02*
Y1732720D01*
X452600Y1720720D02*
Y1732720D01*
X561800Y1720720D02*
Y1732720D01*
X579600Y1720720D02*
Y1732720D01*
X688800Y1720720D02*
Y1732720D01*
X706600Y1720720D02*
Y1732720D01*
X815800Y1720720D02*
Y1732720D01*
X833600Y1720720D02*
Y1732720D01*
X942800Y1720720D02*
Y1732720D01*
X960600Y1720720D02*
Y1732720D01*
X1069800Y1720720D02*
Y1732720D01*
X1087600Y1720720D02*
Y1732720D01*
X1196800Y1720720D02*
Y1732720D01*
X1214600Y1720720D02*
Y1732720D01*
X1323800Y1720720D02*
Y1732720D01*
X1341600Y1720720D02*
Y1732720D01*
X307800Y1720720D02*
Y1732720D01*
X325600Y1720720D02*
Y1732720D01*
X206200Y1720720D02*
Y1732720D01*
X224000Y1720720D02*
Y1732720D01*
X1331900Y2095020D02*
G03*
X1331900Y2095020I-50000J0D01*
G01*
X1204900D02*
G03*
X1204900Y2095020I-50000J0D01*
G01*
X1077900D02*
G03*
X1077900Y2095020I-50000J0D01*
G01*
X950900D02*
G03*
X950900Y2095020I-50000J0D01*
G01*
X823900D02*
G03*
X823900Y2095020I-50000J0D01*
G01*
X696900D02*
G03*
X696900Y2095020I-50000J0D01*
G01*
X569900D02*
G03*
X569900Y2095020I-50000J0D01*
G01*
X442900D02*
G03*
X442900Y2095020I-50000J0D01*
G01*
X1276820Y2035020D02*
X1286980D01*
X1281900Y2029940D02*
Y2040100D01*
X1149820Y2035020D02*
X1159980D01*
X1154900Y2029940D02*
Y2040100D01*
X1022820Y2035020D02*
X1032980D01*
X1027900Y2029940D02*
Y2040100D01*
X895820Y2035020D02*
X905980D01*
X900900Y2029940D02*
Y2040100D01*
X768820Y2035020D02*
X778980D01*
X773900Y2029940D02*
Y2040100D01*
X641820Y2035020D02*
X651980D01*
X646900Y2029940D02*
Y2040100D01*
X514820Y2035020D02*
X524980D01*
X519900Y2029940D02*
Y2040100D01*
X387820Y2035020D02*
X397980D01*
X392900Y2029940D02*
Y2040100D01*
X434800Y2304920D02*
Y2316920D01*
X452600Y2304920D02*
Y2316920D01*
X561800Y2304920D02*
Y2316920D01*
X579600Y2304920D02*
Y2316920D01*
X688800Y2304920D02*
Y2316920D01*
X706600Y2304920D02*
Y2316920D01*
X815800Y2304920D02*
Y2316920D01*
X833600Y2304920D02*
Y2316920D01*
X942800Y2304920D02*
Y2316920D01*
X960600Y2304920D02*
Y2316920D01*
X1069800Y2304920D02*
Y2316920D01*
X1087600Y2304920D02*
Y2316920D01*
X1196800Y2304920D02*
Y2316920D01*
X1214600Y2304920D02*
Y2316920D01*
X1323800Y2304920D02*
Y2316920D01*
X1341600Y2304920D02*
Y2316920D01*
X307800Y2304920D02*
Y2316920D01*
X325600Y2304920D02*
Y2316920D01*
X206200Y2304920D02*
Y2316920D01*
X224000Y2304920D02*
Y2316920D01*
X1714500Y216700D02*
G03*
X1714500Y216700I0J50000D01*
G01*
Y343700D02*
G03*
X1714500Y343700I0J50000D01*
G01*
Y470700D02*
G03*
X1714500Y470700I0J50000D01*
G01*
Y597700D02*
G03*
X1714500Y597700I0J50000D01*
G01*
Y724700D02*
G03*
X1714500Y724700I0J50000D01*
G01*
Y851700D02*
G03*
X1714500Y851700I0J50000D01*
G01*
Y978700D02*
G03*
X1714500Y978700I0J50000D01*
G01*
Y1105700D02*
G03*
X1714500Y1105700I0J50000D01*
G01*
X1654500Y271780D02*
Y261620D01*
X1649420Y266700D02*
X1659580D01*
X1654500Y398780D02*
Y388620D01*
X1649420Y393700D02*
X1659580D01*
X1654500Y525780D02*
Y515620D01*
X1649420Y520700D02*
X1659580D01*
X1654500Y652780D02*
Y642620D01*
X1649420Y647700D02*
X1659580D01*
X1654500Y779780D02*
Y769620D01*
X1649420Y774700D02*
X1659580D01*
X1654500Y906780D02*
Y896620D01*
X1649420Y901700D02*
X1659580D01*
X1654500Y1033780D02*
Y1023620D01*
X1649420Y1028700D02*
X1659580D01*
X1654500Y1160780D02*
Y1150620D01*
X1649420Y1155700D02*
X1659580D01*
X1924400Y1113800D02*
X1936400D01*
X1924400Y1096000D02*
X1936400D01*
X1924400Y986800D02*
X1936400D01*
X1924400Y969000D02*
X1936400D01*
X1924400Y859800D02*
X1936400D01*
X1924400Y842000D02*
X1936400D01*
X1924400Y732800D02*
X1936400D01*
X1924400Y715000D02*
X1936400D01*
X1924400Y605800D02*
X1936400D01*
X1924400Y588000D02*
X1936400D01*
X1924400Y478800D02*
X1936400D01*
X1924400Y461000D02*
X1936400D01*
X1924400Y351800D02*
X1936400D01*
X1924400Y334000D02*
X1936400D01*
X1924400Y224800D02*
X1936400D01*
X1924400Y207000D02*
X1936400D01*
X1924400Y1240800D02*
X1936400D01*
X1924400Y1223000D02*
X1936400D01*
X1924400Y1342400D02*
X1936400D01*
X1924400Y1324600D02*
X1936400D01*
D29*
X444950Y532320D02*
G03*
X444950Y532320I-1250J0D01*
G01*
X571950D02*
G03*
X571950Y532320I-1250J0D01*
G01*
X698950D02*
G03*
X698950Y532320I-1250J0D01*
G01*
X825950D02*
G03*
X825950Y532320I-1250J0D01*
G01*
X952950D02*
G03*
X952950Y532320I-1250J0D01*
G01*
X1079950D02*
G03*
X1079950Y532320I-1250J0D01*
G01*
X1206950D02*
G03*
X1206950Y532320I-1250J0D01*
G01*
X1333950D02*
G03*
X1333950Y532320I-1250J0D01*
G01*
X317950D02*
G03*
X317950Y532320I-1250J0D01*
G01*
X216350D02*
G03*
X216350Y532320I-1250J0D01*
G01*
X444950Y1116520D02*
G03*
X444950Y1116520I-1250J0D01*
G01*
X571950D02*
G03*
X571950Y1116520I-1250J0D01*
G01*
X698950D02*
G03*
X698950Y1116520I-1250J0D01*
G01*
X825950D02*
G03*
X825950Y1116520I-1250J0D01*
G01*
X952950D02*
G03*
X952950Y1116520I-1250J0D01*
G01*
X1079950D02*
G03*
X1079950Y1116520I-1250J0D01*
G01*
X1206950D02*
G03*
X1206950Y1116520I-1250J0D01*
G01*
X1333950D02*
G03*
X1333950Y1116520I-1250J0D01*
G01*
X317950D02*
G03*
X317950Y1116520I-1250J0D01*
G01*
X216350D02*
G03*
X216350Y1116520I-1250J0D01*
G01*
X444950Y1700720D02*
G03*
X444950Y1700720I-1250J0D01*
G01*
X571950D02*
G03*
X571950Y1700720I-1250J0D01*
G01*
X698950D02*
G03*
X698950Y1700720I-1250J0D01*
G01*
X825950D02*
G03*
X825950Y1700720I-1250J0D01*
G01*
X952950D02*
G03*
X952950Y1700720I-1250J0D01*
G01*
X1079950D02*
G03*
X1079950Y1700720I-1250J0D01*
G01*
X1206950D02*
G03*
X1206950Y1700720I-1250J0D01*
G01*
X1333950D02*
G03*
X1333950Y1700720I-1250J0D01*
G01*
X317950D02*
G03*
X317950Y1700720I-1250J0D01*
G01*
X216350D02*
G03*
X216350Y1700720I-1250J0D01*
G01*
X444950Y2284920D02*
G03*
X444950Y2284920I-1250J0D01*
G01*
X571950D02*
G03*
X571950Y2284920I-1250J0D01*
G01*
X698950D02*
G03*
X698950Y2284920I-1250J0D01*
G01*
X825950D02*
G03*
X825950Y2284920I-1250J0D01*
G01*
X952950D02*
G03*
X952950Y2284920I-1250J0D01*
G01*
X1079950D02*
G03*
X1079950Y2284920I-1250J0D01*
G01*
X1206950D02*
G03*
X1206950Y2284920I-1250J0D01*
G01*
X1333950D02*
G03*
X1333950Y2284920I-1250J0D01*
G01*
X317950D02*
G03*
X317950Y2284920I-1250J0D01*
G01*
X216350D02*
G03*
X216350Y2284920I-1250J0D01*
G01*
X1904400Y1103650D02*
G03*
X1904400Y1103650I0J1250D01*
G01*
Y976650D02*
G03*
X1904400Y976650I0J1250D01*
G01*
Y849650D02*
G03*
X1904400Y849650I0J1250D01*
G01*
Y722650D02*
G03*
X1904400Y722650I0J1250D01*
G01*
Y595650D02*
G03*
X1904400Y595650I0J1250D01*
G01*
Y468650D02*
G03*
X1904400Y468650I0J1250D01*
G01*
Y341650D02*
G03*
X1904400Y341650I0J1250D01*
G01*
Y214650D02*
G03*
X1904400Y214650I0J1250D01*
G01*
Y1230650D02*
G03*
X1904400Y1230650I0J1250D01*
G01*
Y1332250D02*
G03*
X1904400Y1332250I0J1250D01*
G01*
D30*
X268670Y140744D02*
G03*
X268670Y140744I-1500J0D01*
G01*
Y724944D02*
G03*
X268670Y724944I-1500J0D01*
G01*
Y1309144D02*
G03*
X268670Y1309144I-1500J0D01*
G01*
Y1893344D02*
G03*
X268670Y1893344I-1500J0D01*
G01*
X1512824Y1279930D02*
G03*
X1512824Y1279930I0J1500D01*
G01*
D31*
X570700Y610870D02*
X573200Y607370D01*
X570700D02*
X573200D01*
X570700Y610870D02*
X572950D01*
X568450D02*
X570700D01*
X568200Y607370D02*
X570700D01*
X568200D02*
X570700Y610870D01*
X316700D02*
X319200Y607370D01*
X316700D02*
X319200D01*
X316700Y610870D02*
X318950D01*
X314450D02*
X316700D01*
X314200Y607370D02*
X316700D01*
X314200D02*
X316700Y610870D01*
X215100D02*
X217600Y607370D01*
X215100D02*
X217600D01*
X215100Y610870D02*
X217350D01*
X212850D02*
X215100D01*
X212600Y607370D02*
X215100D01*
X212600D02*
X215100Y610870D01*
X697700D02*
X700200Y607370D01*
X697700D02*
X700200D01*
X697700Y610870D02*
X699950D01*
X695450D02*
X697700D01*
X695200Y607370D02*
X697700D01*
X695200D02*
X697700Y610870D01*
X949200Y607370D02*
X951700Y610870D01*
X949200Y607370D02*
X951700D01*
X949450Y610870D02*
X951700D01*
X953950D01*
X951700Y607370D02*
X954200D01*
X951700Y610870D02*
X954200Y607370D01*
X824700Y610870D02*
X827200Y607370D01*
X824700D02*
X827200D01*
X824700Y610870D02*
X826950D01*
X822450D02*
X824700D01*
X822200Y607370D02*
X824700D01*
X822200D02*
X824700Y610870D01*
X441200Y607370D02*
X443700Y610870D01*
X441200Y607370D02*
X443700D01*
X441450Y610870D02*
X443700D01*
X445950D01*
X443700Y607370D02*
X446200D01*
X443700Y610870D02*
X446200Y607370D01*
X1332700Y610870D02*
X1335200Y607370D01*
X1332700D02*
X1335200D01*
X1332700Y610870D02*
X1334950D01*
X1330450D02*
X1332700D01*
X1330200Y607370D02*
X1332700D01*
X1330200D02*
X1332700Y610870D01*
X1203200Y607370D02*
X1205700Y610870D01*
X1203200Y607370D02*
X1205700D01*
X1203450Y610870D02*
X1205700D01*
X1207950D01*
X1205700Y607370D02*
X1208200D01*
X1205700Y610870D02*
X1208200Y607370D01*
X1078700Y610870D02*
X1081200Y607370D01*
X1078700D02*
X1081200D01*
X1078700Y610870D02*
X1080950D01*
X1076450D02*
X1078700D01*
X1076200Y607370D02*
X1078700D01*
X1076200D02*
X1078700Y610870D01*
X570700Y1195070D02*
X573200Y1191570D01*
X570700D02*
X573200D01*
X570700Y1195070D02*
X572950D01*
X568450D02*
X570700D01*
X568200Y1191570D02*
X570700D01*
X568200D02*
X570700Y1195070D01*
X316700D02*
X319200Y1191570D01*
X316700D02*
X319200D01*
X316700Y1195070D02*
X318950D01*
X314450D02*
X316700D01*
X314200Y1191570D02*
X316700D01*
X314200D02*
X316700Y1195070D01*
X215100D02*
X217600Y1191570D01*
X215100D02*
X217600D01*
X215100Y1195070D02*
X217350D01*
X212850D02*
X215100D01*
X212600Y1191570D02*
X215100D01*
X212600D02*
X215100Y1195070D01*
X697700D02*
X700200Y1191570D01*
X697700D02*
X700200D01*
X697700Y1195070D02*
X699950D01*
X695450D02*
X697700D01*
X695200Y1191570D02*
X697700D01*
X695200D02*
X697700Y1195070D01*
X949200Y1191570D02*
X951700Y1195070D01*
X949200Y1191570D02*
X951700D01*
X949450Y1195070D02*
X951700D01*
X953950D01*
X951700Y1191570D02*
X954200D01*
X951700Y1195070D02*
X954200Y1191570D01*
X824700Y1195070D02*
X827200Y1191570D01*
X824700D02*
X827200D01*
X824700Y1195070D02*
X826950D01*
X822450D02*
X824700D01*
X822200Y1191570D02*
X824700D01*
X822200D02*
X824700Y1195070D01*
X441200Y1191570D02*
X443700Y1195070D01*
X441200Y1191570D02*
X443700D01*
X441450Y1195070D02*
X443700D01*
X445950D01*
X443700Y1191570D02*
X446200D01*
X443700Y1195070D02*
X446200Y1191570D01*
X1332700Y1195070D02*
X1335200Y1191570D01*
X1332700D02*
X1335200D01*
X1332700Y1195070D02*
X1334950D01*
X1330450D02*
X1332700D01*
X1330200Y1191570D02*
X1332700D01*
X1330200D02*
X1332700Y1195070D01*
X1203200Y1191570D02*
X1205700Y1195070D01*
X1203200Y1191570D02*
X1205700D01*
X1203450Y1195070D02*
X1205700D01*
X1207950D01*
X1205700Y1191570D02*
X1208200D01*
X1205700Y1195070D02*
X1208200Y1191570D01*
X1078700Y1195070D02*
X1081200Y1191570D01*
X1078700D02*
X1081200D01*
X1078700Y1195070D02*
X1080950D01*
X1076450D02*
X1078700D01*
X1076200Y1191570D02*
X1078700D01*
X1076200D02*
X1078700Y1195070D01*
X570700Y1779270D02*
X573200Y1775770D01*
X570700D02*
X573200D01*
X570700Y1779270D02*
X572950D01*
X568450D02*
X570700D01*
X568200Y1775770D02*
X570700D01*
X568200D02*
X570700Y1779270D01*
X316700D02*
X319200Y1775770D01*
X316700D02*
X319200D01*
X316700Y1779270D02*
X318950D01*
X314450D02*
X316700D01*
X314200Y1775770D02*
X316700D01*
X314200D02*
X316700Y1779270D01*
X215100D02*
X217600Y1775770D01*
X215100D02*
X217600D01*
X215100Y1779270D02*
X217350D01*
X212850D02*
X215100D01*
X212600Y1775770D02*
X215100D01*
X212600D02*
X215100Y1779270D01*
X697700D02*
X700200Y1775770D01*
X697700D02*
X700200D01*
X697700Y1779270D02*
X699950D01*
X695450D02*
X697700D01*
X695200Y1775770D02*
X697700D01*
X695200D02*
X697700Y1779270D01*
X949200Y1775770D02*
X951700Y1779270D01*
X949200Y1775770D02*
X951700D01*
X949450Y1779270D02*
X951700D01*
X953950D01*
X951700Y1775770D02*
X954200D01*
X951700Y1779270D02*
X954200Y1775770D01*
X824700Y1779270D02*
X827200Y1775770D01*
X824700D02*
X827200D01*
X824700Y1779270D02*
X826950D01*
X822450D02*
X824700D01*
X822200Y1775770D02*
X824700D01*
X822200D02*
X824700Y1779270D01*
X441200Y1775770D02*
X443700Y1779270D01*
X441200Y1775770D02*
X443700D01*
X441450Y1779270D02*
X443700D01*
X445950D01*
X443700Y1775770D02*
X446200D01*
X443700Y1779270D02*
X446200Y1775770D01*
X1332700Y1779270D02*
X1335200Y1775770D01*
X1332700D02*
X1335200D01*
X1332700Y1779270D02*
X1334950D01*
X1330450D02*
X1332700D01*
X1330200Y1775770D02*
X1332700D01*
X1330200D02*
X1332700Y1779270D01*
X1203200Y1775770D02*
X1205700Y1779270D01*
X1203200Y1775770D02*
X1205700D01*
X1203450Y1779270D02*
X1205700D01*
X1207950D01*
X1205700Y1775770D02*
X1208200D01*
X1205700Y1779270D02*
X1208200Y1775770D01*
X1078700Y1779270D02*
X1081200Y1775770D01*
X1078700D02*
X1081200D01*
X1078700Y1779270D02*
X1080950D01*
X1076450D02*
X1078700D01*
X1076200Y1775770D02*
X1078700D01*
X1076200D02*
X1078700Y1779270D01*
X570700Y2363470D02*
X573200Y2359970D01*
X570700D02*
X573200D01*
X570700Y2363470D02*
X572950D01*
X568450D02*
X570700D01*
X568200Y2359970D02*
X570700D01*
X568200D02*
X570700Y2363470D01*
X316700D02*
X319200Y2359970D01*
X316700D02*
X319200D01*
X316700Y2363470D02*
X318950D01*
X314450D02*
X316700D01*
X314200Y2359970D02*
X316700D01*
X314200D02*
X316700Y2363470D01*
X215100D02*
X217600Y2359970D01*
X215100D02*
X217600D01*
X215100Y2363470D02*
X217350D01*
X212850D02*
X215100D01*
X212600Y2359970D02*
X215100D01*
X212600D02*
X215100Y2363470D01*
X697700D02*
X700200Y2359970D01*
X697700D02*
X700200D01*
X697700Y2363470D02*
X699950D01*
X695450D02*
X697700D01*
X695200Y2359970D02*
X697700D01*
X695200D02*
X697700Y2363470D01*
X949200Y2359970D02*
X951700Y2363470D01*
X949200Y2359970D02*
X951700D01*
X949450Y2363470D02*
X951700D01*
X953950D01*
X951700Y2359970D02*
X954200D01*
X951700Y2363470D02*
X954200Y2359970D01*
X824700Y2363470D02*
X827200Y2359970D01*
X824700D02*
X827200D01*
X824700Y2363470D02*
X826950D01*
X822450D02*
X824700D01*
X822200Y2359970D02*
X824700D01*
X822200D02*
X824700Y2363470D01*
X441200Y2359970D02*
X443700Y2363470D01*
X441200Y2359970D02*
X443700D01*
X441450Y2363470D02*
X443700D01*
X445950D01*
X443700Y2359970D02*
X446200D01*
X443700Y2363470D02*
X446200Y2359970D01*
X1332700Y2363470D02*
X1335200Y2359970D01*
X1332700D02*
X1335200D01*
X1332700Y2363470D02*
X1334950D01*
X1330450D02*
X1332700D01*
X1330200Y2359970D02*
X1332700D01*
X1330200D02*
X1332700Y2363470D01*
X1203200Y2359970D02*
X1205700Y2363470D01*
X1203200Y2359970D02*
X1205700D01*
X1203450Y2363470D02*
X1205700D01*
X1207950D01*
X1205700Y2359970D02*
X1208200D01*
X1205700Y2363470D02*
X1208200Y2359970D01*
X1078700Y2363470D02*
X1081200Y2359970D01*
X1078700D02*
X1081200D01*
X1078700Y2363470D02*
X1080950D01*
X1076450D02*
X1078700D01*
X1076200Y2359970D02*
X1078700D01*
X1076200D02*
X1078700Y2363470D01*
X1982950Y977900D02*
X1979450Y975400D01*
Y977900D02*
Y975400D01*
X1982950Y977900D02*
Y975650D01*
Y980150D02*
Y977900D01*
X1979450Y980400D02*
Y977900D01*
Y980400D02*
X1982950Y977900D01*
Y1231900D02*
X1979450Y1229400D01*
Y1231900D02*
Y1229400D01*
X1982950Y1231900D02*
Y1229650D01*
Y1234150D02*
Y1231900D01*
X1979450Y1234400D02*
Y1231900D01*
Y1234400D02*
X1982950Y1231900D01*
Y1333500D02*
X1979450Y1331000D01*
Y1333500D02*
Y1331000D01*
X1982950Y1333500D02*
Y1331250D01*
Y1335750D02*
Y1333500D01*
X1979450Y1336000D02*
Y1333500D01*
Y1336000D02*
X1982950Y1333500D01*
Y850900D02*
X1979450Y848400D01*
Y850900D02*
Y848400D01*
X1982950Y850900D02*
Y848650D01*
Y853150D02*
Y850900D01*
X1979450Y853400D02*
Y850900D01*
Y853400D02*
X1982950Y850900D01*
X1979450Y599400D02*
X1982950Y596900D01*
X1979450Y599400D02*
Y596900D01*
X1982950Y599150D02*
Y596900D01*
Y594650D01*
X1979450Y596900D02*
Y594400D01*
X1982950Y596900D02*
X1979450Y594400D01*
X1982950Y723900D02*
X1979450Y721400D01*
Y723900D02*
Y721400D01*
X1982950Y723900D02*
Y721650D01*
Y726150D02*
Y723900D01*
X1979450Y726400D02*
Y723900D01*
Y726400D02*
X1982950Y723900D01*
X1979450Y1107400D02*
X1982950Y1104900D01*
X1979450Y1107400D02*
Y1104900D01*
X1982950Y1107150D02*
Y1104900D01*
Y1102650D01*
X1979450Y1104900D02*
Y1102400D01*
X1982950Y1104900D02*
X1979450Y1102400D01*
X1982950Y215900D02*
X1979450Y213400D01*
Y215900D02*
Y213400D01*
X1982950Y215900D02*
Y213650D01*
Y218150D02*
Y215900D01*
X1979450Y218400D02*
Y215900D01*
Y218400D02*
X1982950Y215900D01*
X1979450Y345400D02*
X1982950Y342900D01*
X1979450Y345400D02*
Y342900D01*
X1982950Y345150D02*
Y342900D01*
Y340650D01*
X1979450Y342900D02*
Y340400D01*
X1982950Y342900D02*
X1979450Y340400D01*
X1982950Y469900D02*
X1979450Y467400D01*
Y469900D02*
Y467400D01*
X1982950Y469900D02*
Y467650D01*
Y472150D02*
Y469900D01*
X1979450Y472400D02*
Y469900D01*
Y472400D02*
X1982950Y469900D01*
D32*
X563700Y609120D02*
X567200D01*
X574200D02*
X577700D01*
X575780Y593880D02*
X577700D01*
Y624120D01*
X573240Y623090D02*
X577700D01*
X563700D02*
X568160D01*
X563700Y593880D02*
Y624120D01*
Y593880D02*
X565620D01*
X577700Y623090D02*
Y624360D01*
X573240D02*
X577700D01*
X573240Y623090D02*
Y624360D01*
X563700Y623090D02*
Y624360D01*
X568160D01*
Y623090D02*
Y624360D01*
X309700Y609120D02*
X313200D01*
X320200D02*
X323700D01*
X321780Y593880D02*
X323700D01*
Y624120D01*
X319240Y623090D02*
X323700D01*
X309700D02*
X314160D01*
X309700Y593880D02*
Y624120D01*
Y593880D02*
X311620D01*
X323700Y623090D02*
Y624360D01*
X319240D02*
X323700D01*
X319240Y623090D02*
Y624360D01*
X309700Y623090D02*
Y624360D01*
X314160D01*
Y623090D02*
Y624360D01*
X208100Y609120D02*
X211600D01*
X218600D02*
X222100D01*
X212560Y623090D02*
Y624360D01*
X208100D02*
X212560D01*
X208100Y623090D02*
Y624360D01*
X217640Y623090D02*
Y624360D01*
X222100D01*
Y623090D02*
Y624360D01*
X208100Y593880D02*
X210020D01*
X208100D02*
Y624120D01*
Y623090D02*
X212560D01*
X217640D02*
X222100D01*
Y593880D02*
Y624120D01*
X220180Y593880D02*
X222100D01*
X690700Y609120D02*
X694200D01*
X701200D02*
X704700D01*
X702780Y593880D02*
X704700D01*
Y624120D01*
X700240Y623090D02*
X704700D01*
X690700D02*
X695160D01*
X690700Y593880D02*
Y624120D01*
Y593880D02*
X692620D01*
X704700Y623090D02*
Y624360D01*
X700240D02*
X704700D01*
X700240Y623090D02*
Y624360D01*
X690700Y623090D02*
Y624360D01*
X695160D01*
Y623090D02*
Y624360D01*
X949160Y623090D02*
Y624360D01*
X944700D02*
X949160D01*
X944700Y623090D02*
Y624360D01*
X954240Y623090D02*
Y624360D01*
X958700D01*
Y623090D02*
Y624360D01*
X944700Y593880D02*
X946620D01*
X944700D02*
Y624120D01*
Y623090D02*
X949160D01*
X954240D02*
X958700D01*
Y593880D02*
Y624120D01*
X956780Y593880D02*
X958700D01*
X955200Y609120D02*
X958700D01*
X944700D02*
X948200D01*
X817700D02*
X821200D01*
X828200D02*
X831700D01*
X829780Y593880D02*
X831700D01*
Y624120D01*
X827240Y623090D02*
X831700D01*
X817700D02*
X822160D01*
X817700Y593880D02*
Y624120D01*
Y593880D02*
X819620D01*
X831700Y623090D02*
Y624360D01*
X827240D02*
X831700D01*
X827240Y623090D02*
Y624360D01*
X817700Y623090D02*
Y624360D01*
X822160D01*
Y623090D02*
Y624360D01*
X441160Y623090D02*
Y624360D01*
X436700D02*
X441160D01*
X436700Y623090D02*
Y624360D01*
X446240Y623090D02*
Y624360D01*
X450700D01*
Y623090D02*
Y624360D01*
X436700Y593880D02*
X438620D01*
X436700D02*
Y624120D01*
Y623090D02*
X441160D01*
X446240D02*
X450700D01*
Y593880D02*
Y624120D01*
X448780Y593880D02*
X450700D01*
X447200Y609120D02*
X450700D01*
X436700D02*
X440200D01*
X1325700D02*
X1329200D01*
X1336200D02*
X1339700D01*
X1337780Y593880D02*
X1339700D01*
Y624120D01*
X1335240Y623090D02*
X1339700D01*
X1325700D02*
X1330160D01*
X1325700Y593880D02*
Y624120D01*
Y593880D02*
X1327620D01*
X1339700Y623090D02*
Y624360D01*
X1335240D02*
X1339700D01*
X1335240Y623090D02*
Y624360D01*
X1325700Y623090D02*
Y624360D01*
X1330160D01*
Y623090D02*
Y624360D01*
X1203160Y623090D02*
Y624360D01*
X1198700D02*
X1203160D01*
X1198700Y623090D02*
Y624360D01*
X1208240Y623090D02*
Y624360D01*
X1212700D01*
Y623090D02*
Y624360D01*
X1198700Y593880D02*
X1200620D01*
X1198700D02*
Y624120D01*
Y623090D02*
X1203160D01*
X1208240D02*
X1212700D01*
Y593880D02*
Y624120D01*
X1210780Y593880D02*
X1212700D01*
X1209200Y609120D02*
X1212700D01*
X1198700D02*
X1202200D01*
X1071700D02*
X1075200D01*
X1082200D02*
X1085700D01*
X1083780Y593880D02*
X1085700D01*
Y624120D01*
X1081240Y623090D02*
X1085700D01*
X1071700D02*
X1076160D01*
X1071700Y593880D02*
Y624120D01*
Y593880D02*
X1073620D01*
X1085700Y623090D02*
Y624360D01*
X1081240D02*
X1085700D01*
X1081240Y623090D02*
Y624360D01*
X1071700Y623090D02*
Y624360D01*
X1076160D01*
Y623090D02*
Y624360D01*
X563700Y1193320D02*
X567200D01*
X574200D02*
X577700D01*
X575780Y1178080D02*
X577700D01*
Y1208320D01*
X573240Y1207290D02*
X577700D01*
X563700D02*
X568160D01*
X563700Y1178080D02*
Y1208320D01*
Y1178080D02*
X565620D01*
X577700Y1207290D02*
Y1208560D01*
X573240D02*
X577700D01*
X573240Y1207290D02*
Y1208560D01*
X563700Y1207290D02*
Y1208560D01*
X568160D01*
Y1207290D02*
Y1208560D01*
X309700Y1193320D02*
X313200D01*
X320200D02*
X323700D01*
X321780Y1178080D02*
X323700D01*
Y1208320D01*
X319240Y1207290D02*
X323700D01*
X309700D02*
X314160D01*
X309700Y1178080D02*
Y1208320D01*
Y1178080D02*
X311620D01*
X323700Y1207290D02*
Y1208560D01*
X319240D02*
X323700D01*
X319240Y1207290D02*
Y1208560D01*
X309700Y1207290D02*
Y1208560D01*
X314160D01*
Y1207290D02*
Y1208560D01*
X208100Y1193320D02*
X211600D01*
X218600D02*
X222100D01*
X212560Y1207290D02*
Y1208560D01*
X208100D02*
X212560D01*
X208100Y1207290D02*
Y1208560D01*
X217640Y1207290D02*
Y1208560D01*
X222100D01*
Y1207290D02*
Y1208560D01*
X208100Y1178080D02*
X210020D01*
X208100D02*
Y1208320D01*
Y1207290D02*
X212560D01*
X217640D02*
X222100D01*
Y1178080D02*
Y1208320D01*
X220180Y1178080D02*
X222100D01*
X690700Y1193320D02*
X694200D01*
X701200D02*
X704700D01*
X702780Y1178080D02*
X704700D01*
Y1208320D01*
X700240Y1207290D02*
X704700D01*
X690700D02*
X695160D01*
X690700Y1178080D02*
Y1208320D01*
Y1178080D02*
X692620D01*
X704700Y1207290D02*
Y1208560D01*
X700240D02*
X704700D01*
X700240Y1207290D02*
Y1208560D01*
X690700Y1207290D02*
Y1208560D01*
X695160D01*
Y1207290D02*
Y1208560D01*
X949160Y1207290D02*
Y1208560D01*
X944700D02*
X949160D01*
X944700Y1207290D02*
Y1208560D01*
X954240Y1207290D02*
Y1208560D01*
X958700D01*
Y1207290D02*
Y1208560D01*
X944700Y1178080D02*
X946620D01*
X944700D02*
Y1208320D01*
Y1207290D02*
X949160D01*
X954240D02*
X958700D01*
Y1178080D02*
Y1208320D01*
X956780Y1178080D02*
X958700D01*
X955200Y1193320D02*
X958700D01*
X944700D02*
X948200D01*
X817700D02*
X821200D01*
X828200D02*
X831700D01*
X829780Y1178080D02*
X831700D01*
Y1208320D01*
X827240Y1207290D02*
X831700D01*
X817700D02*
X822160D01*
X817700Y1178080D02*
Y1208320D01*
Y1178080D02*
X819620D01*
X831700Y1207290D02*
Y1208560D01*
X827240D02*
X831700D01*
X827240Y1207290D02*
Y1208560D01*
X817700Y1207290D02*
Y1208560D01*
X822160D01*
Y1207290D02*
Y1208560D01*
X441160Y1207290D02*
Y1208560D01*
X436700D02*
X441160D01*
X436700Y1207290D02*
Y1208560D01*
X446240Y1207290D02*
Y1208560D01*
X450700D01*
Y1207290D02*
Y1208560D01*
X436700Y1178080D02*
X438620D01*
X436700D02*
Y1208320D01*
Y1207290D02*
X441160D01*
X446240D02*
X450700D01*
Y1178080D02*
Y1208320D01*
X448780Y1178080D02*
X450700D01*
X447200Y1193320D02*
X450700D01*
X436700D02*
X440200D01*
X1325700D02*
X1329200D01*
X1336200D02*
X1339700D01*
X1337780Y1178080D02*
X1339700D01*
Y1208320D01*
X1335240Y1207290D02*
X1339700D01*
X1325700D02*
X1330160D01*
X1325700Y1178080D02*
Y1208320D01*
Y1178080D02*
X1327620D01*
X1339700Y1207290D02*
Y1208560D01*
X1335240D02*
X1339700D01*
X1335240Y1207290D02*
Y1208560D01*
X1325700Y1207290D02*
Y1208560D01*
X1330160D01*
Y1207290D02*
Y1208560D01*
X1203160Y1207290D02*
Y1208560D01*
X1198700D02*
X1203160D01*
X1198700Y1207290D02*
Y1208560D01*
X1208240Y1207290D02*
Y1208560D01*
X1212700D01*
Y1207290D02*
Y1208560D01*
X1198700Y1178080D02*
X1200620D01*
X1198700D02*
Y1208320D01*
Y1207290D02*
X1203160D01*
X1208240D02*
X1212700D01*
Y1178080D02*
Y1208320D01*
X1210780Y1178080D02*
X1212700D01*
X1209200Y1193320D02*
X1212700D01*
X1198700D02*
X1202200D01*
X1071700D02*
X1075200D01*
X1082200D02*
X1085700D01*
X1083780Y1178080D02*
X1085700D01*
Y1208320D01*
X1081240Y1207290D02*
X1085700D01*
X1071700D02*
X1076160D01*
X1071700Y1178080D02*
Y1208320D01*
Y1178080D02*
X1073620D01*
X1085700Y1207290D02*
Y1208560D01*
X1081240D02*
X1085700D01*
X1081240Y1207290D02*
Y1208560D01*
X1071700Y1207290D02*
Y1208560D01*
X1076160D01*
Y1207290D02*
Y1208560D01*
X563700Y1777520D02*
X567200D01*
X574200D02*
X577700D01*
X575780Y1762280D02*
X577700D01*
Y1792520D01*
X573240Y1791490D02*
X577700D01*
X563700D02*
X568160D01*
X563700Y1762280D02*
Y1792520D01*
Y1762280D02*
X565620D01*
X577700Y1791490D02*
Y1792760D01*
X573240D02*
X577700D01*
X573240Y1791490D02*
Y1792760D01*
X563700Y1791490D02*
Y1792760D01*
X568160D01*
Y1791490D02*
Y1792760D01*
X309700Y1777520D02*
X313200D01*
X320200D02*
X323700D01*
X321780Y1762280D02*
X323700D01*
Y1792520D01*
X319240Y1791490D02*
X323700D01*
X309700D02*
X314160D01*
X309700Y1762280D02*
Y1792520D01*
Y1762280D02*
X311620D01*
X323700Y1791490D02*
Y1792760D01*
X319240D02*
X323700D01*
X319240Y1791490D02*
Y1792760D01*
X309700Y1791490D02*
Y1792760D01*
X314160D01*
Y1791490D02*
Y1792760D01*
X208100Y1777520D02*
X211600D01*
X218600D02*
X222100D01*
X212560Y1791490D02*
Y1792760D01*
X208100D02*
X212560D01*
X208100Y1791490D02*
Y1792760D01*
X217640Y1791490D02*
Y1792760D01*
X222100D01*
Y1791490D02*
Y1792760D01*
X208100Y1762280D02*
X210020D01*
X208100D02*
Y1792520D01*
Y1791490D02*
X212560D01*
X217640D02*
X222100D01*
Y1762280D02*
Y1792520D01*
X220180Y1762280D02*
X222100D01*
X690700Y1777520D02*
X694200D01*
X701200D02*
X704700D01*
X702780Y1762280D02*
X704700D01*
Y1792520D01*
X700240Y1791490D02*
X704700D01*
X690700D02*
X695160D01*
X690700Y1762280D02*
Y1792520D01*
Y1762280D02*
X692620D01*
X704700Y1791490D02*
Y1792760D01*
X700240D02*
X704700D01*
X700240Y1791490D02*
Y1792760D01*
X690700Y1791490D02*
Y1792760D01*
X695160D01*
Y1791490D02*
Y1792760D01*
X949160Y1791490D02*
Y1792760D01*
X944700D02*
X949160D01*
X944700Y1791490D02*
Y1792760D01*
X954240Y1791490D02*
Y1792760D01*
X958700D01*
Y1791490D02*
Y1792760D01*
X944700Y1762280D02*
X946620D01*
X944700D02*
Y1792520D01*
Y1791490D02*
X949160D01*
X954240D02*
X958700D01*
Y1762280D02*
Y1792520D01*
X956780Y1762280D02*
X958700D01*
X955200Y1777520D02*
X958700D01*
X944700D02*
X948200D01*
X817700D02*
X821200D01*
X828200D02*
X831700D01*
X829780Y1762280D02*
X831700D01*
Y1792520D01*
X827240Y1791490D02*
X831700D01*
X817700D02*
X822160D01*
X817700Y1762280D02*
Y1792520D01*
Y1762280D02*
X819620D01*
X831700Y1791490D02*
Y1792760D01*
X827240D02*
X831700D01*
X827240Y1791490D02*
Y1792760D01*
X817700Y1791490D02*
Y1792760D01*
X822160D01*
Y1791490D02*
Y1792760D01*
X441160Y1791490D02*
Y1792760D01*
X436700D02*
X441160D01*
X436700Y1791490D02*
Y1792760D01*
X446240Y1791490D02*
Y1792760D01*
X450700D01*
Y1791490D02*
Y1792760D01*
X436700Y1762280D02*
X438620D01*
X436700D02*
Y1792520D01*
Y1791490D02*
X441160D01*
X446240D02*
X450700D01*
Y1762280D02*
Y1792520D01*
X448780Y1762280D02*
X450700D01*
X447200Y1777520D02*
X450700D01*
X436700D02*
X440200D01*
X1325700D02*
X1329200D01*
X1336200D02*
X1339700D01*
X1337780Y1762280D02*
X1339700D01*
Y1792520D01*
X1335240Y1791490D02*
X1339700D01*
X1325700D02*
X1330160D01*
X1325700Y1762280D02*
Y1792520D01*
Y1762280D02*
X1327620D01*
X1339700Y1791490D02*
Y1792760D01*
X1335240D02*
X1339700D01*
X1335240Y1791490D02*
Y1792760D01*
X1325700Y1791490D02*
Y1792760D01*
X1330160D01*
Y1791490D02*
Y1792760D01*
X1203160Y1791490D02*
Y1792760D01*
X1198700D02*
X1203160D01*
X1198700Y1791490D02*
Y1792760D01*
X1208240Y1791490D02*
Y1792760D01*
X1212700D01*
Y1791490D02*
Y1792760D01*
X1198700Y1762280D02*
X1200620D01*
X1198700D02*
Y1792520D01*
Y1791490D02*
X1203160D01*
X1208240D02*
X1212700D01*
Y1762280D02*
Y1792520D01*
X1210780Y1762280D02*
X1212700D01*
X1209200Y1777520D02*
X1212700D01*
X1198700D02*
X1202200D01*
X1071700D02*
X1075200D01*
X1082200D02*
X1085700D01*
X1083780Y1762280D02*
X1085700D01*
Y1792520D01*
X1081240Y1791490D02*
X1085700D01*
X1071700D02*
X1076160D01*
X1071700Y1762280D02*
Y1792520D01*
Y1762280D02*
X1073620D01*
X1085700Y1791490D02*
Y1792760D01*
X1081240D02*
X1085700D01*
X1081240Y1791490D02*
Y1792760D01*
X1071700Y1791490D02*
Y1792760D01*
X1076160D01*
Y1791490D02*
Y1792760D01*
X563700Y2361720D02*
X567200D01*
X574200D02*
X577700D01*
X575780Y2346480D02*
X577700D01*
Y2376720D01*
X573240Y2375690D02*
X577700D01*
X563700D02*
X568160D01*
X563700Y2346480D02*
Y2376720D01*
Y2346480D02*
X565620D01*
X577700Y2375690D02*
Y2376960D01*
X573240D02*
X577700D01*
X573240Y2375690D02*
Y2376960D01*
X563700Y2375690D02*
Y2376960D01*
X568160D01*
Y2375690D02*
Y2376960D01*
X309700Y2361720D02*
X313200D01*
X320200D02*
X323700D01*
X321780Y2346480D02*
X323700D01*
Y2376720D01*
X319240Y2375690D02*
X323700D01*
X309700D02*
X314160D01*
X309700Y2346480D02*
Y2376720D01*
Y2346480D02*
X311620D01*
X323700Y2375690D02*
Y2376960D01*
X319240D02*
X323700D01*
X319240Y2375690D02*
Y2376960D01*
X309700Y2375690D02*
Y2376960D01*
X314160D01*
Y2375690D02*
Y2376960D01*
X208100Y2361720D02*
X211600D01*
X218600D02*
X222100D01*
X212560Y2375690D02*
Y2376960D01*
X208100D02*
X212560D01*
X208100Y2375690D02*
Y2376960D01*
X217640Y2375690D02*
Y2376960D01*
X222100D01*
Y2375690D02*
Y2376960D01*
X208100Y2346480D02*
X210020D01*
X208100D02*
Y2376720D01*
Y2375690D02*
X212560D01*
X217640D02*
X222100D01*
Y2346480D02*
Y2376720D01*
X220180Y2346480D02*
X222100D01*
X690700Y2361720D02*
X694200D01*
X701200D02*
X704700D01*
X702780Y2346480D02*
X704700D01*
Y2376720D01*
X700240Y2375690D02*
X704700D01*
X690700D02*
X695160D01*
X690700Y2346480D02*
Y2376720D01*
Y2346480D02*
X692620D01*
X704700Y2375690D02*
Y2376960D01*
X700240D02*
X704700D01*
X700240Y2375690D02*
Y2376960D01*
X690700Y2375690D02*
Y2376960D01*
X695160D01*
Y2375690D02*
Y2376960D01*
X949160Y2375690D02*
Y2376960D01*
X944700D02*
X949160D01*
X944700Y2375690D02*
Y2376960D01*
X954240Y2375690D02*
Y2376960D01*
X958700D01*
Y2375690D02*
Y2376960D01*
X944700Y2346480D02*
X946620D01*
X944700D02*
Y2376720D01*
Y2375690D02*
X949160D01*
X954240D02*
X958700D01*
Y2346480D02*
Y2376720D01*
X956780Y2346480D02*
X958700D01*
X955200Y2361720D02*
X958700D01*
X944700D02*
X948200D01*
X817700D02*
X821200D01*
X828200D02*
X831700D01*
X829780Y2346480D02*
X831700D01*
Y2376720D01*
X827240Y2375690D02*
X831700D01*
X817700D02*
X822160D01*
X817700Y2346480D02*
Y2376720D01*
Y2346480D02*
X819620D01*
X831700Y2375690D02*
Y2376960D01*
X827240D02*
X831700D01*
X827240Y2375690D02*
Y2376960D01*
X817700Y2375690D02*
Y2376960D01*
X822160D01*
Y2375690D02*
Y2376960D01*
X441160Y2375690D02*
Y2376960D01*
X436700D02*
X441160D01*
X436700Y2375690D02*
Y2376960D01*
X446240Y2375690D02*
Y2376960D01*
X450700D01*
Y2375690D02*
Y2376960D01*
X436700Y2346480D02*
X438620D01*
X436700D02*
Y2376720D01*
Y2375690D02*
X441160D01*
X446240D02*
X450700D01*
Y2346480D02*
Y2376720D01*
X448780Y2346480D02*
X450700D01*
X447200Y2361720D02*
X450700D01*
X436700D02*
X440200D01*
X1325700D02*
X1329200D01*
X1336200D02*
X1339700D01*
X1337780Y2346480D02*
X1339700D01*
Y2376720D01*
X1335240Y2375690D02*
X1339700D01*
X1325700D02*
X1330160D01*
X1325700Y2346480D02*
Y2376720D01*
Y2346480D02*
X1327620D01*
X1339700Y2375690D02*
Y2376960D01*
X1335240D02*
X1339700D01*
X1335240Y2375690D02*
Y2376960D01*
X1325700Y2375690D02*
Y2376960D01*
X1330160D01*
Y2375690D02*
Y2376960D01*
X1203160Y2375690D02*
Y2376960D01*
X1198700D02*
X1203160D01*
X1198700Y2375690D02*
Y2376960D01*
X1208240Y2375690D02*
Y2376960D01*
X1212700D01*
Y2375690D02*
Y2376960D01*
X1198700Y2346480D02*
X1200620D01*
X1198700D02*
Y2376720D01*
Y2375690D02*
X1203160D01*
X1208240D02*
X1212700D01*
Y2346480D02*
Y2376720D01*
X1210780Y2346480D02*
X1212700D01*
X1209200Y2361720D02*
X1212700D01*
X1198700D02*
X1202200D01*
X1071700D02*
X1075200D01*
X1082200D02*
X1085700D01*
X1083780Y2346480D02*
X1085700D01*
Y2376720D01*
X1081240Y2375690D02*
X1085700D01*
X1071700D02*
X1076160D01*
X1071700Y2346480D02*
Y2376720D01*
Y2346480D02*
X1073620D01*
X1085700Y2375690D02*
Y2376960D01*
X1081240D02*
X1085700D01*
X1081240Y2375690D02*
Y2376960D01*
X1071700Y2375690D02*
Y2376960D01*
X1076160D01*
Y2375690D02*
Y2376960D01*
X1981200Y984900D02*
Y981400D01*
Y974400D02*
Y970900D01*
X1965960Y972820D02*
Y970900D01*
X1996200D01*
X1995170Y975360D02*
Y970900D01*
Y984900D02*
Y980440D01*
X1965960Y984900D02*
X1996200D01*
X1965960D02*
Y982980D01*
X1995170Y970900D02*
X1996440D01*
Y975360D02*
Y970900D01*
X1995170Y975360D02*
X1996440D01*
X1995170Y984900D02*
X1996440D01*
Y980440D01*
X1995170D02*
X1996440D01*
X1981200Y1238900D02*
Y1235400D01*
Y1228400D02*
Y1224900D01*
X1965960Y1226820D02*
Y1224900D01*
X1996200D01*
X1995170Y1229360D02*
Y1224900D01*
Y1238900D02*
Y1234440D01*
X1965960Y1238900D02*
X1996200D01*
X1965960D02*
Y1236980D01*
X1995170Y1224900D02*
X1996440D01*
Y1229360D02*
Y1224900D01*
X1995170Y1229360D02*
X1996440D01*
X1995170Y1238900D02*
X1996440D01*
Y1234440D01*
X1995170D02*
X1996440D01*
X1981200Y1340500D02*
Y1337000D01*
Y1330000D02*
Y1326500D01*
X1995170Y1336040D02*
X1996440D01*
Y1340500D02*
Y1336040D01*
X1995170Y1340500D02*
X1996440D01*
X1995170Y1330960D02*
X1996440D01*
Y1326500D01*
X1995170D02*
X1996440D01*
X1965960Y1340500D02*
Y1338580D01*
Y1340500D02*
X1996200D01*
X1995170D02*
Y1336040D01*
Y1330960D02*
Y1326500D01*
X1965960D02*
X1996200D01*
X1965960Y1328420D02*
Y1326500D01*
X1981200Y857900D02*
Y854400D01*
Y847400D02*
Y843900D01*
X1965960Y845820D02*
Y843900D01*
X1996200D01*
X1995170Y848360D02*
Y843900D01*
Y857900D02*
Y853440D01*
X1965960Y857900D02*
X1996200D01*
X1965960D02*
Y855980D01*
X1995170Y843900D02*
X1996440D01*
Y848360D02*
Y843900D01*
X1995170Y848360D02*
X1996440D01*
X1995170Y857900D02*
X1996440D01*
Y853440D01*
X1995170D02*
X1996440D01*
X1995170Y599440D02*
X1996440D01*
Y603900D02*
Y599440D01*
X1995170Y603900D02*
X1996440D01*
X1995170Y594360D02*
X1996440D01*
Y589900D01*
X1995170D02*
X1996440D01*
X1965960Y603900D02*
Y601980D01*
Y603900D02*
X1996200D01*
X1995170D02*
Y599440D01*
Y594360D02*
Y589900D01*
X1965960D02*
X1996200D01*
X1965960Y591820D02*
Y589900D01*
X1981200Y593400D02*
Y589900D01*
Y603900D02*
Y600400D01*
Y730900D02*
Y727400D01*
Y720400D02*
Y716900D01*
X1965960Y718820D02*
Y716900D01*
X1996200D01*
X1995170Y721360D02*
Y716900D01*
Y730900D02*
Y726440D01*
X1965960Y730900D02*
X1996200D01*
X1965960D02*
Y728980D01*
X1995170Y716900D02*
X1996440D01*
Y721360D02*
Y716900D01*
X1995170Y721360D02*
X1996440D01*
X1995170Y730900D02*
X1996440D01*
Y726440D01*
X1995170D02*
X1996440D01*
X1995170Y1107440D02*
X1996440D01*
Y1111900D02*
Y1107440D01*
X1995170Y1111900D02*
X1996440D01*
X1995170Y1102360D02*
X1996440D01*
Y1097900D01*
X1995170D02*
X1996440D01*
X1965960Y1111900D02*
Y1109980D01*
Y1111900D02*
X1996200D01*
X1995170D02*
Y1107440D01*
Y1102360D02*
Y1097900D01*
X1965960D02*
X1996200D01*
X1965960Y1099820D02*
Y1097900D01*
X1981200Y1101400D02*
Y1097900D01*
Y1111900D02*
Y1108400D01*
Y222900D02*
Y219400D01*
Y212400D02*
Y208900D01*
X1965960Y210820D02*
Y208900D01*
X1996200D01*
X1995170Y213360D02*
Y208900D01*
Y222900D02*
Y218440D01*
X1965960Y222900D02*
X1996200D01*
X1965960D02*
Y220980D01*
X1995170Y208900D02*
X1996440D01*
Y213360D02*
Y208900D01*
X1995170Y213360D02*
X1996440D01*
X1995170Y222900D02*
X1996440D01*
Y218440D01*
X1995170D02*
X1996440D01*
X1995170Y345440D02*
X1996440D01*
Y349900D02*
Y345440D01*
X1995170Y349900D02*
X1996440D01*
X1995170Y340360D02*
X1996440D01*
Y335900D01*
X1995170D02*
X1996440D01*
X1965960Y349900D02*
Y347980D01*
Y349900D02*
X1996200D01*
X1995170D02*
Y345440D01*
Y340360D02*
Y335900D01*
X1965960D02*
X1996200D01*
X1965960Y337820D02*
Y335900D01*
X1981200Y339400D02*
Y335900D01*
Y349900D02*
Y346400D01*
Y476900D02*
Y473400D01*
Y466400D02*
Y462900D01*
X1965960Y464820D02*
Y462900D01*
X1996200D01*
X1995170Y467360D02*
Y462900D01*
Y476900D02*
Y472440D01*
X1965960Y476900D02*
X1996200D01*
X1965960D02*
Y474980D01*
X1995170Y462900D02*
X1996440D01*
Y467360D02*
Y462900D01*
X1995170Y467360D02*
X1996440D01*
X1995170Y476900D02*
X1996440D01*
Y472440D01*
X1995170D02*
X1996440D01*
M02*
