M48
;Layer_Color=9474304
;FILE_FORMAT=4:4
METRIC,LZ
;TYPE=PLATED
T1F00S00C0.5080
T2F00S00C0.7112
T3F00S00C1.6000
T4F00S00C2.5400
T5F00S00C3.0000
T6F00S00C4.0000
T7F00S00C4.4450
%
T01
X0009906Y0001524
Y0002286
Y0003048
Y000381
Y0004572
Y0005334
Y0006096
X0006096Y0009906
X0005334
X0004572
X000381
X0003048
X0002286
X0001524
X0051054
X0051816
X0052578
X005334
X0054102
X0054864
X0055626
X0098044
X0098806
X0099568
X010033
X0101092
X0101854
X0102616
X0145034Y0006096
Y0005334
Y0004572
Y000381
Y0003048
Y0002286
Y0001524
X0167894Y0009906
X0168656
X0169418
X017018
X0170942
X0171704
X0172466
X0216154
X0216916
X0217678
X021844
X0219202
X0219964
X0220726
X0245237
X0245999
X0246761
X0247523
X0248285
X02413Y0005969
Y0005207
Y0004445
Y0003683
Y0002921
Y0002159
Y0001397
Y0030734
Y0031496
Y0032258
Y003302
Y0033782
Y0034544
Y0035306
X0195072
Y0034544
Y0033782
Y003302
Y0032258
Y0031496
Y0030734
X0193294
Y0031496
Y0032258
Y003302
Y0033782
Y0034544
Y0035306
X0147066
Y0034544
Y0033782
Y003302
Y0032258
Y0031496
Y0030734
X0145034
Y0031496
Y0032258
Y003302
Y0033782
Y0034544
Y0035306
X0009906
Y0034544
Y0033782
Y003302
Y0032258
Y0031496
Y0030734
Y0078994
Y0079756
Y0080518
Y008128
Y0082042
Y0082804
Y0083566
X0051054Y0058166
X0051816
X0052578
X005334
Y0056134
X0052578
X0051816
X0051054
X0054102
X0054864
X0055626
Y0058166
X0054864
X0054102
X0098044
X0098806
X0099568
X010033
X0101092
X0101854
X0102616
Y0056134
X0101854
X0101092
X010033
X0099568
X0098806
X0098044
X0145034Y0078994
Y0079756
Y0080518
Y008128
Y0082042
Y0082804
Y0083566
X0147066
Y0082804
Y0082042
Y008128
Y0080518
Y0079756
Y0078994
X0193294
Y0079756
Y0080518
Y008128
Y0082042
Y0082804
Y0083566
X0195072
Y0082804
Y0082042
Y008128
Y0080518
Y0079756
Y0078994
X02413
Y0079756
Y0080518
Y008128
Y0082042
Y0082804
Y0083566
Y0127254
Y0128016
Y0128778
Y012954
Y0130302
Y0131064
Y0131826
X0195072
Y0131064
Y0130302
Y012954
Y0128778
Y0128016
Y0127254
X0193294
Y0128016
Y0128778
Y012954
Y0130302
Y0131064
Y0131826
X0147066Y013208
Y0131318
Y0130556
Y0129794
Y0129032
Y012827
Y0127508
X0145034
Y012827
Y0129032
Y0129794
Y0130556
Y0131318
Y013208
X0102616Y0106426
X0101854
X0101092
X010033
X0099568
X0098806
X0098044
Y0104394
X0098806
X0099568
X010033
X0101092
X0101854
X0102616
X0055626
X0054864
X0054102
Y0106426
X0054864
X0055626
X005334
X0052578
X0051816
X0051054
Y0104394
X0051816
X0052578
X005334
X0009906Y0127254
Y0128016
Y0128778
Y012954
Y0130302
Y0131064
Y0131826
X0051054Y0152654
X0051816
X0052578
X005334
Y0154686
X0052578
X0051816
X0051054
X0054102
X0054864
X0055626
Y0152654
X0054864
X0054102
X0098044
X0098806
X0099568
X010033
X0101092
X0101854
X0102616
Y0154686
X0101854
X0101092
X010033
X0099568
X0098806
X0098044
X0167894Y0145034
X0168656
X0169418
X017018
X0170942
X0171704
X0172466
X02159
X0216662
X0217424
X0218186
X0218948
X021971
X0220472
X0245237
X0245999
X0246761
X0247523
X0248285
X0145034Y0175514
Y0176276
Y0177038
Y01778
Y0178562
Y0179324
Y0180086
Y0204724
Y0205486
Y0206248
Y020701
Y0207772
Y0208534
Y0209296
X0103886Y0200914
X0103124
X0102362
X01016
X0100838
X0100076
X0099314
X0056896
X0056134
X0055372
X005461
X0053848
X0053086
X0052324
X0006096
X0005334
X0004572
X000381
X0003048
X0002286
X0001524
X0009906Y0204724
Y0205486
Y0206248
Y020701
Y0207772
Y0208534
Y0209296
Y0180086
Y0179324
Y0178562
Y01778
Y0177038
Y0176276
Y0175514
T02
X023876Y001905
Y003175
Y004445
X0190754
Y003175
Y001905
X013589Y0053594
X012319
X011049
X009779
X008509
X007239
X005969
X004699
X003429
X0019812Y0051562
X0190754Y005715
Y006985
Y008255
X023876
Y006985
Y005715
Y009525
Y010795
Y012065
X0190754
Y010795
Y009525
X013589Y0101854
X012319
X011049
X009779
X008509
X007239
X005969
X004699
X003429
X0019812Y0099822
Y0148082
X003429Y0150114
X004699
X005969
X007239
X008509
X009779
X011049
X012319
X013589
X0188722Y0135128
X0236728
X013589Y0198374
X012319
X011049
X009779
X008509
X007239
X005969
X004699
X003429
X0019812Y0196342
T03
X0220341Y002497
Y002837
Y003767
Y004107
Y005037
Y005377
X0233811
Y005037
Y004107
Y003767
Y002837
Y002497
X0185805
Y002837
Y003767
Y004107
Y005037
Y005377
X0172335
Y005037
Y004107
Y003767
Y002837
Y002497
X012997Y0035175
X012657
X011727
X011387
X010457
X010117
Y0048645
X010457
X011387
X011727
X012657
X012997
X009187
X008847
X007917
X007577
X006647
X006307
Y0035175
X006647
X007577
X007917
X008847
X009187
X005377
X005037
X004107
X003767
X002837
X002497
Y0048645
X002837
X003767
X004107
X005037
X005377
Y0083435
X005037
X004107
X003767
X002837
X002497
X006307
X006647
X007577
X007917
X008847
X009187
X010117
X010457
X011387
X011727
X012657
X012997
X0172335Y007917
Y007577
Y006647
Y006307
Y008847
Y009187
X0185805
Y008847
Y007917
Y007577
Y006647
Y006307
X0220341
Y006647
Y007577
Y007917
Y008847
Y009187
X0233811
Y008847
Y007917
Y007577
Y006647
Y006307
Y010117
Y010457
Y011387
Y011727
Y012657
Y012997
X0220341
Y012657
Y011727
Y011387
Y010457
Y010117
X0185805
Y010457
Y011387
Y011727
Y012657
Y012997
X0172335
Y012657
Y011727
Y011387
Y010457
Y010117
X012997Y0096905
X012657
X011727
X011387
X010457
X010117
Y0131695
X010457
X011387
X011727
X012657
X012997
X009187
X008847
X007917
X007577
X006647
X006307
Y0096905
X006647
X007577
X007917
X008847
X009187
X005377
X005037
X004107
X003767
X002837
X002497
Y0131695
X002837
X003767
X004107
X005037
X005377
Y0145165
X005037
X004107
X003767
X002837
X002497
X006307
X006647
X007577
X007917
X008847
X009187
X010117
X010457
X011387
X011727
X012657
X012997
Y0179955
X012657
X011727
X011387
X010457
X010117
Y0193425
X010457
X011387
X011727
X012657
X012997
X009187
X008847
X007917
X007577
X006647
X006307
Y0179955
X006647
X007577
X007917
X008847
X009187
X005377
X005037
X004107
X003767
X002837
X002497
Y0193425
X002837
X003767
X004107
X005037
X005377
T04
X0204256Y002667
X0209256
Y003937
X0204256
Y005207
X0209256
X016125
X015625
Y003937
X016125
Y002667
X015625
X012827Y002409
Y001909
X011557
Y002409
X010287
Y001909
X009017
Y002409
X007747
Y001909
X006477
Y002409
X005207
Y001909
X003937
Y002409
Y006735
Y007235
X005207
Y006735
X006477
Y007235
X007747
Y006735
X009017
Y007235
X010287
Y006735
X011557
Y007235
X012827
Y006735
X015625Y006477
X016125
Y007747
X015625
Y009017
X016125
X0204256
X0209256
Y007747
X0204256
Y006477
X0209256
Y010287
X0204256
Y011557
X0209256
X016125
X015625
Y010287
X016125
X012827Y011561
Y012061
X011557
Y011561
X010287
Y012061
X009017
Y011561
X007747
Y012061
X006477
Y011561
X005207
Y012061
X003937
Y011561
Y016387
Y016887
X005207
Y016387
X006477
Y016887
X007747
Y016387
X009017
Y016887
X010287
Y016387
X011557
Y016887
X012827
Y016387
T05
X000381Y000381
X024638
Y020701
X000381
T06
X0235966Y001524
X0200406
X018796
X01524
X01397
Y00508
X001524
Y001524
Y00635
X01397
Y009906
Y011176
X001524
Y009906
Y014732
Y016002
X01397
Y014732
X01524Y01397
X018796
X0200406
X0235966
X01397Y019558
X001524
T07
X002667Y001799
Y002519
Y006625
Y007345
X0203156Y012827
X0210356
X016235
X015515
X002667Y012171
Y011451
Y016277
Y016997
M30
