G04*
G04 #@! TF.GenerationSoftware,Altium Limited,Altium Designer,22.0.2 (36)*
G04*
G04 Layer_Color=2752767*
%FSLAX44Y44*%
%MOMM*%
G71*
G04*
G04 #@! TF.SameCoordinates,7D7719C0-51A1-41A7-90C6-739A12DC03E5*
G04*
G04*
G04 #@! TF.FilePolarity,Positive*
G04*
G01*
G75*
%ADD50C,0.0508*%
%ADD51C,0.0677*%
D50*
X36068Y2461768D02*
Y2465832D01*
X40132D01*
Y2461768D01*
X36068D01*
X2093468Y36068D02*
Y40132D01*
X2097532D01*
Y36068D01*
X2093468D01*
Y2461768D02*
Y2465832D01*
X2097532D01*
Y2461768D01*
X2093468D01*
X36068Y36068D02*
Y40132D01*
X40132D01*
Y36068D01*
X36068D01*
X1281900Y322888D02*
X1279868Y326952D01*
X1283932D01*
X1281900Y322888D01*
Y357888D02*
X1279868Y361952D01*
X1283932D01*
X1281900Y357888D01*
Y365388D02*
X1279868Y369452D01*
X1283932D01*
X1281900Y365388D01*
Y315388D02*
X1279868Y319452D01*
X1283932D01*
X1281900Y315388D01*
X1154900Y322888D02*
X1152868Y326952D01*
X1156932D01*
X1154900Y322888D01*
Y357888D02*
X1152868Y361952D01*
X1156932D01*
X1154900Y357888D01*
Y365388D02*
X1152868Y369452D01*
X1156932D01*
X1154900Y365388D01*
Y315388D02*
X1152868Y319452D01*
X1156932D01*
X1154900Y315388D01*
X1027900Y322888D02*
X1025868Y326952D01*
X1029932D01*
X1027900Y322888D01*
Y357888D02*
X1025868Y361952D01*
X1029932D01*
X1027900Y357888D01*
Y365388D02*
X1025868Y369452D01*
X1029932D01*
X1027900Y365388D01*
Y315388D02*
X1025868Y319452D01*
X1029932D01*
X1027900Y315388D01*
X900900Y322888D02*
X898868Y326952D01*
X902932D01*
X900900Y322888D01*
Y357888D02*
X898868Y361952D01*
X902932D01*
X900900Y357888D01*
Y365388D02*
X898868Y369452D01*
X902932D01*
X900900Y365388D01*
Y315388D02*
X898868Y319452D01*
X902932D01*
X900900Y315388D01*
X773900Y322888D02*
X771868Y326952D01*
X775932D01*
X773900Y322888D01*
Y357888D02*
X771868Y361952D01*
X775932D01*
X773900Y357888D01*
Y365388D02*
X771868Y369452D01*
X775932D01*
X773900Y365388D01*
Y315388D02*
X771868Y319452D01*
X775932D01*
X773900Y315388D01*
X646900Y322888D02*
X644868Y326952D01*
X648932D01*
X646900Y322888D01*
Y357888D02*
X644868Y361952D01*
X648932D01*
X646900Y357888D01*
Y365388D02*
X644868Y369452D01*
X648932D01*
X646900Y365388D01*
Y315388D02*
X644868Y319452D01*
X648932D01*
X646900Y315388D01*
X519900Y322888D02*
X517868Y326952D01*
X521932D01*
X519900Y322888D01*
Y357888D02*
X517868Y361952D01*
X521932D01*
X519900Y357888D01*
Y365388D02*
X517868Y369452D01*
X521932D01*
X519900Y365388D01*
Y315388D02*
X517868Y319452D01*
X521932D01*
X519900Y315388D01*
X392900Y322888D02*
X390868Y326952D01*
X394932D01*
X392900Y322888D01*
Y357888D02*
X390868Y361952D01*
X394932D01*
X392900Y357888D01*
Y365388D02*
X390868Y369452D01*
X394932D01*
X392900Y365388D01*
Y315388D02*
X390868Y319452D01*
X394932D01*
X392900Y315388D01*
X773900Y225688D02*
X774916Y226704D01*
X775932D01*
X774916Y227720D01*
X775932Y228736D01*
X774916D01*
X773900Y229752D01*
X772884Y228736D01*
X771868D01*
X772884Y227720D01*
X771868Y226704D01*
X772884D01*
X773900Y225688D01*
X1169868Y585538D02*
X1170884Y587570D01*
X1169868Y589602D01*
X1171900Y588586D01*
X1173932Y589602D01*
X1172916Y587570D01*
X1173932Y585538D01*
X1171900Y586554D01*
X1169868Y585538D01*
X1135868D02*
X1136884Y587570D01*
X1135868Y589602D01*
X1137900Y588586D01*
X1139932Y589602D01*
X1138916Y587570D01*
X1139932Y585538D01*
X1137900Y586554D01*
X1135868Y585538D01*
X1169868Y450838D02*
X1170884Y452870D01*
X1169868Y454902D01*
X1171900Y453886D01*
X1173932Y454902D01*
X1172916Y452870D01*
X1173932Y450838D01*
X1171900Y451854D01*
X1169868Y450838D01*
X1135868D02*
X1136884Y452870D01*
X1135868Y454902D01*
X1137900Y453886D01*
X1139932Y454902D01*
X1138916Y452870D01*
X1139932Y450838D01*
X1137900Y451854D01*
X1135868Y450838D01*
X534868Y585538D02*
X535884Y587570D01*
X534868Y589602D01*
X536900Y588586D01*
X538932Y589602D01*
X537916Y587570D01*
X538932Y585538D01*
X536900Y586554D01*
X534868Y585538D01*
X500868D02*
X501884Y587570D01*
X500868Y589602D01*
X502900Y588586D01*
X504932Y589602D01*
X503916Y587570D01*
X504932Y585538D01*
X502900Y586554D01*
X500868Y585538D01*
X534868Y450838D02*
X535884Y452870D01*
X534868Y454902D01*
X536900Y453886D01*
X538932Y454902D01*
X537916Y452870D01*
X538932Y450838D01*
X536900Y451854D01*
X534868Y450838D01*
X500868D02*
X501884Y452870D01*
X500868Y454902D01*
X502900Y453886D01*
X504932Y454902D01*
X503916Y452870D01*
X504932Y450838D01*
X502900Y451854D01*
X500868Y450838D01*
X646900Y175688D02*
X647916Y176704D01*
X648932D01*
X647916Y177720D01*
X648932Y178736D01*
X647916D01*
X646900Y179752D01*
X645884Y178736D01*
X644868D01*
X645884Y177720D01*
X644868Y176704D01*
X645884D01*
X646900Y175688D01*
Y225688D02*
X647916Y226704D01*
X648932D01*
X647916Y227720D01*
X648932Y228736D01*
X647916D01*
X646900Y229752D01*
X645884Y228736D01*
X644868D01*
X645884Y227720D01*
X644868Y226704D01*
X645884D01*
X646900Y225688D01*
X264884Y263104D02*
Y262088D01*
X266916D01*
Y263104D01*
X267932D01*
Y265136D01*
X266916D01*
Y266152D01*
X264884D01*
Y265136D01*
X263868D01*
Y263104D01*
X264884D01*
Y191104D02*
Y190088D01*
X266916D01*
Y191104D01*
X267932D01*
Y193136D01*
X266916D01*
Y194152D01*
X264884D01*
Y193136D01*
X263868D01*
Y191104D01*
X264884D01*
X280868Y585538D02*
X281884Y587570D01*
X280868Y589602D01*
X282900Y588586D01*
X284932Y589602D01*
X283916Y587570D01*
X284932Y585538D01*
X282900Y586554D01*
X280868Y585538D01*
X246868D02*
X247884Y587570D01*
X246868Y589602D01*
X248900Y588586D01*
X250932Y589602D01*
X249916Y587570D01*
X250932Y585538D01*
X248900Y586554D01*
X246868Y585538D01*
X280868Y450838D02*
X281884Y452870D01*
X280868Y454902D01*
X282900Y453886D01*
X284932Y454902D01*
X283916Y452870D01*
X284932Y450838D01*
X282900Y451854D01*
X280868Y450838D01*
X246868D02*
X247884Y452870D01*
X246868Y454902D01*
X248900Y453886D01*
X250932Y454902D01*
X249916Y452870D01*
X250932Y450838D01*
X248900Y451854D01*
X246868Y450838D01*
X1027900Y175688D02*
X1028916Y176704D01*
X1029932D01*
X1028916Y177720D01*
X1029932Y178736D01*
X1028916D01*
X1027900Y179752D01*
X1026884Y178736D01*
X1025868D01*
X1026884Y177720D01*
X1025868Y176704D01*
X1026884D01*
X1027900Y175688D01*
Y225688D02*
X1028916Y226704D01*
X1029932D01*
X1028916Y227720D01*
X1029932Y228736D01*
X1028916D01*
X1027900Y229752D01*
X1026884Y228736D01*
X1025868D01*
X1026884Y227720D01*
X1025868Y226704D01*
X1026884D01*
X1027900Y225688D01*
X1279868Y175688D02*
X1280884D01*
X1281900Y176704D01*
X1282916Y175688D01*
X1283932D01*
Y176704D01*
X1282916Y177720D01*
X1283932Y178736D01*
Y179752D01*
X1282916D01*
X1281900Y178736D01*
X1280884Y179752D01*
X1279868D01*
Y178736D01*
X1280884Y177720D01*
X1279868Y176704D01*
Y175688D01*
Y225688D02*
X1280884D01*
X1281900Y226704D01*
X1282916Y225688D01*
X1283932D01*
Y226704D01*
X1282916Y227720D01*
X1283932Y228736D01*
Y229752D01*
X1282916D01*
X1281900Y228736D01*
X1280884Y229752D01*
X1279868D01*
Y228736D01*
X1280884Y227720D01*
X1279868Y226704D01*
Y225688D01*
X1154900D02*
X1155916Y226704D01*
X1156932D01*
X1155916Y227720D01*
X1156932Y228736D01*
X1155916D01*
X1154900Y229752D01*
X1153884Y228736D01*
X1152868D01*
X1153884Y227720D01*
X1152868Y226704D01*
X1153884D01*
X1154900Y225688D01*
Y175688D02*
X1155916Y176704D01*
X1156932D01*
X1155916Y177720D01*
X1156932Y178736D01*
X1155916D01*
X1154900Y179752D01*
X1153884Y178736D01*
X1152868D01*
X1153884Y177720D01*
X1152868Y176704D01*
X1153884D01*
X1154900Y175688D01*
X773900D02*
X774916Y176704D01*
X775932D01*
X774916Y177720D01*
X775932Y178736D01*
X774916D01*
X773900Y179752D01*
X772884Y178736D01*
X771868D01*
X772884Y177720D01*
X771868Y176704D01*
X772884D01*
X773900Y175688D01*
X900900Y225688D02*
X901916Y226704D01*
X902932D01*
X901916Y227720D01*
X902932Y228736D01*
X901916D01*
X900900Y229752D01*
X899884Y228736D01*
X898868D01*
X899884Y227720D01*
X898868Y226704D01*
X899884D01*
X900900Y225688D01*
Y175688D02*
X901916Y176704D01*
X902932D01*
X901916Y177720D01*
X902932Y178736D01*
X901916D01*
X900900Y179752D01*
X899884Y178736D01*
X898868D01*
X899884Y177720D01*
X898868Y176704D01*
X899884D01*
X900900Y175688D01*
X519900D02*
X520916Y176704D01*
X521932D01*
X520916Y177720D01*
X521932Y178736D01*
X520916D01*
X519900Y179752D01*
X518884Y178736D01*
X517868D01*
X518884Y177720D01*
X517868Y176704D01*
X518884D01*
X519900Y175688D01*
Y225688D02*
X520916Y226704D01*
X521932D01*
X520916Y227720D01*
X521932Y228736D01*
X520916D01*
X519900Y229752D01*
X518884Y228736D01*
X517868D01*
X518884Y227720D01*
X517868Y226704D01*
X518884D01*
X519900Y225688D01*
X392900D02*
X393916Y226704D01*
X394932D01*
X393916Y227720D01*
X394932Y228736D01*
X393916D01*
X392900Y229752D01*
X391884Y228736D01*
X390868D01*
X391884Y227720D01*
X390868Y226704D01*
X391884D01*
X392900Y225688D01*
Y175688D02*
X393916Y176704D01*
X394932D01*
X393916Y177720D01*
X394932Y178736D01*
X393916D01*
X392900Y179752D01*
X391884Y178736D01*
X390868D01*
X391884Y177720D01*
X390868Y176704D01*
X391884D01*
X392900Y175688D01*
X881868Y450838D02*
X882884Y452870D01*
X881868Y454902D01*
X883900Y453886D01*
X885932Y454902D01*
X884916Y452870D01*
X885932Y450838D01*
X883900Y451854D01*
X881868Y450838D01*
X915868D02*
X916884Y452870D01*
X915868Y454902D01*
X917900Y453886D01*
X919932Y454902D01*
X918916Y452870D01*
X919932Y450838D01*
X917900Y451854D01*
X915868Y450838D01*
X881868Y585538D02*
X882884Y587570D01*
X881868Y589602D01*
X883900Y588586D01*
X885932Y589602D01*
X884916Y587570D01*
X885932Y585538D01*
X883900Y586554D01*
X881868Y585538D01*
X915868D02*
X916884Y587570D01*
X915868Y589602D01*
X917900Y588586D01*
X919932Y589602D01*
X918916Y587570D01*
X919932Y585538D01*
X917900Y586554D01*
X915868Y585538D01*
X754868Y450838D02*
X755884Y452870D01*
X754868Y454902D01*
X756900Y453886D01*
X758932Y454902D01*
X757916Y452870D01*
X758932Y450838D01*
X756900Y451854D01*
X754868Y450838D01*
X788868D02*
X789884Y452870D01*
X788868Y454902D01*
X790900Y453886D01*
X792932Y454902D01*
X791916Y452870D01*
X792932Y450838D01*
X790900Y451854D01*
X788868Y450838D01*
X754868Y585538D02*
X755884Y587570D01*
X754868Y589602D01*
X756900Y588586D01*
X758932Y589602D01*
X757916Y587570D01*
X758932Y585538D01*
X756900Y586554D01*
X754868Y585538D01*
X788868D02*
X789884Y587570D01*
X788868Y589602D01*
X790900Y588586D01*
X792932Y589602D01*
X791916Y587570D01*
X792932Y585538D01*
X790900Y586554D01*
X788868Y585538D01*
X1262868Y450838D02*
X1263884Y452870D01*
X1262868Y454902D01*
X1264900Y453886D01*
X1266932Y454902D01*
X1265916Y452870D01*
X1266932Y450838D01*
X1264900Y451854D01*
X1262868Y450838D01*
X1296868D02*
X1297884Y452870D01*
X1296868Y454902D01*
X1298900Y453886D01*
X1300932Y454902D01*
X1299916Y452870D01*
X1300932Y450838D01*
X1298900Y451854D01*
X1296868Y450838D01*
X1262868Y585538D02*
X1263884Y587570D01*
X1262868Y589602D01*
X1264900Y588586D01*
X1266932Y589602D01*
X1265916Y587570D01*
X1266932Y585538D01*
X1264900Y586554D01*
X1262868Y585538D01*
X1296868D02*
X1297884Y587570D01*
X1296868Y589602D01*
X1298900Y588586D01*
X1300932Y589602D01*
X1299916Y587570D01*
X1300932Y585538D01*
X1298900Y586554D01*
X1296868Y585538D01*
X1008868Y450838D02*
X1009884Y452870D01*
X1008868Y454902D01*
X1010900Y453886D01*
X1012932Y454902D01*
X1011916Y452870D01*
X1012932Y450838D01*
X1010900Y451854D01*
X1008868Y450838D01*
X1042868D02*
X1043884Y452870D01*
X1042868Y454902D01*
X1044900Y453886D01*
X1046932Y454902D01*
X1045916Y452870D01*
X1046932Y450838D01*
X1044900Y451854D01*
X1042868Y450838D01*
X1008868Y585538D02*
X1009884Y587570D01*
X1008868Y589602D01*
X1010900Y588586D01*
X1012932Y589602D01*
X1011916Y587570D01*
X1012932Y585538D01*
X1010900Y586554D01*
X1008868Y585538D01*
X1042868D02*
X1043884Y587570D01*
X1042868Y589602D01*
X1044900Y588586D01*
X1046932Y589602D01*
X1045916Y587570D01*
X1046932Y585538D01*
X1044900Y586554D01*
X1042868Y585538D01*
X373868Y450838D02*
X374884Y452870D01*
X373868Y454902D01*
X375900Y453886D01*
X377932Y454902D01*
X376916Y452870D01*
X377932Y450838D01*
X375900Y451854D01*
X373868Y450838D01*
X407868D02*
X408884Y452870D01*
X407868Y454902D01*
X409900Y453886D01*
X411932Y454902D01*
X410916Y452870D01*
X411932Y450838D01*
X409900Y451854D01*
X407868Y450838D01*
X373868Y585538D02*
X374884Y587570D01*
X373868Y589602D01*
X375900Y588586D01*
X377932Y589602D01*
X376916Y587570D01*
X377932Y585538D01*
X375900Y586554D01*
X373868Y585538D01*
X407868D02*
X408884Y587570D01*
X407868Y589602D01*
X409900Y588586D01*
X411932Y589602D01*
X410916Y587570D01*
X411932Y585538D01*
X409900Y586554D01*
X407868Y585538D01*
X627868Y450838D02*
X628884Y452870D01*
X627868Y454902D01*
X629900Y453886D01*
X631932Y454902D01*
X630916Y452870D01*
X631932Y450838D01*
X629900Y451854D01*
X627868Y450838D01*
X661868D02*
X662884Y452870D01*
X661868Y454902D01*
X663900Y453886D01*
X665932Y454902D01*
X664916Y452870D01*
X665932Y450838D01*
X663900Y451854D01*
X661868Y450838D01*
X627868Y585538D02*
X628884Y587570D01*
X627868Y589602D01*
X629900Y588586D01*
X631932Y589602D01*
X630916Y587570D01*
X631932Y585538D01*
X629900Y586554D01*
X627868Y585538D01*
X661868D02*
X662884Y587570D01*
X661868Y589602D01*
X663900Y588586D01*
X665932Y589602D01*
X664916Y587570D01*
X665932Y585538D01*
X663900Y586554D01*
X661868Y585538D01*
X149568Y151920D02*
X151600Y153952D01*
X153632Y151920D01*
X151600Y149888D01*
X149568Y151920D01*
Y609120D02*
X151600Y611152D01*
X153632Y609120D01*
X151600Y607088D01*
X149568Y609120D01*
X1394168D02*
X1396200Y611152D01*
X1398232Y609120D01*
X1396200Y607088D01*
X1394168Y609120D01*
Y151920D02*
X1396200Y153952D01*
X1398232Y151920D01*
X1396200Y149888D01*
X1394168Y151920D01*
X1330668Y632488D02*
Y636552D01*
X1334732D01*
Y632488D01*
X1330668D01*
X1331684Y633504D02*
Y635536D01*
X1333716D01*
Y633504D01*
X1331684D01*
X1203668Y632488D02*
Y636552D01*
X1207732D01*
Y632488D01*
X1203668D01*
X1204684Y633504D02*
Y635536D01*
X1206716D01*
Y633504D01*
X1204684D01*
X1076668Y632488D02*
Y636552D01*
X1080732D01*
Y632488D01*
X1076668D01*
X1077684Y633504D02*
Y635536D01*
X1079716D01*
Y633504D01*
X1077684D01*
X949668Y632488D02*
Y636552D01*
X953732D01*
Y632488D01*
X949668D01*
X950684Y633504D02*
Y635536D01*
X952716D01*
Y633504D01*
X950684D01*
X822668Y632488D02*
Y636552D01*
X826732D01*
Y632488D01*
X822668D01*
X823684Y633504D02*
Y635536D01*
X825716D01*
Y633504D01*
X823684D01*
X695668Y632488D02*
Y636552D01*
X699732D01*
Y632488D01*
X695668D01*
X696684Y633504D02*
Y635536D01*
X698716D01*
Y633504D01*
X696684D01*
X568668Y632488D02*
Y636552D01*
X572732D01*
Y632488D01*
X568668D01*
X569684Y633504D02*
Y635536D01*
X571716D01*
Y633504D01*
X569684D01*
X441668Y632488D02*
Y636552D01*
X445732D01*
Y632488D01*
X441668D01*
X442684Y633504D02*
Y635536D01*
X444716D01*
Y633504D01*
X442684D01*
X314668Y632488D02*
Y636552D01*
X318732D01*
Y632488D01*
X314668D01*
X315684Y633504D02*
Y635536D01*
X317716D01*
Y633504D01*
X315684D01*
X213068Y632488D02*
Y636552D01*
X217132D01*
Y632488D01*
X213068D01*
X214084Y633504D02*
Y635536D01*
X216116D01*
Y633504D01*
X214084D01*
X1281900Y907088D02*
X1279868Y911152D01*
X1283932D01*
X1281900Y907088D01*
Y942088D02*
X1279868Y946152D01*
X1283932D01*
X1281900Y942088D01*
Y949588D02*
X1279868Y953652D01*
X1283932D01*
X1281900Y949588D01*
Y899588D02*
X1279868Y903652D01*
X1283932D01*
X1281900Y899588D01*
X1154900Y907088D02*
X1152868Y911152D01*
X1156932D01*
X1154900Y907088D01*
Y942088D02*
X1152868Y946152D01*
X1156932D01*
X1154900Y942088D01*
Y949588D02*
X1152868Y953652D01*
X1156932D01*
X1154900Y949588D01*
Y899588D02*
X1152868Y903652D01*
X1156932D01*
X1154900Y899588D01*
X1027900Y907088D02*
X1025868Y911152D01*
X1029932D01*
X1027900Y907088D01*
Y942088D02*
X1025868Y946152D01*
X1029932D01*
X1027900Y942088D01*
Y949588D02*
X1025868Y953652D01*
X1029932D01*
X1027900Y949588D01*
Y899588D02*
X1025868Y903652D01*
X1029932D01*
X1027900Y899588D01*
X900900Y907088D02*
X898868Y911152D01*
X902932D01*
X900900Y907088D01*
Y942088D02*
X898868Y946152D01*
X902932D01*
X900900Y942088D01*
Y949588D02*
X898868Y953652D01*
X902932D01*
X900900Y949588D01*
Y899588D02*
X898868Y903652D01*
X902932D01*
X900900Y899588D01*
X773900Y907088D02*
X771868Y911152D01*
X775932D01*
X773900Y907088D01*
Y942088D02*
X771868Y946152D01*
X775932D01*
X773900Y942088D01*
Y949588D02*
X771868Y953652D01*
X775932D01*
X773900Y949588D01*
Y899588D02*
X771868Y903652D01*
X775932D01*
X773900Y899588D01*
X646900Y907088D02*
X644868Y911152D01*
X648932D01*
X646900Y907088D01*
Y942088D02*
X644868Y946152D01*
X648932D01*
X646900Y942088D01*
Y949588D02*
X644868Y953652D01*
X648932D01*
X646900Y949588D01*
Y899588D02*
X644868Y903652D01*
X648932D01*
X646900Y899588D01*
X519900Y907088D02*
X517868Y911152D01*
X521932D01*
X519900Y907088D01*
Y942088D02*
X517868Y946152D01*
X521932D01*
X519900Y942088D01*
Y949588D02*
X517868Y953652D01*
X521932D01*
X519900Y949588D01*
Y899588D02*
X517868Y903652D01*
X521932D01*
X519900Y899588D01*
X392900Y907088D02*
X390868Y911152D01*
X394932D01*
X392900Y907088D01*
Y942088D02*
X390868Y946152D01*
X394932D01*
X392900Y942088D01*
Y949588D02*
X390868Y953652D01*
X394932D01*
X392900Y949588D01*
Y899588D02*
X390868Y903652D01*
X394932D01*
X392900Y899588D01*
X773900Y809888D02*
X774916Y810904D01*
X775932D01*
X774916Y811920D01*
X775932Y812936D01*
X774916D01*
X773900Y813952D01*
X772884Y812936D01*
X771868D01*
X772884Y811920D01*
X771868Y810904D01*
X772884D01*
X773900Y809888D01*
X1169868Y1169738D02*
X1170884Y1171770D01*
X1169868Y1173802D01*
X1171900Y1172786D01*
X1173932Y1173802D01*
X1172916Y1171770D01*
X1173932Y1169738D01*
X1171900Y1170754D01*
X1169868Y1169738D01*
X1135868D02*
X1136884Y1171770D01*
X1135868Y1173802D01*
X1137900Y1172786D01*
X1139932Y1173802D01*
X1138916Y1171770D01*
X1139932Y1169738D01*
X1137900Y1170754D01*
X1135868Y1169738D01*
X1169868Y1035038D02*
X1170884Y1037070D01*
X1169868Y1039102D01*
X1171900Y1038086D01*
X1173932Y1039102D01*
X1172916Y1037070D01*
X1173932Y1035038D01*
X1171900Y1036054D01*
X1169868Y1035038D01*
X1135868D02*
X1136884Y1037070D01*
X1135868Y1039102D01*
X1137900Y1038086D01*
X1139932Y1039102D01*
X1138916Y1037070D01*
X1139932Y1035038D01*
X1137900Y1036054D01*
X1135868Y1035038D01*
X534868Y1169738D02*
X535884Y1171770D01*
X534868Y1173802D01*
X536900Y1172786D01*
X538932Y1173802D01*
X537916Y1171770D01*
X538932Y1169738D01*
X536900Y1170754D01*
X534868Y1169738D01*
X500868D02*
X501884Y1171770D01*
X500868Y1173802D01*
X502900Y1172786D01*
X504932Y1173802D01*
X503916Y1171770D01*
X504932Y1169738D01*
X502900Y1170754D01*
X500868Y1169738D01*
X534868Y1035038D02*
X535884Y1037070D01*
X534868Y1039102D01*
X536900Y1038086D01*
X538932Y1039102D01*
X537916Y1037070D01*
X538932Y1035038D01*
X536900Y1036054D01*
X534868Y1035038D01*
X500868D02*
X501884Y1037070D01*
X500868Y1039102D01*
X502900Y1038086D01*
X504932Y1039102D01*
X503916Y1037070D01*
X504932Y1035038D01*
X502900Y1036054D01*
X500868Y1035038D01*
X646900Y759888D02*
X647916Y760904D01*
X648932D01*
X647916Y761920D01*
X648932Y762936D01*
X647916D01*
X646900Y763952D01*
X645884Y762936D01*
X644868D01*
X645884Y761920D01*
X644868Y760904D01*
X645884D01*
X646900Y759888D01*
Y809888D02*
X647916Y810904D01*
X648932D01*
X647916Y811920D01*
X648932Y812936D01*
X647916D01*
X646900Y813952D01*
X645884Y812936D01*
X644868D01*
X645884Y811920D01*
X644868Y810904D01*
X645884D01*
X646900Y809888D01*
X264884Y847304D02*
Y846288D01*
X266916D01*
Y847304D01*
X267932D01*
Y849336D01*
X266916D01*
Y850352D01*
X264884D01*
Y849336D01*
X263868D01*
Y847304D01*
X264884D01*
Y775304D02*
Y774288D01*
X266916D01*
Y775304D01*
X267932D01*
Y777336D01*
X266916D01*
Y778352D01*
X264884D01*
Y777336D01*
X263868D01*
Y775304D01*
X264884D01*
X280868Y1169738D02*
X281884Y1171770D01*
X280868Y1173802D01*
X282900Y1172786D01*
X284932Y1173802D01*
X283916Y1171770D01*
X284932Y1169738D01*
X282900Y1170754D01*
X280868Y1169738D01*
X246868D02*
X247884Y1171770D01*
X246868Y1173802D01*
X248900Y1172786D01*
X250932Y1173802D01*
X249916Y1171770D01*
X250932Y1169738D01*
X248900Y1170754D01*
X246868Y1169738D01*
X280868Y1035038D02*
X281884Y1037070D01*
X280868Y1039102D01*
X282900Y1038086D01*
X284932Y1039102D01*
X283916Y1037070D01*
X284932Y1035038D01*
X282900Y1036054D01*
X280868Y1035038D01*
X246868D02*
X247884Y1037070D01*
X246868Y1039102D01*
X248900Y1038086D01*
X250932Y1039102D01*
X249916Y1037070D01*
X250932Y1035038D01*
X248900Y1036054D01*
X246868Y1035038D01*
X1027900Y759888D02*
X1028916Y760904D01*
X1029932D01*
X1028916Y761920D01*
X1029932Y762936D01*
X1028916D01*
X1027900Y763952D01*
X1026884Y762936D01*
X1025868D01*
X1026884Y761920D01*
X1025868Y760904D01*
X1026884D01*
X1027900Y759888D01*
Y809888D02*
X1028916Y810904D01*
X1029932D01*
X1028916Y811920D01*
X1029932Y812936D01*
X1028916D01*
X1027900Y813952D01*
X1026884Y812936D01*
X1025868D01*
X1026884Y811920D01*
X1025868Y810904D01*
X1026884D01*
X1027900Y809888D01*
X1279868Y759888D02*
X1280884D01*
X1281900Y760904D01*
X1282916Y759888D01*
X1283932D01*
Y760904D01*
X1282916Y761920D01*
X1283932Y762936D01*
Y763952D01*
X1282916D01*
X1281900Y762936D01*
X1280884Y763952D01*
X1279868D01*
Y762936D01*
X1280884Y761920D01*
X1279868Y760904D01*
Y759888D01*
Y809888D02*
X1280884D01*
X1281900Y810904D01*
X1282916Y809888D01*
X1283932D01*
Y810904D01*
X1282916Y811920D01*
X1283932Y812936D01*
Y813952D01*
X1282916D01*
X1281900Y812936D01*
X1280884Y813952D01*
X1279868D01*
Y812936D01*
X1280884Y811920D01*
X1279868Y810904D01*
Y809888D01*
X1154900D02*
X1155916Y810904D01*
X1156932D01*
X1155916Y811920D01*
X1156932Y812936D01*
X1155916D01*
X1154900Y813952D01*
X1153884Y812936D01*
X1152868D01*
X1153884Y811920D01*
X1152868Y810904D01*
X1153884D01*
X1154900Y809888D01*
Y759888D02*
X1155916Y760904D01*
X1156932D01*
X1155916Y761920D01*
X1156932Y762936D01*
X1155916D01*
X1154900Y763952D01*
X1153884Y762936D01*
X1152868D01*
X1153884Y761920D01*
X1152868Y760904D01*
X1153884D01*
X1154900Y759888D01*
X773900D02*
X774916Y760904D01*
X775932D01*
X774916Y761920D01*
X775932Y762936D01*
X774916D01*
X773900Y763952D01*
X772884Y762936D01*
X771868D01*
X772884Y761920D01*
X771868Y760904D01*
X772884D01*
X773900Y759888D01*
X900900Y809888D02*
X901916Y810904D01*
X902932D01*
X901916Y811920D01*
X902932Y812936D01*
X901916D01*
X900900Y813952D01*
X899884Y812936D01*
X898868D01*
X899884Y811920D01*
X898868Y810904D01*
X899884D01*
X900900Y809888D01*
Y759888D02*
X901916Y760904D01*
X902932D01*
X901916Y761920D01*
X902932Y762936D01*
X901916D01*
X900900Y763952D01*
X899884Y762936D01*
X898868D01*
X899884Y761920D01*
X898868Y760904D01*
X899884D01*
X900900Y759888D01*
X519900D02*
X520916Y760904D01*
X521932D01*
X520916Y761920D01*
X521932Y762936D01*
X520916D01*
X519900Y763952D01*
X518884Y762936D01*
X517868D01*
X518884Y761920D01*
X517868Y760904D01*
X518884D01*
X519900Y759888D01*
Y809888D02*
X520916Y810904D01*
X521932D01*
X520916Y811920D01*
X521932Y812936D01*
X520916D01*
X519900Y813952D01*
X518884Y812936D01*
X517868D01*
X518884Y811920D01*
X517868Y810904D01*
X518884D01*
X519900Y809888D01*
X392900D02*
X393916Y810904D01*
X394932D01*
X393916Y811920D01*
X394932Y812936D01*
X393916D01*
X392900Y813952D01*
X391884Y812936D01*
X390868D01*
X391884Y811920D01*
X390868Y810904D01*
X391884D01*
X392900Y809888D01*
Y759888D02*
X393916Y760904D01*
X394932D01*
X393916Y761920D01*
X394932Y762936D01*
X393916D01*
X392900Y763952D01*
X391884Y762936D01*
X390868D01*
X391884Y761920D01*
X390868Y760904D01*
X391884D01*
X392900Y759888D01*
X881868Y1035038D02*
X882884Y1037070D01*
X881868Y1039102D01*
X883900Y1038086D01*
X885932Y1039102D01*
X884916Y1037070D01*
X885932Y1035038D01*
X883900Y1036054D01*
X881868Y1035038D01*
X915868D02*
X916884Y1037070D01*
X915868Y1039102D01*
X917900Y1038086D01*
X919932Y1039102D01*
X918916Y1037070D01*
X919932Y1035038D01*
X917900Y1036054D01*
X915868Y1035038D01*
X881868Y1169738D02*
X882884Y1171770D01*
X881868Y1173802D01*
X883900Y1172786D01*
X885932Y1173802D01*
X884916Y1171770D01*
X885932Y1169738D01*
X883900Y1170754D01*
X881868Y1169738D01*
X915868D02*
X916884Y1171770D01*
X915868Y1173802D01*
X917900Y1172786D01*
X919932Y1173802D01*
X918916Y1171770D01*
X919932Y1169738D01*
X917900Y1170754D01*
X915868Y1169738D01*
X754868Y1035038D02*
X755884Y1037070D01*
X754868Y1039102D01*
X756900Y1038086D01*
X758932Y1039102D01*
X757916Y1037070D01*
X758932Y1035038D01*
X756900Y1036054D01*
X754868Y1035038D01*
X788868D02*
X789884Y1037070D01*
X788868Y1039102D01*
X790900Y1038086D01*
X792932Y1039102D01*
X791916Y1037070D01*
X792932Y1035038D01*
X790900Y1036054D01*
X788868Y1035038D01*
X754868Y1169738D02*
X755884Y1171770D01*
X754868Y1173802D01*
X756900Y1172786D01*
X758932Y1173802D01*
X757916Y1171770D01*
X758932Y1169738D01*
X756900Y1170754D01*
X754868Y1169738D01*
X788868D02*
X789884Y1171770D01*
X788868Y1173802D01*
X790900Y1172786D01*
X792932Y1173802D01*
X791916Y1171770D01*
X792932Y1169738D01*
X790900Y1170754D01*
X788868Y1169738D01*
X1262868Y1035038D02*
X1263884Y1037070D01*
X1262868Y1039102D01*
X1264900Y1038086D01*
X1266932Y1039102D01*
X1265916Y1037070D01*
X1266932Y1035038D01*
X1264900Y1036054D01*
X1262868Y1035038D01*
X1296868D02*
X1297884Y1037070D01*
X1296868Y1039102D01*
X1298900Y1038086D01*
X1300932Y1039102D01*
X1299916Y1037070D01*
X1300932Y1035038D01*
X1298900Y1036054D01*
X1296868Y1035038D01*
X1262868Y1169738D02*
X1263884Y1171770D01*
X1262868Y1173802D01*
X1264900Y1172786D01*
X1266932Y1173802D01*
X1265916Y1171770D01*
X1266932Y1169738D01*
X1264900Y1170754D01*
X1262868Y1169738D01*
X1296868D02*
X1297884Y1171770D01*
X1296868Y1173802D01*
X1298900Y1172786D01*
X1300932Y1173802D01*
X1299916Y1171770D01*
X1300932Y1169738D01*
X1298900Y1170754D01*
X1296868Y1169738D01*
X1008868Y1035038D02*
X1009884Y1037070D01*
X1008868Y1039102D01*
X1010900Y1038086D01*
X1012932Y1039102D01*
X1011916Y1037070D01*
X1012932Y1035038D01*
X1010900Y1036054D01*
X1008868Y1035038D01*
X1042868D02*
X1043884Y1037070D01*
X1042868Y1039102D01*
X1044900Y1038086D01*
X1046932Y1039102D01*
X1045916Y1037070D01*
X1046932Y1035038D01*
X1044900Y1036054D01*
X1042868Y1035038D01*
X1008868Y1169738D02*
X1009884Y1171770D01*
X1008868Y1173802D01*
X1010900Y1172786D01*
X1012932Y1173802D01*
X1011916Y1171770D01*
X1012932Y1169738D01*
X1010900Y1170754D01*
X1008868Y1169738D01*
X1042868D02*
X1043884Y1171770D01*
X1042868Y1173802D01*
X1044900Y1172786D01*
X1046932Y1173802D01*
X1045916Y1171770D01*
X1046932Y1169738D01*
X1044900Y1170754D01*
X1042868Y1169738D01*
X373868Y1035038D02*
X374884Y1037070D01*
X373868Y1039102D01*
X375900Y1038086D01*
X377932Y1039102D01*
X376916Y1037070D01*
X377932Y1035038D01*
X375900Y1036054D01*
X373868Y1035038D01*
X407868D02*
X408884Y1037070D01*
X407868Y1039102D01*
X409900Y1038086D01*
X411932Y1039102D01*
X410916Y1037070D01*
X411932Y1035038D01*
X409900Y1036054D01*
X407868Y1035038D01*
X373868Y1169738D02*
X374884Y1171770D01*
X373868Y1173802D01*
X375900Y1172786D01*
X377932Y1173802D01*
X376916Y1171770D01*
X377932Y1169738D01*
X375900Y1170754D01*
X373868Y1169738D01*
X407868D02*
X408884Y1171770D01*
X407868Y1173802D01*
X409900Y1172786D01*
X411932Y1173802D01*
X410916Y1171770D01*
X411932Y1169738D01*
X409900Y1170754D01*
X407868Y1169738D01*
X627868Y1035038D02*
X628884Y1037070D01*
X627868Y1039102D01*
X629900Y1038086D01*
X631932Y1039102D01*
X630916Y1037070D01*
X631932Y1035038D01*
X629900Y1036054D01*
X627868Y1035038D01*
X661868D02*
X662884Y1037070D01*
X661868Y1039102D01*
X663900Y1038086D01*
X665932Y1039102D01*
X664916Y1037070D01*
X665932Y1035038D01*
X663900Y1036054D01*
X661868Y1035038D01*
X627868Y1169738D02*
X628884Y1171770D01*
X627868Y1173802D01*
X629900Y1172786D01*
X631932Y1173802D01*
X630916Y1171770D01*
X631932Y1169738D01*
X629900Y1170754D01*
X627868Y1169738D01*
X661868D02*
X662884Y1171770D01*
X661868Y1173802D01*
X663900Y1172786D01*
X665932Y1173802D01*
X664916Y1171770D01*
X665932Y1169738D01*
X663900Y1170754D01*
X661868Y1169738D01*
X149568Y736120D02*
X151600Y738152D01*
X153632Y736120D01*
X151600Y734088D01*
X149568Y736120D01*
Y1193320D02*
X151600Y1195352D01*
X153632Y1193320D01*
X151600Y1191288D01*
X149568Y1193320D01*
X1394168D02*
X1396200Y1195352D01*
X1398232Y1193320D01*
X1396200Y1191288D01*
X1394168Y1193320D01*
Y736120D02*
X1396200Y738152D01*
X1398232Y736120D01*
X1396200Y734088D01*
X1394168Y736120D01*
X1330668Y1216688D02*
Y1220752D01*
X1334732D01*
Y1216688D01*
X1330668D01*
X1331684Y1217704D02*
Y1219736D01*
X1333716D01*
Y1217704D01*
X1331684D01*
X1203668Y1216688D02*
Y1220752D01*
X1207732D01*
Y1216688D01*
X1203668D01*
X1204684Y1217704D02*
Y1219736D01*
X1206716D01*
Y1217704D01*
X1204684D01*
X1076668Y1216688D02*
Y1220752D01*
X1080732D01*
Y1216688D01*
X1076668D01*
X1077684Y1217704D02*
Y1219736D01*
X1079716D01*
Y1217704D01*
X1077684D01*
X949668Y1216688D02*
Y1220752D01*
X953732D01*
Y1216688D01*
X949668D01*
X950684Y1217704D02*
Y1219736D01*
X952716D01*
Y1217704D01*
X950684D01*
X822668Y1216688D02*
Y1220752D01*
X826732D01*
Y1216688D01*
X822668D01*
X823684Y1217704D02*
Y1219736D01*
X825716D01*
Y1217704D01*
X823684D01*
X695668Y1216688D02*
Y1220752D01*
X699732D01*
Y1216688D01*
X695668D01*
X696684Y1217704D02*
Y1219736D01*
X698716D01*
Y1217704D01*
X696684D01*
X568668Y1216688D02*
Y1220752D01*
X572732D01*
Y1216688D01*
X568668D01*
X569684Y1217704D02*
Y1219736D01*
X571716D01*
Y1217704D01*
X569684D01*
X441668Y1216688D02*
Y1220752D01*
X445732D01*
Y1216688D01*
X441668D01*
X442684Y1217704D02*
Y1219736D01*
X444716D01*
Y1217704D01*
X442684D01*
X314668Y1216688D02*
Y1220752D01*
X318732D01*
Y1216688D01*
X314668D01*
X315684Y1217704D02*
Y1219736D01*
X317716D01*
Y1217704D01*
X315684D01*
X213068Y1216688D02*
Y1220752D01*
X217132D01*
Y1216688D01*
X213068D01*
X214084Y1217704D02*
Y1219736D01*
X216116D01*
Y1217704D01*
X214084D01*
X1281900Y1491288D02*
X1279868Y1495352D01*
X1283932D01*
X1281900Y1491288D01*
Y1526288D02*
X1279868Y1530352D01*
X1283932D01*
X1281900Y1526288D01*
Y1533788D02*
X1279868Y1537852D01*
X1283932D01*
X1281900Y1533788D01*
Y1483788D02*
X1279868Y1487852D01*
X1283932D01*
X1281900Y1483788D01*
X1154900Y1491288D02*
X1152868Y1495352D01*
X1156932D01*
X1154900Y1491288D01*
Y1526288D02*
X1152868Y1530352D01*
X1156932D01*
X1154900Y1526288D01*
Y1533788D02*
X1152868Y1537852D01*
X1156932D01*
X1154900Y1533788D01*
Y1483788D02*
X1152868Y1487852D01*
X1156932D01*
X1154900Y1483788D01*
X1027900Y1491288D02*
X1025868Y1495352D01*
X1029932D01*
X1027900Y1491288D01*
Y1526288D02*
X1025868Y1530352D01*
X1029932D01*
X1027900Y1526288D01*
Y1533788D02*
X1025868Y1537852D01*
X1029932D01*
X1027900Y1533788D01*
Y1483788D02*
X1025868Y1487852D01*
X1029932D01*
X1027900Y1483788D01*
X900900Y1491288D02*
X898868Y1495352D01*
X902932D01*
X900900Y1491288D01*
Y1526288D02*
X898868Y1530352D01*
X902932D01*
X900900Y1526288D01*
Y1533788D02*
X898868Y1537852D01*
X902932D01*
X900900Y1533788D01*
Y1483788D02*
X898868Y1487852D01*
X902932D01*
X900900Y1483788D01*
X773900Y1491288D02*
X771868Y1495352D01*
X775932D01*
X773900Y1491288D01*
Y1526288D02*
X771868Y1530352D01*
X775932D01*
X773900Y1526288D01*
Y1533788D02*
X771868Y1537852D01*
X775932D01*
X773900Y1533788D01*
Y1483788D02*
X771868Y1487852D01*
X775932D01*
X773900Y1483788D01*
X646900Y1491288D02*
X644868Y1495352D01*
X648932D01*
X646900Y1491288D01*
Y1526288D02*
X644868Y1530352D01*
X648932D01*
X646900Y1526288D01*
Y1533788D02*
X644868Y1537852D01*
X648932D01*
X646900Y1533788D01*
Y1483788D02*
X644868Y1487852D01*
X648932D01*
X646900Y1483788D01*
X519900Y1491288D02*
X517868Y1495352D01*
X521932D01*
X519900Y1491288D01*
Y1526288D02*
X517868Y1530352D01*
X521932D01*
X519900Y1526288D01*
Y1533788D02*
X517868Y1537852D01*
X521932D01*
X519900Y1533788D01*
Y1483788D02*
X517868Y1487852D01*
X521932D01*
X519900Y1483788D01*
X392900Y1491288D02*
X390868Y1495352D01*
X394932D01*
X392900Y1491288D01*
Y1526288D02*
X390868Y1530352D01*
X394932D01*
X392900Y1526288D01*
Y1533788D02*
X390868Y1537852D01*
X394932D01*
X392900Y1533788D01*
Y1483788D02*
X390868Y1487852D01*
X394932D01*
X392900Y1483788D01*
X773900Y1394088D02*
X774916Y1395104D01*
X775932D01*
X774916Y1396120D01*
X775932Y1397136D01*
X774916D01*
X773900Y1398152D01*
X772884Y1397136D01*
X771868D01*
X772884Y1396120D01*
X771868Y1395104D01*
X772884D01*
X773900Y1394088D01*
X1169868Y1753938D02*
X1170884Y1755970D01*
X1169868Y1758002D01*
X1171900Y1756986D01*
X1173932Y1758002D01*
X1172916Y1755970D01*
X1173932Y1753938D01*
X1171900Y1754954D01*
X1169868Y1753938D01*
X1135868D02*
X1136884Y1755970D01*
X1135868Y1758002D01*
X1137900Y1756986D01*
X1139932Y1758002D01*
X1138916Y1755970D01*
X1139932Y1753938D01*
X1137900Y1754954D01*
X1135868Y1753938D01*
X1169868Y1619238D02*
X1170884Y1621270D01*
X1169868Y1623302D01*
X1171900Y1622286D01*
X1173932Y1623302D01*
X1172916Y1621270D01*
X1173932Y1619238D01*
X1171900Y1620254D01*
X1169868Y1619238D01*
X1135868D02*
X1136884Y1621270D01*
X1135868Y1623302D01*
X1137900Y1622286D01*
X1139932Y1623302D01*
X1138916Y1621270D01*
X1139932Y1619238D01*
X1137900Y1620254D01*
X1135868Y1619238D01*
X534868Y1753938D02*
X535884Y1755970D01*
X534868Y1758002D01*
X536900Y1756986D01*
X538932Y1758002D01*
X537916Y1755970D01*
X538932Y1753938D01*
X536900Y1754954D01*
X534868Y1753938D01*
X500868D02*
X501884Y1755970D01*
X500868Y1758002D01*
X502900Y1756986D01*
X504932Y1758002D01*
X503916Y1755970D01*
X504932Y1753938D01*
X502900Y1754954D01*
X500868Y1753938D01*
X534868Y1619238D02*
X535884Y1621270D01*
X534868Y1623302D01*
X536900Y1622286D01*
X538932Y1623302D01*
X537916Y1621270D01*
X538932Y1619238D01*
X536900Y1620254D01*
X534868Y1619238D01*
X500868D02*
X501884Y1621270D01*
X500868Y1623302D01*
X502900Y1622286D01*
X504932Y1623302D01*
X503916Y1621270D01*
X504932Y1619238D01*
X502900Y1620254D01*
X500868Y1619238D01*
X646900Y1344088D02*
X647916Y1345104D01*
X648932D01*
X647916Y1346120D01*
X648932Y1347136D01*
X647916D01*
X646900Y1348152D01*
X645884Y1347136D01*
X644868D01*
X645884Y1346120D01*
X644868Y1345104D01*
X645884D01*
X646900Y1344088D01*
Y1394088D02*
X647916Y1395104D01*
X648932D01*
X647916Y1396120D01*
X648932Y1397136D01*
X647916D01*
X646900Y1398152D01*
X645884Y1397136D01*
X644868D01*
X645884Y1396120D01*
X644868Y1395104D01*
X645884D01*
X646900Y1394088D01*
X264884Y1431504D02*
Y1430488D01*
X266916D01*
Y1431504D01*
X267932D01*
Y1433536D01*
X266916D01*
Y1434552D01*
X264884D01*
Y1433536D01*
X263868D01*
Y1431504D01*
X264884D01*
Y1359504D02*
Y1358488D01*
X266916D01*
Y1359504D01*
X267932D01*
Y1361536D01*
X266916D01*
Y1362552D01*
X264884D01*
Y1361536D01*
X263868D01*
Y1359504D01*
X264884D01*
X280868Y1753938D02*
X281884Y1755970D01*
X280868Y1758002D01*
X282900Y1756986D01*
X284932Y1758002D01*
X283916Y1755970D01*
X284932Y1753938D01*
X282900Y1754954D01*
X280868Y1753938D01*
X246868D02*
X247884Y1755970D01*
X246868Y1758002D01*
X248900Y1756986D01*
X250932Y1758002D01*
X249916Y1755970D01*
X250932Y1753938D01*
X248900Y1754954D01*
X246868Y1753938D01*
X280868Y1619238D02*
X281884Y1621270D01*
X280868Y1623302D01*
X282900Y1622286D01*
X284932Y1623302D01*
X283916Y1621270D01*
X284932Y1619238D01*
X282900Y1620254D01*
X280868Y1619238D01*
X246868D02*
X247884Y1621270D01*
X246868Y1623302D01*
X248900Y1622286D01*
X250932Y1623302D01*
X249916Y1621270D01*
X250932Y1619238D01*
X248900Y1620254D01*
X246868Y1619238D01*
X1027900Y1344088D02*
X1028916Y1345104D01*
X1029932D01*
X1028916Y1346120D01*
X1029932Y1347136D01*
X1028916D01*
X1027900Y1348152D01*
X1026884Y1347136D01*
X1025868D01*
X1026884Y1346120D01*
X1025868Y1345104D01*
X1026884D01*
X1027900Y1344088D01*
Y1394088D02*
X1028916Y1395104D01*
X1029932D01*
X1028916Y1396120D01*
X1029932Y1397136D01*
X1028916D01*
X1027900Y1398152D01*
X1026884Y1397136D01*
X1025868D01*
X1026884Y1396120D01*
X1025868Y1395104D01*
X1026884D01*
X1027900Y1394088D01*
X1279868Y1344088D02*
X1280884D01*
X1281900Y1345104D01*
X1282916Y1344088D01*
X1283932D01*
Y1345104D01*
X1282916Y1346120D01*
X1283932Y1347136D01*
Y1348152D01*
X1282916D01*
X1281900Y1347136D01*
X1280884Y1348152D01*
X1279868D01*
Y1347136D01*
X1280884Y1346120D01*
X1279868Y1345104D01*
Y1344088D01*
Y1394088D02*
X1280884D01*
X1281900Y1395104D01*
X1282916Y1394088D01*
X1283932D01*
Y1395104D01*
X1282916Y1396120D01*
X1283932Y1397136D01*
Y1398152D01*
X1282916D01*
X1281900Y1397136D01*
X1280884Y1398152D01*
X1279868D01*
Y1397136D01*
X1280884Y1396120D01*
X1279868Y1395104D01*
Y1394088D01*
X1154900D02*
X1155916Y1395104D01*
X1156932D01*
X1155916Y1396120D01*
X1156932Y1397136D01*
X1155916D01*
X1154900Y1398152D01*
X1153884Y1397136D01*
X1152868D01*
X1153884Y1396120D01*
X1152868Y1395104D01*
X1153884D01*
X1154900Y1394088D01*
Y1344088D02*
X1155916Y1345104D01*
X1156932D01*
X1155916Y1346120D01*
X1156932Y1347136D01*
X1155916D01*
X1154900Y1348152D01*
X1153884Y1347136D01*
X1152868D01*
X1153884Y1346120D01*
X1152868Y1345104D01*
X1153884D01*
X1154900Y1344088D01*
X773900D02*
X774916Y1345104D01*
X775932D01*
X774916Y1346120D01*
X775932Y1347136D01*
X774916D01*
X773900Y1348152D01*
X772884Y1347136D01*
X771868D01*
X772884Y1346120D01*
X771868Y1345104D01*
X772884D01*
X773900Y1344088D01*
X900900Y1394088D02*
X901916Y1395104D01*
X902932D01*
X901916Y1396120D01*
X902932Y1397136D01*
X901916D01*
X900900Y1398152D01*
X899884Y1397136D01*
X898868D01*
X899884Y1396120D01*
X898868Y1395104D01*
X899884D01*
X900900Y1394088D01*
Y1344088D02*
X901916Y1345104D01*
X902932D01*
X901916Y1346120D01*
X902932Y1347136D01*
X901916D01*
X900900Y1348152D01*
X899884Y1347136D01*
X898868D01*
X899884Y1346120D01*
X898868Y1345104D01*
X899884D01*
X900900Y1344088D01*
X519900D02*
X520916Y1345104D01*
X521932D01*
X520916Y1346120D01*
X521932Y1347136D01*
X520916D01*
X519900Y1348152D01*
X518884Y1347136D01*
X517868D01*
X518884Y1346120D01*
X517868Y1345104D01*
X518884D01*
X519900Y1344088D01*
Y1394088D02*
X520916Y1395104D01*
X521932D01*
X520916Y1396120D01*
X521932Y1397136D01*
X520916D01*
X519900Y1398152D01*
X518884Y1397136D01*
X517868D01*
X518884Y1396120D01*
X517868Y1395104D01*
X518884D01*
X519900Y1394088D01*
X392900D02*
X393916Y1395104D01*
X394932D01*
X393916Y1396120D01*
X394932Y1397136D01*
X393916D01*
X392900Y1398152D01*
X391884Y1397136D01*
X390868D01*
X391884Y1396120D01*
X390868Y1395104D01*
X391884D01*
X392900Y1394088D01*
Y1344088D02*
X393916Y1345104D01*
X394932D01*
X393916Y1346120D01*
X394932Y1347136D01*
X393916D01*
X392900Y1348152D01*
X391884Y1347136D01*
X390868D01*
X391884Y1346120D01*
X390868Y1345104D01*
X391884D01*
X392900Y1344088D01*
X881868Y1619238D02*
X882884Y1621270D01*
X881868Y1623302D01*
X883900Y1622286D01*
X885932Y1623302D01*
X884916Y1621270D01*
X885932Y1619238D01*
X883900Y1620254D01*
X881868Y1619238D01*
X915868D02*
X916884Y1621270D01*
X915868Y1623302D01*
X917900Y1622286D01*
X919932Y1623302D01*
X918916Y1621270D01*
X919932Y1619238D01*
X917900Y1620254D01*
X915868Y1619238D01*
X881868Y1753938D02*
X882884Y1755970D01*
X881868Y1758002D01*
X883900Y1756986D01*
X885932Y1758002D01*
X884916Y1755970D01*
X885932Y1753938D01*
X883900Y1754954D01*
X881868Y1753938D01*
X915868D02*
X916884Y1755970D01*
X915868Y1758002D01*
X917900Y1756986D01*
X919932Y1758002D01*
X918916Y1755970D01*
X919932Y1753938D01*
X917900Y1754954D01*
X915868Y1753938D01*
X754868Y1619238D02*
X755884Y1621270D01*
X754868Y1623302D01*
X756900Y1622286D01*
X758932Y1623302D01*
X757916Y1621270D01*
X758932Y1619238D01*
X756900Y1620254D01*
X754868Y1619238D01*
X788868D02*
X789884Y1621270D01*
X788868Y1623302D01*
X790900Y1622286D01*
X792932Y1623302D01*
X791916Y1621270D01*
X792932Y1619238D01*
X790900Y1620254D01*
X788868Y1619238D01*
X754868Y1753938D02*
X755884Y1755970D01*
X754868Y1758002D01*
X756900Y1756986D01*
X758932Y1758002D01*
X757916Y1755970D01*
X758932Y1753938D01*
X756900Y1754954D01*
X754868Y1753938D01*
X788868D02*
X789884Y1755970D01*
X788868Y1758002D01*
X790900Y1756986D01*
X792932Y1758002D01*
X791916Y1755970D01*
X792932Y1753938D01*
X790900Y1754954D01*
X788868Y1753938D01*
X1262868Y1619238D02*
X1263884Y1621270D01*
X1262868Y1623302D01*
X1264900Y1622286D01*
X1266932Y1623302D01*
X1265916Y1621270D01*
X1266932Y1619238D01*
X1264900Y1620254D01*
X1262868Y1619238D01*
X1296868D02*
X1297884Y1621270D01*
X1296868Y1623302D01*
X1298900Y1622286D01*
X1300932Y1623302D01*
X1299916Y1621270D01*
X1300932Y1619238D01*
X1298900Y1620254D01*
X1296868Y1619238D01*
X1262868Y1753938D02*
X1263884Y1755970D01*
X1262868Y1758002D01*
X1264900Y1756986D01*
X1266932Y1758002D01*
X1265916Y1755970D01*
X1266932Y1753938D01*
X1264900Y1754954D01*
X1262868Y1753938D01*
X1296868D02*
X1297884Y1755970D01*
X1296868Y1758002D01*
X1298900Y1756986D01*
X1300932Y1758002D01*
X1299916Y1755970D01*
X1300932Y1753938D01*
X1298900Y1754954D01*
X1296868Y1753938D01*
X1008868Y1619238D02*
X1009884Y1621270D01*
X1008868Y1623302D01*
X1010900Y1622286D01*
X1012932Y1623302D01*
X1011916Y1621270D01*
X1012932Y1619238D01*
X1010900Y1620254D01*
X1008868Y1619238D01*
X1042868D02*
X1043884Y1621270D01*
X1042868Y1623302D01*
X1044900Y1622286D01*
X1046932Y1623302D01*
X1045916Y1621270D01*
X1046932Y1619238D01*
X1044900Y1620254D01*
X1042868Y1619238D01*
X1008868Y1753938D02*
X1009884Y1755970D01*
X1008868Y1758002D01*
X1010900Y1756986D01*
X1012932Y1758002D01*
X1011916Y1755970D01*
X1012932Y1753938D01*
X1010900Y1754954D01*
X1008868Y1753938D01*
X1042868D02*
X1043884Y1755970D01*
X1042868Y1758002D01*
X1044900Y1756986D01*
X1046932Y1758002D01*
X1045916Y1755970D01*
X1046932Y1753938D01*
X1044900Y1754954D01*
X1042868Y1753938D01*
X373868Y1619238D02*
X374884Y1621270D01*
X373868Y1623302D01*
X375900Y1622286D01*
X377932Y1623302D01*
X376916Y1621270D01*
X377932Y1619238D01*
X375900Y1620254D01*
X373868Y1619238D01*
X407868D02*
X408884Y1621270D01*
X407868Y1623302D01*
X409900Y1622286D01*
X411932Y1623302D01*
X410916Y1621270D01*
X411932Y1619238D01*
X409900Y1620254D01*
X407868Y1619238D01*
X373868Y1753938D02*
X374884Y1755970D01*
X373868Y1758002D01*
X375900Y1756986D01*
X377932Y1758002D01*
X376916Y1755970D01*
X377932Y1753938D01*
X375900Y1754954D01*
X373868Y1753938D01*
X407868D02*
X408884Y1755970D01*
X407868Y1758002D01*
X409900Y1756986D01*
X411932Y1758002D01*
X410916Y1755970D01*
X411932Y1753938D01*
X409900Y1754954D01*
X407868Y1753938D01*
X627868Y1619238D02*
X628884Y1621270D01*
X627868Y1623302D01*
X629900Y1622286D01*
X631932Y1623302D01*
X630916Y1621270D01*
X631932Y1619238D01*
X629900Y1620254D01*
X627868Y1619238D01*
X661868D02*
X662884Y1621270D01*
X661868Y1623302D01*
X663900Y1622286D01*
X665932Y1623302D01*
X664916Y1621270D01*
X665932Y1619238D01*
X663900Y1620254D01*
X661868Y1619238D01*
X627868Y1753938D02*
X628884Y1755970D01*
X627868Y1758002D01*
X629900Y1756986D01*
X631932Y1758002D01*
X630916Y1755970D01*
X631932Y1753938D01*
X629900Y1754954D01*
X627868Y1753938D01*
X661868D02*
X662884Y1755970D01*
X661868Y1758002D01*
X663900Y1756986D01*
X665932Y1758002D01*
X664916Y1755970D01*
X665932Y1753938D01*
X663900Y1754954D01*
X661868Y1753938D01*
X149568Y1320320D02*
X151600Y1322352D01*
X153632Y1320320D01*
X151600Y1318288D01*
X149568Y1320320D01*
Y1777520D02*
X151600Y1779552D01*
X153632Y1777520D01*
X151600Y1775488D01*
X149568Y1777520D01*
X1394168D02*
X1396200Y1779552D01*
X1398232Y1777520D01*
X1396200Y1775488D01*
X1394168Y1777520D01*
Y1320320D02*
X1396200Y1322352D01*
X1398232Y1320320D01*
X1396200Y1318288D01*
X1394168Y1320320D01*
X1330668Y1800888D02*
Y1804952D01*
X1334732D01*
Y1800888D01*
X1330668D01*
X1331684Y1801904D02*
Y1803936D01*
X1333716D01*
Y1801904D01*
X1331684D01*
X1203668Y1800888D02*
Y1804952D01*
X1207732D01*
Y1800888D01*
X1203668D01*
X1204684Y1801904D02*
Y1803936D01*
X1206716D01*
Y1801904D01*
X1204684D01*
X1076668Y1800888D02*
Y1804952D01*
X1080732D01*
Y1800888D01*
X1076668D01*
X1077684Y1801904D02*
Y1803936D01*
X1079716D01*
Y1801904D01*
X1077684D01*
X949668Y1800888D02*
Y1804952D01*
X953732D01*
Y1800888D01*
X949668D01*
X950684Y1801904D02*
Y1803936D01*
X952716D01*
Y1801904D01*
X950684D01*
X822668Y1800888D02*
Y1804952D01*
X826732D01*
Y1800888D01*
X822668D01*
X823684Y1801904D02*
Y1803936D01*
X825716D01*
Y1801904D01*
X823684D01*
X695668Y1800888D02*
Y1804952D01*
X699732D01*
Y1800888D01*
X695668D01*
X696684Y1801904D02*
Y1803936D01*
X698716D01*
Y1801904D01*
X696684D01*
X568668Y1800888D02*
Y1804952D01*
X572732D01*
Y1800888D01*
X568668D01*
X569684Y1801904D02*
Y1803936D01*
X571716D01*
Y1801904D01*
X569684D01*
X441668Y1800888D02*
Y1804952D01*
X445732D01*
Y1800888D01*
X441668D01*
X442684Y1801904D02*
Y1803936D01*
X444716D01*
Y1801904D01*
X442684D01*
X314668Y1800888D02*
Y1804952D01*
X318732D01*
Y1800888D01*
X314668D01*
X315684Y1801904D02*
Y1803936D01*
X317716D01*
Y1801904D01*
X315684D01*
X213068Y1800888D02*
Y1804952D01*
X217132D01*
Y1800888D01*
X213068D01*
X214084Y1801904D02*
Y1803936D01*
X216116D01*
Y1801904D01*
X214084D01*
X1281900Y2075488D02*
X1279868Y2079552D01*
X1283932D01*
X1281900Y2075488D01*
Y2110488D02*
X1279868Y2114552D01*
X1283932D01*
X1281900Y2110488D01*
Y2117988D02*
X1279868Y2122052D01*
X1283932D01*
X1281900Y2117988D01*
Y2067988D02*
X1279868Y2072052D01*
X1283932D01*
X1281900Y2067988D01*
X1154900Y2075488D02*
X1152868Y2079552D01*
X1156932D01*
X1154900Y2075488D01*
Y2110488D02*
X1152868Y2114552D01*
X1156932D01*
X1154900Y2110488D01*
Y2117988D02*
X1152868Y2122052D01*
X1156932D01*
X1154900Y2117988D01*
Y2067988D02*
X1152868Y2072052D01*
X1156932D01*
X1154900Y2067988D01*
X1027900Y2075488D02*
X1025868Y2079552D01*
X1029932D01*
X1027900Y2075488D01*
Y2110488D02*
X1025868Y2114552D01*
X1029932D01*
X1027900Y2110488D01*
Y2117988D02*
X1025868Y2122052D01*
X1029932D01*
X1027900Y2117988D01*
Y2067988D02*
X1025868Y2072052D01*
X1029932D01*
X1027900Y2067988D01*
X900900Y2075488D02*
X898868Y2079552D01*
X902932D01*
X900900Y2075488D01*
Y2110488D02*
X898868Y2114552D01*
X902932D01*
X900900Y2110488D01*
Y2117988D02*
X898868Y2122052D01*
X902932D01*
X900900Y2117988D01*
Y2067988D02*
X898868Y2072052D01*
X902932D01*
X900900Y2067988D01*
X773900Y2075488D02*
X771868Y2079552D01*
X775932D01*
X773900Y2075488D01*
Y2110488D02*
X771868Y2114552D01*
X775932D01*
X773900Y2110488D01*
Y2117988D02*
X771868Y2122052D01*
X775932D01*
X773900Y2117988D01*
Y2067988D02*
X771868Y2072052D01*
X775932D01*
X773900Y2067988D01*
X646900Y2075488D02*
X644868Y2079552D01*
X648932D01*
X646900Y2075488D01*
Y2110488D02*
X644868Y2114552D01*
X648932D01*
X646900Y2110488D01*
Y2117988D02*
X644868Y2122052D01*
X648932D01*
X646900Y2117988D01*
Y2067988D02*
X644868Y2072052D01*
X648932D01*
X646900Y2067988D01*
X519900Y2075488D02*
X517868Y2079552D01*
X521932D01*
X519900Y2075488D01*
Y2110488D02*
X517868Y2114552D01*
X521932D01*
X519900Y2110488D01*
Y2117988D02*
X517868Y2122052D01*
X521932D01*
X519900Y2117988D01*
Y2067988D02*
X517868Y2072052D01*
X521932D01*
X519900Y2067988D01*
X392900Y2075488D02*
X390868Y2079552D01*
X394932D01*
X392900Y2075488D01*
Y2110488D02*
X390868Y2114552D01*
X394932D01*
X392900Y2110488D01*
Y2117988D02*
X390868Y2122052D01*
X394932D01*
X392900Y2117988D01*
Y2067988D02*
X390868Y2072052D01*
X394932D01*
X392900Y2067988D01*
X773900Y1978288D02*
X774916Y1979304D01*
X775932D01*
X774916Y1980320D01*
X775932Y1981336D01*
X774916D01*
X773900Y1982352D01*
X772884Y1981336D01*
X771868D01*
X772884Y1980320D01*
X771868Y1979304D01*
X772884D01*
X773900Y1978288D01*
X1169868Y2338138D02*
X1170884Y2340170D01*
X1169868Y2342202D01*
X1171900Y2341186D01*
X1173932Y2342202D01*
X1172916Y2340170D01*
X1173932Y2338138D01*
X1171900Y2339154D01*
X1169868Y2338138D01*
X1135868D02*
X1136884Y2340170D01*
X1135868Y2342202D01*
X1137900Y2341186D01*
X1139932Y2342202D01*
X1138916Y2340170D01*
X1139932Y2338138D01*
X1137900Y2339154D01*
X1135868Y2338138D01*
X1169868Y2203438D02*
X1170884Y2205470D01*
X1169868Y2207502D01*
X1171900Y2206486D01*
X1173932Y2207502D01*
X1172916Y2205470D01*
X1173932Y2203438D01*
X1171900Y2204454D01*
X1169868Y2203438D01*
X1135868D02*
X1136884Y2205470D01*
X1135868Y2207502D01*
X1137900Y2206486D01*
X1139932Y2207502D01*
X1138916Y2205470D01*
X1139932Y2203438D01*
X1137900Y2204454D01*
X1135868Y2203438D01*
X534868Y2338138D02*
X535884Y2340170D01*
X534868Y2342202D01*
X536900Y2341186D01*
X538932Y2342202D01*
X537916Y2340170D01*
X538932Y2338138D01*
X536900Y2339154D01*
X534868Y2338138D01*
X500868D02*
X501884Y2340170D01*
X500868Y2342202D01*
X502900Y2341186D01*
X504932Y2342202D01*
X503916Y2340170D01*
X504932Y2338138D01*
X502900Y2339154D01*
X500868Y2338138D01*
X534868Y2203438D02*
X535884Y2205470D01*
X534868Y2207502D01*
X536900Y2206486D01*
X538932Y2207502D01*
X537916Y2205470D01*
X538932Y2203438D01*
X536900Y2204454D01*
X534868Y2203438D01*
X500868D02*
X501884Y2205470D01*
X500868Y2207502D01*
X502900Y2206486D01*
X504932Y2207502D01*
X503916Y2205470D01*
X504932Y2203438D01*
X502900Y2204454D01*
X500868Y2203438D01*
X646900Y1928288D02*
X647916Y1929304D01*
X648932D01*
X647916Y1930320D01*
X648932Y1931336D01*
X647916D01*
X646900Y1932352D01*
X645884Y1931336D01*
X644868D01*
X645884Y1930320D01*
X644868Y1929304D01*
X645884D01*
X646900Y1928288D01*
Y1978288D02*
X647916Y1979304D01*
X648932D01*
X647916Y1980320D01*
X648932Y1981336D01*
X647916D01*
X646900Y1982352D01*
X645884Y1981336D01*
X644868D01*
X645884Y1980320D01*
X644868Y1979304D01*
X645884D01*
X646900Y1978288D01*
X264884Y2015704D02*
Y2014688D01*
X266916D01*
Y2015704D01*
X267932D01*
Y2017736D01*
X266916D01*
Y2018752D01*
X264884D01*
Y2017736D01*
X263868D01*
Y2015704D01*
X264884D01*
Y1943704D02*
Y1942688D01*
X266916D01*
Y1943704D01*
X267932D01*
Y1945736D01*
X266916D01*
Y1946752D01*
X264884D01*
Y1945736D01*
X263868D01*
Y1943704D01*
X264884D01*
X280868Y2338138D02*
X281884Y2340170D01*
X280868Y2342202D01*
X282900Y2341186D01*
X284932Y2342202D01*
X283916Y2340170D01*
X284932Y2338138D01*
X282900Y2339154D01*
X280868Y2338138D01*
X246868D02*
X247884Y2340170D01*
X246868Y2342202D01*
X248900Y2341186D01*
X250932Y2342202D01*
X249916Y2340170D01*
X250932Y2338138D01*
X248900Y2339154D01*
X246868Y2338138D01*
X280868Y2203438D02*
X281884Y2205470D01*
X280868Y2207502D01*
X282900Y2206486D01*
X284932Y2207502D01*
X283916Y2205470D01*
X284932Y2203438D01*
X282900Y2204454D01*
X280868Y2203438D01*
X246868D02*
X247884Y2205470D01*
X246868Y2207502D01*
X248900Y2206486D01*
X250932Y2207502D01*
X249916Y2205470D01*
X250932Y2203438D01*
X248900Y2204454D01*
X246868Y2203438D01*
X1027900Y1928288D02*
X1028916Y1929304D01*
X1029932D01*
X1028916Y1930320D01*
X1029932Y1931336D01*
X1028916D01*
X1027900Y1932352D01*
X1026884Y1931336D01*
X1025868D01*
X1026884Y1930320D01*
X1025868Y1929304D01*
X1026884D01*
X1027900Y1928288D01*
Y1978288D02*
X1028916Y1979304D01*
X1029932D01*
X1028916Y1980320D01*
X1029932Y1981336D01*
X1028916D01*
X1027900Y1982352D01*
X1026884Y1981336D01*
X1025868D01*
X1026884Y1980320D01*
X1025868Y1979304D01*
X1026884D01*
X1027900Y1978288D01*
X1279868Y1928288D02*
X1280884D01*
X1281900Y1929304D01*
X1282916Y1928288D01*
X1283932D01*
Y1929304D01*
X1282916Y1930320D01*
X1283932Y1931336D01*
Y1932352D01*
X1282916D01*
X1281900Y1931336D01*
X1280884Y1932352D01*
X1279868D01*
Y1931336D01*
X1280884Y1930320D01*
X1279868Y1929304D01*
Y1928288D01*
Y1978288D02*
X1280884D01*
X1281900Y1979304D01*
X1282916Y1978288D01*
X1283932D01*
Y1979304D01*
X1282916Y1980320D01*
X1283932Y1981336D01*
Y1982352D01*
X1282916D01*
X1281900Y1981336D01*
X1280884Y1982352D01*
X1279868D01*
Y1981336D01*
X1280884Y1980320D01*
X1279868Y1979304D01*
Y1978288D01*
X1154900D02*
X1155916Y1979304D01*
X1156932D01*
X1155916Y1980320D01*
X1156932Y1981336D01*
X1155916D01*
X1154900Y1982352D01*
X1153884Y1981336D01*
X1152868D01*
X1153884Y1980320D01*
X1152868Y1979304D01*
X1153884D01*
X1154900Y1978288D01*
Y1928288D02*
X1155916Y1929304D01*
X1156932D01*
X1155916Y1930320D01*
X1156932Y1931336D01*
X1155916D01*
X1154900Y1932352D01*
X1153884Y1931336D01*
X1152868D01*
X1153884Y1930320D01*
X1152868Y1929304D01*
X1153884D01*
X1154900Y1928288D01*
X773900D02*
X774916Y1929304D01*
X775932D01*
X774916Y1930320D01*
X775932Y1931336D01*
X774916D01*
X773900Y1932352D01*
X772884Y1931336D01*
X771868D01*
X772884Y1930320D01*
X771868Y1929304D01*
X772884D01*
X773900Y1928288D01*
X900900Y1978288D02*
X901916Y1979304D01*
X902932D01*
X901916Y1980320D01*
X902932Y1981336D01*
X901916D01*
X900900Y1982352D01*
X899884Y1981336D01*
X898868D01*
X899884Y1980320D01*
X898868Y1979304D01*
X899884D01*
X900900Y1978288D01*
Y1928288D02*
X901916Y1929304D01*
X902932D01*
X901916Y1930320D01*
X902932Y1931336D01*
X901916D01*
X900900Y1932352D01*
X899884Y1931336D01*
X898868D01*
X899884Y1930320D01*
X898868Y1929304D01*
X899884D01*
X900900Y1928288D01*
X519900D02*
X520916Y1929304D01*
X521932D01*
X520916Y1930320D01*
X521932Y1931336D01*
X520916D01*
X519900Y1932352D01*
X518884Y1931336D01*
X517868D01*
X518884Y1930320D01*
X517868Y1929304D01*
X518884D01*
X519900Y1928288D01*
Y1978288D02*
X520916Y1979304D01*
X521932D01*
X520916Y1980320D01*
X521932Y1981336D01*
X520916D01*
X519900Y1982352D01*
X518884Y1981336D01*
X517868D01*
X518884Y1980320D01*
X517868Y1979304D01*
X518884D01*
X519900Y1978288D01*
X392900D02*
X393916Y1979304D01*
X394932D01*
X393916Y1980320D01*
X394932Y1981336D01*
X393916D01*
X392900Y1982352D01*
X391884Y1981336D01*
X390868D01*
X391884Y1980320D01*
X390868Y1979304D01*
X391884D01*
X392900Y1978288D01*
Y1928288D02*
X393916Y1929304D01*
X394932D01*
X393916Y1930320D01*
X394932Y1931336D01*
X393916D01*
X392900Y1932352D01*
X391884Y1931336D01*
X390868D01*
X391884Y1930320D01*
X390868Y1929304D01*
X391884D01*
X392900Y1928288D01*
X881868Y2203438D02*
X882884Y2205470D01*
X881868Y2207502D01*
X883900Y2206486D01*
X885932Y2207502D01*
X884916Y2205470D01*
X885932Y2203438D01*
X883900Y2204454D01*
X881868Y2203438D01*
X915868D02*
X916884Y2205470D01*
X915868Y2207502D01*
X917900Y2206486D01*
X919932Y2207502D01*
X918916Y2205470D01*
X919932Y2203438D01*
X917900Y2204454D01*
X915868Y2203438D01*
X881868Y2338138D02*
X882884Y2340170D01*
X881868Y2342202D01*
X883900Y2341186D01*
X885932Y2342202D01*
X884916Y2340170D01*
X885932Y2338138D01*
X883900Y2339154D01*
X881868Y2338138D01*
X915868D02*
X916884Y2340170D01*
X915868Y2342202D01*
X917900Y2341186D01*
X919932Y2342202D01*
X918916Y2340170D01*
X919932Y2338138D01*
X917900Y2339154D01*
X915868Y2338138D01*
X754868Y2203438D02*
X755884Y2205470D01*
X754868Y2207502D01*
X756900Y2206486D01*
X758932Y2207502D01*
X757916Y2205470D01*
X758932Y2203438D01*
X756900Y2204454D01*
X754868Y2203438D01*
X788868D02*
X789884Y2205470D01*
X788868Y2207502D01*
X790900Y2206486D01*
X792932Y2207502D01*
X791916Y2205470D01*
X792932Y2203438D01*
X790900Y2204454D01*
X788868Y2203438D01*
X754868Y2338138D02*
X755884Y2340170D01*
X754868Y2342202D01*
X756900Y2341186D01*
X758932Y2342202D01*
X757916Y2340170D01*
X758932Y2338138D01*
X756900Y2339154D01*
X754868Y2338138D01*
X788868D02*
X789884Y2340170D01*
X788868Y2342202D01*
X790900Y2341186D01*
X792932Y2342202D01*
X791916Y2340170D01*
X792932Y2338138D01*
X790900Y2339154D01*
X788868Y2338138D01*
X1262868Y2203438D02*
X1263884Y2205470D01*
X1262868Y2207502D01*
X1264900Y2206486D01*
X1266932Y2207502D01*
X1265916Y2205470D01*
X1266932Y2203438D01*
X1264900Y2204454D01*
X1262868Y2203438D01*
X1296868D02*
X1297884Y2205470D01*
X1296868Y2207502D01*
X1298900Y2206486D01*
X1300932Y2207502D01*
X1299916Y2205470D01*
X1300932Y2203438D01*
X1298900Y2204454D01*
X1296868Y2203438D01*
X1262868Y2338138D02*
X1263884Y2340170D01*
X1262868Y2342202D01*
X1264900Y2341186D01*
X1266932Y2342202D01*
X1265916Y2340170D01*
X1266932Y2338138D01*
X1264900Y2339154D01*
X1262868Y2338138D01*
X1296868D02*
X1297884Y2340170D01*
X1296868Y2342202D01*
X1298900Y2341186D01*
X1300932Y2342202D01*
X1299916Y2340170D01*
X1300932Y2338138D01*
X1298900Y2339154D01*
X1296868Y2338138D01*
X1008868Y2203438D02*
X1009884Y2205470D01*
X1008868Y2207502D01*
X1010900Y2206486D01*
X1012932Y2207502D01*
X1011916Y2205470D01*
X1012932Y2203438D01*
X1010900Y2204454D01*
X1008868Y2203438D01*
X1042868D02*
X1043884Y2205470D01*
X1042868Y2207502D01*
X1044900Y2206486D01*
X1046932Y2207502D01*
X1045916Y2205470D01*
X1046932Y2203438D01*
X1044900Y2204454D01*
X1042868Y2203438D01*
X1008868Y2338138D02*
X1009884Y2340170D01*
X1008868Y2342202D01*
X1010900Y2341186D01*
X1012932Y2342202D01*
X1011916Y2340170D01*
X1012932Y2338138D01*
X1010900Y2339154D01*
X1008868Y2338138D01*
X1042868D02*
X1043884Y2340170D01*
X1042868Y2342202D01*
X1044900Y2341186D01*
X1046932Y2342202D01*
X1045916Y2340170D01*
X1046932Y2338138D01*
X1044900Y2339154D01*
X1042868Y2338138D01*
X373868Y2203438D02*
X374884Y2205470D01*
X373868Y2207502D01*
X375900Y2206486D01*
X377932Y2207502D01*
X376916Y2205470D01*
X377932Y2203438D01*
X375900Y2204454D01*
X373868Y2203438D01*
X407868D02*
X408884Y2205470D01*
X407868Y2207502D01*
X409900Y2206486D01*
X411932Y2207502D01*
X410916Y2205470D01*
X411932Y2203438D01*
X409900Y2204454D01*
X407868Y2203438D01*
X373868Y2338138D02*
X374884Y2340170D01*
X373868Y2342202D01*
X375900Y2341186D01*
X377932Y2342202D01*
X376916Y2340170D01*
X377932Y2338138D01*
X375900Y2339154D01*
X373868Y2338138D01*
X407868D02*
X408884Y2340170D01*
X407868Y2342202D01*
X409900Y2341186D01*
X411932Y2342202D01*
X410916Y2340170D01*
X411932Y2338138D01*
X409900Y2339154D01*
X407868Y2338138D01*
X627868Y2203438D02*
X628884Y2205470D01*
X627868Y2207502D01*
X629900Y2206486D01*
X631932Y2207502D01*
X630916Y2205470D01*
X631932Y2203438D01*
X629900Y2204454D01*
X627868Y2203438D01*
X661868D02*
X662884Y2205470D01*
X661868Y2207502D01*
X663900Y2206486D01*
X665932Y2207502D01*
X664916Y2205470D01*
X665932Y2203438D01*
X663900Y2204454D01*
X661868Y2203438D01*
X627868Y2338138D02*
X628884Y2340170D01*
X627868Y2342202D01*
X629900Y2341186D01*
X631932Y2342202D01*
X630916Y2340170D01*
X631932Y2338138D01*
X629900Y2339154D01*
X627868Y2338138D01*
X661868D02*
X662884Y2340170D01*
X661868Y2342202D01*
X663900Y2341186D01*
X665932Y2342202D01*
X664916Y2340170D01*
X665932Y2338138D01*
X663900Y2339154D01*
X661868Y2338138D01*
X149568Y1904520D02*
X151600Y1906552D01*
X153632Y1904520D01*
X151600Y1902488D01*
X149568Y1904520D01*
Y2361720D02*
X151600Y2363752D01*
X153632Y2361720D01*
X151600Y2359688D01*
X149568Y2361720D01*
X1394168D02*
X1396200Y2363752D01*
X1398232Y2361720D01*
X1396200Y2359688D01*
X1394168Y2361720D01*
Y1904520D02*
X1396200Y1906552D01*
X1398232Y1904520D01*
X1396200Y1902488D01*
X1394168Y1904520D01*
X1330668Y2385088D02*
Y2389152D01*
X1334732D01*
Y2385088D01*
X1330668D01*
X1331684Y2386104D02*
Y2388136D01*
X1333716D01*
Y2386104D01*
X1331684D01*
X1203668Y2385088D02*
Y2389152D01*
X1207732D01*
Y2385088D01*
X1203668D01*
X1204684Y2386104D02*
Y2388136D01*
X1206716D01*
Y2386104D01*
X1204684D01*
X1076668Y2385088D02*
Y2389152D01*
X1080732D01*
Y2385088D01*
X1076668D01*
X1077684Y2386104D02*
Y2388136D01*
X1079716D01*
Y2386104D01*
X1077684D01*
X949668Y2385088D02*
Y2389152D01*
X953732D01*
Y2385088D01*
X949668D01*
X950684Y2386104D02*
Y2388136D01*
X952716D01*
Y2386104D01*
X950684D01*
X822668Y2385088D02*
Y2389152D01*
X826732D01*
Y2385088D01*
X822668D01*
X823684Y2386104D02*
Y2388136D01*
X825716D01*
Y2386104D01*
X823684D01*
X695668Y2385088D02*
Y2389152D01*
X699732D01*
Y2385088D01*
X695668D01*
X696684Y2386104D02*
Y2388136D01*
X698716D01*
Y2386104D01*
X696684D01*
X568668Y2385088D02*
Y2389152D01*
X572732D01*
Y2385088D01*
X568668D01*
X569684Y2386104D02*
Y2388136D01*
X571716D01*
Y2386104D01*
X569684D01*
X441668Y2385088D02*
Y2389152D01*
X445732D01*
Y2385088D01*
X441668D01*
X442684Y2386104D02*
Y2388136D01*
X444716D01*
Y2386104D01*
X442684D01*
X314668Y2385088D02*
Y2389152D01*
X318732D01*
Y2385088D01*
X314668D01*
X315684Y2386104D02*
Y2388136D01*
X317716D01*
Y2386104D01*
X315684D01*
X213068Y2385088D02*
Y2389152D01*
X217132D01*
Y2385088D01*
X213068D01*
X214084Y2386104D02*
Y2388136D01*
X216116D01*
Y2386104D01*
X214084D01*
X1697000Y264668D02*
X1694968Y268732D01*
X1699032D01*
X1697000Y264668D01*
X1732000D02*
X1729968Y268732D01*
X1734032D01*
X1732000Y264668D01*
X1739500D02*
X1737468Y268732D01*
X1741532D01*
X1739500Y264668D01*
X1689500D02*
X1687468Y268732D01*
X1691532D01*
X1689500Y264668D01*
X1697000Y391668D02*
X1694968Y395732D01*
X1699032D01*
X1697000Y391668D01*
X1732000D02*
X1729968Y395732D01*
X1734032D01*
X1732000Y391668D01*
X1739500D02*
X1737468Y395732D01*
X1741532D01*
X1739500Y391668D01*
X1689500D02*
X1687468Y395732D01*
X1691532D01*
X1689500Y391668D01*
X1697000Y518668D02*
X1694968Y522732D01*
X1699032D01*
X1697000Y518668D01*
X1732000D02*
X1729968Y522732D01*
X1734032D01*
X1732000Y518668D01*
X1739500D02*
X1737468Y522732D01*
X1741532D01*
X1739500Y518668D01*
X1689500D02*
X1687468Y522732D01*
X1691532D01*
X1689500Y518668D01*
X1697000Y645668D02*
X1694968Y649732D01*
X1699032D01*
X1697000Y645668D01*
X1732000D02*
X1729968Y649732D01*
X1734032D01*
X1732000Y645668D01*
X1739500D02*
X1737468Y649732D01*
X1741532D01*
X1739500Y645668D01*
X1689500D02*
X1687468Y649732D01*
X1691532D01*
X1689500Y645668D01*
X1697000Y772668D02*
X1694968Y776732D01*
X1699032D01*
X1697000Y772668D01*
X1732000D02*
X1729968Y776732D01*
X1734032D01*
X1732000Y772668D01*
X1739500D02*
X1737468Y776732D01*
X1741532D01*
X1739500Y772668D01*
X1689500D02*
X1687468Y776732D01*
X1691532D01*
X1689500Y772668D01*
X1697000Y899668D02*
X1694968Y903732D01*
X1699032D01*
X1697000Y899668D01*
X1732000D02*
X1729968Y903732D01*
X1734032D01*
X1732000Y899668D01*
X1739500D02*
X1737468Y903732D01*
X1741532D01*
X1739500Y899668D01*
X1689500D02*
X1687468Y903732D01*
X1691532D01*
X1689500Y899668D01*
X1697000Y1026668D02*
X1694968Y1030732D01*
X1699032D01*
X1697000Y1026668D01*
X1732000D02*
X1729968Y1030732D01*
X1734032D01*
X1732000Y1026668D01*
X1739500D02*
X1737468Y1030732D01*
X1741532D01*
X1739500Y1026668D01*
X1689500D02*
X1687468Y1030732D01*
X1691532D01*
X1689500Y1026668D01*
X1697000Y1153668D02*
X1694968Y1157732D01*
X1699032D01*
X1697000Y1153668D01*
X1732000D02*
X1729968Y1157732D01*
X1734032D01*
X1732000Y1153668D01*
X1739500D02*
X1737468Y1157732D01*
X1741532D01*
X1739500Y1153668D01*
X1689500D02*
X1687468Y1157732D01*
X1691532D01*
X1689500Y1153668D01*
X1599800Y772668D02*
X1600816Y773684D01*
X1601832D01*
X1600816Y774700D01*
X1601832Y775716D01*
X1600816D01*
X1599800Y776732D01*
X1598784Y775716D01*
X1597768D01*
X1598784Y774700D01*
X1597768Y773684D01*
X1598784D01*
X1599800Y772668D01*
X1957618Y374668D02*
X1958634Y376700D01*
X1957618Y378732D01*
X1959650Y377716D01*
X1961682Y378732D01*
X1960666Y376700D01*
X1961682Y374668D01*
X1959650Y375684D01*
X1957618Y374668D01*
Y408668D02*
X1958634Y410700D01*
X1957618Y412732D01*
X1959650Y411716D01*
X1961682Y412732D01*
X1960666Y410700D01*
X1961682Y408668D01*
X1959650Y409684D01*
X1957618Y408668D01*
X1822918Y374668D02*
X1823934Y376700D01*
X1822918Y378732D01*
X1824950Y377716D01*
X1826982Y378732D01*
X1825966Y376700D01*
X1826982Y374668D01*
X1824950Y375684D01*
X1822918Y374668D01*
Y408668D02*
X1823934Y410700D01*
X1822918Y412732D01*
X1824950Y411716D01*
X1826982Y412732D01*
X1825966Y410700D01*
X1826982Y408668D01*
X1824950Y409684D01*
X1822918Y408668D01*
X1957618Y1009668D02*
X1958634Y1011700D01*
X1957618Y1013732D01*
X1959650Y1012716D01*
X1961682Y1013732D01*
X1960666Y1011700D01*
X1961682Y1009668D01*
X1959650Y1010684D01*
X1957618Y1009668D01*
Y1043668D02*
X1958634Y1045700D01*
X1957618Y1047732D01*
X1959650Y1046716D01*
X1961682Y1047732D01*
X1960666Y1045700D01*
X1961682Y1043668D01*
X1959650Y1044684D01*
X1957618Y1043668D01*
X1822918Y1009668D02*
X1823934Y1011700D01*
X1822918Y1013732D01*
X1824950Y1012716D01*
X1826982Y1013732D01*
X1825966Y1011700D01*
X1826982Y1009668D01*
X1824950Y1010684D01*
X1822918Y1009668D01*
Y1043668D02*
X1823934Y1045700D01*
X1822918Y1047732D01*
X1824950Y1046716D01*
X1826982Y1047732D01*
X1825966Y1045700D01*
X1826982Y1043668D01*
X1824950Y1044684D01*
X1822918Y1043668D01*
X1549800Y899668D02*
X1550816Y900684D01*
X1551832D01*
X1550816Y901700D01*
X1551832Y902716D01*
X1550816D01*
X1549800Y903732D01*
X1548784Y902716D01*
X1547768D01*
X1548784Y901700D01*
X1547768Y900684D01*
X1548784D01*
X1549800Y899668D01*
X1599800D02*
X1600816Y900684D01*
X1601832D01*
X1600816Y901700D01*
X1601832Y902716D01*
X1600816D01*
X1599800Y903732D01*
X1598784Y902716D01*
X1597768D01*
X1598784Y901700D01*
X1597768Y900684D01*
X1598784D01*
X1599800Y899668D01*
X1635184Y1281684D02*
Y1280668D01*
X1637216D01*
Y1281684D01*
X1638232D01*
Y1283716D01*
X1637216D01*
Y1284732D01*
X1635184D01*
Y1283716D01*
X1634168D01*
Y1281684D01*
X1635184D01*
X1563184D02*
Y1280668D01*
X1565216D01*
Y1281684D01*
X1566232D01*
Y1283716D01*
X1565216D01*
Y1284732D01*
X1563184D01*
Y1283716D01*
X1562168D01*
Y1281684D01*
X1563184D01*
X1957618Y1263668D02*
X1958634Y1265700D01*
X1957618Y1267732D01*
X1959650Y1266716D01*
X1961682Y1267732D01*
X1960666Y1265700D01*
X1961682Y1263668D01*
X1959650Y1264684D01*
X1957618Y1263668D01*
Y1297668D02*
X1958634Y1299700D01*
X1957618Y1301732D01*
X1959650Y1300716D01*
X1961682Y1301732D01*
X1960666Y1299700D01*
X1961682Y1297668D01*
X1959650Y1298684D01*
X1957618Y1297668D01*
X1822918Y1263668D02*
X1823934Y1265700D01*
X1822918Y1267732D01*
X1824950Y1266716D01*
X1826982Y1267732D01*
X1825966Y1265700D01*
X1826982Y1263668D01*
X1824950Y1264684D01*
X1822918Y1263668D01*
Y1297668D02*
X1823934Y1299700D01*
X1822918Y1301732D01*
X1824950Y1300716D01*
X1826982Y1301732D01*
X1825966Y1299700D01*
X1826982Y1297668D01*
X1824950Y1298684D01*
X1822918Y1297668D01*
X1549800Y518668D02*
X1550816Y519684D01*
X1551832D01*
X1550816Y520700D01*
X1551832Y521716D01*
X1550816D01*
X1549800Y522732D01*
X1548784Y521716D01*
X1547768D01*
X1548784Y520700D01*
X1547768Y519684D01*
X1548784D01*
X1549800Y518668D01*
X1599800D02*
X1600816Y519684D01*
X1601832D01*
X1600816Y520700D01*
X1601832Y521716D01*
X1600816D01*
X1599800Y522732D01*
X1598784Y521716D01*
X1597768D01*
X1598784Y520700D01*
X1597768Y519684D01*
X1598784D01*
X1599800Y518668D01*
X1547768Y264668D02*
X1548784D01*
X1549800Y265684D01*
X1550816Y264668D01*
X1551832D01*
Y265684D01*
X1550816Y266700D01*
X1551832Y267716D01*
Y268732D01*
X1550816D01*
X1549800Y267716D01*
X1548784Y268732D01*
X1547768D01*
Y267716D01*
X1548784Y266700D01*
X1547768Y265684D01*
Y264668D01*
X1597768D02*
X1598784D01*
X1599800Y265684D01*
X1600816Y264668D01*
X1601832D01*
Y265684D01*
X1600816Y266700D01*
X1601832Y267716D01*
Y268732D01*
X1600816D01*
X1599800Y267716D01*
X1598784Y268732D01*
X1597768D01*
Y267716D01*
X1598784Y266700D01*
X1597768Y265684D01*
Y264668D01*
X1599800Y391668D02*
X1600816Y392684D01*
X1601832D01*
X1600816Y393700D01*
X1601832Y394716D01*
X1600816D01*
X1599800Y395732D01*
X1598784Y394716D01*
X1597768D01*
X1598784Y393700D01*
X1597768Y392684D01*
X1598784D01*
X1599800Y391668D01*
X1549800D02*
X1550816Y392684D01*
X1551832D01*
X1550816Y393700D01*
X1551832Y394716D01*
X1550816D01*
X1549800Y395732D01*
X1548784Y394716D01*
X1547768D01*
X1548784Y393700D01*
X1547768Y392684D01*
X1548784D01*
X1549800Y391668D01*
Y772668D02*
X1550816Y773684D01*
X1551832D01*
X1550816Y774700D01*
X1551832Y775716D01*
X1550816D01*
X1549800Y776732D01*
X1548784Y775716D01*
X1547768D01*
X1548784Y774700D01*
X1547768Y773684D01*
X1548784D01*
X1549800Y772668D01*
X1599800Y645668D02*
X1600816Y646684D01*
X1601832D01*
X1600816Y647700D01*
X1601832Y648716D01*
X1600816D01*
X1599800Y649732D01*
X1598784Y648716D01*
X1597768D01*
X1598784Y647700D01*
X1597768Y646684D01*
X1598784D01*
X1599800Y645668D01*
X1549800D02*
X1550816Y646684D01*
X1551832D01*
X1550816Y647700D01*
X1551832Y648716D01*
X1550816D01*
X1549800Y649732D01*
X1548784Y648716D01*
X1547768D01*
X1548784Y647700D01*
X1547768Y646684D01*
X1548784D01*
X1549800Y645668D01*
Y1026668D02*
X1550816Y1027684D01*
X1551832D01*
X1550816Y1028700D01*
X1551832Y1029716D01*
X1550816D01*
X1549800Y1030732D01*
X1548784Y1029716D01*
X1547768D01*
X1548784Y1028700D01*
X1547768Y1027684D01*
X1548784D01*
X1549800Y1026668D01*
X1599800D02*
X1600816Y1027684D01*
X1601832D01*
X1600816Y1028700D01*
X1601832Y1029716D01*
X1600816D01*
X1599800Y1030732D01*
X1598784Y1029716D01*
X1597768D01*
X1598784Y1028700D01*
X1597768Y1027684D01*
X1598784D01*
X1599800Y1026668D01*
Y1153668D02*
X1600816Y1154684D01*
X1601832D01*
X1600816Y1155700D01*
X1601832Y1156716D01*
X1600816D01*
X1599800Y1157732D01*
X1598784Y1156716D01*
X1597768D01*
X1598784Y1155700D01*
X1597768Y1154684D01*
X1598784D01*
X1599800Y1153668D01*
X1549800D02*
X1550816Y1154684D01*
X1551832D01*
X1550816Y1155700D01*
X1551832Y1156716D01*
X1550816D01*
X1549800Y1157732D01*
X1548784Y1156716D01*
X1547768D01*
X1548784Y1155700D01*
X1547768Y1154684D01*
X1548784D01*
X1549800Y1153668D01*
X1822918Y662668D02*
X1823934Y664700D01*
X1822918Y666732D01*
X1824950Y665716D01*
X1826982Y666732D01*
X1825966Y664700D01*
X1826982Y662668D01*
X1824950Y663684D01*
X1822918Y662668D01*
Y628668D02*
X1823934Y630700D01*
X1822918Y632732D01*
X1824950Y631716D01*
X1826982Y632732D01*
X1825966Y630700D01*
X1826982Y628668D01*
X1824950Y629684D01*
X1822918Y628668D01*
X1957618Y662668D02*
X1958634Y664700D01*
X1957618Y666732D01*
X1959650Y665716D01*
X1961682Y666732D01*
X1960666Y664700D01*
X1961682Y662668D01*
X1959650Y663684D01*
X1957618Y662668D01*
Y628668D02*
X1958634Y630700D01*
X1957618Y632732D01*
X1959650Y631716D01*
X1961682Y632732D01*
X1960666Y630700D01*
X1961682Y628668D01*
X1959650Y629684D01*
X1957618Y628668D01*
X1822918Y789668D02*
X1823934Y791700D01*
X1822918Y793732D01*
X1824950Y792716D01*
X1826982Y793732D01*
X1825966Y791700D01*
X1826982Y789668D01*
X1824950Y790684D01*
X1822918Y789668D01*
Y755668D02*
X1823934Y757700D01*
X1822918Y759732D01*
X1824950Y758716D01*
X1826982Y759732D01*
X1825966Y757700D01*
X1826982Y755668D01*
X1824950Y756684D01*
X1822918Y755668D01*
X1957618Y789668D02*
X1958634Y791700D01*
X1957618Y793732D01*
X1959650Y792716D01*
X1961682Y793732D01*
X1960666Y791700D01*
X1961682Y789668D01*
X1959650Y790684D01*
X1957618Y789668D01*
Y755668D02*
X1958634Y757700D01*
X1957618Y759732D01*
X1959650Y758716D01*
X1961682Y759732D01*
X1960666Y757700D01*
X1961682Y755668D01*
X1959650Y756684D01*
X1957618Y755668D01*
X1822918Y281668D02*
X1823934Y283700D01*
X1822918Y285732D01*
X1824950Y284716D01*
X1826982Y285732D01*
X1825966Y283700D01*
X1826982Y281668D01*
X1824950Y282684D01*
X1822918Y281668D01*
Y247668D02*
X1823934Y249700D01*
X1822918Y251732D01*
X1824950Y250716D01*
X1826982Y251732D01*
X1825966Y249700D01*
X1826982Y247668D01*
X1824950Y248684D01*
X1822918Y247668D01*
X1957618Y281668D02*
X1958634Y283700D01*
X1957618Y285732D01*
X1959650Y284716D01*
X1961682Y285732D01*
X1960666Y283700D01*
X1961682Y281668D01*
X1959650Y282684D01*
X1957618Y281668D01*
Y247668D02*
X1958634Y249700D01*
X1957618Y251732D01*
X1959650Y250716D01*
X1961682Y251732D01*
X1960666Y249700D01*
X1961682Y247668D01*
X1959650Y248684D01*
X1957618Y247668D01*
X1822918Y535668D02*
X1823934Y537700D01*
X1822918Y539732D01*
X1824950Y538716D01*
X1826982Y539732D01*
X1825966Y537700D01*
X1826982Y535668D01*
X1824950Y536684D01*
X1822918Y535668D01*
Y501668D02*
X1823934Y503700D01*
X1822918Y505732D01*
X1824950Y504716D01*
X1826982Y505732D01*
X1825966Y503700D01*
X1826982Y501668D01*
X1824950Y502684D01*
X1822918Y501668D01*
X1957618Y535668D02*
X1958634Y537700D01*
X1957618Y539732D01*
X1959650Y538716D01*
X1961682Y539732D01*
X1960666Y537700D01*
X1961682Y535668D01*
X1959650Y536684D01*
X1957618Y535668D01*
Y501668D02*
X1958634Y503700D01*
X1957618Y505732D01*
X1959650Y504716D01*
X1961682Y505732D01*
X1960666Y503700D01*
X1961682Y501668D01*
X1959650Y502684D01*
X1957618Y501668D01*
X1822918Y1170668D02*
X1823934Y1172700D01*
X1822918Y1174732D01*
X1824950Y1173716D01*
X1826982Y1174732D01*
X1825966Y1172700D01*
X1826982Y1170668D01*
X1824950Y1171684D01*
X1822918Y1170668D01*
Y1136668D02*
X1823934Y1138700D01*
X1822918Y1140732D01*
X1824950Y1139716D01*
X1826982Y1140732D01*
X1825966Y1138700D01*
X1826982Y1136668D01*
X1824950Y1137684D01*
X1822918Y1136668D01*
X1957618Y1170668D02*
X1958634Y1172700D01*
X1957618Y1174732D01*
X1959650Y1173716D01*
X1961682Y1174732D01*
X1960666Y1172700D01*
X1961682Y1170668D01*
X1959650Y1171684D01*
X1957618Y1170668D01*
Y1136668D02*
X1958634Y1138700D01*
X1957618Y1140732D01*
X1959650Y1139716D01*
X1961682Y1140732D01*
X1960666Y1138700D01*
X1961682Y1136668D01*
X1959650Y1137684D01*
X1957618Y1136668D01*
X1822918Y916668D02*
X1823934Y918700D01*
X1822918Y920732D01*
X1824950Y919716D01*
X1826982Y920732D01*
X1825966Y918700D01*
X1826982Y916668D01*
X1824950Y917684D01*
X1822918Y916668D01*
Y882668D02*
X1823934Y884700D01*
X1822918Y886732D01*
X1824950Y885716D01*
X1826982Y886732D01*
X1825966Y884700D01*
X1826982Y882668D01*
X1824950Y883684D01*
X1822918Y882668D01*
X1957618Y916668D02*
X1958634Y918700D01*
X1957618Y920732D01*
X1959650Y919716D01*
X1961682Y920732D01*
X1960666Y918700D01*
X1961682Y916668D01*
X1959650Y917684D01*
X1957618Y916668D01*
Y882668D02*
X1958634Y884700D01*
X1957618Y886732D01*
X1959650Y885716D01*
X1961682Y886732D01*
X1960666Y884700D01*
X1961682Y882668D01*
X1959650Y883684D01*
X1957618Y882668D01*
X1521968Y1397000D02*
X1524000Y1399032D01*
X1526032Y1397000D01*
X1524000Y1394968D01*
X1521968Y1397000D01*
X1979168D02*
X1981200Y1399032D01*
X1983232Y1397000D01*
X1981200Y1394968D01*
X1979168Y1397000D01*
Y152400D02*
X1981200Y154432D01*
X1983232Y152400D01*
X1981200Y150368D01*
X1979168Y152400D01*
X1521968D02*
X1524000Y154432D01*
X1526032Y152400D01*
X1524000Y150368D01*
X1521968Y152400D01*
X2004568Y213868D02*
Y217932D01*
X2008632D01*
Y213868D01*
X2004568D01*
X2005584Y214884D02*
Y216916D01*
X2007616D01*
Y214884D01*
X2005584D01*
X2004568Y340868D02*
Y344932D01*
X2008632D01*
Y340868D01*
X2004568D01*
X2005584Y341884D02*
Y343916D01*
X2007616D01*
Y341884D01*
X2005584D01*
X2004568Y467868D02*
Y471932D01*
X2008632D01*
Y467868D01*
X2004568D01*
X2005584Y468884D02*
Y470916D01*
X2007616D01*
Y468884D01*
X2005584D01*
X2004568Y594868D02*
Y598932D01*
X2008632D01*
Y594868D01*
X2004568D01*
X2005584Y595884D02*
Y597916D01*
X2007616D01*
Y595884D01*
X2005584D01*
X2004568Y721868D02*
Y725932D01*
X2008632D01*
Y721868D01*
X2004568D01*
X2005584Y722884D02*
Y724916D01*
X2007616D01*
Y722884D01*
X2005584D01*
X2004568Y848868D02*
Y852932D01*
X2008632D01*
Y848868D01*
X2004568D01*
X2005584Y849884D02*
Y851916D01*
X2007616D01*
Y849884D01*
X2005584D01*
X2004568Y975868D02*
Y979932D01*
X2008632D01*
Y975868D01*
X2004568D01*
X2005584Y976884D02*
Y978916D01*
X2007616D01*
Y976884D01*
X2005584D01*
X2004568Y1102868D02*
Y1106932D01*
X2008632D01*
Y1102868D01*
X2004568D01*
X2005584Y1103884D02*
Y1105916D01*
X2007616D01*
Y1103884D01*
X2005584D01*
X2004568Y1229868D02*
Y1233932D01*
X2008632D01*
Y1229868D01*
X2004568D01*
X2005584Y1230884D02*
Y1232916D01*
X2007616D01*
Y1230884D01*
X2005584D01*
X2004568Y1331468D02*
Y1335532D01*
X2008632D01*
Y1331468D01*
X2004568D01*
X2005584Y1332484D02*
Y1334516D01*
X2007616D01*
Y1332484D01*
X2005584D01*
D51*
X101092Y2484120D02*
G03*
X101092Y2484120I-2032J0D01*
G01*
Y2476500D02*
G03*
X101092Y2476500I-2032J0D01*
G01*
Y2468880D02*
G03*
X101092Y2468880I-2032J0D01*
G01*
Y2461260D02*
G03*
X101092Y2461260I-2032J0D01*
G01*
Y2453640D02*
G03*
X101092Y2453640I-2032J0D01*
G01*
X62992Y2415540D02*
G03*
X62992Y2415540I-2032J0D01*
G01*
X55372D02*
G03*
X55372Y2415540I-2032J0D01*
G01*
X47752D02*
G03*
X47752Y2415540I-2032J0D01*
G01*
X40132D02*
G03*
X40132Y2415540I-2032J0D01*
G01*
X32512D02*
G03*
X32512Y2415540I-2032J0D01*
G01*
X24892D02*
G03*
X24892Y2415540I-2032J0D01*
G01*
X17272D02*
G03*
X17272Y2415540I-2032J0D01*
G01*
X1452372Y2453640D02*
G03*
X1452372Y2453640I-2032J0D01*
G01*
Y2461260D02*
G03*
X1452372Y2461260I-2032J0D01*
G01*
Y2468880D02*
G03*
X1452372Y2468880I-2032J0D01*
G01*
Y2476500D02*
G03*
X1452372Y2476500I-2032J0D01*
G01*
Y2484120D02*
G03*
X1452372Y2484120I-2032J0D01*
G01*
X1028192Y2415540D02*
G03*
X1028192Y2415540I-2032J0D01*
G01*
X1020572D02*
G03*
X1020572Y2415540I-2032J0D01*
G01*
X1012952D02*
G03*
X1012952Y2415540I-2032J0D01*
G01*
X1005332D02*
G03*
X1005332Y2415540I-2032J0D01*
G01*
X997712D02*
G03*
X997712Y2415540I-2032J0D01*
G01*
X990092D02*
G03*
X990092Y2415540I-2032J0D01*
G01*
X982472D02*
G03*
X982472Y2415540I-2032J0D01*
G01*
X512572D02*
G03*
X512572Y2415540I-2032J0D01*
G01*
X520192D02*
G03*
X520192Y2415540I-2032J0D01*
G01*
X527812D02*
G03*
X527812Y2415540I-2032J0D01*
G01*
X535432D02*
G03*
X535432Y2415540I-2032J0D01*
G01*
X543052D02*
G03*
X543052Y2415540I-2032J0D01*
G01*
X550672D02*
G03*
X550672Y2415540I-2032J0D01*
G01*
X558292D02*
G03*
X558292Y2415540I-2032J0D01*
G01*
X2120392Y1450340D02*
G03*
X2120392Y1450340I-2032J0D01*
G01*
X2112772D02*
G03*
X2112772Y1450340I-2032J0D01*
G01*
X2105152D02*
G03*
X2105152Y1450340I-2032J0D01*
G01*
X2097532D02*
G03*
X2097532Y1450340I-2032J0D01*
G01*
X2089912D02*
G03*
X2089912Y1450340I-2032J0D01*
G01*
X2082292D02*
G03*
X2082292Y1450340I-2032J0D01*
G01*
X2074672D02*
G03*
X2074672Y1450340I-2032J0D01*
G01*
X2120392Y99060D02*
G03*
X2120392Y99060I-2032J0D01*
G01*
X2112772D02*
G03*
X2112772Y99060I-2032J0D01*
G01*
X2105152D02*
G03*
X2105152Y99060I-2032J0D01*
G01*
X2097532D02*
G03*
X2097532Y99060I-2032J0D01*
G01*
X2089912D02*
G03*
X2089912Y99060I-2032J0D01*
G01*
X2082292D02*
G03*
X2082292Y99060I-2032J0D01*
G01*
X2074672D02*
G03*
X2074672Y99060I-2032J0D01*
G01*
X1731772Y1450340D02*
G03*
X1731772Y1450340I-2032J0D01*
G01*
X1739392D02*
G03*
X1739392Y1450340I-2032J0D01*
G01*
X1747012D02*
G03*
X1747012Y1450340I-2032J0D01*
G01*
X1754632D02*
G03*
X1754632Y1450340I-2032J0D01*
G01*
X1762252D02*
G03*
X1762252Y1450340I-2032J0D01*
G01*
X1769872D02*
G03*
X1769872Y1450340I-2032J0D01*
G01*
X1777492D02*
G03*
X1777492Y1450340I-2032J0D01*
G01*
X1731772Y1470660D02*
G03*
X1731772Y1470660I-2032J0D01*
G01*
X1739392D02*
G03*
X1739392Y1470660I-2032J0D01*
G01*
X1747012D02*
G03*
X1747012Y1470660I-2032J0D01*
G01*
X1754632D02*
G03*
X1754632Y1470660I-2032J0D01*
G01*
X1762252D02*
G03*
X1762252Y1470660I-2032J0D01*
G01*
X1769872D02*
G03*
X1769872Y1470660I-2032J0D01*
G01*
X1777492D02*
G03*
X1777492Y1470660I-2032J0D01*
G01*
X2036572Y60960D02*
G03*
X2036572Y60960I-2032J0D01*
G01*
Y53340D02*
G03*
X2036572Y53340I-2032J0D01*
G01*
Y45720D02*
G03*
X2036572Y45720I-2032J0D01*
G01*
Y38100D02*
G03*
X2036572Y38100I-2032J0D01*
G01*
Y30480D02*
G03*
X2036572Y30480I-2032J0D01*
G01*
Y22860D02*
G03*
X2036572Y22860I-2032J0D01*
G01*
Y15240D02*
G03*
X2036572Y15240I-2032J0D01*
G01*
X101092Y2110740D02*
G03*
X101092Y2110740I-2032J0D01*
G01*
Y2141220D02*
G03*
X101092Y2141220I-2032J0D01*
G01*
Y2133600D02*
G03*
X101092Y2133600I-2032J0D01*
G01*
Y2125980D02*
G03*
X101092Y2125980I-2032J0D01*
G01*
Y2156460D02*
G03*
X101092Y2156460I-2032J0D01*
G01*
Y2148840D02*
G03*
X101092Y2148840I-2032J0D01*
G01*
Y2118360D02*
G03*
X101092Y2118360I-2032J0D01*
G01*
X1452372Y2156460D02*
G03*
X1452372Y2156460I-2032J0D01*
G01*
Y2148840D02*
G03*
X1452372Y2148840I-2032J0D01*
G01*
Y2141220D02*
G03*
X1452372Y2141220I-2032J0D01*
G01*
Y2133600D02*
G03*
X1452372Y2133600I-2032J0D01*
G01*
Y2125980D02*
G03*
X1452372Y2125980I-2032J0D01*
G01*
Y2118360D02*
G03*
X1452372Y2118360I-2032J0D01*
G01*
Y2110740D02*
G03*
X1452372Y2110740I-2032J0D01*
G01*
Y1572260D02*
G03*
X1452372Y1572260I-2032J0D01*
G01*
Y1564640D02*
G03*
X1452372Y1564640I-2032J0D01*
G01*
Y1557020D02*
G03*
X1452372Y1557020I-2032J0D01*
G01*
Y1549400D02*
G03*
X1452372Y1549400I-2032J0D01*
G01*
Y1541780D02*
G03*
X1452372Y1541780I-2032J0D01*
G01*
Y1534160D02*
G03*
X1452372Y1534160I-2032J0D01*
G01*
Y1526540D02*
G03*
X1452372Y1526540I-2032J0D01*
G01*
X1472692Y942340D02*
G03*
X1472692Y942340I-2032J0D01*
G01*
Y949960D02*
G03*
X1472692Y949960I-2032J0D01*
G01*
Y957580D02*
G03*
X1472692Y957580I-2032J0D01*
G01*
Y965200D02*
G03*
X1472692Y965200I-2032J0D01*
G01*
Y972820D02*
G03*
X1472692Y972820I-2032J0D01*
G01*
Y980440D02*
G03*
X1472692Y980440I-2032J0D01*
G01*
Y988060D02*
G03*
X1472692Y988060I-2032J0D01*
G01*
X1452372Y942340D02*
G03*
X1452372Y942340I-2032J0D01*
G01*
Y949960D02*
G03*
X1452372Y949960I-2032J0D01*
G01*
Y957580D02*
G03*
X1452372Y957580I-2032J0D01*
G01*
Y965200D02*
G03*
X1452372Y965200I-2032J0D01*
G01*
Y972820D02*
G03*
X1452372Y972820I-2032J0D01*
G01*
Y980440D02*
G03*
X1452372Y980440I-2032J0D01*
G01*
Y988060D02*
G03*
X1452372Y988060I-2032J0D01*
G01*
X558292Y1851660D02*
G03*
X558292Y1851660I-2032J0D01*
G01*
X550672D02*
G03*
X550672Y1851660I-2032J0D01*
G01*
X543052D02*
G03*
X543052Y1851660I-2032J0D01*
G01*
X535432D02*
G03*
X535432Y1851660I-2032J0D01*
G01*
X527812D02*
G03*
X527812Y1851660I-2032J0D01*
G01*
X520192D02*
G03*
X520192Y1851660I-2032J0D01*
G01*
X512572D02*
G03*
X512572Y1851660I-2032J0D01*
G01*
X558292Y1831340D02*
G03*
X558292Y1831340I-2032J0D01*
G01*
X550672D02*
G03*
X550672Y1831340I-2032J0D01*
G01*
X543052D02*
G03*
X543052Y1831340I-2032J0D01*
G01*
X535432D02*
G03*
X535432Y1831340I-2032J0D01*
G01*
X527812D02*
G03*
X527812Y1831340I-2032J0D01*
G01*
X520192D02*
G03*
X520192Y1831340I-2032J0D01*
G01*
X512572D02*
G03*
X512572Y1831340I-2032J0D01*
G01*
X982472D02*
G03*
X982472Y1831340I-2032J0D01*
G01*
X990092D02*
G03*
X990092Y1831340I-2032J0D01*
G01*
X997712D02*
G03*
X997712Y1831340I-2032J0D01*
G01*
X1005332D02*
G03*
X1005332Y1831340I-2032J0D01*
G01*
X1012952D02*
G03*
X1012952Y1831340I-2032J0D01*
G01*
X1020572D02*
G03*
X1020572Y1831340I-2032J0D01*
G01*
X1028192D02*
G03*
X1028192Y1831340I-2032J0D01*
G01*
X982472Y1851660D02*
G03*
X982472Y1851660I-2032J0D01*
G01*
X990092D02*
G03*
X990092Y1851660I-2032J0D01*
G01*
X997712D02*
G03*
X997712Y1851660I-2032J0D01*
G01*
X1005332D02*
G03*
X1005332Y1851660I-2032J0D01*
G01*
X1012952D02*
G03*
X1012952Y1851660I-2032J0D01*
G01*
X1020572D02*
G03*
X1020572Y1851660I-2032J0D01*
G01*
X1028192D02*
G03*
X1028192Y1851660I-2032J0D01*
G01*
X558292Y1267460D02*
G03*
X558292Y1267460I-2032J0D01*
G01*
X550672D02*
G03*
X550672Y1267460I-2032J0D01*
G01*
X543052D02*
G03*
X543052Y1267460I-2032J0D01*
G01*
X535432D02*
G03*
X535432Y1267460I-2032J0D01*
G01*
X527812D02*
G03*
X527812Y1267460I-2032J0D01*
G01*
X520192D02*
G03*
X520192Y1267460I-2032J0D01*
G01*
X512572D02*
G03*
X512572Y1267460I-2032J0D01*
G01*
X558292Y1247140D02*
G03*
X558292Y1247140I-2032J0D01*
G01*
X550672D02*
G03*
X550672Y1247140I-2032J0D01*
G01*
X543052D02*
G03*
X543052Y1247140I-2032J0D01*
G01*
X535432D02*
G03*
X535432Y1247140I-2032J0D01*
G01*
X527812D02*
G03*
X527812Y1247140I-2032J0D01*
G01*
X520192D02*
G03*
X520192Y1247140I-2032J0D01*
G01*
X512572D02*
G03*
X512572Y1247140I-2032J0D01*
G01*
X982472D02*
G03*
X982472Y1247140I-2032J0D01*
G01*
X990092D02*
G03*
X990092Y1247140I-2032J0D01*
G01*
X997712D02*
G03*
X997712Y1247140I-2032J0D01*
G01*
X1005332D02*
G03*
X1005332Y1247140I-2032J0D01*
G01*
X1012952D02*
G03*
X1012952Y1247140I-2032J0D01*
G01*
X1020572D02*
G03*
X1020572Y1247140I-2032J0D01*
G01*
X1028192D02*
G03*
X1028192Y1247140I-2032J0D01*
G01*
X982472Y1267460D02*
G03*
X982472Y1267460I-2032J0D01*
G01*
X990092D02*
G03*
X990092Y1267460I-2032J0D01*
G01*
X997712D02*
G03*
X997712Y1267460I-2032J0D01*
G01*
X1005332D02*
G03*
X1005332Y1267460I-2032J0D01*
G01*
X1012952D02*
G03*
X1012952Y1267460I-2032J0D01*
G01*
X1020572D02*
G03*
X1020572Y1267460I-2032J0D01*
G01*
X1028192D02*
G03*
X1028192Y1267460I-2032J0D01*
G01*
X101092Y1534160D02*
G03*
X101092Y1534160I-2032J0D01*
G01*
Y1564640D02*
G03*
X101092Y1564640I-2032J0D01*
G01*
Y1572260D02*
G03*
X101092Y1572260I-2032J0D01*
G01*
Y1541780D02*
G03*
X101092Y1541780I-2032J0D01*
G01*
Y1549400D02*
G03*
X101092Y1549400I-2032J0D01*
G01*
Y1557020D02*
G03*
X101092Y1557020I-2032J0D01*
G01*
Y1526540D02*
G03*
X101092Y1526540I-2032J0D01*
G01*
X101092Y942340D02*
G03*
X101092Y942340I-2032J0D01*
G01*
Y972820D02*
G03*
X101092Y972820I-2032J0D01*
G01*
Y965200D02*
G03*
X101092Y965200I-2032J0D01*
G01*
Y957580D02*
G03*
X101092Y957580I-2032J0D01*
G01*
Y988060D02*
G03*
X101092Y988060I-2032J0D01*
G01*
Y980440D02*
G03*
X101092Y980440I-2032J0D01*
G01*
Y949960D02*
G03*
X101092Y949960I-2032J0D01*
G01*
Y365760D02*
G03*
X101092Y365760I-2032J0D01*
G01*
Y396240D02*
G03*
X101092Y396240I-2032J0D01*
G01*
Y403860D02*
G03*
X101092Y403860I-2032J0D01*
G01*
Y373380D02*
G03*
X101092Y373380I-2032J0D01*
G01*
Y381000D02*
G03*
X101092Y381000I-2032J0D01*
G01*
Y388620D02*
G03*
X101092Y388620I-2032J0D01*
G01*
X2036572Y1272540D02*
G03*
X2036572Y1272540I-2032J0D01*
G01*
Y1280160D02*
G03*
X2036572Y1280160I-2032J0D01*
G01*
Y1287780D02*
G03*
X2036572Y1287780I-2032J0D01*
G01*
Y1295400D02*
G03*
X2036572Y1295400I-2032J0D01*
G01*
Y1303020D02*
G03*
X2036572Y1303020I-2032J0D01*
G01*
Y1310640D02*
G03*
X2036572Y1310640I-2032J0D01*
G01*
Y1318260D02*
G03*
X2036572Y1318260I-2032J0D01*
G01*
Y789940D02*
G03*
X2036572Y789940I-2032J0D01*
G01*
Y797560D02*
G03*
X2036572Y797560I-2032J0D01*
G01*
Y805180D02*
G03*
X2036572Y805180I-2032J0D01*
G01*
Y812800D02*
G03*
X2036572Y812800I-2032J0D01*
G01*
Y820420D02*
G03*
X2036572Y820420I-2032J0D01*
G01*
Y828040D02*
G03*
X2036572Y828040I-2032J0D01*
G01*
Y835660D02*
G03*
X2036572Y835660I-2032J0D01*
G01*
Y307340D02*
G03*
X2036572Y307340I-2032J0D01*
G01*
Y314960D02*
G03*
X2036572Y314960I-2032J0D01*
G01*
Y322580D02*
G03*
X2036572Y322580I-2032J0D01*
G01*
Y330200D02*
G03*
X2036572Y330200I-2032J0D01*
G01*
Y337820D02*
G03*
X2036572Y337820I-2032J0D01*
G01*
Y345440D02*
G03*
X2036572Y345440I-2032J0D01*
G01*
Y353060D02*
G03*
X2036572Y353060I-2032J0D01*
G01*
X1731772Y99060D02*
G03*
X1731772Y99060I-2032J0D01*
G01*
X1739392D02*
G03*
X1739392Y99060I-2032J0D01*
G01*
X1747012D02*
G03*
X1747012Y99060I-2032J0D01*
G01*
X1754632D02*
G03*
X1754632Y99060I-2032J0D01*
G01*
X1762252D02*
G03*
X1762252Y99060I-2032J0D01*
G01*
X1769872D02*
G03*
X1769872Y99060I-2032J0D01*
G01*
X1777492D02*
G03*
X1777492Y99060I-2032J0D01*
G01*
X1452372Y403860D02*
G03*
X1452372Y403860I-2032J0D01*
G01*
Y396240D02*
G03*
X1452372Y396240I-2032J0D01*
G01*
Y388620D02*
G03*
X1452372Y388620I-2032J0D01*
G01*
Y381000D02*
G03*
X1452372Y381000I-2032J0D01*
G01*
Y373380D02*
G03*
X1452372Y373380I-2032J0D01*
G01*
Y365760D02*
G03*
X1452372Y365760I-2032J0D01*
G01*
Y358140D02*
G03*
X1452372Y358140I-2032J0D01*
G01*
X1472692Y403860D02*
G03*
X1472692Y403860I-2032J0D01*
G01*
Y396240D02*
G03*
X1472692Y396240I-2032J0D01*
G01*
Y388620D02*
G03*
X1472692Y388620I-2032J0D01*
G01*
Y381000D02*
G03*
X1472692Y381000I-2032J0D01*
G01*
Y373380D02*
G03*
X1472692Y373380I-2032J0D01*
G01*
Y365760D02*
G03*
X1472692Y365760I-2032J0D01*
G01*
Y358140D02*
G03*
X1472692Y358140I-2032J0D01*
G01*
X1452372Y15240D02*
G03*
X1452372Y15240I-2032J0D01*
G01*
Y22860D02*
G03*
X1452372Y22860I-2032J0D01*
G01*
Y30480D02*
G03*
X1452372Y30480I-2032J0D01*
G01*
Y38100D02*
G03*
X1452372Y38100I-2032J0D01*
G01*
Y45720D02*
G03*
X1452372Y45720I-2032J0D01*
G01*
Y53340D02*
G03*
X1452372Y53340I-2032J0D01*
G01*
Y60960D02*
G03*
X1452372Y60960I-2032J0D01*
G01*
X101092Y15240D02*
G03*
X101092Y15240I-2032J0D01*
G01*
Y22860D02*
G03*
X101092Y22860I-2032J0D01*
G01*
Y30480D02*
G03*
X101092Y30480I-2032J0D01*
G01*
Y38100D02*
G03*
X101092Y38100I-2032J0D01*
G01*
Y45720D02*
G03*
X101092Y45720I-2032J0D01*
G01*
Y53340D02*
G03*
X101092Y53340I-2032J0D01*
G01*
Y60960D02*
G03*
X101092Y60960I-2032J0D01*
G01*
X17272Y99060D02*
G03*
X17272Y99060I-2032J0D01*
G01*
X24892D02*
G03*
X24892Y99060I-2032J0D01*
G01*
X32512D02*
G03*
X32512Y99060I-2032J0D01*
G01*
X40132D02*
G03*
X40132Y99060I-2032J0D01*
G01*
X47752D02*
G03*
X47752Y99060I-2032J0D01*
G01*
X55372D02*
G03*
X55372Y99060I-2032J0D01*
G01*
X62992D02*
G03*
X62992Y99060I-2032J0D01*
G01*
X1028192Y683260D02*
G03*
X1028192Y683260I-2032J0D01*
G01*
X1020572D02*
G03*
X1020572Y683260I-2032J0D01*
G01*
X1012952D02*
G03*
X1012952Y683260I-2032J0D01*
G01*
X1005332D02*
G03*
X1005332Y683260I-2032J0D01*
G01*
X997712D02*
G03*
X997712Y683260I-2032J0D01*
G01*
X990092D02*
G03*
X990092Y683260I-2032J0D01*
G01*
X982472D02*
G03*
X982472Y683260I-2032J0D01*
G01*
X1028192Y662940D02*
G03*
X1028192Y662940I-2032J0D01*
G01*
X1020572D02*
G03*
X1020572Y662940I-2032J0D01*
G01*
X1012952D02*
G03*
X1012952Y662940I-2032J0D01*
G01*
X1005332D02*
G03*
X1005332Y662940I-2032J0D01*
G01*
X997712D02*
G03*
X997712Y662940I-2032J0D01*
G01*
X990092D02*
G03*
X990092Y662940I-2032J0D01*
G01*
X982472D02*
G03*
X982472Y662940I-2032J0D01*
G01*
X512572D02*
G03*
X512572Y662940I-2032J0D01*
G01*
X520192D02*
G03*
X520192Y662940I-2032J0D01*
G01*
X527812D02*
G03*
X527812Y662940I-2032J0D01*
G01*
X535432D02*
G03*
X535432Y662940I-2032J0D01*
G01*
X543052D02*
G03*
X543052Y662940I-2032J0D01*
G01*
X550672D02*
G03*
X550672Y662940I-2032J0D01*
G01*
X558292D02*
G03*
X558292Y662940I-2032J0D01*
G01*
X512572Y683260D02*
G03*
X512572Y683260I-2032J0D01*
G01*
X520192D02*
G03*
X520192Y683260I-2032J0D01*
G01*
X527812D02*
G03*
X527812Y683260I-2032J0D01*
G01*
X535432D02*
G03*
X535432Y683260I-2032J0D01*
G01*
X543052D02*
G03*
X543052Y683260I-2032J0D01*
G01*
X550672D02*
G03*
X550672Y683260I-2032J0D01*
G01*
X558292D02*
G03*
X558292Y683260I-2032J0D01*
G01*
X1028192Y99060D02*
G03*
X1028192Y99060I-2032J0D01*
G01*
X1020572D02*
G03*
X1020572Y99060I-2032J0D01*
G01*
X1012952D02*
G03*
X1012952Y99060I-2032J0D01*
G01*
X1005332D02*
G03*
X1005332Y99060I-2032J0D01*
G01*
X997712D02*
G03*
X997712Y99060I-2032J0D01*
G01*
X990092D02*
G03*
X990092Y99060I-2032J0D01*
G01*
X982472D02*
G03*
X982472Y99060I-2032J0D01*
G01*
X558292D02*
G03*
X558292Y99060I-2032J0D01*
G01*
X550672D02*
G03*
X550672Y99060I-2032J0D01*
G01*
X543052D02*
G03*
X543052Y99060I-2032J0D01*
G01*
X535432D02*
G03*
X535432Y99060I-2032J0D01*
G01*
X527812D02*
G03*
X527812Y99060I-2032J0D01*
G01*
X520192D02*
G03*
X520192Y99060I-2032J0D01*
G01*
X512572D02*
G03*
X512572Y99060I-2032J0D01*
G01*
X101092Y358140D02*
G03*
X101092Y358140I-2032J0D01*
G01*
M02*
